<svg xmlns="http://www.w3.org/2000/svg" width="258" height="200" viewBox="0 0 258 200"><g><g><g><g opacity=".19"><path fill="#adc7f7" d="M59.748 193.584s26.947 13.967 57.706-.756c30.76-14.723 40.74-43.25 56.73-64.706 8.364-11.204 22.051-17.479 32.487-26.924 33.381-30.185 21.334-80.673-9.2-94.504-26.437-11.99-56.977-7.692-94.821 12.605-37.844 20.296-65.122 33.395-84.979 73.843-19.856 40.448 8.595 80.874 42.077 100.442z"/></g></g><g><g><path fill="#bfbfbf" d="M223.483 175.986s-1.852-7.916-.471-14.947c1.38-7.03 4.682-2.336 8.42-7.009 3.74-4.672 1.876-13.546 6.086-17.282 4.21-3.737 10.302-3.272 11.705-10.28 1.404-7.009 2.341-12.611 5.148-11.676 2.807.936-2.34 9.34-2.34 14.482 0 5.143 2.806 8.404.937 13.546-1.87 5.143-9.83 3.266-9.83 9.34 0 6.072 3.278 12.145.466 16.352-2.813 4.208-10.296 5.138-11.228 7.474-.932 2.336-3.279 6.537-5.614 6.537-2.336 0-3.279-6.537-3.279-6.537z"/></g><g><path fill="#bfbfbf" d="M221.954 176.072c.471-1.4-.466-13.546-4.677-15.882-4.21-2.337-8.898-1.401-11.228-5.603-2.33-4.201-2.34-6.072-4.676-6.537-2.336-.465-13.58-2.337-12.171 0 1.409 2.336 9.83-1.401 9.83 3.266 0 4.666-.938 12.145 1.87 14.005 2.806 1.86 10.3 1.4 9.83 5.602-.472 4.202-1.87 5.603.47 7.003 2.342 1.4 8.893 7.48 9.831 2.801z"/></g><g><path fill="none" stroke="#263238" stroke-miterlimit="20" stroke-width=".5" d="M227.166 186.36v0s-2.178-6.795 3.817-19.31c5.996-12.515 10.358-22.034 13.086-26.93"/></g><g><path fill="none" stroke="#263238" stroke-miterlimit="20" stroke-width=".5" d="M222.256 187.46v0s-.814-3.266-3.542-12.24c-2.729-8.975-5.996-11.43-10.633-14.42-4.637-2.992-4.907-7.889-5.721-9.25"/></g><g><path fill="#bfbfbf" d="M233.71 182.558s.561-4.896 4.907-6.257c4.345-1.362 8.449-.818 9.268-3.81.82-2.991.814-5.983 2.723-7.619 1.909-1.636 4.362-2.448 4.637-1.63.275.818-2.728 1.361-2.728 4.078 0 2.717 4.087 9.524-1.909 12.247-5.996 2.722-10.902.269-13.08 2.173-2.179 1.905-3.549 3.267-3.549 3.267z"/></g><g><path fill="none" stroke="#263238" stroke-miterlimit="20" stroke-width=".5" d="M233.17 187.453v0s1.937-7.064 6.54-8.706c4.604-1.641 9.814 1.905 11.992-1.361 2.178-3.266.561-6.527.275-8.706"/></g><g><path fill="#263238" d="M236.227 186.36h-16.898a1.36 1.36 0 0 0-1.359 1.361 1.354 1.354 0 0 0 1.359 1.362h.14l1.314 3.445c.209.546.733.907 1.319.908h11.357c.586-.001 1.11-.362 1.32-.908l1.319-3.445h.129a1.363 1.363 0 0 0 0-2.723z"/></g></g><g><g><path fill="none" stroke="#263238" stroke-linecap="round" stroke-linejoin="round" stroke-miterlimit="20" stroke-width=".5" d="M54.744 71.853c9.894 0 17.914-8.003 17.914-17.876 0-9.873-8.02-17.877-17.914-17.877-9.894 0-17.914 8.004-17.914 17.877s8.02 17.877 17.914 17.877z"/></g><g transform="rotate(-8.96 54.5 54)"><path fill="none" stroke="#263238" stroke-linecap="round" stroke-linejoin="round" stroke-miterlimit="20" stroke-width=".5" d="M54.757 68.786c8.198.003 14.84-6.627 14.838-14.808-.002-8.181-6.65-14.815-14.847-14.818-8.198-.003-14.84 6.627-14.838 14.808.003 8.181 6.65 14.816 14.847 14.818z"/></g><g><path fill="none" stroke="#263238" stroke-linecap="round" stroke-linejoin="round" stroke-miterlimit="20" stroke-width=".5" d="M45.27 53.98v0h9.47v13.63"/></g></g><g><g><path fill="#263238" d="M137.28 190.447a3 3 0 0 1 3.003-2.997 3 3 0 0 1 3.004 2.997 3 3 0 0 1-3.004 2.997 3.001 3.001 0 0 1-2.125-.876 2.988 2.988 0 0 1-.878-2.12z"/><path fill="none" stroke="#263238" stroke-linecap="round" stroke-linejoin="round" stroke-miterlimit="20" stroke-width=".5" d="M137.28 190.447a3 3 0 0 1 3.003-2.997 3 3 0 0 1 3.004 2.997 3 3 0 0 1-3.004 2.997 3.001 3.001 0 0 1-2.125-.876 2.988 2.988 0 0 1-.878-2.12z"/></g><g><path fill="#fff" d="M138.78 190.447a1.507 1.507 0 0 1 2.566-1.07 1.5 1.5 0 0 1-1.061 2.566 1.503 1.503 0 0 1-1.505-1.496z"/><path fill="none" stroke="#263238" stroke-linecap="round" stroke-linejoin="round" stroke-miterlimit="20" stroke-width=".5" d="M138.78 190.447a1.507 1.507 0 0 1 2.566-1.07 1.5 1.5 0 0 1-1.061 2.566 1.503 1.503 0 0 1-1.505-1.496z"/></g><g><path fill="#263238" d="M105.11 190.447a3 3 0 0 1 3.003-2.997 3 3 0 0 1 3.004 2.997 3 3 0 0 1-3.004 2.997c-.796 0-1.56-.315-2.123-.877a2.994 2.994 0 0 1-.88-2.12z"/><path fill="none" stroke="#263238" stroke-linecap="round" stroke-linejoin="round" stroke-miterlimit="20" stroke-width=".5" d="M105.11 190.447a3 3 0 0 1 3.003-2.997 3 3 0 0 1 3.004 2.997 3 3 0 0 1-3.004 2.997c-.796 0-1.56-.315-2.123-.877a2.994 2.994 0 0 1-.88-2.12z"/></g><g><path fill="#fff" d="M106.61 190.447a1.507 1.507 0 0 1 2.568-1.067 1.5 1.5 0 0 1-1.07 2.563 1.503 1.503 0 0 1-1.498-1.496z"/><path fill="none" stroke="#263238" stroke-linecap="round" stroke-linejoin="round" stroke-miterlimit="20" stroke-width=".5" d="M106.61 190.447a1.507 1.507 0 0 1 2.568-1.067 1.5 1.5 0 0 1-1.07 2.563 1.503 1.503 0 0 1-1.498-1.496z"/></g><g><path fill="#263238" d="M94.6 190.447a3 3 0 0 1 3.003-2.997 3 3 0 0 1 3.004 2.997 3 3 0 0 1-3.004 2.997 3.001 3.001 0 0 1-2.125-.876 2.988 2.988 0 0 1-.878-2.12z"/><path fill="none" stroke="#263238" stroke-linecap="round" stroke-linejoin="round" stroke-miterlimit="20" stroke-width=".5" d="M94.6 190.447a3 3 0 0 1 3.003-2.997 3 3 0 0 1 3.004 2.997 3 3 0 0 1-3.004 2.997 3.001 3.001 0 0 1-2.125-.876 2.988 2.988 0 0 1-.878-2.12z"/></g><g><path fill="#fff" d="M96.1 190.447a1.507 1.507 0 0 1 2.566-1.07 1.5 1.5 0 0 1-1.061 2.566 1.503 1.503 0 0 1-1.505-1.496z"/><path fill="none" stroke="#263238" stroke-linecap="round" stroke-linejoin="round" stroke-miterlimit="20" stroke-width=".5" d="M96.1 190.447a1.507 1.507 0 0 1 2.566-1.07 1.5 1.5 0 0 1-1.061 2.566 1.503 1.503 0 0 1-1.505-1.496z"/></g><g transform="rotate(180 116 170.5)"><path fill="#263238" d="M112.77 154.58h6.35v32.437h-6.333V154.58z"/><path fill="none" stroke="#263238" stroke-linecap="round" stroke-linejoin="round" stroke-miterlimit="20" stroke-width=".5" d="M112.77 154.58v0h6.35v32.437h-6.333v0-32.437 0z"/></g><g transform="rotate(180 116 175.5)"><path fill="#263238" d="M111.08 164.1h9.735v22.919h-9.735z"/><path fill="none" stroke="#263238" stroke-linecap="round" stroke-linejoin="round" stroke-miterlimit="20" stroke-width=".5" d="M111.08 164.1v0h9.735v22.919h-9.735v0z"/></g><g transform="rotate(180 126.5 140.5)"><path fill="#263238" d="M122.467 131.69h8.129v17.445h-8.146v-17.417z"/><path fill="none" stroke="#263238" stroke-linecap="round" stroke-linejoin="round" stroke-miterlimit="20" stroke-width=".5" d="M122.467 131.69v0h8.129v17.445h-8.146v0-17.417 0z"/></g><g><path fill="#adc7f7" d="M110.432 131.652h31.809a5.58 5.58 0 0 0 3.989-1.68 5.557 5.557 0 0 0 1.58-4.023l-.763-30.986a5.57 5.57 0 0 0-5.575-5.423H115.21a5.571 5.571 0 0 0-5.513 4.717l-4.772 30.986a5.555 5.555 0 0 0 1.278 4.467 5.58 5.58 0 0 0 4.23 1.942z"/><path fill="none" stroke="#263238" stroke-linecap="round" stroke-linejoin="round" stroke-miterlimit="20" stroke-width=".5" d="M110.432 131.652v0h31.809a5.58 5.58 0 0 0 3.989-1.68 5.557 5.557 0 0 0 1.58-4.023l-.763-30.986a5.57 5.57 0 0 0-5.575-5.423H115.21a5.571 5.571 0 0 0-5.513 4.717l-4.772 30.986a5.555 5.555 0 0 0 1.278 4.467 5.58 5.58 0 0 0 4.23 1.942z"/></g><g><path fill="none" stroke="#263238" stroke-linecap="round" stroke-linejoin="round" stroke-miterlimit="20" stroke-width=".5" d="M120.82 155.69l13.95 9.17"/></g><g><path fill="#263238" d="M135.304 163.476l2.38 1.596a1.562 1.562 0 0 1 .219 2.404l-.168.156a1.557 1.557 0 0 1-2.078.09l-2.167-1.798a1.523 1.523 0 0 1-.129-2.241 1.53 1.53 0 0 1 1.943-.207z"/><path fill="none" stroke="#263238" stroke-linecap="round" stroke-linejoin="round" stroke-miterlimit="20" stroke-width=".5" d="M135.304 163.476l2.38 1.596a1.562 1.562 0 0 1 .219 2.404l-.168.156a1.557 1.557 0 0 1-2.078.09l-2.167-1.798a1.523 1.523 0 0 1-.129-2.241v0a1.53 1.53 0 0 1 1.943-.207z"/></g><g><path fill="#adc7f7" d="M90.08 157.28h51.734c2.756 0 4.99-2.229 4.99-4.98 0-2.75-2.234-4.98-4.99-4.98H90.08a4.986 4.986 0 0 0-4.991 4.98c0 2.751 2.234 4.98 4.99 4.98z"/><path fill="none" stroke="#263238" stroke-linecap="round" stroke-linejoin="round" stroke-miterlimit="20" stroke-width=".5" d="M90.08 157.28v0h51.734c2.756 0 4.99-2.229 4.99-4.98v0c0-2.75-2.234-4.98-4.99-4.98H90.08a4.986 4.986 0 0 0-4.991 4.98v0c0 2.751 2.234 4.98 4.99 4.98z"/></g><g><path fill="#adc7f7" d="M85.121 151.694a5.128 5.128 0 0 1 5.143-4.353h26.834a5.128 5.128 0 0 1 5.165 4.375 4.98 4.98 0 0 1-1.213 3.917 5.001 5.001 0 0 1-3.744 1.685H90.078a5.001 5.001 0 0 1-3.753-1.693 4.979 4.979 0 0 1-1.204-3.931z"/><path fill="none" stroke="#263238" stroke-linecap="round" stroke-linejoin="round" stroke-miterlimit="20" stroke-width=".5" d="M85.121 151.694a5.128 5.128 0 0 1 5.143-4.353h26.834a5.128 5.128 0 0 1 5.165 4.375 4.98 4.98 0 0 1-1.213 3.917 5.001 5.001 0 0 1-3.744 1.685H90.078a5.001 5.001 0 0 1-3.753-1.693 4.979 4.979 0 0 1-1.204-3.931z"/></g><g><path fill="#263238" d="M93.63 188.821h49.672a2.72 2.72 0 0 0-2.722-2.711H96.347a2.714 2.714 0 0 0-2.717 2.711z"/><path fill="none" stroke="#263238" stroke-linecap="round" stroke-linejoin="round" stroke-miterlimit="20" stroke-width=".5" d="M93.63 188.821v0h49.672a2.72 2.72 0 0 0-2.722-2.711H96.347a2.714 2.714 0 0 0-2.717 2.711z"/></g><g><path fill="#263238" d="M102.468 188.821h16.168v-2.711h-13.473a2.72 2.72 0 0 0-2.723 2.711z"/><path fill="none" stroke="#263238" stroke-linecap="round" stroke-linejoin="round" stroke-miterlimit="20" stroke-width=".5" d="M102.468 188.821v0h16.168v0-2.711 0h-13.473a2.72 2.72 0 0 0-2.723 2.711z"/></g><g><path fill="#263238" d="M99.006 126.49l-3.581 5.889s-12.525 1.255-19.683 2.857c-7.158 1.602-8.59 9.468-8.949 11.076-.398 1.792-2.616 39.266-1.903 39.445.713.18 6.086.711 6.086.711s9.06-36.414 11.744-36.946c2.684-.533 42.408.358 48.314-2.858 5.906-3.215 7.338-12.498 3.93-18.924s-35.958-1.25-35.958-1.25z"/><path fill="none" stroke="#263238" stroke-linecap="round" stroke-linejoin="round" stroke-miterlimit="20" stroke-width=".5" d="M99.006 126.49v0l-3.581 5.889v0s-12.525 1.255-19.683 2.857c-7.158 1.602-8.59 9.468-8.949 11.076-.398 1.792-2.616 39.266-1.903 39.445.713.18 6.086.711 6.086.711v0s9.06-36.414 11.744-36.946c2.684-.533 42.408.358 48.314-2.858 5.906-3.215 7.338-12.498 3.93-18.924s-35.958-1.25-35.958-1.25z"/></g><g><path fill="#263238" d="M123.344 133.63s-16.645 0-24.701.711c-8.056.712-13.064 6.785-12.705 12.146.36 5.361 6.866 40.516 6.866 40.516l6.26-.56 3.368-37.67s5.614 3.63 27.39-1.95"/><path fill="none" stroke="#263238" stroke-linecap="round" stroke-linejoin="round" stroke-miterlimit="20" stroke-width=".5" d="M123.344 133.63v0s-16.645 0-24.701.711c-8.056.712-13.064 6.785-12.705 12.146.36 5.361 6.866 40.516 6.866 40.516v0l6.26-.56v0l3.368-37.67v0s5.614 3.63 27.39-1.95"/></g><g><path fill="#9c9c9c" d="M162.522 76.31c-.561-.359-2.324 4.285-2.324 4.285a31.855 31.855 0 0 0-3.402 0c-1.965.18-3.576 2.858-3.576 4.645 0 1.787-8.236 16.067-8.236 16.067s-7.158-11.765-9.662-13.748c-2.503-1.983-11.789-3.748-11.789-3.748-3.8-.594-7.67-.594-11.47 0 0 0-9.302 1.782-11.789 3.748-2.487 1.966-9.667 13.748-9.667 13.748s-8.23-14.286-8.23-16.067c0-1.782-1.611-4.482-3.576-4.645a31.834 31.834 0 0 0-3.402 0s-1.791-4.644-2.324-4.285c-.534.358.353 6.073.892 7.322.54 1.25 5.014 2.14 5.014 2.14s5.546 21.07 7.331 23.927c1.786 2.857 3.762 6.431 8.59 4.286 4.828-2.146 10.919-9.104 10.919-9.104l10.212.157H117.447l12.351-.157s6.086 6.964 10.914 9.104c4.828 2.14 6.804-1.429 8.59-4.286 1.784-2.857 7.314-23.927 7.314-23.927s4.491-.89 5.013-2.14c.523-1.25 1.432-6.964.893-7.322z"/><path fill="none" stroke="#263238" stroke-linecap="round" stroke-linejoin="round" stroke-miterlimit="20" stroke-width=".5" d="M162.522 76.31c-.561-.359-2.324 4.285-2.324 4.285a31.855 31.855 0 0 0-3.402 0c-1.965.18-3.576 2.858-3.576 4.645 0 1.787-8.236 16.067-8.236 16.067v0s-7.158-11.765-9.662-13.748c-2.503-1.983-11.789-3.748-11.789-3.748-3.8-.594-7.67-.594-11.47 0 0 0-9.302 1.782-11.789 3.748-2.487 1.966-9.667 13.748-9.667 13.748v0s-8.23-14.286-8.23-16.067c0-1.782-1.611-4.482-3.576-4.645a31.834 31.834 0 0 0-3.402 0s-1.791-4.644-2.324-4.285c-.534.358.353 6.073.892 7.322.54 1.25 5.014 2.14 5.014 2.14v0s5.546 21.07 7.331 23.927c1.786 2.857 3.762 6.431 8.59 4.286 4.828-2.146 10.919-9.104 10.919-9.104v0l10.212.157v0h.769v0h.645v0l12.351-.157v0s6.086 6.964 10.914 9.104c4.828 2.14 6.804-1.429 8.59-4.286 1.784-2.857 7.314-23.927 7.314-23.927v0s4.491-.89 5.013-2.14c.523-1.25 1.432-6.964.893-7.322z"/></g><g><path fill="#fff" d="M147.885 96.164c-1.578 2.857-2.897 5.137-2.897 5.137s-7.158-11.764-9.662-13.748c-2.503-1.983-11.789-3.747-11.789-3.747a37.13 37.13 0 0 0-11.47 0s-9.302 1.781-11.789 3.747c-2.487 1.967-9.667 13.748-9.667 13.748s-1.426-2.47-3.088-5.49L82.6 98.803c1.437 4.924 2.936 9.647 3.716 10.89 1.791 2.858 3.762 6.432 8.59 4.286 4.828-2.145 10.919-9.103 10.919-9.103l10.212.156h1.415l12.35-.156s6.086 6.963 10.914 9.103c4.828 2.14 6.804-1.428 8.59-4.286.785-1.249 2.29-5.988 3.733-10.93z"/></g><g><g><path fill="#adc7f7" d="M143.594 104.614c-.095-1.17-.185-2.28.292-2.991.223-.333.467-.651.73-.953l-.707-1.12a9.583 9.583 0 0 0-1.123 1.373c-.724 1.086-.617 2.47-.505 3.815.09 1.17.18 2.274-.298 2.991-.41.61-.808.56-1.903.336a5.749 5.749 0 0 0-3.177 0 2.955 2.955 0 0 0-1.853 2.05c.354.309.719.617 1.09.914.15-.801.488-1.513 1.172-1.737a4.585 4.585 0 0 1 2.51.028c1.089.224 2.33.482 3.24-.885.735-1.092.622-2.476.532-3.82z"/></g><g><path fill="#adc7f7" d="M129.778 104.878l.427.476a5.864 5.864 0 0 0 1.094-.594 2.813 2.813 0 0 1 1.196 0c1.335.177 2.692.088 3.992-.263 2.172-.622 2.245-2.975 2.324-5.042.04-1.154.079-2.353.477-3.076a1.736 1.736 0 0 1 2.032-.851c-.286-.443-.561-.885-.881-1.328a2.807 2.807 0 0 0-2.29 1.557c-.562.992-.59 2.348-.635 3.653-.073 2.168-.208 3.513-1.38 3.843a8.888 8.888 0 0 1-3.52.224c-.849-.073-1.578-.14-2.129.297a14.99 14.99 0 0 1-2.655 1.12z"/></g><g><path fill="#adc7f7" d="M98.999 108.058a5.75 5.75 0 0 0-3.178 0c-1.094.224-1.493.275-1.903-.336-.477-.717-.387-1.82-.292-2.991.107-1.345.214-2.729-.51-3.816a8.929 8.929 0 0 0-1.309-1.585l-.707 1.12c.348.36.662.753.938 1.171.477.712.387 1.821.291 2.992-.106 1.344-.218 2.728.511 3.815.91 1.367 2.15 1.12 3.24.885a4.585 4.585 0 0 1 2.51-.028c.613.268 1.04.838 1.122 1.502.365-.297.718-.6 1.067-.908a2.888 2.888 0 0 0-1.78-1.82z"/></g><g><path fill="#adc7f7" d="M103.308 103.465a8.916 8.916 0 0 1-3.525-.224c-1.174-.33-1.308-1.68-1.381-3.843-.045-1.305-.09-2.661-.635-3.653a2.847 2.847 0 0 0-2.627-1.574c-.326.487-.646.975-.96 1.457.657-.224 1.825-.41 2.448.74.398.722.438 1.92.477 3.075.073 2.073.157 4.426 2.324 5.042 1.3.35 2.657.44 3.992.263a2.813 2.813 0 0 1 1.195 0c.265.188.55.348.848.476l.331-.364 2.325.034a15.304 15.304 0 0 1-2.69-1.154c-.567-.415-1.28-.348-2.122-.275z"/></g><g opacity=".5"><g opacity=".5"><path fill="#fff" d="M143.594 104.614c-.095-1.17-.185-2.28.292-2.991.223-.333.467-.651.73-.953l-.707-1.12a9.583 9.583 0 0 0-1.123 1.373c-.724 1.086-.617 2.47-.505 3.815.09 1.17.18 2.274-.298 2.991-.41.61-.808.56-1.903.336a5.749 5.749 0 0 0-3.177 0 2.955 2.955 0 0 0-1.853 2.05c.354.309.719.617 1.09.914.15-.801.488-1.513 1.172-1.737a4.585 4.585 0 0 1 2.51.028c1.089.224 2.33.482 3.24-.885.735-1.092.622-2.476.532-3.82z"/></g><g opacity=".5"><path fill="#fff" d="M129.778 104.878l.427.476a5.864 5.864 0 0 0 1.094-.594 2.813 2.813 0 0 1 1.196 0c1.335.177 2.692.088 3.992-.263 2.172-.622 2.245-2.975 2.324-5.042.04-1.154.079-2.353.477-3.076a1.736 1.736 0 0 1 2.032-.851c-.286-.443-.561-.885-.881-1.328a2.807 2.807 0 0 0-2.29 1.557c-.562.992-.59 2.348-.635 3.653-.073 2.168-.208 3.513-1.38 3.843a8.888 8.888 0 0 1-3.52.224c-.849-.073-1.578-.14-2.129.297a14.99 14.99 0 0 1-2.655 1.12z"/></g><g opacity=".5"><path fill="#fff" d="M98.999 108.058a5.75 5.75 0 0 0-3.178 0c-1.094.224-1.493.275-1.903-.336-.477-.717-.387-1.82-.292-2.991.107-1.345.214-2.729-.51-3.816a8.929 8.929 0 0 0-1.309-1.585l-.707 1.12c.348.36.662.753.938 1.171.477.712.387 1.821.291 2.992-.106 1.344-.218 2.728.511 3.815.91 1.367 2.15 1.12 3.24.885a4.585 4.585 0 0 1 2.51-.028c.613.268 1.04.838 1.122 1.502.365-.297.718-.6 1.067-.908a2.888 2.888 0 0 0-1.78-1.82z"/></g><g opacity=".5"><path fill="#fff" d="M103.308 103.465a8.916 8.916 0 0 1-3.525-.224c-1.174-.33-1.308-1.68-1.381-3.843-.045-1.305-.09-2.661-.635-3.653a2.847 2.847 0 0 0-2.627-1.574c-.326.487-.646.975-.96 1.457.657-.224 1.825-.41 2.448.74.398.722.438 1.92.477 3.075.073 2.073.157 4.426 2.324 5.042 1.3.35 2.657.44 3.992.263a2.813 2.813 0 0 1 1.195 0c.265.188.55.348.848.476l.331-.364 2.325.034a15.304 15.304 0 0 1-2.69-1.154c-.567-.415-1.28-.348-2.122-.275z"/></g></g></g><g><path fill="none" stroke="#263238" stroke-linecap="round" stroke-linejoin="round" stroke-miterlimit="20" stroke-width=".5" d="M147.885 96.164c-1.578 2.857-2.897 5.137-2.897 5.137v0s-7.158-11.764-9.662-13.748c-2.503-1.983-11.789-3.747-11.789-3.747a37.13 37.13 0 0 0-11.47 0s-9.302 1.781-11.789 3.747c-2.487 1.967-9.667 13.748-9.667 13.748v0s-1.426-2.47-3.088-5.49L82.6 98.803c1.437 4.924 2.936 9.647 3.716 10.89 1.791 2.858 3.762 6.432 8.59 4.286 4.828-2.145 10.919-9.103 10.919-9.103v0l10.212.156v0h.769v0h.646v0l12.35-.156v0s6.086 6.963 10.914 9.103c4.828 2.14 6.804-1.428 8.59-4.286.785-1.249 2.29-5.988 3.733-10.93z"/></g><g><path fill="#fff" d="M102.404 96.309s-2.324 4.997-1.785 8.212c.254 1.296.432 2.606.533 3.922 0 0-3.368 9.289-3.93 12.678a7.662 7.662 0 0 0 3.043 7.501c1.97 1.429 28.811 1.787 32.926.717 4.115-1.07 3.756-5.002 3.576-8.571-.18-3.569-1.588-11.244-1.588-11.244s.561-10.896-1.786-13.574"/></g><g><g><path fill="#adc7f7" d="M126.655 107.874c.381-.286.774-.588 1.201-.88l.208-.14c1.981-1.378 1.981-1.372 5.148.365l.954.526c2.992 1.653 3.368 1.765 5.25-.347.274-.314.594-.678.982-1.093 2.414-2.582 2.762-2.42 4.693-1.54l.185.084a.645.645 0 1 0 .533-1.176l-.185-.085c-2.318-1.058-3.273-1.266-6.175 1.832a36.16 36.16 0 0 0-1.01 1.12c-.68.768-1.017 1.121-1.292 1.155-.275.033-1.123-.398-2.358-1.081l-.96-.527c-3.576-1.966-3.868-2.129-6.512-.297l-.202.14c-.444.303-.853.61-1.246.908-2.05 1.54-3.026 2.162-4.57.75-2.066-1.888-4.564-3.54-7.439-1.45-.292.212-.561.42-.83.627-1.735 1.316-2.78 2.112-4.671.947a25.814 25.814 0 0 1-1.555-1.065c-1.685-1.232-3.318-2.398-5.412-.683-.78.633-1.235.89-1.55.851-.527-.061-1.285-1.075-2.442-2.61l-.095-.135a4.004 4.004 0 0 0-2.914-1.781 4.648 4.648 0 0 0-3.278 1.316.638.638 0 0 0 0 .913.646.646 0 0 0 .915 0 3.372 3.372 0 0 1 2.273-.94 2.763 2.763 0 0 1 1.965 1.27l.101.135c1.494 1.99 2.246 2.986 3.318 3.115.82.101 1.578-.358 2.526-1.12 1.275-1.037 2.05-.56 3.83.734.482.353 1.032.75 1.638 1.12 2.65 1.63 4.346.342 6.136-1.025l.809-.605c1.729-1.255 3.368-.874 5.8 1.356a3.686 3.686 0 0 0 2.509 1.12c1.308.006 2.492-.885 3.722-1.804zm.022-6.218c.382-.286.775-.583 1.201-.88l.208-.14c1.982-1.373 1.982-1.373 5.148.364l.955.527c3.003 1.652 3.385 1.764 5.249-.348.275-.313.595-.672.982-1.092 2.414-2.577 2.762-2.42 4.693-1.54l.186.083a.648.648 0 0 0 .91-.652.646.646 0 0 0-.377-.524l-.185-.084c-2.33-1.059-3.279-1.266-6.176 1.832a36.16 36.16 0 0 0-1.01 1.12c-.68.768-.938 1.115-1.291 1.154-.354.04-1.118-.397-2.358-1.08l-.96-.528c-3.576-1.977-3.868-2.128-6.513-.296l-.202.14c-.443.302-.853.616-1.246.907-2.049 1.54-3.026 2.163-4.57.75-2.066-1.887-4.564-3.534-7.438-1.445-.27.208-.567.415-.831.622-1.735 1.317-2.779 2.112-4.67.947a25.814 25.814 0 0 1-1.556-1.064c-1.707-1.244-3.318-2.398-5.412-.684-.78.633-1.252.885-1.55.852-.527-.062-1.285-1.076-2.441-2.61l-.096-.135a4.004 4.004 0 0 0-2.913-1.782 4.648 4.648 0 0 0-3.279 1.317.638.638 0 0 0 0 .913.646.646 0 0 0 .915 0 3.372 3.372 0 0 1 2.274-.941c.81.118 1.527.582 1.965 1.271l.1.135c1.494 1.994 2.246 2.986 3.319 3.115.842.112 1.577-.348 2.526-1.12 1.274-1.043 2.049-.561 3.829.728.482.352 1.032.75 1.639 1.12 2.65 1.63 4.345.342 6.136-1.025l.791-.605c1.73-1.255 3.358-.885 5.8 1.355a3.697 3.697 0 0 0 2.51 1.149c1.302 0 2.486-.896 3.738-1.826z"/></g><g opacity=".5"><path fill="#fff" d="M126.655 107.874c.381-.286.774-.588 1.201-.88l.208-.14c1.981-1.378 1.981-1.372 5.148.365l.954.526c2.992 1.653 3.368 1.765 5.25-.347.274-.314.594-.678.982-1.093 2.414-2.582 2.762-2.42 4.693-1.54l.185.084a.645.645 0 1 0 .533-1.176l-.185-.085c-2.318-1.058-3.273-1.266-6.175 1.832a36.16 36.16 0 0 0-1.01 1.12c-.68.768-1.017 1.121-1.292 1.155-.275.033-1.123-.398-2.358-1.081l-.96-.527c-3.576-1.966-3.868-2.129-6.512-.297l-.202.14c-.444.303-.853.61-1.246.908-2.05 1.54-3.026 2.162-4.57.75-2.066-1.888-4.564-3.54-7.439-1.45-.292.212-.561.42-.83.627-1.735 1.316-2.78 2.112-4.671.947a25.814 25.814 0 0 1-1.555-1.065c-1.685-1.232-3.318-2.398-5.412-.683-.78.633-1.235.89-1.55.851-.527-.061-1.285-1.075-2.442-2.61l-.095-.135a4.004 4.004 0 0 0-2.914-1.781 4.648 4.648 0 0 0-3.278 1.316.638.638 0 0 0 0 .913.646.646 0 0 0 .915 0 3.372 3.372 0 0 1 2.273-.94 2.763 2.763 0 0 1 1.965 1.27l.101.135c1.494 1.99 2.246 2.986 3.318 3.115.82.101 1.578-.358 2.526-1.12 1.275-1.037 2.05-.56 3.83.734.482.353 1.032.75 1.638 1.12 2.65 1.63 4.346.342 6.136-1.025l.809-.605c1.729-1.255 3.368-.874 5.8 1.356a3.686 3.686 0 0 0 2.509 1.12c1.308.006 2.492-.885 3.722-1.804zm.022-6.218c.382-.286.775-.583 1.201-.88l.208-.14c1.982-1.373 1.982-1.373 5.148.364l.955.527c3.003 1.652 3.385 1.764 5.249-.348.275-.313.595-.672.982-1.092 2.414-2.577 2.762-2.42 4.693-1.54l.186.083a.648.648 0 0 0 .91-.652.646.646 0 0 0-.377-.524l-.185-.084c-2.33-1.059-3.279-1.266-6.176 1.832a36.16 36.16 0 0 0-1.01 1.12c-.68.768-.938 1.115-1.291 1.154-.354.04-1.118-.397-2.358-1.08l-.96-.528c-3.576-1.977-3.868-2.128-6.513-.296l-.202.14c-.443.302-.853.616-1.246.907-2.049 1.54-3.026 2.163-4.57.75-2.066-1.887-4.564-3.534-7.438-1.445-.27.208-.567.415-.831.622-1.735 1.317-2.779 2.112-4.67.947a25.814 25.814 0 0 1-1.556-1.064c-1.707-1.244-3.318-2.398-5.412-.684-.78.633-1.252.885-1.55.852-.527-.062-1.285-1.076-2.441-2.61l-.096-.135a4.004 4.004 0 0 0-2.913-1.782 4.648 4.648 0 0 0-3.279 1.317.638.638 0 0 0 0 .913.646.646 0 0 0 .915 0 3.372 3.372 0 0 1 2.274-.941c.81.118 1.527.582 1.965 1.271l.1.135c1.494 1.994 2.246 2.986 3.319 3.115.842.112 1.577-.348 2.526-1.12 1.274-1.043 2.049-.561 3.829.728.482.352 1.032.75 1.639 1.12 2.65 1.63 4.345.342 6.136-1.025l.791-.605c1.73-1.255 3.358-.885 5.8 1.355a3.697 3.697 0 0 0 2.51 1.149c1.302 0 2.486-.896 3.738-1.826z"/></g></g><g><path fill="none" stroke="#263238" stroke-linecap="round" stroke-linejoin="round" stroke-miterlimit="20" stroke-width=".5" d="M102.404 96.309v0s-2.324 4.997-1.785 8.212c.254 1.296.432 2.606.533 3.922 0 0-3.368 9.289-3.93 12.678a7.662 7.662 0 0 0 3.043 7.501c1.97 1.429 28.811 1.787 32.926.717 4.115-1.07 3.756-5.002 3.576-8.571-.18-3.569-1.588-11.244-1.588-11.244v0s.561-10.896-1.786-13.574"/></g><g><path fill="#adc7f7" d="M112.051 83.806l-.763.151c-.073.332-.113.67-.118 1.009 0 3.4 3.65 6.162 8.146 6.162 4.497 0 8.14-2.762 8.14-6.162v-.292c-2.172-.56-3.93-.868-3.93-.868a37.13 37.13 0 0 0-11.475 0z"/><path fill="none" stroke="#263238" stroke-linecap="round" stroke-linejoin="round" stroke-miterlimit="20" stroke-width=".5" d="M112.051 83.806v0l-.763.151c-.073.332-.113.67-.118 1.009 0 3.4 3.65 6.162 8.146 6.162 4.497 0 8.14-2.762 8.14-6.162v-.292c-2.172-.56-3.93-.868-3.93-.868a37.13 37.13 0 0 0-11.475 0z"/></g><g><path fill="#9c9c9c" d="M113.84 80.413s-.562 4.286 0 5.714c.56 1.429 3.93 4.107 7.337 3.037a5.604 5.604 0 0 0 3.93-5.177V78.99l-11.093.359z"/><path fill="none" stroke="#263238" stroke-linecap="round" stroke-linejoin="round" stroke-miterlimit="20" stroke-width=".5" d="M113.84 80.413v0s-.562 4.286 0 5.714c.56 1.429 3.93 4.107 7.337 3.037a5.604 5.604 0 0 0 3.93-5.177V78.99v0l-11.093.359v0z"/></g><g><path fill="#263238" d="M119.574 78.628c7.017 0 12.705-5.556 12.705-12.409 0-6.853-5.688-12.409-12.705-12.409-7.016 0-12.704 5.556-12.704 12.409 0 6.853 5.688 12.409 12.704 12.409z"/><path fill="none" stroke="#263238" stroke-linecap="round" stroke-linejoin="round" stroke-miterlimit="20" stroke-width=".5" d="M119.574 78.628c7.017 0 12.705-5.556 12.705-12.409 0-6.853-5.688-12.409-12.705-12.409-7.016 0-12.704 5.556-12.704 12.409 0 6.853 5.688 12.409 12.704 12.409z"/></g><g><path fill="#9c9c9c" d="M111.529 70.416s-1.072-2.499-1.79-.18c-.72 2.32.897 5.182 1.97 5.356 1.072.174-.18-5.176-.18-5.176z"/><path fill="none" stroke="#263238" stroke-linecap="round" stroke-linejoin="round" stroke-miterlimit="20" stroke-width=".5" d="M111.529 70.416v0s-1.072-2.499-1.79-.18c-.72 2.32.897 5.182 1.97 5.356 1.072.174-.18-5.176-.18-5.176z"/></g><g><path fill="#9c9c9c" d="M126.994 70.416s1.072-2.499 1.79-.18c.72 2.32-.898 5.182-1.97 5.356-1.072.174.18-5.176.18-5.176z"/><path fill="none" stroke="#263238" stroke-linecap="round" stroke-linejoin="round" stroke-miterlimit="20" stroke-width=".5" d="M126.994 70.416v0s1.072-2.499 1.79-.18c.72 2.32-.898 5.182-1.97 5.356-1.072.174.18-5.176.18-5.176z"/></g><g><path fill="#9c9c9c" d="M124.868 62.069a4.375 4.375 0 0 0-3.407-.824c-1.09.213-2.203.292-3.312.236-1.786-.174-3.217-.891-4.649.56-1.431 1.45-2.15 8.033-2.15 11.428 0 3.395 2.493 8.19 4.295 9.44s6.798 1.076 8.05 0c1.252-1.076 3.223-4.997 3.582-8.213.36-3.215-.36-9.462-1.072-11.07a4.372 4.372 0 0 0-1.337-1.557z"/><path fill="none" stroke="#263238" stroke-linecap="round" stroke-linejoin="round" stroke-miterlimit="20" stroke-width=".5" d="M124.868 62.069a4.375 4.375 0 0 0-3.407-.824c-1.09.213-2.203.292-3.312.236-1.786-.174-3.217-.891-4.649.56-1.431 1.45-2.15 8.033-2.15 11.428 0 3.395 2.493 8.19 4.295 9.44s6.798 1.076 8.05 0c1.252-1.076 3.223-4.997 3.582-8.213.36-3.215-.36-9.462-1.072-11.07a4.372 4.372 0 0 0-1.337-1.557z"/></g><g><path fill="#263238" d="M116.908 70.945c.369 0 .668-.49.668-1.093s-.299-1.092-.668-1.092c-.369 0-.668.49-.668 1.092 0 .604.3 1.093.668 1.093z"/></g><g><path fill="#263238" d="M122.856 69.852c0 .605-.297 1.093-.668 1.093-.37 0-.668-.488-.668-1.093s.303-1.092.668-1.092c.365 0 .668.493.668 1.092z"/></g><g><path fill="#263238" d="M120.366 76.032c0 .6-.297 1.087-.668 1.087-.37 0-.668-.487-.668-1.087 0-.599.298-1.092.668-1.092.37 0 .668.487.668 1.092z"/></g><g><path fill="#9c9c9c" d="M118.365 71.19c-1.123 1.754 1.01 2.88 2.43 1.815.972-.728 0-1.815 0-1.815"/><path fill="none" stroke="#263238" stroke-linecap="round" stroke-linejoin="round" stroke-miterlimit="20" stroke-width=".5" d="M118.365 71.19c-1.123 1.754 1.01 2.88 2.43 1.815.972-.728 0-1.815 0-1.815v0"/></g><g><path fill="none" stroke="#263238" stroke-linecap="round" stroke-linejoin="round" stroke-miterlimit="20" stroke-width=".5" d="M114.6 67.431s1.819-1.68 3.643-.851"/></g><g><path fill="none" stroke="#263238" stroke-linecap="round" stroke-linejoin="round" stroke-miterlimit="20" stroke-width=".5" d="M121.27 66.71s1.684-1.093 3.279.968"/></g><g><path fill="#fff" d="M64.89 185.75s-10.75 2.1-10.75 3.193 13.698 4.196 15.158 4.376c1.46.179 1.684-6.858 1.684-6.858z"/><path fill="none" stroke="#263238" stroke-linecap="round" stroke-linejoin="round" stroke-miterlimit="20" stroke-width=".5" d="M64.89 185.75v0s-10.75 2.1-10.75 3.193 13.698 4.196 15.158 4.376c1.46.179 1.684-6.858 1.684-6.858v0z"/></g><g><path fill="#adc7f7" d="M70.196 192.272l-15.337-3.922c-.45.207-.719.409-.719.56 0 1.12 13.698 4.196 15.158 4.376.376.078.668-.353.898-1.014z"/><path fill="none" stroke="#263238" stroke-linecap="round" stroke-linejoin="round" stroke-miterlimit="20" stroke-width=".5" d="M70.196 192.272l-15.337-3.922c-.45.207-.719.409-.719.56 0 1.12 13.698 4.196 15.158 4.376.376.078.668-.353.898-1.014z"/></g><g><path fill="#fff" d="M92.803 186.998s-10.908 4.678-10.178 5.776c.73 1.098 14.978.56 16.438.364 1.46-.196 0-6.678 0-6.678z"/><path fill="none" stroke="#263238" stroke-linecap="round" stroke-linejoin="round" stroke-miterlimit="20" stroke-width=".5" d="M92.803 186.998v0s-10.908 4.678-10.178 5.776c.73 1.098 14.978.56 16.438.364 1.46-.196 0-6.678 0-6.678v0z"/></g><g><path fill="#adc7f7" d="M82.964 192.09c-.32.286-.466.527-.36.69.73 1.092 14.979.56 16.438.363.354-.045.534-.46.607-1.053z"/><path fill="none" stroke="#263238" stroke-linecap="round" stroke-linejoin="round" stroke-miterlimit="20" stroke-width=".5" d="M82.964 192.09c-.32.286-.466.527-.36.69.73 1.092 14.979.56 16.438.363.354-.045.534-.46.607-1.053z"/></g></g><g><g transform="rotate(180 69 114.5)"><path fill="#fff" d="M48.2 113.59h41.167v1.658H48.2z"/><path fill="none" stroke="#263238" stroke-linecap="round" stroke-linejoin="round" stroke-miterlimit="20" stroke-width=".5" d="M48.2 113.59v0h41.167v1.658H48.2v0z"/></g><g transform="rotate(180 57 114.5)"><path fill="#fff" d="M36.59 113.59h41.167v1.658H36.59z"/><path fill="none" stroke="#263238" stroke-linecap="round" stroke-linejoin="round" stroke-miterlimit="20" stroke-width=".5" d="M36.59 113.59v0h41.167v1.658H36.59v0z"/></g><g><path fill="#fff" d="M41.18 110.641h34.33l-3.7-26.151H37.48l3.7 26.151z"/><path fill="none" stroke="#263238" stroke-linecap="round" stroke-linejoin="round" stroke-miterlimit="20" stroke-width=".5" d="M41.18 110.641v0h34.33v0l-3.7-26.151v0H37.48v0l3.7 26.151v0z"/></g><g><path fill="#263238" d="M39.76 110.641h34.33l-3.7-26.151H36.06l3.7 26.151z"/><path fill="none" stroke="#263238" stroke-linecap="round" stroke-linejoin="round" stroke-miterlimit="20" stroke-width=".5" d="M39.76 110.641v0h34.33v0l-3.7-26.151v0H36.06v0l3.7 26.151v0z"/></g><g><path fill="#fff" d="M56.284 103.455a.314.314 0 0 1-.303.24l-5.02-.055a.315.315 0 0 1-.302-.387l.454-1.877a.314.314 0 0 1 .31-.24l5.018.05a.309.309 0 0 1 .298.38zm-6.007-4.975l-3.447 16.762h8.859l3.447-16.762z"/><path fill="none" stroke="#263238" stroke-linecap="round" stroke-linejoin="round" stroke-miterlimit="20" stroke-width=".5" d="M56.284 103.455a.314.314 0 0 1-.303.24l-5.02-.055a.315.315 0 0 1-.302-.387l.454-1.877a.314.314 0 0 1 .31-.24l5.018.05a.309.309 0 0 1 .298.38zm-6.007-4.975l-3.447 16.762h8.859l3.447-16.762z"/></g><g transform="rotate(-76.72 37 82.5)"><path fill="#adc7f7" d="M36.842 88.921c3.484.002 6.307-2.827 6.306-6.317-.002-3.491-2.828-6.322-6.312-6.324-3.484-.002-6.308 2.827-6.306 6.318.002 3.49 2.828 6.322 6.312 6.323z"/><path fill="none" stroke="#263238" stroke-linecap="round" stroke-linejoin="round" stroke-miterlimit="20" stroke-width=".5" d="M36.842 88.921c3.484.002 6.307-2.827 6.306-6.317-.002-3.491-2.828-6.322-6.312-6.324-3.484-.002-6.308 2.827-6.306 6.318.002 3.49 2.828 6.322 6.312 6.323z"/></g><g><path fill="#263238" d="M36.754 83.888l-1.864 2.118c-.081.106-.18.2-.292.274a.978.978 0 0 1-.91.146.79.79 0 0 1-.516-.482 1.03 1.03 0 0 1 .287-1.087l2.161-2.286-2.06-2.386a1.12 1.12 0 0 1-.259-.672.739.739 0 0 1 .191-.56c.134-.14.3-.246.483-.309a.923.923 0 0 1 .623 0c.242.092.453.252.607.46l1.79 2.128 1.685-1.955c.087-.124.193-.233.314-.325a.91.91 0 0 1 .96-.179.87.87 0 0 1 .51.493.722.722 0 0 1-.128.796L38.09 82.51l2.246 2.627c.071.089.13.187.174.292a.794.794 0 0 1-.14.817.955.955 0 0 1-.72.365 1.202 1.202 0 0 1-1.038-.56z"/></g></g><g><g><path fill="#fff" d="M117.768 124.78l-1.785 67.064a1.638 1.638 0 0 1-1.64 1.597 1.643 1.643 0 0 1-1.627-1.619l-.876-67.042z"/><path fill="none" stroke="#263238" stroke-linecap="round" stroke-linejoin="round" stroke-miterlimit="20" stroke-width=".5" d="M117.768 124.78v0l-1.785 67.064a1.638 1.638 0 0 1-1.64 1.597v0a1.643 1.643 0 0 1-1.627-1.619l-.876-67.042v0z"/></g><g><path fill="#fff" d="M96.065 124.78l-1.78 67.064c-.02.89-.752 1.6-1.644 1.597-.9 0-1.63-.722-1.64-1.619l-.881-67.042z"/><path fill="none" stroke="#263238" stroke-linecap="round" stroke-linejoin="round" stroke-miterlimit="20" stroke-width=".5" d="M96.065 124.78v0l-1.78 67.064c-.02.89-.752 1.6-1.644 1.597v0c-.9 0-1.63-.722-1.64-1.619l-.881-67.042v0z"/></g><g><path fill="#fff" d="M42.385 124.78l-1.78 67.064c-.02.89-.752 1.6-1.644 1.597-.9 0-1.63-.722-1.64-1.619l-.881-67.042z"/><path fill="none" stroke="#263238" stroke-linecap="round" stroke-linejoin="round" stroke-miterlimit="20" stroke-width=".5" d="M42.385 124.78v0l-1.78 67.064c-.02.89-.752 1.6-1.644 1.597v0c-.9 0-1.63-.722-1.64-1.619l-.881-67.042v0z"/></g><g><path fill="#fff" d="M20.647 124.78l-1.757 67.064a1.638 1.638 0 0 1-1.611 1.597 1.647 1.647 0 0 1-1.684-1.619l-.865-67.042z"/><path fill="none" stroke="#263238" stroke-linecap="round" stroke-linejoin="round" stroke-miterlimit="20" stroke-width=".5" d="M20.647 124.78v0l-1.757 67.064a1.638 1.638 0 0 1-1.611 1.597v0a1.647 1.647 0 0 1-1.684-1.619l-.865-67.042v0z"/></g><g transform="rotate(180 66 121.5)"><path fill="#fff" d="M12.75 117.46h107.143v8.028H12.75z"/><path fill="none" stroke="#263238" stroke-linecap="round" stroke-linejoin="round" stroke-miterlimit="20" stroke-width=".5" d="M12.75 117.46v0h107.143v8.028H12.75v0z"/></g><g transform="rotate(180 105 121.5)"><path fill="#fff" d="M89.96 117.46h29.928v8.028H89.96z"/><path fill="none" stroke="#263238" stroke-linecap="round" stroke-linejoin="round" stroke-miterlimit="20" stroke-width=".5" d="M89.96 117.46v0h29.928v8.028H89.96v0z"/></g><g transform="rotate(180 66 119.5)"><path fill="#263238" d="M12.75 117.46h107.143v4.011H12.75z"/><path fill="none" stroke="#263238" stroke-linecap="round" stroke-linejoin="round" stroke-miterlimit="20" stroke-width=".5" d="M12.75 117.46v0h107.143v4.011H12.75v0z"/></g><g transform="rotate(180 66.5 117)"><path fill="#adc7f7" d="M11.09 114.69h110.466v4.42H11.09z"/><path fill="none" stroke="#263238" stroke-linecap="round" stroke-linejoin="round" stroke-miterlimit="20" stroke-width=".5" d="M11.09 114.69v0h110.466v4.42H11.09v0z"/></g><g transform="rotate(180 49.5 117)"><path fill="#adc7f7" d="M11.09 114.69h76.889v4.42H11.09z"/><path fill="none" stroke="#263238" stroke-linecap="round" stroke-linejoin="round" stroke-miterlimit="20" stroke-width=".5" d="M11.09 114.69v0h76.889v4.42H11.09v0z"/></g></g><g><g><path fill="none" stroke="#263238" stroke-linecap="round" stroke-linejoin="round" stroke-miterlimit="20" stroke-width=".5" d="M252.38 193.44H257"/></g><g><path fill="none" stroke="#263238" stroke-linecap="round" stroke-linejoin="round" stroke-miterlimit="20" stroke-width=".5" d="M1 193.44h243.86"/></g></g></g></g></svg>