<svg xmlns="http://www.w3.org/2000/svg" width="72" height="72" viewBox="0 0 72 72"><defs><clipPath id="fxbqa"><path fill="#fff" d="M0 5a5 5 0 0 1 5-5h62a5 5 0 0 1 5 5v62a5 5 0 0 1-5 5H5a5 5 0 0 1-5-5z"/></clipPath></defs><g><g><g><path fill="none" stroke="#335494" stroke-dasharray="8 8" stroke-miterlimit="20" stroke-width="2" d="M0 5a5 5 0 0 1 5-5h62a5 5 0 0 1 5 5v62a5 5 0 0 1-5 5H5a5 5 0 0 1-5-5z" clip-path="url(&quot;#fxbqa&quot;)"/></g><g><g><path fill="#335491" d="M42 37h-5v5c0 .55-.45 1-1 1s-1-.45-1-1v-5h-5c-.55 0-1-.45-1-1s.45-1 1-1h5v-5c0-.55.45-1 1-1s1 .45 1 1v5h5c.55 0 1 .45 1 1s-.45 1-1 1z"/></g></g></g></g></svg>