<svg xmlns="http://www.w3.org/2000/svg" width="120" height="40" viewBox="0 0 120 40"><defs><clipPath id="oawia"><path fill="#fff" d="M0 8a8 8 0 0 1 8-8h104a8 8 0 0 1 8 8v24a8 8 0 0 1-8 8H8a8 8 0 0 1-8-8z"/></clipPath></defs><g><g><path fill="none" stroke="#35558f" stroke-dasharray="8 8" stroke-miterlimit="20" stroke-width="2" d="M0 8a8 8 0 0 1 8-8h104a8 8 0 0 1 8 8v24a8 8 0 0 1-8 8H8a8 8 0 0 1-8-8z" clip-path="url(&quot;#oawia&quot;)"/></g><g><path fill="#335491" d="M29.929 21H24.57v5c0 .55-.482 1-1.071 1-.59 0-1.071-.45-1.071-1v-5H17.07C16.482 21 16 20.55 16 20s.482-1 1.071-1h5.358v-5c0-.55.482-1 1.071-1 .59 0 1.071.45 1.071 1v5h5.358c.589 0 1.071.45 1.071 1s-.482 1-1.071 1z"/></g></g></svg>