<svg xmlns="http://www.w3.org/2000/svg" width="32" height="32" viewBox="0 0 32 32"><g><g><g><path fill="#ffc10e" d="M15.998 31.996c8.835 0 15.998-7.163 15.998-15.998C31.996 7.162 24.833 0 15.998 0 7.162 0 0 7.162 0 15.998c0 8.835 7.162 15.998 15.998 15.998z"/></g><g><g><path fill="#333" d="M11.132 15.515a2.512 2.512 0 1 0 0-5.025 2.512 2.512 0 0 0 0 5.025z"/></g><g><path fill="#333" d="M20.632 15.515a2.512 2.512 0 1 0 0-5.025 2.512 2.512 0 0 0 0 5.025z"/></g><g><path fill="#333" d="M21.485 6.84l-5.808 2.574h.638l-5.807-2.573c-.738-.327-1.381.76-.638 1.09l3.133 1.389 2.01.89c.273.122.673.381.983.381.31 0 .71-.26.983-.38l2.01-.891 3.133-1.389c.743-.33.1-1.417-.637-1.09z"/></g><g><path fill="#333" d="M7.101 22.063h17.496c.815 0 .815-1.263 0-1.263H7.101c-.815 0-.815 1.263 0 1.263z"/></g></g></g></g></svg>