<svg xmlns="http://www.w3.org/2000/svg" width="87" height="120" viewBox="0 0 87 120"><g><g><g><path fill="#282826" d="M75.783 63.28c18.336 15.443 12.816 46.643-10.46 54.456-22.624 7.59-47.363-9.983-43.29-34.352-3.42-.094-6.777-.557-9.981-1.52C1.375 78.668-6.213 66.157 7.1 60.192c.057-.025.11-.02.165-.038.074-.035.124-.09.207-.119 6.816-2.28 15.066-.75 21.062-5.16-.342-.533-.712-1.05-1.162-1.506-5.146-5.22-13.835-7.103-17.358-13.863-3.897-7.48-5.393-16.152-2.264-24.132C12.783 2.538 31.252-4.492 43.157 3.19c6.924 4.465 12.989 13.67 12.851 22.152-.126 7.76-4.025 13.506-3.89 20.78.135-.046.262-.104.423-.115 7.275-.488 12.779-7.187 19.29-9.893.17-.071.33-.099.48-.112 13.379-3.225 16.967 10.145 10.113 19.823-1.93 2.727-4.177 5.2-6.641 7.456zM33.25 56.637c2.573 6.06 17.936 2.331 16.812-3.99-1.777-5.638-1.985-11.65.163-17.243 3.045-7.932 3.36-13.92-1.286-21.72C41.6 1.365 24.205-.362 14.524 10.612c-5.646 6.4-6.622 14.42-3.872 22.443 2.226 6.494 5.622 9.102 11.327 12.206 4.674 2.541 9.148 6.374 11.272 11.377zM3.675 66.824c1.177 6.086 9.579 7.896 15.11 8.484 8.773.934 17.536-.443 25.814-3.456 9.313-3.39 20.033-7.815 27.439-14.6 3.618-3.314 12.319-12.985 8.261-17.99-1.613-.894-4.045-1.101-7.64-.144-7 2.909-12.176 9.473-20.118 10.005-.047.002-.08-.018-.126-.018.152.879.348 1.777.643 2.714.077.246.094.47.066.673.383 5.259-5.853 8.626-10.298 9.849-2.661.731-6.182 1.62-8.82.308-2.066-1.027-3.031-2.997-3.998-5.017-6.24 4.516-14.543 3.066-21.578 5.367-2.496 1.16-4 2.466-4.755 3.825zm10.588 12.38c3.45.686 6.968.98 10.485.813 8.39-.406 16.743-2.19 24.61-5.145 8.203-3.076 16.557-7.078 23.214-12.893 2.982-2.606 5.97-5.459 7.934-8.942 1.611-2.858 2.828-6.93 2.277-10.043-.419 4.012-3.516 8.542-5.835 11.374-7.21 8.81-18.935 14.043-29.35 18.023-10.25 3.914-21.335 6.099-32.248 3.97-4.573-.891-9.94-2.714-12.244-6.598.58 4.395 6.94 8.6 11.157 9.44zm45.503-5.33a92.61 92.61 0 0 1-7.786 3.333c-3.399 1.277-7.056 2.502-10.835 3.528-.04.099-.09.2-.154.301-8.737 13.69 6.628 31.706 21.464 23.354 12.705-7.154 12.514-26.248-2.56-30.447-.052-.015-.08-.05-.129-.068zm13.646-8.556c-3.077 2.509-6.43 4.711-9.933 6.635 14.994 6.775 15.487 30.689-1.762 36.11-16.463 5.169-32.231-10.727-24.682-26.312-3.907.866-7.894 1.453-11.837 1.602-3.853 20.598 17.068 38.836 37.182 32.084 21.188-7.112 29.942-35.208 11.032-50.12z"/></g></g></g></svg>