<svg xmlns="http://www.w3.org/2000/svg" width="352" height="72" viewBox="0 0 352 72"><defs><clipPath id="9oena"><path fill="#fff" d="M0 0h352v18.035a18.266 18.266 0 0 0-1.125-.035c-9.937 0-17.993 8.059-17.993 18s8.056 18 17.993 18c.378 0 .753-.012 1.125-.035V72H0V54c9.933-.003 17.984-8.06 17.984-18S9.933 18.003 0 18z"/></clipPath></defs><g><g><path fill="#4fcec4" fill-opacity=".05" d="M0 0h352v18.035a18.266 18.266 0 0 0-1.125-.035c-9.937 0-17.993 8.059-17.993 18s8.056 18 17.993 18c.378 0 .753-.012 1.125-.035V72H0V54c9.933-.003 17.984-8.06 17.984-18S9.933 18.003 0 18z"/><path fill="none" stroke="#4fcec5" stroke-dasharray="6 6" stroke-miterlimit="20" stroke-width="2" d="M0 0h352v18.035a18.266 18.266 0 0 0-1.125-.035c-9.937 0-17.993 8.059-17.993 18s8.056 18 17.993 18c.378 0 .753-.012 1.125-.035V72H0V54c9.933-.003 17.984-8.06 17.984-18S9.933 18.003 0 18z" clip-path="url(&quot;#9oena&quot;)"/></g></g></svg>