<svg xmlns="http://www.w3.org/2000/svg" width="125" height="170" viewBox="0 0 125 170"><g><g><g><path fill="#282826" d="M116.18 25.425c13.778 16.392 9.661 46.337-2.018 62.567-6.242 8.674-16.148 13.23-26.25 13.554.505 2.321 2.951 5.258.925 7.429-1.359 1.455-3.573 1.324-5.531 1.08-2.086 5.893-5.682 10.9-10.589 14.811-5.094 4.062-11.125 6.689-16.667 10.046-6.362 3.855-11.879 8.57-13.963 15.987-1.752 6.238-1.462 12.423-.726 18.78.026.225-.32.253-.38.052-3.718-12.217-1.591-24.942 8.82-33.017 5.428-4.209 11.826-6.862 17.602-10.519 6.428-4.07 11.39-9.305 14.257-16.347-1.978-.235-4.99-.765-5.656-2.988-.826-2.76 1.509-4.123 2.51-6.25-5.77-1.358-11.238-4.165-15.715-8.457a39.127 39.127 0 0 1-7.956-10.835c-3.341 2.361-6.951 4.017-10.666 4.982.924 2.138 3.788 4.744 2.243 7.115-.93 1.426-2.578 1.846-4.239 2.015 1.325 5.211 1.784 10.466.075 15.711-1.694 5.201-4.536 9.8-7.333 14.464-7.28 12.14-10.414 25.46-6.587 39.37.059.212-.267.362-.363.154-5.221-11.376-3.48-24.36 2.295-35.233 2.822-5.31 6.482-10.226 8.872-15.76 2.694-6.236 2.826-12.144 1.25-18.58l-.433.022c-1.956.117-5.464.32-6.549-1.847-1.31-2.614.647-4.206 1.304-6.435-8.965-.388-17.692-4.514-23.873-12.005C.863 63.204-1.93 44.631 1.245 29.604 4.424 14.552 14.955 1.954 30.948.221 46.853-1.502 60.434 6.98 67.085 21.16c6.678-5.859 14.942-9.787 24.162-8.828 9.802 1.02 18.572 5.527 24.933 13.094zm5.906 32.136c-1.63-.057-3.365.897-3.82 2.545-.559 2.022.709 4.408 2.836 4.559.452-2.333.783-4.713.984-7.104zm-8.695-31.618c-.206-.22-.422-.434-.634-.65-1.618 1.5-1.86 4.07.097 5.58 1.268.977 2.869.607 4.033-.292a28.687 28.687 0 0 0-3.496-4.638zM15.868 9.178c4.997 5.125 13.149 5.916 19.993 5.565 5.653-.29 14.523-.736 18.034-5.997.019-.028.041-.05.062-.075-2.953-2.235-6.243-3.962-9.777-5.045-1.544 3.077-6.191 3.752-9.239 4.08-4.096.442-8.295-.176-11.406-2.957-2.816 1.14-5.385 2.623-7.667 4.43zm14.134-6.333c-1.27.236-2.484.559-3.674.919 2.506 1.588 5.638 1.863 8.608 1.465 1.961-.262 5.215-.61 6.678-2.263-3.683-.778-7.586-.87-11.612-.121zM6.708 20.828c7.806 5.931 17.912 7.499 27.498 6.252 9.16-1.19 20.358-4.12 27.576-10.192a36.439 36.439 0 0 0-5.917-6.659c-4.148 5.884-13.422 6.806-20.004 7.004-7.582.229-16.415-.613-21.875-6.43-3.014 2.806-5.453 6.203-7.278 10.025zM3.382 31.646c-.052.329-.09.666-.136.997 7.594 5.39 16.486 7.984 25.824 7.952 8.332-.028 19.06-.39 26.656-4.22l.012-.003c1.664-3.495 3.67-6.79 5.996-9.772a53.688 53.688 0 0 1 3.45-3.689 38.934 38.934 0 0 0-2.068-3.938c-7.587 6.17-19.41 9.66-28.915 10.593-10.183.998-20.138-.406-28.496-6.43a40.171 40.171 0 0 0-2.323 8.51zm58.281-.73a49.852 49.852 0 0 0-3.6 6.31zm-9.935 42.013a47.736 47.736 0 0 1-1.29-7.469c-11.907 5.28-32.212 6.474-43.689-1.808 1.347 3.185 3.044 6.195 5.123 8.934 10.964 7.562 28.303 5.936 39.856.343zm-1.139-18.68c-8.276 4.3-19.365 3.835-28.2 2.364-6.71-1.116-14-2.648-19.32-7.085.387 3.12 1.013 6.208 1.914 9.198 9.783 11.043 33.117 9.94 45.17 4.144.036-.017.07-.013.105-.027a53.851 53.851 0 0 1 .331-8.594zm2.433 12.872c1.94-.014 4.038-1.488 3.928-3.631-.13-2.543-1.915-3.97-4.336-3.223a49.663 49.663 0 0 0 .34 6.869c.025-.002.042-.015.068-.015zm1.261-27.436c-7.586 2.915-17.548 3.581-25.214 3.38-9.472-.247-18.32-2.369-26.16-7.624a64.927 64.927 0 0 0-.189 10.347c.033.03.07.04.101.075 5.005 5.53 13.097 7.34 20.223 8.362 8.785 1.26 19.648 1.964 27.565-2.82.136-.082.268-.114.4-.142a57.59 57.59 0 0 1 3.274-11.578zm-10.221 51.34c-.07-.127-.15-.248-.223-.372-2.758.54-5.538.806-8.29.271-.112.31-.18.618-.158.918.13 1.772 3.371 1.346 4.567 1.256 1.166-.087 5.297.099 4.104-2.074zm-2.319-4.198a32.214 32.214 0 0 1-4.506.477c-.095.47-.233.926-.468 1.378-.17.326-.406.688-.636 1.068 2.336.395 4.677.2 7.018-.233-.549-.858-1.071-1.726-1.408-2.69zm12.063-7.802a42.708 42.708 0 0 1-1.376-3.697c-10.196 4.764-24.252 6.68-35.355 2.669 10.403 8.51 25.166 9.305 36.731 1.028zm27.16 22.07a6.978 6.978 0 0 1-.98 1.772c-.193.253-.458.54-.723.846 2.146 1.256 4.78 1.481 7.258 1.155-.44-1.09-.884-2.16-1.079-3.331a35.987 35.987 0 0 1-4.476-.442zm6.004 4.964c-2.861.42-5.966.177-8.43-1.337-.171.322-.281.653-.253.988.136 1.594 3.535 1.692 4.646 1.796 1.26.118 4.818.911 4.037-1.447zm5.917-7.623a31.722 31.722 0 0 0 6.532-1.954zm22.494-16.876c2.188-4.24 3.996-9.244 5.216-14.56-3.198-.55-5.802-3.642-4.839-7.135.792-2.871 3.563-5 6.485-4.827.341-7.875-.844-15.726-4.16-22.284-2.306 1.54-5.624 1.744-7.508-.648-2.2-2.792-2.015-6.245.386-8.542-5.781-5.185-13.353-8.776-21.183-8.835-10.908-.082-19.396 5.511-26.28 13.621-.137.176-.267.362-.401.54 2.732 1.956 3.354 6.176 1.166 8.822-1.829 2.213-4.75 2.918-7.195 1.733a57.01 57.01 0 0 0-4.34 18.243c3.36-.606 6.5 1.639 6.687 5.303.184 3.589-2.583 6.416-6.093 6.594 1.5 8.465 5.415 16.248 12.35 21.794 7.375 5.898 16.31 8.296 24.778 7.392-.657-2.933.747-5.892 3.754-7.115 3.473-1.413 6.45.606 7.464 3.766 5.6-2.892 10.444-7.53 13.713-13.862z"/></g><g><path fill="#282826" d="M76.839 47.5c2.85-1.399 6.42-.712 7.752 2.444 1.257 2.976.516 6.549-2.53 8.146-2.976 1.56-6.2.649-7.86-2.29-1.456-3.033-.527-6.748 2.638-8.3zm5.428 3.329c-2.24-3.815-7.709 0-5.925 3.711z"/></g><g><path fill="#282826" d="M83.249 20.21c2.85-1.399 6.42-.712 7.752 2.445 1.257 2.975.516 6.548-2.53 8.145-2.976 1.56-6.2.649-7.86-2.29-1.456-3.033-.527-6.748 2.638-8.3zm5.43 3.329c-2.242-3.815-7.714 0-5.928 3.711z"/></g><g><path fill="#282826" d="M96.989 63.21c2.85-1.399 6.42-.712 7.752 2.445 1.257 2.975.516 6.548-2.53 8.145-2.976 1.56-6.2.649-7.86-2.29-1.456-3.033-.527-6.748 2.638-8.3zm5.428 3.329c-2.24-3.815-7.709 0-5.925 3.711z"/></g><g><path fill="#282826" d="M74.364 72.983c2.976-1.56 6.2-.649 7.86 2.29 1.456 3.033.527 6.748-2.638 8.3-2.85 1.398-6.42.712-7.752-2.445-1.257-2.975-.516-6.548 2.53-8.145zm5.707 3.543c-2.353-4.17-8.194-.184-5.912 3.715z"/></g><g><path fill="#282826" d="M99.174 38.263c2.976-1.56 6.2-.649 7.86 2.29 1.456 3.033.527 6.748-2.638 8.3-2.85 1.398-6.42.712-7.752-2.445-1.257-2.975-.516-6.548 2.53-8.145zm5.709 3.542c-2.355-4.173-8.2-.184-5.916 3.717z"/></g></g></g></svg>