<svg xmlns="http://www.w3.org/2000/svg" width="85" height="140" viewBox="0 0 85 140"><g><g><g><path fill="#0b0212" d="M82.718 83.815c-.1-.665-.226-1.34-.38-1.995.218.046.422.141.596.278.642.53.362 1.295-.216 1.717zm-14.949 32.499c-.488 3.227-.97 6.455-1.445 9.682-.244 1.581-.551 3.189-.759 4.806-.1.259-.22.51-.361.75a11.588 11.588 0 0 1-3.234 3.197c-2.23.451-4.516 1.355-6.584 1.689a53.417 53.417 0 0 1-7.497.587c-1.66-.08-3.324-.03-4.977.144a32.677 32.677 0 0 0-4.985-.144 53.417 53.417 0 0 1-7.497-.587c-1.978-.325-4.21-1.174-6.323-1.635a9.312 9.312 0 0 1-2.33-1.391c-1.4-1.246-1.4-2.9-1.807-4.516-.153-.976-.325-1.942-.47-2.9-.475-3.221-.957-6.449-1.444-9.682a809.094 809.094 0 0 0-1.518-9.665 49.785 49.785 0 0 0-1.246-6.9c1.526.18 3.07.28 4.615.352a30.43 30.43 0 0 0 .18 6.323c.078 2.889.49 5.759 1.23 8.553.09.307.604.361.668 0 .364-2.837.412-5.706.144-8.553a32.408 32.408 0 0 0-.614-6.206c1.39.055 2.773.1 4.146.172 1.373.072 2.71.172 4.11.271-.073 2.357.27 4.742.36 7.09-.009 2.437.136 4.871.434 7.29.054.297.479.252.56 0a25.679 25.679 0 0 0-.153-14.299c3.522.313 7.063.373 10.595.18-.28 1.934.099 4.02.153 5.953.072 2.764-.19 5.618.37 8.337.09.388.606.316.723 0 .975-2.62.903-5.573.903-8.337a19.87 19.87 0 0 0-.605-6.06c3.305.298 6.628.313 9.936.045-.597 1.264-.488 2.818-.606 4.236a31.613 31.613 0 0 0 0 7.993c.073.443.696.37.813 0a29.03 29.03 0 0 0 1.048-7.009c.117-1.67.614-3.694 0-5.302 1.969-.135 3.938-.289 5.88-.388 1.364-.072 2.71-.117 4.11-.172a37.42 37.42 0 0 0-1.102 14.669c0 .27.406.208.478 0a37.728 37.728 0 0 0 2.069-14.732c1.608-.072 3.224-.171 4.814-.361a49.785 49.785 0 0 0-1.264 6.855 849.321 849.321 0 0 0-1.518 9.665zM3.535 81.549a1.019 1.019 0 0 1-.897-1.057 1.192 1.192 0 0 1 .825-1.174c.256-.08.526-.102.79-.063-.296.74-.52 1.517-.718 2.294zm7.737-15.617c.245-.002.483.085.669.245a42.05 42.05 0 0 0-1.608 1.96 1.74 1.74 0 0 1-.045-1.48c.16-.412.544-.695.984-.725zm8.328-8.048a1.12 1.12 0 0 1 1.274-.135c.15.078.281.185.388.316-.515.334-1.02.677-1.5 1.02l-.442.335a1.292 1.292 0 0 1 .28-1.536zm59.306 14.56a2.421 2.421 0 0 1-.208.524 36.166 36.166 0 0 0-1.978-3.116c.442.039.875.148 1.283.325a1.933 1.933 0 0 1 .903 2.231zM70.27 62.51a39.36 39.36 0 0 0-2.881-2.43 2.62 2.62 0 0 1 1.255-.37 1.888 1.888 0 0 1 1.743 1.878c-.015.31-.054.618-.117.922zm-15.03-8.97a1.22 1.22 0 0 1 1.662-.469 1.4 1.4 0 0 1 .687 1.192v.172a53.785 53.785 0 0 0-2.34-.894zm28.904 27.585a2.457 2.457 0 0 0-2.204-.74c-.118-.407-.253-.804-.389-1.202a37.466 37.466 0 0 0-2.068-4.787c.206-.12.392-.273.55-.451a3.613 3.613 0 0 0-.37-4.76c-.903-.904-2.71-1.418-3.793-.533a45.034 45.034 0 0 0-4.688-5.302c.326-.294.564-.672.687-1.093a3.396 3.396 0 0 0-2.322-4.11 3.477 3.477 0 0 0-3.432.985h-.063a42.316 42.316 0 0 0-7.1-4.065c.113-.24.192-.496.235-.759a2.71 2.71 0 0 0-1.381-2.71c-1.364-.83-3.695-.044-4.083 1.446a36.59 36.59 0 0 0-4.21-1.02l-.333.677c-.26.546-.563 1.071-.904 1.571.994.145 1.988.316 2.972.551A40.148 40.148 0 0 1 78.4 77.402c1.906 4.065 3.17 8.645 2.105 13.098-1.274 5.32-6.395 6.729-11.146 7.162-6.494.587-13.26.389-19.871 1.057-1.951 0-3.902.18-5.78.208-2.024 0-4.038 0-6.061-.054-6.982-.85-14.244-.587-21.181-1.21-4.751-.434-9.872-1.807-11.146-7.163-1.066-4.453.199-9.033 2.105-13.097a40.148 40.148 0 0 1 27.15-22.58c.904-.217 1.861-.39 2.792-.525 0-.072 0-.144-.064-.207-.153-.542-.244-1.093-.406-1.635 0-.154-.118-.334-.18-.506a41.63 41.63 0 0 0-13.938 5.176 4.074 4.074 0 0 0-.984-.985 2.963 2.963 0 0 0-4.408 3.062c.094.447.299.864.596 1.21a46.181 46.181 0 0 0-4.76 4.354 3.134 3.134 0 0 0-1.454-.777 2.954 2.954 0 0 0-2.737.985 3.74 3.74 0 0 0 .127 4.814 39.742 39.742 0 0 0-4.462 8.21 3.07 3.07 0 0 0-1.87-.172 2.71 2.71 0 0 0-1.924 2.25 2.782 2.782 0 0 0 1.156 2.71 3.27 3.27 0 0 0 1.093.442c-1.174 6.792.56 14.072 8.436 15.878.66.154 1.32.271 1.979.38-.082 2.547.614 5.202.993 7.677l1.59 9.674c.903 5.257 1.201 11.2 2.809 16.366a3.216 3.216 0 0 0 1.58 3.107 5.546 5.546 0 0 0 2.087.65c2.655 1.157 6.205 1.455 8.626 1.807 2.248.353 4.517.564 6.792.632a49.01 49.01 0 0 0 5.79.163c1.318 0 2.782 0 4.245-.163a56.775 56.775 0 0 0 6.485-.632c2.71-.343 6.846-.668 9.538-2.213a3.74 3.74 0 0 0 2.457-1.978 4.399 4.399 0 0 0 .343-1.535c1.572-5.13 1.897-11.01 2.773-16.213.518-3.222 1.033-6.437 1.544-9.647.38-2.475 1.075-5.13.994-7.677a30.49 30.49 0 0 0 1.978-.38c7.1-1.58 9.186-7.623 8.707-13.747l.46-.153a2.556 2.556 0 0 0 .787-4.1z"/></g><g><path fill="#0b0212" d="M45.094 56.79c-.57.605-1.348.97-2.178 1.02a3.264 3.264 0 0 1-2.16-1.02 9.52 9.52 0 0 1-1.609-2.502c1.555.533 3.968-.38 5.179-.957a15.745 15.745 0 0 0 3.453-2.24 47.988 47.988 0 0 1-.461 1.508 10.836 10.836 0 0 1-2.25 4.191zm-1.022-9.123a24.76 24.76 0 0 0 5.945-6.557c-.235 1.427-.515 2.791-.74 4.001a43.484 43.484 0 0 1-.67 3.044 17.86 17.86 0 0 1-3.712 3.225 9.94 9.94 0 0 1-6.325 1.4 1.436 1.436 0 0 1-.063-.18 76.86 76.86 0 0 1-.804-2.71c2.16.424 4.752-.94 6.342-2.223zm-7.425-2.312c1.554.19 3.74-1.5 4.661-2.33a5.527 5.527 0 0 0 1.807-3.93 16.12 16.12 0 0 0 5.285-.46 4.517 4.517 0 0 0 2.042-1.11v.315a46.065 46.065 0 0 1-5.276 7.01 19.585 19.585 0 0 1-3.451 2.71 8.629 8.629 0 0 1-4.373 1.02 60.585 60.585 0 0 1-.722-3.225zm-1.192-7.83c.568.543 1.27.927 2.034 1.112 1.428.357 2.896.53 4.367.516a3.874 3.874 0 0 1-.09.515 5.563 5.563 0 0 1-1.862 2.596 8.57 8.57 0 0 1-2.713 1.52c-.307.109-.552.172-.768.263a47.34 47.34 0 0 1-.995-6.523zm3.975-7.597a16.075 16.075 0 0 1 2.782-.361 16.752 16.752 0 0 0 .389 4.055c0 .19.307.163.37 0 .393-1.317.635-2.674.723-4.046.912.034 1.82.152 2.71.352 1.924.515 3.614 2.294 3.28 4.372-.326 2.213-2.855 2.52-5.295 2.538H41.4c-2.44 0-4.969-.325-5.294-2.538-.29-2.078 1.373-3.857 3.297-4.372zm3.802-14.272c.17-.384.295-.787.37-1.2.426.902.851 1.885 1.295 2.823.705 1.48 1.574 3.356.244 4.836-.31.197-.658.323-1.023.37-.099.009-.199.009-.298 0a.662.662 0 0 0-.39-.163c-3.809-.234-.976-5.034-.225-6.666zm-4.517 4.906c-2.169-3.028-.271-6.878 1.31-9.652a38.295 38.295 0 0 0 3.09-5.965 34.037 34.037 0 0 0 3.37 6.48c1.374 2.304 2.35 4.763 1.97 7.483a4.248 4.248 0 0 1-1.481 2.856c.903-3.335-1.808-7.077-3.317-9.86-.298-.542-1.066-.154-.957.407.632 3.199-3.48 5.422-2.711 8.72.092.401.238.787.434 1.148a6.37 6.37 0 0 1-1.708-1.617zM51.488 32.05c-1.11-2.71-4.615-4.363-7.605-4.227.122-.922.158-1.854.109-2.782a6.06 6.06 0 0 0 .948-.235.65.65 0 0 0 .307-.253 7.38 7.38 0 0 0 4.77-5.212C51.776 12.541 43.9 7.23 43.792.592a.605.605 0 0 0-1.201 0v.668c-.597 6.322-7.226 10.522-6.64 17.306a7.578 7.578 0 0 0 6.432 6.512c-.1.918-.145 1.84-.136 2.764-3.053-.262-6.747 1.436-7.885 4.209-2.068 4.227 0 12.708.768 15.761.768 3.053 1.526 8.256 4.272 10.378.606.473 1.267.87 1.97 1.183.46.331 1.026.48 1.589.416a2.276 2.276 0 0 0 1.58-.416 9.403 9.403 0 0 0 1.97-1.183c2.71-2.122 3.531-7.289 4.272-10.378.74-3.089 2.79-11.534.704-15.761z"/></g><g><path fill="#0b0212" d="M74.413 80.88a1.114 1.114 0 0 1-1.694-.724c-.208-.852.616-1.196 1.323-1.386.163.056.316.138.452.245a1.205 1.205 0 0 1-.117 1.91zm1.805-2.712a2.881 2.881 0 0 0-2.466-1.174c-.237.027-.47.082-.696.162a2.71 2.71 0 0 0-.849.271 3.008 3.008 0 0 0-1.562 2.637c-.127 2.213 2.258 3.613 4.2 2.89a3.17 3.17 0 0 0 1.373-4.786z"/></g><g><path fill="#0b0212" d="M60.04 66.186a1.108 1.108 0 0 1-1.688-.725c-.208-.905.614-1.195 1.318-1.394.163.057.315.14.452.244a1.215 1.215 0 0 1-.117 1.875zm1.807-2.767a2.872 2.872 0 0 0-2.466-1.165 2.71 2.71 0 0 0-.695.163 2.71 2.71 0 0 0-.84.27 2.99 2.99 0 0 0-1.572 2.638c-.117 2.204 2.258 3.613 4.2 2.89a3.18 3.18 0 0 0 1.373-4.796z"/></g><g><path fill="#0b0212" d="M60.04 80.88a1.108 1.108 0 0 1-1.688-.724c-.208-.852.614-1.196 1.318-1.386.164.054.317.137.452.245a1.206 1.206 0 0 1-.117 1.91zm1.807-2.712a2.881 2.881 0 0 0-2.466-1.174c-.237.027-.47.082-.695.162a2.71 2.71 0 0 0-.84.271 2.999 2.999 0 0 0-1.572 2.637c-.117 2.213 2.258 3.613 4.2 2.89a3.17 3.17 0 0 0 1.373-4.786z"/></g><g><path fill="#0b0212" d="M46.01 73c-.31.198-.697.23-1.035.086a1.107 1.107 0 0 1-.653-.805c-.208-.845.614-1.187 1.327-1.376.16.056.31.138.443.243a1.194 1.194 0 0 1-.117 1.897zm1.807-2.7a2.845 2.845 0 0 0-2.466-1.165 2.71 2.71 0 0 0-.695.162c-.295.037-.58.129-.84.271a2.999 2.999 0 0 0-1.572 2.629c-.117 2.213 2.258 3.568 4.2 2.89a3.17 3.17 0 0 0 1.373-4.787z"/></g><g><path fill="#0b0212" d="M34.117 63.052a1.111 1.111 0 0 1-1.69-.714c-.207-.858.624-1.2 1.328-1.39.163.057.315.14.452.243a1.201 1.201 0 0 1-.126 1.906zm-.696-3.875a2.71 2.71 0 0 0-.695.163 2.773 2.773 0 0 0-.84.27 3.008 3.008 0 0 0-1.572 2.629c-.117 2.213 2.267 3.613 4.21 2.9a3.18 3.18 0 0 0 1.4-4.797 2.845 2.845 0 0 0-2.503-1.165z"/></g><g><path fill="#0b0212" d="M25.609 74.675a1.105 1.105 0 0 1-1.684-.723c-.207-.849.612-1.192 1.315-1.382.163.054.316.136.45.244a1.203 1.203 0 0 1-.117 1.86zm-.658-3.92a2.71 2.71 0 0 0-.695.162c-.295.035-.58.127-.84.271a2.98 2.98 0 0 0-1.572 2.629c-.117 2.212 2.258 3.612 4.2 2.89a3.17 3.17 0 0 0 1.373-4.787 2.854 2.854 0 0 0-2.466-1.165z"/></g><g><path fill="#0b0212" d="M36.19 88.04a1.102 1.102 0 0 1-1.68-.723c-.216-.849.615-1.192 1.32-1.382.161.058.314.14.451.244a1.201 1.201 0 0 1-.154 1.906zm1.807-2.71a2.845 2.845 0 0 0-2.466-1.165 2.71 2.71 0 0 0-.695.162c-.295.037-.58.129-.84.271a3.008 3.008 0 0 0-1.572 2.629c-.117 2.213 2.267 3.613 4.21 2.89a3.17 3.17 0 0 0 1.363-4.787z"/></g><g><path fill="#0b0212" d="M17.794 87.021a1.111 1.111 0 0 1-1.69-.722c-.207-.85.615-1.192 1.32-1.382.163.054.316.136.45.244a1.201 1.201 0 0 1-.117 1.906zm-.633-3.92c-.236.033-.469.087-.695.163a2.773 2.773 0 0 0-.84.271 2.999 2.999 0 0 0-1.572 2.637c-.117 2.213 2.258 3.613 4.2 2.89a3.17 3.17 0 0 0 1.346-4.75 2.881 2.881 0 0 0-2.439-1.21z"/></g><g><path fill="#0b0212" d="M53.08 92.49a1.126 1.126 0 0 1-1.695-.723c-.208-.903.625-1.192 1.332-1.39.16.06.313.142.453.243a1.209 1.209 0 0 1-.127 1.915zm1.804-2.71a2.854 2.854 0 0 0-2.493-1.174 2.71 2.71 0 0 0-.695.162 2.773 2.773 0 0 0-.84.271 3.026 3.026 0 0 0-1.572 2.638c-.117 2.204 2.267 3.613 4.21 2.89a3.17 3.17 0 0 0 1.39-4.787z"/></g><g><path fill="#0b0212" d="M72.557 94.182c-.31.199-.698.231-1.037.086a1.103 1.103 0 0 1-.65-.808c-.218-.85.617-1.193 1.325-1.382.162.057.315.14.453.243a1.199 1.199 0 0 1-.136 1.906zm1.8-2.71a2.872 2.872 0 0 0-2.476-1.147 2.71 2.71 0 0 0-.695.163c-.294.04-.578.132-.84.27a3.008 3.008 0 0 0-1.572 2.63c-.117 2.212 2.267 3.567 4.21 2.89a3.18 3.18 0 0 0 1.372-4.806z"/></g></g></g></svg>