<svg xmlns="http://www.w3.org/2000/svg" width="20" height="22" viewBox="0 0 20 22"><defs><clipPath id="hw85a"><path fill="#fff" d="M9.5 8.5v-8h8v8zm1.5-4C11 5.883 12.117 7 13.5 7S16 5.883 16 4.5 14.883 2 13.5 2A2.497 2.497 0 0 0 11 4.5z"/></clipPath></defs><g><g><g/><g><path fill="#f77d0e" d="M16 18c-1.1 0-1.99.9-1.99 2s.89 2 1.99 2 2-.9 2-2-.9-2-2-2zM6 18c-1.1 0-1.99.9-1.99 2S4.9 22 6 22s2-.9 2-2-.9-2-2-2zM5.16 6h12.15l-2.76 5H7.53zm9.39 7c.75 0 1.41-.41 1.75-1.03l3.58-6.49A.996.996 0 0 0 19.01 4H4.21l-.94-2H0v2h2l3.6 7.59-1.35 2.44C3.52 15.37 4.48 17 6 17h12v-2H6l1.1-2z"/></g></g><g><path fill="#f77d0e" d="M11 4.5C11 5.883 12.117 7 13.5 7S16 5.883 16 4.5 14.883 2 13.5 2A2.497 2.497 0 0 0 11 4.5z"/><path fill="none" stroke="#fef1e5" stroke-miterlimit="20" stroke-width="3" d="M11 4.5C11 5.883 12.117 7 13.5 7S16 5.883 16 4.5 14.883 2 13.5 2A2.497 2.497 0 0 0 11 4.5z" clip-path="url(&quot;#hw85a&quot;)"/></g></g></svg>