<svg xmlns="http://www.w3.org/2000/svg" width="40" height="36" viewBox="0 0 40 36"><g><g><g><path d="M11.61 20.634a24.89 24.89 0 0 0 3.236-.208V9.167a24.907 24.907 0 0 0-3.236-.207C5.198 8.96 0 11.318 0 14.226v1.142c0 2.908 5.198 5.266 11.61 5.266z"/></g><g><path d="M11.61 26.506c1.123 0 2.209-.072 3.236-.207v-3.3a24.903 24.903 0 0 1-3.236.208c-5.597 0-10.269-1.796-11.366-4.187-.16.348-.244.709-.244 1.079v1.141c0 2.909 5.198 5.266 11.61 5.266z"/></g><g><path d="M14.846 29.135v-.256a24.903 24.903 0 0 1-3.236.208c-5.597 0-10.269-1.796-11.366-4.187-.16.348-.244.709-.244 1.078v1.142c0 2.909 5.198 5.266 11.61 5.266a24.66 24.66 0 0 0 3.669-.268 4.154 4.154 0 0 1-.433-1.84z"/></g><g><path d="M28.35.04c-6.412 0-11.61 2.358-11.61 5.266v1.142c0 2.908 5.198 5.266 11.61 5.266 6.412 0 11.61-2.358 11.61-5.266V5.306C39.96 2.398 34.762.04 28.35.04z"/></g><g><path d="M28.35 14.287c-5.597 0-10.269-1.796-11.366-4.187-.16.348-.244.709-.244 1.079v1.141c0 2.909 5.198 5.266 11.61 5.266 6.412 0 11.61-2.357 11.61-5.265v-1.142c0-.37-.084-.73-.244-1.079-1.097 2.391-5.769 4.187-11.366 4.187z"/></g><g><path d="M28.35 20.167c-5.597 0-10.269-1.796-11.366-4.187-.16.348-.244.709-.244 1.079V18.2c0 2.909 5.198 5.266 11.61 5.266 6.412 0 11.61-2.357 11.61-5.266V17.06c0-.37-.084-.73-.244-1.079-1.097 2.39-5.769 4.187-11.366 4.187z"/></g><g><path d="M28.35 26.367c-5.597 0-10.269-1.796-11.366-4.187-.16.348-.244.709-.244 1.078v1.143c0 2.908 5.198 5.265 11.61 5.265 6.412 0 11.61-2.357 11.61-5.265v-1.143c0-.37-.084-.73-.244-1.078-1.097 2.39-5.769 4.187-11.366 4.187z"/></g><g><path d="M28.35 32.247c-5.597 0-10.269-1.796-11.366-4.187-.16.348-.244.71-.244 1.079v1.142c0 2.908 5.198 5.265 11.61 5.265 6.412 0 11.61-2.357 11.61-5.265v-1.143c0-.37-.084-.73-.244-1.078-1.097 2.39-5.769 4.187-11.366 4.187z"/></g></g></g></svg>