<svg xmlns="http://www.w3.org/2000/svg" width="368" height="54" viewBox="0 0 368 54"><defs><mask id="9eyub" width="2.01" height="2.04" x="-1" y="-1.02"><path fill="#fff" d="M2 2h362v48H2z"/><path d="M3 14.003a5 5 0 0 1 5-5h.232l5.925-5.763 5.607 5.763H358a5 5 0 0 1 5 5v30a5 5 0 0 1-5 5H8a5 5 0 0 1-5-5z"/></mask><filter id="9eyua" width="391" height="77" x="-12" y="-12" filterUnits="userSpaceOnUse"><feOffset dx="1" dy="1" in="SourceGraphic" result="FeOffset2169Out"/><feGaussianBlur in="FeOffset2169Out" result="FeGaussianBlur2170Out" stdDeviation="1.6 1.6"/></filter></defs><g><g><g filter="url(#9eyua)"><path fill="none" stroke="#0b0212" stroke-opacity=".08" stroke-width="2" d="M3 14.003a5 5 0 0 1 5-5h.232l5.925-5.763 5.607 5.763H358a5 5 0 0 1 5 5v30a5 5 0 0 1-5 5H8a5 5 0 0 1-5-5z" mask="url(&quot;#9eyub&quot;)"/><path fill="#0b0212" fill-opacity=".08" d="M3 14.003a5 5 0 0 1 5-5h.232l5.925-5.763 5.607 5.763H358a5 5 0 0 1 5 5v30a5 5 0 0 1-5 5H8a5 5 0 0 1-5-5z"/></g><path fill="#fff" d="M3 14.003a5 5 0 0 1 5-5h.232l5.925-5.763 5.607 5.763H358a5 5 0 0 1 5 5v30a5 5 0 0 1-5 5H8a5 5 0 0 1-5-5z"/></g></g></svg>