<svg xmlns="http://www.w3.org/2000/svg" width="19" height="24" viewBox="0 0 19 24"><g><g><g><path fill="#fff" d="M16.747 9.403c0 5.429-1.796 8.417-7.053 11.568-5.257-3.158-7.053-6.146-7.053-11.567V5.477l7.053-3.023 7.053 3.023zm1.639-5.783L10.157.093a1.2 1.2 0 0 0-.928 0L1 3.62c-.43.186-.71.611-.71 1.081v4.702c0 6.468 2.391 10.249 8.819 13.951a1.18 1.18 0 0 0 1.17 0c6.428-3.693 8.82-7.473 8.82-13.95V4.7c0-.47-.28-.895-.713-1.081z"/></g><g><path fill="#fff" d="M13.964 7.305a1.183 1.183 0 0 0-1.653.183L8.615 12.11 7.153 9.924a1.179 1.179 0 0 0-1.63-.327 1.177 1.177 0 0 0-.326 1.63l2.35 3.526c.21.312.553.505.93.524h.049c.355 0 .693-.16.919-.442l4.702-5.877a1.176 1.176 0 0 0-.183-1.653z"/></g></g></g></svg>