<svg xmlns="http://www.w3.org/2000/svg" width="91" height="140" viewBox="0 0 91 140"><g><g><g><path fill="#323234" d="M44.646 73.211c.371.435.292 1.246-.363 1.378a1.947 1.947 0 0 1-.28.031c.319.223.504.656.242 1.005-.701.934-1.881 1.176-2.947 1.584-1.213.466-2.436.907-3.66 1.344-1.264 3.122-2.61 6.414-4.957 8.88-.443.467-1.094.267-1.437-.186-1.655-2.19-2.513-5.035-2.603-7.804-2.596 0-5.401-.401-7.931-.864-.732-.134-.916-1.143-.428-1.622 1.67-1.638 3.764-2.95 5.73-4.243-1.122-1.418-1.66-3.443-1.347-5.205-.032-.081-.07-.155-.089-.252-.083-.46.201-.965.722-.947.476.014.857.236 1.313.345.5.12.944.107 1.457-.025a.405.405 0 0 1 .487.209c.982.17 1.963.402 2.927.655.513.135 1.067.225 1.52.47 1.499-1.376 3.64-2.032 5.323-3.112.47-.301 1.17-.014 1.297.528.472 2.014.612 4.218.024 6.223.86.04 1.729.253 2.532.515.798.259 1.906.434 2.468 1.093zm-1.48 1.293c-.5-.154-.98-.418-1.478-.607a16.341 16.341 0 0 0-3.11-.849c-.556-.096-.622-.616-.405-1.002-.247-.191-.39-.504-.271-.898.405-1.33.423-2.766.227-4.151-1.498.79-3.069 1.408-4.475 2.388a.57.57 0 0 1-.267.265c-.938.405-1.817-.071-2.74-.36-.964-.303-1.942-.638-2.846-1.095a.685.685 0 0 1-.302-.29c-.525.204-1.138.346-1.672.322.162 1.519.977 2.793 1.97 4.03.618.77-.266 1.76-1.04 1.23-1.28 1.111-2.489 2.275-3.692 3.456 1.98.174 4.028.187 5.898.734.22-.08.497.002.62.238.426.29.474.868.19 1.227.342 2.234 1.099 4.26 2.326 6.148 1.767-2.31 2.516-5.095 3.969-7.62.22-.382.645-.477 1.016-.383 1.192-.53 2.385-1.06 3.56-1.626.815-.39 1.627-1.01 2.521-1.157z"/></g><g><path fill="#323234" d="M74.798 24.154c8.964.898 16.064 9.311 15.596 17.843l-.006.131c-.152 2.389-.899 4.783-2.367 7.022a.702.702 0 0 1-.241.22c-.059 1.148-1.173 2.532-1.894 3.089-1.134.876-2.643 1.202-4.048.928-1.27-.25-2.506-.97-3.023-2.202-.472-1.122-.03-2.26.69-3.161-.357-.259-.532-.713-.196-1.192 2.145-3.056 3.182-7.381.128-10.328-2.452-2.368-6.191-3.355-9.497-2.335a.8.8 0 0 1 .382.646c.056 1.1.22 2.151.176 3.219.57-.244 1.13-.529 1.743-.622.626-.094 1.099.343.983.984-.12.67-.486 1.26-.72 1.895.711.052 1.391.173 2.096.454.354.14.612.403.615.806.01 1.584-.697 2.268-2.204 2.915-1.293.555-2.785.247-4.088-.12-.117 1.595-1.031 3.078-2.421 4.108.025.331.032.678-.006 1.057 2.62-1.758 6.513-2.61 8.127.893 1.45 3.141-.89 5.668-3.596 6.885.819.856 1.353 1.934 1.032 3.185-.386 1.514-1.692 2.702-3.089 3.322-2.64 1.172-5.885.831-6.514-1.793a4.851 4.851 0 0 1-1.07.988c.216.238.304.58.14.998-2.488 6.308-6.092 12.05-9.608 17.822-2.7 4.43-5.27 8.834-8.181 13.125-1.335 1.967-7.724 10.078-4.37 11.935 3.62 2.004 7.926 2.102 11.548 3.911 8.15 4.07 19.008 17.008 9.125 24.994-4.9 3.959-12.406 4.307-18.4 3.77a71.025 71.025 0 0 1-21.813-5.541c-6.523-2.826-12.956-6.54-17.493-12.134-4.13-5.094-1.985-12.358.362-17.73 3.534-8.094 7.714-15.701 10.902-23.97 4.003-10.374 7.649-20.851 11.3-31.35a3.745 3.745 0 0 1-1.445-.641c-.891-.656-1.573-1.8-1.487-2.939.089-1.174.587-2.066 1.31-2.875-2.147.36-4.74-1.583-3.865-3.888.71-1.87 2.97-2.669 4.912-2.485-1.612-6.928 9.007-7.219 10.862-1.37a.921.921 0 0 1 .325-.031.509.509 0 0 1-.107-.258c-.68-6.326.695-13.032 2.736-19 1.792-5.236 4.222-11.223 9.46-13.894 10.706-5.46 20.134 5.64 18.818 16.02l.045.08c.232.439.064.854-.239 1.092-.069.333-.148.664-.24.992a.708.708 0 0 1-.342.432c-.057.98-.547 2.045-1.068 2.675-.774.933-1.93 1.54-3.146 1.61-1.056.063-2.18-.262-2.868-1.108-.343-.422-.558-1.023-.531-1.571.01-.228.047-.398.1-.546-.253-.112-.453-.349-.472-.735-.134-2.82.018-8.528-3.2-9.978-3.442-1.551-6.61 3.878-7.803 6.444-2.595 5.579-4.439 12.271-4.467 18.45a.476.476 0 0 1-.225.427c1.2.8 1.884 2.23 1.505 4.339.19-.04.376-.066.559-.088-.526-3.993 1.405-8.548 5.494-9.86l.067-.018c-1.005-1.477-1.915-4.065-.419-5.28 1.55-1.256 2.813.222 3.616 1.688.755-1.065 1.704-1.775 2.798-2.788a.733.733 0 0 1 1.239.513c.029.885.244 1.74.364 2.613.679-.088 1.234-.167 1.98.095.281.098.514.342.502.66-.112 2.973-2.004 4.682-4.727 5.052a7.27 7.27 0 0 1 .466 2.555c4.327-6.764 10.44-11.946 19.393-11.05zM57.01 38.724c.097 1.491.418 2.91.858 4.32 1.216-2.259 2.751-4.405 4.56-6.198-.784-2.148-.957-5.242.191-7.436-1.965 1.527-3.681 3.43-5.192 5.526-.223 1.252-.501 2.474-.417 3.789zm5.577.653a5.264 5.264 0 0 1 2.962 0c.442-1.741 1.263-3.348 2.623-4.498-2.225 1.08-4.024 2.661-5.585 4.498zm-10.903 5.99c1.827-.26 3.365.302 4.254 2l.054-.051a29.68 29.68 0 0 1 1.183-2.881.52.52 0 0 1-.137-.18c-.792-1.665-1.585-3.915-1.711-6.076-1.395 2.364-2.59 4.834-3.643 7.188zm-1.265-15.461c1.586-.252 2.809.279 3.646 1.253l.104-.024c2.165-.031 3.749-.893 4.06-2.995-.553-.044-1.09.094-1.654.143-.385.034-.668-.338-.685-.685-.03-.653-.17-1.283-.3-1.916-.884.793-1.684 1.54-2.23 2.768-.29.657-1.137.333-1.343-.175-.235-.576-1.825-3.865-2.2-1.64-.2 1.19.115 2.226.602 3.27zm-5.357 10.037c2.777.167 4.55 2.469 5.355 5.299 1.11-2.79 2.415-5.653 3.969-8.34-.248-.075-.442-.283-.43-.643.046-1.375.18-3.654-1.246-4.484-1.057-.615-2.37-.352-3.386.24-2.828 1.65-4.228 4.737-4.262 7.928zM64.59 17.818c-1.295-1.898-3.23-2.72-5.545-2.347.358 1.676.465 3.413.298 4.917l-.022.073c.023.379.268 1.322.573 1.643.405.424 1.044.581 1.618.464.755-.155 1.475-.537 1.876-1.224.507-.868.357-1.877.83-2.716a.566.566 0 0 1 .34-.275c.013-.177.021-.356.032-.535zm-.73-7.672c-1.37-.655-2.618-1.48-4.222-1.586-1.497-.1-2.905.017-4.29.487 1.63.993 2.794 3.096 3.45 5.44 2.09-.677 4.208-.356 5.825.866-.048-1.764-.272-3.539-.763-5.207zM49.02 6.491c-.456 1.486-.676 2.999-.73 4.537.268-.27.539-.536.83-.778 1.707-1.42 3.222-1.92 4.53-1.785a.684.684 0 0 1 .203-.18c2.43-1.458 6.121-2.01 8.922-.83-.863-1.59-2.069-2.99-3.737-4.058-1.624-1.04-3.37-1.561-5.107-1.63-.022.18-.123.352-.359.467-2.02.984-3.842 1.946-4.551 4.257zm-6.375 3.048c.42.043.826.437.692.935-.886 3.294-.895 6.2.158 9.295.952-2.743 2.164-5.615 4.008-7.86-.526-3.241-.278-7.12 1.987-9.323-2.143.889-4.064 2.46-5.441 4.578-.494.76-.957 1.558-1.404 2.375zm-4.328 11.096l.037.077c.512 1.616.118 3.474.57 5.164.388 1.46 1.087 2.758 2.206 3.734.289-2.789.953-5.56 1.804-8.17l.047-.144c-1.52-2.459-2.348-5.661-1.896-8.594a53.26 53.26 0 0 0-2.768 7.933zm-2.253 14.14c.272.167.32.51.196.76 1.685-.679 3.481-.765 4.874-.235v-.004c-.187-1.536-.197-3.096-.09-4.655-1.695-.727-2.856-2.052-3.515-3.855-.116-.32-.225-.678-.326-1.048a56.442 56.442 0 0 0-.835 8.596c-.005.243-.138.388-.304.44zm22.994 29.218c-.803.186-1.615.23-2.327.112-1.9-.314-3.017-1.479-3.409-3.085-2.977 1.388-6.244.619-6.309-2.59-3.65 2.675-7.71.28-8.274-3.92-4.926 2.406-11.9-1.16-10.353-6.249-.48.266-.986.46-1.45.552-.201.039-.403.065-.604.084-1.836 9.681-5.421 18.934-8.967 28.099-2.667 6.894-5.273 13.615-8.719 20.156-3.296 6.256-9.984 17.048-4.214 23.7 5.165 5.954 12.574 9.878 19.922 12.47 7.34 2.592 15.355 4.502 23.193 4.006 6.284-.399 15.998-3.314 13.748-11.55-1.607-5.883-7.037-11.693-12.96-13.335-3.581-.994-12.504-2.121-12.338-7.248.176-5.453 5.53-11.15 8.477-15.388 2.725-3.919 4.944-8.352 7.423-12.443 2.625-4.332 5.172-8.706 7.161-13.37zm7.002-12.58c-.226.294-.811.202-.768-.238a7.96 7.96 0 0 0-.05-2.07c-.706-.003-1.16-.991-.489-1.48-.606-1.114-1.723-1.76-3.544-1.339-2.09.485-3.66 1.592-4.793 3.434-.4.65-1.523.595-1.7-.222-.478-2.217-2.556-2.673-4.413-1.86-.488.215-1.244.094-1.351-.549-.502-3-1.94-6.137-5.612-5.156a.82.82 0 0 1-.958-.375.545.545 0 0 1-.31-.64c1.156-5.297-4.067-5.207-6.989-2.574-.695.627-1.692.011-1.517-.883 1.167-5.93-8.758-7.513-7.416-1.437.094.429-.09.757-.37.938a.466.466 0 0 1-.48.317c-1.513-.055-3.3.149-4.063 1.675-.674 1.347 1.777 1.541 2.532 1.924.28.141.388.41.373.678.463-.195.945.394.563.845-.986 1.167-1.817 3.523.006 4.388.687.327 1.468.33 2.176.054.917-.357 1.501-1.193 2.388-1.569.466-.197.966.036 1.04.494.311.15.538.554.344.915-2.987 5.562 4.424 8.512 8.356 5.217.588-.493 1.861-.259 1.737.718-.578 4.528 2.684 6.26 6.252 3.597a.695.695 0 0 1 .493-.149c.356-.38 1.09-.07.98.557-.705 4.02 2.597 3.872 4.981 2.02.634-.491 1.756-.26 1.717.712-.093 2.342 1.625 3.365 3.78 2.568 1.2-.445 2.043-1.327 3.206-1.81a.537.537 0 0 1 .318-.024c.223-.315.767-.26.796.228.152 2.642 2.801 2.793 4.723 1.814 2.185-1.115 2.938-2.861.604-4.356-.664-.425-.617-1.556.229-1.75 1.978-.453 5.538-2.263 4.096-4.92-1.416-2.605-4.382-1.329-6.177.14a.788.788 0 0 1-.69.167zm.767-9.224c-1.277-1.905-3.344-2.005-5.336-1.447-1.199 1.593-2.272 3.313-3.326 5.019 2.93-1.495 6.48-1.348 7.812.93 1.25-1.18 1.974-2.825.85-4.502zm2.948-2.29c-.574.08-1.127-.33-.962-.96.242-.925.183-1.833.102-2.749-1.12.93-1.932 2.185-2.467 3.55.684.37 1.287.92 1.735 1.662.256.422.434.85.558 1.28a.885.885 0 0 1 .578-.056c.77.169 1.614.51 2.413.407.197-.025 1.804-.516 1.804-.662l.002-.226c-.665-.19-1.321-.248-2.046-.258-.407-.004-.87-.37-.818-.816.067-.586.28-1.108.5-1.624-.457.193-.912.384-1.4.452zm13.639-10.01c-3.379-2.98-7.897-4.611-12.473-4.036a16.16 16.16 0 0 0-5.266 1.609.57.57 0 0 1-.094.481c-.98 1.216-2.008 2.268-2.35 3.862-.316 1.463-.271 2.88-.064 4.338 1.872-1.686 4.01-2.99 6.374-3.664-.457-1.421-.226-2.865.85-4.057 1.195-1.325 3.29-2.362 5.088-1.806.512.157.478.83 0 1.003-1.351.485-2.82.513-3.899 1.607-.793.805-1.274 1.918-1.256 3.056a13.173 13.173 0 0 1 3.65-.29c.707.043 1.375.15 2.009.31l.03-.062c1.345-1.785 4.63-2.644 7.401-2.35zm-.948 8.12c1.974-.497 4.275-.099 5.927 1.106-.223-2.308-1.024-4.562-2.608-6.672-.15-.198-.307-.388-.464-.579-2.885-.216-5.809-.694-8.528.673 2.777.947 4.727 2.999 5.672 5.472zm2.654 12.456c-.073-.208-.128-.427-.22-.664-.215-.554-.52-1.102-.918-1.547-.623-.697-1.38-1.243-2.17-1.737-.24.443-.504.88-.817 1.302a1 1 0 0 1-.637.402c-.275.777-.396 1.66.173 2.36.48.59 1.185.96 1.955.99.852.035 1.762-.16 2.385-.787.093-.094.174-.203.249-.32zm3.303-8.996c-1.54-1.605-3.261-2.768-5.625-2.417.546 2.12.392 4.466-.575 6.658 1.02.48 1.988 1.087 2.777 1.901.293.303.648.699.947 1.135.155-.251.34-.461.592-.574a.952.952 0 0 1 .291-.075c.873-2.179 1.458-4.413 1.593-6.628z"/></g></g></g></svg>