<svg xmlns="http://www.w3.org/2000/svg" width="35" height="24" viewBox="0 0 35 24"><g><g><g><path fill="#fff" d="M26.07 21.786c-1.199 0-2.175-.975-2.175-2.175 0-1.2.976-2.176 2.176-2.176 1.2 0 2.175.976 2.175 2.176 0 1.2-.975 2.175-2.175 2.175zm0-6.526c-2.398 0-4.35 1.952-4.35 4.35 0 2.4 1.952 4.352 4.35 4.352 2.4 0 4.352-1.952 4.352-4.351 0-2.4-1.952-4.351-4.351-4.351z"/></g><g><path fill="#fff" d="M11.2 21.786c-1.199 0-2.175-.975-2.175-2.175 0-1.2.976-2.176 2.176-2.176 1.2 0 2.175.976 2.175 2.176 0 1.2-.975 2.175-2.175 2.175zm0-6.526c-2.398 0-4.35 1.952-4.35 4.35 0 2.4 1.952 4.352 4.35 4.352 2.4 0 4.352-1.952 4.352-4.351 0-2.4-1.952-4.351-4.351-4.351z"/></g><g><path fill="#fff" d="M29 2.809a1.088 1.088 0 0 0-.971-.599H22.3v2.175h5.058l2.962 5.891 1.944-.977z"/></g><g><path fill="#fff" d="M14.58 18.56h8.23v2.175h-8.23z"/></g><g><path fill="#fff" d="M7.938 18.56h-3.77a1.088 1.088 0 1 0 0 2.175h3.77a1.088 1.088 0 1 0 0-2.175z"/></g><g><path fill="#fff" d="M34.287 11.918l-2.14-2.756a1.086 1.086 0 0 0-.859-.42h-7.904V1.128c0-.601-.487-1.088-1.088-1.088H4.168a1.088 1.088 0 1 0 0 2.175h17.04V9.83c0 .601.488 1.088 1.088 1.088h8.46l1.584 2.04v5.61h-3.01a1.088 1.088 0 1 0 0 2.176h4.097c.601 0 1.088-.487 1.088-1.088v-7.07c0-.241-.08-.476-.228-.667z"/></g><g><path fill="#fff" d="M7.871 13.05H2.868a1.088 1.088 0 1 0 0 2.175H7.87a1.088 1.088 0 1 0 0-2.175z"/></g><g><path fill="#fff" d="M10.37 8.77H1.088a1.088 1.088 0 1 0 0 2.175h9.282a1.088 1.088 0 1 0 0-2.175z"/></g><g><path fill="#fff" d="M12.15 4.49H2.868a1.088 1.088 0 1 0 0 2.175h9.282a1.088 1.088 0 1 0 0-2.175z"/></g></g></g></svg>