<svg xmlns="http://www.w3.org/2000/svg" width="23" height="21" viewBox="0 0 23 21"><defs><clipPath id="h6bqa"><path fill="#fff" d="M12.8 10.2V.8h9.4v9.4zM15 5.5C15 6.883 16.117 8 17.5 8S20 6.883 20 5.5 18.883 3 17.5 3A2.497 2.497 0 0 0 15 5.5z"/></clipPath></defs><g><g><g><path fill="#315293" d="M17.697 14.053l-1.498.795a1.73 1.73 0 0 0-.898 1.237l-.293 1.67a.586.586 0 0 1-.662.482L12.668 18a1.728 1.728 0 0 0-1.454.472l-1.218 1.18a.586.586 0 0 1-.819 0l-1.218-1.18A1.726 1.726 0 0 0 6.506 18l-1.679.237a.586.586 0 0 1-.662-.481l-.293-1.671a1.73 1.73 0 0 0-.898-1.237l-1.497-.795a.587.587 0 0 1-.253-.779l.744-1.524a1.73 1.73 0 0 0 0-1.529l-.744-1.524a.587.587 0 0 1 .253-.779l1.497-.795a1.73 1.73 0 0 0 .898-1.237l.293-1.67a.586.586 0 0 1 .662-.482l1.679.238a1.728 1.728 0 0 0 1.453-.473l1.218-1.18a.586.586 0 0 1 .819 0l1.218 1.18c.389.376.918.548 1.454.473l1.678-.238a.586.586 0 0 1 .662.482l.293 1.67c.093.533.42.984.898 1.237l1.498.795c.282.15.393.492.253.78l-.745 1.523a1.73 1.73 0 0 0 0 1.53l.745 1.523c.14.287.029.63-.253.779zm.543-2.814a.585.585 0 0 1 0-.517l.744-1.523a1.733 1.733 0 0 0-.747-2.301l-1.498-.795a.585.585 0 0 1-.304-.418l-.292-1.67a1.733 1.733 0 0 0-1.958-1.422l-1.678.238a.585.585 0 0 1-.492-.16l-1.218-1.179a1.733 1.733 0 0 0-2.42 0L7.159 2.671a.585.585 0 0 1-.492.16l-1.679-.238a1.733 1.733 0 0 0-1.957 1.423l-.293 1.67a.585.585 0 0 1-.304.418l-1.497.794A1.733 1.733 0 0 0 .189 9.2l.744 1.523c.08.165.08.353 0 .517L.19 12.762a1.733 1.733 0 0 0 .748 2.301l1.497.795a.585.585 0 0 1 .304.418l.293 1.67a1.732 1.732 0 0 0 1.957 1.422l1.679-.237a.585.585 0 0 1 .492.16l1.218 1.178a1.734 1.734 0 0 0 2.42 0l1.218-1.179a.586.586 0 0 1 .492-.16l1.678.238a1.733 1.733 0 0 0 1.958-1.422l.292-1.67a.585.585 0 0 1 .304-.418l1.498-.795a1.733 1.733 0 0 0 .747-2.3z"/></g><g><path fill="#315293" d="M13.8 6.779a.576.576 0 0 0-.813 0l-7.598 7.598a.576.576 0 0 0 .814.814L13.8 7.593a.576.576 0 0 0 0-.814z"/></g><g><path fill="#315293" d="M7.29 8.87a.96.96 0 0 1 0-1.919.96.96 0 0 1 0 1.92zm0-3.07c-1.163 0-2.11.947-2.11 2.11 0 1.164.947 2.111 2.11 2.111 1.165 0 2.111-.947 2.111-2.11 0-1.164-.946-2.111-2.11-2.111z"/></g><g><path fill="#315293" d="M11.89 15.01a.96.96 0 0 1 0-1.919.96.96 0 0 1 0 1.92zm0-3.07c-1.163 0-2.11.947-2.11 2.11 0 1.164.947 2.111 2.11 2.111 1.164 0 2.111-.947 2.111-2.11 0-1.164-.946-2.111-2.11-2.111z"/></g><g><path fill="#f77d0e" d="M15 5.5C15 6.883 16.117 8 17.5 8S20 6.883 20 5.5 18.883 3 17.5 3A2.497 2.497 0 0 0 15 5.5z"/><path fill="none" stroke="#fff" stroke-miterlimit="20" stroke-width="4.4" d="M15 5.5C15 6.883 16.117 8 17.5 8S20 6.883 20 5.5 18.883 3 17.5 3A2.497 2.497 0 0 0 15 5.5z" clip-path="url(&quot;#h6bqa&quot;)"/></g></g></g></svg>