<?xml version="1.0" encoding="UTF-8"?>
<svg width="20px" height="20px" viewBox="0 0 20 20" version="1.1" xmlns="http://www.w3.org/2000/svg" xmlns:xlink="http://www.w3.org/1999/xlink">
    <title>email-24px</title>
    <g id="service" stroke="none" stroke-width="1" fill="none" fill-rule="evenodd">
        <g id="additions" transform="translate(-139.000000, -1867.000000)">
            <g id="Group-50" transform="translate(139.000000, 1623.000000)">
                <g id="email-24px" transform="translate(0.000000, 244.000000)">
                    <polygon id="Path" points="0 0 20 0 20 20 0 20"></polygon>
                    <path d="M18.3333333,5 C18.3333333,4.08333333 17.5833333,3.33333333 16.6666667,3.33333333 L3.33333333,3.33333333 C2.41666667,3.33333333 1.66666667,4.08333333 1.66666667,5 L1.66666667,15 C1.66666667,15.9166667 2.41666667,16.6666667 3.33333333,16.6666667 L16.6666667,16.6666667 C17.5833333,16.6666667 18.3333333,15.9166667 18.3333333,15 L18.3333333,5 Z M16.6666667,5 L10,9.16666667 L3.33333333,5 L16.6666667,5 Z M16.6666667,15 L3.33333333,15 L3.33333333,6.66666667 L10,10.8333333 L16.6666667,6.66666667 L16.6666667,15 Z" id="Shape" fill="#335491" fill-rule="nonzero"></path>
                    <path d="M15.5,1.25 C16.3991667,1.25 17.2114471,1.61328696 17.7990801,2.20091991 C18.386713,2.78855287 18.75,3.60083333 18.75,4.5 C18.75,5.39916667 18.386713,6.21144713 17.7990801,6.79908009 C17.2114471,7.38671304 16.3991667,7.75 15.5,7.75 C14.6008333,7.75 13.7885529,7.38671304 13.2009199,6.79908009 C12.613287,6.21144713 12.25,5.39916667 12.25,4.5 C12.25,3.60083333 12.613287,2.78855287 13.2009199,2.20091991 C13.7885529,1.61328696 14.6008333,1.25 15.5,1.25 Z" id="Path" stroke="#FFFFFF" stroke-width="1.5" fill="#F77D0E" fill-rule="nonzero"></path>
                </g>
            </g>
        </g>
    </g>
</svg>