<svg xmlns="http://www.w3.org/2000/svg" width="20" height="20" viewBox="0 0 20 20"><g><g><g><path fill="#335491" d="M19.41 8.638l-1.746-1.743a.78.78 0 0 0-1.103 0 .777.777 0 0 0 0 1.1l1.242 1.241H8.441a.78.78 0 1 0 0 1.557h9.362l-1.242 1.24a.777.777 0 0 0 .552 1.33c.2 0 .399-.077.551-.229l1.746-1.743c.76-.759.76-1.994 0-2.753zm-6.096 5.865a.78.78 0 0 0-.78.78v1.56c0 .86-.699 1.559-1.559 1.559H3.14c-.86 0-1.56-.7-1.56-1.56V3.12c0-.86.7-1.56 1.56-1.56h7.836c.86 0 1.56.7 1.56 1.56v1.56a.78.78 0 1 0 1.56 0v-1.56c0-1.72-1.4-3.119-3.12-3.119H3.14C1.419 0 .02 1.4.02 3.119v13.723c0 1.72 1.4 3.12 3.119 3.12h7.836c1.72 0 3.12-1.4 3.12-3.12v-1.56a.78.78 0 0 0-.78-.779z"/></g></g></g></svg>