<svg xmlns="http://www.w3.org/2000/svg" width="16" height="14" viewBox="0 0 16 14"><g><g><g/><g><path fill="#828282" d="M8.078 11.914l-.075.075-.075-.075c-3.57-3.233-5.926-5.371-5.926-7.54 0-1.5 1.125-2.625 2.626-2.625 1.155 0 2.28.743 2.677 1.77h1.403c.39-1.027 1.515-1.77 2.67-1.77 1.5 0 2.626 1.126 2.626 2.626 0 2.168-2.355 4.306-5.926 7.54zM8.003 1.818C6.683.273 4.238-.365 2.258.993A4.104 4.104 0 0 0 .503 4.21c-.105 2.91 2.475 5.243 6.413 8.82l.075.068c.57.517 1.447.517 2.017-.008l.083-.075c3.937-3.57 6.51-5.902 6.412-8.812a4.101 4.101 0 0 0-1.755-3.21c-1.98-1.35-4.425-.72-5.745.825z"/></g></g></g></svg>