<svg xmlns="http://www.w3.org/2000/svg" width="78" height="140" viewBox="0 0 78 140"><g><g><g><path fill="#f97d00" d="M13.79 26.17c2.963 1.306 4.98 2.085 8.659 2.744l3.746.658c2.606.424 6.984 1.313 10.717 2.012l6.814 1.301 5.89 1.092c3.307.601 7.321 1.376 10.202 1.858l5.522.824c3.722.542 5.893.442 9.085.136-2.997-1.239-5.028-1.971-8.717-2.546l-5.48-.834-16.042-2.924-6.816-1.314c-3.739-.706-8.109-1.596-10.735-2.016l-3.768-.649c-3.702-.625-5.873-.574-9.077-.342"/></g><g><path fill="#f97d00" d="M6.29 73.05c1.52.562 2.79 1.006 4.143 1.364.676.178 1.372.336 2.13.475.759.141 1.58.249 2.5.408.623.095 1.639.25 3.75.575 2.846.386 7.618 1.28 11.685 2.01l7.419 1.439s11.231 2.274 17.514 3.373l5.507.927c3.722.554 5.913.387 9.102.054-3.007-1.213-5.039-1.875-8.72-2.461-.909-.157-2.65-.455-5.461-.937C49.627 79.18 38.39 76.93 38.39 76.93l-7.437-1.454c-4.09-.74-8.887-1.643-11.769-2.027-2.132-.32-3.16-.473-3.79-.567-.928-.15-1.77-.201-2.552-.235a29.155 29.155 0 0 0-2.211-.011c-1.412.048-2.753.2-4.342.414"/></g><g><path fill="#f97d00" d="M70.668 83.045c1.11-3.043 1.706-5.081 2.24-8.777.089-.627.209-1.644.52-3.766l1.261-8.933.392-3.008.34-2.689c.117-.908.182-1.799.257-2.535l.335-3.52.105-2.074c.245-3.777-.286-5.967-1.075-9.063-.769 3.16-1.081 5.222-1.359 8.922l-.113 2.028-.335 3.464c-.077.726-.14 1.598-.254 2.498l-.331 2.664-.377 2.984S71.38 67.512 71 70.16c-.308 2.122-.426 3.157-.51 3.787-.5 3.722-.265 5.92.177 9.098"/></g><g><path fill="#f97d00" d="M6.916 71.8c.372-1.58.614-2.877.886-4.244a56.56 56.56 0 0 0 .595-4.636c.083-.622.138-1.636.43-3.74.173-1.371.521-3.68.866-5.647.167-.983.326-1.88.45-2.533l.194-1.058.595-3.098 1.016-5.386c.512-2.833.774-4.605.907-5.53.512-3.748.295-5.967-.314-9.128-.948 3.088-1.56 5.106-2.098 8.775-.14.906-.4 2.642-.91 5.446l-1.592 8.472-.2 1.065c-.126.655-.29 1.561-.462 2.558a120.232 120.232 0 0 0-.884 5.747c-.295 2.149-.348 3.2-.427 3.837-.297 3.788.097 6 .948 9.1"/></g><g><path fill="#f97d00" d="M16.29 28.68c.272 1.44.542 2.366 1.557 3.48l3.758 3.998c.772.807 1.47 1.598 2.002 2.172l.868.95.831.972c.49.6 1.218 1.375 1.874 2.251l1.016 1.305c.34.428.66.847.921 1.252l1.22 1.771c.786 1.22 1.502 1.73 2.828 2.464.067-1.432.031-2.456-.774-3.776l-1.272-1.88c-.278-.43-.612-.868-.965-1.311l-1.058-1.356c-.69-.914-1.43-1.697-1.94-2.315l-.857-.994-.878-.97c-.536-.584-1.251-1.397-2.023-2.208l-3.773-3.992c-1.032-1.078-1.905-1.413-3.335-1.813"/></g><g><path fill="#f97d00" d="M40.042 61.175c-1.202-1.075-1.993-2.102-2.81-3.158-.792-1.07-1.636-2.17-2.458-3.664-.136-.254-.326-.584-.528-1.085-.222-.493-.446-1.164-.599-2.065-.06-.547-.116-1.205.025-1.858.091-.65.405-1.47.765-2.049.19-.283.405-.498.6-.608a.847.847 0 0 1 .615-.105c.5.073 1.177.538 1.688 1.12.523.583.95 1.262 1.258 1.917.078.163.154.325.22.499l.052.126c.021.058.025.045.06.163l.172.545c.127.336.192.753.265 1.138.077.365.133.799.189 1.202l.301 2.165.115.824.05.359c.045-.062.102-.208.149-.3l.711-1.513.745-1.576.14-.281c.091-.176.224-.474.4-.79.187-.26.4-.605.675-.958l.304-.362c.07-.085.156-.168.24-.26.673-.708 1.775-1.669 3.109-2.225.65-.267 1.374-.396 1.8-.24.216.071.377.184.536.384.155.2.303.478.39.826.104.334.153.722.189 1.109.019.193.016.398.025.593 0 .045.006.107.002.138l-.008.08a.551.551 0 0 1-.025.172c-.094.49-.49 1.109-.897 1.615-.808.99-1.662 1.742-2.321 2.329-.67.586-1.184 1.01-1.537 1.301-1.43 1.178-2.53 2.18-3.473 3.257-.922 1.08-1.79 2.218-2.384 3.735 1.22-1.044 2.386-1.625 3.547-2.375a37.405 37.405 0 0 0 3.854-2.73c.363-.295.894-.727 1.606-1.345.706-.632 1.614-1.408 2.623-2.637.26-.33.53-.687.775-1.12.249-.42.483-.922.612-1.533.037-.148.06-.307.068-.476l.017-.25c.003-.08-.003-.128-.003-.194-.011-.249-.01-.495-.033-.753-.047-.514-.112-1.045-.28-1.601a4.665 4.665 0 0 0-.827-1.669 3.548 3.548 0 0 0-1.715-1.194 4.2 4.2 0 0 0-1.9-.128 6.637 6.637 0 0 0-1.563.438c-1.862.792-3.112 1.938-3.959 2.813-.103.113-.206.215-.295.32-.044.053-.088.104-.13.152-.045.052-.012.013-.02.025.002-.002 0-.001 0-.001h.002v-.003l.003.001-.102-.248a8.5 8.5 0 0 0-.266-.601 10.45 10.45 0 0 0-1.65-2.508 6.998 6.998 0 0 0-1.29-1.14c-.505-.338-1.106-.64-1.83-.76a3.318 3.318 0 0 0-2.21.394c-.651.374-1.102.892-1.438 1.39a7.552 7.552 0 0 0-.734 1.494c-.18.489-.323.956-.397 1.468-.2.997-.125 1.895-.036 2.649.201 1.214.502 2.06.773 2.67.257.622.484 1.015.652 1.318 1.006 1.781 2.166 2.886 3.345 3.764a11.452 11.452 0 0 0 4.051 1.87"/></g><g><path fill="#f97d00" d="M53.17 51.175c1.183.367 1.943.52 3.02.11a129.5 129.5 0 0 0 3.928-1.6c.8-.327 1.555-.69 2.114-.94l.92-.42.91-.451c.548-.29 1.314-.62 2.074-1.075l1.158-.66c.384-.212.75-.434 1.073-.662l1.458-.982c.954-.723 1.223-1.518 1.47-2.695-1.27.003-1.986.072-2.885.71l-1.364.899c-.3.21-.642.418-1.006.618l-1.09.625c-.711.431-1.454.754-1.973 1.032-.528.267-.87.438-.87.438l-.893.401c-.545.24-1.269.586-2.059.905-1.559.665-3.296 1.35-3.866 1.593-1.062.443-1.515 1.076-2.119 2.154"/></g><g><path fill="#f97d00" d="M48.799 59.93c-.11 1.27-.08 2.093.58 3.154.362.57 1.437 2.307 2.528 3.798l2.04 2.89 2.048 2.86c1.088 1.493 2.222 3.131 2.607 3.67.716.997 1.46 1.328 2.697 1.743.058-1.28.002-2.098-.693-3.13-.376-.562-1.53-2.228-2.617-3.71l-2.06-2.852-2.005-2.867c-1.08-1.486-2.122-3.17-2.493-3.718-.677-1.016-1.407-1.37-2.632-1.838"/></g><g><path fill="#f97d00" d="M29.415 59.93c-1.208.007-1.951.088-2.791.78l-5.422 4.617-2.336 2.118c-1.252 1.072-2.477 2.422-2.892 2.86-.757.82-.888 1.567-.934 2.74 1.216-.147 1.942-.295 2.696-1.055.413-.407 1.576-1.697 2.802-2.751l2.265-2.075s4.505-3.805 5.408-4.605c.823-.727 1.022-1.45 1.204-2.629"/></g><g><path fill="#f97d00" d="M63.792 16.175c-.799.119-1.52.213-2.196.208-.672.02-1.295-.055-1.823-.222a2.87 2.87 0 0 1-1.31-.827c-.371-.393-.704-.984-1.028-1.75-.224-.523-.541-1.398-1.092-3.473-.231-.843-.5-1.853-.898-2.975-.41-1.112-.938-2.372-1.9-3.53-.225-.288-.516-.568-.808-.843-.284-.223-.565-.423-.85-.637l-.43-.314-.458-.28c-.313-.178-.597-.387-.937-.539-1.27-.67-2.833-1.166-4.437-.936-.787.123-1.551.382-2.173.779-.315.195-.624.39-.867.629-.257.228-.52.448-.711.696-.868.952-1.362 1.925-1.76 2.732-.382.814-.617 1.487-.782 1.953-.165.465-.23.725-.23.725l-.185.613-.063.21c-.018.081-.027.19-.035.242l-.055.418c-.033.301-.098.641-.117 1.025-.135 1.522-.016 3.722.814 6.009.428 1.13.991 2.29 1.764 3.337a14.822 14.822 0 0 0 2.692 2.825c2.034 1.618 4.441 2.603 6.543 2.889 1.57.237 2.879.133 3.892-.033a12.49 12.49 0 0 0 2.217-.657c1.949-.853 3.17-2.093 3.963-3.376.79-1.3 1.2-2.676 1.385-4.273a17.05 17.05 0 0 1-2.767 3.137c-.968.848-2.019 1.616-3.514 2.26-.377.142-.93.34-1.719.5a9.987 9.987 0 0 1-3.09.015c-1.696-.227-3.693-1.042-5.38-2.383a12.398 12.398 0 0 1-2.231-2.336c-.64-.862-1.1-1.818-1.455-2.747-.682-1.879-.794-3.701-.679-4.991.014-.324.073-.615.099-.87.016-.128.03-.247.045-.357a3.13 3.13 0 0 1 .013-.097l.026-.089.167-.554s.06-.242.208-.653c.146-.412.357-1.01.681-1.697.333-.674.753-1.478 1.369-2.139.605-.674 1.367-1.191 2.263-1.313.894-.141 1.968.144 2.992.692.26.11.507.298.762.441l.38.23.357.264c.235.175.47.35.704.522.17.172.346.328.509.54.667.793 1.12 1.813 1.477 2.793.353.988.613 1.952.845 2.79.55 2.073.932 3.148 1.217 3.79.413.947.955 1.828 1.753 2.463a4.102 4.102 0 0 0 2.607.926c.851-.005 1.598-.225 2.276-.549.69-.306 1.315-.737 1.96-1.213"/></g><g><path fill="#f97d00" d="M42.545 10.549c-.033-.901-.096-1.415-.538-1.674-.478-.28-2.933-1.58-2.933-1.58s-2.492-1.364-3-1.615c-.47-.232-.925.003-1.654.494.032.901.096 1.414.537 1.674.48.28 2.934 1.579 2.934 1.579s2.491 1.365 3 1.616c.47.23.925-.003 1.654-.494"/></g><g><path fill="#f97d00" d="M49.416 24.3c-.69.536-1.065.833-1.01 1.222.023.211.177.834.18 1.419l.08 1.109-.08 1.11c-.003.584-.157 1.207-.18 1.418-.055.389.32.686 1.01 1.222.82-.162 1.284-.339 1.387-.785.205-.47.3-2.965.3-2.965s-.095-2.495-.3-2.965c-.103-.447-.567-.623-1.387-.785"/></g><g><path fill="#f97d00" d="M45.673 8.68c-.62.606-.955 1.029-.775 1.54.09.275.392 1.097.924 1.874.136.195.275.384.463.562.09.088.162.17.26.247l.33.214c.192.145.388.22.531.26l.22.066c0-.006.075.038.222.041.144.007.357.03.607-.003.238-.059.572-.12.81-.276.13-.073.263-.153.395-.239.103-.083.196-.169.295-.257.75-.715 1.145-1.506 1.28-1.768.257-.491-.028-.957-.562-1.636-.892.052-1.354.118-1.583.476-.107.2-.48.829-.793 1.12l-.104.102-.04.028c-.04.025-.013.01-.02.015v.003c-.006-.004.014.008-.012-.012l-.018-.014-.073-.084a1.277 1.277 0 0 1-.198-.25c-.292-.427-.567-1.1-.65-1.321-.179-.399-.635-.52-1.51-.688"/></g><g><path fill="#f97d00" d="M60.665 19.3c.99-1.278 1.805-2.327 2.63-3.436a124.047 124.047 0 0 0 2.635-3.79l.759-1.042c.087-.116.173-.25.281-.379l.319-.39-.01.014c-.007.019-.003-.009 0-.01 0 .003-.012.016-.009.005l-.001.035-.143.737c-.147.467-.275.885-.464 1.24a8.99 8.99 0 0 1-.937 1.559c-1.005 1.374-1.976 2.401-2.87 3.433-.903 1.026-1.768 2.046-2.815 3.273 1.497-.594 2.742-1.144 3.969-1.906 1.214-.772 2.454-1.722 3.683-3.36.3-.406.737-1.01 1.183-1.95.24-.46.432-1.032.626-1.68.067-.34.14-.68.203-1.076-.013-.61.011-1.274-.03-1.926l-.366-1.687-.262-1.002-.087-.35-.093-.375c-.002-.063-.04.003-.063.016l-.08.073-.167.154c-.462.424-1.003.923-1.325 1.22-.167.156-.326.292-.484.453l-.468.54-.845.974c-.144.176-.277.34-.402.491-.117.143-.209.284-.303.41l-.81 1.13c-1.062 1.62-1.74 2.979-2.207 4.332-.486 1.346-.773 2.684-1.047 4.27"/></g><g><path fill="#f97d00" d="M13.752 92.738c.203-.475.504-.817.835-.995.332-.182.685-.235 1.062-.248.752-.02 1.6.118 2.704.352.299.064.749.176 1.306.334.278.088.584.175.91.288l.351.117.702.251c.47.175.94.359 1.412.55.945.387 1.895.809 2.853 1.254 1.914.894 3.857 1.882 5.824 2.933 3.938 2.1 7.98 4.45 12.143 6.877 2.085 1.212 4.19 2.453 6.38 3.646.55.298 1.106.59 1.682.87.288.14.584.275.894.404.317.133.658.234.96.329 1.262.354 2.5.589 3.758.81 2.51.428 5.057.72 7.637.833 2.58.092 5.203.072 7.831-.576 1.293-.345 2.664-.836 3.732-1.977.508-.573.914-1.311 1.019-2.092.1-.77.058-1.5-.144-2.233l-.181-.549c-.07-.179-.186-.343-.28-.513-.177-.357-.462-.623-.727-.907-.276-.263-.596-.469-.905-.673-.326-.152-.649-.351-.984-.452-1.336-.483-2.684-.61-3.997-.645-2.63-.025-5.166.36-7.643.839a87.32 87.32 0 0 0-7.246 1.803 132.036 132.036 0 0 0-6.91 2.227l-1.673.598c-.135.048-.292.11-.365.128l-.437.132-.841.267-3.294 1.057c-8.688 2.764-16.774 4.976-23.737 6.228-3.478.62-6.68 1.001-9.473.994-1.395-.004-2.688-.11-3.811-.366a7.342 7.342 0 0 1-1.531-.5 3.87 3.87 0 0 1-1.134-.736c-1.209-1.122-.892-2.723-.682-3.601l.227-.568c.06-.165.156-.288.209-.397.12-.21.18-.319.18-.319l.18-.232.219-.292.362-.361c.56-.53 1.56-1.227 3.153-1.646 3.165-.897 8.411-.69 14.812 1.015 1.596.431 3.285.948 4.966 1.632 1.64.72 3.354 1.64 5.021 2.775 3.376 2.238 6.684 5.243 10.486 8.3 1.908 1.517 3.967 3.037 6.29 4.335.583.318 1.188.614 1.792.919.612.286 1.233.553 1.866.81 1.266.51 2.579.973 3.96 1.334 1.382.347 2.83.643 4.42.524.785-.064 1.645-.265 2.411-.813.371-.285.699-.647.928-1.061.06-.101.1-.21.15-.315l.068-.16c-.006.016.04-.092-.01.026l.015-.037.03-.075.23-.6c.058-.212.097-.44.142-.661.04-.223.019-.474.023-.71-.01-.241-.087-.488-.138-.728-.095-.228-.193-.465-.322-.672-.546-.834-1.349-1.31-2.122-1.632-.786-.32-1.591-.497-2.406-.593a9.759 9.759 0 0 0-1.235-.07l-.574.002c-.211.005-.426 0-.636.015-1.475.121-2.903.567-4.334 1.165-1.432.602-2.875 1.37-4.405 2.254-3.22 1.85-6.461 4.058-10.039 5.84-1.785.876-3.66 1.669-5.615 2.039-.974.201-1.966.275-2.939.196-.978-.052-1.928-.313-2.819-.712-.909-.372-1.7-.994-2.468-1.637-.37-.346-.748-.701-1.029-1.068a1.99 1.99 0 0 1-.194-.27l-.089-.132-.054-.116c-.089-.175-.043-.12-.056-.129.011-.002-.05.02.101-.034.169-.035.376-.066.607-.064.459-.003.96.056 1.456.15.997.193 1.996.498 2.953.883.955.383 1.884.85 2.686 1.418.404.287.762.585 1.051.942.323.368.598.774.875 1.21.55.869 1.06 1.801 1.598 2.722.272.46.544.922.838 1.377l.204.315c.417.633.852 1.219 1.268 1.698.414.48.829.842 1.11 1.075.53.418 1.113.715 1.708.842a3.29 3.29 0 0 0 1.677-.073c.997-.357 1.659-1.034 2.229-1.876-.902.485-1.709.73-2.445.76-.737-.011-1.391-.219-2.204-.867-.443-.34-1.27-1.219-2.04-2.42l-.191-.296a37.57 37.57 0 0 1-.805-1.323c-.53-.902-1.039-1.835-1.628-2.771-.294-.464-.62-.946-1.003-1.385-.389-.474-.864-.87-1.335-1.202-.953-.673-1.967-1.175-3.01-1.596a17.715 17.715 0 0 0-3.248-.968 9.266 9.266 0 0 0-1.763-.177c-.31 0-.642.034-1 .12-.36.094-.933.405-1.137.895-.236.48-.068 1.117.08 1.415l.12.249.134.206c.09.139.18.274.278.385.38.49.794.873 1.207 1.261.873.737 1.797 1.456 2.878 1.904 1.055.476 2.198.783 3.34.847a11.94 11.94 0 0 0 3.355-.221c2.177-.415 4.154-1.263 6.013-2.174 3.712-1.852 6.964-4.072 10.125-5.887 2.984-1.716 5.605-2.996 8.075-3.215.175-.013.346-.005.52-.01l.578-.003c.35-.002.704.016 1.053.06.697.08 1.383.237 1.99.485.606.246 1.127.603 1.398 1.023.278.412.28.921.12 1.486l-.163.424-.02.053-.047.115-.042.09c-.028.058-.048.124-.082.177a1.909 1.909 0 0 1-.49.563c-.416.299-.994.467-1.62.514-1.258.1-2.609-.15-3.894-.48a31.209 31.209 0 0 1-3.768-1.27 37.645 37.645 0 0 1-1.79-.777c-.571-.29-1.142-.568-1.696-.87-2.207-1.233-4.2-2.7-6.077-4.191-3.738-3.001-7.091-6.053-10.59-8.375a32.916 32.916 0 0 0-5.291-2.919c-1.79-.726-3.51-1.25-5.16-1.696-6.581-1.741-12.011-2.012-15.625-1.01-1.807.472-3.082 1.323-3.804 2.013l-.467.47-.29.38-.232.307s-.082.14-.239.415c-.072.141-.187.301-.273.522l-.3.767c-.14.6-.31 1.326-.252 2.252.057.904.426 2.089 1.357 2.914.441.425.977.764 1.552 1.019a8.89 8.89 0 0 0 1.833.602c1.287.293 2.678.4 4.149.406 2.944.007 6.217-.387 9.753-1.017 7.074-1.271 15.21-3.499 23.935-6.274l3.298-1.058.828-.262.404-.123c.21-.057.324-.112.466-.16l1.661-.593c2.224-.78 4.502-1.525 6.827-2.2a86.189 86.189 0 0 1 7.114-1.771c2.411-.468 4.876-.832 7.311-.808 1.209.03 2.421.16 3.48.546 1.08.368 1.855 1.086 2.122 2.061a4.03 4.03 0 0 1 .104 1.552c-.064.495-.31.916-.635 1.296-.686.755-1.812 1.22-2.965 1.514-2.342.582-4.886.621-7.374.528a60.03 60.03 0 0 1-7.44-.812c-1.217-.213-2.445-.45-3.585-.77-1.074-.298-2.149-.911-3.229-1.478-2.148-1.17-4.255-2.412-6.338-3.621-4.163-2.429-8.222-4.787-12.194-6.906-1.985-1.06-3.95-2.06-5.9-2.97a67.608 67.608 0 0 0-2.921-1.283 54.954 54.954 0 0 0-1.461-.57l-.734-.262-.37-.123c-.342-.118-.67-.211-.965-.302a20.31 20.31 0 0 0-1.42-.356c-1.223-.245-2.278-.28-3.265.053-.483.165-.96.45-1.276.884-.32.433-.425.965-.382 1.471"/></g></g></g></svg>