<svg xmlns="http://www.w3.org/2000/svg" width="174" height="156" viewBox="0 0 174 156"><defs><clipPath id="lc1da"><path fill="#fff" d="M0 0h174v156H0z"/></clipPath></defs><g><g><path fill="none" stroke="#35558f" stroke-dasharray="8 8" stroke-miterlimit="20" stroke-width="2" d="M0 0v0h174v156H0v0z" clip-path="url(&quot;#lc1da&quot;)"/></g><g><g><path fill="#335491" d="M93 79h-5v5c0 .55-.45 1-1 1s-1-.45-1-1v-5h-5c-.55 0-1-.45-1-1s.45-1 1-1h5v-5c0-.55.45-1 1-1s1 .45 1 1v5h5c.55 0 1 .45 1 1s-.45 1-1 1z"/></g></g></g></svg>