<svg xmlns="http://www.w3.org/2000/svg" width="152" height="173" viewBox="0 0 152 173"><g><g><g><path fill="#fff" d="M101.538 165.805c1.809-2.129 3.5-4.363 4.666-6.86.253-.538 1.21-.256 1.182.28.232-.128.54-.147.891.027 7.512 3.766 14.613-3.305 18.69-8.075 8.008-9.372 13.797-20.672 18.354-31.853 5.076-12.452 5.206-26.324.443-39.253-5.044-13.705-16.157-26.777-32.805-28.264-18.581-1.661-34.997 9.314-43.794 23.213a65.656 65.656 0 0 0-9.12 23.345c-1.361 7.498-1.81 15.35.599 22.838 2.619 8.153 7.09 15.99 12.895 22.71 4.909 5.688 11.335 11.363 19.186 13.059-.097-.54-.2-1.08-.28-1.622-.233-1.493 2.31-1.582 2.527-.095.696 4.838 2.025 9.59 3.412 14.318.168-.213.33-.43.503-.64.869-1.053 1.77-2.085 2.65-3.128"/></g><g><path fill="#fff" d="M101.538 165.805c1.809-2.129 3.5-4.363 4.666-6.86.253-.538 1.21-.256 1.182.28.232-.128.54-.147.891.027 7.512 3.766 14.613-3.305 18.69-8.075 8.008-9.372 13.797-20.672 18.354-31.853 5.076-12.452 5.206-26.324.443-39.253-5.044-13.705-16.157-26.777-32.805-28.264-18.581-1.661-34.997 9.314-43.794 23.213a65.656 65.656 0 0 0-9.12 23.345c-1.361 7.498-1.81 15.35.599 22.838 2.619 8.153 7.09 15.99 12.895 22.71 4.909 5.688 11.335 11.363 19.186 13.059-.097-.54-.2-1.08-.28-1.622-.233-1.493 2.31-1.582 2.527-.095.696 4.838 2.025 9.59 3.412 14.318.168-.213.33-.43.503-.64.869-1.053 1.77-2.085 2.65-3.128"/></g><g><path d="M87.614 99.254c-.089-2.27-.224-4.537-.342-6.805l-.023-.43c.613-.46.58-1.38-.091-1.794-.201-4.052-.354-8.116-.19-12.167.044-1.09-1.589-1.065-1.67 0-.305 3.936-.268 7.874-.14 11.814-.706.004-1.428.077-2.077.083a43.41 43.41 0 0 0-3.737.218l-.013-.562c-.044-2.503-.066-5.011.043-7.512.038-.85.07-1.701.159-2.546.03-.282.036-.574.05-.858.01-.188.028-.443-.015-.369.228-.4-.147-.907-.596-.78-1.283.366-1.36 2.288-1.489 3.341-.304 2.497-.225 5.077-.22 7.588.01 4.923.278 9.84.303 14.761.007 1.351 2.086 1.352 2.088 0 .005-3.701-.158-7.403-.262-11.105a70.44 70.44 0 0 0 3.23.212c.79.034 1.733.133 2.631.11.086 2.144.184 4.285.251 6.427.03.948-.481 4.45 1.13 4.45 1.609 0 1.016-3.174.98-4.076"/></g><g><path d="M104.985 101.123c.236 1.626-2.324 2.339-2.581.688-.322-2.072-.71-4.132-1.133-6.186-.663.06-1.363-.005-1.997-.044l-2.151-.126c-.044.303-.085.606-.13.91-.234 1.601-.348 3.246-.85 4.797-.204.632-1.35.768-1.465 0-.52-3.433.212-7.17.73-10.574.564-3.697 1.298-7.371 2.4-10.957.344-1.118 2.17-1.23 2.453 0 1.638 7.15 3.664 14.231 4.724 21.492zm-4.197-7.81c-.595-2.716-1.24-5.424-1.87-8.134a83.783 83.783 0 0 0-1.11 5.595c-.148.89-.278 1.782-.404 2.673.786-.05 1.57-.099 2.354-.105.349-.003.693-.023 1.03-.028z"/></g><g><path fill="#0b0212" d="M84.117 135.626c0-2.573-.366-5.234-.47-7.855.262-.002.524-.006.786-.006 1.409 0 2.81-.214 4.219-.23 1.918-.024 1.92-3 0-2.977-1.44.018-2.845.223-4.259.485-.25.047-.543.1-.843.169l-.063-1.798c-.058-1.652.467-5.413-.453-7.392 1.635.16 3.286.184 4.926.206 1.918.026 4.344.653 5.797-.827a.866.866 0 0 0 0-1.21c-1.317-1.341-3.175-.863-4.932-.838-2.403.033-4.834.018-7.213.392-.809.128-.984 1.212-.54 1.775-1.326 1.764-.648 6.09-.651 7.894-.012 4.628.16 9.277.616 13.882.086.87 1.07 1.675 1.997 1.335 1.177-.43 1.083-.431 1.083-3.005z"/></g><g><path d="M107.942 120.567c-.115-2.189-.247-4.653-1.263-6.643-.781-1.527-2.946-.189-2.266 1.324-.08-.177.144.436.18.567.093.322.18.645.253.972.192.846.305 1.706.396 2.567.224 2.172.26 4.364.193 6.546-.066 2.17-.265 4.344-.707 6.472-.291 1.4-.686 3.108-1.702 4.162-.27.278-.53.351-.68.328-.53-.082-1.092-.46-1.41-.898-1.189-1.632-1.405-4.085-1.613-6.022-.514-4.775-.242-9.488.286-14.24.02-.183.03-.367.05-.55.1-.906-1.254-1.184-1.662-.45-.87 1.565-.909 3.606-1.051 5.349a61.347 61.347 0 0 0-.12 7.97c.172 3.587.408 9.363 4.346 10.968 3.373 1.374 5.054-2.799 5.72-5.293 1.127-4.212 1.278-8.797 1.05-13.129"/></g><g><path fill="#0b0212" d="M122.846 110.61c-.73-.91-2.185.072-1.887 1.097 1.18 4.048 1.381 7.81 1.133 12.032-.166 2.82-.495 5.625-.807 8.43-2.274-5.122-4.376-10.31-5.854-15.735-.327-1.204-2.208-.969-2.18.295.07 3.383.115 6.764.144 10.148.029 3.171-.09 6.364.508 9.494.086.454.828.454.915 0 .597-3.13.479-6.323.507-9.494.009-.977.022-1.954.033-2.93 1.617 4.598 3.617 9.06 5.625 13.511.556 1.23 2.201.464 2.298-.622.424-4.748 1.145-9.462 1.417-14.225.207-3.641.588-8.963-1.852-12.002"/></g><g transform="rotate(7 112 89.5)"><path d="M115.293 96.933c-1.283-2.309-2.501-4.658-3.77-6.97a359.465 359.465 0 0 1-5.147-9.792c-.022-.293-.046-.586-.066-.88-.043-.63-.47-1.036-1.099-1.087l-.562-.047c-.963-.078-1.295 1.001-.989 1.708.209.48.64 1.435.64 1.435l2.794 5.572s5.678 9.718 8.451 14.642c.522.927 1.912.477 1.946-.522.266-7.968.234-15.953.309-23.925.017-1.73-2.724-1.73-2.708 0 .064 6.62.054 13.246.201 19.866z"/></g><g><path d="M131.762 99.466c-2.23 0-4.48.008-6.689-.33-.18-3.349-.21-6.704-.24-10.056 1.657.453 3.771.27 5.354-.225 1.442-.452.838-2.682-.627-2.253-1.536.448-3.222.29-4.746.715a292.768 292.768 0 0 0-.07-4.386c-.036-1.54-.028-3.141-.24-4.685 2.364.366 4.888.88 7.258.718 1.393-.096 1.374-2.012 0-2.133-2.45-.216-5.109-.477-7.551-.171a.79.79 0 0 0-.39.163c-.32-.007-.67.23-.703.606-.16 1.813.009 3.683.024 5.502.016 1.836-.002 3.67-.019 5.504-.035 3.825-.044 7.645.184 11.464.022.378.257.79.664.866 2.57.48 5.183.503 7.791.505 1.173.002 1.173-1.806 0-1.804"/></g><g><path d="M97.904 172.746c-.497.018-1.053-.293-1.193-.755-1.2-3.886-2.393-7.787-3.3-11.73-.043-.005-.08-.002-.119-.009-10.362-1.66-18.765-9.584-24.629-17.214-6.232-8.111-11.513-17.863-12.79-27.698-1.01-7.793.13-16.05 2.244-23.504 2.252-7.967 5.81-15.592 10.913-22.3 9.807-12.9 26.428-22.557 44.518-20.512 16.027 1.812 27.761 13.553 33.512 26.861 5.697 13.19 6.826 28.316 1.966 41.502-3.964 10.738-9.412 21.354-16.26 30.714-4.768 6.52-15.033 19.327-25.336 12.688a1.032 1.032 0 0 1-.405-.473c-1.075 2.785-2.916 5.166-4.73 7.597-.951 1.283-1.934 2.577-2.75 3.933-.372.623-.869.87-1.641.9zm.48-3.175c.168-.212.33-.43.503-.639.87-1.054 1.771-2.085 2.651-3.129 1.81-2.128 3.5-4.362 4.666-6.86.254-.537 1.21-.255 1.182.28.233-.128.54-.147.891.027 7.512 3.767 14.613-3.304 18.69-8.075 8.008-9.372 13.797-20.672 18.354-31.852 5.076-12.452 5.206-26.325.443-39.254-5.043-13.705-16.157-26.776-32.805-28.264-18.581-1.66-34.997 9.314-43.794 23.213a65.656 65.656 0 0 0-9.12 23.346c-1.361 7.497-1.81 15.349.599 22.837 2.619 8.153 7.09 15.99 12.895 22.71 4.909 5.688 11.335 11.364 19.186 13.059-.097-.54-.2-1.08-.28-1.622-.233-1.493 2.31-1.582 2.527-.094.696 4.838 2.025 9.59 3.413 14.317z"/></g></g><g><g><path fill="#fff" d="M3.572 54.93c.957 7.679 2.662 15.353 5.347 22.621 2.192 5.934 6.554 11.553 11.617 15.33 2.584 1.926 5.471 3.58 8.655 4.248 2.101.441 4.246.4 6.336.002.042-1.138 1.208-2.23 2.434-1.43.27.175.531.36.783.55.497-.09.846.3.912.743 2.387 2.102 3.991 4.798 5.725 7.44a43.592 43.592 0 0 0-.125-2.56c-.096-1.242-.181-2.55.508-3.654.877-1.406 2.799-1.927 4.25-2.465 3.04-1.127 6.139-2.09 9.181-3.21 6.897-2.54 13.636-6.027 18.59-11.596 4.077-4.583 6.72-10.286 8.314-16.172 3.354-12.376 3.01-26.023-.204-38.398-1.144-4.409-2.746-8.638-5.708-12.171-2.663-3.178-5.98-5.685-9.712-7.485-8.057-3.884-17.42-4.586-26.198-3.479C27.433 5.37 7.397 15.361 3.555 33.48c-.677 3.191-.748 6.559-.733 9.812.017 3.89.269 7.777.75 11.637"/></g><g><path fill="#fff" d="M3.572 54.93c.957 7.679 2.662 15.353 5.347 22.621 2.192 5.934 6.554 11.553 11.617 15.33 2.584 1.926 5.471 3.58 8.655 4.248 2.101.441 4.246.4 6.336.002.042-1.138 1.208-2.23 2.434-1.43.27.175.531.36.783.55.497-.09.846.3.912.743 2.387 2.102 3.991 4.798 5.725 7.44a43.592 43.592 0 0 0-.125-2.56c-.096-1.242-.181-2.55.508-3.654.877-1.406 2.799-1.927 4.25-2.465 3.04-1.127 6.139-2.09 9.181-3.21 6.897-2.54 13.636-6.027 18.59-11.596 4.077-4.583 6.72-10.286 8.314-16.172 3.354-12.376 3.01-26.023-.204-38.398-1.144-4.409-2.746-8.638-5.708-12.171-2.663-3.178-5.98-5.685-9.712-7.485-8.057-3.884-17.42-4.586-26.198-3.479C27.433 5.37 7.397 15.361 3.555 33.48c-.677 3.191-.748 6.559-.733 9.812.017 3.89.269 7.777.75 11.637"/></g><g><path d="M3.08 67.932C1.264 60.326.13 52.482.014 44.656c-.084-5.693.15-11.51 2.352-16.834C5.805 19.51 12.403 12.998 20.09 8.494c8.182-4.793 17.551-7.62 27-8.323 8.866-.658 18.259.509 26.162 4.802 3.688 2.004 7.003 4.676 9.596 7.987 2.937 3.75 4.684 8.06 5.868 12.644 3.2 12.397 3.782 26.008.708 38.492-1.48 6.008-3.859 11.86-7.617 16.814-4.318 5.693-10.382 9.863-16.928 12.61-3.415 1.434-6.942 2.558-10.463 3.697-1.748.566-4.6 1.213-5.788 2.307-.36.332-.14.023-.331.431.198-.425-.017.436-.022.179-.033.581.022 1.163.074 1.741.217 2.404.25 4.778.023 7.184-.118 1.238-1.724 2.287-2.712 1.124-3.02-3.554-4.902-8.315-8.692-11.148-7.49 2.89-15.95-1.636-21.444-6.905-3.128-3-5.891-6.495-7.86-10.368-2.179-4.29-3.468-9.168-4.583-13.83zm-.259-24.634c.017 3.89.27 7.777.75 11.638.957 7.68 2.663 15.356 5.348 22.624 2.191 5.935 6.553 11.555 11.617 15.332 2.584 1.926 5.47 3.58 8.655 4.249 2.101.44 4.246.4 6.335.002.042-1.14 1.209-2.231 2.434-1.431.271.175.532.36.784.55.497-.09.846.3.911.744 2.387 2.101 3.992 4.798 5.726 7.44a43.6 43.6 0 0 0-.125-2.561c-.096-1.241-.182-2.55.507-3.653.878-1.407 2.8-1.928 4.25-2.466 3.04-1.127 6.14-2.09 9.182-3.21 6.897-2.541 13.636-6.027 18.59-11.597 4.077-4.583 6.719-10.288 8.314-16.174 3.353-12.377 3.009-26.025-.204-38.401-1.144-4.41-2.747-8.64-5.709-12.173-2.662-3.178-5.98-5.686-9.712-7.485-8.056-3.885-17.42-4.587-26.197-3.48C27.432 5.371 7.396 15.364 3.555 33.485c-.677 3.191-.749 6.56-.734 9.813z"/></g><g><g><path d="M44.22 71.418c-1.474-1.959-3.58-3.925-4.125-6.387-.301-1.361-.176-2.89.506-4.113.744-1.334 2.549-1.33 3.813-.897.75.257 1.234-.91.537-1.275-1.441-.753-2.955-1.415-4.544-.668-1.315.618-2.09 1.839-2.509 3.188-.89 2.865.007 5.775 1.757 8.068 1.675 2.198 3.714 4.22 4.915 6.739 1.527 3.2-2.456 3.393-4.552 4.072-1.007.327-.789 1.735.245 1.804 2.431.163 6.256-1.02 6.756-3.801.445-2.47-1.41-4.887-2.8-6.73"/></g><g><path d="M35.192 65.067c-.115-2.189-.247-4.653-1.263-6.643-.781-1.527-2.946-.189-2.266 1.324-.08-.177.144.436.18.567.093.322.18.645.253.972.192.846.305 1.706.396 2.567.224 2.172.26 4.364.193 6.546-.066 2.17-.265 4.344-.707 6.472-.291 1.4-.686 3.108-1.702 4.162-.27.278-.53.351-.68.328-.53-.082-1.092-.46-1.41-.898-1.189-1.632-1.405-4.085-1.613-6.022-.514-4.775-.242-9.488.286-14.24.02-.183.03-.367.05-.55.1-.906-1.254-1.184-1.662-.45-.87 1.565-.909 3.606-1.051 5.349a61.347 61.347 0 0 0-.12 7.97c.172 3.587.408 9.363 4.346 10.968 3.373 1.374 5.054-2.799 5.72-5.293 1.127-4.212 1.278-8.797 1.05-13.129"/></g></g><g><path fill="#0b0212" d="M58.618 66.375c-.061-2.629-.18-5.256-.285-7.885-.041-.987-1.493-.987-1.533 0-.107 2.629-.225 5.256-.286 7.885-.05 2.14-.568 4.726.39 6.695.244.5 1.08.5 1.323 0 .959-1.97.44-4.555.391-6.695"/></g><g><path fill="#0b0212" d="M56.971 78.26c-1.961 0-1.961 3.041 0 3.041 1.962 0 1.962-3.041 0-3.041"/></g><g><path d="M20.249 40.34c1.334.372 2.76.159 4.152.026.033-2.894.157-5.786.287-8.678.145-3.305-.054-6.802.588-10.054.168-.843 1.54-.848 1.707 0 .599 3.098.2 6.437.086 9.57-.119 3.435-.221 6.867-.238 10.304 0 .675-.55 1.21-1.22 1.222-2.003.033-4.034.504-6.005-.054-1.501-.426-.864-2.757.643-2.336"/></g><g><path d="M40.243 32.03c.156 3.423-.46 7.104-2.56 9.897-.47.62-1.247.794-1.852.24-2.98-2.713-4.077-7.6-4.298-11.452-.19-3.33.34-8.546 4.395-9.301.632-.118 1.172.548 1.048 1.062 2.149 2.596 3.121 6.273 3.267 9.555zm-5.128-8.004c-1.498 1.867-1.411 5.123-1.201 7.253.258 2.628.92 5.853 2.585 8.106 2.538-4.71 1.552-11.037-1.384-15.359z"/></g><g><path d="M47.83 38.113c-.301-1.886-.469-3.79-.615-5.693-.291-3.837-.4-7.7-1.09-11.492-.195-1.05-1.993-.813-1.869.252.443 3.869.54 7.77.772 11.655.12 1.97.287 3.938.573 5.891.216 1.463.345 3.742 1.593 4.685.518.389 1.253-.037 1.415-.577.232-.768-.098-1.45-.287-2.2-.21-.83-.356-1.677-.491-2.521z"/></g><g><path fill="#0b0212" d="M63.596 16.11c-.73-.91-2.185.072-1.887 1.097 1.18 4.048 1.381 7.81 1.133 12.032-.166 2.82-.495 5.625-.807 8.43-2.274-5.122-4.376-10.31-5.854-15.735-.327-1.204-2.208-.969-2.18.295.07 3.383.115 6.764.144 10.148.029 3.171-.09 6.364.508 9.494.086.454.828.454.915 0 .597-3.13.479-6.323.507-9.494.009-.977.022-1.954.033-2.93 1.617 4.598 3.617 9.06 5.625 13.511.556 1.23 2.201.464 2.298-.622.424-4.748 1.145-9.462 1.417-14.225.207-3.641.588-8.963-1.852-12.002"/></g></g></g></svg>