<svg xmlns="http://www.w3.org/2000/svg" width="15" height="18" viewBox="0 0 15 18"><g><g><g><path fill="#f77d0e" d="M9.36 6.114l.242 1.484a.562.562 0 0 1-.827.582L7.54 7.498l-1.234.682a.562.562 0 0 1-.828-.582l.242-1.484L4.7 5.068a.562.562 0 0 1 .318-.949l1.388-.212.626-1.333c.184-.395.833-.395 1.017 0l.626 1.333 1.388.212a.56.56 0 0 1 .317.949zM7.54 0a5.256 5.256 0 0 0-5.25 5.25 5.256 5.256 0 0 0 5.25 5.25 5.256 5.256 0 0 0 5.25-5.25A5.256 5.256 0 0 0 7.54 0z"/></g><g><path fill="#f77d0e" d="M3 9.74L.098 14.959a.57.57 0 0 0 .022.578.55.55 0 0 0 .518.255l2.31-.172 1.02 2.08a.578.578 0 0 0 .487.315h.015a.576.576 0 0 0 .495-.285l1.89-3.364-1.837-3.252A6.418 6.418 0 0 1 3 9.74z"/></g><g><path fill="#f77d0e" d="M14.962 14.952L12.037 9.77a6.322 6.322 0 0 1-3.6 1.792 5.911 5.911 0 0 1-.9.068c-.33 0-.652-.022-.967-.075l.938 1.658 2.542 4.507a.564.564 0 0 0 .487.285h.016a.58.58 0 0 0 .495-.315l1.027-2.078 2.355.18a.556.556 0 0 0 .518-.262.552.552 0 0 0 .015-.578z"/></g></g></g></svg>