<svg xmlns="http://www.w3.org/2000/svg" width="20" height="16" viewBox="0 0 20 16"><g><g><g><path fill="#315293" d="M17.852 14.063H7.656v-2.52l.315.413c.179.235.503.3.758.154l1.836-1.055a.586.586 0 0 0 .176-.86L9.571 8.64a1.562 1.562 0 0 0 2.187-1.432v-.178h7.07v6.055a.978.978 0 0 1-.976.977zm-16.68-.977V7.03h1.21v.178A1.562 1.562 0 0 0 4.57 8.64L3.4 10.194a.586.586 0 0 0 .175.86l1.836 1.056c.256.146.58.08.758-.154l.315-.414v2.52H2.148a.978.978 0 0 1-.976-.976zM6.484 1.172v3.004c-.373.096-.71.283-.988.534l-.852-.426a1.562 1.562 0 0 0-2.261 1.398v.177H1.172V2.15c0-.539.438-.977.976-.977zm3.537 4.16a.39.39 0 0 1 .565.35v1.527a.39.39 0 0 1-.565.35l-.73-.365a2.334 2.334 0 0 0 0-1.497zM7.656 8.716c.137-.036.27-.084.396-.143l1.354 1.804-.814.47-.936-1.235zM6.09 8.573c.126.059.258.107.395.143v.896l-.935 1.235-.814-.47zM4.12 7.558a.39.39 0 0 1-.565-.349V5.682c0-.29.305-.48.565-.35l.73.365a2.334 2.334 0 0 0 0 1.496zm2.95-2.285c.646 0 1.172.528 1.172 1.177 0 .65-.526 1.177-1.172 1.177A1.176 1.176 0 0 1 5.898 6.45c0-.649.526-1.177 1.172-1.177zm11.758.586h-7.07v-.177a1.562 1.562 0 0 0-2.261-1.398l-.853.426a2.342 2.342 0 0 0-.988-.534V1.172h10.196c.538 0 .976.438.976.976zM17.852 0H2.148A2.15 2.15 0 0 0 0 2.148v10.938a2.15 2.15 0 0 0 2.148 2.148h15.704A2.15 2.15 0 0 0 20 13.086V2.148A2.15 2.15 0 0 0 17.852 0z"/></g><g><path fill="#315293" d="M17.032 9.38h-3.516a.586.586 0 0 0 0 1.172h3.516a.586.586 0 0 0 0-1.172z"/></g><g><path fill="#315293" d="M17.032 11.72h-3.516a.586.586 0 0 0 0 1.172h3.516a.586.586 0 0 0 0-1.172z"/></g></g></g></svg>