<svg xmlns="http://www.w3.org/2000/svg" width="26" height="24" viewBox="0 0 26 24"><g><g><g><path fill="#fff" d="M24 11.194H13.6V7.985H24zm-1.6 11.195h-8.8v-9.606h8.8zM16.272 2.094c.65-.652 1.776-.65 2.424 0a1.75 1.75 0 0 1 0 2.456c-.69.695-2.8 1.846-3.906 1.846-.228 0-.296-.051-.297-.053-.371-.386.7-3.162 1.779-4.249zM12 11.194H1.6V7.985H12zm0 11.195H3.2v-9.606H12zM6.904 2.094a1.698 1.698 0 0 1 1.213-.506c.456 0 .886.18 1.211.506 1.078 1.087 2.15 3.863 1.778 4.249 0 0-.068.053-.296.053-1.106 0-3.216-1.15-3.906-1.846a1.75 1.75 0 0 1 0-2.456zM24 6.39h-5.062c.363-.248.675-.495.892-.716a3.347 3.347 0 0 0 0-4.707c-1.252-1.26-3.438-1.262-4.692 0-.693.696-2.535 3.53-2.28 5.423h-.116c.253-1.893-1.587-4.727-2.28-5.423-1.254-1.262-3.44-1.26-4.692 0a3.349 3.349 0 0 0-.002 4.707c.22.221.531.468.894.716H1.6c-.882 0-1.6.718-1.6 1.6v4a.8.8 0 0 0 .8.8h.8v9.6c0 .881.718 1.6 1.6 1.6h19.2c.882 0 1.6-.719 1.6-1.6v-9.6h.8a.8.8 0 0 0 .8-.8v-4c0-.882-.718-1.6-1.6-1.6z"/></g></g></g></svg>