<svg xmlns="http://www.w3.org/2000/svg" width="18" height="17" viewBox="0 0 18 17"><g><g><g/><g><path fill="#315293" d="M15.671 10.67H2.336V6.503c0-.458.375-.833.833-.833h3.4L5.337 7.353A.829.829 0 0 0 5.52 8.52a.835.835 0 0 0 1.159-.183L9.003 5.17l2.326 3.167a.835.835 0 0 0 1.158.183.829.829 0 0 0 .184-1.167L11.437 5.67h3.4c.459 0 .834.375.834.833zm0 4.167H2.336V13.17H15.67zm-9.166-12.5c.46 0 .838.372.838.828a.836.836 0 0 1-.838.828.836.836 0 0 1-.838-.828c0-.456.377-.828.838-.828zm4.997 0c.46 0 .838.372.838.828a.836.836 0 0 1-.838.828.836.836 0 0 1-.838-.828c0-.456.377-.828.838-.828zm4.168 1.666h-1.817c.092-.258.15-.541.15-.833A2.497 2.497 0 0 0 9.42 1.795l-.417.558-.416-.566A2.51 2.51 0 0 0 6.503.67a2.497 2.497 0 0 0-2.5 2.5c0 .292.059.575.15.833H2.337c-.925 0-1.659.742-1.659 1.667L.67 14.837a1.66 1.66 0 0 0 1.667 1.666H15.67a1.66 1.66 0 0 0 1.667-1.666V5.67a1.66 1.66 0 0 0-1.667-1.667z"/></g></g></g></svg>