<svg xmlns="http://www.w3.org/2000/svg" width="22" height="21" viewBox="0 0 22 21"><defs><clipPath id="xab9a"><path fill="#fff" d="M11.8 10.2V.8h9.4v9.4zM14 5.5C14 6.883 15.117 8 16.5 8S19 6.883 19 5.5 17.883 3 16.5 3A2.497 2.497 0 0 0 14 5.5z"/></clipPath></defs><g><g><g><path fill="#315293" d="M4.207 12.368c.22-.712.844-1.172 1.668-1.172.823 0 1.448.46 1.667 1.172zm1.087-2.93a.59.59 0 0 1 .59-.586.59.59 0 0 1 .592.586.59.59 0 0 1-.591.586.59.59 0 0 1-.591-.586zm2.058.958A1.76 1.76 0 0 0 5.88 7.68a1.76 1.76 0 0 0-1.473 2.716c-.884.493-1.457 1.432-1.457 2.557 0 .324.262.586.586.586h4.687a.586.586 0 0 0 .586-.586c0-1.125-.572-2.064-1.457-2.557z"/></g><g><path fill="#315293" d="M16.484 19.828a2.346 2.346 0 0 1-2.343-2.344 2.346 2.346 0 0 1 2.343-2.343 2.346 2.346 0 0 1 2.344 2.343 2.346 2.346 0 0 1-2.344 2.344zm-10.6-4.111a4.717 4.717 0 0 1-4.712-4.712 4.717 4.717 0 0 1 4.712-4.712 4.717 4.717 0 0 1 4.712 4.712 4.717 4.717 0 0 1-4.712 4.712zm10.6-13.545a2.346 2.346 0 0 1 2.344 2.344 2.346 2.346 0 0 1-2.344 2.343 2.346 2.346 0 0 1-2.343-2.343 2.346 2.346 0 0 1 2.343-2.344zM13.772 15.25l-2.668-1.558a5.868 5.868 0 0 0 .005-5.374l2.684-1.544a3.51 3.51 0 0 0 2.691 1.257A3.52 3.52 0 0 0 20 4.516 3.52 3.52 0 0 0 16.484 1c-2.454 0-4.162 2.468-3.286 4.765l-2.727 1.568a5.87 5.87 0 0 0-4.592-2.212A5.886 5.886 0 0 0 0 11a5.886 5.886 0 0 0 5.879 5.879 5.87 5.87 0 0 0 4.585-2.204l2.723 1.59c-.85 2.292.858 4.735 3.297 4.735A3.52 3.52 0 0 0 20 17.484a3.52 3.52 0 0 0-3.516-3.515c-1.09 0-2.066.499-2.712 1.28z"/></g><g><path fill="#f77d0e" d="M14 5.5C14 6.883 15.117 8 16.5 8S19 6.883 19 5.5 17.883 3 16.5 3A2.497 2.497 0 0 0 14 5.5z"/><path fill="none" stroke="#fff" stroke-miterlimit="20" stroke-width="4.4" d="M14 5.5C14 6.883 15.117 8 16.5 8S19 6.883 19 5.5 17.883 3 16.5 3A2.497 2.497 0 0 0 14 5.5z" clip-path="url(&quot;#xab9a&quot;)"/></g></g></g></svg>