<svg xmlns="http://www.w3.org/2000/svg" width="20" height="20" viewBox="0 0 20 20"><g><g><g><path fill="#ffc10e" d="M9.999 19.997c5.522 0 9.998-4.476 9.998-9.998C19.997 4.477 15.521 0 10 0 4.477 0 0 4.477 0 9.999s4.477 9.998 9.999 9.998z"/></g><g><path fill="#fff" d="M16.558 10.01a6.564 6.564 0 0 1-13.128 0h13.128z"/></g><g><g><path fill="#333" d="M6.96 8.12a1.57 1.57 0 1 0 0-3.14 1.57 1.57 0 0 0 0 3.14z"/></g><g><path fill="#333" d="M12.9 8.12a1.57 1.57 0 1 0 0-3.14 1.57 1.57 0 0 0 0 3.14z"/></g></g></g></g></svg>