<svg xmlns="http://www.w3.org/2000/svg" width="32" height="32" viewBox="0 0 32 32"><g><g><g><path fill="#ffc10e" d="M15.998 31.995c8.835 0 15.997-7.162 15.997-15.997C31.995 7.162 24.833 0 15.998 0 7.162 0 0 7.162 0 15.998c0 8.835 7.162 15.997 15.998 15.997z"/></g><g><path fill="#fff" d="M26.494 16.01c0 5.8-4.702 10.502-10.502 10.502-5.8 0-10.502-4.702-10.502-10.502h21.004z"/></g><g><g><path fill="#333" d="M11.132 12.995a2.512 2.512 0 1 0 0-5.025 2.512 2.512 0 0 0 0 5.025z"/></g><g><path fill="#333" d="M20.632 12.995a2.512 2.512 0 1 0 0-5.025 2.512 2.512 0 0 0 0 5.025z"/></g></g></g></g></svg>