<svg xmlns="http://www.w3.org/2000/svg" width="32" height="32" viewBox="0 0 32 32"><g><g><g><path fill="#ff6243" d="M16 32c8.837 0 16-7.163 16-16S24.837 0 16 0 0 7.163 0 16s7.163 16 16 16z"/></g><g><g><path fill="#fff" d="M20.655 8A5.34 5.34 0 0 0 16 10.724 5.34 5.34 0 0 0 11.345 8C8.393 8 6 10.738 6 13.69c0 7.413 10 12.586 10 12.586s10-5.173 10-12.586C26 10.738 23.607 8 20.655 8z"/></g><g opacity=".5"><path fill="#ff5023" d="M7.38 13.69c0-2.731 2.049-5.274 4.693-5.64a5.32 5.32 0 0 0-.728-.05C8.393 8 6 10.738 6 13.69c0 7.413 10 12.586 10 12.586s.259-.134.69-.388c-2.26-1.328-9.31-5.972-9.31-12.198z"/></g></g></g></g></svg>