<svg xmlns="http://www.w3.org/2000/svg" width="20" height="20" viewBox="0 0 20 20"><g><g><g><path fill="#ff6243" d="M10 20c5.523 0 10-4.477 10-10S15.523 0 10 0 0 4.477 0 10s4.477 10 10 10z"/></g><g><g><path fill="#fff" d="M12.91 5A3.338 3.338 0 0 0 10 6.703 3.338 3.338 0 0 0 7.09 5C5.247 5 3.75 6.711 3.75 8.556c0 4.634 6.25 7.866 6.25 7.866s6.25-3.232 6.25-7.866C16.25 6.711 14.754 5 12.91 5z"/></g><g opacity=".5"><path fill="#ff5023" d="M4.612 8.556c0-1.707 1.281-3.296 2.934-3.525A3.326 3.326 0 0 0 7.09 5C5.246 5 3.75 6.711 3.75 8.556c0 4.634 6.25 7.866 6.25 7.866s.162-.083.431-.242c-1.412-.83-5.819-3.733-5.819-7.624z"/></g></g></g></g></svg>