<svg xmlns="http://www.w3.org/2000/svg" width="26" height="25" viewBox="0 0 26 25"><defs><clipPath id="x8qma"><path fill="#fff" d="M14.5 10.5v-8h8v8zm1.5-4C16 7.883 17.117 9 18.5 9S21 7.883 21 6.5 19.883 4 18.5 4A2.497 2.497 0 0 0 16 6.5z"/></clipPath></defs><g><g><g><g><path fill="none" stroke="#335491" stroke-miterlimit="20" stroke-width="2" d="M1 14v0L13 2v0l12 12v0"/></g><g><path fill="none" stroke="#335491" stroke-miterlimit="20" stroke-width="2" d="M3.77 11.23v12h6.462v0V14v0h5.538v9.23h6.462v0-12 0"/></g></g></g><g><path fill="#f77d0e" d="M16 6.5C16 7.883 17.117 9 18.5 9S21 7.883 21 6.5 19.883 4 18.5 4A2.497 2.497 0 0 0 16 6.5z"/><path fill="none" stroke="#fff" stroke-miterlimit="20" stroke-width="3" d="M16 6.5C16 7.883 17.117 9 18.5 9S21 7.883 21 6.5 19.883 4 18.5 4A2.497 2.497 0 0 0 16 6.5z" clip-path="url(&quot;#x8qma&quot;)"/></g></g></svg>