<svg xmlns="http://www.w3.org/2000/svg" width="88" height="87" viewBox="0 0 88 87"><g><g><g><path fill="#f8f9fb" d="M0 5a5 5 0 0 1 5-5h78a5 5 0 0 1 5 5v77.011a5 5 0 0 1-5 5H5a5 5 0 0 1-5-5z"/></g><g><g/><g><path fill="#d8e1f2" d="M43.998 32.333v14.25c-1.567-.9-3.5-1.25-5.55-.533-2.234.8-3.95 2.783-4.35 5.117-.767 4.566 3.1 8.466 7.65 7.75 3.266-.517 5.583-3.517 5.583-6.834V35.667h3.333c1.834 0 3.334-1.5 3.334-3.334 0-1.833-1.5-3.333-3.334-3.333h-3.333a3.343 3.343 0 0 0-3.333 3.333z"/></g></g></g></g></svg>