<svg xmlns="http://www.w3.org/2000/svg" width="32" height="32" viewBox="0 0 32 32"><g><g><g><path fill="#3f70ca" d="M16 32c8.837 0 16-7.163 16-16S24.837 0 16 0 0 7.163 0 16s7.163 16 16 16z"/></g><g><g><path fill="#ffc380" d="M19.557 14.29h-5.241a.606.606 0 0 1-.308-1.128c2.283-1.349 3.47-2.923 3.626-4.812.055-.655.638-1.179 1.301-1.17.676.01 1.31.282 1.784.763.475.482.737 1.12.737 1.797v.204c0 1.653-.49 2.707-1.393 4.074a.606.606 0 0 1-.506.272z"/></g><g><path fill="#ffcf99" d="M25.986 14.979a1.9 1.9 0 0 0-1.9-1.899h-9.765a.606.606 0 0 0-.308.084c-.686.406-1.378.74-1.934 1.008-.194.093-.377.181-.544.265a.606.606 0 0 0-.335.542v7.756c0 .23.13.44.335.542 2.448 1.224 4.484 1.372 6.857 1.372.368 0 .744-.003 1.13-.007.428-.004.87-.008 1.333-.008h1.916a1.9 1.9 0 0 0 1.635-2.864 1.9 1.9 0 0 0 .646-2.585 1.9 1.9 0 0 0 .413-2.9c.336-.354.52-.816.52-1.306z"/></g><g><path fill="#73c3ff" d="M9.812 21.446v3.191H8.6v-3.191a.606.606 0 0 1 1.212 0z"/></g><g><path fill="#73c3ff" d="M9.812 21.446v3.191H8.6v-3.191a.606.606 0 0 1 1.212 0z"/></g><g><path fill="#ff6243" d="M11.797 13.08H6.626a.606.606 0 0 0-.606.606v10.342c0 .335.271.606.606.613h3.878a1.92 1.92 0 0 0 1.699-1.059c.128-.255.2-.543.2-.847v-9.049a.606.606 0 0 0-.606-.606z"/></g><g><path fill="#d24a2f" d="M9.812 21.406v3.232H8.6v-3.232a.606.606 0 0 1 1.212 0z"/></g></g></g></g></svg>