<svg xmlns="http://www.w3.org/2000/svg" width="16" height="22" viewBox="0 0 16 22"><g><g><g><path fill="#335491" d="M8 16.995c-3.31 0-6-2.688-6-5.996 0-.79.15-1.559.44-2.248.15-.36.04-.77-.23-1.04-.51-.51-1.37-.33-1.64.34C.2 8.961 0 9.96 0 11a7.995 7.995 0 0 0 8 7.994v1.789c0 .45.54.67.85.35l2.79-2.788c.2-.2.2-.51 0-.71l-2.79-2.788a.5.5 0 0 0-.85.36zM8 3.002v-1.79c0-.45-.54-.67-.85-.35l-2.8 2.79c-.2.2-.2.51 0 .71l2.79 2.79c.32.31.86.09.86-.36v-1.79c3.31 0 6 2.69 6 6 0 .79-.15 1.56-.44 2.25-.15.36-.04.77.23 1.04.51.51 1.37.33 1.64-.34.37-.91.57-1.91.57-2.95 0-4.42-3.58-8-8-8z"/></g></g></g></svg>