<svg xmlns="http://www.w3.org/2000/svg" width="20" height="21" viewBox="0 0 20 21"><defs><clipPath id="77qga"><path fill="#fff" d="M9.8 10.2V.8h9.4v9.4zM12 5.5C12 6.883 13.117 8 14.5 8S17 6.883 17 5.5 15.883 3 14.5 3A2.497 2.497 0 0 0 12 5.5z"/></clipPath></defs><g><g><g><path fill="#335491" d="M18.79 19.067l-4.712-4.476 4.712-3.612zm-16.729.79l4.772-4.543 2.436 1.872c.421.324 1.009.324 1.43 0l2.436-1.872 4.772 4.543zm-.883-8.878l4.711 3.612-4.711 4.476zm2.886-3.121v3.861L1.555 9.79zm1.184-4.684h9.472v9.446l-4.736 3.63-4.736-3.63zm10.646 4.684l2.518 1.93-2.518 1.931zm4.07 1.921a.585.585 0 0 0-.166-.4c-.046-.046.19.138-3.904-3V3.173c0-.647-.527-1.174-1.174-1.174H5.248c-.647 0-1.174.527-1.174 1.174v3.204C-.05 9.54.146 9.353.058 9.541c-.078.17-.055-.595-.055 10.306 0 .648.527 1.174 1.175 1.174H18.79c.647 0 1.174-.526 1.174-1.174V9.78z"/></g><g><path fill="#335491" d="M11.867 6.624h.94a.587.587 0 0 0 0-1.174h-.94a.587.587 0 0 0 0 1.174z"/></g><g><path fill="#335491" d="M11.867 9.124h.94a.587.587 0 1 0 0-1.174h-.94a.587.587 0 1 0 0 1.174z"/></g><g><path fill="#335491" d="M11.867 11.634h.94a.587.587 0 0 0 0-1.174h-.94a.587.587 0 0 0 0 1.174z"/></g><g><path fill="#335491" d="M9.267 8.015c-.26-.112-.966-.307-1.322-.572-.039-.028-.055-.113-.04-.201.078-.43.748-.42 1.046-.202l.03-.033c.01-.012.128.157.396.157.557 0 .775-.722.317-1.032a1.902 1.902 0 0 0-.714-.344v-.07a.587.587 0 0 0-1.174 0v.104c-1.104.355-1.422 1.752-.68 2.463.162.155.403.289.603.387.78.383 1.121.343 1.286.592.194.303-.065.844-.625.844-.423.003-.557-.008-.903-.222a.587.587 0 0 0-.62.997c.27.169.47.254.656.309.337.098.283.005.283.142a.587.587 0 0 0 1.174 0v-.141c1.507-.487 1.77-2.524.287-3.178z"/></g><g><path fill="#f77d0e" d="M12 5.5C12 6.883 13.117 8 14.5 8S17 6.883 17 5.5 15.883 3 14.5 3A2.497 2.497 0 0 0 12 5.5z"/><path fill="none" stroke="#fff" stroke-miterlimit="20" stroke-width="4.4" d="M12 5.5C12 6.883 13.117 8 14.5 8S17 6.883 17 5.5 15.883 3 14.5 3A2.497 2.497 0 0 0 12 5.5z" clip-path="url(&quot;#77qga&quot;)"/></g></g></g></svg>