<svg xmlns="http://www.w3.org/2000/svg" width="32" height="32" viewBox="0 0 32 32"><defs><clipPath id="ttm1a"><path fill="#fff" d="M0 5a5 5 0 0 1 5-5h22a5 5 0 0 1 5 5v22a5 5 0 0 1-5 5H5a5 5 0 0 1-5-5z"/></clipPath></defs><g><g><path fill="none" stroke="#2d4e97" stroke-dasharray="4 4" stroke-miterlimit="20" stroke-width="2" d="M0 5a5 5 0 0 1 5-5h22a5 5 0 0 1 5 5v22a5 5 0 0 1-5 5H5a5 5 0 0 1-5-5z" clip-path="url(&quot;#ttm1a&quot;)"/></g><g><path fill="#335491" d="M22 17h-5v5c0 .55-.45 1-1 1s-1-.45-1-1v-5h-5c-.55 0-1-.45-1-1s.45-1 1-1h5v-5c0-.55.45-1 1-1s1 .45 1 1v5h5c.55 0 1 .45 1 1s-.45 1-1 1z"/></g></g></svg>