<svg xmlns="http://www.w3.org/2000/svg" width="6" height="20" viewBox="0 0 6 20"><g><g><path fill="#335491" d="M3.003 14.662A2.342 2.342 0 0 0 .67 17a2.342 2.342 0 0 0 2.333 2.337A2.342 2.342 0 0 0 5.337 17a2.342 2.342 0 0 0-2.334-2.338zm0-6.996A2.342 2.342 0 0 0 .67 10.003a2.342 2.342 0 0 0 2.333 2.337 2.342 2.342 0 0 0 2.334-2.337 2.342 2.342 0 0 0-2.334-2.337zm0-2.322a2.342 2.342 0 0 0 2.334-2.337A2.342 2.342 0 0 0 3.003.67 2.342 2.342 0 0 0 .67 3.007a2.342 2.342 0 0 0 2.333 2.337z"/></g></g></svg>