<svg xmlns="http://www.w3.org/2000/svg" width="17" height="17" viewBox="0 0 17 17"><defs><clipPath id="b95aa"><path fill="#fff" d="M8.5 8.5v-8h8v8zm1.5-4C10 5.883 11.117 7 12.5 7S15 5.883 15 4.5 13.883 2 12.5 2A2.497 2.497 0 0 0 10 4.5z"/></clipPath></defs><g><g><g/><g><path fill="#335491" d="M10.327 7.163c0-2.066-1.257-3.75-3.33-3.75-2.074 0-3.331 1.684-3.331 3.75v5h6.661zm3.336 5.834v.833H.33v-.833l1.667-1.667V7.163c0-2.566 1.366-4.7 3.75-5.266V1.33c0-.692.558-1.25 1.25-1.25.691 0 1.25.558 1.25 1.25v.567c2.391.566 3.75 2.708 3.75 5.266v4.167zm-8.33 1.666H8.66a1.67 1.67 0 0 1-1.663 1.667 1.67 1.67 0 0 1-1.663-1.667z"/></g><g><path fill="#f77d0e" d="M10 4.5C10 5.883 11.117 7 12.5 7S15 5.883 15 4.5 13.883 2 12.5 2A2.497 2.497 0 0 0 10 4.5z"/><path fill="none" stroke="#fff" stroke-miterlimit="20" stroke-width="3" d="M10 4.5C10 5.883 11.117 7 12.5 7S15 5.883 15 4.5 13.883 2 12.5 2A2.497 2.497 0 0 0 10 4.5z" clip-path="url(&quot;#b95aa&quot;)"/></g></g></g></svg>