<svg xmlns="http://www.w3.org/2000/svg" width="20" height="22" viewBox="0 0 20 22"><defs><clipPath id="c5h0a"><path fill="#fff" d="M8.5 8.5v-8h8v8zm1.5-4C10 5.883 11.117 7 12.5 7S15 5.883 15 4.5 13.883 2 12.5 2A2.497 2.497 0 0 0 10 4.5z"/></clipPath></defs><g><g><g><g/><g><path fill="#315293" d="M2 11V4h7v-.01l9 9-7 7.02zm17.41.58l-9-9C10.05 2.22 9.55 2 9 2H2C.9 2 0 2.9 0 4v7c0 .55.22 1.05.59 1.42l9 9c.36.36.86.58 1.41.58.55 0 1.05-.22 1.41-.59l7-7c.37-.36.59-.86.59-1.41 0-.55-.23-1.06-.59-1.42z"/></g><g><path fill="#315293" d="M4.5 8a1.5 1.5 0 1 0 0-3 1.5 1.5 0 0 0 0 3z"/></g></g><g><path fill="#f77d0e" d="M10 4.5C10 5.883 11.117 7 12.5 7S15 5.883 15 4.5 13.883 2 12.5 2A2.497 2.497 0 0 0 10 4.5z"/><path fill="none" stroke="#fff" stroke-miterlimit="20" stroke-width="3" d="M10 4.5C10 5.883 11.117 7 12.5 7S15 5.883 15 4.5 13.883 2 12.5 2A2.497 2.497 0 0 0 10 4.5z" clip-path="url(&quot;#c5h0a&quot;)"/></g></g></g></svg>