<svg xmlns="http://www.w3.org/2000/svg" width="21" height="24" viewBox="0 0 21 24"><g><g><g><path fill="#9aaac8" d="M1.986 21.404c-2.683-2.768-2.633-7.232.063-9.99l9.632-9.853a5.139 5.139 0 0 1 7.378 0c2.015 2.062 2.018 5.388 0 7.452l-8.396 8.58a3.426 3.426 0 0 1-4.958-.046c-1.299-1.376-1.257-3.558.066-4.911l6.6-6.743a.735.735 0 0 1 1.04-.01l1.05 1.027c.29.284.294.749.01 1.039l-6.6 6.742c-.226.231-.24.616-.03.84a.49.49 0 0 0 .721.007l8.396-8.58c.901-.921.901-2.42 0-3.343a2.202 2.202 0 0 0-3.176 0l-9.631 9.853C2.554 15.1 2.53 17.744 4.096 19.36a3.916 3.916 0 0 0 5.65.013l7.901-8.082a.735.735 0 0 1 1.04-.012l1.05 1.027c.29.284.295.75.011 1.04l-7.9 8.08a6.851 6.851 0 0 1-9.862-.022z"/></g></g></g></svg>