<svg xmlns="http://www.w3.org/2000/svg" width="103" height="140" viewBox="0 0 103 140"><g><g><g><path fill="#282826" d="M95.622 20.926c11.34 13.491 7.95 38.138-1.662 51.496-5.137 7.139-13.29 10.888-21.604 11.155.416 1.91 2.429 4.328.76 6.114-1.118 1.198-2.94 1.09-4.552.89-1.716 4.85-4.676 8.97-8.714 12.19-4.193 3.342-9.157 5.505-13.718 8.268-5.236 3.172-9.777 7.053-11.492 13.157-1.443 5.135-1.203 10.226-.598 15.458.022.184-.263.208-.313.042-3.06-10.055-1.31-20.528 7.26-27.174 4.467-3.464 9.733-5.648 14.487-8.658 5.29-3.35 9.373-7.658 11.734-13.454-1.628-.194-4.108-.63-4.655-2.46-.68-2.271 1.241-3.393 2.065-5.143-4.748-1.118-9.25-3.428-12.933-6.96a32.204 32.204 0 0 1-6.548-8.919 26.931 26.931 0 0 1-8.78 4.101c.761 1.76 3.119 3.904 1.846 5.856-.765 1.173-2.12 1.519-3.488 1.658 1.09 4.29 1.468 8.614.062 12.931-1.395 4.281-3.734 8.066-6.036 11.905-5.992 9.992-8.571 20.954-5.421 32.403.048.175-.22.298-.299.127-4.297-9.364-2.865-20.05 1.889-28.999 2.322-4.37 5.335-8.416 7.302-12.97 2.217-5.134 2.326-9.996 1.028-15.293-.118.006-.24.011-.355.018-1.61.096-4.498.263-5.39-1.52-1.078-2.151.532-3.462 1.073-5.296-7.38-.32-14.562-3.716-19.65-9.88-8.21-9.95-10.509-25.236-7.896-37.603C3.641 11.977 12.308 1.609 25.471.182c13.091-1.419 24.27 5.562 29.743 17.233C60.71 12.593 67.512 9.36 75.1 10.15c8.068.84 15.286 4.549 20.522 10.777zm4.852 26.45c-1.337-.048-2.763.737-3.136 2.094-.459 1.664.582 3.628 2.328 3.752.372-1.92.643-3.88.808-5.847zm-7.151-26.024c-.17-.181-.347-.357-.521-.535-1.329 1.235-1.528 3.35.08 4.593 1.041.804 2.357.5 3.313-.24a23.607 23.607 0 0 0-2.872-3.818zM13.06 7.558c4.112 4.222 10.822 4.873 16.456 4.584 4.652-.238 11.952-.606 14.842-4.94.016-.023.034-.04.05-.062-2.43-1.84-5.137-3.264-8.046-4.155-1.27 2.534-5.095 3.09-7.604 3.36-3.371.365-6.828-.145-9.388-2.435a25.593 25.593 0 0 0-6.31 3.648zm11.635-5.217c-1.046.195-2.046.46-3.026.757 2.064 1.307 4.644 1.533 7.09 1.206 1.615-.216 4.295-.502 5.5-1.863a24.418 24.418 0 0 0-9.564-.1zM5.52 17.142c6.425 4.882 14.742 6.172 22.632 5.146 7.538-.98 16.756-3.391 22.696-8.388a29.992 29.992 0 0 0-4.87-5.48c-3.414 4.842-11.047 5.6-16.463 5.764-6.241.188-13.51-.505-18.005-5.293-2.48 2.31-4.488 5.106-5.99 8.251zm-2.737 8.893c-.043.27-.074.548-.113.82 6.251 4.432 13.571 6.565 21.258 6.538 6.859-.023 15.69-.32 21.943-3.47.003 0 .006 0 .01-.002 1.37-2.873 3.021-5.582 4.936-8.034a44.16 44.16 0 0 1 2.839-3.033 31.999 31.999 0 0 0-1.702-3.239c-6.245 5.073-15.978 7.943-23.802 8.71-8.383.82-16.577-.333-23.457-5.286a32.998 32.998 0 0 0-1.912 6.996zm47.955-.59a41.076 41.076 0 0 0-2.951 5.193zm-8.165 34.58a39.29 39.29 0 0 1-1.062-6.148c-9.8 4.345-26.511 5.328-35.957-1.489 1.109 2.622 2.505 5.1 4.216 7.354 9.024 6.224 23.295 4.885 32.803.282zm-.937-15.37c-6.811 3.543-15.938 3.16-23.21 1.948-5.523-.92-11.523-2.182-15.901-5.84a45.935 45.935 0 0 0 1.575 7.58c8.052 9.1 27.257 8.192 37.177 3.415.03-.013.057-.01.087-.021-.1-2.354-.005-4.725.272-7.083zm2.002 10.589c1.596-.012 3.322-1.225 3.232-2.99-.107-2.092-1.575-3.267-3.567-2.651-.034 1.9.053 3.791.279 5.653.02-.002.035-.012.056-.012zm1.047-22.581c-6.245 2.399-14.446 2.947-20.757 2.782-7.797-.204-15.08-1.95-21.534-6.275a53.429 53.429 0 0 0-.156 8.516c.027.025.057.032.083.061C6.442 42.3 13.103 43.79 18.97 44.63c7.231 1.037 16.174 1.616 22.691-2.321a.995.995 0 0 1 .329-.117 47.392 47.392 0 0 1 2.696-9.53zm-8.431 42.254c-.057-.104-.123-.203-.183-.306-2.266.445-4.552.664-6.814.224a1.864 1.864 0 0 0-.13.755c.107 1.459 2.771 1.108 3.754 1.034.959-.072 4.353.081 3.373-1.707zm-1.898-3.455c-1.231.22-2.47.35-3.709.395a4.255 4.255 0 0 1-.385 1.137c-.14.27-.335.569-.524.882 1.923.326 3.85.165 5.776-.192-.452-.708-.882-1.426-1.158-2.222zm9.93-6.418a35.205 35.205 0 0 1-1.133-3.046c-8.392 3.925-19.962 5.505-29.1 2.2 8.562 7.011 20.714 7.665 30.233.846zm22.352 18.162c-.2.517-.45.988-.807 1.454-.158.207-.377.442-.595.694 1.767 1.03 3.935 1.215 5.973.948-.362-.895-.727-1.773-.887-2.734a29.708 29.708 0 0 1-3.684-.362zm4.941 4.09c-2.355.347-4.91.146-6.938-1.105-.14.266-.232.54-.208.817.112 1.316 2.91 1.398 3.823 1.484 1.037.097 3.966.753 3.323-1.196zm4.87-6.287c1.846-.34 3.651-.878 5.386-1.604zm18.514-13.874c1.801-3.49 3.289-7.609 4.293-11.984-2.633-.453-4.775-2.999-3.983-5.874.652-2.363 2.933-4.117 5.337-3.973.281-6.483-.694-12.945-3.424-18.344-1.898 1.268-4.628 1.436-6.178-.533-1.811-2.299-1.66-5.14.317-7.031-4.758-4.269-10.99-7.225-17.435-7.274-8.978-.067-15.964 4.537-21.63 11.213-.112.145-.22.298-.33.445 2.25 1.61 2.761 5.083.96 7.261-1.505 1.822-3.909 2.402-5.921 1.427a46.934 46.934 0 0 0-3.572 15.017c2.765-.499 5.349 1.349 5.503 4.365.152 2.954-2.126 5.282-5.015 5.428 1.236 6.968 4.458 13.375 10.165 17.94 6.07 4.855 13.423 6.83 20.393 6.085-.54-2.415.615-4.85 3.09-5.857 2.859-1.163 5.308.5 6.144 3.1 4.61-2.38 8.596-6.198 11.286-11.41z"/></g><g><path fill="#282826" d="M63.243 39.087c2.346-1.15 5.284-.585 6.38 2.013 1.035 2.449.426 5.39-2.082 6.704-2.449 1.284-5.103.534-6.469-1.885-1.198-2.496-.433-5.554 2.171-6.832zm4.468 2.746c-1.844-3.148-6.345 0-4.876 3.062z"/></g><g><path fill="#282826" d="M68.513 16.637c2.346-1.15 5.284-.585 6.38 2.013 1.036 2.449.425 5.39-2.082 6.704-2.449 1.284-5.103.534-6.469-1.885-1.198-2.496-.433-5.554 2.171-6.832zm4.466 2.745c-1.842-3.15-6.34 0-4.872 3.064z"/></g><g><path fill="#282826" d="M79.833 52.017c2.346-1.15 5.284-.585 6.38 2.013 1.036 2.449.426 5.39-2.081 6.704-2.45 1.284-5.104.534-6.47-1.885-1.198-2.496-.433-5.554 2.171-6.832zm4.468 2.746c-1.844-3.148-6.345 0-4.876 3.062z"/></g><g><path fill="#282826" d="M61.213 60.07c2.45-1.284 5.103-.534 6.469 1.884 1.199 2.497.434 5.555-2.171 6.832-2.346 1.15-5.284.586-6.38-2.012-1.035-2.449-.425-5.39 2.082-6.704zm4.706 2.918c-1.94-3.441-6.758-.152-4.876 3.064z"/></g><g><path fill="#282826" d="M81.623 31.49c2.45-1.284 5.103-.534 6.469 1.884 1.199 2.497.434 5.554-2.171 6.832-2.346 1.15-5.284.586-6.38-2.012-1.035-2.45-.425-5.39 2.082-6.704zm4.705 2.918c-1.94-3.441-6.753-.152-4.873 3.064z"/></g></g></g></svg>