<svg xmlns="http://www.w3.org/2000/svg" width="20" height="18" viewBox="0 0 20 18"><g><g><g><path fill="#828282" d="M14.402 15.64a1.9 1.9 0 0 1-2.221.507 7.217 7.217 0 0 0-2.905-.608c-.99 0-1.981.202-2.904.608l-.026.011a1.9 1.9 0 0 1-2.196-.518 1.9 1.9 0 0 1-.155-2.272l2.168-3.383a3.682 3.682 0 0 1 3.113-1.703c1.266 0 2.43.637 3.113 1.703l2.169 3.383a1.9 1.9 0 0 1-.156 2.272zm-1.026-6.288a4.85 4.85 0 0 0-4.1-2.242 4.85 4.85 0 0 0-4.1 2.242l-2.168 3.383a3.062 3.062 0 0 0-.48 1.875c.045.665.298 1.285.731 1.792a3.062 3.062 0 0 0 1.657 1.002c.65.148 1.317.085 1.927-.183l.04-.018a6.06 6.06 0 0 1 4.826.018 3.066 3.066 0 0 0 1.927.183 3.062 3.062 0 0 0 1.657-1.002 3.062 3.062 0 0 0 .732-1.792 3.062 3.062 0 0 0-.48-1.875z"/></g><g><path fill="#828282" d="M1.308 7.161c-.333-.867-.04-1.789.652-2.055.125-.048.258-.072.393-.072.208 0 .423.057.63.17.373.202.67.554.839.99.167.435.182.895.042 1.295-.13.367-.376.636-.695.759-.692.267-1.527-.221-1.861-1.087zM3.59 9.342c.645-.248 1.135-.768 1.38-1.464a3.055 3.055 0 0 0-.054-2.106 3.057 3.057 0 0 0-1.372-1.599c-.649-.352-1.36-.41-2.005-.161-1.296.498-1.89 2.1-1.325 3.57.451 1.17 1.504 1.91 2.568 1.91.272 0 .544-.048.808-.15z"/></g><g><path fill="#828282" d="M7.797 1.172c.974 0 1.766.976 1.766 2.176 0 1.199-.792 2.174-1.766 2.174-.973 0-1.765-.975-1.765-2.174 0-1.2.792-2.176 1.765-2.176zm0 5.523c1.62 0 2.938-1.502 2.938-3.347C10.735 1.502 9.417 0 7.797 0S4.86 1.502 4.86 3.348c0 1.845 1.318 3.347 2.937 3.347z"/></g><g><path fill="#828282" d="M12.39 4.127c.164-.498.48-.909.887-1.156.377-.23.788-.287 1.158-.164.37.123.664.417.83.826.178.443.186.961.02 1.46-.329.993-1.247 1.585-2.046 1.319-.798-.266-1.18-1.291-.85-2.285zm.48 3.388c.249.082.503.122.756.122 1.182 0 2.333-.86 2.772-2.181a3.282 3.282 0 0 0-.047-2.265c-.296-.732-.845-1.264-1.546-1.497-.701-.233-1.46-.136-2.135.273a3.283 3.283 0 0 0-1.393 1.786c-.534 1.605.181 3.292 1.593 3.762z"/></g><g><path fill="#828282" d="M16.36 10.773c-.596-.441-.633-1.408-.081-2.154.367-.495.902-.77 1.396-.77.25 0 .488.07.69.218.595.442.631 1.408.08 2.154-.553.747-1.488.994-2.085.552zm2.701-3.648c-1.117-.826-2.788-.468-3.725.797-.935 1.266-.79 2.968.326 3.793.407.302.888.446 1.38.446.857 0 1.75-.438 2.345-1.243.936-1.265.79-2.967-.326-3.793z"/></g></g></g></svg>