<svg xmlns="http://www.w3.org/2000/svg" width="18" height="17" viewBox="0 0 18 17"><g><g><path fill="#335491" d="M15.627 13.699a12.032 12.032 0 0 1-2.458-.426l-1.134 1.136a14.06 14.06 0 0 0 3.592.72zM2.394 1.895c.085 1.254.33 2.45.707 3.6l1.132-1.15a13.188 13.188 0 0 1-.425-2.45zm15.129 10.894v3.316a.95.95 0 0 1-.948.948C7.68 17.053.47 9.843.47.947A.95.95 0 0 1 1.417 0h3.316a.95.95 0 0 1 .948.947c0 1.185.189 2.321.54 3.382a.91.91 0 0 1-.237.948L3.899 7.37a14.253 14.253 0 0 0 6.244 6.243l2.084-2.085a.97.97 0 0 1 .672-.274c.095 0 .2.019.294.047 1.061.35 2.198.54 3.382.54a.95.95 0 0 1 .948.947zM9 1.895V0c4.7 0 8.512 3.818 8.512 8.526H15.62a6.62 6.62 0 0 0-6.62-6.631zm0 3.79V3.788c2.606 0 4.72 2.123 4.72 4.737h-1.888a2.833 2.833 0 0 0-2.832-2.842z"/></g></g></svg>