<?xml version="1.0" encoding="UTF-8"?>
<svg width="39px" height="39px" viewBox="0 0 39 39" version="1.1" xmlns="http://www.w3.org/2000/svg" xmlns:xlink="http://www.w3.org/1999/xlink">
    <title>play_circle_outline-24px</title>
    <g id="Page-1" stroke="none" stroke-width="1" fill="none" fill-rule="evenodd">
        <g id="shopping-on-splitchek" transform="translate(-161.000000, -576.000000)" fill="#F97D00" fill-rule="nonzero">
            <g id="banner" transform="translate(-1.000000, 0.000000)">
                <g id="video" transform="translate(17.000000, 501.000000)">
                    <g id="play_circle_outline-24px" transform="translate(145.257143, 75.200000)">
                        <path d="M16.4937143,26.132 L25.2466286,19.552 C25.7526857,19.176 25.7526857,18.424 25.2466286,18.048 L16.4937143,11.468 C15.8752,10.998 14.9942857,11.4492 14.9942857,12.22 L14.9942857,25.38 C14.9942857,26.1508 15.8752,26.602 16.4937143,26.132 Z M18.7428571,0 C8.3968,0 0,8.4224 0,18.8 C0,29.1776 8.3968,37.6 18.7428571,37.6 C29.0889143,37.6 37.4857143,29.1776 37.4857143,18.8 C37.4857143,8.4224 29.0889143,0 18.7428571,0 Z M18.7428571,33.84 C10.4772571,33.84 3.74857143,27.0908 3.74857143,18.8 C3.74857143,10.5092 10.4772571,3.76 18.7428571,3.76 C27.0084571,3.76 33.7371429,10.5092 33.7371429,18.8 C33.7371429,27.0908 27.0084571,33.84 18.7428571,33.84 Z" id="Shape"></path>
                    </g>
                </g>
            </g>
        </g>
    </g>
</svg>