<svg xmlns="http://www.w3.org/2000/svg" width="18" height="18" viewBox="0 0 18 18"><g><g><g><path fill="#828282" d="M10.896 10.277c.335-.335.512-.78.498-1.255a1.77 1.77 0 0 0-.323-.967l.298-.307a.7.7 0 1 0-1.01-.976l-.301.31a1.964 1.964 0 0 0-1.005-.288H9.03c-.518 0-1.006.203-1.377.572l-.11.111c-.781.78-.79 2.04-.02 2.809l.456.454a.582.582 0 0 1 .175.406.543.543 0 0 1-.162.393l-.052.051c-.216.216-.553.204-.785-.027l-.74-.739a.365.365 0 0 1-.113-.249.292.292 0 0 1 .091-.22.7.7 0 1 0-.993-.991 1.69 1.69 0 0 0-.502 1.241c.009.429.176.836.472 1.157l-.263.254a.7.7 0 0 0 .488 1.206.7.7 0 0 0 .487-.197l.295-.283c.357.272.778.409 1.196.409.492 0 .981-.19 1.36-.569l.053-.051c.375-.375.579-.872.573-1.4a1.976 1.976 0 0 0-.587-1.383l-.455-.454c-.218-.219-.21-.597.019-.825l.11-.11a.53.53 0 0 1 .39-.162c.15.001.293.063.405.175l.43.43a.387.387 0 0 1 .118.261.293.293 0 0 1-.087.222.703.703 0 0 0 .993.992zm5.676-8.57c0 .784-.283 1.42-.862 1.924l-.065-.64a.702.702 0 0 0-.627-.627l-.813-.082c.718-.686 1.904-.853 2.116-.878.14.013.25.131.25.275zM16.238.003c-.115.01-2.68.245-3.644 2.116l-3.481-.354a2.794 2.794 0 0 0-2.269.808L.84 8.558a2.81 2.81 0 0 0 0 3.966l4.607 4.61c.553.554 1.279.83 2.002.83a2.77 2.77 0 0 0 1.966-.809.701.701 0 0 0-.992-.992c-.542.54-1.432.532-1.984-.02l-4.606-4.611A1.404 1.404 0 0 1 1.83 9.55l6.006-5.987c.3-.3.713-.447 1.135-.404l5.337.542.07.682a7.41 7.41 0 0 1-1.92.422.702.702 0 0 0 .075 1.4 8.7 8.7 0 0 0 1.99-.388l.327 3.206c.043.42-.104.834-.403 1.133l-3.422 3.372a.702.702 0 0 0 .985 1l3.424-3.375.003-.003c.6-.599.894-1.426.808-2.269l-.372-3.656c.472-.276.87-.601 1.188-.972.607-.709.914-1.566.914-2.547V1.68A1.681 1.681 0 0 0 16.237.002z"/></g></g></g></svg>