<svg xmlns="http://www.w3.org/2000/svg" width="21" height="21" viewBox="0 0 21 21"><g><g><g/><g><path fill="#335491" d="M8.084 13.334a5.243 5.243 0 0 1-5.25-5.25 5.243 5.243 0 0 1 5.25-5.25 5.243 5.243 0 0 1 5.25 5.25 5.243 5.243 0 0 1-5.25 5.25zm7 0h-.922l-.326-.315a7.584 7.584 0 0 0 1.726-6.23C15.014 3.546 12.307.956 9.041.56A7.589 7.589 0 0 0 .559 9.041c.397 3.266 2.987 5.973 6.23 6.521a7.584 7.584 0 0 0 6.23-1.726l.315.326v.922l4.958 4.958c.479.479 1.26.479 1.739 0a1.232 1.232 0 0 0 0-1.738z"/></g></g></g></svg>