<svg xmlns="http://www.w3.org/2000/svg" width="20" height="20" viewBox="0 0 20 20"><g><g><g><path fill="#f97d00" d="M6.473 15.983a.589.589 0 0 0-.712.09l-.613.613a.67.67 0 0 1-.947 0l-.887-.888a.669.669 0 0 1 0-.946l.613-.613a.586.586 0 0 0 .09-.712 6.907 6.907 0 0 1-.743-1.79.586.586 0 0 0-.568-.44h-.865a.67.67 0 0 1-.67-.67V9.373c0-.369.301-.669.67-.669h.865c.268 0 .5-.18.568-.44.162-.628.412-1.23.743-1.79a.586.586 0 0 0-.09-.712l-.613-.613a.67.67 0 0 1 0-.947l.888-.887a.669.669 0 0 1 .946 0l.613.613c.189.189.482.226.712.09a6.907 6.907 0 0 1 1.79-.743c.26-.067.44-.3.44-.568v-.865c0-.369.3-.67.67-.67h1.255c.369 0 .669.301.669.67v.865c0 .268.18.501.44.568.628.162 1.23.412 1.79.743.23.136.523.099.712-.09l.613-.613a.67.67 0 0 1 .947 0l.887.888a.67.67 0 0 1 0 .946l-.613.613a.586.586 0 0 0-.09.712c.331.56.581 1.162.743 1.79.067.26.3.44.568.44h.865c.369 0 .67.3.67.67v1.255c0 .369-.301.669-.67.669h-.865c-.267 0-.5.18-.568.44a6.906 6.906 0 0 1-.743 1.79c-.136.23-.099.523.09.712l.613.613a.67.67 0 0 1 0 .947l-.888.887a.669.669 0 0 1-.946 0l-.613-.613a.586.586 0 0 0-.712-.09 6.907 6.907 0 0 1-1.79.743.586.586 0 0 0-.44.568v.865c0 .369-.3.67-.67.67H9.373a.67.67 0 0 1-.669-.67v-.865c0-.268-.18-.5-.44-.568a6.907 6.907 0 0 1-1.79-.743zm5.996 2.176v-.425c.431-.138.85-.312 1.254-.52l.3.3c.728.729 1.895.711 2.604 0l.887-.886c.71-.709.73-1.876 0-2.605l-.3-.3c.208-.403.382-.823.52-1.254h.425A1.843 1.843 0 0 0 20 10.628V9.372a1.843 1.843 0 0 0-1.841-1.84h-.425a8.074 8.074 0 0 0-.52-1.255l.3-.3c.73-.729.71-1.896 0-2.604l-.886-.887a1.841 1.841 0 0 0-2.605 0l-.3.3a8.074 8.074 0 0 0-1.254-.52V1.84A1.843 1.843 0 0 0 10.628 0H9.372a1.843 1.843 0 0 0-1.84 1.841v.425c-.432.138-.852.312-1.255.52l-.3-.3a1.841 1.841 0 0 0-2.604 0l-.887.886a1.841 1.841 0 0 0 0 2.605l.3.3a8.076 8.076 0 0 0-.52 1.254H1.84A1.843 1.843 0 0 0 0 9.372v1.256c0 1.015.826 1.84 1.841 1.84h.425c.138.432.312.852.52 1.255l-.3.3a1.841 1.841 0 0 0 0 2.604l.886.887c.708.71 1.876.73 2.604 0l.301-.3c.403.208.823.382 1.254.52v.425c0 1.015.826 1.841 1.841 1.841h1.256a1.843 1.843 0 0 0 1.84-1.841z"/></g><g><path fill="#f97d00" d="M10.002 6.822a3.183 3.183 0 0 1 3.18 3.18 3.183 3.183 0 0 1-3.18 3.18 3.183 3.183 0 0 1-3.18-3.18 3.183 3.183 0 0 1 3.18-3.18zm4.351 3.18c0-2.4-1.952-4.352-4.351-4.352a4.356 4.356 0 0 0-4.352 4.352c0 2.399 1.952 4.351 4.352 4.351 2.4 0 4.351-1.952 4.351-4.351z"/></g></g></g></svg>