<svg xmlns="http://www.w3.org/2000/svg" width="18" height="18" viewBox="0 0 18 18"><defs><clipPath id="43hba"><path fill="#fff" d="M9.5 8.5v-8h8v8zm1.5-4C11 5.883 12.117 7 13.5 7S16 5.883 16 4.5 14.883 2 13.5 2A2.497 2.497 0 0 0 11 4.5z"/></clipPath></defs><g><g><g><g/><g><path fill="#315293" d="M10.5 6.667V3.333c0-.458.375-.833.833-.833.459 0 .834.375.834.833v.834h2.5c.458 0 .833.375.833.833a.836.836 0 0 1-.833.833h-2.5v.834a.836.836 0 0 1-.834.833.836.836 0 0 1-.833-.833zm4.167 4.156h-7.5V9.167h7.5c.458 0 .833.372.833.828a.833.833 0 0 1-.833.828zm-10-3.323c.458 0 .833.375.833.833v3.334a.836.836 0 0 1-.833.833.836.836 0 0 1-.834-.833v-.834h-2.5A.836.836 0 0 1 .5 10c0-.458.375-.833.833-.833h2.5v-.834c0-.458.375-.833.834-.833zM8 17.5a.836.836 0 0 1-.833-.833v-3.334c0-.458.375-.833.833-.833.458 0 .833.375.833.833v.834h5.834c.458 0 .833.375.833.833a.836.836 0 0 1-.833.833H8.833v.834A.836.836 0 0 1 8 17.5zM1.333 4.167h7.5v1.656h-7.5A.833.833 0 0 1 .5 4.995c0-.456.375-.828.833-.828zm0 10H5.5v1.656H1.333a.833.833 0 0 1-.833-.828c0-.456.375-.828.833-.828z"/></g></g><g><path fill="#f77d0e" d="M11 4.5C11 5.883 12.117 7 13.5 7S16 5.883 16 4.5 14.883 2 13.5 2A2.497 2.497 0 0 0 11 4.5z"/><path fill="none" stroke="#fff" stroke-miterlimit="20" stroke-width="3" d="M11 4.5C11 5.883 12.117 7 13.5 7S16 5.883 16 4.5 14.883 2 13.5 2A2.497 2.497 0 0 0 11 4.5z" clip-path="url(&quot;#43hba&quot;)"/></g></g></g></svg>