<svg xmlns="http://www.w3.org/2000/svg" width="24" height="18" viewBox="0 0 24 18"><g><g><path fill="#335491" d="M16.475 13.901V11.22a.749.749 0 0 0-.749-.748h-4.598c-3.533 0-6.925 1.509-9.306 4.048 1.206-4.893 5.64-8.534 10.909-8.534h2.995a.749.749 0 0 0 .749-.748V2.557l5.681 5.672zm7.26-6.196L16.249.22a.748.748 0 0 0-1.278.53V4.49h-2.246C5.708 4.491 0 10.2 0 17.216a.747.747 0 0 0 1.383.397l.225-.36a11.3 11.3 0 0 1 9.515-5.276h3.848v3.742a.749.749 0 0 0 1.278.53l7.486-7.485a.75.75 0 0 0 0-1.059z"/></g></g></svg>