<svg xmlns="http://www.w3.org/2000/svg" width="20" height="19" viewBox="0 0 20 19"><g><g><g><path fill="#f97d00" d="M18.82 17.01c0 .33-.223.597-.497.597h-.93c-.274 0-.497-.268-.497-.597v-5.353c0-.33.223-.598.497-.598h.93c.274 0 .497.269.497.598zm-4.923.364c-1.79.416-2.867.4-4.86.4-2.43 0-3.606-.04-5.085-1.75l-2.65-3.264c-.46-.61.374-1.33.91-.776l1.943 2.142c.513.55 1.159.854 1.955.871h5.384a.593.593 0 0 0 .589-.597.593.593 0 0 0-.589-.598H6.212v-.906c0-.257.206-.467.46-.467H9.39c.613.045 1.497-.475 2.036-.717a3.44 3.44 0 0 1 3.06.05l1.232.635v4.534zM7.5 1.197V3.71H2.686V1.197zm3.702 0V3.71H8.677V1.197zm1.186 2.513V1.197h4.882V3.71zM8.677 4.907h2.525v1.587H8.677zm6.342 5.787a4.587 4.587 0 0 0-4.088-.067c-.357.143-1.136.622-1.54.606H6.67c-.902 0-1.636.747-1.636 1.666v.436l-.015-.016-1.942-2.146a1.798 1.798 0 0 0-.392-.325v-5.94H7.5v2.194c0 .33.264.599.588.599H11.8a.594.594 0 0 0 .588-.599V4.907h4.882v4.96c-.687.054-1.26.555-1.468 1.232zm3.427-.827V.6A.594.594 0 0 0 17.858 0H2.098a.594.594 0 0 0-.588.599v10.007a1.764 1.764 0 0 0-.807.34c-.773.558-.956 1.808-.308 2.578l2.65 3.27c1.64 1.954 3.381 2.193 5.971 2.193 2.223 0 3.217.01 5.154-.44l1.886-.458c.306.434.791.716 1.337.716h.93c.923 0 1.674-.805 1.674-1.795v-5.353c0-.945-.685-1.721-1.55-1.79z"/></g></g></g></svg>