<svg xmlns="http://www.w3.org/2000/svg" width="40" height="34" viewBox="0 0 40 34"><g><g><g><path fill="#f97d00" d="M37.297 16.09c-2.894-3.318-8.38-3.04-11.335.022-1.419-1.419-3.407-2.23-6.203-1.98-1.526.136-2.846.592-3.984 1.275-.649-.6-1.611-1-2.538-1.16-.063-.113-.214-.155-.348-.127a.802.802 0 0 0-.26-.142c-4.552-1.542-8.875 1.624-10.797 5.635C.712 21.951.31 24.547.164 27.112c-.087 1.55-.487 3.615.41 4.932-.241.295-.134.815.284.943 1.723.527 3.742.49 5.693.307 10.486.845 21.464.35 31.866.16a.779.779 0 0 0 .488-.178.594.594 0 0 0 .448-.504c.738-4.96 1.561-12.536-2.056-16.683z"/></g><g><path fill="#f97d00" d="M21.447.67c-3.187-1.764-6.283.68-6.432 4.013-.131 2.944 2.283 7.04 5.484 5.578.846-.041 1.698-.466 2.427-1.42 1.883-2.467 1.315-6.625-1.48-8.172z"/></g><g><path fill="#f97d00" d="M9.722 2.131c-1.62-.527-2.928.032-3.814 1.076-2.982 2.403-1.45 9.747 3.056 9.072 4.579-.686 5.103-8.734.758-10.148z"/></g><g><path fill="#f97d00" d="M30.365 1.015c-2.211 1.457-2.615 5.377-1.659 7.64.956 2.264 3.97 4.086 6.033 2.066 4.937-2.32.619-12.998-4.374-9.706z"/></g></g></g></svg>