<svg xmlns="http://www.w3.org/2000/svg" width="194" height="92" viewBox="0 0 194 92"><g><g><g><path fill="#fff" d="M6.149 37.412c.882 9.244 1.537 18.503 1.444 27.787 6.302-1.708 13.075-2.004 19.55-2.38 7.189-.417 14.384-.599 21.585-.668 14.366-.14 28.755.073 43.107-.72 26.503-1.463 52.999-4.045 79.557-4.112.877-.002 1.485.405 1.841.972 3.827 3.023 6.196 9.356 8.266 13.484 2.247 4.481 4.328 9.052 6.37 13.633 1.234-6.51 1.048-13.613 1.104-20.135.06-7.164-.085-14.324-.203-21.486-.114-7.11-.241-14.235.049-21.344.219-5.365.262-11.114 1.247-16.51-6.602 1.184-13.784.911-20.428 1.11-8.101.242-16.207.268-24.311.106-16.201-.324-32.379-1.242-48.563-2.03-16.126-.787-32.274-1.45-48.423-1.142-8.054.156-16.104.512-24.133 1.198C17.096 5.782 10.042 6.97 2.94 7.6c.841 4.535 1.002 9.25 1.496 13.826.575 5.328 1.204 10.652 1.713 15.987"/></g><g><path fill="#fff" d="M6.149 37.412c.882 9.244 1.537 18.503 1.444 27.787 6.302-1.708 13.075-2.004 19.55-2.38 7.189-.417 14.384-.599 21.585-.668 14.366-.14 28.755.073 43.107-.72 26.503-1.463 52.999-4.045 79.557-4.112.877-.002 1.485.405 1.841.972 3.827 3.023 6.196 9.356 8.266 13.484 2.247 4.481 4.328 9.052 6.37 13.633 1.234-6.51 1.048-13.613 1.104-20.135.06-7.164-.085-14.324-.203-21.486-.114-7.11-.241-14.235.049-21.344.219-5.365.262-11.114 1.247-16.51-6.602 1.184-13.784.911-20.428 1.11-8.101.242-16.207.268-24.311.106-16.201-.324-32.379-1.242-48.563-2.03-16.126-.787-32.274-1.45-48.423-1.142-8.054.156-16.104.512-24.133 1.198C17.096 5.782 10.042 6.97 2.94 7.6c.841 4.535 1.002 9.25 1.496 13.826.575 5.328 1.204 10.652 1.713 15.987"/></g><g><path fill="#0b0212" d="M1.054 21.429C.621 16.674-.142 11.753.165 6.976c-.38-.794-.115-1.963.91-2.24 7.47-2.013 15.448-2.682 23.137-3.371C32.236.647 40.292.24 48.345.088 64.042-.21 79.74.292 95.421.954c16.182.683 32.363 1.533 48.561 1.75 8.102.109 16.21.097 24.31-.198a401.08 401.08 0 0 0 12.156-.611c3.274-.218 6.515-.008 9.75-.701.651-.138 1.211-.016 1.668.253.783-.176 1.715.295 1.701 1.292-.092 7.003-1.223 14.003-1.342 21.034-.12 7.12-.05 14.238.087 21.359.138 7.16.312 14.325.207 21.488-.106 7.134-1.064 14.313-1.018 21.424.01 1.473-1.148 2.083-2.244 1.972-.56 1.58-2.838 2.388-3.746.489-2.626-5.493-5.098-11.057-7.75-16.538-1.396-2.884-2.813-5.77-4.424-8.541-.689-1.186-1.517-2.331-2.223-3.53-26.478.03-52.845 2.2-79.275 3.469-14.36.69-28.736.473-43.107.59-7.196.058-14.399.172-21.585.542-6.508.336-13.068 1.249-19.588 1.198-.002.079 0 .158-.003.237-.067 2.464-3.91 2.467-3.828 0 .34-10.192-.279-20.37-1.2-30.516-.482-5.33-.99-10.658-1.474-15.987zm1.89-13.826c.841 4.535 1.002 9.25 1.496 13.826.575 5.328 1.204 10.652 1.713 15.987.882 9.244 1.537 18.503 1.444 27.787 6.302-1.708 13.075-2.004 19.55-2.38 7.19-.417 14.384-.6 21.585-.668 14.366-.14 28.755.073 43.107-.72 26.503-1.463 53-4.045 79.557-4.112.877-.002 1.485.405 1.841.972 3.827 3.023 6.196 9.356 8.266 13.484 2.247 4.48 4.328 9.052 6.37 13.633 1.234-6.511 1.048-13.613 1.104-20.135.06-7.164-.085-14.324-.203-21.486-.114-7.111-.24-14.235.05-21.344.218-5.365.261-11.114 1.246-16.51-6.602 1.184-13.784.91-20.428 1.11-8.1.242-16.207.268-24.31.106-16.202-.324-32.38-1.242-48.564-2.031-16.126-.786-32.274-1.45-48.423-1.141-8.054.156-16.104.512-24.133 1.198-7.112.607-14.166 1.794-21.268 2.424z"/></g><g><path fill="#0b0212" d="M44.576 38.534c-1.946-4.13-7.866-4.7-9.618-8.891-.862-2.063-1.229-4.33-1.225-6.553.01-4.432 3.692-4.416 7.152-3.942 1.085.149 1.948-1.306.806-1.914-9.865-5.25-13.122 4.818-10.567 12.744 1.468 4.555 5.547 6.074 8.944 8.929 2.894 2.433 2.008 6.805-1.634 7.65-1.4.328-3.359-.182-4.372 1.11-.695.886-.514 2.077.351 2.576l-.018.015c.081.037.162.065.243.099.03.012.056.026.086.035 7.161 2.934 12.826-5.547 9.852-11.858"/></g><g><path fill="#0b0212" d="M57.31 45.002c-1.605-2.769-2.416-5.997-3.161-9.082-1.281-5.31-1.68-10.765-2.888-16.083-.29-1.278-2.235-.965-2.24.302-.028 5.595.722 11.215 1.783 16.704.677 3.5 2.082 11.135 6.117 12.171.43.11 1.043-.138 1.114-.634.224-1.569.1-1.953-.725-3.378"/></g><g><path fill="#0b0212" d="M87.816 46.491c-.014-.015-.404-3.437-.474-4.115-.287-2.733-.334-5.497-.442-8.24-.209-5.37-.06-11.37-2.018-16.466-.58-1.513-2.3-1.699-3.256-.425-2.165 2.888-4.44 5.773-6.17 8.944-1.186-3.149-2.794-6.052-4.855-8.885-.92-1.266-3.117-.94-3.1.84.051 5.883.396 11.763.835 17.63.247 3.305.027 9.151 2.475 11.723.285.3.7.107.836-.22 1.452-3.518.035-9.149-.213-12.836a275.402 275.402 0 0 1-.498-10.12 32.218 32.218 0 0 1 2.568 7.28c.39 1.744 2.828 1.542 3.32 0 1.133-3.553 3.337-6.65 5.617-9.624 1.263 5.657.841 11.963 1.135 17.586.1 1.924.01 10.18 4.053 8.376.581-.258.537-1.042.187-1.448"/></g><g><path fill="#0b0212" d="M108.696 22.747c1.004 5.576-4.511 10.547-9.688 12.78.79 4.864 1.463 9.743 1.87 14.608.187 2.244-3.163 2.14-3.438 0-.575-4.484-1.255-9-1.86-13.526-.005 0-.01.002-.014.003-1.59.294-2.868-2.047-1.18-2.8.252-.111.517-.227.793-.345-.524-4.255-.938-8.515-1.086-12.767-.26.076-.501.15-.718.219-.866.274-1.478-1.117-.626-1.485 4.838-2.091 14.582-4.27 15.947 3.313zm-2.862.78c-.167-4.62-5.584-4.268-9.565-3.385.722 3.935 1.462 7.898 2.15 11.876 3.71-1.783 7.566-4.32 7.415-8.491z"/></g><g><path fill="#0b0212" d="M129.782 46.517c-1.681-1.33-2.396-.881-4.651-.6-2.691.339-5.425.38-8.142.397.145-9.406 1.256-19.5-1.5-28.543-.435-1.427-2.862-1.231-2.701.365 1.016 10.06.674 19.91.565 30-.011.992.832 1.805 1.81 1.81 3.62.02 12.8 1.482 14.756-2.368.163-.321.18-.811-.137-1.061"/></g><g><path fill="#0b0212" d="M149.911 47.423c.805-.584 1.113-2.05 0-2.563a.368.368 0 0 0-.093-.039c-.407-.453-.978-.8-1.605-.744-3.689.33-7.393.686-11.097.838-.312-3.485-.488-6.979-.628-10.474.35-.002.7-.008 1.05-.008 1.877 0 3.746-.285 5.624-.307 2.558-.03 2.561-4 0-3.969-1.92.024-3.793.297-5.678.647-.334.062-.724.132-1.125.225l-.084-2.397c-.077-2.203.623-7.218-.603-9.856 2.18.214 4.381.245 6.567.275 2.558.034 5.792.87 7.73-1.103a1.154 1.154 0 0 0 0-1.613c-1.756-1.789-4.233-1.15-6.576-1.118-3.204.044-6.446.024-9.618.523-1.078.17-1.312 1.616-.719 2.366-1.769 2.352-.865 8.121-.869 10.526-.015 6.17.213 12.37.822 18.51.115 1.158.892 2.164 2.153 2.153 4.361-.04 8.715-.47 13.051-.904.701-.07 1.551-.347 1.862-1.069-.274.185-.329.22-.164.101"/></g></g></g></svg>