<svg xmlns="http://www.w3.org/2000/svg" width="146" height="69" viewBox="0 0 146 69"><g><g><g><path fill="#fff" d="M4.617 28.064c.661 6.933 1.152 13.878 1.083 20.84 4.726-1.28 9.806-1.502 14.662-1.784 5.392-.313 10.788-.45 16.189-.501 10.774-.105 21.566.054 32.33-.54 19.877-1.098 39.75-3.034 59.668-3.084.658-.002 1.114.303 1.38.729 2.871 2.267 4.648 7.017 6.2 10.113 1.685 3.36 3.246 6.789 4.778 10.224.925-4.883.786-10.21.828-15.1.045-5.374-.064-10.744-.153-16.115-.085-5.334-.18-10.677.037-16.008.164-4.024.197-8.336.935-12.383-4.951.888-10.338.683-15.32.833-6.076.181-12.156.2-18.234.08-12.15-.244-24.284-.932-36.422-1.524-12.095-.59-24.206-1.088-36.317-.856-6.04.117-12.078.384-18.1.899-5.334.455-10.624 1.345-15.951 1.818.63 3.4.752 6.937 1.122 10.37.431 3.995.903 7.988 1.285 11.99"/></g><g><path fill="#fff" d="M4.617 28.064c.661 6.933 1.152 13.878 1.083 20.84 4.726-1.28 9.806-1.502 14.662-1.784 5.392-.313 10.788-.45 16.189-.501 10.774-.105 21.566.054 32.33-.54 19.877-1.098 39.75-3.034 59.668-3.084.658-.002 1.114.303 1.38.729 2.871 2.267 4.648 7.017 6.2 10.113 1.685 3.36 3.246 6.789 4.778 10.224.925-4.883.786-10.21.828-15.1.045-5.374-.064-10.744-.153-16.115-.085-5.334-.18-10.677.037-16.008.164-4.024.197-8.336.935-12.383-4.951.888-10.338.683-15.32.833-6.076.181-12.156.2-18.234.08-12.15-.244-24.284-.932-36.422-1.524-12.095-.59-24.206-1.088-36.317-.856-6.04.117-12.078.384-18.1.899-5.334.455-10.624 1.345-15.951 1.818.63 3.4.752 6.937 1.122 10.37.431 3.995.903 7.988 1.285 11.99"/></g><g><path fill="#0b0212" d="M.79 16.071C.467 12.505-.105 8.814.125 5.231c-.285-.595-.086-1.472.682-1.68 5.602-1.51 11.586-2.01 17.353-2.528C24.177.485 30.22.18 36.26.066c11.773-.223 23.545.153 35.307.65 12.136.511 24.272 1.149 36.42 1.312 6.077.081 12.157.072 18.232-.149a300.81 300.81 0 0 0 9.118-.458c2.456-.164 4.886-.006 7.313-.526a1.705 1.705 0 0 1 1.25.19c.588-.132 1.287.221 1.276.969-.069 5.252-.917 10.502-1.006 15.775-.09 5.341-.038 10.679.065 16.02.104 5.37.234 10.743.155 16.116-.08 5.35-.798 10.734-.763 16.068.007 1.104-.861 1.562-1.683 1.479-.42 1.185-2.129 1.79-2.81.366-1.97-4.12-3.823-8.292-5.812-12.403-1.047-2.163-2.11-4.328-3.318-6.406-.517-.89-1.138-1.748-1.667-2.647-19.859.022-39.634 1.65-59.457 2.601-10.77.518-21.552.355-32.33.443-5.397.043-10.8.129-16.189.406-4.88.252-9.8.937-14.69.899l-.003.178c-.05 1.848-2.933 1.85-2.87 0 .253-7.644-.21-15.278-.9-22.887-.362-3.997-.743-7.994-1.106-11.99zm1.418-10.37c.63 3.402.752 6.938 1.122 10.37.431 3.996.903 7.99 1.285 11.99.661 6.934 1.153 13.878 1.083 20.84 4.726-1.28 9.806-1.502 14.662-1.784 5.392-.313 10.788-.45 16.19-.501 10.774-.105 21.565.055 32.33-.54 19.877-1.097 39.749-3.034 59.667-3.084.658-.002 1.114.304 1.38.729 2.871 2.267 4.648 7.017 6.2 10.113 1.686 3.36 3.246 6.789 4.778 10.225.925-4.884.786-10.21.828-15.102.045-5.373-.064-10.743-.152-16.114-.086-5.333-.181-10.676.036-16.008.165-4.024.197-8.336.936-12.383-4.952.888-10.338.684-15.321.833-6.076.181-12.156.2-18.234.08-12.15-.244-24.284-.932-36.422-1.524-12.094-.59-24.205-1.087-36.317-.856-6.04.117-12.078.384-18.1.899-5.334.455-10.624 1.345-15.95 1.818z"/></g><g><path fill="#0b0212" d="M33.435 28.905c-1.46-3.097-5.9-3.525-7.214-6.668-.646-1.547-.922-3.247-.919-4.915.008-3.324 2.77-3.312 5.364-2.956.814.111 1.461-.98.605-1.436-7.399-3.937-9.842 3.614-7.925 9.558 1.1 3.416 4.16 4.556 6.708 6.697 2.17 1.825 1.506 5.104-1.226 5.738-1.05.245-2.52-.137-3.279.833-.521.663-.385 1.557.263 1.93l-.013.012c.06.028.121.049.182.074.022.01.042.02.065.027 5.37 2.2 9.62-4.16 7.389-8.894"/></g><g><path fill="#0b0212" d="M42.987 33.757c-1.203-2.077-1.812-4.498-2.37-6.812-.961-3.983-1.26-8.074-2.166-12.062-.217-.959-1.677-.724-1.68.226-.021 4.197.541 8.412 1.337 12.528.508 2.625 1.561 8.352 4.588 9.129.323.082.782-.104.835-.476.168-1.177.075-1.465-.544-2.533"/></g><g><path fill="#0b0212" d="M65.857 34.868c-.01-.01-.303-2.577-.355-3.086-.216-2.05-.25-4.123-.332-6.18-.157-4.028-.045-8.527-1.513-12.35-.436-1.134-1.726-1.274-2.442-.318-1.624 2.166-3.33 4.33-4.628 6.708-.89-2.362-2.095-4.54-3.641-6.664-.69-.95-2.338-.705-2.326.63.04 4.412.298 8.822.627 13.222.185 2.48.02 6.864 1.856 8.793.214.225.525.08.627-.166 1.09-2.638.027-6.86-.16-9.626-.17-2.526-.296-5.058-.373-7.59a24.164 24.164 0 0 1 1.926 5.46c.292 1.308 2.121 1.156 2.49 0 .85-2.665 2.503-4.988 4.213-7.218.947 4.243.63 8.972.851 13.19.075 1.442.008 7.634 3.04 6.281.436-.193.403-.781.14-1.086"/></g><g><path fill="#0b0212" d="M81.527 17.062c.753 4.182-3.383 7.91-7.266 9.586.592 3.647 1.097 7.307 1.402 10.955.14 1.683-2.372 1.606-2.578 0-.431-3.363-.941-6.75-1.394-10.144l-.012.002c-1.191.22-2.15-1.535-.885-2.099.19-.084.388-.171.595-.26-.393-3.19-.703-6.386-.814-9.575-.195.057-.376.113-.539.164-.65.206-1.108-.837-.47-1.113 3.63-1.569 10.937-3.202 11.96 2.484zm-2.155.589c-.125-3.47-4.184-3.205-7.168-2.542.541 2.955 1.096 5.93 1.611 8.917 2.781-1.339 5.67-3.244 5.557-6.375z"/></g><g><path fill="#0b0212" d="M97.341 34.89c-1.26-.997-1.797-.66-3.488-.45-2.018.254-4.069.286-6.107.298.11-7.055.942-14.624-1.125-21.407-.326-1.07-2.146-.924-2.025.273.762 7.546.505 14.933.423 22.5-.008.744.624 1.354 1.358 1.359 2.716.015 9.6 1.11 11.067-1.777.122-.24.135-.608-.103-.796"/></g><g><path fill="#0b0212" d="M112.434 35.567c.603-.438.834-1.538 0-1.922a.276.276 0 0 0-.07-.03c-.305-.339-.734-.6-1.204-.557-2.767.247-5.545.514-8.323.628-.234-2.613-.366-5.234-.47-7.855.262-.002.524-.006.786-.006 1.409 0 2.81-.214 4.219-.23 1.918-.024 1.92-3 0-2.977-1.44.018-2.845.223-4.259.485-.25.047-.543.1-.843.169l-.063-1.798c-.058-1.652.467-5.413-.453-7.392 1.635.16 3.286.184 4.926.206 1.918.026 4.344.653 5.797-.827a.866.866 0 0 0 0-1.21c-1.317-1.341-3.175-.863-4.932-.838-2.403.033-4.834.018-7.213.392-.809.128-.984 1.212-.54 1.775-1.326 1.764-.648 6.09-.651 7.894-.012 4.628.16 9.277.616 13.882.086.87.67 1.624 1.615 1.615 3.27-.03 6.536-.352 9.788-.678.526-.053 1.163-.26 1.397-.801-.206.138-.247.164-.123.075"/></g></g></g></svg>