<svg xmlns="http://www.w3.org/2000/svg" width="21" height="21" viewBox="0 0 21 21"><defs><clipPath id="ehixa"><path fill="#fff" d="M10.8 10.2V.8h9.4v9.4zM13 5.5C13 6.883 14.117 8 15.5 8S18 6.883 18 5.5 16.883 3 15.5 3A2.497 2.497 0 0 0 13 5.5z"/></clipPath></defs><g><g><g><path fill="#335491" d="M18.75 19.814h-4.688v-2.183c0-.64-.163-1.242-.45-1.768a2.52 2.52 0 0 1 1.818-.765h.78a2.54 2.54 0 0 1 2.54 2.533zm-5.86 0H7.032v-2.183a2.54 2.54 0 0 1 2.54-2.534h.78a2.54 2.54 0 0 1 2.54 2.534zM1.173 17.631a2.54 2.54 0 0 1 2.539-2.533h.781c.694 0 1.342.275 1.819.765a3.674 3.674 0 0 0-.452 1.768v2.183H1.172zm2.93-6.05c.646 0 1.171.529 1.171 1.178 0 .649-.525 1.177-1.171 1.177a1.176 1.176 0 0 1-1.172-1.177c0-.65.525-1.177 1.172-1.177zm5.859 0c.646 0 1.172.529 1.172 1.178 0 .649-.526 1.177-1.172 1.177a1.176 1.176 0 0 1-1.172-1.177c0-.65.526-1.177 1.172-1.177zm5.86 0c.645 0 1.171.529 1.171 1.178 0 .649-.526 1.177-1.172 1.177a1.176 1.176 0 0 1-1.172-1.177c0-.65.526-1.177 1.172-1.177zm1.829 2.635c.321-.401.514-.91.514-1.462a2.346 2.346 0 0 0-2.344-2.344 2.346 2.346 0 0 0-2.343 2.344c0 .551.192 1.059.512 1.46-.404.17-.777.411-1.1.717a3.722 3.722 0 0 0-1.098-.715c.32-.401.514-.91.514-1.462A2.346 2.346 0 0 0 9.96 10.41a2.346 2.346 0 0 0-2.344 2.344c0 .553.193 1.06.514 1.462-.408.173-.78.416-1.098.715a3.679 3.679 0 0 0-1.1-.717c.32-.4.512-.908.512-1.46a2.346 2.346 0 0 0-2.343-2.344 2.346 2.346 0 0 0-2.344 2.344c0 .553.193 1.06.514 1.462A3.717 3.717 0 0 0 0 17.636v2.774c0 .324.262.586.586.586h18.75a.586.586 0 0 0 .586-.586v-2.773a3.717 3.717 0 0 0-2.272-3.421z"/></g><g><path fill="#335491" d="M5.86 2.758c0-.323.264-.586.588-.586h7.041c.324 0 .587.263.587.586v3.555a.587.587 0 0 1-.587.585H9.97a.588.588 0 0 0-.353.118L8.208 8.07v-.586a.586.586 0 0 0-.587-.586H6.448a.587.587 0 0 1-.587-.585zm.588 5.312h.586v1.172c0 .485.554.757.937.469l2.188-1.64h3.32a1.76 1.76 0 0 0 1.758-1.759V2.758A1.76 1.76 0 0 0 13.479 1H6.448A1.76 1.76 0 0 0 4.69 2.758v3.554c0 .97.789 1.758 1.758 1.758z"/></g><g><path fill="#f77d0e" d="M13 5.5C13 6.883 14.117 8 15.5 8S18 6.883 18 5.5 16.883 3 15.5 3A2.497 2.497 0 0 0 13 5.5z"/><path fill="none" stroke="#fff" stroke-miterlimit="20" stroke-width="4.4" d="M13 5.5C13 6.883 14.117 8 15.5 8S18 6.883 18 5.5 16.883 3 15.5 3A2.497 2.497 0 0 0 13 5.5z" clip-path="url(&quot;#ehixa&quot;)"/></g></g></g></svg>