<svg xmlns="http://www.w3.org/2000/svg" width="25" height="23" viewBox="0 0 25 23"><defs><clipPath id="jm1ba"><path fill="#fff" d="M16.5 13.5v-8h8v8zm1.5-4c0 1.383 1.117 2.5 2.5 2.5S23 10.883 23 9.5 21.883 7 20.5 7A2.497 2.497 0 0 0 18 9.5z"/></clipPath></defs><g><g><g><g><g><path fill="#315293" d="M12 16.533L6.985 19.56l1.333-5.707-4.426-3.84 5.84-.506 2.266-5.374 2.28 5.387 5.84.507-4.426 3.84 1.333 5.706zm3.746-9.04l-2.52-5.933c-.453-1.08-2-1.08-2.453 0l-2.52 5.947-6.44.546c-1.174.094-1.654 1.56-.76 2.334l4.893 4.24-1.467 6.293c-.266 1.147.974 2.053 1.987 1.44l5.533-3.333 5.534 3.346c1.013.614 2.253-.293 1.986-1.44l-1.466-6.306 4.893-4.24c.893-.774.427-2.24-.747-2.334z"/></g></g></g><g><path fill="#f77d0e" d="M18 9.5c0 1.383 1.117 2.5 2.5 2.5S23 10.883 23 9.5 21.883 7 20.5 7A2.497 2.497 0 0 0 18 9.5z"/><path fill="none" stroke="#fff" stroke-miterlimit="20" stroke-width="3" d="M18 9.5c0 1.383 1.117 2.5 2.5 2.5S23 10.883 23 9.5 21.883 7 20.5 7A2.497 2.497 0 0 0 18 9.5z" clip-path="url(&quot;#jm1ba&quot;)"/></g></g></g></svg>