<svg xmlns="http://www.w3.org/2000/svg" width="24" height="23" viewBox="0 0 24 23"><g><g><g><g><path fill="#315293" d="M12 16.533L6.985 19.56l1.333-5.707-4.426-3.84 5.84-.506 2.266-5.374 2.28 5.387 5.84.507-4.426 3.84 1.333 5.706zm3.746-9.04l-2.52-5.933c-.453-1.08-2-1.08-2.453 0l-2.52 5.947-6.44.546c-1.174.094-1.654 1.56-.76 2.334l4.893 4.24-1.467 6.293c-.266 1.147.974 2.053 1.987 1.44l5.533-3.333 5.534 3.346c1.013.614 2.253-.293 1.986-1.44l-1.466-6.306 4.893-4.24c.893-.774.427-2.24-.747-2.334z"/></g></g></g></g></svg>