<svg xmlns="http://www.w3.org/2000/svg" width="32" height="32" viewBox="0 0 32 32"><g><g><g><path fill="#ffc10e" d="M15.998 31.995c8.835 0 15.997-7.162 15.997-15.997C31.995 7.162 24.833 0 15.998 0 7.162 0 0 7.162 0 15.998c0 8.835 7.162 15.997 15.998 15.997z"/></g><g><g><path fill="#333" d="M11.132 15.757c1.388 0 2.513-2.122 2.513-4.739S12.52 6.28 11.132 6.28c-1.387 0-2.512 2.121-2.512 4.738 0 2.617 1.125 4.739 2.512 4.739z"/></g><g><path fill="#333" d="M20.632 15.757c1.388 0 2.513-2.122 2.513-4.739S22.02 6.28 20.632 6.28c-1.387 0-2.512 2.121-2.512 4.738 0 2.617 1.125 4.739 2.512 4.739z"/></g><g><path fill="#333" d="M16 24.828a1.74 1.74 0 1 0 0-3.478 1.74 1.74 0 0 0 0 3.478z"/></g></g></g></g></svg>