<?xml version="1.0" encoding="UTF-8"?>
<svg width="209px" height="153px" viewBox="0 0 209 153" version="1.1" xmlns="http://www.w3.org/2000/svg" xmlns:xlink="http://www.w3.org/1999/xlink">
    <title>we care</title>
    <g id="ui" stroke="none" stroke-width="1" fill="none" fill-rule="evenodd">
        <g id="landing-ui" transform="translate(-52.000000, -2510.000000)">
            <g id="we-care" transform="translate(52.000000, 2510.000000)">
                <g id="Group-32" transform="translate(104.500000, 76.500000) scale(-1, 1) rotate(10.000000) translate(-104.500000, -76.500000) translate(10.000000, 16.000000)">
                    <path d="M58.533755,98.31355 C58.445755,96.02855 62.381755,95.26655 63.460755,97.84955 C65.090755,101.75255 66.258755,105.81155 67.350755,109.89355 C68.589755,105.93055 69.580755,101.88155 70.593755,97.86955 C70.793755,97.07855 71.467755,96.41455 72.253755,96.21055 C75.454755,95.37155 78.702755,94.72855 81.981755,94.28755 C94.275755,92.63455 106.672755,92.97455 119.034755,92.33455 C130.125755,91.76255 141.683755,90.52355 151.750755,85.48055 C159.986755,81.35355 167.454755,75.53655 173.349755,68.43955 C178.859755,61.80755 183.359755,53.47955 183.564755,44.67355 C183.950755,28.09455 170.346755,16.07655 155.918755,10.67155 C140.609755,4.93454999 123.909755,3.61654999 107.685755,4.07254999 C90.326755,4.56254999 72.945755,7.06354999 56.185755,11.63355 C48.908755,13.61555 41.676755,15.94755 34.767755,18.99655 C28.712755,21.66855 22.508755,24.77155 17.619755,29.31355 C5.69375504,40.39355 -0.343244958,59.51455 6.89675504,74.81455 C11.201755,83.91355 19.209755,89.87655 28.726755,92.83255 C38.444755,95.85055 48.686755,96.00755 58.533755,98.31355" id="Fill-41" fill="#FFFFFF"></path>
                    <path d="M6.89675504,74.81455 C-0.343244958,59.51455 5.69375504,40.39355 17.619755,29.31355 C22.508755,24.77155 28.712755,21.66855 34.767755,18.99655 C41.676755,15.94755 48.908755,13.61555 56.185755,11.63355 C72.945755,7.06354999 90.326755,4.56254999 107.685755,4.07254999 C123.909755,3.61654999 140.609755,4.93454999 155.918755,10.67155 C170.346755,16.07655 183.950755,28.09455 183.564755,44.67355 C183.359755,53.47955 178.859755,61.80755 173.349755,68.43955 C167.454755,75.53655 159.986755,81.35355 151.750755,85.48055 C141.683755,90.52355 130.125755,91.76255 119.034755,92.33455 C106.672755,92.97455 94.275755,92.63455 81.981755,94.28755 C78.702755,94.72855 75.454755,95.37155 72.253755,96.21055 C71.467755,96.41455 70.793755,97.07855 70.593755,97.86955 C69.580755,101.88155 68.589755,105.93055 67.350755,109.89355 C66.258755,105.81155 65.090755,101.75255 63.460755,97.84955 C62.381755,95.26655 58.445755,96.02855 58.533755,98.31355 C48.686755,96.00755 38.444755,95.85055 28.726755,92.83255 C19.209755,89.87655 11.201755,83.91355 6.89675504,74.81455 Z M59.347755,100.68855 C61.597755,106.47155 62.962755,112.55455 64.660755,118.51455 C65.375755,121.01855 68.447755,120.59555 69.318755,118.51455 C71.756755,112.69355 73.330755,106.57455 74.848755,100.46255 C98.298755,94.68855 123.252755,100.03755 146.513755,92.80355 C163.657755,87.47255 179.489755,73.78655 186.177755,57.03055 C189.515755,48.66855 189.697755,39.21455 186.098755,30.91655 C182.793755,23.29755 176.904755,17.06855 169.956755,12.63255 C157.131755,4.44254999 141.278755,1.68454999 126.366755,0.520549988 C108.896755,-0.845450012 91.191755,0.575549988 73.967755,3.63054999 C58.611755,6.35354999 43.208755,10.49755 29.127755,17.30755 C22.749755,20.39155 16.774755,24.18955 11.978755,29.46855 C6.31575504,35.70055 2.46175504,43.56355 0.822755042,51.80855 C-0.787244958,59.90655 -0.0572449582,68.25655 3.21475504,75.84455 C6.83875504,84.25355 13.988755,90.67455 22.352755,94.17155 C34.197755,99.12655 46.924755,98.68655 59.347755,100.68855 L59.347755,100.68855 Z" id="Fill-42" fill="#000000"></path>
                </g>
                <path d="M45.5680131,55.227145 C45.5680131,62.9382492 45.5860638,70.7268191 44.807801,78.413308 C43.8393115,75.990149 43.4463617,73.2151362 43.1027041,70.7463665 C42.5563234,66.8281903 42.4389938,62.8600594 42.0863109,58.9208877 C41.9419053,57.3165494 39.7785984,57.2883142 39.6744598,58.9208877 C39.2606822,65.3947111 40.0451934,71.9995748 39.3696807,78.4567467 C37.1084834,70.8173165 35.6734528,62.8977063 34.5563922,55.0077793 C34.4265661,54.0926694 32.8978107,54.3069672 33.0054206,55.227145 C34.1106788,64.7199624 35.6692873,74.167893 38.6948622,83.2234268 C39.017692,84.1863194 40.4443915,84.3289433 40.7033496,83.2234268 C41.1976611,81.1079591 41.4850838,78.9693241 41.6510114,76.8169335 C42.2730662,79.1575587 43.2082313,81.393931 44.7119934,83.2487661 C45.2812847,83.9488541 46.6934048,83.6295792 46.8190654,82.6681347 C48.0118001,73.5894335 48,64.3739002 48,55.227145 C48,53.5909517 45.5680131,53.5909517 45.5680131,55.227145" id="Fill-156" fill="#000000"></path>
                <path d="M64.4948814,77.7663074 C62.7450215,79.0052467 60.9507763,79.6652611 58.9090489,79.591483 C58.8619735,76.0667539 58.7288174,72.5446834 58.5869187,69.0226129 C59.3744229,69.0724629 60.1666346,69.0877503 60.9393437,69.1229776 C62.503592,69.1954263 64.0819629,69.4254011 65.5406278,68.7959615 C66.5769591,68.3479759 66.5769591,66.541411 65.5406278,66.0934254 C64.0819629,65.4646504 62.503592,65.6939605 60.9393437,65.7657446 C60.1316643,65.8029659 59.3017922,65.8189179 58.4773002,65.87475 C58.3972721,63.1117292 58.3192614,60.2961997 57.9487107,57.5677417 C58.2950512,57.543149 58.6427366,57.513239 58.9910946,57.477347 C60.1740322,57.3577069 61.5042485,57.4647183 62.623298,57.0606007 C64.0019347,56.5607712 64.0712028,54.7010329 62.623298,54.2251313 C60.913116,53.6654817 58.802793,54.2783046 56.8908592,54.6677995 C56.5498988,54.5740815 56.1611905,54.6352308 55.8874807,54.8479243 C55.693799,54.8758403 55.5007899,54.900433 55.3145058,54.9170496 C53.6090313,55.0632764 53.5485058,57.4161976 55.2183375,57.5976517 C54.8255942,61.1263688 55.0764388,64.8146061 55.1914373,68.3114192 C55.331991,72.5759227 55.4779247,76.8417556 55.4691821,81.1102471 C55.4685096,81.8201115 55.9930641,82.6236939 56.7395454,82.759286 C60.2231251,83.3913843 63.3623818,82.8004954 66.2447413,80.7267343 C68.031589,79.441933 66.321407,76.4735301 64.4948814,77.7663074" id="Fill-27" fill="#000000"></path>
                <g id="Group-33" transform="translate(79.000000, 53.000000)">
                    <path d="M26.4697876,16.0269878 C25.9770376,16.0708628 25.4876626,16.1289128 25.0030126,16.2112628 C25.3141876,14.2274378 25.6381876,12.2463128 25.9581376,10.2658628 C26.5008376,12.0114128 27.0698626,13.7502128 27.5646376,15.4977878 C27.6031126,15.6321128 27.6355126,15.7650878 27.6726376,15.8994128 C27.2534626,15.9399128 26.8444126,15.9939128 26.4697876,16.0269878 Z M30.9592126,16.3570628 C29.8015876,12.0174878 28.4623876,7.63403779 26.9065126,3.42136279 C26.3894626,2.02276279 24.3739126,2.23066279 24.2956126,3.77438779 C24.0701626,8.19968779 23.2696126,12.5426378 22.6708876,16.9065128 C22.5392626,16.9679378 22.4076376,17.0307128 22.2793876,17.1009128 C21.5078626,17.5234628 21.7528876,18.6277628 22.4116876,18.9166628 C22.0606876,21.8853128 21.8568376,24.8701628 22.0471876,27.9029378 C22.1086126,28.8587378 23.4464626,28.8479378 23.5240876,27.9029378 C23.7778876,24.8107628 24.1754626,21.7266878 24.6317626,18.6459878 C25.3857376,18.5933378 26.1592876,18.6210128 26.8741126,18.6162878 C27.3506626,18.6129128 27.8629876,18.6574628 28.3726126,18.6675878 C29.1151126,21.9372878 29.5747876,25.2191378 29.7671626,28.6123628 C29.8771876,30.5806628 32.7790126,30.6002378 32.8363876,28.6123628 C32.9558626,24.4786628 32.0196376,20.3267378 30.9592126,16.3570628 L30.9592126,16.3570628 Z" id="Fill-197" fill="#0B0212"></path>
                    <path d="M43.1323035,5.22697498 C43.431374,4.99204034 43.7398131,4.7693569 44.0705923,4.57405848 C44.2046336,4.49334474 44.3184966,4.46019445 44.4064161,4.44001602 C44.429477,4.59495757 44.4662302,4.7989039 44.4647889,4.96321401 C44.4597444,5.6716212 44.2536379,6.3800284 44.0684304,7.05672663 C43.793862,8.06420705 43.4825403,9.07384946 43.122935,10.0676374 C43.0595176,8.45336258 43.0465459,6.83260187 43.1323035,5.22697498 Z M53.36412,26.3552376 C53.1162157,25.2338932 52.2968344,24.5543123 51.5041173,23.7788839 C50.5009697,22.7959058 49.4689961,21.8460781 48.4067552,20.9279593 C46.9063578,19.6322155 45.309393,18.4395259 43.594962,17.4471793 C43.5697392,17.1329722 43.545237,16.8180445 43.5214555,16.5031168 C45.6243179,13.2745672 47.1103023,9.33184516 47.2011044,5.63126433 C47.237137,4.151032 46.9467143,2.46036743 45.3857821,1.90473981 C44.7307095,1.66980517 44.066989,1.81393685 43.4371392,2.15120498 C43.4760544,1.89248862 43.5178523,1.63593423 43.5646946,1.3801005 C43.7722424,0.235694981 42.2033831,-0.597386116 41.5915496,0.547019405 C39.3308644,4.77728414 39.445448,10.072682 39.6537164,14.7367831 C39.6760567,15.2434059 39.7048827,15.7514701 39.7337088,16.2566516 C39.6407447,16.367633 39.5506632,16.4793351 39.4555372,16.5888751 C38.8278493,17.3008856 38.7701971,18.6845497 39.7841545,19.1407265 C39.8324381,19.1623462 39.8800012,19.1868486 39.9275642,19.2084684 C40.0111598,20.3528739 40.0990794,21.4958381 40.1877195,22.639523 C40.3556315,24.8202352 40.3599554,27.046349 40.6655118,29.2097655 C40.9898052,31.5050624 44.2550792,30.6921598 44.4381248,28.6988187 C44.6204498,26.7242147 44.2341803,24.6083617 44.0532967,22.639523 C44.021588,22.2813557 43.9877173,21.9246298 43.955288,21.5671833 C44.688191,22.0903813 45.4016365,22.6510535 46.096345,23.2383901 C47.0360751,24.0347176 47.9318455,24.8829325 48.8182474,25.7369127 C49.7183417,26.6031441 50.5081763,27.6610706 51.777965,27.9435687 C52.7616549,28.1612075 53.5839188,27.339657 53.36412,26.3552376 L53.36412,26.3552376 Z" id="Fill-56" fill="#000000"></path>
                    <path d="M71.1826999,23.8246785 C67.8441064,24.389509 64.48212,24.9300917 61.0974719,25.1518875 C60.5908712,22.2835186 60.239979,19.3766385 60.0338298,16.455495 C61.0770032,16.5760207 62.1245627,16.6694459 63.1713913,16.7357707 C64.8893013,16.8477383 67.1423219,17.257811 68.7761639,16.6580352 C70.2469873,16.1181656 70.2469873,14.2810402 68.7761639,13.7411707 C67.1423219,13.1421081 64.8893013,13.5521807 63.1713913,13.6641483 C62.0770461,13.7333258 60.9819699,13.8331696 59.8912798,13.960827 C59.7458057,10.5333329 59.8013637,7.0972808 60.0426021,3.69260817 C61.2970419,3.82739726 62.5536747,3.91369081 63.820542,3.9964185 C65.5530724,4.11123884 67.6628121,4.38652238 69.0378711,3.18697078 C69.4106941,2.86390486 69.4106941,2.19709109 69.0378711,1.87188566 C67.7505351,0.748643221 66.0933003,1.0253531 64.4704236,1.04175601 C62.4286694,1.06101159 60.3737566,1.2735362 58.3597813,1.57877287 C57.4481925,1.71784098 57.3948276,3.14774644 58.1982247,3.43871972 C57.4167584,7.06875401 57.1499341,10.7979189 57.23254,14.5342155 C56.9079647,14.9121955 56.9225852,15.5725907 57.2800566,15.9213308 C57.4452684,19.6426508 57.9270142,23.3589786 58.5586203,26.9711837 C58.66535,27.5809439 59.3415486,27.9724741 59.926369,27.9881638 C64.0091465,28.093713 68.0100492,27.4753947 72.0372688,26.8485185 C74.0687887,26.5325843 73.217144,23.4795043 71.1826999,23.8246785" id="Fill-57" fill="#000000"></path>
                    <path d="M14.1301463,21.924207 C13.5907527,24.3347476 12.9001148,28.4457833 9.49042453,27.4573412 C6.43274549,26.5726287 4.44113839,22.8745034 3.53367225,20.0965595 C2.25277979,16.1762522 2.61482933,11.9012569 4.64859746,8.32359172 C5.56208661,6.71678775 6.73456498,5.19631351 8.26574678,4.13626457 C10.0519025,2.89954081 10.9412996,5.48006398 11.4519166,6.79843293 C11.7249595,7.50780911 12.9563295,7.48438631 12.8807073,6.60569676 C12.6939941,4.45013007 11.9437954,1.76386969 9.43287137,1.4326044 C7.13877556,1.12944646 5.23149054,2.99858579 3.91178314,4.62145111 C0.301326057,9.05705993 -0.865798532,14.6410551 0.643968139,20.1614741 C1.75889335,24.237041 4.68272783,28.8667245 9.017284,30.0104263 C13.7145589,31.2484885 16.2750054,26.165072 16.4724262,22.2414186 C16.5393484,20.8976192 14.4246043,20.6145379 14.1301463,21.924207" id="Fill-11" fill="#000000"></path>
                </g>
                <path d="M175.076744,66.1408828 C174.294888,68.8306898 173.388939,71.4928642 172.911934,74.241572 C171.536871,71.5575825 169.948052,68.9935762 168.920879,66.1103416 C167.963285,63.4278064 167.268221,60.3147857 167.917377,57.4940879 C168.164846,57.8184063 168.425225,58.1376346 168.695647,58.4554085 C169.54493,59.4509061 170.59936,60.3496899 171.229867,61.512437 C171.718348,62.4134023 173.119951,62.4264914 173.604128,61.512437 C174.241808,60.311877 175.251048,59.2225743 176.116829,58.0707348 C176.51493,60.7379994 175.843538,63.4990692 175.076744,66.1408828 Z M177.560036,53.6989805 C176.869276,52.3828003 175.068854,53.0997912 174.977757,54.4086997 C174.911048,55.3452965 173.814297,56.4709578 173.288517,57.1784955 C172.984382,57.587893 172.665901,57.9900188 172.356027,58.3986891 C171.126576,57.0156091 169.649656,55.7939612 168.997631,54.040751 C168.593791,52.9550841 167.148432,52.6125864 166.50358,53.709888 C164.268474,57.5137215 164.843749,62.0570883 166.172188,66.0761646 C167.475521,70.0203422 169.552103,74.5011722 172.58628,77.3887698 C172.584128,77.4629413 172.579107,77.5363856 172.57839,77.6098299 C172.550415,79.4648441 175.390204,79.4619354 175.412441,77.6098299 C175.509993,69.5222298 181.736154,61.6644158 177.560036,53.6989805 L177.560036,53.6989805 Z" id="Fill-35" fill="#000000"></path>
            </g>
        </g>
    </g>
</svg>