<?xml version="1.0" standalone="no"?>
<!DOCTYPE svg PUBLIC "-//W3C//DTD SVG 20010904//EN"
 "http://www.w3.org/TR/2001/REC-SVG-20010904/DTD/svg10.dtd">
<svg version="1.0" xmlns="http://www.w3.org/2000/svg"
 width="120.000000pt" height="88.000000pt" viewBox="0 0 120.000000 88.000000"
 preserveAspectRatio="xMidYMid meet">

<g transform="translate(0.000000,88.000000) scale(0.100000,-0.100000)"
fill="#000000" stroke="none">
<path d="M493 770 c-279 -39 -443 -151 -443 -302 0 -91 99 -201 220 -243 57
-20 170 -20 315 0 166 22 161 23 190 -34 13 -27 29 -52 34 -55 11 -7 21 27 21
71 0 38 3 41 108 74 140 46 192 104 192 217 0 126 -80 215 -226 253 -90 23
-309 34 -411 19z m329 -20 c137 -20 208 -58 259 -138 68 -108 34 -234 -80
-291 -45 -23 -138 -54 -165 -55 -17 -1 -22 -10 -26 -41 l-6 -40 -19 38 c-17
34 -22 37 -62 37 -23 0 -93 -7 -155 -16 -151 -21 -247 -16 -318 17 -111 51
-170 127 -170 217 0 132 151 235 398 271 80 12 265 12 344 1z"/>
<path d="M191 557 c-1 -10 6 -50 15 -88 13 -58 18 -68 30 -58 10 8 14 8 14 0
0 -6 4 -11 9 -11 12 0 22 153 10 165 -5 5 -9 -17 -10 -60 l-1 -70 -13 60 -12
60 -2 -59 c0 -33 -3 -57 -6 -54 -3 2 -11 33 -19 69 -8 35 -14 56 -15 46z"/>
<path d="M319 563 c-3 -37 4 -150 11 -156 10 -11 50 1 50 15 0 6 -9 8 -20 5
-17 -4 -20 0 -20 24 0 22 5 29 20 29 11 0 20 5 20 10 0 6 -9 10 -19 10 -17 0
-31 18 -31 41 0 5 7 9 15 9 8 0 15 5 15 10 0 11 -40 14 -41 3z"/>
<path d="M488 560 c-29 -17 -41 -73 -24 -113 17 -43 53 -58 73 -31 16 21 17
34 3 34 -5 0 -10 -7 -10 -15 0 -22 -27 -18 -44 7 -31 44 -9 116 30 101 17 -6
17 -5 5 10 -7 9 -14 17 -15 17 0 0 -9 -5 -18 -10z"/>
<path d="M686 555 c-14 -37 -2 -155 15 -155 5 0 9 9 9 20 0 21 15 27 25 10 3
-5 11 -10 17 -10 6 0 1 12 -13 26 -18 19 -24 37 -24 71 0 46 -17 68 -29 38z"/>
<path d="M786 548 c-9 -33 -7 -83 3 -110 8 -21 14 -24 45 -20 20 2 36 8 36 14
0 5 -15 6 -35 2 -33 -6 -35 -5 -35 20 0 21 5 26 25 26 14 0 25 5 25 10 0 6
-11 10 -25 10 -20 0 -25 5 -25 25 0 20 5 25 25 25 14 0 25 5 25 10 0 6 -13 10
-29 10 -21 0 -30 -6 -35 -22z"/>
<path d="M950 537 c0 -33 29 -98 46 -104 6 -2 16 24 23 57 11 47 11 64 2 73
-9 9 -14 8 -21 -3 -7 -12 -12 -12 -22 -2 -20 20 -28 14 -28 -21z m30 -8 c0 -8
5 -8 15 1 12 10 15 9 14 -6 -1 -11 -4 -30 -9 -44 -7 -25 -8 -24 -24 12 -19 44
-19 48 -6 48 6 0 10 -5 10 -11z"/>
<path d="M586 508 c-3 -29 -5 -64 -5 -78 1 -23 2 -23 8 4 8 41 31 46 31 7 0
-16 5 -33 10 -36 6 -3 10 4 10 16 0 31 -31 139 -40 139 -4 0 -10 -24 -14 -52z
m21 -20 c-3 -8 -6 -5 -6 6 -1 11 2 17 5 13 3 -3 4 -12 1 -19z"/>
</g>
</svg>
