<svg xmlns="http://www.w3.org/2000/svg" width="143" height="86" viewBox="0 0 143 86"><g><g><g transform="scale(-1 1) rotate(10 0 -774.249)"><g><path fill="#fff" d="M45.676 73.753c-.066-1.714 2.886-2.285 3.695-.348 1.223 2.927 2.099 5.971 2.918 9.033.929-2.972 1.672-6.009 2.432-9.018a1.777 1.777 0 0 1 1.245-1.244 60.67 60.67 0 0 1 7.296-1.443c9.22-1.24 18.518-.984 27.79-1.464 8.318-.43 16.986-1.359 24.537-5.14 6.177-3.096 11.778-7.459 16.199-12.782 4.132-4.974 7.507-11.22 7.661-17.824.29-12.434-9.913-21.448-20.734-25.502-11.482-4.302-24.007-5.29-36.175-4.949-13.02.368-26.055 2.243-38.625 5.671-5.458 1.486-10.882 3.235-16.064 5.522-4.54 2.004-9.194 4.331-12.86 7.738-8.945 8.31-13.473 22.65-8.043 34.126 3.229 6.824 9.235 11.296 16.373 13.513 7.288 2.264 14.97 2.381 22.355 4.111"/></g><g><path d="M46.28 75.536c-9.316-1.501-18.862-1.171-27.745-4.887C12.262 68.026 6.899 63.21 4.18 56.903 1.727 51.213 1.18 44.95 2.387 38.876c1.23-6.183 4.12-12.08 8.367-16.755 3.597-3.959 8.078-6.807 12.862-9.12 10.56-5.108 22.113-8.216 33.63-10.258C70.164.452 83.443-.614 96.546.41c11.183.873 23.073 2.942 32.692 9.084 5.21 3.327 9.627 8 12.106 13.713 2.7 6.224 2.563 13.314.06 19.586-5.017 12.567-16.89 22.831-29.749 26.83-17.445 5.425-36.16 1.413-53.748 5.744-1.139 4.584-2.32 9.173-4.148 13.539-.653 1.56-2.957 1.878-3.493 0-1.274-4.47-2.298-9.032-3.985-13.37zm-22.965-5.892c7.289 2.264 14.97 2.382 22.355 4.111-.066-1.714 2.886-2.285 3.696-.348 1.222 2.927 2.098 5.972 2.917 9.033.93-2.972 1.673-6.009 2.432-9.018a1.777 1.777 0 0 1 1.245-1.244 60.67 60.67 0 0 1 7.296-1.442c9.22-1.24 18.518-.985 27.79-1.465 8.318-.43 16.987-1.358 24.537-5.14 6.177-3.096 11.778-7.459 16.2-12.781 4.132-4.974 7.507-11.22 7.66-17.825.29-12.434-9.913-21.448-20.734-25.501-11.482-4.303-24.007-5.292-36.175-4.95-13.019.368-26.055 2.244-38.625 5.671-5.457 1.487-10.881 3.236-16.063 5.522-4.541 2.004-9.194 4.332-12.861 7.738-8.944 8.31-13.472 22.65-8.042 34.126 3.229 6.824 9.234 11.296 16.372 13.513z"/></g></g><g><path d="M28.676 29.42c0 5.784.014 11.625-.57 17.39-.727-1.817-1.021-3.899-1.279-5.75-.41-2.939-.498-5.915-.762-8.87-.109-1.203-1.731-1.224-1.81 0-.31 4.856.279 9.81-.228 14.653-1.696-5.73-2.772-11.67-3.61-17.587-.097-.687-1.244-.526-1.163.164.829 7.12 1.998 14.206 4.267 20.998.242.722 1.312.829 1.507 0 .37-1.587.586-3.191.71-4.805.467 1.755 1.168 3.432 2.296 4.824.427.525 1.486.285 1.58-.436.895-6.809.886-13.72.886-20.58 0-1.228-1.824-1.228-1.824 0"/></g><g><path d="M42.871 46.325c-1.312.929-2.658 1.424-4.19 1.369-.035-2.644-.134-5.285-.24-7.927.59.037 1.184.049 1.764.075 1.173.055 2.356.227 3.45-.245.778-.336.778-1.69 0-2.027-1.094-.472-2.277-.3-3.45-.246-.606.028-1.229.04-1.847.082-.06-2.072-.119-4.184-.396-6.23.26-.019.52-.041.781-.068.888-.09 1.885-.01 2.724-.313 1.034-.374 1.086-1.77 0-2.126-1.282-.42-2.865.04-4.299.332a.873.873 0 0 0-.752.135c-.146.02-.29.04-.43.052-1.28.11-1.325 1.874-.072 2.01-.295 2.647-.107 5.413-.02 8.036.105 3.198.214 6.397.208 9.599 0 .532.393 1.135.953 1.236 2.612.475 4.967.031 7.129-1.524 1.34-.964.057-3.19-1.313-2.22"/></g><g><g><path fill="#0b0212" d="M76.97 40.014c.795 2.978 1.497 6.092 1.407 9.192-.043 1.49-2.22 1.476-2.302 0a44.942 44.942 0 0 0-1.046-7.459c-.382-.007-.766-.04-1.123-.038-.537.003-1.117-.017-1.682.022-.342 2.31-.64 4.624-.83 6.943-.06.709-1.063.717-1.109 0-.142-2.275.01-4.513.274-6.74-.494-.217-.678-1.045-.1-1.362.097-.052.195-.1.294-.145.45-3.273 1.05-6.53 1.219-9.85.058-1.157 1.57-1.313 1.958-.264 1.167 3.16 2.171 6.447 3.04 9.701zm-2.466-.343c-.027-.1-.052-.2-.08-.301-.372-1.31-.798-2.615-1.205-3.924-.24 1.485-.483 2.971-.717 4.46.364-.063.73-.106 1.1-.14.281-.024.588-.064.902-.095z"/></g><g><path d="M93.773 47.516a.98.98 0 0 1-1.19 1.192c-.952-.212-1.544-1.006-2.22-1.655a43.476 43.476 0 0 0-2.04-1.874 24.915 24.915 0 0 0-1.607-1.254l.074.805c.136 1.476.425 3.063.289 4.544-.138 1.495-2.587 2.105-2.83.383-.229-1.622-.232-3.292-.358-4.927-.067-.858-.133-1.715-.195-2.574l-.108-.05c-.76-.343-.717-1.38-.246-1.914.071-.083.139-.166.208-.25-.021-.378-.043-.76-.06-1.14-.156-3.497-.242-7.469 1.454-10.642.459-.858 1.635-.233 1.48.625-.036.192-.067.384-.096.578.472-.253.97-.36 1.461-.184 1.171.416 1.389 1.684 1.362 2.794-.068 2.776-1.183 5.733-2.76 8.154l.055.708c1.286.745 2.484 1.64 3.61 2.611.796.689 1.57 1.4 2.322 2.138.595.582 1.21 1.091 1.395 1.932zm-7.68-12.215c.272-.746.508-1.503.716-2.258.14-.508.296-1.04.3-1.57 0-.124-.027-.277-.045-.393a.839.839 0 0 0-.254.1c-.25.147-.484.314-.71.49a38.918 38.918 0 0 0-.007 3.63z"/></g><g><path d="M107.137 45.619c-2.504.423-5.025.829-7.564.995a63.034 63.034 0 0 1-.798-6.522c.783.09 1.568.16 2.354.21 1.288.084 2.978.391 4.203-.058 1.103-.405 1.103-1.783 0-2.188-1.225-.45-2.915-.142-4.203-.058-.821.052-1.643.127-2.46.223-.11-2.571-.068-5.148.113-7.702.94.102 1.883.166 2.833.228 1.3.086 2.882.293 3.913-.607.28-.242.28-.742 0-.986-.965-.843-2.208-.635-3.425-.623-1.531.015-3.073.174-4.583.403-.684.104-.724 1.177-.121 1.395-.586 2.723-.787 5.52-.725 8.322-.243.283-.232.778.036 1.04.124 2.791.485 5.578.959 8.287.08.458.587.751 1.026.763 3.062.08 6.063-.384 9.083-.855 1.524-.237.885-2.526-.641-2.267"/></g><g><path d="M64.348 44.193c-.405 1.808-.923 4.891-3.48 4.15-2.293-.664-3.787-3.437-4.468-5.52-.96-2.94-.689-6.147.836-8.83.686-1.205 1.565-2.346 2.713-3.14 1.34-.928 2.007 1.007 2.39 1.996.205.532 1.128.514 1.072-.145-.14-1.616-.703-3.631-2.586-3.88-1.72-.227-3.151 1.175-4.141 2.392-2.708 3.327-3.583 7.515-2.451 11.655.836 3.057 3.029 6.529 6.28 7.387 3.523.928 5.443-2.884 5.591-5.827.05-1.008-1.536-1.22-1.756-.238"/></g></g><g><path d="M127.67 28.274c3.132 5.974-1.538 11.868-1.61 17.933-.017 1.39-2.147 1.392-2.126 0 0-.055.004-.11.006-.165-2.276-2.166-3.833-5.527-4.81-8.485-.997-3.014-1.429-6.422.248-9.275.483-.823 1.567-.566 1.87.249.49 1.314 1.597 2.23 2.519 3.268.232-.306.471-.608.7-.915.394-.53 1.216-1.375 1.266-2.077.069-.982 1.419-1.52 1.937-.533zm-1.082 3.28c-.65.863-1.407 1.68-1.885 2.58-.363.686-1.414.676-1.78 0-.473-.872-1.264-1.546-1.901-2.292a17.415 17.415 0 0 1-.584-.721c-.487 2.115.034 4.45.753 6.462.77 2.162 1.962 4.085 2.993 6.098.358-2.061 1.037-4.058 1.624-6.075.575-1.982 1.078-4.053.78-6.053z"/></g></g></g></svg>