<svg xmlns="http://www.w3.org/2000/svg" width="190" height="114" viewBox="0 0 190 114"><g><g><g transform="scale(-1 1) rotate(10 0 -1035.07)"><g><path fill="#fff" d="M60.538 97.314c-.088-2.285 3.848-3.047 4.927-.464 1.63 3.903 2.798 7.962 3.89 12.044 1.239-3.963 2.23-8.012 3.243-12.024.2-.791.874-1.455 1.66-1.659a80.894 80.894 0 0 1 9.728-1.923c12.294-1.653 24.69-1.313 37.053-1.953 11.09-.572 22.649-1.811 32.716-6.854 8.236-4.127 15.704-9.944 21.599-17.041 5.51-6.632 10.01-14.96 10.215-23.766.386-16.579-13.218-28.597-27.646-34.002-15.31-5.737-32.01-7.055-48.233-6.599-17.36.49-34.74 2.991-51.5 7.561-7.277 1.982-14.51 4.314-21.418 7.363-6.055 2.672-12.26 5.775-17.148 10.317C7.698 39.394 1.66 58.515 8.9 73.815c4.305 9.099 12.313 15.062 21.83 18.018 9.718 3.018 19.96 3.175 29.807 5.481"/></g><g><path d="M61.348 99.689c-12.423-2.002-25.15-1.562-36.995-6.517-8.364-3.497-15.514-9.918-19.138-18.327-3.272-7.588-4.002-15.938-2.392-24.036 1.639-8.245 5.493-16.108 11.156-22.34 4.796-5.28 10.77-9.077 17.149-12.161 14.08-6.81 29.484-10.954 44.84-13.677 17.224-3.055 34.929-4.476 52.399-3.11 14.912 1.164 30.765 3.922 43.59 12.112 6.948 4.436 12.837 10.665 16.142 18.284 3.599 8.298 3.417 17.752.079 26.114-6.688 16.756-22.52 30.442-39.664 35.773-23.261 7.234-48.215 1.885-71.665 7.659-1.518 6.112-3.092 12.23-5.53 18.052-.871 2.08-3.943 2.504-4.658 0-1.698-5.96-3.063-12.043-5.313-17.826zm-30.623-7.856c9.718 3.018 19.96 3.175 29.806 5.48-.088-2.284 3.847-3.046 4.926-.463 1.63 3.903 2.798 7.962 3.89 12.044 1.24-3.963 2.23-8.012 3.243-12.024.2-.791.874-1.455 1.66-1.66a80.885 80.885 0 0 1 9.727-1.922c12.294-1.653 24.69-1.313 37.051-1.953 11.09-.572 22.648-1.811 32.715-6.854 8.235-4.127 15.703-9.944 21.597-17.041 5.51-6.632 10.01-14.96 10.215-23.766.386-16.58-13.218-28.597-27.645-34.002-15.308-5.737-32.007-7.055-48.23-6.6-17.358.49-34.738 2.992-51.497 7.562-7.277 1.982-14.508 4.314-21.417 7.363-6.055 2.672-12.258 5.775-17.147 10.317-11.925 11.08-17.962 30.2-10.722 45.5 4.304 9.1 12.312 15.063 21.828 18.019z"/></g></g><g><path d="M37.568 38.227c0 7.711.018 15.5-.76 23.186-.969-2.423-1.362-5.198-1.705-7.667-.547-3.918-.664-7.886-1.017-11.825-.144-1.604-2.307-1.633-2.412 0-.413 6.474.371 13.079-.304 19.536-2.262-7.64-3.697-15.56-4.814-23.45-.13-.914-1.658-.7-1.55.22 1.105 9.493 2.663 18.94 5.689 27.996.323.963 1.75 1.106 2.008 0 .495-2.115.782-4.254.948-6.406.622 2.34 1.557 4.577 3.061 6.432.57.7 1.981.38 2.107-.58C40.012 56.588 40 47.373 40 38.226c0-1.636-2.432-1.636-2.432 0"/></g><g><path d="M56.495 60.766c-1.75 1.24-3.544 1.9-5.586 1.825-.047-3.524-.18-7.046-.322-10.568.787.05 1.58.065 2.352.1 1.565.072 3.143.302 4.602-.327 1.036-.448 1.036-2.255 0-2.703-1.459-.628-3.037-.399-4.602-.327-.807.037-1.637.053-2.462.109-.08-2.763-.158-5.579-.528-8.307.346-.025.694-.055 1.042-.09 1.183-.12 2.513-.013 3.632-.417 1.379-.5 1.448-2.36 0-2.836-1.71-.56-3.82.053-5.732.443a1.164 1.164 0 0 0-1.004.18c-.193.028-.386.052-.572.07-1.706.145-1.766 2.498-.097 2.68-.392 3.528-.142 7.217-.027 10.713.141 4.265.287 8.53.278 12.8 0 .71.524 1.513 1.27 1.648 3.484.632 6.623.041 9.506-2.032 1.787-1.285.076-4.253-1.75-2.96"/></g><g><g><path fill="#0b0212" d="M101.96 52.353c1.06 3.97 1.996 8.121 1.876 12.255-.057 1.988-2.959 1.968-3.069 0a59.922 59.922 0 0 0-1.394-9.945c-.51-.01-1.022-.055-1.499-.051-.715.005-1.488-.023-2.242.03-.457 3.08-.854 6.164-1.108 9.256-.078.945-1.415.956-1.477 0-.19-3.032.014-6.017.365-8.986-.66-.289-.904-1.393-.133-1.816a6.8 6.8 0 0 1 .392-.194c.599-4.364 1.4-8.707 1.625-13.132.078-1.544 2.093-1.752 2.61-.353 1.556 4.213 2.896 8.596 4.053 12.936zm-3.287-.463c-.037-.134-.07-.267-.108-.4-.495-1.746-1.064-3.483-1.607-5.226-.32 1.978-.644 3.957-.955 5.938.485-.083.974-.14 1.467-.184.374-.033.783-.087 1.203-.128z"/></g><g><path d="M124.364 62.355c.22.985-.602 1.806-1.586 1.589-1.27-.283-2.06-1.34-2.96-2.207-.886-.854-1.782-1.702-2.722-2.499a33.214 33.214 0 0 0-2.14-1.67c.032.357.066.713.097 1.072.181 1.968.567 4.084.385 6.059-.183 1.993-3.448 2.806-3.772.51-.306-2.163-.31-4.389-.478-6.57a776.888 776.888 0 0 1-.26-3.43c-.048-.022-.096-.047-.144-.068-1.014-.456-.956-1.84-.328-2.552.095-.11.185-.221.278-.332-.03-.506-.058-1.014-.08-1.52-.209-4.664-.323-9.96 1.938-14.19.611-1.144 2.18-.311 1.973.833-.047.256-.089.512-.128.771.63-.337 1.294-.481 1.949-.246 1.56.555 1.851 2.246 1.815 3.726-.09 3.7-1.577 7.644-3.68 10.872l.074.944c1.714.993 3.311 2.185 4.812 3.481a67.348 67.348 0 0 1 3.097 2.85c.793.776 1.612 1.456 1.86 2.577zm-10.241-16.287c.36-.994.67-2.004.945-3.011.186-.677.392-1.385.397-2.094.001-.164-.036-.368-.059-.523-.088.02-.201.053-.335.134-.331.195-.64.418-.939.653a52.387 52.387 0 0 0-.01 4.84z"/></g><g><path d="M142.183 59.825c-3.339.565-6.7 1.105-10.086 1.327a84.047 84.047 0 0 1-1.063-8.697 60.9 60.9 0 0 0 3.137.28c1.718.113 3.971.523 5.605-.077 1.471-.54 1.471-2.377 0-2.917-1.634-.599-3.887-.189-5.605-.077-1.094.07-2.189.17-3.28.297a90.906 90.906 0 0 1 .152-10.268c1.254.134 2.51.22 3.778.303 1.732.115 3.842.39 5.217-.809.373-.323.373-.99 0-1.315-1.287-1.123-2.945-.847-4.568-.83-2.041.019-4.096.232-6.11.537-.912.139-.965 1.569-.162 1.86-.781 3.63-1.048 7.359-.965 11.095-.325.378-.31 1.039.047 1.387.165 3.722.647 7.438 1.279 11.05.106.61.783 1.001 1.367 1.017 4.083.106 8.084-.513 12.111-1.14 2.032-.315 1.18-3.369-.854-3.023"/></g><g><path d="M85.13 57.924c-.54 2.41-1.23 6.522-4.64 5.533-3.057-.884-5.049-4.582-5.956-7.36-1.281-3.92-.92-8.196 1.115-11.773.913-1.607 2.086-3.128 3.617-4.188 1.786-1.236 2.675 1.344 3.186 2.662.273.71 1.504.686 1.429-.192-.187-2.156-.937-4.842-3.448-5.173-2.294-.304-4.202 1.566-5.521 3.188-3.61 4.436-4.778 10.02-3.268 15.54 1.115 4.076 4.039 8.706 8.373 9.85 4.698 1.237 7.258-3.846 7.455-7.77.067-1.343-2.047-1.626-2.342-.317"/></g></g><g><path d="M169.56 36.699c4.176 7.965-2.05 15.823-2.148 23.91-.022 1.853-2.862 1.856-2.834 0 .001-.073.006-.146.008-.22-3.034-2.888-5.11-7.369-6.414-11.313-1.328-4.019-1.904-8.562.332-12.366.644-1.097 2.09-.755 2.494.33.652 1.754 2.129 2.976 3.358 4.359.31-.409.628-.811.933-1.22.525-.708 1.622-1.834 1.689-2.77.09-1.31 1.891-2.026 2.582-.71zm-1.433 4.372c-.867 1.152-1.878 2.24-2.516 3.441-.485.914-1.888.901-2.377 0-.631-1.162-1.687-2.061-2.537-3.057-.27-.317-.532-.637-.78-.96-.65 2.82.047 5.933 1.005 8.615 1.029 2.884 2.62 5.448 3.996 8.132.478-2.75 1.385-5.411 2.167-8.101.768-2.642 1.44-5.403 1.042-8.07z"/></g></g></g></svg>