<svg xmlns="http://www.w3.org/2000/svg" width="71" height="82" viewBox="0 0 71 82"><g><g><g transform="matrix(1 0 0 -1 0 82)"><g/><g/><g><path fill="#0b0212" d="M61.572 42.207c-.357.65-.702 2.001-1.52 2.16-.018.003-.037.001-.055.003.165 3.074.037 6.178.045 9.258.007 3.003.037 6.006.033 9.009 0 2.917-.018 5.835-.138 8.75-.057 1.454-.12 2.91-.222 4.36-.03.391-.041.798-.063 1.203 1.068-.007 1.023 1.722-.11 1.848-.076.009-.154.015-.232.023-.017.042-.03.085-.047.126-.183.413-.83.347-1.015-.02-5.433.526-10.896.569-16.352.61-2.996.024-5.994.044-8.988.153-2.352.087-4.705.338-7.058.305-4.085-.057-8.154-.489-12.239-.542-2.008-.025-4.061-.027-6.05.3-1.333.218-2.787.945-4.123.902a.736.736 0 0 1-.237.233.434.434 0 0 1-.441 0c-.548-.34-.376-1.124-.372-1.68l.02-3.03.006-.42a.74.74 0 0 1-.264-.614C2.682 51.056-.183 27.055.24 2.977a.395.395 0 0 1 .066-.216c-.426-.273-.438-1.093.16-1.192C5.215.779 10.111.487 14.911.155c4.967-.343 9.943-.577 14.922-.646 4.627-.063 9.202.207 13.818.47 2.266.128 4.54.239 6.812.18 2.149-.057 4.223-.364 6.35-.637.83-.107.942 1.177.208 1.417.236 2.129.233 4.297.32 6.434.097 2.351.19 4.703.266 7.055.15 4.674.461 9.434.268 14.113 1.508-.367 3.288.004 4.765.21 2.397.337 4.988.686 7.245 1.595.66.266.638 1.099.165 1.374a.626.626 0 0 1-.127.136c-2.393 1.776-4.406 4.241-6.068 6.689-.806 1.19-1.59 2.4-2.283 3.662zm-1.024-.98a40.966 40.966 0 0 1 2.565-4.004c1.56-2.116 3.244-4.26 5.475-5.674-1.976-.514-3.93-1.059-5.951-1.405-1.635-.282-3.3-.38-4.932-.628-.336.401-1.118.268-1.153-.403-.253-4.878-.11-9.799-.256-14.685-.07-2.352-.145-4.704-.228-7.055-.072-2.033-.246-4.095-.198-6.136-3.77.85-7.989.518-11.76.301-4.597-.264-9.161-.57-13.77-.51-4.983.065-9.965.269-14.938.61-4.797.328-9.594.942-14.394 1.19.018.043.03.092.03.149.442 23.033 2.76 46.02 2.782 69.06a.533.533 0 0 1 .132.376l.01.53a.3.3 0 0 1 .125.25c.012.9-.027 1.786-.07 2.674a65.5 65.5 0 0 1-.027 3.118c.926-.543 2.198-.748 3.114-.89 1.92-.301 3.859-.41 5.8-.409 4.227.002 8.435.437 12.658.491 2.452.033 4.896-.222 7.346-.307 2.994-.103 5.992-.136 8.988-.162 5.43-.047 10.87-.095 16.279-.62.074-.743.214-1.494.268-2.195.1-1.316.178-2.634.227-3.954.107-2.923.142-5.848.146-8.773.007-5.893-.428-11.98.275-17.84a.473.473 0 0 1 .36-.42c-.195-.843.726-2.027 1.097-2.68z"/></g></g><g><path fill="#0b0212" d="M27.588 60.307c.59 2.205 1.11 4.512 1.043 6.808-.032 1.105-1.644 1.094-1.705 0a33.29 33.29 0 0 0-.775-5.524c-.283-.006-.567-.03-.832-.029-.397.003-.827-.013-1.246.017a79.535 79.535 0 0 0-.615 5.142c-.043.525-.787.531-.82 0-.106-1.685.007-3.343.202-4.992-.366-.16-.502-.774-.074-1.009.072-.039.145-.074.218-.108.332-2.424.777-4.837.902-7.295.044-.858 1.164-.974 1.451-.197.864 2.34 1.608 4.776 2.251 7.187zm-1.825-.245l-.06-.224c-.275-.973-.591-1.942-.893-2.915-.178 1.104-.358 2.208-.53 3.313.269-.046.54-.078.814-.103.208-.018.436-.048.669-.07z"/></g><g><path d="M19.35 63.402c-.3 1.34-.683 3.623-2.578 3.074-1.698-.491-2.805-2.546-3.309-4.089-.711-2.178-.51-4.553.62-6.54.507-.893 1.158-1.738 2.01-2.327.991-.687 1.485.747 1.77 1.48.15.393.835.38.793-.108-.104-1.197-.52-2.69-1.916-2.874-1.274-.168-2.334.87-3.067 1.772-2.006 2.464-2.654 5.566-1.815 8.633.62 2.264 2.244 4.836 4.652 5.472 2.61.687 4.032-2.137 4.141-4.316.038-.747-1.137-.904-1.3-.177"/></g><g><path d="M20.05 14.626c-.079-.838-1.347-.872-1.332 0 .087 4.84-.986 9.511-2.329 14.129a187.488 187.488 0 0 1-.916 3.028c-1.98-5.96-2.09-12.568-5.259-18.087-.352-.612-1.45-.19-1.168.493 1.274 3.097 2.075 6.33 2.726 9.607.664 3.344 1.259 6.715 2.495 9.905a.905.905 0 0 0 .465.509c-.82 2.75-1.551 5.526-1.855 8.368-.123 1.161 1.845 1.425 2.039.276.806-4.741 2.12-9.31 3.358-13.95 1.239-4.645 2.228-9.45 1.776-14.278"/></g><g><path d="M30.595 23.123c.196 2.807.035 5.696-.598 8.444-.515 2.236-1.364 4.762-3.224 6.248-.526.419-1.17.366-1.565-.202-2.17-3.133-2.762-7.591-2.768-11.306-.004-3.107.465-6.67 2.48-9.143a1.275 1.275 0 0 1-.02-.106c-.13-1.008 1.028-1.7 1.954-1.586.895.11 1.548.57 2.065 1.3 1.248 1.762 1.53 4.26 1.676 6.35zm-1.951.967c-.079-1.867-.215-4.044-1.107-5.732-.159-.3-.293-.523-.447-.675-.154-.154-.163-.18-.306-.21.054.014-.073-.002-.073-.002a2.452 2.452 0 0 0-.094.026c-2.144 2.324-2.336 6.358-2.234 9.3.098 2.842.498 6.087 1.867 8.691.939-1.217 1.433-2.803 1.77-4.264.537-2.33.724-4.746.624-7.134z"/></g><g><path d="M50.438 33.396c-2.917-2.366-4.185-5.49-4.776-9.136-.58-3.577-.42-7.243-.424-10.852.003-1.21-1.874-1.21-1.879 0-.004 1.236-.017 2.473-.014 3.707-.06 3.818-.326 7.707-1.42 11.306-.271.892-.639 1.853-1.32 2.451-.156.139-.368.182-.58.176-.216-.006-.671-.233-.979-.474-1.325-1.037-1.725-2.607-1.998-4.203-.366-2.139-.332-4.378-.185-6.534.116-1.694.272-3.41.735-5.05.218-.772-.913-1.056-1.181-.326-1.351 3.679-1.622 8.023-1.096 11.883.357 2.623 1.561 6.204 4.704 6.473 2.24.19 3.28-2.675 3.768-4.355.157-.54.293-1.087.412-1.64.766 3.163 2.297 6.295 5.083 8.066.9.57 1.995-.807 1.15-1.492"/></g><g><path fill="#0b0212" d="M36.197 49.24c-.486-.606-1.456.048-1.257.731.786 2.699.92 5.207.754 8.022-.11 1.88-.33 3.75-.537 5.62-1.516-3.415-2.918-6.874-3.903-10.49-.218-.803-1.472-.646-1.454.196.047 2.256.077 4.51.097 6.766.019 2.114-.06 4.243.338 6.329.058.303.552.303.61 0 .399-2.086.32-4.215.338-6.33.006-.65.015-1.302.022-1.953 1.078 3.065 2.412 6.04 3.75 9.008.37.82 1.468.309 1.532-.415.283-3.166.764-6.308.945-9.484.138-2.427.392-5.975-1.235-8"/></g><g><path d="M42.307 65.666c-.034-.212-.232-.443-.418-.539-.072-.036-.148-.064-.223-.093a.723.723 0 0 0-.447.003 1.416 1.416 0 0 0-.152.06c-.562-.013-1.067.417-1.067 1.017 0 .681.651 1.145 1.296.988.18-.044.35-.095.516-.185.342-.183.509-.538.535-.908.008-.113-.022-.239-.04-.343"/></g><g><path d="M46.307 65.666c-.034-.212-.232-.443-.418-.539-.072-.036-.148-.064-.223-.093a.723.723 0 0 0-.447.003 1.416 1.416 0 0 0-.152.06c-.562-.013-1.067.417-1.067 1.017 0 .681.651 1.145 1.296.988.18-.044.35-.095.516-.185.342-.183.509-.538.535-.908.008-.113-.022-.239-.04-.343"/></g><g><path d="M50.807 65.666c-.034-.212-.232-.443-.418-.539-.072-.036-.148-.064-.223-.093a.723.723 0 0 0-.447.003 1.416 1.416 0 0 0-.152.06c-.562-.013-1.067.417-1.067 1.017 0 .681.651 1.145 1.296.988.18-.044.35-.095.516-.185.342-.183.509-.538.535-.908.008-.113-.022-.239-.04-.343"/></g></g></g></svg>