<svg xmlns="http://www.w3.org/2000/svg" width="20" height="19" viewBox="0 0 20 19"><g><g><g><path fill="#2f5095" d="M8.572 10.26c0-1.064-.867-1.93-1.931-1.93-1.065 0-1.931.866-1.931 1.93h1.172a.76.76 0 0 1 1.518 0z"/></g><g><path fill="#2f5095" d="M13.36 8.33c-1.064 0-1.93.866-1.93 1.93h1.172a.76.76 0 0 1 1.518 0h1.172c0-1.064-.867-1.93-1.931-1.93z"/></g><g><path fill="#2f5095" d="M10.002 13.687c-.74 0-1.435-.397-1.813-1.037l-1.009.596a3.291 3.291 0 0 0 2.822 1.613 3.291 3.291 0 0 0 2.822-1.613l-1.009-.596a2.114 2.114 0 0 1-1.813 1.037z"/></g><g><path fill="#2f5095" d="M16.985 11.475l-.114.424A7.129 7.129 0 0 1 10 17.158a7.128 7.128 0 0 1-6.87-5.259l-.116-.424-.44-.009a1.438 1.438 0 0 1-1.402-1.432c0-.382.149-.742.419-1.012.263-.264.612-.412.984-.42l.44-.008.114-.425A7.129 7.129 0 0 1 10 2.911a1.924 1.924 0 0 1 0 3.845c-1.058 0-1.92-.862-1.92-1.922H6.907A3.097 3.097 0 0 0 10 7.929a3.097 3.097 0 0 0 2.78-4.45 7.125 7.125 0 0 1 4.09 4.69l.115.425.44.009a1.425 1.425 0 0 1 1.403 1.432c0 .774-.63 1.417-1.403 1.431zm2.252-3.286a2.59 2.59 0 0 0-1.35-.716A8.304 8.304 0 0 0 10 1.741h-.393c-.943 0-1.71-.768-1.71-1.711H6.723c0 .64.21 1.232.565 1.71h-.372c-.943 0-1.71-.767-1.71-1.71H4.034c0 1.273.83 2.356 1.977 2.736a8.29 8.29 0 0 0-3.899 4.707 2.59 2.59 0 0 0-1.35.716A2.588 2.588 0 0 0 0 10.03c0 .687.265 1.335.746 1.825.376.382.85.635 1.367.733A8.304 8.304 0 0 0 10 18.319a8.304 8.304 0 0 0 7.887-5.732c.517-.098.991-.35 1.367-.733.48-.49.746-1.138.746-1.824 0-.695-.27-1.349-.763-1.841z"/></g></g></g></svg>