<svg xmlns="http://www.w3.org/2000/svg" width="16" height="20" viewBox="0 0 16 20"><defs><clipPath id="j0q2a"><path fill="#fff" d="M4.7 11.3V3.7h6.6v7.6zm5.3-4c0-.99-.81-1.8-1.8-1.8s-1.8.81-1.8 1.8.81 1.8 1.8 1.8S10 8.29 10 7.3z"/></clipPath></defs><g><g><g><path fill="none" stroke="#315293" stroke-miterlimit="20" stroke-width="2.6" d="M8.2 9.1c-.99 0-1.8-.81-1.8-1.8s.81-1.8 1.8-1.8 1.8.81 1.8 1.8-.81 1.8-1.8 1.8z" clip-path="url(&quot;#j0q2a&quot;)"/></g><g><path fill="none" stroke="#315293" stroke-miterlimit="20" stroke-width="1.3" d="M8.2 1c3.78 0 7.2 2.898 7.2 7.38 0 2.988-2.403 6.525-7.2 10.62C3.403 14.905 1 11.368 1 8.38 1 3.898 4.42 1 8.2 1z"/></g></g></g></svg>