<svg xmlns="http://www.w3.org/2000/svg" width="155" height="119" viewBox="0 0 155 119"><g><g><g><g><path fill="#adc7f7" d="M117.146 16.068s-15.098-16.542-39-15.75c-23.903.79-44.292 16.818-61.148 29.358S-4.377 61.694 5.422 76.9c9.799 15.206 25.414 8.805 45.292 18.675 19.88 9.87 23.655 15.476 45.8 13.076 22.143-2.4 39-26.947 36.487-53.096-2.513-26.149-15.855-39.487-15.855-39.487z"/></g><g opacity=".7"><path fill="#fff" d="M117.146 16.068s-15.098-16.542-39-15.75c-23.903.79-44.292 16.818-61.148 29.358S-4.377 61.694 5.422 76.9c9.799 15.206 25.414 8.805 45.292 18.675 19.88 9.87 23.655 15.476 45.8 13.076 22.143-2.4 39-26.947 36.487-53.096-2.513-26.149-15.855-39.487-15.855-39.487z"/></g></g><g><g><path fill="#adc7f7" d="M80.105 118.222c41.115 0 74.445-1.818 74.445-4.06 0-2.244-33.33-4.062-74.445-4.062-41.115 0-74.445 1.818-74.445 4.061s33.33 4.061 74.445 4.061z"/></g><g opacity=".3"><path fill="#fff" d="M80.105 118.222c41.115 0 74.445-1.818 74.445-4.06 0-2.244-33.33-4.062-74.445-4.062-41.115 0-74.445 1.818-74.445 4.061s33.33 4.061 74.445 4.061z"/></g></g><g><g><path fill="#adc7f7" d="M124.101 52.954c-.022 0 .259-1.399.289-1.5.323-.998 1.538-2.738 2.711-2.734a1.391 1.391 0 0 1 1.339 1.579c-.086.829-.829 1.53-1.5 1.939-.787.49-2.839.716-2.839.716z"/></g><g><path fill="#adc7f7" d="M121.822 43.53c1.106.397 1.657 2.445 1.62 3.495 0 .09-.21 1.5-.229 1.5h-.022c.086.322.18.671.273 1.05.165.705.345 1.5.484 2.385.16.95.266 1.907.315 2.869.06 1.076.023 2.155-.109 3.225a.112.112 0 0 0 0 .037c.147-.311.578-1.174.62-1.237.577-.878 2.204-2.25 3.34-1.92a1.391 1.391 0 0 1 .87 1.875c-.3.772-1.2 1.256-1.953 1.47-.852.243-2.75-.045-2.9-.068a24.35 24.35 0 0 1-.697 3.21 43.37 43.37 0 0 1-.57 1.845c.132-.266.255-.502.274-.536.578-.878 2.205-2.25 3.341-1.924a1.387 1.387 0 0 1 .87 1.875c-.3.776-1.2 1.256-1.953 1.474-.754.217-2.39 0-2.817-.056-.078.232-.157.468-.24.7-.375 1.126-.78 2.25-1.125 3.353-.123.375-.232.78-.34 1.17.12-.236.22-.435.24-.46.573-.878 2.204-2.25 3.337-1.925a1.395 1.395 0 0 1 .873 1.875c-.3.773-1.203 1.257-1.957 1.47-.754.214-2.228.027-2.738-.045-.1.405-.198.807-.277 1.2-.049.27-.113.53-.146.803-.034.274-.075.54-.113.802-.052.514-.112 1.047-.15 1.55-.03.348-.052.682-.075 1.015.116-.375.375-1.147.394-1.21a5.438 5.438 0 0 1 1.8-2.048c.041-.094.093-.184.154-.267a1.391 1.391 0 0 1 2.043-.322c.893.75.668 2.88.26 3.847-.023.057-.357.645-.57 1.013.16-.195.31-.375.48-.593.325-.397.663-.787 1.023-1.207l.551-.596c.18-.207.398-.398.596-.597.47-.453.968-.892 1.482-1.323-.353-.285-1.58-1.324-1.932-2.03-.352-.704-.603-1.69-.236-2.433a1.391 1.391 0 0 1 1.976-.626c.994.622 1.095 2.741.837 3.75 0 .064-.285.772-.44 1.159.312-.255.62-.514.942-.75.93-.72 1.894-1.418 2.85-2.12l.874-.648c-.124-.101-1.609-1.301-2.006-2.089-.35-.7-.604-1.69-.237-2.437a1.395 1.395 0 0 1 1.977-.626c.993.626 1.095 2.745.836 3.75a28.126 28.126 0 0 1-.518 1.353c.642-.48 1.275-.96 1.875-1.458a24.273 24.273 0 0 0 2.325-2.168c-.056-.045-1.612-1.29-2.017-2.1-.353-.701-.604-1.691-.236-2.434a1.387 1.387 0 0 1 1.972-.626c.998.623 1.099 2.741.84 3.75-.019.064-.311.844-.461 1.211l.06.034a17.955 17.955 0 0 0 1.909-2.565c.31-.495.585-.986.84-1.474-.315-.202-1.737-1.125-2.183-1.83-.446-.705-.784-1.612-.502-2.392a1.391 1.391 0 0 1 1.875-.84c1.06.51 1.39 2.606 1.245 3.645 0 .056-.15.622-.26 1.035.11-.221.23-.446.33-.66.376-.803.695-1.56.957-2.25.15-.375.274-.75.375-1.061-.206-.375-1.009-1.82-1.087-2.625-.08-.807.048-1.797.66-2.36a1.391 1.391 0 0 1 2.066.132c.705.941.034 2.951-.574 3.81a44.37 44.37 0 0 1-1.02 1.125v-.022c-.105.318-.217.66-.352 1.027-.248.679-.54 1.448-.908 2.25-.392.88-.834 1.736-1.324 2.565a18.198 18.198 0 0 1-1.875 2.625l-.026.03a27.49 27.49 0 0 1 1.196-.69c.968-.412 3.075-.649 3.848.24a1.395 1.395 0 0 1-.308 2.048c-.678.48-1.698.375-2.445.146-.843-.266-2.25-1.553-2.38-1.654a24.323 24.323 0 0 1-2.352 2.291c-.488.42-.986.825-1.5 1.223.259-.146.491-.278.525-.293.964-.412 3.071-.648 3.844.24a1.391 1.391 0 0 1-.308 2.048c-.675.48-1.695.375-2.441.146-.746-.229-1.995-1.309-2.318-1.597l-.588.453a189.43 189.43 0 0 0-2.794 2.172c-.319.258-.623.525-.93.787.232-.131.424-.24.457-.251.964-.416 3.072-.649 3.844.236a1.387 1.387 0 0 1-.307 2.048c-.68.48-1.695.375-2.442.15-.746-.225-1.875-1.208-2.25-1.55-.303.282-.61.56-.892.848-.191.2-.375.375-.563.59-.187.213-.375.404-.54.607-.326.397-.667.81-.978 1.207-.218.274-.42.54-.623.806.311-.258.941-.75.998-.79.888-.556 2.936-1.107 3.836-.35a1.395 1.395 0 0 1 0 2.074c-.596.574-1.616.638-2.389.518-.855-.135-2.4-1.125-2.591-1.268a71.075 71.075 0 0 0-3.364 4.838l-.056.086-.72-.349c.037-.056.075-.109.112-.169a74.29 74.29 0 0 1 2.51-3.528c.34-.45.712-.927 1.098-1.414a15.002 15.002 0 0 1-1.125-1.38c-.829.322-2.55.337-2.771.337a70.485 70.485 0 0 0-.135 5.888v.124l-.792-.375c0-1.024.042-2.415.147-4.054.033-.566.082-1.17.138-1.785-.22-.056-2.01-.518-2.685-1.058-.61-.487-1.256-1.282-1.233-2.11a1.388 1.388 0 0 1 1.53-1.396c1.166.15 2.14 2.033 2.336 3.064 0 .06.06.75.082 1.162.027-.255.045-.498.072-.75.052-.513.12-1.027.19-1.578.042-.263.087-.53.128-.8.042-.27.113-.547.17-.824.142-.638.314-1.279.505-1.92-.45-.049-2.043-.236-2.73-.626-.686-.39-1.436-1.08-1.537-1.902a1.388 1.388 0 0 1 1.301-1.612c1.174-.03 2.426 1.684 2.771 2.674.023.063.192.802.274 1.21.12-.374.233-.772.375-1.154.375-1.125.799-2.228 1.211-3.341.128-.342.248-.683.375-1.02-.16 0-2.062-.2-2.827-.638-.679-.375-1.436-1.08-1.541-1.901a1.395 1.395 0 0 1 1.3-1.613c1.178-.03 2.43 1.684 2.776 2.674.026.075.266 1.125.315 1.414.27-.75.536-1.5.75-2.25.317-1.013.567-2.045.75-3.09-.075 0-2.063-.188-2.843-.638-.682-.375-1.44-1.08-1.54-1.9a1.395 1.395 0 0 1 1.3-1.613c1.174-.027 2.427 1.683 2.772 2.673.022.068.206.878.285 1.264h.067c.155-1.056.215-2.124.18-3.191 0-.589-.056-1.148-.112-1.695-.375 0-2.078 0-2.828-.323-.75-.322-1.549-.915-1.744-1.72a1.391 1.391 0 0 1 1.125-1.745c1.167-.157 2.6 1.407 3.053 2.355.022.053.217.604.349 1.005-.027-.243-.053-.498-.087-.73a30.369 30.369 0 0 0-.43-2.39c-.09-.4-.177-.75-.263-1.098-.375-.188-1.845-.96-2.352-1.587-.506-.626-.948-1.522-.75-2.328a1.391 1.391 0 0 1 1.823-1.01z"/></g><g><path fill="#adc7f7" d="M143.086 61.66c-.919-.038-2.756-.979-2.756-.983 0-.003.986-1.02 1.058-1.076.82-.656 2.793-1.436 3.772-.787a1.395 1.395 0 0 1 .244 2.058c-.525.63-1.534.818-2.318.788z"/></g><g opacity=".5"><g opacity=".5"><path fill="#fff" d="M124.101 52.954c-.022 0 .259-1.399.289-1.5.323-.998 1.538-2.738 2.711-2.734a1.391 1.391 0 0 1 1.339 1.579c-.086.829-.829 1.53-1.5 1.939-.787.49-2.839.716-2.839.716z"/></g><g opacity=".5"><path fill="#fff" d="M121.822 43.53c1.106.397 1.657 2.445 1.62 3.495 0 .09-.21 1.5-.229 1.5h-.022c.086.322.18.671.273 1.05.165.705.345 1.5.484 2.385.16.95.266 1.907.315 2.869.06 1.076.023 2.155-.109 3.225a.112.112 0 0 0 0 .037c.147-.311.578-1.174.62-1.237.577-.878 2.204-2.25 3.34-1.92a1.391 1.391 0 0 1 .87 1.875c-.3.772-1.2 1.256-1.953 1.47-.852.243-2.75-.045-2.9-.068a24.35 24.35 0 0 1-.697 3.21 43.37 43.37 0 0 1-.57 1.845c.132-.266.255-.502.274-.536.578-.878 2.205-2.25 3.341-1.924a1.387 1.387 0 0 1 .87 1.875c-.3.776-1.2 1.256-1.953 1.474-.754.217-2.39 0-2.817-.056-.078.232-.157.468-.24.7-.375 1.126-.78 2.25-1.125 3.353-.123.375-.232.78-.34 1.17.12-.236.22-.435.24-.46.573-.878 2.204-2.25 3.337-1.925a1.395 1.395 0 0 1 .873 1.875c-.3.773-1.203 1.257-1.957 1.47-.754.214-2.228.027-2.738-.045-.1.405-.198.807-.277 1.2-.049.27-.113.53-.146.803-.034.274-.075.54-.113.802-.052.514-.112 1.047-.15 1.55-.03.348-.052.682-.075 1.015.116-.375.375-1.147.394-1.21a5.438 5.438 0 0 1 1.8-2.048c.041-.094.093-.184.154-.267a1.391 1.391 0 0 1 2.043-.322c.893.75.668 2.88.26 3.847-.023.057-.357.645-.57 1.013.16-.195.31-.375.48-.593.325-.397.663-.787 1.023-1.207l.551-.596c.18-.207.398-.398.596-.597.47-.453.968-.892 1.482-1.323-.353-.285-1.58-1.324-1.932-2.03-.352-.704-.603-1.69-.236-2.433a1.391 1.391 0 0 1 1.976-.626c.994.622 1.095 2.741.837 3.75 0 .064-.285.772-.44 1.159.312-.255.62-.514.942-.75.93-.72 1.894-1.418 2.85-2.12l.874-.648c-.124-.101-1.609-1.301-2.006-2.089-.35-.7-.604-1.69-.237-2.437a1.395 1.395 0 0 1 1.977-.626c.993.626 1.095 2.745.836 3.75a28.126 28.126 0 0 1-.518 1.353c.642-.48 1.275-.96 1.875-1.458a24.273 24.273 0 0 0 2.325-2.168c-.056-.045-1.612-1.29-2.017-2.1-.353-.701-.604-1.691-.236-2.434a1.387 1.387 0 0 1 1.972-.626c.998.623 1.099 2.741.84 3.75-.019.064-.311.844-.461 1.211l.06.034a17.955 17.955 0 0 0 1.909-2.565c.31-.495.585-.986.84-1.474-.315-.202-1.737-1.125-2.183-1.83-.446-.705-.784-1.612-.502-2.392a1.391 1.391 0 0 1 1.875-.84c1.06.51 1.39 2.606 1.245 3.645 0 .056-.15.622-.26 1.035.11-.221.23-.446.33-.66.376-.803.695-1.56.957-2.25.15-.375.274-.75.375-1.061-.206-.375-1.009-1.82-1.087-2.625-.08-.807.048-1.797.66-2.36a1.391 1.391 0 0 1 2.066.132c.705.941.034 2.951-.574 3.81a44.37 44.37 0 0 1-1.02 1.125v-.022c-.105.318-.217.66-.352 1.027-.248.679-.54 1.448-.908 2.25-.392.88-.834 1.736-1.324 2.565a18.198 18.198 0 0 1-1.875 2.625l-.026.03a27.49 27.49 0 0 1 1.196-.69c.968-.412 3.075-.649 3.848.24a1.395 1.395 0 0 1-.308 2.048c-.678.48-1.698.375-2.445.146-.843-.266-2.25-1.553-2.38-1.654a24.323 24.323 0 0 1-2.352 2.291c-.488.42-.986.825-1.5 1.223.259-.146.491-.278.525-.293.964-.412 3.071-.648 3.844.24a1.391 1.391 0 0 1-.308 2.048c-.675.48-1.695.375-2.441.146-.746-.229-1.995-1.309-2.318-1.597l-.588.453a189.43 189.43 0 0 0-2.794 2.172c-.319.258-.623.525-.93.787.232-.131.424-.24.457-.251.964-.416 3.072-.649 3.844.236a1.387 1.387 0 0 1-.307 2.048c-.68.48-1.695.375-2.442.15-.746-.225-1.875-1.208-2.25-1.55-.303.282-.61.56-.892.848-.191.2-.375.375-.563.59-.187.213-.375.404-.54.607-.326.397-.667.81-.978 1.207-.218.274-.42.54-.623.806.311-.258.941-.75.998-.79.888-.556 2.936-1.107 3.836-.35a1.395 1.395 0 0 1 0 2.074c-.596.574-1.616.638-2.389.518-.855-.135-2.4-1.125-2.591-1.268a71.075 71.075 0 0 0-3.364 4.838l-.056.086-.72-.349c.037-.056.075-.109.112-.169a74.29 74.29 0 0 1 2.51-3.528c.34-.45.712-.927 1.098-1.414a15.002 15.002 0 0 1-1.125-1.38c-.829.322-2.55.337-2.771.337a70.485 70.485 0 0 0-.135 5.888v.124l-.792-.375c0-1.024.042-2.415.147-4.054.033-.566.082-1.17.138-1.785-.22-.056-2.01-.518-2.685-1.058-.61-.487-1.256-1.282-1.233-2.11a1.388 1.388 0 0 1 1.53-1.396c1.166.15 2.14 2.033 2.336 3.064 0 .06.06.75.082 1.162.027-.255.045-.498.072-.75.052-.513.12-1.027.19-1.578.042-.263.087-.53.128-.8.042-.27.113-.547.17-.824.142-.638.314-1.279.505-1.92-.45-.049-2.043-.236-2.73-.626-.686-.39-1.436-1.08-1.537-1.902a1.388 1.388 0 0 1 1.301-1.612c1.174-.03 2.426 1.684 2.771 2.674.023.063.192.802.274 1.21.12-.374.233-.772.375-1.154.375-1.125.799-2.228 1.211-3.341.128-.342.248-.683.375-1.02-.16 0-2.062-.2-2.827-.638-.679-.375-1.436-1.08-1.541-1.901a1.395 1.395 0 0 1 1.3-1.613c1.178-.03 2.43 1.684 2.776 2.674.026.075.266 1.125.315 1.414.27-.75.536-1.5.75-2.25.317-1.013.567-2.045.75-3.09-.075 0-2.063-.188-2.843-.638-.682-.375-1.44-1.08-1.54-1.9a1.395 1.395 0 0 1 1.3-1.613c1.174-.027 2.427 1.683 2.772 2.673.022.068.206.878.285 1.264h.067c.155-1.056.215-2.124.18-3.191 0-.589-.056-1.148-.112-1.695-.375 0-2.078 0-2.828-.323-.75-.322-1.549-.915-1.744-1.72a1.391 1.391 0 0 1 1.125-1.745c1.167-.157 2.6 1.407 3.053 2.355.022.053.217.604.349 1.005-.027-.243-.053-.498-.087-.73a30.369 30.369 0 0 0-.43-2.39c-.09-.4-.177-.75-.263-1.098-.375-.188-1.845-.96-2.352-1.587-.506-.626-.948-1.522-.75-2.328a1.391 1.391 0 0 1 1.823-1.01z"/></g><g opacity=".5"><path fill="#fff" d="M143.086 61.66c-.919-.038-2.756-.979-2.756-.983 0-.003.986-1.02 1.058-1.076.82-.656 2.793-1.436 3.772-.787a1.395 1.395 0 0 1 .244 2.058c-.525.63-1.534.818-2.318.788z"/></g></g><g><path fill="#adc7f7" d="M132.35 84.667s-5.576-13.443-8.696-12.858c-3.12.585 5.344 21.427 5.344 21.427s-9.81-18.506-16.5-18.506c-6.69 0 2.452 20.456 10.923 27.274 0 0-13.376-14.415-21.18-11.3-7.803 3.117 15.608 17.727 15.608 17.727s-13.601-4.286-12.041-.975c1.56 3.311 5.797 3.896 5.797 3.896l-15.375.78h53.513l-12.042-1.17s12.488-6.232 9.143-8.763c-3.345-2.532-10.703 2.92-10.703 2.92s12.709-14.024 10.257-19.285c-2.453-5.262-13.38 9.547-13.38 9.547s8.92-18.896 7.125-22.207c-1.797-3.312-7.793 11.493-7.793 11.493z"/></g><g opacity=".4"><path fill="#fff" d="M132.35 84.667s-5.576-13.443-8.696-12.858c-3.12.585 5.344 21.427 5.344 21.427s-9.81-18.506-16.5-18.506c-6.69 0 2.452 20.456 10.923 27.274 0 0-13.376-14.415-21.18-11.3-7.803 3.117 15.608 17.727 15.608 17.727s-13.601-4.286-12.041-.975c1.56 3.311 5.797 3.896 5.797 3.896l-15.375.78h53.513l-12.042-1.17s12.488-6.232 9.143-8.763c-3.345-2.532-10.703 2.92-10.703 2.92s12.709-14.024 10.257-19.285c-2.453-5.262-13.38 9.547-13.38 9.547s8.92-18.896 7.125-22.207c-1.797-3.312-7.793 11.493-7.793 11.493z"/></g><g><path fill="none" stroke="#263238" stroke-linecap="round" stroke-linejoin="round" stroke-miterlimit="20" stroke-width=".5" d="M134.139 85.37c-4.909 14.494-4.909 24.75-4.909 24.75v0s5.798.221 11.82-4.237"/></g><g><path fill="none" stroke="#263238" stroke-linecap="round" stroke-linejoin="round" stroke-miterlimit="20" stroke-width=".5" d="M131.686 93.183a87.19 87.19 0 0 0-4.016-12.713"/></g><g><path fill="none" stroke="#263238" stroke-linecap="round" stroke-linejoin="round" stroke-miterlimit="20" stroke-width=".5" d="M117.19 84.71v0l12.484 18.506v0s8.475-7.125 11.373-11.149"/></g><g><path fill="none" stroke="#263238" stroke-linecap="round" stroke-linejoin="round" stroke-miterlimit="20" stroke-width=".5" d="M129.456 107.679s-13.155-6.244-18.506-9.799"/></g></g><g><g><path fill="#fff" d="M74.61 10.85a2.97 2.97 0 0 1 2.97-2.97h40.065a2.97 2.97 0 0 1 2.97 2.97v98.317a2.97 2.97 0 0 1-2.97 2.97H77.58a2.97 2.97 0 0 1-2.97-2.97z"/><path fill="none" stroke="#263238" stroke-linecap="round" stroke-linejoin="round" stroke-miterlimit="20" stroke-width=".5" d="M74.61 10.85a2.97 2.97 0 0 1 2.97-2.97h40.065a2.97 2.97 0 0 1 2.97 2.97v98.317a2.97 2.97 0 0 1-2.97 2.97H77.58a2.97 2.97 0 0 1-2.97-2.97z"/></g><g><path fill="#263238" d="M119.081 26.122a.611.611 0 0 1-.611-.611v-8.194a.615.615 0 0 1 1.226 0v8.179a.615.615 0 0 1-.615.626z"/></g><g><path fill="#263238" d="M119.081 33.717a.611.611 0 0 1-.611-.611v-4.579a.615.615 0 0 1 1.226 0v4.579a.615.615 0 0 1-.615.611z"/></g><g><path fill="#263238" d="M71.14 10.85a2.97 2.97 0 0 1 2.97-2.97h40.065a2.97 2.97 0 0 1 2.97 2.97v98.317a2.97 2.97 0 0 1-2.97 2.97H74.11a2.97 2.97 0 0 1-2.97-2.97z"/><path fill="none" stroke="#263238" stroke-linecap="round" stroke-linejoin="round" stroke-miterlimit="20" stroke-width=".5" d="M71.14 10.85a2.97 2.97 0 0 1 2.97-2.97h40.065a2.97 2.97 0 0 1 2.97 2.97v98.317a2.97 2.97 0 0 1-2.97 2.97H74.11a2.97 2.97 0 0 1-2.97-2.97z"/></g><g><path fill="#adc7f7" d="M74.21 14.82h39.877v89.422H74.21z"/></g><g><path fill="none" stroke="#fff" stroke-linecap="round" stroke-linejoin="round" stroke-miterlimit="20" stroke-width="1.13" d="M88.22 11.957h10.616"/></g><g><path fill="#fff" d="M92.714 107.407c0 .732-.458 1.324-1.024 1.324-.566 0-1.02-.592-1.02-1.323 0-.732.457-1.328 1.02-1.328.562 0 1.024.593 1.024 1.327z"/></g><g><path fill="#fff" d="M94.145 37.065c3.819 0 6.915-3.61 6.915-8.063 0-4.452-3.096-8.062-6.915-8.062s-6.915 3.61-6.915 8.062c0 4.453 3.096 8.063 6.915 8.063z"/></g><g><path fill="#263238" d="M94.145 28.907c1.45 0 2.625-1.371 2.625-3.063 0-1.692-1.175-3.064-2.625-3.064s-2.625 1.372-2.625 3.064 1.175 3.063 2.625 3.063z"/><path fill="none" stroke="#263238" stroke-linecap="round" stroke-linejoin="round" stroke-miterlimit="20" stroke-width=".5" d="M94.145 28.907c1.45 0 2.625-1.371 2.625-3.063 0-1.692-1.175-3.064-2.625-3.064s-2.625 1.372-2.625 3.064 1.175 3.063 2.625 3.063z"/></g><g><path fill="#263238" d="M94.144 29.72c-2.625 0-4.774 2.014-4.774 4.5.002.231.023.462.064.69a6.202 6.202 0 0 0 9.42 0c.037-.228.057-.459.06-.69 0-2.486-2.138-4.5-4.77-4.5z"/><path fill="none" stroke="#263238" stroke-linecap="round" stroke-linejoin="round" stroke-miterlimit="20" stroke-width=".5" d="M94.144 29.72c-2.625 0-4.774 2.014-4.774 4.5.002.231.023.462.064.69a6.202 6.202 0 0 0 9.42 0c.037-.228.057-.459.06-.69 0-2.486-2.138-4.5-4.77-4.5z"/></g><g><path fill="#263238" d="M87.343 52.01c0-4.057 3.054-7.36 6.803-7.36 3.75 0 6.8 3.303 6.8 7.36v8.623H87.343zm15.206 12.113a1.68 1.68 0 0 0 1.609-1.752V52c0-5.974-4.497-10.849-10.017-10.849s-10.02 4.867-10.02 10.849v10.38a1.68 1.68 0 0 0 1.613 1.744z"/></g><g><path fill="#fff" d="M82.47 57.04h23.348v22.087H82.47z"/></g><g><path fill="#263238" d="M97.544 72.249l-1.733-4.166A3.071 3.071 0 0 0 97.03 65.6c0-1.661-1.241-3-2.775-3-1.534 0-2.771 1.342-2.771 3a3.068 3.068 0 0 0 1.215 2.482L90.97 72.25z"/><path fill="none" stroke="#263238" stroke-linecap="round" stroke-linejoin="round" stroke-miterlimit="20" stroke-width=".5" d="M97.544 72.249v0l-1.733-4.166A3.071 3.071 0 0 0 97.03 65.6c0-1.661-1.241-3-2.775-3-1.534 0-2.771 1.342-2.771 3a3.068 3.068 0 0 0 1.215 2.482L90.97 72.25v0z"/></g><g><path fill="#fff" d="M87.025 98.974c.036.026.08.04.124.041a.195.195 0 0 0 .161-.086l26.768-36.409v-.69L86.995 98.689a.203.203 0 0 0 .03.285z"/></g><g><path fill="#fff" d="M108.7 27.939a.203.203 0 0 0 .045.285.206.206 0 0 0 .285-.045l5.055-6.874v-.675z"/></g><g><path fill="#fff" d="M74.21 75.55l33.045-44.936a.204.204 0 0 0-.33-.24l-32.7 44.486z"/></g><g><path fill="#fff" d="M83.926 103.41a.214.214 0 0 0 .165-.082l1.875-2.535a.202.202 0 0 0-.045-.285.206.206 0 0 0-.285.045l-1.875 2.531a.202.202 0 0 0 .041.285.191.191 0 0 0 .124.042z"/></g><g><path fill="#fff" d="M114.084 69.81L92.11 99.701a.202.202 0 0 0 .165.323.199.199 0 0 0 .165-.083l21.645-29.445z"/></g></g><g><g><path fill="#263238" d="M36.907 27.804a5.959 5.959 0 0 0 .525-2.625c0-1.676-2.028-2.648-4.413-2.914-2.385-.266-3.443.705-3.09 1.324.366.51.813.957 1.323 1.324 0 0-2.385-1.324-3.975-.263-1.59 1.061.71.619.267 1.676-.443 1.058-2.914.62-3.533 3.443-.619 2.824 1.148 5.651-.442 6.889-1.59 1.237-6.375-.443-7.77 2.647-1.395 3.09.585 4.463-2.768 6.405-3.352 1.943-5.797 3.84-4.826 8.606.971 4.767 4.151 6.435 10.421 4.752 6.27-1.684 5.828-5.475 7.875-9.375 2.048-3.9 5.213-3.09 6.184-5.3.971-2.208-.266-4.855-.176-6.888.09-2.032 2.118-2.471 2.913-4.875.795-2.404 1.485-4.826 1.485-4.826z"/><path fill="none" stroke="#263238" stroke-linecap="round" stroke-linejoin="round" stroke-miterlimit="20" stroke-width=".5" d="M36.907 27.804a5.959 5.959 0 0 0 .525-2.625c0-1.676-2.028-2.648-4.413-2.914-2.385-.266-3.443.705-3.09 1.324.366.51.813.957 1.323 1.324 0 0-2.385-1.324-3.975-.263-1.59 1.061.71.619.267 1.676-.443 1.058-2.914.62-3.533 3.443-.619 2.824 1.148 5.651-.442 6.889-1.59 1.237-6.375-.443-7.77 2.647-1.395 3.09.585 4.463-2.768 6.405-3.352 1.943-5.797 3.84-4.826 8.606.971 4.767 4.151 6.435 10.421 4.752 6.27-1.684 5.828-5.475 7.875-9.375 2.048-3.9 5.213-3.09 6.184-5.3.971-2.208-.266-4.855-.176-6.888.09-2.032 2.118-2.471 2.913-4.875.795-2.404 1.485-4.826 1.485-4.826z"/></g><g><path fill="none" stroke="#fff" stroke-linecap="round" stroke-linejoin="round" stroke-miterlimit="20" stroke-width=".5" d="M8.93 54.23a2.347 2.347 0 0 0-.244 1.069"/></g><g><path fill="none" stroke="#fff" stroke-linecap="round" stroke-linejoin="round" stroke-miterlimit="20" stroke-width=".5" d="M33.516 26.05v0s-1.102-1.275 1.02-.683c2.674.75-.465 3.844-1.672 4.466-2.423 1.242-5.625.844-7.5 3.102-1.703 2.04.596 4.166-.424 5.782-1.02 1.616-5.104.679-6.461 2.625-1.358 1.946 2.464 6.124-1.448 8.419-2.827 1.661-5.925 2.299-7.421 3.615"/></g><g><path fill="none" stroke="#fff" stroke-linecap="round" stroke-linejoin="round" stroke-miterlimit="20" stroke-width=".5" d="M27.171 33.6a3.064 3.064 0 0 0-.202 1.721c.337 1.444 2.295 4.167.51 5.697-1.785 1.53-4.849 1.443-5.355 3.236-.506 1.792.51 6.716-1.189 9-1.699 2.283-5.017 2.126-6.802 3.656-1.785 1.53-1.53 2.381-1.53 2.381v0"/></g><g><path fill="none" stroke="#fff" stroke-linecap="round" stroke-linejoin="round" stroke-miterlimit="20" stroke-width=".5" d="M28.077 31.92a7.473 7.473 0 0 0-.427.679"/></g><g><path fill="#fff" d="M38.05 54.086l.432 3.375s2.25 2.25 3.904 3.641c1.654 1.392 5.891 4.335 5.891 4.335l-2.149.612s-7.023-4.163-8.41-4.5c-1.388-.338-2.427-2.34-2.858-2.948-.432-.607 2.062-5.122 3.19-4.515z"/><path fill="none" stroke="#263238" stroke-linecap="round" stroke-linejoin="round" stroke-miterlimit="20" stroke-width=".5" d="M38.05 54.086l.432 3.375v0s2.25 2.25 3.904 3.641c1.654 1.392 5.891 4.335 5.891 4.335v0l-2.149.612v0s-7.023-4.163-8.41-4.5c-1.388-.338-2.427-2.34-2.858-2.948-.432-.607 2.062-5.122 3.19-4.515z"/></g><g><path fill="#fff" d="M42.335 109s2.122 1.792 3 2.393c.877.6 1.9.87 1.74 1.196-.162.326-.6.652-2.667.375-2.066-.278-2.662-.979-3.045-1.088-.382-.109-1.305.165-2.01-.27-.705-.435.413-3.026.413-3.026.64.747 1.724.925 2.569.42z"/><path fill="none" stroke="#263238" stroke-linecap="round" stroke-linejoin="round" stroke-miterlimit="20" stroke-width=".5" d="M42.335 109v0s2.122 1.792 3 2.393c.877.6 1.9.87 1.74 1.196-.162.326-.6.652-2.667.375-2.066-.278-2.662-.979-3.045-1.088-.382-.109-1.305.165-2.01-.27-.705-.435.413-3.026.413-3.026.64.747 1.724.925 2.569.42z"/></g><g><path fill="#fff" d="M47.068 112.59a.277.277 0 0 0 0-.052 9.664 9.664 0 0 1-3.547-.334c-1.335-.315-1.729-1.024-3-1.024a4.357 4.357 0 0 1-1.466-.24.773.773 0 0 0 .266.671c.705.435 1.631.162 2.01.27.379.109.979.818 3.045 1.088 2.066.27 2.527-.053 2.692-.379z"/><path fill="none" stroke="#263238" stroke-linecap="round" stroke-linejoin="round" stroke-miterlimit="20" stroke-width=".5" d="M47.068 112.59a.277.277 0 0 0 0-.052 9.664 9.664 0 0 1-3.547-.334c-1.335-.315-1.729-1.024-3-1.024a4.357 4.357 0 0 1-1.466-.24.773.773 0 0 0 .266.671c.705.435 1.631.162 2.01.27.379.109.979.818 3.045 1.088 2.066.27 2.527-.053 2.692-.379z"/></g><g><path fill="#fff" d="M31.226 36.53s.409 2.752-.116 3.862c-.525 1.11-2.167 1.23-3.57 1.467-1.403.236-4.624 1.462-4.275 4.623.349 3.162 4.391 10.01 4.391 11.94 0 1.932-1.23 2.926-2.576 6.672-1.346 3.746-1.17 10.714-.75 15.221a47.588 47.588 0 0 0 1.755 8.779s-3.375 5.445-4.875 7.785-6.75 12.528-6.75 12.528 0 .35.817.586c.576.14 1.17.179 1.76.116 0 0 10.064-12.117 11.94-14.164 1.874-2.047 3.63-5.625 3.862-7.26.232-1.635-.057-11.648-.057-11.648s2.104 5.033 3.75 7.61a54.087 54.087 0 0 1 2.746 4.874 29.467 29.467 0 0 0 0 6.375c.408 2.925.063 12.323.472 13.084.409.761 1.995.442 2.347.094.353-.349.518-2.625.518-2.625s.701-7.125 1.125-10.478c.424-3.352 1.125-6.206.881-6.967-.244-.762-1.699-8.899-2.812-12.75-1.114-3.852-4.5-11.063-5.25-12.934-.75-1.871-1.174-3.574-1.054-4.159.12-.585 2.4-4.095 3-5.032a4.628 4.628 0 0 0 .116-4.155c-.701-1.523 0-3.574-.116-4.8-.116-1.227-1.931-1.759-2.869-2.224-.937-.465-1.29-1.523-1.29-2.4a6.75 6.75 0 0 1 .529-2.145s-2.888-1.875-3.649-1.875z"/><path fill="none" stroke="#263238" stroke-linecap="round" stroke-linejoin="round" stroke-miterlimit="20" stroke-width=".5" d="M31.226 36.53s.409 2.752-.116 3.862c-.525 1.11-2.167 1.23-3.57 1.467-1.403.236-4.624 1.462-4.275 4.623.349 3.162 4.391 10.01 4.391 11.94 0 1.932-1.23 2.926-2.576 6.672-1.346 3.746-1.17 10.714-.75 15.221a47.588 47.588 0 0 0 1.755 8.779s-3.375 5.445-4.875 7.785-6.75 12.528-6.75 12.528v0s0 .35.817.586c.576.14 1.17.179 1.76.116 0 0 10.064-12.117 11.94-14.164 1.874-2.047 3.63-5.625 3.862-7.26.232-1.635-.057-11.648-.057-11.648v0s2.104 5.033 3.75 7.61a54.087 54.087 0 0 1 2.746 4.874 29.467 29.467 0 0 0 0 6.375c.408 2.925.063 12.323.472 13.084.409.761 1.995.442 2.347.094.353-.349.518-2.625.518-2.625v0s.701-7.125 1.125-10.478c.424-3.352 1.125-6.206.881-6.967-.244-.762-1.699-8.899-2.812-12.75-1.114-3.852-4.5-11.063-5.25-12.934-.75-1.871-1.174-3.574-1.054-4.159.12-.585 2.4-4.095 3-5.032a4.628 4.628 0 0 0 .116-4.155c-.701-1.523 0-3.574-.116-4.8-.116-1.227-1.931-1.759-2.869-2.224-.937-.465-1.29-1.523-1.29-2.4a6.75 6.75 0 0 1 .529-2.145s-2.888-1.875-3.649-1.875z"/></g><g><path fill="none" stroke="#263238" stroke-linecap="round" stroke-linejoin="round" stroke-miterlimit="20" stroke-width=".5" d="M38.319 49.044a19.317 19.317 0 0 1-.769-2.404"/></g><g><path fill="none" stroke="#263238" stroke-linecap="round" stroke-linejoin="round" stroke-miterlimit="20" stroke-width=".5" d="M30.72 55.565s1.058.233 3.176-.825"/></g><g><path fill="#263238" d="M41.82 76.215c-1.061-3.69-4.207-10.429-5.149-12.652-4.5 1.687-8.707.247-10.683-.683a28.658 28.658 0 0 0-.908 2.212c-1.346 3.75-1.17 10.714-.75 15.222a47.588 47.588 0 0 0 1.755 8.779s-3.375 5.444-4.875 7.784-6.75 12.53-6.75 12.53 0 .348.818.584c.575.14 1.17.18 1.758.116 0 0 10.065-12.116 11.94-14.163 1.875-2.048 3.63-5.625 3.863-7.26.232-1.635-.057-11.648-.057-11.648s2.104 5.033 3.75 7.609a54.087 54.087 0 0 1 2.746 4.875 29.467 29.467 0 0 0 0 6.375c.408 2.925.063 12.322.472 13.084.409.761 1.995.442 2.347.093.353-.348.518-2.625.518-2.625s.701-7.125 1.125-10.477c.424-3.353 1.125-6.206.881-6.968-.244-.76-1.687-8.924-2.801-12.787z"/><path fill="none" stroke="#263238" stroke-linecap="round" stroke-linejoin="round" stroke-miterlimit="20" stroke-width=".5" d="M41.82 76.215c-1.061-3.69-4.207-10.429-5.149-12.652-4.5 1.687-8.707.247-10.683-.683a28.658 28.658 0 0 0-.908 2.212c-1.346 3.75-1.17 10.714-.75 15.222a47.588 47.588 0 0 0 1.755 8.779s-3.375 5.444-4.875 7.784-6.75 12.53-6.75 12.53v0s0 .348.818.584c.575.14 1.17.18 1.758.116 0 0 10.065-12.116 11.94-14.163 1.875-2.048 3.63-5.625 3.863-7.26.232-1.635-.057-11.648-.057-11.648v0s2.104 5.033 3.75 7.609a54.087 54.087 0 0 1 2.746 4.875 29.467 29.467 0 0 0 0 6.375c.408 2.925.063 12.322.472 13.084.409.761 1.995.442 2.347.093.353-.348.518-2.625.518-2.625v0s.701-7.125 1.125-10.477c.424-3.353 1.125-6.206.881-6.968-.244-.76-1.687-8.924-2.801-12.787z"/></g><g><path fill="#adc7f7" d="M64.745 72.493v-.765h.641V65.72h-7.612v6.008h.641v.764h-.645v1.395h2.471v-.468h2.678v.468h2.471v-1.395h-.645z"/><path fill="none" stroke="#263238" stroke-linecap="round" stroke-linejoin="round" stroke-miterlimit="20" stroke-width=".5" d="M64.745 72.493v0-.765 0h.641v0-6.008 0h-.641v0h-6.33v0h-.641v6.008h.641v.764h-.645v1.395h2.471v0-.468 0h2.678v.468h2.471v0-1.395 0h-.645v0z"/></g><g><path fill="#adc7f7" d="M23.84 63.924H68c.369 0 .667.299.667.667v1.343A.668.668 0 0 1 68 66.6H23.84V63.92z"/><path fill="none" stroke="#263238" stroke-linecap="round" stroke-linejoin="round" stroke-miterlimit="20" stroke-width=".5" d="M23.84 63.924v0H68c.369 0 .667.299.667.667v1.343A.668.668 0 0 1 68 66.6H23.84v0-2.681 0z"/></g><g><path fill="#adc7f7" d="M52.47 63.901c0-.205.166-.371.371-.371h2.689c.205 0 .371.166.371.371v2.741a.371.371 0 0 1-.371.372h-2.689a.371.371 0 0 1-.371-.371z"/><path fill="none" stroke="#263238" stroke-linecap="round" stroke-linejoin="round" stroke-miterlimit="20" stroke-width=".5" d="M52.47 63.901c0-.205.166-.371.371-.371h2.689c.205 0 .371.166.371.371v2.741a.371.371 0 0 1-.371.372h-2.689a.371.371 0 0 1-.371-.371z"/></g><g transform="rotate(-80.7 18.5 65.5)"><path fill="#adc7f7" d="M18.341 72.243a6.971 6.971 0 1 0 0-13.943 6.971 6.971 0 0 0 0 13.943z"/><path fill="none" stroke="#263238" stroke-linecap="round" stroke-linejoin="round" stroke-miterlimit="20" stroke-width=".5" d="M18.341 72.243a6.971 6.971 0 1 0 0-13.943 6.971 6.971 0 0 0 0 13.943z"/></g><g><path fill="#fff" d="M19.769 65.249a2.437 2.437 0 0 0 1.384-2.13c0-1.369-1.26-2.479-2.817-2.479-1.556 0-2.816 1.125-2.816 2.479a2.43 2.43 0 0 0 1.384 2.13 2.441 2.441 0 0 0-1.384 2.134c0 1.368 1.26 2.478 2.816 2.478 1.557 0 2.817-1.125 2.817-2.478a2.449 2.449 0 0 0-1.384-2.134z"/><path fill="none" stroke="#263238" stroke-linecap="round" stroke-linejoin="round" stroke-miterlimit="20" stroke-width=".5" d="M19.769 65.249a2.437 2.437 0 0 0 1.384-2.13c0-1.369-1.26-2.479-2.817-2.479-1.556 0-2.816 1.125-2.816 2.479a2.43 2.43 0 0 0 1.384 2.13 2.441 2.441 0 0 0-1.384 2.134c0 1.368 1.26 2.478 2.816 2.478 1.557 0 2.817-1.125 2.817-2.478a2.449 2.449 0 0 0-1.384-2.134z"/></g><g><path fill="#fff" d="M46.9 66.66s2.182.923 2.857.923c.675 0 1.455-.679 1.842-1.5.386-.821.375-1.211.146-1.016l-.484.375s.375-.821-.049-.724a1.185 1.185 0 0 0-.678.581s-.049-.727-.435-.375a4.44 4.44 0 0 0-.679.777s-.049-.92-.293-.68c-.243.24-1.158 1.55-1.158 1.55z"/><path fill="none" stroke="#263238" stroke-linecap="round" stroke-linejoin="round" stroke-miterlimit="20" stroke-width=".5" d="M46.9 66.66v0s2.182.923 2.857.923c.675 0 1.455-.679 1.842-1.5.386-.821.375-1.211.146-1.016l-.484.375v0s.375-.821-.049-.724a1.185 1.185 0 0 0-.678.581s-.049-.727-.435-.375a4.44 4.44 0 0 0-.679.777s-.049-.92-.293-.68c-.243.24-1.158 1.55-1.158 1.55v0z"/></g><g><path fill="#fff" d="M49.42 65.7s-.146 1.162-.87 1.357"/><path fill="none" stroke="#263238" stroke-linecap="round" stroke-linejoin="round" stroke-miterlimit="20" stroke-width=".5" d="M49.42 65.7s-.146 1.162-.87 1.357"/></g><g><path fill="#fff" d="M50.528 65.31s-.375 1.837-.968 2.13"/><path fill="none" stroke="#263238" stroke-linecap="round" stroke-linejoin="round" stroke-miterlimit="20" stroke-width=".5" d="M50.528 65.31s-.375 1.837-.968 2.13"/></g><g><path fill="#fff" d="M51.256 65.45a10.45 10.45 0 0 1-.776 1.939"/><path fill="none" stroke="#263238" stroke-linecap="round" stroke-linejoin="round" stroke-miterlimit="20" stroke-width=".5" d="M51.256 65.45a10.45 10.45 0 0 1-.776 1.939"/></g><g><path fill="#fff" d="M35.498 42.837a2.663 2.663 0 0 1-1.17-2.325 6.75 6.75 0 0 1 .547-2.107s-2.869-1.875-3.63-1.875c0 0 .409 2.752-.116 3.862a1.762 1.762 0 0 1-.799.795 22.358 22.358 0 0 0 2.794 5.25c1.053 1.324 1.567-1.466 2.373-3.6z"/><path fill="none" stroke="#263238" stroke-linecap="round" stroke-linejoin="round" stroke-miterlimit="20" stroke-width=".5" d="M35.498 42.837a2.663 2.663 0 0 1-1.17-2.325 6.75 6.75 0 0 1 .547-2.107s-2.869-1.875-3.63-1.875c0 0 .409 2.752-.116 3.862a1.762 1.762 0 0 1-.799.795 22.358 22.358 0 0 0 2.794 5.25c1.053 1.324 1.567-1.466 2.373-3.6z"/></g><g><path fill="#fff" d="M26.642 42.23a4.684 4.684 0 0 0-3.375 2.471c-1.155 2.228-6.202 12.338-5.77 12.941 2.452 3.45 11.373 5.933 12.28 6.84.908.95 1.903 1.81 2.974 2.57.908.577 2.719.33 3.049.164.33-.165.577-.907 0-.907a.964.964 0 0 1-.953-.75c-.082-.33.908.33 1.403.082.495-.247-1.106-1.151-1.601-1.564-.495-.412-.908-.986-1.568-.986H31.18s-3.038-2.201-4.875-3.84a27.889 27.889 0 0 0-4.654-3.397l5.569-9.162"/><path fill="none" stroke="#263238" stroke-linecap="round" stroke-linejoin="round" stroke-miterlimit="20" stroke-width=".5" d="M26.642 42.23a4.684 4.684 0 0 0-3.375 2.471c-1.155 2.228-6.202 12.338-5.77 12.941 2.452 3.45 11.373 5.933 12.28 6.84.908.95 1.903 1.81 2.974 2.57.908.577 2.719.33 3.049.164.33-.165.577-.907 0-.907a.964.964 0 0 1-.953-.75c-.082-.33.908.33 1.403.082.495-.247-1.106-1.151-1.601-1.564-.495-.412-.908-.986-1.568-.986H31.18v0s-3.038-2.201-4.875-3.84a27.889 27.889 0 0 0-4.654-3.397l5.569-9.162v0"/></g><g><path fill="#fff" d="M34.641 64.088c-.495-.413-.907-.987-1.567-.987h-1.901s-3.038-2.201-4.875-3.84a27.888 27.888 0 0 0-4.654-3.397l2.227-3.668A7.451 7.451 0 0 0 20.1 51.12c-1.5 3.128-2.846 6.218-2.625 6.544 2.452 3.45 11.374 5.932 12.281 6.84.907.949 1.903 1.809 2.974 2.569.907.577 2.719.33 3.049.165.33-.165.577-.908 0-.908a.964.964 0 0 1-.953-.75c-.082-.33.908.33 1.403.083.495-.248-1.092-1.16-1.587-1.575z"/><path fill="none" stroke="#263238" stroke-linecap="round" stroke-linejoin="round" stroke-miterlimit="20" stroke-width=".5" d="M34.641 64.088c-.495-.413-.907-.987-1.567-.987h-1.901v0s-3.038-2.201-4.875-3.84a27.888 27.888 0 0 0-4.654-3.397l2.227-3.668A7.451 7.451 0 0 0 20.1 51.12c-1.5 3.128-2.846 6.218-2.625 6.544 2.452 3.45 11.374 5.932 12.281 6.84.907.949 1.903 1.809 2.974 2.569.907.577 2.719.33 3.049.165.33-.165.577-.908 0-.908a.964.964 0 0 1-.953-.75c-.082-.33.908.33 1.403.083.495-.248-1.092-1.16-1.587-1.575z"/></g><g><path fill="#fff" d="M37.662 32.487c-.293-.585-.293-1.053-.177-1.875.117-.82-.585-2.812-.585-2.812-.716 1.237-2.786 1.972-3.701 2.25-1.009.307.465 1.005.308 1.939-.158.933-2.172 1.473-2.172 1.473s-.588-1.21-1.406-1.21c-.817 0-1.399 1.874-.934 2.868.25.567.858.886 1.467.769 0 0-.057 1.758 1.053 2.283a20.625 20.625 0 0 0 3.69 1.347c.702.116 1.403-.233 1.695-1.287.229-1.061.386-2.138.469-3.22a7.533 7.533 0 0 0 1.346-1.126c.282-.405-.761-.814-1.053-1.399z"/><path fill="none" stroke="#263238" stroke-linecap="round" stroke-linejoin="round" stroke-miterlimit="20" stroke-width=".5" d="M37.662 32.487c-.293-.585-.293-1.053-.177-1.875.117-.82-.585-2.812-.585-2.812v0c-.716 1.237-2.786 1.972-3.701 2.25-1.009.307.465 1.005.308 1.939-.158.933-2.172 1.473-2.172 1.473v0s-.588-1.21-1.406-1.21c-.817 0-1.399 1.874-.934 2.868.25.567.858.886 1.467.769 0 0-.057 1.758 1.053 2.283a20.625 20.625 0 0 0 3.69 1.347c.702.116 1.403-.233 1.695-1.287.229-1.061.386-2.138.469-3.22a7.533 7.533 0 0 0 1.346-1.126c.282-.405-.761-.814-1.053-1.399z"/></g><g><path fill="#263238" d="M36.525 32.511c0 .323-.105.581-.233.581-.127 0-.232-.258-.232-.58 0-.323.105-.582.232-.582.128 0 .233.259.233.581z"/></g><g><path fill="none" stroke="#263238" stroke-linecap="round" stroke-linejoin="round" stroke-miterlimit="20" stroke-width=".5" d="M35.52 31.547s.622-.701 1.087-.544"/></g><g><path fill="none" stroke="#263238" stroke-linecap="round" stroke-linejoin="round" stroke-miterlimit="20" stroke-width=".5" d="M36.601 36.355a1.688 1.688 0 0 1-1.631-.375"/></g><g><path fill="#fff" d="M14.488 109.4s-1.4 2.805-1.347 3.188c.053.382 2.828 2.392 4.125 3.097 1.298.705 3.645.818 3.48-.161-.165-.979-2.392-1.631-2.936-3.101-.29-.76-.54-1.536-.75-2.322a4.807 4.807 0 0 1-2.572-.701z"/><path fill="none" stroke="#263238" stroke-linecap="round" stroke-linejoin="round" stroke-miterlimit="20" stroke-width=".5" d="M14.488 109.4v0s-1.4 2.805-1.347 3.188c.053.382 2.828 2.392 4.125 3.097 1.298.705 3.645.818 3.48-.161-.165-.979-2.392-1.631-2.936-3.101-.29-.76-.54-1.536-.75-2.322a4.807 4.807 0 0 1-2.572-.701z"/></g><g><path fill="#fff" d="M20.756 115.541a5.479 5.479 0 0 1-2.936-.416c-2.014-.874-3.964-2.659-4.5-3.165a2.01 2.01 0 0 0-.18.641c.056.375 2.828 2.393 4.125 3.098 1.298.705 3.626.802 3.491-.158z"/><path fill="none" stroke="#263238" stroke-linecap="round" stroke-linejoin="round" stroke-miterlimit="20" stroke-width=".5" d="M20.756 115.541a5.479 5.479 0 0 1-2.936-.416c-2.014-.874-3.964-2.659-4.5-3.165a2.01 2.01 0 0 0-.18.641c.056.375 2.828 2.393 4.125 3.098 1.298.705 3.626.802 3.491-.158z"/></g></g></g></g></svg>