<svg xmlns="http://www.w3.org/2000/svg" width="16" height="22" viewBox="0 0 16 22"><g><g><g/><g><path fill="#315293" d="M15.43 8.052c.37.91.57 1.91.57 2.95a7.999 7.999 0 0 1-8 8.002v1.8a.5.5 0 0 1-.85.35l-2.79-2.79c-.2-.2-.2-.51 0-.71l2.79-2.79c.31-.321.85-.1.85.35v1.79c3.31 0 6-2.691 6-6.002 0-.79-.16-1.55-.44-2.25-.15-.35-.04-.77.23-1.04.51-.51 1.37-.33 1.64.34zM2 11.007c0 .79.15 1.56.44 2.25.15.36.04.77-.23 1.04-.51.51-1.37.33-1.64-.34-.37-.91-.57-1.91-.57-2.95a7.999 7.999 0 0 1 8-8.002v-1.79a.5.5 0 0 1 .85-.36l2.79 2.79c.2.2.2.51 0 .71L8.85 7.146c-.31.32-.85.1-.85-.35v-1.79c-3.31 0-6 2.69-6 6.001z"/></g></g></g></svg>