<svg xmlns="http://www.w3.org/2000/svg" width="56" height="56" viewBox="0 0 56 56"><defs><clipPath id="jgm1a"><path fill="#fff" d="M28 56c15.464 0 28-12.536 28-28S43.464 0 28 0 0 12.536 0 28s12.536 28 28 28z"/></clipPath></defs><g><g><g><path fill="none" stroke="#35558f" stroke-dasharray="8 8" stroke-miterlimit="20" stroke-width="2" d="M28 56c15.464 0 28-12.536 28-28S43.464 0 28 0 0 12.536 0 28s12.536 28 28 28z" clip-path="url(&quot;#jgm1a&quot;)"/></g></g><g><g><path fill="#335491" d="M34 29h-5v5c0 .55-.45 1-1 1s-1-.45-1-1v-5h-5c-.55 0-1-.45-1-1s.45-1 1-1h5v-5c0-.55.45-1 1-1s1 .45 1 1v5h5c.55 0 1 .45 1 1s-.45 1-1 1z"/></g></g></g></svg>