<svg xmlns="http://www.w3.org/2000/svg" width="160" height="143" viewBox="0 0 160 143"><g><g><g><g><path fill="#adc7f7" d="M149.748 80.14c-2.311-1.783-4.67-3.51-6.06-6.09-7.037-13.05 7.611-28.316-.518-42.458-4.126-7.174-12.263-12.425-20.204-9.442-8.463 3.182-16.452 6.504-25.555 3.874C81.485 21.414 73.214-.158 55.866.204c-14.24.297-30.089 15.282-21.852 30.833 6.241 11.766 2.341 21.505-12.092 23.533C7.488 56.597 1.28 73.629 5.559 80.944c4.278 7.315 12.478 15.01 4.678 18.256-7.8 3.245-10.53 13.794-9.749 21.09.782 7.297 2.337 10.142 2.337 10.142h149.712s6.314-8.114 7.092-26.774c.34-8.088-1.337-16.01-7.455-21.541a45.093 45.093 0 0 0-2.426-1.976z"/></g><g opacity=".7"><path fill="#fff" d="M149.748 80.14c-2.311-1.783-4.67-3.51-6.06-6.09-7.037-13.05 7.611-28.316-.518-42.458-4.126-7.174-12.263-12.425-20.204-9.442-8.463 3.182-16.452 6.504-25.555 3.874C81.485 21.414 73.214-.158 55.866.204c-14.24.297-30.089 15.282-21.852 30.833 6.241 11.766 2.341 21.505-12.092 23.533C7.488 56.597 1.28 73.629 5.559 80.944c4.278 7.315 12.478 15.01 4.678 18.256-7.8 3.245-10.53 13.794-9.749 21.09.782 7.297 2.337 10.142 2.337 10.142h149.712s6.314-8.114 7.092-26.774c.34-8.088-1.337-16.01-7.455-21.541a45.093 45.093 0 0 0-2.426-1.976z"/></g></g><g><g><path fill="#adc7f7" d="M79.184 142.368c15.587 0 28.223-1.316 28.223-2.94 0-1.622-12.636-2.938-28.223-2.938-15.588 0-28.224 1.316-28.224 2.939s12.636 2.939 28.224 2.939z"/></g><g opacity=".5"><path fill="#fff" d="M79.184 142.368c15.587 0 28.223-1.316 28.223-2.94 0-1.622-12.636-2.938-28.223-2.938-15.588 0-28.224 1.316-28.224 2.939s12.636 2.939 28.224 2.939z"/></g></g><g><g><path fill="none" stroke="#2e353a" stroke-miterlimit="20" stroke-width=".5" d="M142.977 115.061v0-4.51 0h-5.042v0-8.753 0h-7.246v0V66.25v0h-6.93v21.487h-6.302v0-7.692 0h-8.505V99.94h-3.465v6.365h-8.19v0-2.386 0h2.518v0-1.327 0H89.419v1.593h1.262v6.897h-5.357v0-13 0H66.423v9.284h-13.55v0-6.898 0h-5.04v7.696h-10.71v0-14.061 0h-4.41v0-4.774 0h-7.88v21.753H16.96v4.774H11.92v14.589h140.824v0-15.384 0h-9.767v0z"/></g><g><path fill="#2e353a" d="M26.23 94.04h1.703v1.7H26.23z"/></g><g><path fill="#2e353a" d="M29.78 94.04h1.703v1.7H29.78z"/></g><g><path fill="#2e353a" d="M26.23 97.58h1.703v1.7H26.23z"/></g><g><path fill="#2e353a" d="M29.78 97.58h1.703v1.7H29.78z"/></g><g><path fill="#2e353a" d="M33.61 97.58h1.703v1.7H33.61z"/></g><g><path fill="#2e353a" d="M33.61 101.12h1.703v1.7H33.61z"/></g><g><path fill="#2e353a" d="M33.61 104.66h1.703v1.7H33.61z"/></g><g><path fill="#2e353a" d="M33.61 108.2h1.703v1.7H33.61z"/></g><g><path fill="#2e353a" d="M33.61 111.74h1.703v1.7H33.61z"/></g><g><path fill="#2e353a" d="M33.61 115.29h1.703v1.7H33.61z"/></g><g><path fill="#2e353a" d="M26.23 101.12h1.703v1.7H26.23z"/></g><g><path fill="#2e353a" d="M29.78 101.12h1.703v1.7H29.78z"/></g><g><path fill="#2e353a" d="M26.23 104.66h1.703v1.7H26.23z"/></g><g><path fill="#2e353a" d="M29.78 104.66h1.703v1.7H29.78z"/></g><g><path fill="#2e353a" d="M26.23 108.2h1.703v1.7H26.23z"/></g><g><path fill="#2e353a" d="M29.78 108.2h1.703v1.7H29.78z"/></g><g><path fill="#2e353a" d="M26.23 111.74h1.703v1.7H26.23z"/></g><g><path fill="#2e353a" d="M18.42 113.73h1.703v1.7H18.42z"/></g><g><path fill="#2e353a" d="M42.98 109.9h1.703v1.7H42.98z"/></g><g><path fill="#2e353a" d="M46.39 109.9h1.703v1.7H46.39z"/></g><g><path fill="#2e353a" d="M124.89 68.25h1.703v1.7h-1.703z"/></g><g><path fill="#2e353a" d="M127.02 68.25h1.703v1.7h-1.703z"/></g><g><path fill="#2e353a" d="M124.89 71.8h1.703v1.7h-1.703z"/></g><g><path fill="#2e353a" d="M127.02 71.8h1.703v1.7h-1.703z"/></g><g><path fill="#2e353a" d="M124.89 75.34h1.703v1.7h-1.703z"/></g><g><path fill="#2e353a" d="M127.02 75.34h1.703v1.7h-1.703z"/></g><g><path fill="#2e353a" d="M124.89 78.88h1.703v1.7h-1.703z"/></g><g><path fill="#2e353a" d="M127.02 78.88h1.703v1.7h-1.703z"/></g><g><path fill="#2e353a" d="M124.89 82.42h1.703v1.7h-1.703z"/></g><g><path fill="#2e353a" d="M127.02 82.42h1.703v1.7h-1.703z"/></g><g><path fill="#2e353a" d="M124.89 85.96h1.703v1.7h-1.703z"/></g><g><path fill="#2e353a" d="M127.02 85.96h1.703v1.7h-1.703z"/></g><g><path fill="#2e353a" d="M124.89 89.5h1.703v1.7h-1.703z"/></g><g><path fill="#2e353a" d="M127.02 89.5h1.703v1.7h-1.703z"/></g><g><path fill="#2e353a" d="M124.89 93.05h1.703v1.7h-1.703z"/></g><g><path fill="#2e353a" d="M127.02 93.05h1.703v1.7h-1.703z"/></g><g><path fill="#2e353a" d="M124.89 96.59h1.703v1.7h-1.703z"/></g><g><path fill="#2e353a" d="M127.02 96.59h1.703v1.7h-1.703z"/></g><g><path fill="#2e353a" d="M110.41 96.59h1.703v1.7h-1.703z"/></g><g><path fill="#2e353a" d="M114.1 96.59h1.703v1.7H114.1z"/></g><g><path fill="#2e353a" d="M117.8 96.59h1.703v1.7H117.8z"/></g><g><path fill="#2e353a" d="M110.41 104.24h1.703v1.7h-1.703z"/></g><g><path fill="#2e353a" d="M114.1 104.24h1.703v1.7H114.1z"/></g><g><path fill="#2e353a" d="M117.8 104.24h1.703v1.7H117.8z"/></g><g><path fill="#2e353a" d="M110.41 111.89h1.703v1.7h-1.703z"/></g><g><path fill="#2e353a" d="M114.1 111.89h1.703v1.7H114.1z"/></g><g><path fill="#2e353a" d="M117.8 111.89h1.703v1.7H117.8z"/></g><g><path fill="#2e353a" d="M124.89 100.13h1.703v1.7h-1.703z"/></g><g><path fill="#2e353a" d="M127.02 100.13h1.703v1.7h-1.703z"/></g><g><path fill="#2e353a" d="M124.89 103.67h1.703v1.7h-1.703z"/></g><g><path fill="#2e353a" d="M127.02 103.67h1.703v1.7h-1.703z"/></g><g><path fill="#2e353a" d="M124.89 107.21h1.703v1.7h-1.703z"/></g><g><path fill="#2e353a" d="M127.02 107.21h1.703v1.7h-1.703z"/></g><g><path fill="#2e353a" d="M130.57 103.67h1.703v1.7h-1.703z"/></g><g><path fill="#2e353a" d="M134.55 103.67h1.703v1.7h-1.703z"/></g><g><path fill="#2e353a" d="M130.57 107.07h1.703v1.7h-1.703z"/></g><g><path fill="#2e353a" d="M134.55 107.07h1.703v1.7h-1.703z"/></g><g><path fill="#2e353a" d="M130.57 110.47h1.703v1.7h-1.703z"/></g><g><path fill="#2e353a" d="M134.55 110.47h1.703v1.7h-1.703z"/></g><g><path fill="#2e353a" d="M130.57 113.87h1.703v1.7h-1.703z"/></g><g><path fill="#2e353a" d="M134.55 113.87h1.703v1.7h-1.703z"/></g><g><path fill="#2e353a" d="M124.89 110.75h1.703v1.7h-1.703z"/></g><g><path fill="#2e353a" d="M127.02 110.75h1.703v1.7h-1.703z"/></g><g><path fill="#2e353a" d="M124.89 114.29h1.703v1.7h-1.703z"/></g><g><path fill="#2e353a" d="M127.02 114.29h1.703v1.7h-1.703z"/></g><g><path fill="#2e353a" d="M29.78 111.74h1.703v1.7H29.78z"/></g><g><path fill="#2e353a" d="M26.23 115.29h1.703v1.7H26.23z"/></g><g><path fill="#2e353a" d="M29.78 115.29h1.703v1.7H29.78z"/></g><g><path fill="#2e353a" d="M26.23 118.83h1.703v1.7H26.23z"/></g><g><path fill="#2e353a" d="M29.78 118.83h1.703v1.7H29.78z"/></g><g><path fill="#2e353a" d="M26.23 122.37h1.703v1.7H26.23z"/></g><g><path fill="#2e353a" d="M29.78 122.37h1.703v1.7H29.78z"/></g><g><path fill="none" stroke="#2e353a" stroke-miterlimit="20" stroke-width=".5" d="M121.205 123.437v7.009H107.01v0-13.936 0h14.195v5.678"/></g><g><path fill="none" stroke="#2e353a" stroke-miterlimit="20" stroke-width=".5" d="M147.329 128.33v2.117H133.13v0-7.367 0h2.932v0"/></g><g><path fill="none" stroke="#2e353a" stroke-miterlimit="20" stroke-width=".5" d="M137.79 123.08v0h9.537v4.1"/></g><g><path fill="none" stroke="#2e353a" stroke-miterlimit="20" stroke-width=".5" d="M42.693 123.08v0H52.78v7.367H38.58v0-7.367 0h2.766v0"/></g><g><path fill="none" stroke="#2e353a" stroke-miterlimit="20" stroke-width=".5" d="M20.486 123.08v0h1.348v7.367H16.58v0-7.367 0h2.847v0"/></g><g><path fill="none" stroke="#2e353a" stroke-miterlimit="20" stroke-width=".5" d="M112.97 116.51v0h2.27v13.935h-2.27v0z"/></g><g><path fill="none" stroke="#2e353a" stroke-miterlimit="20" stroke-width=".5" d="M97.599 118.403v0H95.37v0-3.683 0h7.523v3.683H99.62v0"/></g><g><path fill="none" stroke="#2e353a" stroke-miterlimit="20" stroke-width=".5" d="M49.09 112.17v0h8.66v3.118h-8.66v0z"/></g><g><path fill="none" stroke="#2e353a" stroke-miterlimit="20" stroke-width=".5" d="M53.2 112.17v0h.852v18.273H53.2v0z"/></g></g><g><g><path fill="#2e353a" d="M57.536 48.613c0-12.872 10.447-23.307 23.335-23.307 12.887 0 23.334 10.435 23.334 23.307 0 6.18-2.458 12.109-6.834 16.48a23.35 23.35 0 0 1-16.5 6.826c-12.888 0-23.335-10.435-23.335-23.306zM80.87.89C54.482.89 33.09 22.256 33.09 48.613c0 23.805 44.077 79.907 44.077 79.907h3.704s47.78-53.553 47.78-79.907C128.651 22.256 107.26.89 80.871.89z"/><path fill="none" stroke="#2e353a" stroke-linecap="round" stroke-linejoin="round" stroke-miterlimit="20" stroke-width=".5" d="M57.536 48.613c0-12.872 10.447-23.307 23.335-23.307 12.887 0 23.334 10.435 23.334 23.307 0 6.18-2.458 12.109-6.834 16.48a23.35 23.35 0 0 1-16.5 6.826c-12.888 0-23.335-10.435-23.335-23.306zM80.87.89C54.482.89 33.09 22.256 33.09 48.613c0 23.805 44.077 79.907 44.077 79.907h3.704s47.78-53.553 47.78-79.907C128.651 22.256 107.26.89 80.871.89z"/></g><g><path fill="#adc7f7" d="M53.836 48.613c0-12.872 10.447-23.307 23.335-23.307 12.887 0 23.334 10.435 23.334 23.307 0 12.871-10.447 23.306-23.334 23.306-12.888 0-23.335-10.435-23.335-23.306zM77.17.89C50.782.89 29.39 22.256 29.39 48.613c0 26.354 47.78 79.907 47.78 79.907s47.781-53.553 47.781-79.907C124.951 22.256 103.56.89 77.171.89z"/><path fill="none" stroke="#2e353a" stroke-linecap="round" stroke-linejoin="round" stroke-miterlimit="20" stroke-width=".5" d="M53.836 48.613c0-12.872 10.447-23.307 23.335-23.307 12.887 0 23.334 10.435 23.334 23.307 0 12.871-10.447 23.306-23.334 23.306-12.888 0-23.335-10.435-23.335-23.306zM77.17.89C50.782.89 29.39 22.256 29.39 48.613c0 26.354 47.78 79.907 47.78 79.907s47.781-53.553 47.781-79.907C124.951 22.256 103.56.89 77.171.89z"/></g></g><g><g><path fill="#fff" d="M61.82 77.7l5.307-8.97.094 3.237-3.166 6.288-2.235-.555z"/><path fill="none" stroke="#2e353a" stroke-linecap="round" stroke-linejoin="round" stroke-miterlimit="20" stroke-width=".5" d="M61.82 77.7v0l5.307-8.97v0l.094 3.237v0l-3.166 6.288v0L61.82 77.7v0z"/></g><g><path fill="#fff" d="M67.218 108.01a9.537 9.537 0 0 1-1.996 4.258c-1.695 2.082-3.989 6.144-4.097 10.006-.108 3.862-4.592 14.549-4.097 15.34.496.792 4.887 1.883 6.581 1.883.89 0 2.365.34 2.954-.521.033-.048-3.483-1.85-3.725-2.024-.242-.174-2.2-1.542-2.137-1.716 0 0 4.596-12.37 6.89-15.537 2.294-3.166 3.989-5.548 4.685-7.527.697-1.98 1.322-3.855 1.322-3.855z"/></g><g><path fill="#adc7f7" d="M65.97 111.206a24.82 24.82 0 0 0 6.034 1.705c.111-.255.212-.503.298-.74.7-1.982 1.296-3.865 1.296-3.865l-6.38-.296a9.27 9.27 0 0 1-1.248 3.196z"/></g><g><path fill="none" stroke="#2e353a" stroke-linecap="round" stroke-linejoin="round" stroke-miterlimit="20" stroke-width=".5" d="M67.218 108.01a9.537 9.537 0 0 1-1.996 4.258c-1.695 2.082-3.989 6.144-4.097 10.006-.108 3.862-4.592 14.549-4.097 15.34.496.792 4.887 1.883 6.581 1.883.89 0 2.365.34 2.954-.521.033-.048-3.483-1.85-3.725-2.024-.242-.174-2.2-1.542-2.137-1.716 0 0 4.596-12.37 6.89-15.537 2.294-3.166 3.989-5.548 4.685-7.527.697-1.98 1.322-3.855 1.322-3.855v0z"/></g><g><path fill="#fff" d="M81.65 108.814a9.536 9.536 0 0 1 1.862 4.32c.421 2.646 1.926 7.055 4.753 9.715s7.821 13.846 8.745 14.005c1.084.192 2.737-1.184 3.542-1.743 1.024-.71 3.374-2.16 3.724-3.414.421-1.443-1.072-.718-1.702-.251-.815.602-4.886 1.11-4.886 1.11s-6.187-12.408-7.021-16.218c-.834-3.81-1.49-6.658-2.5-8.508-1.008-1.85-2.022-3.54-2.022-3.54z"/></g><g><path fill="#adc7f7" d="M88.168 107.84c-1.017-1.85-2.026-3.54-2.026-3.54l-4.492 4.513a9.348 9.348 0 0 1 1.635 3.33 37.246 37.246 0 0 0 5.96-1.573 14.339 14.339 0 0 0-1.077-2.73z"/></g><g><path fill="none" stroke="#2e353a" stroke-linecap="round" stroke-linejoin="round" stroke-miterlimit="20" stroke-width=".5" d="M81.65 108.814a9.536 9.536 0 0 1 1.862 4.32c.421 2.646 1.926 7.055 4.753 9.715s7.821 13.846 8.745 14.005c1.084.192 2.737-1.184 3.542-1.743 1.024-.71 3.374-2.16 3.724-3.414.421-1.443-1.072-.718-1.702-.251-.815.602-4.886 1.11-4.886 1.11v0s-6.187-12.408-7.021-16.218c-.834-3.81-1.49-6.658-2.5-8.508-1.008-1.85-2.022-3.54-2.022-3.54v0z"/></g><g><path fill="#fff" d="M104.286 131.694c.42-1.443-1.073-.718-1.702-.252-.816.603-4.887 1.11-4.887 1.11s-.44-.962-1.08-2.412a10.818 10.818 0 0 1-2.607 1.513c1.397 2.734 2.555 5.134 3.01 5.212 1.083.192 2.737-1.184 3.541-1.742 1.013-.725 3.364-2.175 3.725-3.43z"/><path fill="none" stroke="#2e353a" stroke-linecap="round" stroke-linejoin="round" stroke-miterlimit="20" stroke-width=".5" d="M104.286 131.694c.42-1.443-1.073-.718-1.702-.252-.816.603-4.887 1.11-4.887 1.11v0s-.44-.962-1.08-2.412a10.818 10.818 0 0 1-2.607 1.513c1.397 2.734 2.555 5.134 3.01 5.212 1.083.192 2.737-1.184 3.541-1.742 1.013-.725 3.364-2.175 3.725-3.43z"/></g><g><path fill="#fff" d="M67.35 88.237l-3.46 18.966a26.419 26.419 0 0 0 4.957 2.463c2.727.984 7.45.74 7.45.74l1.862-9.23.744 8.616s3.595.37 6.198-.122 6.816-3.203 6.816-3.203L83.723 91.33l-1.862-3.57-14.5-.37z"/></g><g><path fill="#adc7f7" d="M78.277 99.125c1.259-1.565 1.713-10.764 1.713-10.764l-12.64-.951v.829l-1.58 8.608c3.538 1.131 11.527 3.492 12.507 2.278z"/></g><g><path fill="none" stroke="#2e353a" stroke-miterlimit="20" stroke-width=".5" d="M67.35 88.237v0l-3.46 18.966a26.419 26.419 0 0 0 4.957 2.463c2.727.984 7.45.74 7.45.74v0l1.862-9.23v0l.744 8.616v0s3.595.37 6.198-.122 6.816-3.203 6.816-3.203v0L83.723 91.33v0l-1.862-3.57v0l-14.5-.37v0z"/></g><g><path fill="#2e353a" d="M88.729 73.263l7.076 1.85 2.887-8.508L87.89 64.57l-2.421 7.86 3.259.833z"/><path fill="none" stroke="#2e353a" stroke-linecap="round" stroke-linejoin="round" stroke-miterlimit="20" stroke-width=".5" d="M88.729 73.263v0l7.076 1.85v0l2.887-8.508v0L87.89 64.57v0l-2.421 7.86v0l3.259.833v0z"/></g><g><path fill="none" stroke="#fff" stroke-linecap="round" stroke-linejoin="round" stroke-miterlimit="20" stroke-width=".5" d="M90.11 69.33l4.5 1.091"/></g><g><path fill="none" stroke="#fff" stroke-linecap="round" stroke-linejoin="round" stroke-miterlimit="20" stroke-width=".5" d="M89.67 70.42l4.5 1.091"/></g><g><path fill="#fff" d="M81.372 73.725s2.235-1.202 2.98-2.22c.745-1.017 1.583-2.774 1.955-3.052.373-.277 2.235-1.202 2.608-1.48.372-.277.93.278.279.833-.652.555-2.049 1.757-2.049 1.757s.373 1.665-.093 2.22c-.249.306-.53.585-.838.832l2.514.647s-1.676 1.203-2.42 1.388c-.739.14-1.485.233-2.235.277L81 77.331z"/><path fill="none" stroke="#2e353a" stroke-linecap="round" stroke-linejoin="round" stroke-miterlimit="20" stroke-width=".5" d="M81.372 73.725v0s2.235-1.202 2.98-2.22c.745-1.017 1.583-2.774 1.955-3.052.373-.277 2.235-1.202 2.608-1.48.372-.277.93.278.279.833-.652.555-2.049 1.757-2.049 1.757v0s.373 1.665-.093 2.22c-.249.306-.53.585-.838.832l2.514.647v0s-1.676 1.203-2.42 1.388c-.739.14-1.485.233-2.235.277L81 77.331v0z"/></g><g><path fill="#2e353a" d="M71.314 53.526s-2.98 4.31-3.725 9.355c-.744 5.045-.245 25.357-.245 25.357s3.963 1.599 7.076 1.599c3.114 0 7.684.247 7.822-1.48.137-1.728-.868-21.54-2.235-26.342a35.336 35.336 0 0 0-4.097-8.878s-3.106-2.075-4.596.389z"/><path fill="none" stroke="#2e353a" stroke-linecap="round" stroke-linejoin="round" stroke-miterlimit="20" stroke-width=".5" d="M71.314 53.526s-2.98 4.31-3.725 9.355c-.744 5.045-.245 25.357-.245 25.357v0s3.963 1.599 7.076 1.599c3.114 0 7.684.247 7.822-1.48.137-1.728-.868-21.54-2.235-26.342a35.336 35.336 0 0 0-4.097-8.878s-3.106-2.075-4.596.389z"/></g><g><path fill="#fff" d="M78.114 57.26L74.11 82.6l3.538 1.294 1.583-24.322-1.117-2.312z"/><path fill="none" stroke="#2e353a" stroke-linecap="round" stroke-linejoin="round" stroke-miterlimit="20" stroke-width=".5" d="M78.114 57.26v0L74.11 82.6v0l3.538 1.294v0l1.583-24.322v0l-1.117-2.312v0z"/></g><g><path fill="#fff" d="M69.25 43.71s.495 2.338 1.49 3.57c.994 1.231 2.849 1.85 2.849 1.85l-.533 2.8 3.472 2.093L77.8 48.02l.373-7.139s-8.693 1.476-8.924 2.83z"/><path fill="none" stroke="#2e353a" stroke-linecap="round" stroke-linejoin="round" stroke-miterlimit="20" stroke-width=".5" d="M69.25 43.71s.495 2.338 1.49 3.57c.994 1.231 2.849 1.85 2.849 1.85v0l-.533 2.8v0l3.472 2.093v0L77.8 48.02v0l.373-7.139v0s-8.693 1.476-8.924 2.83z"/></g><g><path fill="#2e353a" d="M69.25 43.703s.495 2.338 1.49 3.57c.994 1.231 2.849 1.85 2.849 1.85s2.98-.863 3.222-2.83c.178-1.421-.09-3.859-.257-5.113-2.53.496-7.125 1.543-7.304 2.523z"/><path fill="none" stroke="#2e353a" stroke-linecap="round" stroke-linejoin="round" stroke-miterlimit="20" stroke-width=".5" d="M69.25 43.703s.495 2.338 1.49 3.57c.994 1.231 2.849 1.85 2.849 1.85v0s2.98-.863 3.222-2.83c.178-1.421-.09-3.859-.257-5.113-2.53.496-7.125 1.543-7.304 2.523z"/></g><g><path fill="#fff" d="M74.322 44.32s-1.24-1.48-1.982-.863c-.741.618-.499 2.342.373 3.204.871.862 1.985.122 1.985.122s.495 1.598 1.363 2.338 3.84 1.232 4.842.492c1.002-.74.618-3.448.618-3.448s1.736-.862 1.613-1.48c-.123-.617-1.367-1.11-1.367-1.598a6.795 6.795 0 0 0-.123-1.11v-.987l-5.698 1.232s-.75 2.837-1.624 2.097z"/></g><g opacity=".5"><g opacity=".5"><path fill="#adc7f7" d="M75.943 42.233a7.502 7.502 0 0 1-.693 1.705c2.235-.1 4.622-.24 6.76-.425a.669.669 0 0 1-.246-.418 6.795 6.795 0 0 0-.123-1.11v-.995z"/></g></g><g><path fill="none" stroke="#2e353a" stroke-linecap="round" stroke-linejoin="round" stroke-miterlimit="20" stroke-width=".5" d="M74.322 44.32s-1.24-1.48-1.982-.863c-.741.618-.499 2.342.373 3.204.871.862 1.985.122 1.985.122v0s.495 1.598 1.363 2.338 3.84 1.232 4.842.492c1.002-.74.618-3.448.618-3.448v0s1.736-.862 1.613-1.48c-.123-.617-1.367-1.11-1.367-1.598a6.795 6.795 0 0 0-.123-1.11v-.987 0l-5.698 1.232v0s-.75 2.837-1.624 2.097z"/></g><g><path fill="#fff" d="M69.252 43.707l12.39-2.718s-1.735-6.034-3.839-6.526-6.198-.74-8.429 1.48c-2.23 2.22-.122 7.764-.122 7.764z"/><path fill="none" stroke="#2e353a" stroke-linecap="round" stroke-linejoin="round" stroke-miterlimit="20" stroke-width=".5" d="M69.252 43.707v0l12.39-2.718v0s-1.735-6.034-3.839-6.526-6.198-.74-8.429 1.48c-2.23 2.22-.122 7.764-.122 7.764z"/></g><g><path fill="#2e353a" d="M77.55 41.987c1.633.36 3.29.607 4.957.74 2.235.121 7.311-1.85 6.075-1.972-1.237-.122-6.943.248-6.943.248z"/><path fill="none" stroke="#2e353a" stroke-linecap="round" stroke-linejoin="round" stroke-miterlimit="20" stroke-width=".5" d="M77.55 41.987c1.633.36 3.29.607 4.957.74 2.235.121 7.311-1.85 6.075-1.972-1.237-.122-6.943.248-6.943.248v0z"/></g><g><path fill="#fff" d="M71.817 50.94L70.7 53.404l5.58 3.444 1.113-3.444-5.576-2.464z"/><path fill="none" stroke="#2e353a" stroke-linecap="round" stroke-linejoin="round" stroke-miterlimit="20" stroke-width=".5" d="M71.817 50.94v0L70.7 53.404v0l5.58 3.444v0l1.113-3.444v0l-5.576-2.464v0z"/></g><g><path fill="#fff" d="M60.328 76.68l19.833 5.086-2.06 14.405a1.686 1.686 0 0 1-.741 1.167 1.708 1.708 0 0 1-1.37.227l-18.031-4.653a1.335 1.335 0 0 1-.976-1.587z"/><path fill="none" stroke="#2e353a" stroke-linecap="round" stroke-linejoin="round" stroke-miterlimit="20" stroke-width=".5" d="M60.328 76.68v0l19.833 5.086v0L78.1 96.171a1.686 1.686 0 0 1-.741 1.167 1.708 1.708 0 0 1-1.37.227l-18.031-4.653a1.335 1.335 0 0 1-.976-1.587z"/></g><g><path fill="none" stroke="#2e353a" stroke-linecap="round" stroke-linejoin="round" stroke-miterlimit="20" stroke-width=".5" d="M60.33 76.68v0s4.682 11.282 7.55 12.762c2.867 1.48 12.29-7.665 12.29-7.665v0"/></g><g><path fill="#fff" d="M64.268 71.74s-1.24 2.708-.868 3.7c.372.99 15.74 6.524 15.74 6.524s.122 2.09.495 2.59c.319.542.569 1.12.745 1.724 0 0-.745 1.724-.373 2.093.373.37 1.49-1.723 1.49-2.337 0-.615.123-3.94-.246-4.81-.368-.869-10.909-7.26-10.909-7.26z"/><path fill="none" stroke="#2e353a" stroke-linecap="round" stroke-linejoin="round" stroke-miterlimit="20" stroke-width=".5" d="M64.268 71.74v0s-1.24 2.708-.868 3.7c.372.99 15.74 6.524 15.74 6.524v0s.122 2.09.495 2.59c.319.542.569 1.12.745 1.724 0 0-.745 1.724-.373 2.093.373.37 1.49-1.723 1.49-2.337 0-.615.123-3.94-.246-4.81-.368-.869-10.909-7.26-10.909-7.26v0z"/></g><g><path fill="#2e353a" d="M71.068 56.97L63.88 72.107l6.443 1.85 5.207-12.063"/><path fill="none" stroke="#2e353a" stroke-linecap="round" stroke-linejoin="round" stroke-miterlimit="20" stroke-width=".5" d="M71.068 56.97v0L63.88 72.107v0l6.443 1.85v0l5.207-12.063v0"/></g><g><path fill="none" stroke="#fff" stroke-linecap="round" stroke-linejoin="round" stroke-miterlimit="20" stroke-width=".5" d="M70.33 73.958l4.745-10.568"/></g><g><path fill="none" stroke="#fff" stroke-linecap="round" stroke-linejoin="round" stroke-miterlimit="20" stroke-width=".5" d="M73.44 67.271l2.387-2.371"/></g><g><path fill="none" stroke="#2e353a" stroke-linecap="round" stroke-linejoin="round" stroke-miterlimit="20" stroke-width=".5" d="M66.37 106.81a18.325 18.325 0 0 0 9.661 1.986"/></g><g><path fill="none" stroke="#2e353a" stroke-linecap="round" stroke-linejoin="round" stroke-miterlimit="20" stroke-width=".5" d="M64.75 105.84s.287.215.82.533"/></g><g><path fill="none" stroke="#2e353a" stroke-linecap="round" stroke-linejoin="round" stroke-miterlimit="20" stroke-width=".5" d="M88.91 105.94a14.85 14.85 0 0 0 1.374-.84"/></g><g><path fill="none" stroke="#2e353a" stroke-linecap="round" stroke-linejoin="round" stroke-miterlimit="20" stroke-width=".5" d="M79.37 108.31a21.806 21.806 0 0 0 8.44-1.82"/></g><g><path fill="none" stroke="#2e353a" stroke-linecap="round" stroke-linejoin="round" stroke-miterlimit="20" stroke-width=".5" d="M78.14 101.158l2.674-4.598"/></g><g><path fill="none" stroke="#2e353a" stroke-linecap="round" stroke-linejoin="round" stroke-miterlimit="20" stroke-width=".5" d="M78.28 100.92l4.458-5.02"/></g><g><path fill="none" stroke="#2e353a" stroke-linecap="round" stroke-linejoin="round" stroke-miterlimit="20" stroke-width=".5" d="M66.912 98.93v0l-.372 2.73a11.41 11.41 0 0 0 2.98 1.48c1.784.592 5.586.518 5.586.518v0l.522-2.59v0s-6.615-.74-7.952-1.85"/></g><g><path fill="none" stroke="#2e353a" stroke-linecap="round" stroke-linejoin="round" stroke-miterlimit="20" stroke-width=".5" d="M66.467 102.69v0s-1.043 2.512-.372 3.104c.67.591 5.423 2.36 6.704 2.22 1.281-.141 2.004-3.249 2.004-3.249v0"/></g><g><path fill="#2e353a" d="M104.28 131.702c.42-1.443-1.073-.718-1.703-.251-.816.602-4.886 1.11-4.886 1.11l-.496-1.11a8.614 8.614 0 0 1-2.525 1.531c1.084 2.138 1.952 3.817 2.332 3.88 1.083.193 2.737-1.183 3.542-1.742 1.024-.714 3.374-2.164 3.735-3.418z"/><path fill="none" stroke="#2e353a" stroke-linecap="round" stroke-linejoin="round" stroke-miterlimit="20" stroke-width=".5" d="M104.28 131.702c.42-1.443-1.073-.718-1.703-.251-.816.602-4.886 1.11-4.886 1.11v0l-.496-1.11a8.614 8.614 0 0 1-2.525 1.531c1.084 2.138 1.952 3.817 2.332 3.88 1.083.193 2.737-1.183 3.542-1.742 1.024-.714 3.374-2.164 3.735-3.418z"/></g><g><path fill="#fff" d="M101.19 133.717c-1.676.865-3.631 1.916-4.76 2.504.246.37.443.61.577.633 1.084.192 2.738-1.184 3.542-1.743 1.025-.71 3.375-2.16 3.725-3.414.179-.607 0-.828-.28-.847-.618 1.028-1.579 2.245-2.804 2.867z"/><path fill="none" stroke="#2e353a" stroke-linecap="round" stroke-linejoin="round" stroke-miterlimit="20" stroke-width=".5" d="M101.19 133.717c-1.676.865-3.631 1.916-4.76 2.504.246.37.443.61.577.633 1.084.192 2.738-1.184 3.542-1.743 1.025-.71 3.375-2.16 3.725-3.414.179-.607 0-.828-.28-.847-.618 1.028-1.579 2.245-2.804 2.867z"/></g><g><path fill="#fff" d="M62.867 136.944c-.179-.133-2.201-1.542-2.138-1.716 0 0 .406-1.084 1.028-2.69a11.683 11.683 0 0 1-3.099-.828c-.99 2.989-1.862 5.527-1.616 5.896.495.792 4.887 1.883 6.581 1.883.89 0 2.365.34 2.954-.521.033-.048-3.483-1.857-3.71-2.024z"/><path fill="none" stroke="#2e353a" stroke-linecap="round" stroke-linejoin="round" stroke-miterlimit="20" stroke-width=".5" d="M62.867 136.944c-.179-.133-2.201-1.542-2.138-1.716 0 0 .406-1.084 1.028-2.69a11.683 11.683 0 0 1-3.099-.828c-.99 2.989-1.862 5.527-1.616 5.896.495.792 4.887 1.883 6.581 1.883.89 0 2.365.34 2.954-.521.033-.048-3.483-1.857-3.71-2.024z"/></g><g><path fill="#2e353a" d="M66.579 138.968c.033-.049-3.483-1.85-3.725-2.024-.242-.174-2.201-1.542-2.138-1.716l.395-1.047a15.947 15.947 0 0 1-3.002-.851c-.745 2.242-1.27 3.973-1.08 4.276.495.792 4.887 1.883 6.581 1.883.905 0 2.38.34 2.969-.521z"/><path fill="none" stroke="#2e353a" stroke-linecap="round" stroke-linejoin="round" stroke-miterlimit="20" stroke-width=".5" d="M66.579 138.968c.033-.049-3.483-1.85-3.725-2.024-.242-.174-2.201-1.542-2.138-1.716l.395-1.047a15.947 15.947 0 0 1-3.002-.851c-.745 2.242-1.27 3.973-1.08 4.276.495.792 4.887 1.883 6.581 1.883.905 0 2.38.34 2.969-.521z"/></g><g><path fill="#fff" d="M63.087 138.68c-2.283-.137-4.82-1.07-6.06-1.58a.904.904 0 0 0 0 .514c.496.792 4.887 1.883 6.581 1.883.89 0 2.366.34 2.954-.522a3.664 3.664 0 0 0-.525-.307c-.982.072-1.968.076-2.95.012z"/><path fill="none" stroke="#2e353a" stroke-linecap="round" stroke-linejoin="round" stroke-miterlimit="20" stroke-width=".5" d="M63.087 138.68c-2.283-.137-4.82-1.07-6.06-1.58a.904.904 0 0 0 0 .514c.496.792 4.887 1.883 6.581 1.883.89 0 2.366.34 2.954-.522a3.664 3.664 0 0 0-.525-.307c-.982.072-1.968.076-2.95.012z"/></g><g><path fill="none" stroke="#000" stroke-linecap="round" stroke-linejoin="round" stroke-miterlimit="20" stroke-width=".5" d="M76.909 41.994L74.92 37.3"/></g><g><path fill="none" stroke="#000" stroke-linecap="round" stroke-linejoin="round" stroke-miterlimit="20" stroke-width=".5" d="M74.664 36.44s-.621-1.362-.122-1.98"/></g></g></g></g></svg>