<svg xmlns="http://www.w3.org/2000/svg" width="536" height="86" viewBox="0 0 536 86"><g><g><path fill="#f8f9fb" d="M0 0h536v86H0z"/></g><g><path fill="none" stroke="#263238" stroke-miterlimit="20" stroke-width=".5" d="M93.664 60.16a.725.725 0 0 0 .225-.644l-.68-4.68a.73.73 0 0 1 1.075-.745l4.145 2.285a.725.725 0 0 0 .68 0l4.235-2.115a.73.73 0 0 1 1.045.79l-.895 4.65a.71.71 0 0 0 .195.65l3.32 3.37a.73.73 0 0 1-.43 1.24l-4.695.585a.735.735 0 0 0-.56.385l-2.18 4.205a.73.73 0 0 1-1.31-.03l-2-4.285a.725.725 0 0 0-.54-.41l-4.67-.775a.735.735 0 0 1-.415-1.24z"/></g><g><path fill="none" stroke="#263238" stroke-miterlimit="20" stroke-width=".5" d="M443.664 44.16a.725.725 0 0 0 .225-.644l-.68-4.68a.73.73 0 0 1 1.075-.745l4.145 2.285a.725.725 0 0 0 .68 0l4.235-2.115a.73.73 0 0 1 1.045.79l-.895 4.65a.71.71 0 0 0 .195.65l3.32 3.37a.73.73 0 0 1-.43 1.24l-4.695.585a.735.735 0 0 0-.56.385l-2.18 4.205a.73.73 0 0 1-1.31-.03l-2-4.285a.725.725 0 0 0-.54-.41l-4.67-.775a.735.735 0 0 1-.415-1.24z"/></g><g><path fill="none" stroke="#263238" stroke-miterlimit="20" stroke-width=".5" d="M12.114 71.5v0l1.66-1.55a.36.36 0 0 0 .11-.31l-.34-2.245a.35.35 0 0 1 .5-.36l2 1.095a.35.35 0 0 0 .33 0l2.03-1a.35.35 0 0 1 .5.38l-.43 2.235a.35.35 0 0 0 .095.31l1.595 1.62a.35.35 0 0 1-.205.595l-2.255.28a.355.355 0 0 0-.27.19l-1.045 2a.35.35 0 0 1-.63 0l-.965-2.06a.355.355 0 0 0-.26-.2l-2.24-.37a.355.355 0 0 1-.18-.61z"/></g><g><path fill="none" stroke="#263238" stroke-miterlimit="20" stroke-width=".5" d="M37.893 28.127v0l-3.525 3.165a.72.72 0 0 0-.235.635l.605 4.695a.73.73 0 0 1-1.09.725l-4.095-2.35a.715.715 0 0 0-.68-.03l-4.275 2.03a.735.735 0 0 1-1.03-.815l1-4.63a.735.735 0 0 0-.185-.655l-3.25-3.44a.725.725 0 0 1 .455-1.225l4.71-.5a.735.735 0 0 0 .565-.375l2.265-4.155a.73.73 0 0 1 1.31.055l1.92 4.325a.71.71 0 0 0 .53.42l4.655.875a.73.73 0 0 1 .35 1.25z"/></g><g><path fill="none" stroke="#263238" stroke-miterlimit="20" stroke-width=".5" d="M24.382 12.61l-1.69 1.5a.35.35 0 0 0-.115.306l.295 2.255a.35.35 0 0 1-.525.345l-1.965-1.135a.35.35 0 0 0-.33 0l-2.05.98a.35.35 0 0 1-.5-.39l.475-2.225a.35.35 0 0 0-.09-.315l-1.56-1.65a.35.35 0 0 1 .22-.59l2.26-.235a.375.375 0 0 0 .275-.18l1.085-2a.35.35 0 0 1 .63.025l.92 2.075a.36.36 0 0 0 .26.205l2.23.42a.35.35 0 0 1 .175.61z"/></g><g><path fill="none" stroke="#263238" stroke-miterlimit="20" stroke-width=".5" d="M501.872 67.07l-3.27-.66a.5.5 0 0 0-.46.135l-2.395 2.32a.5.5 0 0 1-.87-.315l-.385-3.315a.5.5 0 0 0-.27-.395l-2.93-1.55a.5.5 0 0 1 .025-.92l3.035-1.39a.5.5 0 0 0 .295-.38l.56-3.31a.5.5 0 0 1 .89-.26l2.255 2.46a.5.5 0 0 0 .45.16l3.305-.465a.5.5 0 0 1 .5.76l-1.64 2.91a.53.53 0 0 0 0 .475l1.465 3a.5.5 0 0 1-.56.74z"/></g><g><path fill="none" stroke="#263238" stroke-miterlimit="20" stroke-width=".5" d="M504.957 52.896l-1.57-.32a.255.255 0 0 0-.22.065l-1.15 1.115a.25.25 0 0 1-.42-.15l-.185-1.59a.225.225 0 0 0-.125-.19l-1.42-.755a.245.245 0 0 1 0-.44l1.46-.67a.25.25 0 0 0 .14-.18l.275-1.58a.25.25 0 0 1 .425-.125l1.12 1.18a.25.25 0 0 0 .215.08l1.59-.225a.25.25 0 0 1 .25.365l-.79 1.4a.25.25 0 0 0 0 .23l.705 1.435a.25.25 0 0 1-.3.355z"/></g></g></svg>