<?xml version="1.0" encoding="UTF-8"?>
<svg width="536px" height="86px" viewBox="0 0 536 86" version="1.1" xmlns="http://www.w3.org/2000/svg" xmlns:xlink="http://www.w3.org/1999/xlink">
    <title>banner</title>
    <g id="service" stroke="none" stroke-width="1" fill="none" fill-rule="evenodd">
        <g id="my-profile-blank-(1)" transform="translate(-372.000000, -458.000000)">
            <g id="about-me" transform="translate(360.000000, 418.000000)">
                <g id="banner" transform="translate(12.000000, 40.000000)">
                    <rect id="Rectangle" fill="#F8F9FB" x="0" y="0" width="536" height="86"></rect>
                    <g id="freepik--Icons--inject-2" transform="translate(12.000000, 9.000000)" stroke="#263238" stroke-width="0.5">
                        <path d="M81.6640691,51.1608689 C81.8420063,50.9968882 81.9264052,50.7549449 81.8890691,50.5158689 L81.2090691,45.8358689 C81.1688491,45.5614669 81.2875928,45.2879736 81.5155382,45.1300021 C81.7434836,44.9720307 82.0412567,44.9568682 82.2840691,45.0908689 L86.4290691,47.3758689 C86.6416796,47.4887596 86.8964587,47.4887596 87.1090691,47.3758689 L91.3440691,45.2608689 C91.5925642,45.1358209 91.890531,45.1628752 92.1124402,45.3306343 C92.3343494,45.4983935 92.4416234,45.7776933 92.3890691,46.0508689 L91.4940691,50.7008689 C91.4446142,50.9365854 91.5180289,51.181301 91.6890691,51.3508689 L95.0090691,54.7208689 C95.2061106,54.9186492 95.2730931,55.2114906 95.1816237,55.4752628 C95.0901543,55.7390349 94.856254,55.9275381 94.5790691,55.9608689 L89.8840691,56.5458689 C89.6457195,56.5750208 89.4366386,56.7187639 89.3240691,56.9308689 L87.1440691,61.1358689 C87.0156361,61.3827853 86.7579752,61.5351868 86.4797269,61.5288147 C86.2014785,61.5224426 85.9510643,61.3584058 85.8340691,61.1058689 L83.8340691,56.8208689 C83.732999,56.6032694 83.5308219,56.4497645 83.2940691,56.4108689 L78.6240691,55.6358689 C78.3516976,55.5942774 78.1254636,55.4038455 78.0380177,55.1425615 C77.9505719,54.8812774 78.016603,54.593031 78.2090691,54.3958689 L81.6640691,51.1608689 Z" id="Path"></path>
                        <path d="M431.664069,35.1608689 C431.842006,34.9968882 431.926405,34.7549449 431.889069,34.5158689 L431.209069,29.8358689 C431.168849,29.5614669 431.287593,29.2879736 431.515538,29.1300021 C431.743484,28.9720307 432.041257,28.9568682 432.284069,29.0908689 L436.429069,31.3758689 C436.64168,31.4887596 436.896459,31.4887596 437.109069,31.3758689 L441.344069,29.2608689 C441.592564,29.1358209 441.890531,29.1628752 442.11244,29.3306343 C442.334349,29.4983935 442.441623,29.7776933 442.389069,30.0508689 L441.494069,34.7008689 C441.444614,34.9365854 441.518029,35.181301 441.689069,35.3508689 L445.009069,38.7208689 C445.206111,38.9186492 445.273093,39.2114906 445.181624,39.4752628 C445.090154,39.7390349 444.856254,39.9275381 444.579069,39.9608689 L439.884069,40.5458689 C439.645719,40.5750208 439.436639,40.7187639 439.324069,40.9308689 L437.144069,45.1358689 C437.015636,45.3827853 436.757975,45.5351868 436.479727,45.5288147 C436.201479,45.5224426 435.951064,45.3584058 435.834069,45.1058689 L433.834069,40.8208689 C433.732999,40.6032694 433.530822,40.4497645 433.294069,40.4108689 L428.624069,39.6358689 C428.351698,39.5942774 428.125464,39.4038455 428.038018,39.1425615 C427.950572,38.8812774 428.016603,38.593031 428.209069,38.3958689 L431.664069,35.1608689 Z" id="Path"></path>
                        <path d="M0.113665464,62.5001794 L1.77366546,60.9501794 C1.85815705,60.8706176 1.8991107,60.7552027 1.88366546,60.6401794 L1.54366546,58.3951794 C1.52705574,58.2675776 1.58180389,58.141152 1.6862308,58.0659646 C1.79065772,57.9907772 1.9279203,57.9789551 2.04366546,58.0351794 L4.04366546,59.1301794 C4.1467626,59.1852908 4.27056833,59.1852908 4.37366546,59.1301794 L6.40366546,58.1301794 C6.52294685,58.0705713 6.66573589,58.0839209 6.771901,58.1646064 C6.87806612,58.2452918 6.92915983,58.3792932 6.90366546,58.5101794 L6.47366546,60.7451794 C6.45267414,60.8578339 6.48815971,60.9736289 6.56866546,61.0551794 L8.16366546,62.6751794 C8.25837031,62.7698154 8.29079044,62.9101861 8.24717823,63.0367679 C8.20356602,63.1633496 8.09156372,63.2539613 7.95866546,63.2701794 L5.70366546,63.5501794 C5.58789881,63.5652639 5.48694873,63.6363028 5.43366546,63.7401794 L4.38866546,65.7401794 C4.33018521,65.860926 4.20782837,65.937618 4.07366546,65.937618 C3.93950256,65.937618 3.81714572,65.860926 3.75866546,65.7401794 L2.79366546,63.6801794 C2.74484167,63.5750685 2.64778321,63.5004082 2.53366546,63.4801794 L0.293665464,63.1101794 C0.160842248,63.0868764 0.05269093,62.9903297 0.0145254813,62.8609912 C-0.0236399675,62.7316528 0.0147712972,62.5918581 0.113665464,62.5001794 L0.113665464,62.5001794 Z" id="Path"></path>
                        <path d="M25.895,19.13 L22.37,22.295 C22.1908187,22.454332 22.102712,22.6924077 22.135,22.93 L22.74,27.625 C22.7755363,27.9005291 22.6516004,28.1723464 22.4202844,28.3262034 C22.1889683,28.4800604 21.8903722,28.489285 21.65,28.35 L17.555,26 C17.3479369,25.8758309 17.0921935,25.8645481 16.875,25.97 L12.6,28 C12.3481081,28.1172598 12.0516237,28.0824558 11.8337354,27.9100491 C11.6158471,27.7376423 11.5138022,27.4571051 11.57,27.185 L12.57,22.555 C12.6192295,22.3195481 12.5501324,22.074907 12.385,21.9 L9.135,18.46 C8.94163827,18.2593664 8.8803719,17.965668 8.97739206,17.7044599 C9.07441223,17.4432518 9.3125491,17.2607603 9.59,17.235 L14.3,16.735 C14.5381895,16.7095391 14.7490281,16.569602 14.865,16.36 L17.13,12.205 C17.2629666,11.9601174 17.5237437,11.8122921 17.8021516,11.823981 C18.0805594,11.8356699 18.3280278,12.0048338 18.44,12.26 L20.36,16.585 C20.4543697,16.8055457 20.6537249,16.9635253 20.89,17.005 L25.545,17.88 C25.8128233,17.9349679 26.0274799,18.1349844 26.1011983,18.3982645 C26.1749167,18.6615446 26.0953375,18.9439471 25.895,19.13 L25.895,19.13 Z" id="Path"></path>
                        <path d="M12.38,3.61 L10.69,5.11 C10.6037751,5.18652264 10.560763,5.30059825 10.575,5.415 L10.87,7.67 C10.8865725,7.80239416 10.8264285,7.93269367 10.7149225,8.00596903 C10.6034165,8.07924438 10.4599488,8.08274688 10.345,8.015 L8.38,6.88 C8.27690287,6.82488865 8.15309713,6.82488865 8.05,6.88 L6,7.86 C5.87890582,7.92166693 5.73306206,7.90766633 5.62591098,7.82408848 C5.5187599,7.74051064 5.46967177,7.60246437 5.5,7.47 L5.975,5.245 C5.9990258,5.1315744 5.96532223,5.01361188 5.885,4.93 L4.325,3.28 C4.23248628,3.18301709 4.20348246,3.04171779 4.25031075,2.91613282 C4.29713904,2.79054786 4.41157472,2.70273447 4.545,2.69 L6.805,2.455 C6.91947852,2.44050624 7.02090982,2.37411484 7.08,2.275 L8.165,0.275 C8.22812593,0.156382886 8.35358618,0.0843762943 8.48784904,0.0897041857 C8.6221119,0.095032077 8.74147182,0.176753755 8.795,0.3 L9.715,2.375 C9.76323734,2.48149802 9.86018715,2.55793921 9.975,2.58 L12.205,3 C12.3394434,3.02118703 12.4494129,3.1183913 12.4869448,3.24921666 C12.5244766,3.38004203 12.482764,3.52076167 12.38,3.61 Z" id="Path"></path>
                        <path d="M489.872013,58.0662971 L486.602013,57.4062971 C486.435697,57.3700632 486.262371,57.4209305 486.142013,57.5412971 L483.747013,59.8612971 C483.610738,60.0116159 483.397135,60.0646785 483.206359,59.9956045 C483.015583,59.9265305 482.885464,59.7490166 482.877013,59.5462971 L482.492013,56.2312971 C482.47494,56.0623195 482.373258,55.9135622 482.222013,55.8362971 L479.292013,54.2862971 C479.109622,54.202866 478.994737,54.0185203 479.000186,53.8180273 C479.005634,53.6175342 479.130361,53.4396998 479.317013,53.3662971 L482.352013,51.9762971 C482.508824,51.9083668 482.62008,51.7650538 482.647013,51.5962971 L483.207013,48.2862971 C483.227302,48.083481 483.368672,47.9132831 483.564323,47.8561267 C483.759974,47.7989704 483.970734,47.8662987 484.097013,48.0262971 L486.352013,50.4862971 C486.4652,50.6124533 486.63459,50.6726811 486.802013,50.6462971 L490.107013,50.1812971 C490.300496,50.1513163 490.493674,50.2370245 490.601285,50.4005922 C490.708895,50.5641598 490.711134,50.7754862 490.607013,50.9412971 L488.967013,53.8512971 C488.89209,54.000767 488.89209,54.1768271 488.967013,54.3262971 L490.432013,57.3262971 C490.537225,57.5013325 490.525413,57.7227609 490.402176,57.8856095 C490.278939,58.0484581 490.069051,58.1199912 489.872013,58.0662971 Z" id="Path"></path>
                        <path d="M492.962013,43.8962971 L491.392013,43.5762971 C491.312524,43.5618926 491.230911,43.5860056 491.172013,43.6412971 L490.022013,44.7562971 C489.953646,44.821101 489.854656,44.8419736 489.765944,44.8102907 C489.677232,44.7786078 489.61386,44.699749 489.602013,44.6062971 L489.417013,43.0162971 C489.412778,42.9350169 489.364978,42.8623603 489.292013,42.8262971 L487.872013,42.0712971 C487.788052,42.0301487 487.734832,41.9447992 487.734832,41.8512971 C487.734832,41.7577949 487.788052,41.6724454 487.872013,41.6312971 L489.332013,40.9612971 C489.40492,40.9273137 489.457022,40.8603258 489.472013,40.7812971 L489.747013,39.2012971 C489.765139,39.1100506 489.832431,39.0364153 489.92168,39.0101656 C490.01093,38.9839158 490.107373,39.0093936 490.172013,39.0762971 L491.292013,40.2562971 C491.346493,40.3162114 491.426619,40.3460258 491.507013,40.3362971 L493.097013,40.1112971 C493.189191,40.1005707 493.279727,40.1417862 493.332167,40.2183492 C493.384607,40.2949121 493.390323,40.3942232 493.347013,40.4762971 L492.557013,41.8762971 C492.519653,41.9484122 492.519653,42.0341819 492.557013,42.1062971 L493.262013,43.5412971 C493.310397,43.631654 493.298726,43.7423899 493.232569,43.8206754 C493.166413,43.8989609 493.059173,43.9289347 492.962013,43.8962971 Z" id="Path"></path>
                    </g>
                </g>
            </g>
        </g>
    </g>
</svg>