<?xml version="1.0" encoding="UTF-8"?>
<svg width="328px" height="160px" viewBox="0 0 328 160" version="1.1" xmlns="http://www.w3.org/2000/svg" xmlns:xlink="http://www.w3.org/1999/xlink">
    <title>banner</title>
    <g id="service" stroke="none" stroke-width="1" fill="none" fill-rule="evenodd">
        <g id="my-profile-blank" transform="translate(-16.000000, -400.000000)">
            <g id="about-me" transform="translate(0.000000, 360.000000)">
                <g id="banner" transform="translate(16.000000, 40.000000)">
                    <rect id="Rectangle" fill="#F8F9FB" x="0" y="0" width="328" height="160"></rect>
                    <g id="freepik--Icons--inject-2" transform="translate(8.000000, 8.000000)" stroke="#263238" stroke-width="0.5">
                        <g id="1" transform="translate(0.000000, 70.000000)">
                            <path d="M81.6640691,51.0714413 C81.8420063,50.9074606 81.9264052,50.6655172 81.8890691,50.4264413 L81.2090691,45.7464413 C81.1688491,45.4720393 81.2875928,45.1985459 81.5155382,45.0405745 C81.7434836,44.882603 82.0412567,44.8674406 82.2840691,45.0014413 L86.4290691,47.2864413 C86.6416796,47.399332 86.8964587,47.399332 87.1090691,47.2864413 L91.3440691,45.1714413 C91.5925642,45.0463932 91.890531,45.0734476 92.1124402,45.2412067 C92.3343494,45.4089658 92.4416234,45.6882657 92.3890691,45.9614413 L91.4940691,50.6114413 C91.4446142,50.8471577 91.5180289,51.0918733 91.6890691,51.2614413 L95.0090691,54.6314413 C95.2061106,54.8292215 95.2730931,55.122063 95.1816237,55.3858352 C95.0901543,55.6496073 94.856254,55.8381104 94.5790691,55.8714413 L89.8840691,56.4564413 C89.6457195,56.4855932 89.4366386,56.6293363 89.3240691,56.8414413 L87.1440691,61.0464413 C87.0156361,61.2933577 86.7579752,61.4457592 86.4797269,61.4393871 C86.2014785,61.433015 85.9510643,61.2689782 85.8340691,61.0164413 L83.8340691,56.7314413 C83.732999,56.5138418 83.5308219,56.3603369 83.2940691,56.3214413 L78.6240691,55.5464413 C78.3516976,55.5048498 78.1254636,55.3144179 78.0380177,55.0531339 C77.9505719,54.7918498 78.016603,54.5036034 78.2090691,54.3064413 L81.6640691,51.0714413 Z" id="Path"></path>
                            <path d="M0.113665464,62.4107518 L1.77366546,60.8607518 C1.85815705,60.78119 1.8991107,60.6657751 1.88366546,60.5507518 L1.54366546,58.3057518 C1.52705574,58.1781499 1.58180389,58.0517244 1.6862308,57.976537 C1.79065772,57.9013496 1.9279203,57.8895275 2.04366546,57.9457518 L4.04366546,59.0407518 C4.1467626,59.0958632 4.27056833,59.0958632 4.37366546,59.0407518 L6.40366546,58.0407518 C6.52294685,57.9811437 6.66573589,57.9944932 6.771901,58.0751787 C6.87806612,58.1558642 6.92915983,58.2898655 6.90366546,58.4207518 L6.47366546,60.6557518 C6.45267414,60.7684063 6.48815971,60.8842013 6.56866546,60.9657518 L8.16366546,62.5857518 C8.25837031,62.6803878 8.29079044,62.8207585 8.24717823,62.9473402 C8.20356602,63.073922 8.09156372,63.1645337 7.95866546,63.1807518 L5.70366546,63.4607518 C5.58789881,63.4758363 5.48694873,63.5468752 5.43366546,63.6507518 L4.38866546,65.6507518 C4.33018521,65.7714984 4.20782837,65.8481903 4.07366546,65.8481903 C3.93950256,65.8481903 3.81714572,65.7714984 3.75866546,65.6507518 L2.79366546,63.5907518 C2.74484167,63.4856409 2.64778321,63.4109806 2.53366546,63.3907518 L0.293665464,63.0207518 C0.160842248,62.9974487 0.05269093,62.9009021 0.0145254813,62.7715636 C-0.0236399675,62.6422251 0.0147712972,62.5024305 0.113665464,62.4107518 L0.113665464,62.4107518 Z" id="Path"></path>
                            <path d="M25.895,19.0405724 L22.37,22.2055724 C22.1908187,22.3649044 22.102712,22.6029801 22.135,22.8405724 L22.74,27.5355724 C22.7755363,27.8111015 22.6516004,28.0829187 22.4202844,28.2367757 C22.1889683,28.3906328 21.8903722,28.3998574 21.65,28.2605724 L17.555,25.9105724 C17.3479369,25.7864033 17.0921935,25.7751205 16.875,25.8805724 L12.6,27.9105724 C12.3481081,28.0278322 12.0516237,27.9930282 11.8337354,27.8206215 C11.6158471,27.6482147 11.5138022,27.3676775 11.57,27.0955724 L12.57,22.4655724 C12.6192295,22.2301205 12.5501324,21.9854793 12.385,21.8105724 L9.135,18.3705724 C8.94163827,18.1699388 8.8803719,17.8762404 8.97739206,17.6150323 C9.07441223,17.3538242 9.3125491,17.1713327 9.59,17.1455724 L14.3,16.6455724 C14.5381895,16.6201115 14.7490281,16.4801744 14.865,16.2705724 L17.13,12.1155724 C17.2629666,11.8706898 17.5237437,11.7228645 17.8021516,11.7345534 C18.0805594,11.7462422 18.3280278,11.9154061 18.44,12.1705724 L20.36,16.4955724 C20.4543697,16.7161181 20.6537249,16.8740977 20.89,16.9155724 L25.545,17.7905724 C25.8128233,17.8455403 26.0274799,18.0455568 26.1011983,18.3088369 C26.1749167,18.5721169 26.0953375,18.8545195 25.895,19.0405724 L25.895,19.0405724 Z" id="Path"></path>
                            <path d="M12.38,3.52057238 L10.69,5.02057238 C10.6037751,5.09709502 10.560763,5.21117063 10.575,5.32557238 L10.87,7.58057238 C10.8865725,7.71296654 10.8264285,7.84326605 10.7149225,7.9165414 C10.6034165,7.98981676 10.4599488,7.99331926 10.345,7.92557238 L8.38,6.79057238 C8.27690287,6.73546103 8.15309713,6.73546103 8.05,6.79057238 L6,7.77057238 C5.87890582,7.83223931 5.73306206,7.81823871 5.62591098,7.73466086 C5.5187599,7.65108302 5.46967177,7.51303675 5.5,7.38057238 L5.975,5.15557238 C5.9990258,5.04214677 5.96532223,4.92418426 5.885,4.84057238 L4.325,3.19057238 C4.23248628,3.09358947 4.20348246,2.95229016 4.25031075,2.8267052 C4.29713904,2.70112024 4.41157472,2.61330685 4.545,2.60057238 L6.805,2.36557238 C6.91947852,2.35107861 7.02090982,2.28468722 7.08,2.18557238 L8.165,0.185572379 C8.22812593,0.0669552644 8.35358618,-0.00505132716 8.48784904,0.00027656421 C8.6221119,0.00560445558 8.74147182,0.0873261332 8.795,0.210572379 L9.715,2.28557238 C9.76323734,2.39207039 9.86018715,2.46851159 9.975,2.49057238 L12.205,2.91057238 C12.3394434,2.93175941 12.4494129,3.02896368 12.4869448,3.15978904 C12.5244766,3.2906144 12.482764,3.43133405 12.38,3.52057238 Z" id="Path"></path>
                        </g>
                        <g id="2" transform="translate(254.000000, 0.000000)">
                            <path d="M3.66406914,6.16086888 C3.84200633,5.9968882 3.92640517,5.75494486 3.88906914,5.51586888 L3.20906914,0.835868878 C3.1688491,0.561466945 3.28759285,0.287973562 3.51553822,0.130002115 C3.7434836,-0.0279693319 4.04125668,-0.0431317988 4.28406914,0.090868878 L8.42906914,2.37586888 C8.64167958,2.48875962 8.89645871,2.48875962 9.10906914,2.37586888 L13.3440691,0.260868878 C13.5925642,0.13582086 13.890531,0.162875223 14.1124402,0.330634342 C14.3343494,0.498393462 14.4416234,0.777693349 14.3890691,1.05086888 L13.4940691,5.70086888 C13.4446142,5.93658536 13.5180289,6.18130095 13.6890691,6.35086888 L17.0090691,9.72086888 C17.2061106,9.91864916 17.2730931,10.2114906 17.1816237,10.4752628 C17.0901543,10.7390349 16.856254,10.9275381 16.5790691,10.9608689 L11.8840691,11.5458689 C11.6457195,11.5750208 11.4366386,11.7187639 11.3240691,11.9308689 L9.14406914,16.1358689 C9.01563613,16.3827853 8.75797522,16.5351868 8.47972687,16.5288147 C8.20147852,16.5224426 7.95106429,16.3584058 7.83406914,16.1058689 L5.83406914,11.8208689 C5.73299899,11.6032694 5.53082186,11.4497645 5.29406914,11.4108689 L0.624069144,10.6358689 C0.351697561,10.5942774 0.125463601,10.4038455 0.0380177336,10.1425615 C-0.0494281341,9.88127745 0.0166029976,9.59303102 0.209069144,9.39586888 L3.66406914,6.16086888 Z" id="Path"></path>
                            <path d="M61.8720132,29.0662971 L58.6020132,28.4062971 C58.4356965,28.3700632 58.262371,28.4209305 58.1420132,28.5412971 L55.7470132,30.8612971 C55.6107381,31.0116159 55.3971346,31.0646785 55.2063588,30.9956045 C55.0155829,30.9265305 54.885464,30.7490166 54.8770132,30.5462971 L54.4920132,27.2312971 C54.4749403,27.0623195 54.3732581,26.9135622 54.2220132,26.8362971 L51.2920132,25.2862971 C51.1096224,25.202866 50.9947374,25.0185203 51.0001856,24.8180273 C51.0056338,24.6175342 51.1303606,24.4396998 51.3170132,24.3662971 L54.3520132,22.9762971 C54.5088242,22.9083668 54.6200804,22.7650538 54.6470132,22.5962971 L55.2070132,19.2862971 C55.227302,19.083481 55.3686724,18.9132831 55.564323,18.8561267 C55.7599736,18.7989704 55.9707337,18.8662987 56.0970132,19.0262971 L58.3520132,21.4862971 C58.4651997,21.6124533 58.6345901,21.6726811 58.8020132,21.6462971 L62.1070132,21.1812971 C62.3004958,21.1513163 62.4936743,21.2370245 62.6012846,21.4005922 C62.708895,21.5641598 62.7111339,21.7754862 62.6070132,21.9412971 L60.9670132,24.8512971 C60.8920901,25.000767 60.8920901,25.1768271 60.9670132,25.3262971 L62.4320132,28.3262971 C62.5372252,28.5013325 62.5254128,28.7227609 62.402176,28.8856095 C62.2789392,29.0484581 62.0690511,29.1199912 61.8720132,29.0662971 Z" id="Path"></path>
                            <path d="M64.9620132,14.8962971 L63.3920132,14.5762971 C63.3125238,14.5618926 63.2309106,14.5860056 63.1720132,14.6412971 L62.0220132,15.7562971 C61.953646,15.821101 61.854656,15.8419736 61.765944,15.8102907 C61.677232,15.7786078 61.6138605,15.699749 61.6020132,15.6062971 L61.4170132,14.0162971 C61.4127782,13.9350169 61.3649778,13.8623603 61.2920132,13.8262971 L59.8720132,13.0712971 C59.788052,13.0301487 59.7348325,12.9447992 59.7348325,12.8512971 C59.7348325,12.7577949 59.788052,12.6724454 59.8720132,12.6312971 L61.3320132,11.9612971 C61.40492,11.9273137 61.4570217,11.8603258 61.4720132,11.7812971 L61.7470132,10.2012971 C61.765139,10.1100506 61.8324313,10.0364153 61.9216804,10.0101656 C62.0109295,9.98391581 62.1073727,10.0093936 62.1720132,10.0762971 L63.2920132,11.2562971 C63.3464932,11.3162114 63.4266195,11.3460258 63.5070132,11.3362971 L65.0970132,11.1112971 C65.1891914,11.1005707 65.2797267,11.1417862 65.3321671,11.2183492 C65.3846074,11.2949121 65.3903233,11.3942232 65.3470132,11.4762971 L64.5570132,12.8762971 C64.5196528,12.9484122 64.5196528,13.0341819 64.5570132,13.1062971 L65.2620132,14.5412971 C65.3103966,14.631654 65.298726,14.7423899 65.2325693,14.8206754 C65.1664125,14.8989609 65.0591735,14.9289347 64.9620132,14.8962971 Z" id="Path"></path>
                        </g>
                    </g>
                </g>
            </g>
        </g>
    </g>
</svg>