<svg xmlns="http://www.w3.org/2000/svg" width="220" height="222" viewBox="0 0 220 222"><g><g><g><g opacity=".7"><path fill="#fff" d="M19.968 69.047s-13.94 36 5.65 72.25 59.94 55.4 92.236 71.775c32.294 16.375 65.83 8.4 81.764-18.42 15.935-26.82-5.92-45.965-5.95-84.21-.03-38.245 5.725-48.37-15-80.68-20.725-32.31-71.53-39.465-109.95-15.5-38.42 23.965-48.75 54.785-48.75 54.785z"/></g><g><path fill="#adc7f7" d="M6.54 132.267a54.35 54.35 0 0 1 2.895-32.265C15.21 85.722 27.62 75.577 41.52 69.657c20.205-8.605 40.035-8.765 56.46-25.625 5.065-5.2 9.315-11.155 14.5-16.245 15.26-15 37.595-13.2 54.275-1.29 34.79 24.845 47.305 74.055 45.37 114.735-.88 18.27-9.595 35.27-23.39 47.24-31.2 27.09-84.175 22.53-120 8.39C42 186.317 12.815 161.717 6.54 132.267z"/></g><g opacity=".7"><path fill="#fff" d="M6.54 132.267a54.35 54.35 0 0 1 2.895-32.265C15.21 85.722 27.62 75.577 41.52 69.657c20.205-8.605 40.035-8.765 56.46-25.625 5.065-5.2 9.315-11.155 14.5-16.245 15.26-15 37.595-13.2 54.275-1.29 34.79 24.845 47.305 74.055 45.37 114.735-.88 18.27-9.595 35.27-23.39 47.24-31.2 27.09-84.175 22.53-120 8.39C42 186.317 12.815 161.717 6.54 132.267z"/></g></g><g><g transform="rotate(-45 32.5 75.5)"><path fill="none" stroke="#263238" stroke-linecap="round" stroke-linejoin="round" stroke-miterlimit="20" stroke-width=".5" d="M33.045 84.19a8.995 8.995 0 1 0 0-17.99 8.995 8.995 0 0 0 0 17.99z"/></g><g><path fill="none" stroke="#263238" stroke-linecap="round" stroke-linejoin="round" stroke-miterlimit="20" stroke-width=".5" d="M187.676 49.58c3.885-.564 8.665 1.236 9.13 5.62.425 3.956-2.285 8-4.685 10.906-2.27 2.725-5.39 5.8-8.84 7-3.935 1.345-5.2-2.73-2.78-5.36 4.825-5.245 16.235-7.85 22.24-3.405 6.76 5 2.195 15.6-4.125 18.775-2.055 1.035-3.865-.275-2.385-2.445 1.12-1.645 3.255-2.4 5.125-2.74 3.735-.68 9.545.15 10.955 4.335"/></g><g><path fill="none" stroke="#263238" stroke-linecap="round" stroke-linejoin="round" stroke-miterlimit="20" stroke-width=".5" d="M179.5 53.03a24 24 0 0 1 6-2.95"/></g><g><path fill="none" stroke="#263238" stroke-linecap="round" stroke-linejoin="round" stroke-miterlimit="20" stroke-width=".5" d="M175.71 55.975c.63-.584 1.29-1.127 1.97-1.645"/></g><g><path fill="none" stroke="#263238" stroke-linecap="round" stroke-linejoin="round" stroke-miterlimit="20" stroke-width=".5" d="M113.495 16.84v0l1.605-1.67v0l-19.57 1.885v0l11.17 4.785v0"/></g><g><path fill="none" stroke="#263238" stroke-linecap="round" stroke-linejoin="round" stroke-miterlimit="20" stroke-width=".5" d="M107.6 22.23v0l7.515 3.21v0l-4.286-5.815v0l2.048-2.125v0"/></g><g><path fill="none" stroke="#263238" stroke-linecap="round" stroke-linejoin="round" stroke-miterlimit="20" stroke-width=".5" d="M150 17.72v-6.54"/></g><g><path fill="none" stroke="#263238" stroke-linecap="round" stroke-linejoin="round" stroke-miterlimit="20" stroke-width=".5" d="M150 22.53v-2.84"/></g><g><path fill="none" stroke="#263238" stroke-linecap="round" stroke-linejoin="round" stroke-miterlimit="20" stroke-width=".5" d="M156.97 23.44l4.715-9.88"/></g><g><path fill="none" stroke="#263238" stroke-linecap="round" stroke-linejoin="round" stroke-miterlimit="20" stroke-width=".5" d="M170.22 23.69l2.175-1.69"/></g><g><path fill="none" stroke="#263238" stroke-linecap="round" stroke-linejoin="round" stroke-miterlimit="20" stroke-width=".5" d="M162.78 29.415l5.63-4.335"/></g><g><path fill="none" stroke="#263238" stroke-linecap="round" stroke-linejoin="round" stroke-miterlimit="20" stroke-width=".5" d="M11.4 122.137v0L1.38 119.52v0l1.58 13.675v0l15.835-9.132v0l-6.509-1.696v0"/></g><g><path fill="none" stroke="#263238" stroke-linecap="round" stroke-linejoin="round" stroke-miterlimit="20" stroke-width=".5" d="M207.62 117.12l11.075 3.83"/></g><g><path fill="none" stroke="#263238" stroke-linecap="round" stroke-linejoin="round" stroke-miterlimit="20" stroke-width=".5" d="M201.61 172.05a4.835 4.835 0 1 0 6.635-7"/></g><g><path fill="none" stroke="#263238" stroke-linecap="round" stroke-linejoin="round" stroke-miterlimit="20" stroke-width=".5" d="M207.402 164.5a4.835 4.835 0 0 0-6.35 6.85"/></g><g><path fill="none" stroke="#263238" stroke-linecap="round" stroke-linejoin="round" stroke-miterlimit="20" stroke-width=".5" d="M18.965 153.69l-4.305 11.105"/></g><g><path fill="none" stroke="#263238" stroke-linecap="round" stroke-linejoin="round" stroke-miterlimit="20" stroke-width=".5" d="M20.37 150.06l-.63 1.62"/></g><g><path fill="none" stroke="#263238" stroke-linecap="round" stroke-linejoin="round" stroke-miterlimit="20" stroke-width=".5" d="M53.83 86.61l11.88 6.875"/></g><g><path fill="none" stroke="#263238" stroke-linecap="round" stroke-linejoin="round" stroke-miterlimit="20" stroke-width=".5" d="M40.67 45.5l-9.64 6.23"/></g><g><path fill="none" stroke="#263238" stroke-linecap="round" stroke-linejoin="round" stroke-miterlimit="20" stroke-width=".5" d="M44.1 43.27l-1.5.95"/></g><g><path fill="none" stroke="#263238" stroke-linecap="round" stroke-linejoin="round" stroke-miterlimit="20" stroke-width=".5" d="M209.99 49.47v4.205l3.175-.827v0l-3.175-3.378v0z"/></g></g><g><g><path fill="#adc7f7" d="M75.534 55.465c-.535-1.59 5.465-8.645 5.465-8.645l3.25 3.455s-7.63 8.305-8.715 5.19z"/><path fill="none" stroke="#263238" stroke-linecap="round" stroke-linejoin="round" stroke-miterlimit="20" stroke-width=".5" d="M75.534 55.465c-.535-1.59 5.465-8.645 5.465-8.645v0l3.25 3.455v0s-7.63 8.305-8.715 5.19z"/></g><g><path fill="#bfbfbf" d="M67.32 45.236c1.745 1.55 2.93.355 2.93.355a1.2 1.2 0 0 0 .895 1.465c.81.245 3.965-1.27 6.09-1.27a48.89 48.89 0 0 1 .92 10.525s7.3.745 8.29-4.5c0 0-1.385-3.3-2.34-6.33-1.29-4.095-1.465-5.22-2.14-6.085-1.07-1.36-9.935-3.705-12.31-3.805-2.375-.1-3.66 8.95-6.625 13.14.699.32 1.517.226 2.125-.245.815-.52 2.165-3.25 2.165-3.25z"/><path fill="none" stroke="#263238" stroke-linecap="round" stroke-linejoin="round" stroke-miterlimit="20" stroke-width=".5" d="M67.32 45.236c1.745 1.55 2.93.355 2.93.355a1.2 1.2 0 0 0 .895 1.465c.81.245 3.965-1.27 6.09-1.27a48.89 48.89 0 0 1 .92 10.525s7.3.745 8.29-4.5c0 0-1.385-3.3-2.34-6.33-1.29-4.095-1.465-5.22-2.14-6.085-1.07-1.36-9.935-3.705-12.31-3.805-2.375-.1-3.66 8.95-6.625 13.14.699.32 1.517.226 2.125-.245.815-.52 2.165-3.25 2.165-3.25z"/></g><g><path fill="none" stroke="#263238" stroke-linecap="round" stroke-linejoin="round" stroke-miterlimit="20" stroke-width=".5" d="M67.32 45.235c1.445-3.635 3.275-5.13 3.275-5.13v0s.5-1.29 0-1.685"/></g><g><path fill="none" stroke="#263238" stroke-linecap="round" stroke-linejoin="round" stroke-miterlimit="20" stroke-width=".5" d="M70.25 45.59c.095-1.085 3.905-2.225 4.35-2.865.445-.64 0-3.365 0-3.365v0"/></g><g><path fill="none" stroke="#263238" stroke-linecap="round" stroke-linejoin="round" stroke-miterlimit="20" stroke-width=".5" d="M77.24 45.79a3.84 3.84 0 0 0 3.185-2.28"/></g><g><path fill="none" stroke="#263238" stroke-linecap="round" stroke-linejoin="round" stroke-miterlimit="20" stroke-width=".5" d="M70.6 40.11v0s1.235.89 2.275.89a2.345 2.345 0 0 1 1.24 2.1"/></g><g><path fill="none" stroke="#263238" stroke-linecap="round" stroke-linejoin="round" stroke-miterlimit="20" stroke-width=".5" d="M71.087 42.04c-.597.68-.9 1.57-.84 2.475"/></g><g><path fill="none" stroke="#263238" stroke-linecap="round" stroke-linejoin="round" stroke-miterlimit="20" stroke-width=".5" d="M69.07 42.782s.9-.595 1.29 0"/></g><g><path fill="#adc7f7" d="M134.505 78.295s-6.165-4.5-11.44-3.69c0 0-28.085 3.165-28.745 3.165 0 0-7.5-28.535-8.97-30.95 0 0-.26-2-1.055-2.28 0 0-3.315 9.095-8.765 10.925 0 0 .5 1.73 1.7 1.73 0 0-.185 31 4.165 34.685 4.35 3.685 41.11 6.725 41.11 6.725z"/></g><g opacity=".2"><path d="M114.39 95.675l-1.835 2c-11.215-1.175-28.27-3.33-31.15-5.771-4.35-3.696-4.165-34.693-4.165-34.693-.77 0-1.255-.725-1.5-1.24 4.05-.165 9-4.221 9-4.221.77 4.336-4.865 9.312-4.865 9.312s-.295 17.794 2.08 26.756 32.435 7.857 32.435 7.857z"/></g><g><path fill="none" stroke="#263238" stroke-linecap="round" stroke-linejoin="round" stroke-miterlimit="20" stroke-width=".5" d="M134.505 78.295v0s-6.165-4.5-11.44-3.69c0 0-28.085 3.165-28.745 3.165 0 0-7.5-28.535-8.97-30.95 0 0-.26-2-1.055-2.28 0 0-3.315 9.095-8.765 10.925 0 0 .5 1.73 1.7 1.73 0 0-.185 31 4.165 34.685 4.35 3.685 41.11 6.725 41.11 6.725v0z"/></g><g><path fill="#bfbfbf" d="M125.243 79.875s1.135-3.825 6.18-2.945c5.045.88 17.595 1.23 23.925-.75 0 0-16.205 20.97-25.755 17.21-9.55-3.76-4.35-13.515-4.35-13.515z"/><path fill="none" stroke="#263238" stroke-linecap="round" stroke-linejoin="round" stroke-miterlimit="20" stroke-width=".5" d="M125.243 79.875v0s1.135-3.825 6.18-2.945c5.045.88 17.595 1.23 23.925-.75 0 0-16.205 20.97-25.755 17.21-9.55-3.76-4.35-13.515-4.35-13.515z"/></g><g><path fill="#263238" d="M152.302 33.951s-1.465-5-5.105-3.925c-3.64 1.075-3.145.925-5.155-.15-2.01-1.075-3.25-.155-3.935 1.38s-2.075 1.155-4.22.425c-2.145-.73-4 .21-3.925 2.27.075 2.06-2.665-.085-4.2 2.215-1.535 2.3-.615 2.145-.92 4-.305 1.855-3.53 2.915-2.915 4.605.615 1.69 3.065 4.6.765 5.83-2.3 1.23-3.07 5.065-.845 6.215 2.225 1.15-1.85 4.6-.38 7.745 1.34 2.86 5.06 3.525 3.375 6.44a2.66 2.66 0 0 0 0 3 .75.75 0 0 0 1.37-.37 2.31 2.31 0 0 1 .335-1.115c.765-1.225 1.82 0 3.055-2.3 0 0-.795 2.61 1.83 3.53 1.37.5 1.615 1.29 1.53 1.96a.565.565 0 0 0 .945.5 2.4 2.4 0 0 0 .615-2.145s4.295 3.53 7.365 2.76c3.07-.77 7.055-1.84 7.21-4.14a4.87 4.87 0 0 1 .9 2.255.72.72 0 0 0 1.28.405 4.4 4.4 0 0 0 1.04-2.5 3.45 3.45 0 0 0 1.5 1.815.895.895 0 0 0 1.26-1.025 1.455 1.455 0 0 1 .62-1.715c1.535-.92 2.605-2.605 1.685-4.755 0 0 2.31 1.535 1.54 3.835a2.175 2.175 0 0 0 .235 2.17.5.5 0 0 0 .815-.5 1.72 1.72 0 0 1 .175-1.685c1.07-1.685 3.84-3.735 1.69-6.11-2.15-2.375-.64-3.875-.64-3.875s-.305 1.535 2.305 2.53c2.61.995 1 2.435 1.26 3.5a2.2 2.2 0 0 0 .57 1 .56.56 0 0 0 .895-.655 1.63 1.63 0 0 1-.12-1.615c1.315-2.37-2.145-3.455-2.5-5.525-.355-2.07.15-4.405.355-6.43.185-1.755.325-3.095-.785-4.605-.72-1-1.635-1.89-2-3.065a7.5 7.5 0 0 1-.08-2.775 6.455 6.455 0 0 0-.16-2.77c-.635-1.785-2.755-1.5-3.69-3-.88-1.4-.125-3.275-1.815-4.23a2.7 2.7 0 0 0-3.13.595z"/></g><g><path fill="#bfbfbf" d="M135.105 80.3c2.41-1.53 1.27-6.555.29-9.615-.46-1.445-.885-2.455-.885-2.455h.04l12.65-6.5c-1.6 6.73 0 15.925 0 15.925"/><path fill="none" stroke="#263238" stroke-linecap="round" stroke-linejoin="round" stroke-miterlimit="20" stroke-width=".5" d="M135.105 80.3c2.41-1.53 1.27-6.555.29-9.615-.46-1.445-.885-2.455-.885-2.455v0h.04v0l12.65-6.5c-1.6 6.73 0 15.925 0 15.925v0"/></g><g><path fill="#263238" d="M139.845 68.21a5.935 5.935 0 0 1-4.45 2.5c-.46-1.445-.885-2.455-.885-2.455h.04z"/></g><g><path fill="#bfbfbf" d="M145.646 65.53c3.91-2.46 7.195-6.196 8-11.566 1.5-9.82 1.415-18.79-15.455-17.705-7.39.5-10.255 7.755-10.195 10.045.135 5.305-4.095 14.64 1.145 22.39.78 1.15 5.875 1.195 11.24-.67"/><path fill="none" stroke="#263238" stroke-linecap="round" stroke-linejoin="round" stroke-miterlimit="20" stroke-width=".5" d="M145.646 65.53c3.91-2.46 7.195-6.196 8-11.566 1.5-9.82 1.415-18.79-15.455-17.705-7.39.5-10.255 7.755-10.195 10.045.135 5.305-4.095 14.64 1.145 22.39.78 1.15 5.875 1.195 11.24-.67"/></g><g><path fill="none" stroke="#263238" stroke-linecap="round" stroke-linejoin="round" stroke-miterlimit="20" stroke-width=".5" d="M136.67 47.794s2.66-1 4.19 2.935"/></g><g><path fill="none" stroke="#263238" stroke-linecap="round" stroke-linejoin="round" stroke-miterlimit="20" stroke-width=".5" d="M131.16 47.344a4.68 4.68 0 0 0-3.14-1.04"/></g><g><path fill="none" stroke="#263238" stroke-linecap="round" stroke-linejoin="round" stroke-miterlimit="20" stroke-width=".5" d="M131.502 53.04c-1.38 2.265-3.06 1.14-3 2.265.065.935 2.225 2.575 2.225 2.575v0"/></g><g><path fill="#263238" d="M138.724 53.075c-.145.615-.61 1.035-1.03.93-.42-.105-.645-.68-.5-1.3.145-.62.61-1.03 1.035-.93.425.1.645.685.495 1.3z"/></g><g><path fill="#263238" d="M130.586 51.558c-.1.625-.53 1.075-.96 1-.43-.075-.695-.63-.595-1.26.1-.63.53-1.075.955-1 .425.075.7.635.6 1.26z"/></g><g><path fill="#fff" d="M135.26 60.095a9.12 9.12 0 0 1-.565 1.075c-.645 1.05-1.79 2.435-3.185 2-.425-.13-.62-.735-.7-1.385a9.64 9.64 0 0 1-.03-1.825c.732.15 1.477.235 2.225.25a7.585 7.585 0 0 0 2.255-.115z"/></g><g opacity=".4"><path d="M135.26 60.09a9.12 9.12 0 0 1-.565 1.075c-1.345-.24-2.865.21-3.885.62a9.64 9.64 0 0 1-.03-1.825z"/></g><g><path fill="none" stroke="#263238" stroke-linecap="round" stroke-linejoin="round" stroke-miterlimit="20" stroke-width=".5" d="M135.26 60.095a9.12 9.12 0 0 1-.565 1.075c-.645 1.05-1.79 2.435-3.185 2-.425-.13-.62-.735-.7-1.385a9.64 9.64 0 0 1-.03-1.825c.732.15 1.477.235 2.225.25a7.585 7.585 0 0 0 2.255-.115z"/></g><g><path fill="#263238" d="M138.115 40.31s.415-.92 1.245.92c.83 1.84-2.67 3.67 0 5.055 2.67 1.385 2.78 4.665 1.5 5.94-1.28 1.275 2.09 1.89 2.55 3.12.46 1.23-.92 2.225-.61 3.72.31 1.495 2.23 2.965 2.185 3.765-.045.8-1.72 2.07-.575 3.43 1.145 1.36 4.37.5 4.68 3.245 0 0 9.665-10.745 9.815-20.74.15-9.995-7.055-14.13-14.4-14.765-7.345-.635-18.715 2.935-19.635 15.735 0 0 .345-.81 1.69-1 1.345-.19 2-2 1.835-4-.165-2 1.195-.77 3.05-1.23 1.855-.46 1.24-3.065 2.47-3.5 1.23-.435 2.125 1.995 4.2.305z"/></g><g><path fill="none" stroke="#263238" stroke-linecap="round" stroke-linejoin="round" stroke-miterlimit="20" stroke-width=".5" d="M131.415 36c-.075 1.225-3.835.15-5.75 1.225-1.915 1.075-1.46 2.915-1.305 4 .155 1.085-1.585 2.455-3 3.295-1.415.84-1.435 2.565.405 4.2 1.84 1.635.275 2.09-1.435 3.55s-1.65 3.24 0 4.295"/></g><g><path fill="none" stroke="#263238" stroke-linecap="round" stroke-linejoin="round" stroke-miterlimit="20" stroke-width=".5" d="M136.67 39.47v0s3.135.615 2.215 2.38c-.92 1.765-2.215 3.955.475 5.935 2.69 1.98-1.165 4.19.525 5.955 1.69 1.765 3.41 1.685 2.165 4.6-1.245 2.915 1 3.65 1 3.65v0"/></g><g><path fill="none" stroke="#263238" stroke-linecap="round" stroke-linejoin="round" stroke-miterlimit="20" stroke-width=".5" d="M130.13 59.767s3.075.795 5.455.26"/></g><g><path fill="none" stroke="#fff" stroke-linecap="round" stroke-linejoin="round" stroke-miterlimit="20" stroke-width=".5" d="M151.622 64.57a1 1 0 0 0 .265 1.38"/></g><g><path fill="none" stroke="#fff" stroke-linecap="round" stroke-linejoin="round" stroke-miterlimit="20" stroke-width=".5" d="M151.9 60.04c1.35.72 1.745 1.86.875 3.19"/></g><g><path fill="none" stroke="#fff" stroke-linecap="round" stroke-linejoin="round" stroke-miterlimit="20" stroke-width=".5" d="M143.43 41.11a7.5 7.5 0 0 0 3.575 6.39c1 1 .5 2 0 3.5 0 2 3 2 3.5 3.5 0 1.5-2.5 3-.055 4.78"/></g><g><path fill="none" stroke="#fff" stroke-linecap="round" stroke-linejoin="round" stroke-miterlimit="20" stroke-width=".5" d="M142.2 36.94a4.77 4.77 0 0 1 1.115 2.595"/></g><g><path fill="none" stroke="#fff" stroke-linecap="round" stroke-linejoin="round" stroke-miterlimit="20" stroke-width=".5" d="M158.338 61.04a2.775 2.775 0 0 0 .15 1.535"/></g><g><path fill="none" stroke="#fff" stroke-linecap="round" stroke-linejoin="round" stroke-miterlimit="20" stroke-width=".5" d="M155.263 55.28c-.535 1.45.795 1.32 1.735 1.43 1.56.18 2.03 1.12 1.68 2.69"/></g><g><path fill="none" stroke="#fff" stroke-linecap="round" stroke-linejoin="round" stroke-miterlimit="20" stroke-width=".5" d="M149.27 41.71c.27 2.895 4.85 2.5 4.05 5.86-.375 1.555-.31 2.5.91 3.81.63.69 1.96 1.15 1.47 2.28"/></g><g><path fill="none" stroke="#fff" stroke-linecap="round" stroke-linejoin="round" stroke-miterlimit="20" stroke-width=".5" d="M161.003 54.58a3.74 3.74 0 0 0-.105 1.595"/></g><g><path fill="none" stroke="#fff" stroke-linecap="round" stroke-linejoin="round" stroke-miterlimit="20" stroke-width=".5" d="M153.16 37.95c1 .07.705 1.35 1 2 .405.91 1.195 1.14 2 1.625 1.605 1 1.445 1.91 1.26 3.61-.215 1.97.42 2.785 2.07 3.75 1.65.965 2.61 1.82 2 3.895"/></g><g><path fill="none" stroke="#fff" stroke-linecap="round" stroke-linejoin="round" stroke-miterlimit="20" stroke-width=".5" d="M129.003 40.31c-1.465.705-3.965.866-3.545 3.002.42 2.136 2.245 3.117.1 4.973-1.81 1.57-1.61 2.396-.43 4.247 1 1.551 1.275 2.952.04 4.503"/></g><g><path fill="none" stroke="#fff" stroke-linecap="round" stroke-linejoin="round" stroke-miterlimit="20" stroke-width=".5" d="M134.505 37.174c-2.5-2.17-3 .83-4.065 2.205"/></g><g><path fill="#adc7f7" d="M127.559 76.5s-4.57 5.04.59 8.935c5.16 3.895 23.91-9.24 23.91-9.24s6.76-1.72 10.31.545c3.55 2.265.225 29.575-7 41.385-2.145 3.5-4.715 8.74-4.715 8.74s.725 4.57-3.43 5.955c-7.895 2.63-28.14 2.5-34.045-.785-6.93-3.86.025-2.665.435-23.685 0 0-3.035-7.76-1.88-13.315.43-2.065 1.685-5.065 3.455-8.085"/></g><g opacity=".2"><path d="M155.349 118.135c-2.145 3.5-4.715 8.74-4.715 8.74s.725 4.57-3.43 5.955c-7.895 2.63-28.14 2.5-34.045-.785-6.93-3.86.025-2.665.435-23.685a37.171 37.171 0 0 1-1.7-6.165c4.57 2.635 9.885 2.38 9.885 2.38 4.555-9.44 11.08-7.68 11.08-7.68s1.77-1.58 3.81-3.055 8.445-.355 8.445-.355l7.46-1.5c-.14-2.77 2.57-2.5 2.57-2.5l1.035.97c-.605-2.29 0-3.685 0-3.685l6.55 8.23c-1.35 8.3-3.915 17.5-7.38 23.135z"/></g><g><path fill="none" stroke="#263238" stroke-linecap="round" stroke-linejoin="round" stroke-miterlimit="20" stroke-width=".5" d="M127.559 76.5v0s-4.57 5.04.59 8.935c5.16 3.895 23.91-9.24 23.91-9.24v0s6.76-1.72 10.31.545c3.55 2.265.225 29.575-7 41.385-2.145 3.5-4.715 8.74-4.715 8.74v0s.725 4.57-3.43 5.955c-7.895 2.63-28.14 2.5-34.045-.785-6.93-3.86.025-2.665.435-23.685 0 0-3.035-7.76-1.88-13.315.43-2.065 1.685-5.065 3.455-8.085"/></g><g><path fill="none" stroke="#263238" stroke-linecap="round" stroke-linejoin="round" stroke-miterlimit="20" stroke-width=".5" d="M111.12 90.76c.161.966.5 1.894 1 2.735"/></g><g><path fill="none" stroke="#263238" stroke-linecap="round" stroke-linejoin="round" stroke-miterlimit="20" stroke-width=".5" d="M110.84 86.77c-.038.825-.018 1.652.06 2.475"/></g><g><path fill="none" stroke="#263238" stroke-linecap="round" stroke-linejoin="round" stroke-miterlimit="20" stroke-width=".5" d="M94.327 77.77s-3.66 3.666-2.97 6.435"/></g><g><path fill="none" stroke="#263238" stroke-linecap="round" stroke-linejoin="round" stroke-miterlimit="20" stroke-width=".5" d="M91.92 78.505c.785-.443 1.52-.972 2.19-1.575"/></g><g><path fill="none" stroke="#263238" stroke-linecap="round" stroke-linejoin="round" stroke-miterlimit="20" stroke-width=".5" d="M89 79.845c.51-.173 1.01-.371 1.5-.595"/></g><g><path fill="none" stroke="#263238" stroke-linecap="round" stroke-linejoin="round" stroke-miterlimit="20" stroke-width=".5" d="M77.24 57.19s5.32-1.085 7.5-5.46"/></g><g><path fill="none" stroke="#263238" stroke-linecap="round" stroke-linejoin="round" stroke-miterlimit="20" stroke-width=".5" d="M135 87.345c.66-.151 1.31-.343 1.945-.575"/></g><g><path fill="none" stroke="#263238" stroke-linecap="round" stroke-linejoin="round" stroke-miterlimit="20" stroke-width=".5" d="M125.773 76.09c-1.355 2.145-2.25 5.045-1.375 7.525 1.32 3.76 5.59 4.53 9.075 4.025"/></g><g><path fill="none" stroke="#263238" stroke-linecap="round" stroke-linejoin="round" stroke-miterlimit="20" stroke-width=".5" d="M125.75 80.3s3.886 3 6.165 3.89"/></g><g><path fill="#bfbfbf" d="M153.24 98.2s-11.6.525-16.17.055c-2.935-.305-3.87 1.155-7.88 1.92-1.5.29-4.66 4.95-4.66 4.95l.5 6.105s3.5 2.525 3.95 1.815c.45-.71-1.225-2.35-1.225-2.35l3.09.5a2.36 2.36 0 0 0-.95-2.12l1.795-2s2.305.695 4.83-1.535l17.33.665z"/></g><g opacity=".2"><path d="M153.86 106.175l-17.33-.675c-2.525 2.23-4.83 1.535-4.83 1.535l-1.795 2a2.36 2.36 0 0 1 .95 2.12l-3.09-.5s1.675 1.64 1.225 2.35c-.45.71-3.95-1.815-3.95-1.815l-.5-6.105a35.428 35.428 0 0 1 2.355-3.065c3.28 2 11.795.5 11.795.5.055-1.475.93-3.04 1.665-4.115 5.315.12 12.895-.225 12.895-.225z"/></g><g><path fill="none" stroke="#263238" stroke-linecap="round" stroke-linejoin="round" stroke-miterlimit="20" stroke-width=".5" d="M153.24 98.2v0s-11.6.525-16.17.055c-2.935-.305-3.87 1.155-7.88 1.92-1.5.29-4.66 4.95-4.66 4.95v0l.5 6.105v0s3.5 2.525 3.95 1.815c.45-.71-1.225-2.35-1.225-2.35v0l3.09.5a2.36 2.36 0 0 0-.95-2.12l1.795-2v0s2.305.695 4.83-1.535l17.33.665v0z"/></g><g><path fill="none" stroke="#263238" stroke-linecap="round" stroke-linejoin="round" stroke-miterlimit="20" stroke-width=".5" d="M131.7 107.05s-1.875-.15-2.71-2.47"/></g><g><path fill="none" stroke="#263238" stroke-linecap="round" stroke-linejoin="round" stroke-miterlimit="20" stroke-width=".5" d="M131.06 106.88s-3.075 2.5-4.77.78"/></g><g><path fill="none" stroke="#263238" stroke-linecap="round" stroke-linejoin="round" stroke-miterlimit="20" stroke-width=".5" d="M127.573 108.25s.5 1.677.195 2.455"/></g><g><path fill="none" stroke="#263238" stroke-linecap="round" stroke-linejoin="round" stroke-miterlimit="20" stroke-width=".5" d="M129.91 109.064a4.08 4.08 0 0 1-1.5.25"/></g><g><path fill="#fff" d="M192.79 106.655V213.82a1.295 1.295 0 0 1-1.3 1.295H29.5a1.295 1.295 0 0 1-1.3-1.295V106.655a1.295 1.295 0 0 1 1.3-1.295h162c.713.003 1.29.582 1.29 1.295z"/></g><g opacity=".2"><path d="M192.79 106.66v4.84c-4.53 1.58-11.18 2.795-16.56 2.535-7.225-.35-34.235-6.44-43.83-8.645h59.1a1.295 1.295 0 0 1 1.29 1.27z"/></g><g><path fill="none" stroke="#263238" stroke-miterlimit="20" stroke-width=".5" d="M192.79 106.655V213.82a1.295 1.295 0 0 1-1.3 1.295H29.5a1.295 1.295 0 0 1-1.3-1.295V106.655a1.295 1.295 0 0 1 1.3-1.295h162c.713.003 1.29.582 1.29 1.295z"/></g><g><path fill="#263238" d="M41.065 105.36v109.755H29.5a1.295 1.295 0 0 1-1.3-1.295V106.655a1.295 1.295 0 0 1 1.3-1.295z"/></g><g><path fill="#adc7f7" d="M34.64 110.45l-3.61 2.025 3.61 2.03 3.605-2.03-3.605-2.025z"/></g><g><path fill="#adc7f7" d="M34.64 115.32l-2.53-1.42-1.08.605 3.61 2.025 3.605-2.025-1.08-.605-2.525 1.42z"/></g><g><path fill="#adc7f7" d="M34.64 117.36l-2.53-1.43-1.08.607 3.61 2.038 3.605-2.038-1.08-.607-2.525 1.43z"/></g><g><path fill="#adc7f7" d="M74.1 125.903a13.45 13.45 0 0 1-15.06 13.35c-7.167-.864-12.374-7.232-11.796-14.429.577-7.196 6.733-12.653 13.947-12.363 7.213.29 12.911 6.223 12.91 13.442z"/></g><g opacity=".6"><path fill="#fff" d="M74.1 125.903a13.45 13.45 0 0 1-15.06 13.35c-7.167-.864-12.374-7.232-11.796-14.429.577-7.196 6.733-12.653 13.947-12.363 7.213.29 12.911 6.223 12.91 13.442z"/></g><g><path fill="none" stroke="#263238" stroke-linecap="round" stroke-linejoin="round" stroke-miterlimit="20" stroke-width=".5" d="M74.1 125.903a13.45 13.45 0 0 1-15.06 13.35c-7.167-.864-12.374-7.232-11.796-14.429.577-7.196 6.733-12.653 13.947-12.363 7.213.29 12.911 6.223 12.91 13.442z"/></g><g><path fill="#bfbfbf" d="M66.225 138.145a13.405 13.405 0 0 1-5.58 1.21 13.17 13.17 0 0 1-1.605-.095c-2.96-2.13-5.65-5.61-5.65-5.61a11.5 11.5 0 0 0 1.905.39c.455.06.94.1 1.435.135 1.455.088 2.915.088 4.37 0 .825-.055 1.555-.13 2.075-.22a2.255 2.255 0 0 1 2 .425c.246.205.433.473.54.775a5.23 5.23 0 0 1 .51 2.99z"/><path fill="none" stroke="#263238" stroke-linecap="round" stroke-linejoin="round" stroke-miterlimit="20" stroke-width=".5" d="M66.225 138.145a13.405 13.405 0 0 1-5.58 1.21 13.17 13.17 0 0 1-1.605-.095c-2.96-2.13-5.65-5.61-5.65-5.61a11.5 11.5 0 0 0 1.905.39c.455.06.94.1 1.435.135 1.455.088 2.915.088 4.37 0 .825-.055 1.555-.13 2.075-.22a2.255 2.255 0 0 1 2 .425c.246.205.433.473.54.775a5.23 5.23 0 0 1 .51 2.99z"/></g><g><path fill="#263238" d="M54.635 116.365s.6-2.045 2.085-1.605c1.485.44 1.285.38 2.11-.06a1.035 1.035 0 0 1 1.61.56c.28.63.85.5 1.725.175.875-.325 1.645.085 1.605.93-.04.845 1.09-.035 1.72.905.63.94.25.88.375 1.63.125.75 1.445 1.195 1.195 1.885s-1.255 1.88-.315 2.385c.94.505 1.255 2.07.345 2.54-.91.47.76 1.885.155 3.17-.545 1.17-2.07 1.445-1.38 2.635a1.08 1.08 0 0 1 0 1.235.305.305 0 0 1-.56-.15.94.94 0 0 0-.135-.455c-.315-.5-.745 0-1.25-.945a1.155 1.155 0 0 1-.75 1.445c-.56.195-.66.53-.625.805a.23.23 0 0 1-.385.2 1 1 0 0 1-.25-.88s-1.76 1.445-3 1.13c-1.24-.315-2.885-.755-2.95-1.695a2 2 0 0 0-.37.925.295.295 0 0 1-.5.165 1.83 1.83 0 0 1-.425-1.025 1.41 1.41 0 0 1-.665.725.365.365 0 0 1-.5-.42.59.59 0 0 0-.25-.7 1.5 1.5 0 0 1-.69-1.945s-.945.63-.63 1.57a.89.89 0 0 1-.095.885.195.195 0 0 1-.335-.195.715.715 0 0 0-.07-.69c-.44-.69-1.575-1.53-.695-2.5s.255-1.58.255-1.58.125.63-.94 1.035c-1.065.405-.405 1-.5 1.425a.9.9 0 0 1-.23.415.23.23 0 0 1-.37-.27.665.665 0 0 0 .05-.66c-.535-.965.88-1.415 1.025-2.26.062-.88.012-1.763-.15-2.63-.075-.715-.13-1.265.32-1.88a4.28 4.28 0 0 0 .81-1.255 3 3 0 0 0 .035-1.135 2.63 2.63 0 0 1 .065-1.135c.26-.73 1.13-.605 1.5-1.22.37-.615.05-1.345.745-1.73a1.1 1.1 0 0 1 1.285.245z"/></g><g><path fill="#bfbfbf" d="M61.685 135.33c-1.002-.63-.501-2.685-.12-3.935.19-.59.36-1 .36-1l-5.185-2.665c.656 2.75 0 6.5 0 6.5"/><path fill="none" stroke="#263238" stroke-linecap="round" stroke-linejoin="round" stroke-miterlimit="20" stroke-width=".5" d="M61.685 135.33c-1.002-.63-.501-2.685-.12-3.935.19-.59.36-1 .36-1v0l-5.185-2.665c.656 2.75 0 6.5 0 6.5v0"/></g><g><path fill="#263238" d="M59.73 130.38c.425.59 1.094.958 1.82 1 .19-.59.36-1 .36-1z"/></g><g><path fill="#bfbfbf" d="M57.358 129.287a6.75 6.75 0 0 1-3.28-4.73c-.62-4-.58-7.685 6.32-7.24 3.025.19 4.195 3.17 4.17 4.105-.055 2.17 1.68 6-.465 9.16-.32.47-2.405.5-4.6-.275"/><path fill="none" stroke="#263238" stroke-linecap="round" stroke-linejoin="round" stroke-miterlimit="20" stroke-width=".5" d="M57.358 129.287a6.75 6.75 0 0 1-3.28-4.73c-.62-4-.58-7.685 6.32-7.24 3.025.19 4.195 3.17 4.17 4.105-.055 2.17 1.68 6-.465 9.16-.32.47-2.405.5-4.6-.275"/></g><g><path fill="none" stroke="#263238" stroke-linecap="round" stroke-linejoin="round" stroke-miterlimit="20" stroke-width=".5" d="M61.035 122.034s-1.085-.4-1.715 1.2"/></g><g><path fill="none" stroke="#263238" stroke-linecap="round" stroke-linejoin="round" stroke-miterlimit="20" stroke-width=".5" d="M63.29 121.843a1.91 1.91 0 0 1 1.28-.425"/></g><g><path fill="none" stroke="#263238" stroke-linecap="round" stroke-linejoin="round" stroke-miterlimit="20" stroke-width=".5" d="M63.14 124.18c.565.925 1.25.465 1.22.925-.025.38-.91 1.05-.91 1.05v0"/></g><g><path fill="#263238" d="M60.188 124.186c.06.255.25.425.42.385.17-.04.265-.28.205-.535-.06-.255-.25-.42-.42-.38-.17.04-.265.28-.205.53z"/></g><g><path fill="#263238" d="M63.5 123.572c.04.26.22.44.395.415.175-.025.285-.26.24-.5-.045-.24-.215-.44-.39-.415-.175.025-.245.245-.245.5z"/></g><g><path fill="#fff" d="M61.61 127.065s.645 1.535 1.535 1.26c.405-.125.3-1.315.3-1.315"/><path fill="none" stroke="#263238" stroke-linecap="round" stroke-linejoin="round" stroke-miterlimit="20" stroke-width=".5" d="M61.61 127.065v0s.645 1.535 1.535 1.26c.405-.125.3-1.315.3-1.315v0"/></g><g><path fill="#263238" d="M60.44 118.973s-.17-.375-.5.375c-.33.75 1.09 1.5 0 2.07-1.09.57-1.14 1.905-.614 2.43.525.525-.855.77-1.04 1.275-.185.505.375.91.25 1.5s-.915 1.215-.895 1.54c.02.325.705.85.235 1.405s-1.79.215-1.915 1.325c0 0-3.95-4.395-4-8.5-.05-4.105 2.885-5.78 5.9-6.035 3.015-.255 7.655 1.205 8.03 6.44a.82.82 0 0 0-.69-.405c-.55-.075-.815-.825-.75-1.64.065-.815-.5-.315-1.25-.5s-.5-1.255-1-1.445c-.5-.19-.91.855-1.76.165z"/></g><g><path fill="none" stroke="#263238" stroke-linecap="round" stroke-linejoin="round" stroke-miterlimit="20" stroke-width=".5" d="M63.17 117.21c.03.5 1.57.065 2.355.5.785.435.595 1.195.53 1.635-.065.44.65 1 1.235 1.35.585.35.585 1.045-.165 1.715-.75.67-.115.855.585 1.45s.675 1.325 0 1.76"/></g><g><path fill="none" stroke="#263238" stroke-linecap="round" stroke-linejoin="round" stroke-miterlimit="20" stroke-width=".5" d="M61.03 118.63v0s-1.28.25-.905.97.905 1.62-.195 2.43.475 1.715-.215 2.435-1.395.69-.885 1.885-.4 1.5-.4 1.5v0"/></g><g><path fill="none" stroke="#263238" stroke-linecap="round" stroke-linejoin="round" stroke-miterlimit="20" stroke-width=".5" d="M63.71 126.923a5.63 5.63 0 0 1-2.23.11"/></g><g><path fill="#adc7f7" d="M69.95 135.607a13.415 13.415 0 0 1-9.31 3.745 13.44 13.44 0 0 1-10.45-4.985.915.915 0 0 1 .325-.5c1.455-.925 4.215-.22 4.215-.22l.56.38c1.805 1.19 7.455 4.73 9.22 3.395a2.185 2.185 0 0 0 .645-3.055 3.35 3.35 0 0 0-.4-.595s2.39-.96 5.195 1.835z"/><path fill="none" stroke="#263238" stroke-linecap="round" stroke-linejoin="round" stroke-miterlimit="20" stroke-width=".5" d="M69.95 135.607a13.415 13.415 0 0 1-9.31 3.745 13.44 13.44 0 0 1-10.45-4.985.915.915 0 0 1 .325-.5c1.455-.925 4.215-.22 4.215-.22v0l.56.38c1.805 1.19 7.455 4.73 9.22 3.395a2.185 2.185 0 0 0 .645-3.055 3.35 3.35 0 0 0-.4-.595s2.39-.96 5.195 1.835z"/></g><g transform="rotate(-45 72 134.5)"><path fill="#263238" d="M72.3 139.35a4.67 4.67 0 1 0 0-9.34 4.67 4.67 0 0 0 0 9.34z"/></g><g><path fill="none" stroke="#fff" stroke-miterlimit="20" stroke-width=".5" d="M69.85 133.98c0-.967.783-1.75 1.75-1.75h1.425c.967 0 1.75.783 1.75 1.75v1.425a1.75 1.75 0 0 1-1.75 1.75H71.6a1.75 1.75 0 0 1-1.75-1.75z"/></g><g><path fill="none" stroke="#fff" stroke-miterlimit="20" stroke-width=".5" d="M73.2 134.68a.905.905 0 1 1-1.81.01.905.905 0 0 1 1.81-.01z"/></g><g><path fill="#fff" d="M73.948 133.501a.3.3 0 1 1-.596.078.3.3 0 0 1 .596-.078z"/></g><g><path fill="#263238" d="M96.385 124.11h-17a1.795 1.795 0 0 0 0 3.59h17a1.795 1.795 0 0 0 0-3.59z"/></g><g opacity=".6"><path fill="#263238" d="M121.065 111.42h-12.26a1.295 1.295 0 1 0 0 2.59h12.26a1.295 1.295 0 1 0 0-2.59z"/></g><g><path fill="#fff" d="M102.82 108.25v104.06"/><path fill="none" stroke="#263238" stroke-miterlimit="20" stroke-width=".5" d="M102.82 108.25v104.06"/></g><g><path fill="#bfbfbf" d="M55.035 162.85a6.165 6.165 0 1 0 0-12.33 6.165 6.165 0 0 0 0 12.33z"/><path fill="none" stroke="#263238" stroke-miterlimit="20" stroke-width=".5" d="M55.035 162.85a6.165 6.165 0 1 0 0-12.33 6.165 6.165 0 0 0 0 12.33z"/></g><g><path fill="#adc7f7" d="M63.37 160.675a2.175 2.175 0 1 1-4.35 0 2.175 2.175 0 0 1 4.35 0z"/><path fill="none" stroke="#263238" stroke-linecap="round" stroke-linejoin="round" stroke-miterlimit="20" stroke-width=".5" d="M63.37 160.675a2.175 2.175 0 1 1-4.35 0 2.175 2.175 0 0 1 4.35 0z"/></g><g><path fill="#bfbfbf" d="M55.035 183.1a6.165 6.165 0 1 0 0-12.33 6.165 6.165 0 0 0 0 12.33z"/><path fill="none" stroke="#263238" stroke-miterlimit="20" stroke-width=".5" d="M55.035 183.1a6.165 6.165 0 1 0 0-12.33 6.165 6.165 0 0 0 0 12.33z"/></g><g><path fill="#adc7f7" d="M63.37 180.915a2.175 2.175 0 1 1-4.35 0 2.175 2.175 0 0 1 4.35 0z"/><path fill="none" stroke="#263238" stroke-linecap="round" stroke-linejoin="round" stroke-miterlimit="20" stroke-width=".5" d="M63.37 180.915a2.175 2.175 0 1 1-4.35 0 2.175 2.175 0 0 1 4.35 0z"/></g><g transform="rotate(-45 54.5 197.5)"><path fill="#bfbfbf" d="M55.025 203.33a6.165 6.165 0 1 0 0-12.33 6.165 6.165 0 0 0 0 12.33z"/><path fill="none" stroke="#263238" stroke-miterlimit="20" stroke-width=".5" d="M55.025 203.33a6.165 6.165 0 1 0 0-12.33 6.165 6.165 0 0 0 0 12.33z"/></g><g><path fill="#adc7f7" d="M63.37 201.16a2.175 2.175 0 1 1-4.35-.01 2.175 2.175 0 0 1 4.35.01z"/><path fill="none" stroke="#263238" stroke-linecap="round" stroke-linejoin="round" stroke-miterlimit="20" stroke-width=".5" d="M63.37 201.16a2.175 2.175 0 1 1-4.35-.01 2.175 2.175 0 0 1 4.35.01z"/></g><g opacity=".3"><g opacity=".12"><path d="M109.03 118.12h79.91v23.82h-79.91z"/></g><g opacity=".12"><path d="M109.03 181.12h79.91v23.82h-79.91z"/></g><g opacity=".12"><path d="M109.03 144.12h79.91v23.82h-79.91z"/></g></g><g><path fill="#adc7f7" d="M107.53 117.12h79.91v23.82h-79.91z"/></g><g opacity=".6"><path fill="#fff" d="M107.53 117.12h79.91v23.82h-79.91z"/></g><g><path fill="none" stroke="#263238" stroke-miterlimit="20" stroke-width=".5" d="M107.53 117.12v0h79.91v23.82h-79.91v0z"/></g><g><path fill="#263238" d="M110.29 119.52h20.995v16.02H110.29z"/></g><g opacity=".3"><path fill="#fff" d="M131.285 131.665v3.88H110.29v-3.61l6.635-4.915 6.825 4.915 3.855-2.46 3.68 2.19z"/></g><g opacity=".3"><path fill="#fff" d="M126 124.06a2.115 2.115 0 1 1-4.23.01 2.115 2.115 0 0 1 4.23-.01z"/></g><g opacity=".4"><path fill="#263238" d="M119.236 137.053h-8.275a.875.875 0 1 0 0 1.745h8.275a.875.875 0 1 0 0-1.745z"/></g><g opacity=".4"><path fill="#263238" d="M183.645 120.08h-48.27a.875.875 0 1 0 0 1.75h48.27a.875.875 0 1 0 0-1.75z"/></g><g opacity=".4"><path fill="#263238" d="M183.645 125.08h-48.27a.875.875 0 1 0 0 1.75h48.27a.875.875 0 1 0 0-1.75z"/></g><g opacity=".4"><path fill="#263238" d="M173.645 130.08h-38.27a.875.875 0 1 0 0 1.75h38.27a.875.875 0 1 0 0-1.75z"/></g><g opacity=".6"><path fill="#263238" d="M121.065 174.42h-12.26a1.295 1.295 0 1 0 0 2.59h12.26a1.295 1.295 0 1 0 0-2.59z"/></g><g><path fill="#adc7f7" d="M107.53 180.12h79.91v23.82h-79.91z"/></g><g opacity=".6"><path fill="#fff" d="M107.53 180.12h79.91v23.82h-79.91z"/></g><g><path fill="none" stroke="#263238" stroke-miterlimit="20" stroke-width=".5" d="M107.53 180.12v0h79.91v23.82h-79.91v0z"/></g><g><path fill="#263238" d="M110.29 182.52h20.995v16.02H110.29z"/></g><g opacity=".3"><path fill="#fff" d="M131.285 194.665v3.88H110.29v-3.61l6.635-4.915 6.825 4.915 3.855-2.46 3.68 2.19z"/></g><g opacity=".3"><path fill="#fff" d="M126 187.06a2.115 2.115 0 1 1-4.23.01 2.115 2.115 0 0 1 4.23-.01z"/></g><g opacity=".4"><path fill="#263238" d="M119.236 200.053h-8.275a.875.875 0 1 0 0 1.745h8.275a.875.875 0 1 0 0-1.745z"/></g><g opacity=".4"><path fill="#263238" d="M183.645 183.08h-48.27a.875.875 0 1 0 0 1.75h48.27a.875.875 0 1 0 0-1.75z"/></g><g opacity=".4"><path fill="#263238" d="M183.645 188.07h-48.27a.875.875 0 1 0 0 1.75h48.27a.875.875 0 1 0 0-1.75z"/></g><g opacity=".4"><path fill="#263238" d="M173.645 193.07h-38.27a.875.875 0 1 0 0 1.75h38.27a.875.875 0 1 0 0-1.75z"/></g><g><path fill="#adc7f7" d="M107.53 143.12h79.91v23.82h-79.91z"/></g><g opacity=".6"><path fill="#fff" d="M107.53 143.12h79.91v23.82h-79.91z"/></g><g><path fill="none" stroke="#263238" stroke-miterlimit="20" stroke-width=".5" d="M107.53 143.12v0h79.91v23.82h-79.91v0z"/></g><g><path fill="#263238" d="M110.29 145.52h20.995v16.02H110.29z"/></g><g opacity=".3"><path fill="#fff" d="M131.285 157.665v3.88H110.29v-3.61l6.635-4.915 6.825 4.915 3.855-2.46 3.68 2.19z"/></g><g opacity=".3"><path fill="#fff" d="M126 150.06a2.115 2.115 0 1 1-4.23.01 2.115 2.115 0 0 1 4.23-.01z"/></g><g opacity=".4"><path fill="#263238" d="M119.236 163.053h-8.275a.875.875 0 1 0 0 1.745h8.275a.875.875 0 1 0 0-1.745z"/></g><g opacity=".4"><path fill="#263238" d="M183.645 146.07h-48.27a.875.875 0 1 0 0 1.75h48.27a.875.875 0 1 0 0-1.75z"/></g><g opacity=".4"><path fill="#263238" d="M183.645 151.08h-48.27a.875.875 0 1 0 0 1.75h48.27a.875.875 0 1 0 0-1.75z"/></g><g opacity=".4"><path fill="#263238" d="M173.645 156.08h-38.27a.875.875 0 1 0 0 1.75h38.27a.875.875 0 1 0 0-1.75z"/></g><g opacity=".4"><path fill="#263238" d="M91.05 155.81H67.265a.875.875 0 1 0 0 1.75H91.05a.875.875 0 1 0 0-1.75z"/></g><g opacity=".4"><path fill="#263238" d="M91.05 196.3H67.265a.875.875 0 1 0 0 1.75H91.05a.875.875 0 1 0 0-1.75z"/></g><g opacity=".4"><path fill="#263238" d="M91.036 176.053H67.261a.875.875 0 1 0 0 1.745h23.775a.875.875 0 1 0 0-1.745z"/></g><g><path fill="#adc7f7" d="M160.928 76.09c7.115 2.34 24.41 11.57 27.365 15.525 2.955 3.955.845 12.185-5.745 14.27-6.59 2.085-37.45 0-37.45 0s-2.5 1.61-3.22.925c-.72-.685-1-12 1.59-11.93 2.105.07 2.94 1.085 2.94 1.085l13.46-2.55s-4.5-5.295-4.5-10.71"/></g><g><g opacity=".2"><path d="M182.54 105.88c-6.594 2.08-37.45 0-37.45 0s-2.5 1.61-3.22.925c-.42-.39-.69-4.19-.37-7.4.39 1.665.886 3.535 1.23 4.085.66 1.055 3.16 0 3.16 0a18.5 18.5 0 0 1 .5-6.615l2.606 5.56s24.74 1.45 33.84-2.375c3.785-1.59 5.405-4.605 6-7.58 2.095 4.185-.155 11.46-6.295 13.4z"/></g><g opacity=".2"><path d="M167.24 91.895l-7.385 1.5a22.857 22.857 0 0 1-1.535-2.14c.085-1.965.36-4.56 1.195-5.565 1.425-1.71 1.16 2.765 2.5 5.275 0 0 5.075-4.1 7.085-3.17 2.01.93-.595 1.12-1.86 4.1z"/></g></g><g><path fill="none" stroke="#263238" stroke-linecap="round" stroke-linejoin="round" stroke-miterlimit="20" stroke-width=".5" d="M160.928 76.09c7.115 2.34 24.41 11.57 27.365 15.525 2.955 3.955.845 12.185-5.745 14.27-6.59 2.085-37.45 0-37.45 0v0s-2.5 1.61-3.22.925c-.72-.685-1-12 1.59-11.93 2.105.07 2.94 1.085 2.94 1.085v0l13.46-2.55v0s-4.5-5.295-4.5-10.71"/></g><g><path fill="none" stroke="#263238" stroke-linecap="round" stroke-linejoin="round" stroke-miterlimit="20" stroke-width=".5" d="M176.75 93.62a4.435 4.435 0 0 1 1.54 2.05"/></g><g><path fill="none" stroke="#263238" stroke-linecap="round" stroke-linejoin="round" stroke-miterlimit="20" stroke-width=".5" d="M159.87 93.414c5.23-.85 10.29-3.355 15.375-.755"/></g><g><path fill="none" stroke="#263238" stroke-linecap="round" stroke-linejoin="round" stroke-miterlimit="20" stroke-width=".5" d="M176.53 90.31c.5.115.968.343 1.37.665"/></g><g><path fill="none" stroke="#263238" stroke-linecap="round" stroke-linejoin="round" stroke-miterlimit="20" stroke-width=".5" d="M167 91.85c1.755-2.2 5.325-2.09 7.835-1.84"/></g><g><path fill="none" stroke="#263238" stroke-linecap="round" stroke-linejoin="round" stroke-miterlimit="20" stroke-width=".5" d="M146.912 95.87a6.765 6.765 0 0 0-.875 4.845"/></g><g><path fill="none" stroke="#263238" stroke-linecap="round" stroke-linejoin="round" stroke-miterlimit="20" stroke-width=".5" d="M156.35 90.59a4.706 4.706 0 0 0 2.14.955"/></g><g><path fill="none" stroke="#263238" stroke-linecap="round" stroke-linejoin="round" stroke-miterlimit="20" stroke-width=".5" d="M153.87 87.79a11 11 0 0 0 1.26 1.67"/></g></g></g></g></svg>