<svg xmlns="http://www.w3.org/2000/svg" width="230" height="212" viewBox="0 0 230 212"><g><g><g><g><path fill="#adc7f7" d="M72.597 13.461s-37.885 19.3-56.78 49.04c-18.895 29.74-17.4 68 5.56 96.4 22.96 28.4 66.845 24.67 103.59 42.66 36.745 17.99 77.285 14.285 94.66-23.83 17.375-38.115-8.825-52.36-13.325-96.47s-44.265-108.7-133.705-67.8z"/></g><g opacity=".7"><path fill="#fff" d="M72.597 13.461s-37.885 19.3-56.78 49.04c-18.895 29.74-17.4 68 5.56 96.4 22.96 28.4 66.845 24.67 103.59 42.66 36.745 17.99 77.285 14.285 94.66-23.83 17.375-38.115-8.825-52.36-13.325-96.47s-44.265-108.7-133.705-67.8z"/></g></g><g><g><path fill="#adc7f7" d="M114.75 206.5c63.375 0 114.75-7.163 114.75-16s-51.375-16-114.75-16S0 181.663 0 190.5s51.375 16 114.75 16z"/></g><g opacity=".5"><path fill="#fff" d="M114.75 206.5c63.375 0 114.75-7.163 114.75-16s-51.375-16-114.75-16S0 181.663 0 190.5s51.375 16 114.75 16z"/></g></g><g><g><path fill="#263238" d="M201.442 44.094s-1.415-7.435-10.975-6.37c-9.56 1.065-15.045 13.805-14.5 17.7.545 3.895.885 17.5.885 17.5l19.12 8.5 12.73-7.42.53-18.59s.355-12.56-7.79-11.32z"/><path fill="none" stroke="#263238" stroke-linecap="round" stroke-linejoin="round" stroke-miterlimit="20" stroke-width=".5" d="M201.442 44.094s-1.415-7.435-10.975-6.37c-9.56 1.065-15.045 13.805-14.5 17.7.545 3.895.885 17.5.885 17.5v0l19.12 8.5v0l12.73-7.42v0l.53-18.59v0s.355-12.56-7.79-11.32z"/></g><g><path fill="#fff" d="M178.608 180.75s-2.835 2.835-6.73 6.375c-3.895 3.54-.705 6.375 4.25 5.5s7.965-6.2 7.965-6.2 2.835-1.235 2.835-3.715c0-2.48-6.195-3.55-8.32-1.96z"/><path fill="none" stroke="#263238" stroke-linecap="round" stroke-linejoin="round" stroke-miterlimit="20" stroke-width=".5" d="M178.608 180.75s-2.835 2.835-6.73 6.375c-3.895 3.54-.705 6.375 4.25 5.5s7.965-6.2 7.965-6.2v0s2.835-1.235 2.835-3.715c0-2.48-6.195-3.55-8.32-1.96z"/></g><g><path fill="#fff" d="M206.08 180.75s2.835 2.835 6.73 6.375c3.895 3.54.705 6.375-4.25 5.5s-7.965-6.2-7.965-6.2-2.835-1.235-2.835-3.715c0-2.48 6.195-3.55 8.32-1.96z"/><path fill="none" stroke="#263238" stroke-linecap="round" stroke-linejoin="round" stroke-miterlimit="20" stroke-width=".5" d="M206.08 180.75s2.835 2.835 6.73 6.375c3.895 3.54.705 6.375-4.25 5.5s-7.965-6.2-7.965-6.2v0s-2.835-1.235-2.835-3.715c0-2.48 6.195-3.55 8.32-1.96z"/></g><g><path fill="#263238" d="M175.42 118.795s1.945 31.865 2.3 37.355c.355 5.49 1.24 19.295 1.24 19.295s-1.42 2.305-1.42 3.19c0 .885.18 3.185.18 3.185s3 1.24 4.425 1.415c1.425.175 4.955.71 4.955.71s.71-3 .355-4.78c-.355-1.78-.705-3.72-.705-3.72s.885-2.655.885-4.25c0-1.595-.18-2.475-.18-3.54s3.72-35.935 3.72-35.935h1.77s3 37.885 3.185 38.59c.185.705-.355 2.835.175 4.075.425 1.098.78 2.222 1.065 3.365a10.44 10.44 0 0 0-.71 3.185 13.33 13.33 0 0 0 .535 3.185 30.5 30.5 0 0 0 3.89.18c2.66 0 6.2-2.305 6.2-2.305s-.535-4.245-.71-5.5c-.175-1.255-.53-3-.53-3.72v-4.955c0-.71.175-3.72.175-3.72l1.595-44.965-17.525-9.205z"/><path fill="none" stroke="#263238" stroke-linecap="round" stroke-linejoin="round" stroke-miterlimit="20" stroke-width=".5" d="M175.42 118.795v0s1.945 31.865 2.3 37.355c.355 5.49 1.24 19.295 1.24 19.295v0s-1.42 2.305-1.42 3.19c0 .885.18 3.185.18 3.185v0s3 1.24 4.425 1.415c1.425.175 4.955.71 4.955.71v0s.71-3 .355-4.78c-.355-1.78-.705-3.72-.705-3.72v0s.885-2.655.885-4.25c0-1.595-.18-2.475-.18-3.54s3.72-35.935 3.72-35.935v0h1.77v0s3 37.885 3.185 38.59c.185.705-.355 2.835.175 4.075.425 1.098.78 2.222 1.065 3.365a10.44 10.44 0 0 0-.71 3.185 13.33 13.33 0 0 0 .535 3.185 30.5 30.5 0 0 0 3.89.18c2.66 0 6.2-2.305 6.2-2.305v0s-.535-4.245-.71-5.5c-.175-1.255-.53-3-.53-3.72v-4.955c0-.71.175-3.72.175-3.72v0l1.595-44.965v0l-17.525-9.205v0z"/></g><g><path fill="#adc7f7" d="M188.5 70.823s-6.55-1.59-9.915-.35c-3.365 1.24-8.32 6.195-9.56 7.61-1.24 1.415-4.955 6.55-4.955 6.55l4.955 4.425 8.675-4.955 1.24 9.56-10.94 21.24s7.785 8.145 22.5 8.675c14.715.53 26.2-7.435 26.2-7.435l-11.01-23.19.175-11.15 10.635 7.61 5.3-7.26s-6.375-7.08-10.09-9.56c-3.715-2.48-9.385-1.945-13.1-1.945s-9.385.355-9.385.355z"/></g><g><g><path fill="none" stroke="#fff" stroke-linecap="round" stroke-linejoin="round" stroke-miterlimit="20" stroke-width=".5" d="M170.66 66.57v59.93"/></g><g><path fill="none" stroke="#fff" stroke-linecap="round" stroke-linejoin="round" stroke-miterlimit="20" stroke-width=".5" d="M172.07 66.57v59.93"/></g><g><path fill="none" stroke="#fff" stroke-linecap="round" stroke-linejoin="round" stroke-miterlimit="20" stroke-width=".5" d="M175.89 66.57v59.93"/></g><g><path fill="none" stroke="#fff" stroke-linecap="round" stroke-linejoin="round" stroke-miterlimit="20" stroke-width=".5" d="M180.31 66.57v59.93"/></g><g><path fill="none" stroke="#fff" stroke-linecap="round" stroke-linejoin="round" stroke-miterlimit="20" stroke-width=".5" d="M181.71 66.57v59.93"/></g><g><path fill="none" stroke="#fff" stroke-linecap="round" stroke-linejoin="round" stroke-miterlimit="20" stroke-width=".5" d="M185.54 66.57v59.93"/></g><g><path fill="none" stroke="#fff" stroke-linecap="round" stroke-linejoin="round" stroke-miterlimit="20" stroke-width=".5" d="M189.96 66.57v59.93"/></g><g><path fill="none" stroke="#fff" stroke-linecap="round" stroke-linejoin="round" stroke-miterlimit="20" stroke-width=".5" d="M191.37 66.57v59.93"/></g><g><path fill="none" stroke="#fff" stroke-linecap="round" stroke-linejoin="round" stroke-miterlimit="20" stroke-width=".5" d="M195.19 66.57v59.93"/></g><g><path fill="none" stroke="#fff" stroke-linecap="round" stroke-linejoin="round" stroke-miterlimit="20" stroke-width=".5" d="M199.62 66.57v59.93"/></g><g><path fill="none" stroke="#fff" stroke-linecap="round" stroke-linejoin="round" stroke-miterlimit="20" stroke-width=".5" d="M201.03 66.57v59.93"/></g><g><path fill="none" stroke="#fff" stroke-linecap="round" stroke-linejoin="round" stroke-miterlimit="20" stroke-width=".5" d="M204.85 66.57v59.93"/></g><g><path fill="none" stroke="#fff" stroke-linecap="round" stroke-linejoin="round" stroke-miterlimit="20" stroke-width=".5" d="M209.27 66.57v59.93"/></g><g><path fill="none" stroke="#fff" stroke-linecap="round" stroke-linejoin="round" stroke-miterlimit="20" stroke-width=".5" d="M210.68 66.57v59.93"/></g><g><path fill="none" stroke="#fff" stroke-linecap="round" stroke-linejoin="round" stroke-miterlimit="20" stroke-width=".5" d="M214.5 66.57v59.93"/></g><g><path fill="none" stroke="#fff" stroke-linecap="round" stroke-linejoin="round" stroke-miterlimit="20" stroke-width=".5" d="M221.745 73.8H161.81"/></g><g><path fill="none" stroke="#fff" stroke-linecap="round" stroke-linejoin="round" stroke-miterlimit="20" stroke-width=".5" d="M221.745 75.21H161.81"/></g><g><path fill="none" stroke="#fff" stroke-linecap="round" stroke-linejoin="round" stroke-miterlimit="20" stroke-width=".5" d="M221.745 79.03H161.81"/></g><g><path fill="none" stroke="#fff" stroke-linecap="round" stroke-linejoin="round" stroke-miterlimit="20" stroke-width=".5" d="M221.745 82.86H161.81"/></g><g><path fill="none" stroke="#fff" stroke-linecap="round" stroke-linejoin="round" stroke-miterlimit="20" stroke-width=".5" d="M221.745 84.26H161.81"/></g><g><path fill="none" stroke="#fff" stroke-linecap="round" stroke-linejoin="round" stroke-miterlimit="20" stroke-width=".5" d="M221.745 88.09H161.81"/></g><g><path fill="none" stroke="#fff" stroke-linecap="round" stroke-linejoin="round" stroke-miterlimit="20" stroke-width=".5" d="M221.745 91.91H161.81"/></g><g><path fill="none" stroke="#fff" stroke-linecap="round" stroke-linejoin="round" stroke-miterlimit="20" stroke-width=".5" d="M221.745 93.31H161.81"/></g><g><path fill="none" stroke="#fff" stroke-linecap="round" stroke-linejoin="round" stroke-miterlimit="20" stroke-width=".5" d="M221.745 97.14H161.81"/></g><g><path fill="none" stroke="#fff" stroke-linecap="round" stroke-linejoin="round" stroke-miterlimit="20" stroke-width=".5" d="M221.745 100.96H161.81"/></g><g><path fill="none" stroke="#fff" stroke-linecap="round" stroke-linejoin="round" stroke-miterlimit="20" stroke-width=".5" d="M221.745 102.37H161.81"/></g><g><path fill="none" stroke="#fff" stroke-linecap="round" stroke-linejoin="round" stroke-miterlimit="20" stroke-width=".5" d="M221.745 106.19H161.81"/></g><g><path fill="none" stroke="#fff" stroke-linecap="round" stroke-linejoin="round" stroke-miterlimit="20" stroke-width=".5" d="M221.745 110.01H161.81"/></g><g><path fill="none" stroke="#fff" stroke-linecap="round" stroke-linejoin="round" stroke-miterlimit="20" stroke-width=".5" d="M221.745 111.42H161.81"/></g><g><path fill="none" stroke="#fff" stroke-linecap="round" stroke-linejoin="round" stroke-miterlimit="20" stroke-width=".5" d="M221.745 115.23H161.81"/></g><g><path fill="none" stroke="#fff" stroke-linecap="round" stroke-linejoin="round" stroke-miterlimit="20" stroke-width=".5" d="M221.745 119.06H161.81"/></g><g><path fill="none" stroke="#fff" stroke-linecap="round" stroke-linejoin="round" stroke-miterlimit="20" stroke-width=".5" d="M221.745 120.46H161.81"/></g><g><path fill="none" stroke="#fff" stroke-linecap="round" stroke-linejoin="round" stroke-miterlimit="20" stroke-width=".5" d="M221.745 124.29H161.81"/></g></g><g><path fill="none" stroke="#263238" stroke-linecap="round" stroke-linejoin="round" stroke-miterlimit="20" stroke-width=".5" d="M188.5 70.823v0s-6.55-1.59-9.915-.35c-3.365 1.24-8.32 6.195-9.56 7.61-1.24 1.415-4.955 6.55-4.955 6.55v0l4.955 4.425v0l8.675-4.955v0l1.24 9.56v0L168 114.903v0s7.785 8.145 22.5 8.675c14.715.53 26.2-7.435 26.2-7.435v0l-11.01-23.19v0l.175-11.15v0l10.635 7.61v0l5.3-7.26v0s-6.375-7.08-10.09-9.56c-3.715-2.48-9.385-1.945-13.1-1.945s-9.385.355-9.385.355v0z"/></g><g><path fill="#fff" d="M202.742 59.76s1.875-3.41 3.41-.68c1.535 2.73-1.365 5.454-2.73 6.31-1.365.854-.68-5.63-.68-5.63z"/><path fill="none" stroke="#263238" stroke-linecap="round" stroke-linejoin="round" stroke-miterlimit="20" stroke-width=".5" d="M202.742 59.76v0s1.875-3.41 3.41-.68c1.535 2.73-1.365 5.454-2.73 6.31-1.365.854-.68-5.63-.68-5.63z"/></g><g><path fill="#fff" d="M187.64 70.47l.705 7.785a5.695 5.695 0 0 0 5.36 3.595c4.295 0 5.265-4.5 5.265-4.5l.885-8.14s-7.085 1.965-12.215 1.26z"/><path fill="none" stroke="#263238" stroke-linecap="round" stroke-linejoin="round" stroke-miterlimit="20" stroke-width=".5" d="M187.64 70.47l.705 7.785a5.695 5.695 0 0 0 5.36 3.595c4.295 0 5.265-4.5 5.265-4.5v0l.885-8.14v0s-7.085 1.965-12.215 1.26z"/></g><g><path fill="#fff" d="M195.377 52.24s-9.385 3.925-13.305 4.945l.34 3.07s-2.045-2.555-3.58-.34c-1.535 2.215.17 4.775 1.705 5.97 1.535 1.195 2.555.17 2.555.17s1.71 5.46 6.315 7.68c4.605 2.22 9.94 1.1 12.325-4.36 1.21-2.76 2.045-7.435 1.78-11.82-4.895-.195-8.135-5.315-8.135-5.315z"/><path fill="none" stroke="#263238" stroke-linecap="round" stroke-linejoin="round" stroke-miterlimit="20" stroke-width=".5" d="M195.377 52.24v0s-9.385 3.925-13.305 4.945l.34 3.07v0s-2.045-2.555-3.58-.34c-1.535 2.215.17 4.775 1.705 5.97 1.535 1.195 2.555.17 2.555.17v0s1.71 5.46 6.315 7.68c4.605 2.22 9.94 1.1 12.325-4.36 1.21-2.76 2.045-7.435 1.78-11.82-4.895-.195-8.135-5.315-8.135-5.315z"/></g><g><path fill="none" stroke="#263238" stroke-linecap="round" stroke-linejoin="round" stroke-miterlimit="20" stroke-width=".5" d="M191.78 63.07s1.369 1.88 3.765 0"/></g><g><path fill="#263238" d="M189.82 61.44c.376 0 .68-.528.68-1.18 0-.652-.304-1.18-.68-1.18-.376 0-.68.528-.68 1.18 0 .652.304 1.18.68 1.18z"/></g><g><path fill="#263238" d="M196.35 61.44c.375 0 .68-.528.68-1.18 0-.652-.305-1.18-.68-1.18-.376 0-.68.528-.68 1.18 0 .652.304 1.18.68 1.18z"/></g><g><path fill="none" stroke="#263238" stroke-linecap="round" stroke-linejoin="round" stroke-miterlimit="20" stroke-width=".5" d="M186.35 57.785s1.88-1.88 4.275-1.195"/></g><g><path fill="none" stroke="#263238" stroke-linecap="round" stroke-linejoin="round" stroke-miterlimit="20" stroke-width=".5" d="M195.53 56.589s2.9-1.195 4.095 1.365"/></g><g><path fill="#263238" d="M191.03 65.68s.56 3.605 2.275 4.08c2.5.695 3.085-4.13 3.085-4.13z"/><path fill="none" stroke="#263238" stroke-linecap="round" stroke-linejoin="round" stroke-miterlimit="20" stroke-width=".5" d="M191.03 65.68v0s.56 3.605 2.275 4.08c2.5.695 3.085-4.13 3.085-4.13v0z"/></g><g><path fill="#fff" d="M185.395 63.319s-.155.11-.405.305c-.815.64-2.65 2.19-3.5 3.735-1.09 2-1.71 6.69-2.5 7.78-.79 1.09-13.495 5.91-15.84 7.775-2.345 1.865-2.5 7.935 2.18 8.09 4.68.155 6.375-1.865 9-3.73s6.845-7.315 6.845-7.315 4.355-1.865 5.29-3.885c.935-2.02 1.22-6.17 1.555-6.535 1.275-1.39 2.33-3.265 2.33-4.665s-2-3.115-4.955-1.555z"/><path fill="none" stroke="#263238" stroke-linecap="round" stroke-linejoin="round" stroke-miterlimit="20" stroke-width=".5" d="M185.395 63.319s-.155.11-.405.305c-.815.64-2.65 2.19-3.5 3.735-1.09 2-1.71 6.69-2.5 7.78-.79 1.09-13.495 5.91-15.84 7.775-2.345 1.865-2.5 7.935 2.18 8.09 4.68.155 6.375-1.865 9-3.73s6.845-7.315 6.845-7.315v0s4.355-1.865 5.29-3.885c.935-2.02 1.22-6.17 1.555-6.535 1.275-1.39 2.33-3.265 2.33-4.665s-2-3.115-4.955-1.555z"/></g><g><path fill="none" stroke="#263238" stroke-linecap="round" stroke-linejoin="round" stroke-miterlimit="20" stroke-width=".5" d="M190.245 64.649v0s-.425-.785-1.14 0c-.715.785-3.5 3.285-3.715 3.715"/></g><g><path fill="none" stroke="#263238" stroke-linecap="round" stroke-linejoin="round" stroke-miterlimit="20" stroke-width=".5" d="M189.32 63.289v0s-.79-.425-1.215 0c-.425.425-3.29 2.645-3.715 3.43-.205.339-.373.7-.5 1.075"/></g><g><path fill="none" stroke="#263238" stroke-linecap="round" stroke-linejoin="round" stroke-miterlimit="20" stroke-width=".5" d="M185.675 63.28s-2.215 2-3.145 3.93"/></g><g><path fill="#fff" d="M201.42 63.319s.155.11.405.305c.815.64 2.65 2.19 3.5 3.735 1.09 2 1.71 6.69 2.5 7.78.79 1.09 13.53 5.91 15.865 7.775 2.335 1.865 2.5 7.935-2.18 8.09-4.68.155-6.375-1.865-9-3.73s-6.845-7.315-6.845-7.315-4.355-1.865-5.29-3.885c-.935-2.02-1.22-6.17-1.555-6.535-1.275-1.39-2.33-3.265-2.33-4.665s1.975-3.115 4.93-1.555z"/><path fill="none" stroke="#263238" stroke-linecap="round" stroke-linejoin="round" stroke-miterlimit="20" stroke-width=".5" d="M201.42 63.319s.155.11.405.305c.815.64 2.65 2.19 3.5 3.735 1.09 2 1.71 6.69 2.5 7.78.79 1.09 13.53 5.91 15.865 7.775 2.335 1.865 2.5 7.935-2.18 8.09-4.68.155-6.375-1.865-9-3.73s-6.845-7.315-6.845-7.315v0s-4.355-1.865-5.29-3.885c-.935-2.02-1.22-6.17-1.555-6.535-1.275-1.39-2.33-3.265-2.33-4.665s1.975-3.115 4.93-1.555z"/></g><g><path fill="none" stroke="#263238" stroke-linecap="round" stroke-linejoin="round" stroke-miterlimit="20" stroke-width=".5" d="M196.57 64.649v0s.425-.785 1.14 0c.715.785 3.5 3.285 3.715 3.715"/></g><g><path fill="none" stroke="#263238" stroke-linecap="round" stroke-linejoin="round" stroke-miterlimit="20" stroke-width=".5" d="M197.5 63.289v0s.79-.425 1.215 0c.425.425 3.29 2.645 3.715 3.43.205.339.373.7.5 1.075"/></g><g><path fill="none" stroke="#263238" stroke-linecap="round" stroke-linejoin="round" stroke-miterlimit="20" stroke-width=".5" d="M201.14 63.28s2.222 2 3.155 3.93"/></g></g><g><g><path fill="#fff" d="M102.001 108.46l-5.595 15.32s3.56 3.455 3.3 4.765c-.26 1.31-.28 3.26-.625 4-.345.74-.97 1.685-2.07 1-1.1-.685-.075-2.89-.075-2.89l-.375-.715-2.16 6.11a1.74 1.74 0 0 1-2.09.27c-1.315-.615-.405-1.795-.405-1.795l-1.905-1.255s-2.135-1.54-2.375-2.545c-.24-1.005 1.215-6.395 1.765-7.565.362-.786.68-1.59.955-2.41 0 0 2.04-12.075 3.36-16.19z"/><path fill="none" stroke="#263238" stroke-linecap="round" stroke-linejoin="round" stroke-miterlimit="20" stroke-width=".5" d="M102.001 108.46v0l-5.595 15.32v0s3.56 3.455 3.3 4.765c-.26 1.31-.28 3.26-.625 4-.345.74-.97 1.685-2.07 1-1.1-.685-.075-2.89-.075-2.89v0l-.375-.715v0l-2.16 6.11a1.74 1.74 0 0 1-2.09.27c-1.315-.615-.405-1.795-.405-1.795v0l-1.905-1.255v0s-2.135-1.54-2.375-2.545c-.24-1.005 1.215-6.395 1.765-7.565.362-.786.68-1.59.955-2.41 0 0 2.04-12.075 3.36-16.19z"/></g><g><path fill="none" stroke="#263238" stroke-linecap="round" stroke-linejoin="round" stroke-miterlimit="20" stroke-width=".5" d="M91.91 134.52l.99-5.8"/></g><g><path fill="none" stroke="#263238" stroke-linecap="round" stroke-linejoin="round" stroke-miterlimit="20" stroke-width=".5" d="M89.987 133.27l.486-4.61"/></g><g><path fill="none" stroke="#263238" stroke-linecap="round" stroke-linejoin="round" stroke-miterlimit="20" stroke-width=".5" d="M88.25 131.45l.605-3.24"/></g><g><path fill="#fff" d="M105.95 180.464s-5.31 4.885-7.22 7.43c-1.91 2.545 1.066 4.67 5.31 4.885 4.246.215 7.64-4.245 10.4-5.735 2.76-1.49 3.61-1.695 3.61-6.37s-12.1-.21-12.1-.21z"/><path fill="none" stroke="#263238" stroke-linecap="round" stroke-linejoin="round" stroke-miterlimit="20" stroke-width=".5" d="M105.95 180.464v0s-5.31 4.885-7.22 7.43c-1.91 2.545 1.066 4.67 5.31 4.885 4.246.215 7.64-4.245 10.4-5.735 2.76-1.49 3.61-1.695 3.61-6.37s-12.1-.21-12.1-.21z"/></g><g><path fill="#fff" d="M114.447 187.04c2.085-1.12 3.08-1.5 3.44-3.66a13.355 13.355 0 0 0-3.82 2.175c-1.69 1.58-6 6.12-10.235 5.695-4.235-.425-5.5-2.215-5.5-2.215l-.13-.05c-.465 2.04 2.215 3.61 5.835 3.79 4.255.225 7.65-4.245 10.41-5.735z"/><path fill="none" stroke="#263238" stroke-linecap="round" stroke-linejoin="round" stroke-miterlimit="20" stroke-width=".5" d="M114.447 187.04c2.085-1.12 3.08-1.5 3.44-3.66a13.355 13.355 0 0 0-3.82 2.175c-1.69 1.58-6 6.12-10.235 5.695-4.235-.425-5.5-2.215-5.5-2.215v0l-.13-.05c-.465 2.04 2.215 3.61 5.835 3.79 4.255.225 7.65-4.245 10.41-5.735z"/></g><g><path fill="#263238" d="M107.235 126.96l-1.275 44.37-1.91 3.17 1.06 6.795s1.7 1.275 5.5 2.12c2.667.557 5.37.92 8.09 1.085 0 0 1.27-9.13.845-11.255-.425-2.125-.635-3.82-.635-3.82l.85-35.67.21-5.305z"/><path fill="none" stroke="#263238" stroke-linecap="round" stroke-linejoin="round" stroke-miterlimit="20" stroke-width=".5" d="M107.235 126.96v0l-1.275 44.37v0l-1.91 3.17v0l1.06 6.795v0s1.7 1.275 5.5 2.12c2.667.557 5.37.92 8.09 1.085 0 0 1.27-9.13.845-11.255-.425-2.125-.635-3.82-.635-3.82v0l.85-35.67v0l.21-5.305v0z"/></g><g><path fill="#fff" d="M137.76 180.464s5.31 4.885 7.22 7.43c1.91 2.545-1.065 4.67-5.31 4.885-4.245.215-7.64-4.245-10.4-5.735-2.76-1.49-3.61-1.695-3.61-6.37s12.1-.21 12.1-.21z"/><path fill="none" stroke="#263238" stroke-linecap="round" stroke-linejoin="round" stroke-miterlimit="20" stroke-width=".5" d="M137.76 180.464v0s5.31 4.885 7.22 7.43c1.91 2.545-1.065 4.67-5.31 4.885-4.245.215-7.64-4.245-10.4-5.735-2.76-1.49-3.61-1.695-3.61-6.37s12.1-.21 12.1-.21z"/></g><g><path fill="#fff" d="M129.265 187.04c-2.085-1.12-3.08-1.5-3.445-3.66a13.315 13.315 0 0 1 3.825 2.175c1.685 1.58 6 6.12 10.235 5.695 4.235-.425 5.5-2.215 5.5-2.215l.13-.05c.465 2.04-2.215 3.61-5.835 3.79-4.255.225-7.65-4.245-10.41-5.735z"/><path fill="none" stroke="#263238" stroke-linecap="round" stroke-linejoin="round" stroke-miterlimit="20" stroke-width=".5" d="M129.265 187.04c-2.085-1.12-3.08-1.5-3.445-3.66a13.315 13.315 0 0 1 3.825 2.175c1.685 1.58 6 6.12 10.235 5.695 4.235-.425 5.5-2.215 5.5-2.215v0l.13-.05c.465 2.04-2.215 3.61-5.835 3.79-4.255.225-7.65-4.245-10.41-5.735z"/></g><g><path fill="#263238" d="M136.5 126.96l1.275 44.37 1.91 3.185-1.06 6.795s-1.7 1.275-5.5 2.12A56.186 56.186 0 0 1 125 184.5s-1.27-9.13-.85-11.255c.42-2.125.64-3.82.64-3.82l-.85-35.67-.21-5.305z"/><path fill="none" stroke="#263238" stroke-linecap="round" stroke-linejoin="round" stroke-miterlimit="20" stroke-width=".5" d="M136.5 126.96v0l1.275 44.37v0l1.91 3.185v0l-1.06 6.795v0s-1.7 1.275-5.5 2.12A56.186 56.186 0 0 1 125 184.5s-1.27-9.13-.85-11.255c.42-2.125.64-3.82.64-3.82v0l-.85-35.67v0l-.21-5.305v0z"/></g><g><path fill="#adc7f7" d="M116.38 77.636s-12.685 3.175-13.39 4.23c-.705 1.055-8.81 21.67-8.81 21.67l7.755 3.175L106 99.5l-.705 28.19 14.095 9.69 3-4.055 1.94 4.055 14.095-9.34-2.115-31.185 7.4 4.405 3.525-8.455s-8.81-13.745-11.455-14.095c-2.645-.35-10.57-1.765-14.095-1.585a40.78 40.78 0 0 0-5.305.51z"/><path fill="none" stroke="#263238" stroke-linecap="round" stroke-linejoin="round" stroke-miterlimit="20" stroke-width=".5" d="M116.38 77.636v0s-12.685 3.175-13.39 4.23c-.705 1.055-8.81 21.67-8.81 21.67v0l7.755 3.175v0L106 99.5v0l-.705 28.19v0l14.095 9.69v0l3-4.055v0l1.94 4.055v0l14.095-9.34v0l-2.115-31.185v0l7.4 4.405v0l3.525-8.455v0s-8.81-13.745-11.455-14.095c-2.645-.35-10.57-1.765-14.095-1.585a40.78 40.78 0 0 0-5.305.51z"/></g><g><path fill="none" stroke="#263238" stroke-linecap="round" stroke-linejoin="round" stroke-miterlimit="20" stroke-width=".5" d="M123.135 86.82l-.41 44.08"/></g><g><path fill="none" stroke="#263238" stroke-linecap="round" stroke-linejoin="round" stroke-miterlimit="20" stroke-width=".5" d="M105.99 99.485l-1.02-12.465"/></g><g><path fill="none" stroke="#263238" stroke-linecap="round" stroke-linejoin="round" stroke-miterlimit="20" stroke-width=".5" d="M136.29 96.84l-.1-11.86"/></g><g><path fill="#263238" d="M124.97 89.87a.615.615 0 1 1-1.23.01.615.615 0 0 1 1.23-.01z"/></g><g><path fill="#263238" d="M124.96 103.755a.615.615 0 1 1-1.23 0 .615.615 0 0 1 1.23 0z"/></g><g><path fill="#263238" d="M124.97 117.63a.615.615 0 1 1-1.23.01.615.615 0 0 1 1.23-.01z"/></g><g><path fill="#263238" d="M124.96 131.495a.615.615 0 1 1-1.23 0 .615.615 0 0 1 1.23 0z"/></g><g><path fill="#fff" d="M119.38 74.463s-3 .175-3 1.055c0 .88-2.82 3.88-2.82 3.88s.53 9.5 1.06 10.04c.53.54 9-6.87 9-6.87s7.4 6.345 7.93 6.5c.53.155-.355-8.46-1.235-10.395-.88-1.935-3-4.055-4.58-4.23-1.58-.175-6.355.02-6.355.02z"/><path fill="none" stroke="#263238" stroke-linecap="round" stroke-linejoin="round" stroke-miterlimit="20" stroke-width=".5" d="M119.38 74.463v0s-3 .175-3 1.055c0 .88-2.82 3.88-2.82 3.88v0s.53 9.5 1.06 10.04c.53.54 9-6.87 9-6.87v0s7.4 6.345 7.93 6.5c.53.155-.355-8.46-1.235-10.395-.88-1.935-3-4.055-4.58-4.23-1.58-.175-6.355.02-6.355.02z"/></g><g><path fill="#fff" d="M117.62 71.65s.35 6.695.88 7.93c.53 1.235 4.405 7.045 5.285 6.695.88-.35 4.055-6.5 4.055-7.575 0-1.075.705-6.345.705-6.345s-6.875.88-10.925-.705z"/><path fill="none" stroke="#263238" stroke-linecap="round" stroke-linejoin="round" stroke-miterlimit="20" stroke-width=".5" d="M117.62 71.65s.35 6.695.88 7.93c.53 1.235 4.405 7.045 5.285 6.695.88-.35 4.055-6.5 4.055-7.575 0-1.075.705-6.345.705-6.345v0s-6.875.88-10.925-.705z"/></g><g><path fill="#263238" d="M128.265 74.505c.15-1.19.28-2.16.28-2.16s-6.875.88-10.925-.705c0 0 .06 1.13.165 2.545.177.1.357.195.54.285 3.145 1.535 6.985 1.715 9.94.035z"/><path fill="none" stroke="#263238" stroke-linecap="round" stroke-linejoin="round" stroke-miterlimit="20" stroke-width=".5" d="M128.265 74.505c.15-1.19.28-2.16.28-2.16v0s-6.875.88-10.925-.705c0 0 .06 1.13.165 2.545.177.1.357.195.54.285 3.145 1.535 6.985 1.715 9.94.035z"/></g><g><path fill="#fff" d="M93.19 101.07l-.77 5.822 10.6 2.823 1.73-5.471-11.56-3.174z"/><path fill="none" stroke="#263238" stroke-linecap="round" stroke-linejoin="round" stroke-miterlimit="20" stroke-width=".5" d="M93.19 101.07v0l-.77 5.822v0l10.6 2.823v0l1.73-5.471v0l-11.56-3.174v0z"/></g><g><path fill="#fff" d="M146.065 89.568s-3.475 3.5-4.755 5.665a52.16 52.16 0 0 0-2.56 5.305l4.755 3.5 7.315-11.5s-4.205-3.155-4.755-2.97z"/><path fill="none" stroke="#263238" stroke-linecap="round" stroke-linejoin="round" stroke-miterlimit="20" stroke-width=".5" d="M146.065 89.568s-3.475 3.5-4.755 5.665a52.16 52.16 0 0 0-2.56 5.305l4.755 3.5v0l7.315-11.5v0s-4.205-3.155-4.755-2.97z"/></g><g><path fill="#fff" d="M151.063 82.348s-1.37-3.05-1.37-4.575c0-1.525 1.83-6.555 1.83-7 0-.445 1.37-1.525 1.675 0a10.944 10.944 0 0 1 0 3.355l.46 1.37 3.235-5.495a1.315 1.315 0 0 1 1.34-.765c1.15.13.64 1.66.64 1.66l-1.685 4.66-.025.065 3.2-5.945s1.29-.555 2 .265c.575.64-.125 1.535-.125 1.535l-2.665 5.67 3.3-4.67a.885.885 0 0 1 1.57.22v.03c.305 1.07-2.59 5.335-2.59 5.335l2.15-1.66s1.07-1.22 1.375.15c.07.364.016.741-.155 1.07-.325.5-4.115 3.96-4.115 3.96s-2.74 2.135-3.2 2.44a5.5 5.5 0 0 1-1.675.455s-2.075 13.865-3.14 16.15c-1.065 2.285-4.275 4.315-6.31 4.115-2.035-.2-5.21-2.465-3.84-6.58s8.12-15.815 8.12-15.815z"/><path fill="none" stroke="#263238" stroke-linecap="round" stroke-linejoin="round" stroke-miterlimit="20" stroke-width=".5" d="M151.063 82.348v0s-1.37-3.05-1.37-4.575c0-1.525 1.83-6.555 1.83-7 0-.445 1.37-1.525 1.675 0a10.944 10.944 0 0 1 0 3.355l.46 1.37v0l3.235-5.495a1.315 1.315 0 0 1 1.34-.765c1.15.13.64 1.66.64 1.66v0l-1.685 4.66v0l-.025.065v0l3.2-5.945v0s1.29-.555 2 .265c.575.64-.125 1.535-.125 1.535v0l-2.665 5.67v0l3.3-4.67a.885.885 0 0 1 1.57.22v.03c.305 1.07-2.59 5.335-2.59 5.335v0l2.15-1.66v0s1.07-1.22 1.375.15c.07.364.016.741-.155 1.07-.325.5-4.115 3.96-4.115 3.96v0s-2.74 2.135-3.2 2.44a5.5 5.5 0 0 1-1.675.455s-2.075 13.865-3.14 16.15c-1.065 2.285-4.275 4.315-6.31 4.115-2.035-.2-5.21-2.465-3.84-6.58s8.12-15.815 8.12-15.815z"/></g><g><path fill="#fff" d="M153.66 75.5s1.215 2.135 1.37 3.2c.155 1.065-.46 2.895-.46 2.895"/><path fill="none" stroke="#263238" stroke-linecap="round" stroke-linejoin="round" stroke-miterlimit="20" stroke-width=".5" d="M153.66 75.5v0s1.215 2.135 1.37 3.2c.155 1.065-.46 2.895-.46 2.895v0"/></g><g><path fill="#263238" d="M133.468 43.999s.355-3.35-3-6-5.815-2.645-5.635-1.585c.144.703.445 1.364.88 1.935 0 0-7.755-3-13.04-.5-5.285 2.5-6.335 6.65-5.28 6.65a3.055 3.055 0 0 1 1.585.35s-4.405 5.465-4.58 8.28c-.175 2.815 2.645 3.525 2.645 3.525l1.585 3.875s3.5 2.115 4.58.88c1.08-1.235-.355-4.05.53-4.58.885-.53 9-4.225 9-4.225a5.885 5.885 0 0 0 4.58 1.585c3-.175 3.875-1.765 3.875-1.765l1.41 5.285s4.055-1.76 4.405-4.225a16.19 16.19 0 0 0-.35-5.285s3.5 0 1.76-2.47-4.95-1.73-4.95-1.73z"/><path fill="none" stroke="#263238" stroke-linecap="round" stroke-linejoin="round" stroke-miterlimit="20" stroke-width=".5" d="M133.468 43.999v0s.355-3.35-3-6-5.815-2.645-5.635-1.585c.144.703.445 1.364.88 1.935 0 0-7.755-3-13.04-.5-5.285 2.5-6.335 6.65-5.28 6.65a3.055 3.055 0 0 1 1.585.35s-4.405 5.465-4.58 8.28c-.175 2.815 2.645 3.525 2.645 3.525v0l1.585 3.875v0s3.5 2.115 4.58.88c1.08-1.235-.355-4.05.53-4.58.885-.53 9-4.225 9-4.225a5.885 5.885 0 0 0 4.58 1.585c3-.175 3.875-1.765 3.875-1.765v0l1.41 5.285v0s4.055-1.76 4.405-4.225a16.19 16.19 0 0 0-.35-5.285s3.5 0 1.76-2.47-4.95-1.73-4.95-1.73z"/></g><g><path fill="#fff" d="M132.269 58.468s1.935-3.525 3.5-.705-1.41 5.635-2.82 6.5c-1.41.865-.68-5.795-.68-5.795z"/><path fill="none" stroke="#263238" stroke-linecap="round" stroke-linejoin="round" stroke-miterlimit="20" stroke-width=".5" d="M132.269 58.468v0s1.935-3.525 3.5-.705-1.41 5.635-2.82 6.5c-1.41.865-.68-5.795-.68-5.795z"/></g><g><path fill="#fff" d="M132.241 48.39s-1.765 3.525-4.935 4.58c-3.17 1.055-2.645-1.94-2.645-1.94s-9.69 4.055-13.74 5.11l.35 3.175s-2.115-2.645-3.7-.355.18 4.935 1.765 6.165c1.585 1.23 2.64.18 2.64.18s1.765 5.635 6.5 7.925 11.1 1.59 13.565-4.05.2-20.79.2-20.79z"/><path fill="none" stroke="#263238" stroke-linecap="round" stroke-linejoin="round" stroke-miterlimit="20" stroke-width=".5" d="M132.241 48.39v0s-1.765 3.525-4.935 4.58c-3.17 1.055-2.645-1.94-2.645-1.94v0s-9.69 4.055-13.74 5.11l.35 3.175v0s-2.115-2.645-3.7-.355.18 4.935 1.765 6.165c1.585 1.23 2.64.18 2.64.18v0s1.765 5.635 6.5 7.925 11.1 1.59 13.565-4.05.2-20.79.2-20.79z"/></g><g><path fill="none" stroke="#263238" stroke-linecap="round" stroke-linejoin="round" stroke-miterlimit="20" stroke-width=".5" d="M121.2 62.07s1.41 1.94 3.875 0"/></g><g><path fill="#263238" d="M120.14 59.165c0 .925-.435 1.675-.97 1.675-.535 0-.97-.75-.97-1.675s.435-1.675.97-1.675c.535 0 .97.75.97 1.675z"/></g><g><path fill="#263238" d="M127.625 59.435c0 .925-.43 1.675-.965 1.675-.535 0-.97-.75-.97-1.675s.435-1.675.97-1.675c.535 0 .965.745.965 1.675z"/></g><g><path fill="none" stroke="#263238" stroke-linecap="round" stroke-linejoin="round" stroke-miterlimit="20" d="M116.62 56.61s1.944-1.94 4.415-1.236"/></g><g><path fill="none" stroke="#263238" stroke-linecap="round" stroke-linejoin="round" stroke-miterlimit="20" d="M125.07 55.376s3-1.23 4.23 1.41"/></g><g><path fill="none" stroke="#263238" stroke-linecap="round" stroke-linejoin="round" stroke-miterlimit="20" stroke-width=".5" d="M120.5 65.07s3.175 1.41 5.465-.35"/></g></g><g><g><path fill="#fff" d="M14.31 175.46s-2.675 3.25-3.825 4.205c-1.15.955-6.69 4.97-8.795 7.84-2.105 2.87.195 5.925 5.165 5.16 4.97-.765 4.205-3.055 7.075-4 2.87-.945 4.395-2.1 4.78-5.54.385-3.44.38-6.5.38-6.5z"/><path fill="none" stroke="#263238" stroke-linecap="round" stroke-linejoin="round" stroke-miterlimit="20" stroke-width=".5" d="M14.31 175.46v0s-2.675 3.25-3.825 4.205c-1.15.955-6.69 4.97-8.795 7.84-2.105 2.87.195 5.925 5.165 5.16 4.97-.765 4.205-3.055 7.075-4 2.87-.945 4.395-2.1 4.78-5.54.385-3.44.38-6.5.38-6.5v0z"/></g><g><path fill="#adc7f7" d="M16.035 182.528l-.955-2.295c-.955-2.295-3.44-1.145-3.44-1.145l-.465-.075a9.25 9.25 0 0 1-.67.645c-1.145.96-6.69 4.97-8.795 7.84-2.105 2.87.195 5.925 5.165 5.16 4.97-.765 4.205-3.055 7.075-4 2.87-.945 4.395-2.1 4.78-5.54.055-.5.1-1 .145-1.5z"/><path fill="none" stroke="#263238" stroke-linecap="round" stroke-linejoin="round" stroke-miterlimit="20" stroke-width=".5" d="M16.035 182.528v0l-.955-2.295c-.955-2.295-3.44-1.145-3.44-1.145v0l-.465-.075a9.25 9.25 0 0 1-.67.645c-1.145.96-6.69 4.97-8.795 7.84-2.105 2.87.195 5.925 5.165 5.16 4.97-.765 4.205-3.055 7.075-4 2.87-.945 4.395-2.1 4.78-5.54.055-.5.1-1 .145-1.5z"/></g><g><path fill="#fff" d="M18.359 184.86a32.66 32.66 0 0 0-3.855 2.07c-2.675 1.72-3.44 3.445-8.41 4-2.795.325-4.32-.805-5.12-1.855-.44 2.285 1.835 4.2 5.885 3.575 4.97-.76 4.205-3.055 7.075-4 2.31-.77 3.755-1.645 4.425-3.79z"/><path fill="none" stroke="#263238" stroke-linecap="round" stroke-linejoin="round" stroke-miterlimit="20" stroke-width=".5" d="M18.359 184.86a32.66 32.66 0 0 0-3.855 2.07c-2.675 1.72-3.44 3.445-8.41 4-2.795.325-4.32-.805-5.12-1.855-.44 2.285 1.835 4.2 5.885 3.575 4.97-.76 4.205-3.055 7.075-4 2.31-.77 3.755-1.645 4.425-3.79z"/></g><g><path fill="#fff" d="M69.93 175.46s2.68 3.25 3.825 4.205c1.145.955 6.69 4.97 8.795 7.84 2.105 2.87-.19 5.925-5.16 5.16-4.97-.765-4.21-3.055-7.075-4-2.865-.945-4.4-2.1-4.78-5.54-.38-3.44-.385-6.5-.385-6.5z"/><path fill="none" stroke="#263238" stroke-linecap="round" stroke-linejoin="round" stroke-miterlimit="20" stroke-width=".5" d="M69.93 175.46v0s2.68 3.25 3.825 4.205c1.145.955 6.69 4.97 8.795 7.84 2.105 2.87-.19 5.925-5.16 5.16-4.97-.765-4.21-3.055-7.075-4-2.865-.945-4.4-2.1-4.78-5.54-.38-3.44-.385-6.5-.385-6.5v0z"/></g><g><path fill="#adc7f7" d="M68.21 182.528l.955-2.295c.96-2.295 3.445-1.145 3.445-1.145l.465-.075c.255.26.5.5.68.645 1.15.96 6.69 4.97 8.795 7.84 2.105 2.87-.19 5.925-5.16 5.16-4.97-.765-4.21-3.055-7.075-4-2.865-.945-4.4-2.1-4.78-5.54-.055-.5-.105-1-.145-1.5z"/><path fill="none" stroke="#263238" stroke-linecap="round" stroke-linejoin="round" stroke-miterlimit="20" stroke-width=".5" d="M68.21 182.528v0l.955-2.295c.96-2.295 3.445-1.145 3.445-1.145v0l.465-.075c.255.26.5.5.68.645 1.15.96 6.69 4.97 8.795 7.84 2.105 2.87-.19 5.925-5.16 5.16-4.97-.765-4.21-3.055-7.075-4-2.865-.945-4.4-2.1-4.78-5.54-.055-.5-.105-1-.145-1.5z"/></g><g><path fill="#fff" d="M65.89 184.86a32.241 32.241 0 0 1 3.85 2.07c2.675 1.72 3.44 3.445 8.415 4 2.795.325 4.32-.805 5.12-1.855.435 2.285-1.835 4.2-5.885 3.575-4.975-.76-4.21-3.055-7.075-4-2.315-.77-3.755-1.645-4.425-3.79z"/><path fill="none" stroke="#263238" stroke-linecap="round" stroke-linejoin="round" stroke-miterlimit="20" stroke-width=".5" d="M65.89 184.86a32.241 32.241 0 0 1 3.85 2.07c2.675 1.72 3.44 3.445 8.415 4 2.795.325 4.32-.805 5.12-1.855.435 2.285-1.835 4.2-5.885 3.575-4.975-.76-4.21-3.055-7.075-4-2.315-.77-3.755-1.645-4.425-3.79z"/></g><g><path fill="#263238" d="M30.585 112.53L12.98 173.165l9.555 1.72 22.61-42.915 5.16.765 13.72 46.74 9.75-.955-7.435-57.58-17.59-8.22-18.165-.19z"/><path fill="none" stroke="#263238" stroke-linecap="round" stroke-linejoin="round" stroke-miterlimit="20" stroke-width=".5" d="M30.585 112.53v0L12.98 173.165v0l9.555 1.72v0l22.61-42.915v0l5.16.765v0l13.72 46.74v0l9.75-.955v0l-7.435-57.58v0l-17.59-8.22v0l-18.165-.19v0z"/></g><g><path fill="#b2b2b2" d="M64.23 71.42s-8.795-3.636-13.385-4.4c-4.59-.766-7.645-.38-9.555.954-1.91 1.335-3.25 7.84-2.295 10.135a17.865 17.865 0 0 1 1.145 3.44s-4.59 20.45-4.78 21.605c-.19 1.155-4.205 2.295-4.205 3.25 0 .955-1.155 6.885-1.155 6.885s7.455 3.44 19.5 6.115c12.045 2.675 17.205 2.5 17.205 2.5s.19-3.82.385-6.5-.765-4.585-.765-5.16c0-.575 6.88-19.31 6.88-19.31l6.12 9.37-1.72 19.31s-5.545 1.91-5.93 3.44c-.385 1.53-1.335 3.63-1.335 4.59s.19 2.29 1.72 2.1c1.53-.19 1.53-3.06 1.53-3.06l.765-.57-.765 7.645a2.055 2.055 0 0 0 2.1 1.34c1.725 0 1.34-1.72 1.34-1.72l2.675-.385s3.06-.57 3.825-1.53c.765-.96 1.91-7.455 1.91-9 .009-1.022.074-2.044.195-3.06 0 0 5.16-18.545 4.585-20.645C89.645 96.66 82 80 80.5 78.11c-1.5-1.89-9-4.97-11.28-5.355a34.31 34.31 0 0 1-4.99-1.335z"/><path fill="none" stroke="#263238" stroke-linecap="round" stroke-linejoin="round" stroke-miterlimit="20" stroke-width=".5" d="M64.23 71.42v0s-8.795-3.636-13.385-4.4c-4.59-.766-7.645-.38-9.555.954-1.91 1.335-3.25 7.84-2.295 10.135a17.865 17.865 0 0 1 1.145 3.44s-4.59 20.45-4.78 21.605c-.19 1.155-4.205 2.295-4.205 3.25 0 .955-1.155 6.885-1.155 6.885v0s7.455 3.44 19.5 6.115c12.045 2.675 17.205 2.5 17.205 2.5v0s.19-3.82.385-6.5-.765-4.585-.765-5.16c0-.575 6.88-19.31 6.88-19.31v0l6.12 9.37v0l-1.72 19.31v0s-5.545 1.91-5.93 3.44c-.385 1.53-1.335 3.63-1.335 4.59s.19 2.29 1.72 2.1c1.53-.19 1.53-3.06 1.53-3.06v0l.765-.57v0l-.765 7.645a2.055 2.055 0 0 0 2.1 1.34c1.725 0 1.34-1.72 1.34-1.72v0l2.675-.385v0s3.06-.57 3.825-1.53c.765-.96 1.91-7.455 1.91-9 .009-1.022.074-2.044.195-3.06 0 0 5.16-18.545 4.585-20.645C89.645 96.66 82 80 80.5 78.11c-1.5-1.89-9-4.97-11.28-5.355a34.31 34.31 0 0 1-4.99-1.335z"/></g><g><path fill="none" stroke="#263238" stroke-linecap="round" stroke-linejoin="round" stroke-miterlimit="20" stroke-width=".5" d="M77.04 133.375l1.855-6.715"/></g><g><path fill="none" stroke="#263238" stroke-linecap="round" stroke-linejoin="round" stroke-miterlimit="20" stroke-width=".5" d="M79.72 132.985l1.805-5.175"/></g><g><path fill="none" stroke="#263238" stroke-linecap="round" stroke-linejoin="round" stroke-miterlimit="20" stroke-width=".5" d="M82.51 131.91l.98-3.77"/></g><g><path fill="#fff" d="M80.509 78.11c-1.53-1.91-9.002-4.97-11.282-5.356a34.322 34.322 0 0 1-4.971-1.335s-8.797-3.635-13.387-4.4c-4.591-.765-7.647-.38-9.557.955-1.91 1.335-3.25 7.84-2.295 10.135a17.862 17.862 0 0 1 1.145 3.44S35.55 102 35.36 103.154c-.19 1.155-4.206 2.295-4.206 3.25 0 .955-1.155 6.885-1.155 6.885s7.456 3.44 19.503 6.115c12.048 2.675 17.208 2.5 17.208 2.5s.19-3.82.386-6.5c.195-2.68-.766-4.585-.766-5.16 0-.575 6.882-19.31 6.882-19.31l4.185 6.41 9.317-6.8c-2.415-5.31-5.34-11.33-6.206-12.435z"/><path fill="none" stroke="#263238" stroke-linecap="round" stroke-linejoin="round" stroke-miterlimit="20" stroke-width=".5" d="M80.509 78.11c-1.53-1.91-9.002-4.97-11.282-5.356a34.322 34.322 0 0 1-4.971-1.335s-8.797-3.635-13.387-4.4c-4.591-.765-7.647-.38-9.557.955-1.91 1.335-3.25 7.84-2.295 10.135a17.862 17.862 0 0 1 1.145 3.44S35.55 102 35.36 103.154c-.19 1.155-4.206 2.295-4.206 3.25 0 .955-1.155 6.885-1.155 6.885v0s7.456 3.44 19.503 6.115c12.048 2.675 17.208 2.5 17.208 2.5v0s.19-3.82.386-6.5c.195-2.68-.766-4.585-.766-5.16 0-.575 6.882-19.31 6.882-19.31v0l4.185 6.41v0l9.317-6.8c-2.415-5.31-5.34-11.33-6.206-12.435z"/></g><g><path fill="#adc7f7" d="M77.405 97.33l9.315-6.8c-.75-1.646-1.55-3.356-2.325-4.97l-.05-.106c-.13-.27-.26-.535-.385-.8-.03-.065-.06-.13-.095-.19l-.34-.705-.1-.205c-.115-.23-.22-.45-.33-.665L83 82.7l-.35-.705a.93.93 0 0 1-.05-.1c-.13-.26-.26-.5-.385-.755l-.04-.075c-.105-.205-.21-.4-.305-.59l-.115-.21a9.676 9.676 0 0 0-.215-.4c-.07-.125-.075-.145-.115-.21l-.18-.33-.11-.19-.16-.28-.095-.155-.145-.235-.07-.105a2.55 2.55 0 0 0-.18-.25c-1.53-1.91-9-4.97-11.28-5.355a34.31 34.31 0 0 1-4.97-1.335s-8.795-3.635-13.385-4.4c-4.59-.765-7.645-.38-9.555.955-1.91 1.335-3.25 7.84-2.295 10.135a17.865 17.865 0 0 1 1.145 3.44s-.69 3.085-1.545 6.92c5.275-1.565 20.105-6.375 25.255-12.465l1.335.195s-.315 13.85 4.345 24.845c1.795-5 3.685-10.125 3.685-10.125z"/><path fill="none" stroke="#263238" stroke-linecap="round" stroke-linejoin="round" stroke-miterlimit="20" stroke-width=".5" d="M77.405 97.33v0l9.315-6.8c-.75-1.646-1.55-3.356-2.325-4.97l-.05-.106c-.13-.27-.26-.535-.385-.8-.03-.065-.06-.13-.095-.19l-.34-.705v0l-.1-.205c-.115-.23-.22-.45-.33-.665L83 82.7v0l-.35-.705a.93.93 0 0 1-.05-.1c-.13-.26-.26-.5-.385-.755l-.04-.075c-.105-.205-.21-.4-.305-.59l-.115-.21a9.676 9.676 0 0 0-.215-.4c-.07-.125-.075-.145-.115-.21l-.18-.33v0l-.11-.19v0l-.16-.28v0l-.095-.155v0l-.145-.235v0l-.07-.105a2.55 2.55 0 0 0-.18-.25c-1.53-1.91-9-4.97-11.28-5.355a34.31 34.31 0 0 1-4.97-1.335s-8.795-3.635-13.385-4.4c-4.59-.765-7.645-.38-9.555.955-1.91 1.335-3.25 7.84-2.295 10.135a17.865 17.865 0 0 1 1.145 3.44s-.69 3.085-1.545 6.92c5.275-1.565 20.105-6.375 25.255-12.465l1.335.195v0s-.315 13.85 4.345 24.845c1.795-5 3.685-10.125 3.685-10.125v0z"/></g><g><path fill="#adc7f7" d="M40.14 81.55s4.5-.035 5.84-7.16"/><path fill="none" stroke="#263238" stroke-linecap="round" stroke-linejoin="round" stroke-miterlimit="20" stroke-width=".5" d="M40.14 81.55s4.5-.035 5.84-7.16"/></g><g><path fill="#adc7f7" d="M76.59 82.86l-3.37 8.06 6.645-7.675"/><path fill="none" stroke="#263238" stroke-linecap="round" stroke-linejoin="round" stroke-miterlimit="20" stroke-width=".5" d="M76.59 82.86v0l-3.37 8.06v0l6.645-7.675v0"/></g><g><path fill="#fff" d="M70.284 73.005c-.74-.135-1.5-.3-2.32-.5-1.92-.445-3.735-1.09-3.735-1.09s-2.9-1.2-6.235-2.365c-.135 4.565 0 13.335 3 15.5 3.38 2.5 11.065-6.695 13.62-9.945a39.195 39.195 0 0 0-4.33-1.6z"/><path fill="none" stroke="#263238" stroke-linecap="round" stroke-linejoin="round" stroke-miterlimit="20" stroke-width=".5" d="M70.284 73.005c-.74-.135-1.5-.3-2.32-.5-1.92-.445-3.735-1.09-3.735-1.09v0s-2.9-1.2-6.235-2.365c-.135 4.565 0 13.335 3 15.5 3.38 2.5 11.065-6.695 13.62-9.945a39.195 39.195 0 0 0-4.33-1.6z"/></g><g><path fill="#b2b2b2" d="M60.212 68s-1.53 11.855 1.53 14.34c3.06 2.485 11.666-8.03 11.666-8.03s-9.756-.405-13.196-6.31z"/><path fill="none" stroke="#263238" stroke-linecap="round" stroke-linejoin="round" stroke-miterlimit="20" stroke-width=".5" d="M60.212 68s-1.53 11.855 1.53 14.34c3.06 2.485 11.666-8.03 11.666-8.03v0s-9.756-.405-13.196-6.31z"/></g><g><path fill="#b2b2b2" d="M59.955 55.438s-1.925-3.415-3.42 0c-1.495 3.415.645 6 2.35 6.195 1.705.195 1.07-6.195 1.07-6.195z"/><path fill="none" stroke="#263238" stroke-linecap="round" stroke-linejoin="round" stroke-miterlimit="20" stroke-width=".5" d="M59.955 55.438v0s-1.925-3.415-3.42 0c-1.495 3.415.645 6 2.35 6.195 1.705.195 1.07-6.195 1.07-6.195z"/></g><g><path fill="#b2b2b2" d="M81.038 60.832s3.36-2 2.975 1.685c-.385 3.685-3.5 4.885-5.095 4.23-1.595-.655 2.12-5.915 2.12-5.915z"/><path fill="none" stroke="#263238" stroke-linecap="round" stroke-linejoin="round" stroke-miterlimit="20" stroke-width=".5" d="M81.038 60.832v0s3.36-2 2.975 1.685c-.385 3.685-3.5 4.885-5.095 4.23-1.595-.655 2.12-5.915 2.12-5.915z"/></g><g><path fill="#b2b2b2" d="M61.002 48.817s-2.775 9.61-2.56 15.59c.215 5.98 4.055 10.465 7.5 11.745 3.445 1.28 9.825-2.775 12.175-6.83 2.35-4.055 6-13.67 5.55-18.37-.45-4.7-7.26-8.545-12.385-8.755-5.125-.21-9.41 1.495-10.28 6.62z"/><path fill="none" stroke="#263238" stroke-linecap="round" stroke-linejoin="round" stroke-miterlimit="20" stroke-width=".5" d="M61.002 48.817s-2.775 9.61-2.56 15.59c.215 5.98 4.055 10.465 7.5 11.745 3.445 1.28 9.825-2.775 12.175-6.83 2.35-4.055 6-13.67 5.55-18.37-.45-4.7-7.26-8.545-12.385-8.755-5.125-.21-9.41 1.495-10.28 6.62z"/></g><g><path fill="none" stroke="#263238" stroke-linecap="round" stroke-linejoin="round" stroke-miterlimit="20" d="M62.94 57.79a6.13 6.13 0 0 1 4.5 1.28"/></g><g><path fill="none" stroke="#263238" stroke-linecap="round" stroke-linejoin="round" stroke-miterlimit="20" stroke-width=".5" d="M62.73 54.372a7.696 7.696 0 0 1 5.775 0"/></g><g><path fill="none" stroke="#263238" stroke-linecap="round" stroke-linejoin="round" stroke-miterlimit="20" d="M72.55 60.996s3.205-.215 4.5 1.92"/></g><g><path fill="none" stroke="#263238" stroke-linecap="round" stroke-linejoin="round" stroke-miterlimit="20" stroke-width=".5" d="M74.26 56.93a5.11 5.11 0 0 1 4.5 2.565"/></g><g><path fill="none" stroke="#263238" stroke-linecap="round" stroke-linejoin="round" stroke-miterlimit="20" stroke-width=".5" d="M66.79 61.42v0s-.64 1.71 1.5 2.565c1.131.543 2.49.18 3.2-.855"/></g><g><path fill="#fff" d="M72.07 66.003a4.875 4.875 0 0 1-4.29.22c-1.63-.67-1.755-1.87-3.185-2.64-1.43-.77-2.64.33-2.09 2.75.55 2.42 3.41 3.845 6.155 4.175 2.745.33 5.06-1.1 5.17-2.86.11-1.76-1.76-1.645-1.76-1.645z"/><path fill="none" stroke="#263238" stroke-linecap="round" stroke-linejoin="round" stroke-miterlimit="20" stroke-width=".5" d="M72.07 66.003a4.875 4.875 0 0 1-4.29.22c-1.63-.67-1.755-1.87-3.185-2.64-1.43-.77-2.64.33-2.09 2.75.55 2.42 3.41 3.845 6.155 4.175 2.745.33 5.06-1.1 5.17-2.86.11-1.76-1.76-1.645-1.76-1.645z"/></g><g><path fill="none" stroke="#263238" stroke-linecap="round" stroke-linejoin="round" stroke-miterlimit="20" stroke-width=".5" d="M62.5 64.03a9.5 9.5 0 0 0 5.055 4.285 8.145 8.145 0 0 0 6.16-.22"/></g><g><path fill="#263238" d="M83.66 50.952c-.425-4.7-7.26-8.545-12.385-8.755-5.125-.21-9.4 1.5-10.255 6.62 0 0-.68 2.36-1.34 5.47a7.5 7.5 0 0 1 1.45-1.395c2.04-1.53 2.55-1.19 2.55-3.23s1.365-4.425 2.895-4.595c1.53-.17 2.895.34 6.125 1.87s6.64 1.19 8.17 2.385c1.53 1.195 2.215 3.06.5 5.275-1.715 2.215-.68 3.575-.68 4.595 0 1.02-.34 3.06.5 3.235 1.53-4.09 2.725-8.66 2.47-11.475z"/></g><g><path fill="#b2b2b2" d="M30.39 68.94s.19 6.88 1.53 9.75 5.735 4 9 1.53c3.265-2.47 2.295-7.075 1.15-9.37-1.145-2.295-1.915-3.63-1.915-3.63z"/><path fill="none" stroke="#263238" stroke-linecap="round" stroke-linejoin="round" stroke-miterlimit="20" stroke-width=".5" d="M30.39 68.94v0s.19 6.88 1.53 9.75 5.735 4 9 1.53c3.265-2.47 2.295-7.075 1.15-9.37-1.145-2.295-1.915-3.63-1.915-3.63v0z"/></g><g><path fill="#b2b2b2" d="M42.245 69.318l5.925-4.395c.765-.575 1.53-2.5.385-3.25s-2.5.57-2.5.57-4.21 2.105-5 2.105-1.91-2.295-2.5-3.25c-.59-.955-1.855-7.455-2.24-8.595-.385-1.14-2.865-.765-2.865.955s1.145 6.695 1.145 6.695l-2.675.38s-2.295-5.53-2.87-6.7c-.575-1.17-3.055-.765-2.675.765.38 1.53 2.5 7.075 2.5 7.075H27.33s-3.63-4.4-4.395-4.59c-.765-.19-1.53.955-.19 2.865 1.34 1.91 3.055 4 3.055 4s-4-.38-4.585-.57c-.585-.19-1.915 1.335-.385 2.1 1.487.63 3.022 1.14 4.59 1.525 0 0 2.675 3.635 5.355 3.25a18.1 18.1 0 0 0 4.395-1.145s2.675 2.125 7.075.21z"/><path fill="none" stroke="#263238" stroke-linecap="round" stroke-linejoin="round" stroke-miterlimit="20" stroke-width=".5" d="M42.245 69.318l5.925-4.395c.765-.575 1.53-2.5.385-3.25s-2.5.57-2.5.57v0s-4.21 2.105-5 2.105-1.91-2.295-2.5-3.25c-.59-.955-1.855-7.455-2.24-8.595-.385-1.14-2.865-.765-2.865.955s1.145 6.695 1.145 6.695v0l-2.675.38v0s-2.295-5.53-2.87-6.7c-.575-1.17-3.055-.765-2.675.765.38 1.53 2.5 7.075 2.5 7.075v0H27.33v0s-3.63-4.4-4.395-4.59c-.765-.19-1.53.955-.19 2.865 1.34 1.91 3.055 4 3.055 4v0s-4-.38-4.585-.57c-.585-.19-1.915 1.335-.385 2.1 1.487.63 3.022 1.14 4.59 1.525 0 0 2.675 3.635 5.355 3.25a18.1 18.1 0 0 0 4.395-1.145s2.675 2.125 7.075.21z"/></g><g><path fill="#fff" d="M61.35 174.124l2.1 5.551 10.9-.956v-8.229l-13 3.634z"/><path fill="none" stroke="#263238" stroke-linecap="round" stroke-linejoin="round" stroke-miterlimit="20" stroke-width=".5" d="M61.35 174.124v0l2.1 5.551v0l10.9-.956v0-8.229 0l-13 3.634v0z"/></g><g><path fill="#fff" d="M12.596 170.49l-.766 5.355 9.377 3.055 4.398-6.5-13.01-1.91z"/><path fill="none" stroke="#263238" stroke-linecap="round" stroke-linejoin="round" stroke-miterlimit="20" stroke-width=".5" d="M12.596 170.49v0l-.766 5.355v0l9.377 3.055v0l4.398-6.5v0l-13.01-1.91v0z"/></g></g></g></g></svg>