<svg xmlns="http://www.w3.org/2000/svg" width="238" height="217" viewBox="0 0 238 217"><g><g><g><g><path fill="#adc7f7" d="M229.953 144.516c8.537-38.335-9.13-90.693-30.618-113.007C160.498-8.773 124.35-3.103 95.44 9.249 66.53 21.6 58.055 67.094 36.977 86.843c-21.078 19.748-47.239 50.937-21.14 79.987 26.1 29.051 63.357 12.248 93.693 11.978 30.337-.269 68.966 15.469 91.807 4.501 15.946-7.654 24.838-21.861 28.616-38.793z"/></g><g opacity=".8"><path fill="#fff" d="M229.953 144.516c8.537-38.335-9.13-90.693-30.618-113.007C160.498-8.773 124.35-3.103 95.44 9.249 66.53 21.6 58.055 67.094 36.977 86.843c-21.078 19.748-47.239 50.937-21.14 79.987 26.1 29.051 63.357 12.248 93.693 11.978 30.337-.269 68.966 15.469 91.807 4.501 15.946-7.654 24.838-21.861 28.616-38.793z"/></g><g><path fill="#fff" d="M220.618 120.731c.992.613 3.577.888 3.577.888s-.325-1.757-.362-1.867c-.41-1.256-1.935-3.448-3.417-3.442a1.74 1.74 0 0 0-1.678 1.99c.104 1.035 1.035 1.923 1.88 2.431z"/></g><g><path fill="#fff" d="M233.376 144.409c-1.47.184-2.7 2.554-2.939 3.852 0 .08-.08.93-.11 1.463-.03-.318-.055-.612-.092-.955-.061-.643-.147-1.286-.233-1.978l-.165-1.01c-.05-.337-.14-.692-.208-1.041a35.144 35.144 0 0 0-.643-2.413c.57-.061 2.578-.294 3.435-.79.857-.496 1.837-1.36 1.941-2.394a1.751 1.751 0 0 0-1.64-2.027c-1.477-.037-3.063 2.118-3.491 3.368 0 .073-.24 1.004-.343 1.518a44.099 44.099 0 0 0-.46-1.45c-.477-1.403-1.004-2.806-1.518-4.202-.16-.435-.313-.863-.472-1.292.202 0 2.597-.245 3.558-.802.857-.49 1.837-1.353 1.941-2.388a1.751 1.751 0 0 0-1.64-2.027c-1.477-.037-3.063 2.118-3.491 3.362-.031.098-.331 1.433-.392 1.782a57.46 57.46 0 0 1-.962-2.842 30.661 30.661 0 0 1-.943-3.888c.098 0 2.597-.233 3.583-.803.85-.49 1.806-1.353 1.935-2.394a1.751 1.751 0 0 0-1.635-2.027c-1.482-.037-3.062 2.119-3.49 3.368-.031.08-.264 1.102-.362 1.592h-.086a22.59 22.59 0 0 1-.22-4.017c0-.735.067-1.445.14-2.13.466 0 2.615 0 3.558-.405.943-.404 1.948-1.151 2.193-2.168a1.751 1.751 0 0 0-1.409-2.192c-1.463-.202-3.27 1.77-3.84 2.964-.03.061-.269.753-.44 1.261.037-.306.067-.612.11-.918a37.59 37.59 0 0 1 .545-3.007c.11-.508.22-.961.33-1.384.466-.239 2.322-1.225 2.958-1.996.637-.772 1.195-1.917.944-2.927a1.751 1.751 0 0 0-2.26-1.305c-1.39.502-2.082 3.062-2.04 4.403 0 .11.264 1.892.288 1.88h.031c-.11.41-.226.845-.343 1.323a35.9 35.9 0 0 0-.612 3.007 30.923 30.923 0 0 0-.398 3.606 22.885 22.885 0 0 0 .14 4.06v.043a51.467 51.467 0 0 0-.777-1.555c-.729-1.102-2.78-2.81-4.207-2.419a1.758 1.758 0 0 0-1.096 2.364c.38.973 1.512 1.586 2.45 1.837 1.07.3 3.46-.055 3.673-.086.203 1.365.496 2.715.876 4.042.22.771.466 1.55.717 2.32-.166-.336-.319-.612-.343-.673-.729-1.108-2.78-2.817-4.207-2.45a1.757 1.757 0 0 0-1.096 2.364c.38.98 1.512 1.586 2.449 1.837.937.252 3.007 0 3.546-.067.098.294.196.612.3.882.49 1.414.98 2.823 1.42 4.22.16.49.294.985.435 1.475-.153-.3-.281-.551-.306-.612-.723-1.103-2.774-2.811-4.2-2.42a1.745 1.745 0 0 0-1.097 2.364c.374.974 1.513 1.587 2.45 1.838.936.25 2.804 0 3.441-.062.129.509.257 1.017.355 1.513.055.337.141.661.178 1.01l.147 1.01c.067.65.14 1.311.19 1.948.036.441.06.857.091 1.28a50.569 50.569 0 0 0-.496-1.525 6.822 6.822 0 0 0-2.265-2.578 2.265 2.265 0 0 0-.19-.337 1.758 1.758 0 0 0-2.578-.404c-1.12.968-.84 3.625-.325 4.844.03.067.447.808.717 1.274-.202-.245-.392-.49-.613-.747-.41-.503-.839-.992-1.292-1.52l-.692-.752c-.226-.258-.496-.496-.747-.747a43.683 43.683 0 0 0-1.868-1.666c.441-.361 1.984-1.666 2.45-2.554.465-.888.76-2.13.294-3.061a1.745 1.745 0 0 0-2.45-.784c-1.255.784-1.384 3.453-1.06 4.733 0 .08.362.974.552 1.458-.386-.319-.778-.613-1.182-.956-1.17-.906-2.382-1.788-3.588-2.67l-1.096-.814c.153-.129 2.026-1.635 2.523-2.633.44-.882.759-2.125.293-3.062a1.751 1.751 0 0 0-2.48-.79c-1.255.79-1.384 3.454-1.06 4.734.032.098.515 1.384.656 1.702a114.168 114.168 0 0 1-2.37-1.837 30.423 30.423 0 0 1-2.927-2.725c.074-.055 2.033-1.629 2.542-2.646.44-.881.759-2.124.3-3.061a1.757 1.757 0 0 0-2.487-.79c-1.255.79-1.377 3.453-1.053 4.733 0 .086.386 1.066.576 1.525l-.074.043c-.896-1-1.7-2.08-2.4-3.227a21.749 21.749 0 0 1-1.06-1.837c.392-.251 2.186-1.433 2.744-2.303.557-.87.992-2.033.612-3.013a1.758 1.758 0 0 0-2.388-1.053c-1.329.612-1.745 3.276-1.568 4.587 0 .073.19.783.33 1.298-.14-.276-.287-.557-.416-.827-.49-1.01-.87-1.96-1.224-2.81a34.541 34.541 0 0 1-.484-1.336c.257-.453 1.268-2.284 1.366-3.294.098-1.01-.062-2.26-.833-2.964a1.745 1.745 0 0 0-2.597.16c-.888 1.187-.043 3.716.723 4.794.067.092 1.267 1.433 1.28 1.409.134.398.275.826.447 1.292.312.857.673 1.837 1.145 2.841a30.067 30.067 0 0 0 1.66 3.227 22.958 22.958 0 0 0 2.35 3.307l.038.037a35.07 35.07 0 0 0-1.513-.864c-1.225-.526-3.864-.82-4.838.3a1.745 1.745 0 0 0 .392 2.572c.851.613 2.131.49 3.062.19 1.06-.337 2.854-1.953 2.995-2.082a31.527 31.527 0 0 0 2.963 2.884 46.367 46.367 0 0 0 1.874 1.537l-.661-.367c-1.225-.52-3.864-.814-4.838.3a1.751 1.751 0 0 0 .386 2.578c.857.613 2.137.484 3.062.184.925-.3 2.51-1.647 2.92-2.009l.736.57c1.188.912 2.382 1.837 3.52 2.731.399.325.785.661 1.17.992l-.575-.318c-1.225-.52-3.87-.815-4.838.3a1.751 1.751 0 0 0 .386 2.578c.851.612 2.131.483 3.062.19.93-.294 2.357-1.525 2.841-1.954.386.355.772.71 1.127 1.066.239.25.484.477.71.74l.674.766c.416.502.845 1.023 1.225 1.519l.784 1.022a42.19 42.19 0 0 0-1.256-.998c-1.12-.704-3.674-1.396-4.831-.44a1.758 1.758 0 0 0 0 2.608c.753.729 2.033.802 3.012.65 1.072-.166 3.013-1.434 3.258-1.593.423.557.833 1.102 1.225 1.629a88.216 88.216 0 0 1 3.025 4.458l.074.11.906-.435c-.05-.073-.092-.14-.147-.214a88.454 88.454 0 0 0-4.538-6.222 18.67 18.67 0 0 0 1.403-1.739 12.7 12.7 0 0 0 3.484.423 90.927 90.927 0 0 1 .178 7.416v.153l.998-.484a79.96 79.96 0 0 0-.184-5.107 87.72 87.72 0 0 0-.171-2.248c.275-.067 2.529-.643 3.374-1.322.845-.68 1.586-1.617 1.555-2.664a1.745 1.745 0 0 0-1.868-1.721z"/></g><g><path fill="#fff" d="M202.44 129.984c-1.03-.82-3.51-1.806-4.747-.986a1.745 1.745 0 0 0-.306 2.585c.661.808 1.93 1.035 2.915.992 1.163-.043 3.472-1.225 3.472-1.225s-1.243-1.292-1.335-1.366z"/></g><g><path fill="#fff" d="M33.941 130.063c0 .03 1.341-1.647 1.415-1.757.82-1.335 1.635-4.397.496-5.738a2.082 2.082 0 0 0-3.093 0c-.857.9-.943 2.45-.759 3.576.214 1.36 1.941 3.92 1.941 3.92z"/></g><g><path fill="#fff" d="M46.872 123.56c-1.519-.875-4.384.472-5.548 1.525-.104.092-1.513 1.697-1.482 1.709h.037c-.453.214-.937.44-1.464.704a46.302 46.302 0 0 0-3.19 1.745 38.235 38.235 0 0 0-3.57 2.413 27.28 27.28 0 0 0-3.57 3.24l-.037.042c.214-.465.778-1.794.808-1.898.447-1.506.423-4.672-1.029-5.664a2.082 2.082 0 0 0-2.982.82c-.612 1.09-.275 2.584.208 3.674.545 1.225 2.7 3.062 2.872 3.24a36.914 36.914 0 0 0-2.982 3.895 50.608 50.608 0 0 0-1.55 2.449c.172-.41.325-.778.344-.833.44-1.506.416-4.672-1.035-5.664a2.082 2.082 0 0 0-2.982.82c-.613 1.09-.276 2.585.208 3.675.484 1.09 2.296 2.725 2.786 3.153l-.576.956c-.906 1.524-1.8 3.061-2.725 4.525-.33.52-.667 1.017-1.004 1.519.153-.368.276-.674.294-.723.441-1.506.416-4.672-1.035-5.664a2.082 2.082 0 0 0-2.97.765c-.612 1.09-.27 2.584.214 3.674.484 1.09 2.12 2.566 2.695 3.062a48.62 48.62 0 0 1-1.096 1.476c-.264.312-.496.612-.778.937l-.808.906c-.533.557-1.084 1.133-1.617 1.666-.367.367-.729.716-1.09 1.065.33-.508.955-1.53.998-1.616a8.059 8.059 0 0 0 .613-4.03c.067-.139.12-.285.159-.434a2.076 2.076 0 0 0-1.61-2.64c-1.734-.275-3.926 2.015-4.636 3.417-.037.08-.392 1.03-.613 1.63.074-.374.147-.736.215-1.115.14-.76.263-1.525.391-2.34l.147-1.224c.062-.398.068-.833.105-1.225.067-.98.085-1.966.08-2.97.66.122 3.061.52 4.176.245 1.114-.276 2.51-.943 3-2.082a2.076 2.076 0 0 0-1.225-2.854c-1.671-.533-4.182 1.396-5.095 2.676-.055.08-.612 1.066-.9 1.617 0-.612 0-1.225-.036-1.837-.08-1.752-.215-3.527-.337-5.297-.037-.54-.074-1.078-.104-1.623.232.049 3.062.582 4.286.27 1.14-.276 2.511-.944 3.007-2.083a2.076 2.076 0 0 0-1.225-2.853c-1.672-.533-4.182 1.402-5.095 2.676a49.813 49.813 0 0 0-1.04 1.892 69.476 69.476 0 0 1-.154-3.552c-.03-1.583.044-3.166.22-4.74.11 0 3.063.613 4.342.276 1.14-.282 2.517-.95 3.007-2.088a2.082 2.082 0 0 0-1.225-2.854c-1.671-.533-4.182 1.403-5.095 2.676-.055.086-.66 1.17-.936 1.697l-.092-.031a26.26 26.26 0 0 1 1.077-4.654c.264-.839.564-1.623.87-2.382.533.165 2.976.875 4.189.722 1.212-.153 2.602-.667 3.215-1.739a2.076 2.076 0 0 0-.87-2.97c-1.604-.716-4.287.931-5.358 2.1a42.89 42.89 0 0 0-.925 1.293c.14-.337.288-.692.429-1.017.539-1.224 1.108-2.29 1.623-3.24.293-.538.569-1.022.832-1.469.613-.11 3.062-.612 4.036-1.286.974-.673 1.996-1.788 2.051-3.025a2.088 2.088 0 0 0-2.143-2.235c-1.751.11-3.399 2.817-3.79 4.335-.031.13-.325 2.248-.288 2.242h.03c-.257.428-.539.888-.833 1.396-.532.943-1.126 2.009-1.69 3.215a36.982 36.982 0 0 0-1.647 3.98 27.019 27.019 0 0 0-1.225 4.673.172.172 0 0 0 0 .055 55.276 55.276 0 0 0-.373-2.027c-.46-1.5-2.23-4.134-3.987-4.158a2.082 2.082 0 0 0-2.033 2.327c.104 1.225 1.225 2.309 2.186 2.933 1.12.698 3.962 1.084 4.189 1.115a36.613 36.613 0 0 0-.343 4.899c0 .955 0 1.916.043 2.878-.08-.441-.153-.827-.172-.882-.459-1.5-2.229-4.127-3.98-4.152a2.076 2.076 0 0 0-2.04 2.327c.111 1.225 1.225 2.303 2.193 2.927.968.625 3.417 1.01 4.06 1.096 0 .374 0 .741.043 1.109.092 1.776.184 3.545.226 5.285v1.837a25.05 25.05 0 0 0-.153-.766c-.459-1.5-2.229-4.127-3.986-4.152a2.076 2.076 0 0 0-2.033 2.327c.104 1.225 1.225 2.303 2.186 2.927.961.625 3.184.974 3.95 1.084 0 .613-.05 1.225-.104 1.837-.043.405-.062.803-.129 1.225-.067.423-.116.802-.171 1.225-.141.76-.282 1.543-.435 2.284-.104.514-.208.998-.319 1.488 0-.612-.042-1.8-.06-1.898-.227-1.556-1.575-4.422-3.308-4.71a2.07 2.07 0 0 0-2.363 1.99c-.086 1.226.832 2.45 1.72 3.228s3.613 1.635 3.944 1.727a115.12 115.12 0 0 1-.551 2.345c-.612 2.572-1.262 4.685-1.72 6.16 0 .056-.032.099-.044.154l1.09.478c0-.092.055-.19.086-.294a114.19 114.19 0 0 0 1.598-6.259c.19-.827.374-1.708.551-2.62.885.03 1.77.01 2.652-.062.429 1.255 2.076 3.227 2.29 3.478-.612.582-1.188 1.14-1.751 1.654a110.733 110.733 0 0 1-4.832 4.194l-.14.11 1.224.533a106.617 106.617 0 0 0 4.489-4.078c.612-.612 1.225-1.225 1.898-1.88.276.196 2.53 1.788 3.797 2.04 1.145.226 2.676.195 3.6-.613a2.076 2.076 0 0 0 .11-3.093c-1.297-1.182-4.384-.483-5.743.294-.086.05-.9.643-1.409 1.03.264-.277.527-.534.796-.815a96.131 96.131 0 0 0 1.611-1.74l.79-.918c.27-.306.514-.661.778-.986.612-.784 1.15-1.598 1.702-2.45.484.466 2.241 2.1 3.35 2.505 1.108.404 2.615.612 3.674-.08a2.082 2.082 0 0 0 .576-3.061c-1.103-1.366-4.287-1.14-5.726-.576-.092 0-1.096.557-1.641.851.324-.502.649-1.004.961-1.525.906-1.506 1.77-3.061 2.64-4.605l.808-1.408c.171.165 2.217 2.155 3.454 2.603 1.102.398 2.614.612 3.674-.08a2.076 2.076 0 0 0 .612-3.062c-1.102-1.366-4.286-1.139-5.725-.576-.11.043-1.556.79-1.917 1.005a224.83 224.83 0 0 1 1.837-3.062 36.952 36.952 0 0 1 2.805-3.834c.08.08 2.198 2.168 3.472 2.627 1.102.399 2.615.613 3.674-.08a2.076 2.076 0 0 0 .576-3.061c-1.103-1.372-4.287-1.145-5.726-.582-.092.037-1.225.613-1.715.894l-.061-.08a27.502 27.502 0 0 1 3.466-3.282 30.503 30.503 0 0 1 2.04-1.506c.354.429 2.002 2.376 3.098 2.915 1.096.539 2.535.882 3.643.318a2.076 2.076 0 0 0 .907-2.951c-.943-1.482-4.11-1.605-5.628-1.225-.08 0-.894.33-1.488.57.312-.203.612-.423.925-.613 1.114-.71 2.186-1.298 3.135-1.837a58.494 58.494 0 0 1 1.513-.76c.563.24 2.872 1.176 4.072 1.152 1.2-.025 2.651-.386 3.38-1.396a2.082 2.082 0 0 0-.545-2.976z"/></g><g><path fill="#fff" d="M9.463 119.023c.031 0 .215-2.113.209-2.248-.043-1.567-1.06-4.568-2.744-5.058a2.076 2.076 0 0 0-2.578 1.709c-.226 1.224.545 2.541 1.335 3.405.93 1.01 3.778 2.192 3.778 2.192z"/></g><g><path fill="#fff" d="M199.735 53.658s.472-7.961-3.282-12.438c-3.754-4.476-9.388-1.17-14.544-2.345-5.156-1.176 1.17-7.502-7.042-12.199-8.212-4.696-14.544.24-15.922 5.402-1.378 5.162-2.112 7.036-6.803 4.899-4.691-2.138-9.149.704-9.149 4.69 0 3.987 1.641 7.036-3.754 6.332-5.395-.704-10.324.704-11.261 2.817-.937 2.113 4.69 2.578-2.817 2.578-7.508 0-11.256 1.409-11.727 2.584-.472 1.176-6.804 1.409-10.319 1.874-3.515.466-4.225 1.176-4.225 1.176h110.227s.233-2.817-3.283-3.754c-3.515-.937-2.578.257-6.099-1.616z"/></g></g><g><g><path fill="#adc7f7" d="M81.83 21.706s.269-4.569-1.88-7.122c-2.15-2.554-5.377-.668-8.329-1.341-2.951-.674.668-4.287-4.03-6.988-4.696-2.7-8.334.135-9.136 3.093-.802 2.958-1.224 4.03-3.894 2.817s-5.242.404-5.242 2.688c0 2.284.937 4.03-2.15 3.631-3.086-.398-5.91.398-6.448 1.611-.539 1.212 2.688 1.476-1.61 1.476-4.3 0-6.449.808-6.737 1.476-.287.667-3.9.808-5.915 1.077-2.015.27-2.419.674-2.419.674h63.166s.129-1.617-1.886-2.15c-2.015-.532-1.476.135-3.49-.942z"/></g><g opacity=".5"><path fill="#fff" d="M81.83 21.706s.269-4.569-1.88-7.122c-2.15-2.554-5.377-.668-8.329-1.341-2.951-.674.668-4.287-4.03-6.988-4.696-2.7-8.334.135-9.136 3.093-.802 2.958-1.224 4.03-3.894 2.817s-5.242.404-5.242 2.688c0 2.284.937 4.03-2.15 3.631-3.086-.398-5.91.398-6.448 1.611-.539 1.212 2.688 1.476-1.61 1.476-4.3 0-6.449.808-6.737 1.476-.287.667-3.9.808-5.915 1.077-2.015.27-2.419.674-2.419.674h63.166s.129-1.617-1.886-2.15c-2.015-.532-1.476.135-3.49-.942z"/></g></g><g><g><path fill="#adc7f7" d="M.75 170.236c-.973-.551.117.44 1.61 1.69a5.97 5.97 0 0 0-1.61-1.69z"/></g><g><path fill="#adc7f7" d="M237.2 170.242a5.97 5.97 0 0 0-1.61 1.69"/></g><g><path fill="#adc7f7" d="M235.595 171.914c-1.837 1.531-4.287 3.46-4.287 3.46l4.354-8.812-4.017 2.694v-2.449l-1.837.735-2.186-12.003-1.837 8.574-1.837-3.675-3.172 3.889-.484-.319-.368-.87 1.225-4.414-1.837 1.965c.379-1.856.484-3.758.312-5.646a34.967 34.967 0 0 0-1.224-5.885s-.931 5.885-.931 7.349a21.434 21.434 0 0 1-.306 3.184l-2.787-4.899-.924 3.436v-4.9l-4.017 1.96.924-2.694-3.71 2.45-1.544-5.64-1.55 4.66-4.941-12.248-.361 10.05-4.018-3.436-2.167.735-.613-2.695-3.705 1.96-.612-4.17-3.423 3.894-3.399-3.925-.312 4.415-3.399-2.694-.22 2.817c-.741-.147-1.488-.282-2.241-.423-3.497-1.562-5.885-2.64-5.885-2.64l4.684 2.45a319.094 319.094 0 0 0-54.568-4.464 321.195 321.195 0 0 0-52.774 4.158l4.09-2.119-5.094 2.29c-1.023.178-2.04.356-3.062.545l-.209-2.59-3.398 2.695-.313-4.416-3.398 3.926-3.387-3.95-.612 4.17-3.71-1.96-.613 2.695-2.168-.735-4.017 3.466-.306-10.055-4.948 12.247-1.55-4.66-1.543 5.64-3.71-2.45.93 2.695-4.023-1.96v4.9l-.925-3.436-2.786 4.9a21.433 21.433 0 0 1-.306-3.185c0-1.476-.931-7.349-.931-7.349a34.967 34.967 0 0 0-1.225 5.885 19.449 19.449 0 0 0 .312 5.646l-1.837-1.965 1.225 4.286c-.423.257-.839.515-1.225.772l-2.81-3.338-1.838 3.675-1.837-8.574-2.168 12.015-1.837-.735v2.45L2.3 166.562l3.907 7.96-.165.387c-.833-.668-2.4-1.923-3.675-2.995a36.485 36.485 0 0 1 2.91 5.248 13.15 13.15 0 0 0-.21 1.09l-1.53-.912 1.415 2.94c.538 19.895 51.108 35.976 113.43 35.976 57.152 0 104.42-13.521 112.283-31.115l2.31-4.794 1.45-3.007-2.45 1.47a44.868 44.868 0 0 1 3.62-6.896z"/></g><g opacity=".5"><g opacity=".5"><path fill="#fff" d="M.75 170.236c-.973-.551.117.44 1.61 1.69a5.97 5.97 0 0 0-1.61-1.69z"/></g><g opacity=".5"><path fill="#fff" d="M237.2 170.242a5.97 5.97 0 0 0-1.61 1.69"/></g><g opacity=".5"><path fill="#fff" d="M235.595 171.914c-1.837 1.531-4.287 3.46-4.287 3.46l4.354-8.812-4.017 2.694v-2.449l-1.837.735-2.186-12.003-1.837 8.574-1.837-3.675-3.172 3.889-.484-.319-.368-.87 1.225-4.414-1.837 1.965c.379-1.856.484-3.758.312-5.646a34.967 34.967 0 0 0-1.224-5.885s-.931 5.885-.931 7.349a21.434 21.434 0 0 1-.306 3.184l-2.787-4.899-.924 3.436v-4.9l-4.017 1.96.924-2.694-3.71 2.45-1.544-5.64-1.55 4.66-4.941-12.248-.361 10.05-4.018-3.436-2.167.735-.613-2.695-3.705 1.96-.612-4.17-3.423 3.894-3.399-3.925-.312 4.415-3.399-2.694-.22 2.817c-.741-.147-1.488-.282-2.241-.423-3.497-1.562-5.885-2.64-5.885-2.64l4.684 2.45a319.094 319.094 0 0 0-54.568-4.464 321.195 321.195 0 0 0-52.774 4.158l4.09-2.119-5.094 2.29c-1.023.178-2.04.356-3.062.545l-.209-2.59-3.398 2.695-.313-4.416-3.398 3.926-3.387-3.95-.612 4.17-3.71-1.96-.613 2.695-2.168-.735-4.017 3.466-.306-10.055-4.948 12.247-1.55-4.66-1.543 5.64-3.71-2.45.93 2.695-4.023-1.96v4.9l-.925-3.436-2.786 4.9a21.433 21.433 0 0 1-.306-3.185c0-1.476-.931-7.349-.931-7.349a34.967 34.967 0 0 0-1.225 5.885 19.449 19.449 0 0 0 .312 5.646l-1.837-1.965 1.225 4.286c-.423.257-.839.515-1.225.772l-2.81-3.338-1.838 3.675-1.837-8.574-2.168 12.015-1.837-.735v2.45L2.3 166.562l3.907 7.96-.165.387c-.833-.668-2.4-1.923-3.675-2.995a36.485 36.485 0 0 1 2.91 5.248 13.15 13.15 0 0 0-.21 1.09l-1.53-.912 1.415 2.94c.538 19.895 51.108 35.976 113.43 35.976 57.152 0 104.42-13.521 112.283-31.115l2.31-4.794 1.45-3.007-2.45 1.47a44.868 44.868 0 0 1 3.62-6.896z"/></g></g></g><g><g opacity=".3"><path d="M75.77 176.06l-2.205-2.571 4.207 2.26v-1.776l2.45 2.088 1.647-2.51s-.172 2.406.93 2.449c1.103.043 3.767-1.317 3.767-1.317l.434.729 2.866-.613 1.164 1.158 1.096-2.45 1.102 2.572v-3.062l2.866 1.286-1.323-2.406 2.205 1.445.661-3.215 1.764 2.89.882-3.374 1.984 2.731 3.968-1.604v2.088l3.307-1.286 1.543-.643 1.984.325 1.984-1.77 4.63-.643-1.103-1.764 3.528 1.121 2.204-2.89.766 1.837.998-2.131 2.204 1.604 3.062-2.088 4.85 3.852 3.968-3.209 2.205 4.979 7.495-.319-.882 2.088 2.866-.483v1.445l1.764-.802 1.323 2.247 2.204-2.247.11 2.271-.771 3.51 1.763-.644.22 1.77 2.45-.961 1.985 2.565 2.204-3.374-.22 2.572 3.747-.802h1.764l-5.511 3.062 3.527-.16-2.866 1.127.882 2.089 3.747-.325-4.85 2.254 3.528.612-6.614 1.286-2.645-.808.882 1.445-3.062-.16 2.45 1.93-5.071-.643 4.409 1.286-5.291.483-1.102 2.248-1.856-2.431s-.44 2.572-1.102 2.572a8.464 8.464 0 0 1-1.764-.319l.22 2.731-1.542-1.126-2.646 3.215-1.543-1.93-2.866 2.891 4.189 1.445-2.646.802 3.527 1.286h-5.29l-.22.968-1.765-.325-1.102.803-1.984-.478-3.062.612-4.63-1.286-13.888-1.445-5.29-.324 2.204-.803-2.866-.802 2.645-.16-4.409-1.769h1.764v-1.127l-1.984-1.445-1.347-.924 2.645.643-.882-1.286 2.468.03-3.154-2.602 5.07-2.407-5.29-.325 6.173-.961-6.173-1.127 1.764-.802h-7.03l2.865-2.088-2.865 1.445-3.307-1.604 2.45 1.929-4.63-.809 1.102 1.77-5.07-1.77-.888 1.44-2.45-2.248-6.173-.16 5.953-1.604h-4.63l4.63-1.286-5.732-.324.661-1.93-2.45 1.452-1.542-.967v1.126l-2.866-1.77-.22.803-4.63-1.445h-1.543l-1.985.483-3.527-1.286h-4.188l4.409-.643-5.922-.661 13.007-.318-3.748-1.77 6.834 2.731-.882-1.604z"/></g><g><path fill="#fff" d="M140.713 172.08s-4.899 2.909-6.889 4.134c-1.99 1.224-5.23 2.602-4.005 3.508 1.225.907 6.89.919 8.88.613 1.99-.306 5.97-.306 8.113-.613 2.144-.306.613-2.755.613-4.286a5.97 5.97 0 0 0-.919-2.909z"/><path fill="none" stroke="#263238" stroke-linecap="round" stroke-linejoin="round" stroke-miterlimit="20" stroke-width=".61" d="M140.713 172.08v0s-4.899 2.909-6.889 4.134c-1.99 1.224-5.23 2.602-4.005 3.508 1.225.907 6.89.919 8.88.613 1.99-.306 5.97-.306 8.113-.613 2.144-.306.613-2.755.613-4.286a5.97 5.97 0 0 0-.919-2.909z"/></g><g><path fill="#adc7f7" d="M129.856 178.71c-.337.367-.398.71 0 1.004 1.225.918 6.89.918 8.88.612 1.99-.306 5.97-.306 8.113-.612 1.225-.178 1.225-1.06 1.041-2.064-1.084.16-3.227.46-7.777 1.145-5.033.76-8.414.343-10.257-.086z"/><path fill="none" stroke="#263238" stroke-linecap="round" stroke-linejoin="round" stroke-miterlimit="20" stroke-width=".61" d="M129.856 178.71c-.337.367-.398.71 0 1.004 1.225.918 6.89.918 8.88.612 1.99-.306 5.97-.306 8.113-.612 1.225-.178 1.225-1.06 1.041-2.064-1.084.16-3.227.46-7.777 1.145-5.033.76-8.414.343-10.257-.086z"/></g><g><path fill="#263238" d="M122.803 52.494s-4.44 3.674-3.674 7.349c.765 3.674 3.674 14.85 3.827 18.218.153 3.368.612 8.114.612 8.114l4.9 1.53s.74-7.042.74-8.101c0-1.06-.153-2.603-.153-2.603s6.277 3.521 7.808 4.287c1.53.765 4.287 3.368 4.287 3.368a43.258 43.258 0 0 0-.919 6.89 23.27 23.27 0 0 1-.765 5.357s-12.248 22.964-14.85 28.016c-2.603 5.052-1.378 7.655-.919 8.42.46.766 13.013 23.117 14.85 28.782 1.837 5.664 2.603 8.573 2.603 8.573s-.766.153-.766.766a11.821 11.821 0 0 1-.153 1.53 6.026 6.026 0 0 0 1.99.613c.766 0 4.746-.153 4.746-.153s-6.124-26.638-7.195-32.609a40.704 40.704 0 0 0-3.98-11.176s20.82-20.208 26.484-25.566c5.665-5.358 9.033-8.42 8.267-14.697-.765-6.277-8.114-14.238-8.114-14.238s-4.72-11.482-9.008-16.38c-4.286-4.9-11.94-6.278-17.299-7.196-5.358-.919-9.976-.93-13.32.906z"/><path fill="none" stroke="#263238" stroke-linecap="round" stroke-linejoin="round" stroke-miterlimit="20" stroke-width=".61" d="M122.803 52.494s-4.44 3.674-3.674 7.349c.765 3.674 3.674 14.85 3.827 18.218.153 3.368.612 8.114.612 8.114v0l4.9 1.53v0s.74-7.042.74-8.101c0-1.06-.153-2.603-.153-2.603v0s6.277 3.521 7.808 4.287c1.53.765 4.287 3.368 4.287 3.368a43.258 43.258 0 0 0-.919 6.89 23.27 23.27 0 0 1-.765 5.357s-12.248 22.964-14.85 28.016c-2.603 5.052-1.378 7.655-.919 8.42.46.766 13.013 23.117 14.85 28.782 1.837 5.664 2.603 8.573 2.603 8.573v0s-.766.153-.766.766a11.821 11.821 0 0 1-.153 1.53 6.026 6.026 0 0 0 1.99.613c.766 0 4.746-.153 4.746-.153v0s-6.124-26.638-7.195-32.609a40.704 40.704 0 0 0-3.98-11.176s20.82-20.208 26.484-25.566c5.665-5.358 9.033-8.42 8.267-14.697-.765-6.277-8.114-14.238-8.114-14.238v0s-4.72-11.482-9.008-16.38c-4.286-4.9-11.94-6.278-17.299-7.196-5.358-.919-9.976-.93-13.32.906z"/></g><g><path fill="#fff" d="M167.53 81.918a49.308 49.308 0 0 0-5.076-6.736s-4.746-11.494-9.033-16.393c-4.286-4.9-11.94-6.277-17.299-7.196-5.358-.918-9.951-.918-13.32.919 0 0-4.439 3.674-3.673 7.348.765 3.675 3.674 14.85 3.827 18.218.153 3.368.612 8.114.612 8.114l4.9 1.531s.74-7.054.74-8.114c0-1.06-.153-2.602-.153-2.602s6.277 3.52 7.808 4.286c1.53.766 4.287 3.368 4.287 3.368a43.258 43.258 0 0 0-.919 6.89v.3c2.192 1.182 6.693 2.51 14.397.312 7.336-2.107 10.992-6.614 12.903-10.245z"/><path fill="none" stroke="#263238" stroke-linecap="round" stroke-linejoin="round" stroke-miterlimit="20" stroke-width=".61" d="M167.53 81.918a49.308 49.308 0 0 0-5.076-6.736s-4.746-11.494-9.033-16.393c-4.286-4.9-11.94-6.277-17.299-7.196-5.358-.918-9.951-.918-13.32.919 0 0-4.439 3.674-3.673 7.348.765 3.675 3.674 14.85 3.827 18.218.153 3.368.612 8.114.612 8.114v0l4.9 1.531v0s.74-7.054.74-8.114c0-1.06-.153-2.602-.153-2.602v0s6.277 3.52 7.808 4.286c1.53.766 4.287 3.368 4.287 3.368a43.258 43.258 0 0 0-.919 6.89v.3c2.192 1.182 6.693 2.51 14.397.312 7.336-2.107 10.992-6.614 12.903-10.245z"/></g><g><path fill="none" stroke="#263238" stroke-linecap="round" stroke-linejoin="round" stroke-miterlimit="20" stroke-width=".61" d="M129.087 76.99v0s-.919.306-1.378-3.062c-.46-3.368-1.225-5.512-2.909-7.808"/></g><g><path fill="#adc7f7" d="M119.827 87.68c.95.134 1.774.73 2.198 1.592.456.93.785 1.916.98 2.933l-.613-.49.735 2.327a37.802 37.802 0 0 0 6.847-4.899c2.816-2.694 4.525-3.184 5.995-3.184 1.47 0 10.643.612 11.745.49 1.102-.123 3.546-1.47 3.913.122s-1.347 2.835-3.435 4.06c-2.089 1.225-6.124.49-7.349.368a10.673 10.673 0 0 0-2.566.122s-5.26 3.79-8.322 8.194c-3.062 4.403-6.479 8.322-8.928 7.71-2.45-.613-5.016-3.791-5.383-3.791s-3.3.122-4.403-2.082a16.583 16.583 0 0 1-1.341-3.301"/></g><g opacity=".2"><path d="M119.827 87.68c.95.134 1.774.73 2.198 1.592.456.93.785 1.916.98 2.933l-.613-.49.735 2.327a37.802 37.802 0 0 0 6.847-4.899c2.816-2.694 4.525-3.184 5.995-3.184 1.47 0 10.643.612 11.745.49 1.102-.123 3.546-1.47 3.913.122s-1.347 2.835-3.435 4.06c-2.089 1.225-6.124.49-7.349.368a10.673 10.673 0 0 0-2.566.122s-5.26 3.79-8.322 8.194c-3.062 4.403-6.479 8.322-8.928 7.71-2.45-.613-5.016-3.791-5.383-3.791s-3.3.122-4.403-2.082a16.583 16.583 0 0 1-1.341-3.301"/></g><g><path fill="none" stroke="#263238" stroke-linecap="round" stroke-linejoin="round" stroke-miterlimit="20" stroke-width=".61" d="M119.827 87.68c.95.134 1.774.73 2.198 1.592.456.93.785 1.916.98 2.933l-.613-.49v0l.735 2.327a37.802 37.802 0 0 0 6.847-4.899c2.816-2.694 4.525-3.184 5.995-3.184 1.47 0 10.643.612 11.745.49 1.102-.123 3.546-1.47 3.913.122s-1.347 2.835-3.435 4.06c-2.089 1.225-6.124.49-7.349.368a10.673 10.673 0 0 0-2.566.122s-5.26 3.79-8.322 8.194c-3.062 4.403-6.479 8.322-8.928 7.71-2.45-.613-5.016-3.791-5.383-3.791s-3.3.122-4.403-2.082a16.583 16.583 0 0 1-1.341-3.301"/></g><g><path fill="#adc7f7" d="M87.53 152.278a45.09 45.09 0 0 0 3.062 4.77 36.35 36.35 0 0 0 4.403 4.9s-2.199 3.545-4.158 6.479c-1.96 2.933-2.566 3.306-1.225 4.158 1.341.85 4.41 5.627 5.75 6.852 1.341 1.225 5.138 1.347 5.138 1.347s2.45-.49 1.96-1.714a2.762 2.762 0 0 0-2.45-1.593c-.612 0-2.198-.122-2.688-.483-.49-.362-3.062-3.185-3.423-4.042-.362-.857 3.3-3.913 5.376-7.214 2.076-3.3 3.92-3.545 2.327-8.438-1.592-4.893-13.092-8.328-14.072-5.022z"/></g><g opacity=".2"><path d="M87.53 152.278a45.09 45.09 0 0 0 3.062 4.77 36.35 36.35 0 0 0 4.403 4.9s-2.199 3.545-4.158 6.479c-1.96 2.933-2.566 3.306-1.225 4.158 1.341.85 4.41 5.627 5.75 6.852 1.341 1.225 5.138 1.347 5.138 1.347s2.45-.49 1.96-1.714a2.762 2.762 0 0 0-2.45-1.593c-.612 0-2.198-.122-2.688-.483-.49-.362-3.062-3.185-3.423-4.042-.362-.857 3.3-3.913 5.376-7.214 2.076-3.3 3.92-3.545 2.327-8.438-1.592-4.893-13.092-8.328-14.072-5.022z"/></g><g><path fill="none" stroke="#263238" stroke-linecap="round" stroke-linejoin="round" stroke-miterlimit="20" stroke-width=".61" d="M87.53 152.278a45.09 45.09 0 0 0 3.062 4.77 36.35 36.35 0 0 0 4.403 4.9s-2.199 3.545-4.158 6.479c-1.96 2.933-2.566 3.306-1.225 4.158 1.341.85 4.41 5.627 5.75 6.852 1.341 1.225 5.138 1.347 5.138 1.347v0s2.45-.49 1.96-1.714a2.762 2.762 0 0 0-2.45-1.593c-.612 0-2.198-.122-2.688-.483-.49-.362-3.062-3.185-3.423-4.042-.362-.857 3.3-3.913 5.376-7.214 2.076-3.3 3.92-3.545 2.327-8.438-1.592-4.893-13.092-8.328-14.072-5.022z"/></g><g><path fill="#adc7f7" d="M94.744 89.532s-1.097 2.933-.368 4.525c.729 1.592 1.715 3.062 1.96 4.9.245 1.836-1.103 14.188-1.837 20.428-.735 6.24-4.403 12.596-6.97 15.31-2.565 2.712-3.177 3.306-3.177 3.306s-7.098 1.837-10.276 5.015-4.403 5.26-7.348 6.124a9.339 9.339 0 0 1-8.574-2.198 36.74 36.74 0 0 1-2.596-2.866c-.227-.282-.337-.435-.337-.435v1.365s-4.042-3.202-4.042-2.449c.068.862.188 1.719.362 2.566 0 0-1.954-2.199-1.954-1.225 0 .974-.122 5.511 0 5.867.123.355-.857-.245-.857.612s.612 3.546 2.933 6.363c2.321 2.816 9.933 6.766 16.92 4.715 6.987-2.052 7.459-10.52 8.928-13.576 1.47-3.056 6.381-4.158 6.381-4.158s.735 7.213 4.158 10.41c3.424 3.196 9.798 5.872 11.372 8.322 1.574 2.45-.484 7.091-.851 7.704-.368.612-3.43 3.545-2.45 4.77.98 1.225 7.098 6.852 9.186 8.193 2.088 1.342 5.015 1.47 5.75 1.715.735.245 7.214.123 7.214-1.47 0-1.592-1.464-2.32-4.036-2.933-2.572-.612-5.015.98-5.989.368-.973-.613-5.382-4.287-5.75-5.512-.367-1.224.49-5.511 3.062-7.703 2.572-2.193 9.186-5.628 8.316-14.801-.87-9.174-3.913-13.705-3.913-13.705s4.287-8.573 9.798-13.472c5.511-4.9 6.736-11.862 6.736-11.862l.612 1.347.49-4.164.729.735.245-2.076s1.592-9.05.122-15.046c-1.47-5.995-3.79-7.96-3.79-7.96l1.347.36-2.94-1.708.368-.49s-2.076-1.47-3.062-1.592c-.986-.123-4.158-.98-4.158-.98s1.709-.361 1.347-.361c-.36 0-3.796-.858-3.796-.858l-1.464-.122s-2.817.367-7.22 3.178a93.454 93.454 0 0 1-10.581 5.524z"/></g><g opacity=".2"><g opacity=".2"><path d="M68.152 154.933c3.368 0 4.593-6.736 10.104-11.635 5.512-4.899 14.085-7.042 18.065-12.86 3.98-5.817 6.124-16.84 7.961-22.351 1.837-5.511-1.837-8.88-2.45-14.39-.612-5.512 1.838-4.9 4.593-6.737 2.756-1.837-2.143-1.53-2.143-1.53s-.833.14-1.837.28c-3.809 2.12-7.698 3.834-7.698 3.834s-1.096 2.934-.367 4.526c.729 1.592 1.715 3.062 1.96 4.899.245 1.837-1.103 14.188-1.837 20.428-.735 6.24-4.403 12.597-6.97 15.31-2.565 2.712-3.177 3.306-3.177 3.306s-7.098 1.838-10.276 5.016-4.403 5.26-7.348 6.123a8.904 8.904 0 0 1-5.322-.257c2.682 3.136 5.217 6.038 6.742 6.038z"/></g><g opacity=".2"><path d="M128.265 111.664l.245-2.076s.337-1.899.557-4.532c-1.016-.925-1.941-1.58-2.45-1.58-1.53 0-8.573-.306-8.573-.306l-2.394.043s1.782 7.305 3.007 7.612c1.224.306 3.98.612 3.98.612s-.918.612 2.45 1.837c.68.236 1.4.335 2.118.294l.313-2.64z"/></g><g opacity=".2"><path d="M114.191 180.412c-2.565-.612-5.015.98-5.989.368-.973-.613-5.382-4.287-5.75-5.512a6.424 6.424 0 0 1 .264-2.939c-1.28-.263-1.697-1.157-1.225-3.331.918-3.98 5.511-8.574 1.225-9.492-4.287-.919-8.88-5.818-11.942-9.186-3.062-3.368-3.674-7.96-6.944-6.607 0 0 .735 7.214 4.158 10.41 3.423 3.197 9.798 5.873 11.372 8.322 1.574 2.45-.484 7.092-.851 7.704-.368.612-3.43 3.546-2.45 4.77.98 1.225 7.097 6.853 9.186 8.194 2.088 1.34 5.015 1.47 5.75 1.714.735.245 7.214.123 7.214-1.47 0-1.591-1.446-2.332-4.018-2.945z"/></g><g opacity=".2"><path d="M77.254 148.48a30.161 30.161 0 0 0-2.058 2.768c-3.062 4.592-6.124 8.573-15.615 6.123-6.436-1.66-9.186-8.947-9.088-13.374-.453-.38-.876-.612-.876-.153 0 .974-.122 5.511 0 5.866.123.356-.857-.244-.857.613s.612 3.545 2.933 6.362c2.321 2.817 9.908 6.822 16.896 4.77 6.546-1.959 7.348-9.534 8.665-12.975z"/></g></g><g><path fill="none" stroke="#263238" stroke-linecap="round" stroke-linejoin="round" stroke-miterlimit="20" stroke-width=".61" d="M94.744 89.532v0s-1.097 2.933-.368 4.525c.729 1.592 1.715 3.062 1.96 4.9.245 1.836-1.103 14.188-1.837 20.428-.735 6.24-4.403 12.596-6.97 15.31-2.565 2.712-3.177 3.306-3.177 3.306v0s-7.098 1.837-10.276 5.015-4.403 5.26-7.348 6.124a9.339 9.339 0 0 1-8.574-2.198 36.74 36.74 0 0 1-2.596-2.866c-.227-.282-.337-.435-.337-.435v1.365s-4.042-3.202-4.042-2.449c.068.862.188 1.719.362 2.566 0 0-1.954-2.199-1.954-1.225 0 .974-.122 5.511 0 5.867.123.355-.857-.245-.857.612s.612 3.546 2.933 6.363c2.321 2.816 9.933 6.766 16.92 4.715 6.987-2.052 7.459-10.52 8.928-13.576 1.47-3.056 6.381-4.158 6.381-4.158v0s.735 7.213 4.158 10.41c3.424 3.196 9.798 5.872 11.372 8.322 1.574 2.45-.484 7.091-.851 7.704-.368.612-3.43 3.545-2.45 4.77.98 1.225 7.098 6.852 9.186 8.193 2.088 1.342 5.015 1.47 5.75 1.715.735.245 7.214.123 7.214-1.47 0-1.592-1.464-2.32-4.036-2.933-2.572-.612-5.015.98-5.989.368-.973-.613-5.382-4.287-5.75-5.512-.367-1.224.49-5.511 3.062-7.703 2.572-2.193 9.186-5.628 8.316-14.801-.87-9.174-3.913-13.705-3.913-13.705v0s4.287-8.573 9.798-13.472c5.511-4.9 6.736-11.862 6.736-11.862v0l.612 1.347v0l.49-4.164v0l.729.735v0l.245-2.076v0s1.592-9.05.122-15.046c-1.47-5.995-3.79-7.96-3.79-7.96v0l1.347.36v0l-2.94-1.708v0l.368-.49v0s-2.076-1.47-3.062-1.592c-.986-.123-4.158-.98-4.158-.98v0s1.709-.361 1.347-.361c-.36 0-3.796-.858-3.796-.858v0l-1.464-.122v0s-2.817.367-7.22 3.178a93.454 93.454 0 0 1-10.581 5.524z"/></g><g><path fill="#263238" d="M94.75 89.526l.122 1.347a40.129 40.129 0 0 0 9.419-3.184c5.138-2.45 8.934-5.016 9.05-6.357.117-1.34-.612-1.592-.612-1.592s-8.812 5.873-12.357 7.581a30.71 30.71 0 0 1-5.622 2.205z"/><path fill="none" stroke="#263238" stroke-linecap="round" stroke-linejoin="round" stroke-miterlimit="20" stroke-width=".61" d="M94.75 89.526v0l.122 1.347a40.129 40.129 0 0 0 9.419-3.184c5.138-2.45 8.934-5.016 9.05-6.357.117-1.34-.612-1.592-.612-1.592v0s-8.812 5.873-12.357 7.581a30.71 30.71 0 0 1-5.622 2.205z"/></g><g><path fill="#adc7f7" d="M107.842 58.824s-2.817 2.817-5.26 3.307c-2.444.49-9.186.368-11.746 5.744-2.56 5.377-.857 14.801.857 17.373 1.715 2.572 1.225 4.287 2.083 4.77.857.484 8.928-2.449 13.576-5.382s5.989-2.933 6.124-4.648c.134-1.715-1.225-2.695-2.199-3.546-.974-.85-1.715-1.592-1.225-1.837.49-.245 3.675-1.347 4.403-2.32.729-.974-.122-3.308-1.224-3.063-1.103.245-5.512 1.593-5.512 1.593s5.383-2.327 6.357-5.873a7.25 7.25 0 0 0-1.709-7.214c-1.225-1.347-3.552-.122-4.525 1.096z"/></g><g opacity=".2"><path d="M90.39 81.89c.258 1.18.695 2.315 1.298 3.362 1.715 2.566 1.225 4.287 2.082 4.77.858.484 7.508-1.94 12.248-4.58a12.604 12.604 0 0 0-1.715 0s-3.674.612-4.899.612-2.45-2.143-2.45-2.143.613 3.062-.612 3.674c-1.224.612-2.45-1.837-4.593-3.98-.507-.527-.962-1.1-1.359-1.715z"/></g><g><path fill="none" stroke="#263238" stroke-linecap="round" stroke-linejoin="round" stroke-miterlimit="20" stroke-width=".61" d="M107.842 58.824s-2.817 2.817-5.26 3.307c-2.444.49-9.186.368-11.746 5.744-2.56 5.377-.857 14.801.857 17.373 1.715 2.572 1.225 4.287 2.083 4.77.857.484 8.928-2.449 13.576-5.382s5.989-2.933 6.124-4.648c.134-1.715-1.225-2.695-2.199-3.546-.974-.85-1.715-1.592-1.225-1.837.49-.245 3.675-1.347 4.403-2.32.729-.974-.122-3.308-1.224-3.063-1.103.245-5.512 1.593-5.512 1.593v0s5.383-2.327 6.357-5.873a7.25 7.25 0 0 0-1.709-7.214c-1.225-1.347-3.552-.122-4.525 1.096z"/></g><g><path fill="#263238" d="M102.334 63.47l-.857.49s-.735 1.592 0 1.225c.734-.368 1.592.122.857-1.715z"/></g><g><path fill="none" stroke="#263238" stroke-linecap="round" stroke-linejoin="round" stroke-miterlimit="20" stroke-width=".61" d="M93.157 67.87v0s5.138-.612 5.511 1.348c.374 1.96-.367 5.75.729 6.975 1.096 1.224 2.94 3.178 1.47 3.3-1.47.123-5.138-1.47-7.349-3.061-2.21-1.593-1.96.122-1.96.122v0s1.225 1.225 2.45 1.341"/></g><g><path fill="none" stroke="#263238" stroke-linecap="round" stroke-linejoin="round" stroke-miterlimit="20" stroke-width=".61" d="M110.033 74.61a6.4 6.4 0 0 0-1.953 2.554"/></g><g><path fill="none" stroke="#263238" stroke-linecap="round" stroke-linejoin="round" stroke-miterlimit="20" stroke-width=".61" d="M107.717 70.81v0s-2.082.98-1.837 2.81c.094.92.3 1.825.612 2.695"/></g><g><path fill="#263238" d="M105.882 73.63a13.423 13.423 0 0 1 4.036-1.709c2.204-.49 3.306-1.837 3.306-2.694s-4.041 1.102-4.041 1.102-3.546.98-3.3 3.301z"/><path fill="none" stroke="#263238" stroke-linecap="round" stroke-linejoin="round" stroke-miterlimit="20" stroke-width=".61" d="M105.882 73.63a13.423 13.423 0 0 1 4.036-1.709c2.204-.49 3.306-1.837 3.306-2.694s-4.041 1.102-4.041 1.102v0s-3.546.98-3.3 3.301z"/></g><g><path fill="#263238" d="M112.237 60.784c.437-.585.772-1.24.992-1.936a8.8 8.8 0 0 0-.87-1.12c-.643-.704-1.58-.704-2.449-.374.066.24.202.453.392.613 1.2 1.224 1.078 3.919 1.935 2.817z"/><path fill="none" stroke="#263238" stroke-linecap="round" stroke-linejoin="round" stroke-miterlimit="20" stroke-width=".61" d="M112.237 60.784c.437-.585.772-1.24.992-1.936a8.8 8.8 0 0 0-.87-1.12c-.643-.704-1.58-.704-2.449-.374.066.24.202.453.392.613 1.2 1.224 1.078 3.919 1.935 2.817z"/></g><g><path fill="#adc7f7" d="M124.35 91a2.915 2.915 0 0 1 2.205 1.586c.455.932.785 1.92.98 2.939l-.613-.49.73 2.32a37.398 37.398 0 0 0 6.852-4.898c2.81-2.688 4.525-3.178 5.995-3.178 1.47 0 10.643.612 11.739.49 1.096-.123 3.552-1.47 3.919.122s-1.347 2.81-3.43 4.036c-2.081 1.224-6.123.49-7.348.367a10.741 10.741 0 0 0-2.572.123s-5.26 3.79-8.316 8.193c-3.055 4.403-6.485 8.316-8.928 7.71-2.443-.606-5.015-3.797-5.383-3.797-.367 0-3.3.123-4.403-2.076a16.534 16.534 0 0 1-1.347-3.307"/><path fill="none" stroke="#263238" stroke-linecap="round" stroke-linejoin="round" stroke-miterlimit="20" stroke-width=".61" d="M124.35 91a2.915 2.915 0 0 1 2.205 1.586c.455.932.785 1.92.98 2.939l-.613-.49v0l.73 2.32a37.398 37.398 0 0 0 6.852-4.898c2.81-2.688 4.525-3.178 5.995-3.178 1.47 0 10.643.612 11.739.49 1.096-.123 3.552-1.47 3.919.122s-1.347 2.81-3.43 4.036c-2.081 1.224-6.123.49-7.348.367a10.741 10.741 0 0 0-2.572.123s-5.26 3.79-8.316 8.193c-3.055 4.403-6.485 8.316-8.928 7.71-2.443-.606-5.015-3.797-5.383-3.797-.367 0-3.3.123-4.403-2.076a16.534 16.534 0 0 1-1.347-3.307"/></g><g><path fill="#fff" d="M109.916 139.063s-.612-1.954-1.586-4.403"/><path fill="none" stroke="#263238" stroke-linecap="round" stroke-linejoin="round" stroke-miterlimit="20" stroke-width=".61" d="M109.916 139.063s-.612-1.954-1.586-4.403"/></g><g><path fill="#fff" d="M143.624 65.202l-2.603 18.524s-8.726.306-13.931-.46c-5.205-.765-7.808-2.908-9.033-4.286-1.225-1.378-2.755-2.296-3.674-2.296s-4.134-.153-5.052-.46c-.919-.306-.612 1.225.918 1.531 1.225.318 2.407.78 3.522 1.378 0 0-5.665.46-7.043.46-1.378 0-1.378 1.071-1.378 1.071s-1.071.765-.765 1.53c.306.766 3.368 1.532 5.358 2.144 1.99.613 11.33 1.837 13.626 2.603 2.296.765 7.477 3.074 12.376 3.827 4.899.753 9.644 2.756 11.175.919 1.531-1.837 5.359-23.577 5.665-27.557"/><path fill="none" stroke="#263238" stroke-linecap="round" stroke-linejoin="round" stroke-miterlimit="20" stroke-width=".61" d="M143.624 65.202v0l-2.603 18.524v0s-8.726.306-13.931-.46c-5.205-.765-7.808-2.908-9.033-4.286-1.225-1.378-2.755-2.296-3.674-2.296s-4.134-.153-5.052-.46c-.919-.306-.612 1.225.918 1.531 1.225.318 2.407.78 3.522 1.378 0 0-5.665.46-7.043.46-1.378 0-1.378 1.071-1.378 1.071v0s-1.071.765-.765 1.53c.306.766 3.368 1.532 5.358 2.144 1.99.613 11.33 1.837 13.626 2.603 2.296.765 7.477 3.074 12.376 3.827 4.899.753 9.644 2.756 11.175.919 1.531-1.837 5.359-23.577 5.665-27.557"/></g><g><path fill="none" stroke="#263238" stroke-linecap="round" stroke-linejoin="round" stroke-miterlimit="20" stroke-width=".61" d="M114.383 76.69c-.919 0-4.134-.154-5.052-.46-.919-.306-.612 1.225.918 1.531 1.225.318 2.407.78 3.522 1.378 0 0-5.665.46-7.043.46-1.378 0-1.378 1.07-1.378 1.07v.001s-1.071.765-.765 1.53c.306.766 3.368 1.532 5.358 2.144.95.294 3.589.729 6.326 1.182.542-2.4.888-4.838 1.035-7.293-1.053-.943-2.18-1.543-2.921-1.543z"/></g><g><path fill="none" stroke="#263238" stroke-linecap="round" stroke-linejoin="round" stroke-miterlimit="20" stroke-width=".61" d="M105.33 80.67c1.746.306 3.509.51 5.279.612"/></g><g><path fill="none" stroke="#263238" stroke-linecap="round" stroke-linejoin="round" stroke-miterlimit="20" stroke-width=".61" d="M104.59 82.2s4.103 1.09 5.854.839"/></g><g><path fill="#fff" d="M153.579 169.31s-.153 3.368 0 6.123c.153 2.756-1.684 6.124-2.296 8.114-.613 1.99 1.99 1.072 2.602.766.613-.306 6.277-6.583 7.655-8.727 1.378-2.143 2.578-4.733 2.578-5.958 0-1.225-4.593-3.368-4.593-3.368s-5.487 1.366-5.946 3.05z"/><path fill="none" stroke="#263238" stroke-linecap="round" stroke-linejoin="round" stroke-miterlimit="20" stroke-width=".61" d="M153.579 169.31s-.153 3.368 0 6.123c.153 2.756-1.684 6.124-2.296 8.114-.613 1.99 1.99 1.072 2.602.766.613-.306 6.277-6.583 7.655-8.727 1.378-2.143 2.578-4.733 2.578-5.958 0-1.225-4.593-3.368-4.593-3.368v0s-5.487 1.366-5.946 3.05z"/></g><g><path fill="#adc7f7" d="M164.115 169.623c0-.306-.294-.68-.735-1.053a28.53 28.53 0 0 1-3.857 7.483 36.675 36.675 0 0 1-8.243 8.45c.46.644 2.107.05 2.578-.183.612-.306 6.277-6.583 7.655-8.726 1.378-2.143 2.602-4.746 2.602-5.97z"/><path fill="none" stroke="#263238" stroke-linecap="round" stroke-linejoin="round" stroke-miterlimit="20" stroke-width=".61" d="M164.115 169.623c0-.306-.294-.68-.735-1.053a28.53 28.53 0 0 1-3.857 7.483 36.675 36.675 0 0 1-8.243 8.45c.46.644 2.107.05 2.578-.183.612-.306 6.277-6.583 7.655-8.726 1.378-2.143 2.602-4.746 2.602-5.97z"/></g><g><path fill="#263238" d="M168.584 85.26s5.205 7.808 4.133 15.003-9.032 12.554-15.31 17.3c-6.276 4.745-19.595 13.472-19.595 13.472s7.042 6.736 9.185 13.778c2.144 7.042 13.166 21.74 13.166 21.74s-2.449 1.683-3.674 2.296c-.938.436-1.911.794-2.909 1.071 0 0-2.755-4.746-2.908-5.205-.153-.46-9.033-10.104-13.932-17.759-4.899-7.654-11.2-16.687-11.2-18.97 0-2.285 3.674-6.89 8.726-12.86 5.052-5.971 24.801-18.831 30.925-21.74"/><path fill="none" stroke="#263238" stroke-linecap="round" stroke-linejoin="round" stroke-miterlimit="20" stroke-width=".61" d="M168.584 85.26v0s5.205 7.808 4.133 15.003-9.032 12.554-15.31 17.3c-6.276 4.745-19.595 13.472-19.595 13.472v0s7.042 6.736 9.185 13.778c2.144 7.042 13.166 21.74 13.166 21.74v0s-2.449 1.683-3.674 2.296c-.938.436-1.911.794-2.909 1.071 0 0-2.755-4.746-2.908-5.205-.153-.46-9.033-10.104-13.932-17.759-4.899-7.654-11.2-16.687-11.2-18.97 0-2.285 3.674-6.89 8.726-12.86 5.052-5.971 24.801-18.831 30.925-21.74"/></g><g><path fill="none" stroke="#fff" stroke-linecap="round" stroke-linejoin="round" stroke-miterlimit="20" stroke-width=".61" d="M138.396 149.305c-3.876-6.124-10.986-17.545-11.953-19.866-1.335-3.208 8.028-19.534 36.669-34.519"/></g><g><path fill="none" stroke="#fff" stroke-linecap="round" stroke-linejoin="round" stroke-miterlimit="20" stroke-width=".61" d="M140.875 153.259l-1.035-1.629"/></g><g><path fill="none" stroke="#fff" stroke-linecap="round" stroke-linejoin="round" stroke-miterlimit="20" stroke-width=".61" d="M151.32 101.603s-3.712-2.86-4.82-5.083"/></g><g><path fill="none" stroke="#fff" stroke-linecap="round" stroke-linejoin="round" stroke-miterlimit="20" stroke-width=".61" d="M160.44 94.376s4.287-2.677 8.028-2.946"/></g><g><path fill="#fff" d="M127.24 58.786s2.602 4.593 4.286 6.277c1.684 1.684 3.675-.612 4.44-4.133.766-3.522 1.072-6.124-.46-8.42-1.53-2.297-4.745-.92-7.041 1.837-2.297 2.755-1.225 4.44-1.225 4.44z"/><path fill="none" stroke="#263238" stroke-linecap="round" stroke-linejoin="round" stroke-miterlimit="20" stroke-width=".61" d="M127.24 58.786v0s2.602 4.593 4.286 6.277c1.684 1.684 3.675-.612 4.44-4.133.766-3.522 1.072-6.124-.46-8.42-1.53-2.297-4.745-.92-7.041 1.837-2.297 2.755-1.225 4.44-1.225 4.44z"/></g><g><path fill="#fff" d="M127.99 58.008s2.296 1.837 3.062 3.674c.765 1.837 2.296 1.99 2.909-.46.612-2.449.177-5.431-.754-8.456-.93-3.025-5.217 5.242-5.217 5.242z"/><path fill="none" stroke="#263238" stroke-linecap="round" stroke-linejoin="round" stroke-miterlimit="20" stroke-width=".61" d="M127.99 58.008v0s2.296 1.837 3.062 3.674c.765 1.837 2.296 1.99 2.909-.46.612-2.449.177-5.431-.754-8.456-.93-3.025-5.217 5.242-5.217 5.242z"/></g><g transform="rotate(-14.13 125.5 43.5)"><path fill="#fff" d="M125.012 59.966c5.26 0 9.523-7.424 9.523-16.583 0-9.159-4.264-16.583-9.523-16.583-5.259 0-9.522 7.424-9.522 16.583 0 9.159 4.263 16.583 9.522 16.583z"/><path fill="none" stroke="#263238" stroke-linecap="round" stroke-linejoin="round" stroke-miterlimit="20" stroke-width=".61" d="M125.012 59.966c5.26 0 9.523-7.424 9.523-16.583 0-9.159-4.264-16.583-9.523-16.583-5.259 0-9.522 7.424-9.522 16.583 0 9.159 4.263 16.583 9.522 16.583z"/></g><g><path fill="none" stroke="#263238" stroke-linecap="round" stroke-linejoin="round" stroke-miterlimit="20" stroke-width=".61" d="M119.82 49.22v0s1.225 1.715 1.225 2.915c0 .349-.429 1.72-.447 1.978-.001.137.044.271.128.38a1.225 1.225 0 0 0 1.837.06l.686-.703v0"/></g><g><path fill="none" stroke="#263238" stroke-linecap="round" stroke-linejoin="round" stroke-miterlimit="20" stroke-width=".61" d="M123.65 56.298s2.058.342 2.743-2.058"/></g><g><path fill="none" stroke="#263238" stroke-linecap="round" stroke-linejoin="round" stroke-miterlimit="20" stroke-width=".61" d="M121.65 46.802a2.682 2.682 0 0 1 3.233-.343"/></g><g><path fill="none" stroke="#263238" stroke-linecap="round" stroke-linejoin="round" stroke-miterlimit="20" stroke-width=".61" d="M118.68 48.074a1.066 1.066 0 0 0-1.366 1.109"/></g><g><path fill="none" stroke="#263238" stroke-linecap="round" stroke-linejoin="round" stroke-miterlimit="20" stroke-width=".61" d="M122.87 49.766a1.837 1.837 0 0 1 1.923-.667"/></g><g><path fill="none" stroke="#263238" stroke-linecap="round" stroke-linejoin="round" stroke-miterlimit="20" stroke-width=".61" d="M120.025 50.873a1.047 1.047 0 0 0-1.225.735"/></g><g><path fill="#263238" d="M176.543 70.61c-1.022-8.977-5.72-5.51-6.534-9.387-.814-3.876 3.264-8.371-1.837-12.247-5.1-3.877-12.86-2.86-18.573-3.877a9.07 9.07 0 0 1-1.463-.404c-5.88-7.19-10.784-18.175-21.403-18.371-8.322-.16-15.395 4.41-13.062 11.151-1.071 1.91-2.645 5.67-.9 9.155a19.461 19.461 0 0 0 1.72 2.756c1.079.612 2.34 1.384 3.418 2.057a28.12 28.12 0 0 1-2.958-11.445c.26.396.544.774.851 1.133 3.503 4.128 9.308 5.897 13.877 6.65 1.188.999 2.994 2.805 3.551 4.991.852 3.356.65 7.232 6.16 8.047 5.512.814 8.574-4.69 11.434-2.241a9.186 9.186 0 0 1 2.413 2.933c.37.983.674 1.99.912 3.013.116.612.227 1.273.35 2.014.159.905.395 1.794.703 2.658 1.047 4.434 2.566 8.96 6.436 10.202 5.107 1.623 15.953.208 14.905-8.787z"/></g><g><path fill="none" stroke="#fff" stroke-linecap="round" stroke-linejoin="round" stroke-miterlimit="20" stroke-width=".61" d="M140.395 46.385c-3.062.428-7.318.765-11.213-.062a22.75 22.75 0 0 1-10.612-5.297s3.472-4.084 19.186 1.427"/></g><g><path fill="none" stroke="#fff" stroke-linecap="round" stroke-linejoin="round" stroke-miterlimit="20" stroke-width=".61" d="M144.692 45.71a18.61 18.61 0 0 0-1.892.293"/></g><g><path fill="none" stroke="#fff" stroke-linecap="round" stroke-linejoin="round" stroke-miterlimit="20" stroke-width=".61" d="M169.972 70.92c.305.449.461.982.447 1.525"/></g><g><path fill="none" stroke="#fff" stroke-linecap="round" stroke-linejoin="round" stroke-miterlimit="20" stroke-width=".61" d="M144.05 57.242c5.401-1.335 9.186-6.583 13.3-4.795 4.698 2.04 1.434 9.59 2.658 13.675.717 2.394 4.17 2.541 6.908 3.202"/></g><g><path fill="none" stroke="#fff" stroke-linecap="round" stroke-linejoin="round" stroke-miterlimit="20" stroke-width=".61" d="M135.71 48.38s-.814 9.186 5.922 9.186"/></g><g><path fill="none" stroke="#fff" stroke-linecap="round" stroke-linejoin="round" stroke-miterlimit="20" stroke-width=".61" d="M145.13 49.39v0s2.45 2.652 8.573 1.017c6.124-1.635 12.456-1.225 13.27 4.899.815 6.123-4.286 7.96-1.427 11.432"/></g><g><path fill="none" stroke="#fff" stroke-linecap="round" stroke-linejoin="round" stroke-miterlimit="20" stroke-width=".61" d="M116.346 37.755v0s-.612-6.944 10.618-4.084c11.231 2.86 17.551 9.596 18.163 9.81"/></g></g></g></g></svg>