<svg xmlns="http://www.w3.org/2000/svg" width="141" height="119" viewBox="0 0 141 119"><g><g><g><g><path fill="#adc7f7" d="M135.424 57.717c.702-9.31-1.465-19.02-4.365-27.7C126.749 17.141 118.38 3.94 104.29.893 96.165-.865 87.9 1.018 80.933 5.42c-6.7 4.234-11.926 9.703-20.158 10.764-8.331 1.072-16.881.623-25.256.623C14.004 16.808-3.485 39.43.884 62.99 5.252 86.55 25.847 102.9 43.32 102.9c15.703 0 28.62-9.422 43.534-11.951 7.396-1.247 14.824.23 22.138-1.65 8.506-2.182 16.507-7.396 21.219-14.944 3.211-5.136 4.773-10.807 5.213-16.638z"/></g><g opacity=".7"><path fill="#fff" d="M135.424 57.717c.702-9.31-1.465-19.02-4.365-27.7C126.749 17.141 118.38 3.94 104.29.893 96.165-.865 87.9 1.018 80.933 5.42c-6.7 4.234-11.926 9.703-20.158 10.764-8.331 1.072-16.881.623-25.256.623C14.004 16.808-3.485 39.43.884 62.99 5.252 86.55 25.847 102.9 43.32 102.9c15.703 0 28.62-9.422 43.534-11.951 7.396-1.247 14.824.23 22.138-1.65 8.506-2.182 16.507-7.396 21.219-14.944 3.211-5.136 4.773-10.807 5.213-16.638z"/></g></g><g><g><path fill="none" stroke="#263238" stroke-miterlimit="20" stroke-width=".7" d="M45.93 23.02v0h22.952v31.82H45.93v0z"/></g><g><path fill="none" stroke="#263238" stroke-miterlimit="20" stroke-width=".7" d="M48.75 26.94v0h17.308v23.996H48.75v0z"/></g><g><path fill="none" stroke="#263238" stroke-miterlimit="20" stroke-width=".7" d="M94.96 39.46v0h15.992v22.17H94.96v0z"/></g><g><path fill="none" stroke="#263238" stroke-miterlimit="20" stroke-width=".7" d="M96.93 42.18v0h12.06v16.719H96.93v0z"/></g></g><g><g><path fill="#263238" d="M131.479 81.433s.312-1.11.312-1.182c.118-.842-.15-2.538-1.007-2.953a1.126 1.126 0 0 0-1.531.68c-.231.624.059 1.406.405 1.94.405.623 1.818 1.515 1.82 1.515z"/></g><g><path fill="#263238" d="M114.577 81.072c.683.312 2.355.262 2.358.262.003 0-.362-1.094-.393-1.16-.365-.767-1.525-2.033-2.47-1.905a1.122 1.122 0 0 0-.9 1.41c.155.654.826 1.14 1.405 1.393z"/></g><g><path fill="#263238" d="M117.165 77.682h.015c-.037.268-.075.555-.109.873a27.758 27.758 0 0 0-.134 1.965 19.99 19.99 0 0 0 .056 2.335c.068.87.213 1.731.434 2.575v.029c-.15-.234-.593-.88-.624-.936-.558-.642-2.008-1.559-2.884-1.188a1.126 1.126 0 0 0-.499 1.603c.312.586 1.098.88 1.724.97.708.102 2.202-.312 2.32-.365.244.85.546 1.684.904 2.494.203.474.424.936.655 1.416-.137-.2-.262-.374-.28-.4-.556-.642-2.009-1.558-2.885-1.184a1.126 1.126 0 0 0-.495 1.618c.311.59 1.097.88 1.727.973.63.093 1.914-.253 2.251-.346.09.178.178.358.268.54.43.857.867 1.714 1.266 2.565.14.312.268.602.4.905-.122-.178-.225-.312-.244-.347-.555-.642-2.008-1.559-2.884-1.184a1.126 1.126 0 0 0-.499 1.6c.312.588 1.098.878 1.727.969.63.09 1.79-.215 2.183-.328.122.312.246.624.352.936.066.212.147.411.2.624.053.212.118.424.178.623.096.409.202.826.287 1.226.062.277.115.542.168.81a24.164 24.164 0 0 0-.446-.935c-.452-.717-1.75-1.843-2.672-1.61a1.129 1.129 0 0 0-.736 1.507c.23.624.951 1.038 1.559 1.222.667.206 2.148.019 2.332 0 .09.443.172.873.244 1.282.224 1.281.37 2.376.47 3.186h.64a58.055 58.055 0 0 0-.555-3.29 35.08 35.08 0 0 0-.312-1.418c.445-.182.88-.39 1.3-.624.486.527 1.737 1.145 1.896 1.223-.169.418-.337.823-.502 1.2a58.558 58.558 0 0 1-1.357 2.897h.736c.33-.711.74-1.615 1.173-2.675.174-.424.352-.88.53-1.35.18.037 1.643.333 2.326.18.623-.14 1.369-.49 1.646-1.103a1.126 1.126 0 0 0-.624-1.56c-.9-.311-2.279.724-2.784 1.407-.028.04-.312.514-.47.817.07-.194.143-.38.214-.58.144-.39.275-.786.418-1.213l.19-.624c.063-.206.113-.436.169-.658.124-.514.221-1.044.312-1.577.343.124 1.559.551 2.207.508.649-.044 1.428-.278 1.793-.842a1.126 1.126 0 0 0-.377-1.63c-.845-.437-2.364.367-2.966.966-.037.037-.42.514-.623.782.05-.311.103-.642.143-.97.116-.935.206-1.901.312-2.859.028-.293.06-.583.09-.876.122.047 1.56.586 2.283.537.624-.044 1.428-.278 1.796-.84a1.126 1.126 0 0 0-.38-1.633c-.845-.437-2.36.368-2.966.967-.043.046-.595.735-.726.916.068-.642.14-1.281.24-1.911.127-.849.31-1.689.549-2.513.056.022 1.559.592 2.295.54.623-.044 1.428-.275 1.792-.84a1.129 1.129 0 0 0-.377-1.633c-.845-.437-2.363.368-2.965.97-.04.037-.459.56-.655.816l-.047-.025c.262-.823.596-1.621.998-2.385.215-.424.446-.817.68-1.194.271.134 1.512.739 2.182.764.67.025 1.45-.119 1.871-.64a1.122 1.122 0 0 0-.196-1.661c-.795-.527-2.389.106-3.056.623-.034.028-.37.362-.623.608.109-.168.215-.346.311-.505a25.241 25.241 0 0 1 1.737-2.292c.337 0 1.68-.046 2.27-.311.59-.266 1.247-.774 1.372-1.432a1.129 1.129 0 0 0-.935-1.387c-.936-.1-2.07 1.197-2.417 1.974-.031.065-.377 1.169-.359 1.169h.02a26.99 26.99 0 0 0-1.768 2.226c-.455.634-.871 1.294-1.248 1.977a14.788 14.788 0 0 0-1.06 2.388v.028c0-.277 0-1.057-.016-1.116-.109-.845-.813-2.407-1.749-2.582a1.126 1.126 0 0 0-1.3 1.06c-.056.67.43 1.341.904 1.762.533.477 2.017.936 2.133.976-.265.847-.474 1.71-.624 2.585a31.18 31.18 0 0 0-.237 1.543v-.486c-.109-.845-.817-2.407-1.752-2.582a1.126 1.126 0 0 0-1.297 1.06c-.056.67.43 1.341.904 1.762.474.421 1.734.848 2.067.957l-.075.596c-.112.954-.224 1.908-.358 2.84-.05.328-.11.649-.165.973v-.424c-.11-.842-.817-2.407-1.753-2.578a1.122 1.122 0 0 0-1.297 1.06c-.056.667.43 1.337.904 1.761.474.424 1.612.808 2.008.936-.068.327-.137.658-.218.973-.062.212-.106.42-.18.623-.075.203-.135.421-.2.624-.144.393-.29.798-.44 1.179-.1.265-.203.514-.312.767.05-.312.138-.967.138-1.02a4.365 4.365 0 0 0-.587-2.13 1.09 1.09 0 0 0-.015-.246 1.122 1.122 0 0 0-1.375-.957c-.92.246-1.503 1.87-1.56 2.71 0 .05.029.595.057.935-.047-.2-.09-.393-.14-.599-.097-.408-.203-.81-.312-1.247l-.19-.624c-.063-.206-.15-.427-.225-.642-.18-.499-.39-.995-.624-1.487.356-.088 1.619-.409 2.124-.795.505-.387 1.038-1.02 1.032-1.69a1.126 1.126 0 0 0-1.216-1.154c-.936.103-1.768 1.609-1.94 2.441 0 .053-.065.664-.09 1.001-.137-.296-.268-.592-.415-.888-.424-.852-.879-1.7-1.328-2.548l-.408-.783c.127-.028 1.633-.377 2.2-.813.503-.387 1.036-1.017 1.033-1.69a1.129 1.129 0 0 0-1.216-1.154c-.936.103-1.768 1.612-1.94 2.445 0 .062-.093.935-.102 1.166a40.31 40.31 0 0 1-.855-1.728 20.296 20.296 0 0 1-.935-2.397c.06 0 1.634-.372 2.214-.817.505-.387 1.038-1.02 1.032-1.69a1.126 1.126 0 0 0-1.216-1.154c-.936.103-1.768 1.609-1.94 2.441 0 .057-.071.727-.093 1.045h-.053c-.238-.83-.4-1.681-.484-2.541a16.63 16.63 0 0 1-.093-1.372c.312-.035 1.668-.218 2.235-.561.568-.343 1.145-.898 1.213-1.56a1.129 1.129 0 0 0-1.082-1.281c-.954 0-1.933 1.406-2.182 2.217-.016.044-.112.505-.175.845v-.599a25.679 25.679 0 0 1 .184-2.871c.275-.19 1.375-.967 1.715-1.522.34-.555.602-1.325.356-1.952a1.129 1.129 0 0 0-1.56-.624c-.844.437-1.066 2.14-.935 2.978 0 .084.318 1.198.334 1.188z"/></g></g><g><g><path fill="#fff" d="M73.537 104.83H60.226l-9.616 5.192h14.514l8.413-5.192z"/><path fill="none" stroke="#263238" stroke-linecap="round" stroke-linejoin="round" stroke-miterlimit="20" stroke-width=".7" d="M73.537 104.83v0H60.226v0l-9.616 5.192v0h14.514v0l8.413-5.192v0z"/></g><g><path fill="none" stroke="#263238" stroke-linecap="round" stroke-linejoin="round" stroke-miterlimit="20" stroke-width=".7" d="M60.09 106.096h10.062"/></g><g><path fill="none" stroke="#263238" stroke-linecap="round" stroke-linejoin="round" stroke-miterlimit="20" stroke-width=".7" d="M58.54 106.896h10.062"/></g><g><path fill="none" stroke="#263238" stroke-linecap="round" stroke-linejoin="round" stroke-miterlimit="20" stroke-width=".7" d="M57 107.706h10.062"/></g><g><path fill="none" stroke="#263238" stroke-linecap="round" stroke-linejoin="round" stroke-miterlimit="20" stroke-width=".7" d="M55.45 108.516h10.062"/></g><g><path fill="#fff" d="M50.61 110.03v.895h14.817l-.303-.895H50.61z"/><path fill="none" stroke="#263238" stroke-linecap="round" stroke-linejoin="round" stroke-miterlimit="20" stroke-width=".7" d="M50.61 110.03v.895h14.817v0l-.303-.895v0H50.61v0z"/></g><g><path fill="#fff" d="M65.422 110.916l8.5-5.322-.39-.764-8.412 5.192.302.894z"/><path fill="none" stroke="#263238" stroke-linecap="round" stroke-linejoin="round" stroke-miterlimit="20" stroke-width=".7" d="M65.422 110.916v0l8.5-5.322v0l-.39-.764v0l-8.412 5.192v0l.302.894v0z"/></g><g><path fill="none" stroke="#263238" stroke-linecap="round" stroke-linejoin="round" stroke-miterlimit="20" stroke-width=".7" d="M50.844 109.756a1.122 1.122 0 0 1-.034-.274 1.032 1.032 0 0 1 1.762-.73"/></g><g><path fill="none" stroke="#263238" stroke-linecap="round" stroke-linejoin="round" stroke-miterlimit="20" stroke-width=".7" d="M52.194 109.133a1.032 1.032 0 0 1 1.727-1"/></g><g><path fill="none" stroke="#263238" stroke-linecap="round" stroke-linejoin="round" stroke-miterlimit="20" stroke-width=".7" d="M53.447 108.512a1.035 1.035 0 0 1 1.727-1"/></g><g><path fill="none" stroke="#263238" stroke-linecap="round" stroke-linejoin="round" stroke-miterlimit="20" stroke-width=".7" d="M54.637 107.852a1.035 1.035 0 0 1 1.727-1"/></g><g><path fill="none" stroke="#263238" stroke-linecap="round" stroke-linejoin="round" stroke-miterlimit="20" stroke-width=".7" d="M55.954 107.093a1.032 1.032 0 0 1 1.727-1"/></g><g><path fill="none" stroke="#263238" stroke-linecap="round" stroke-linejoin="round" stroke-miterlimit="20" stroke-width=".7" d="M57.367 106.293a1.032 1.032 0 0 1 1.724-1"/></g><g><path fill="none" stroke="#263238" stroke-linecap="round" stroke-linejoin="round" stroke-miterlimit="20" stroke-width=".7" d="M58.137 105.816a1.032 1.032 0 0 1 1.724-1.004"/></g><g><path fill="#fff" d="M75.317 107.94s1.014 2.233-.667 2.875l9.978 6.404s.97.558 2.204-.552c1.235-1.11.206-3.545-.349-3.854-.555-.308-11.166-4.873-11.166-4.873z"/><path fill="none" stroke="#263238" stroke-linecap="round" stroke-linejoin="round" stroke-miterlimit="20" stroke-width=".7" d="M75.317 107.94v0s1.014 2.233-.667 2.875l9.978 6.404v0s.97.558 2.204-.552c1.235-1.11.206-3.545-.349-3.854-.555-.308-11.166-4.873-11.166-4.873z"/></g><g><path fill="#263238" d="M87.82 102.86l-12.908 4.955 10.327 5.612c.541.372.992.861 1.319 1.431.06.144.106.294.14.446a1.49 1.49 0 0 1-2.223 1.593l-9.825-6.07s-.914 0 .13.782c.868.643 7.534 4.696 9.651 5.943.434.258.962.304 1.434.125l14.085-5.703c.417-.275.7-.713.78-1.207.169-1-.358-1.989-1.282-2.407z"/><path fill="none" stroke="#263238" stroke-linecap="round" stroke-linejoin="round" stroke-miterlimit="20" stroke-width=".7" d="M87.82 102.86v0l-12.908 4.955v0l10.327 5.612c.541.372.992.861 1.319 1.431.06.144.106.294.14.446a1.49 1.49 0 0 1-2.223 1.593l-9.825-6.07v0s-.914 0 .13.782c.868.643 7.534 4.696 9.651 5.943.434.258.962.304 1.434.125l14.085-5.703c.417-.275.7-.713.78-1.207.169-1-.358-1.989-1.282-2.407z"/></g></g><g><g><g><path fill="#adc7f7" d="M16.421 39.895l-1.911-5.46 1.911 2.32-1.503-8.188 2.323 5.868.817-11.465 1.366 10.92 1.503-2.186v2.731L22.7 30.75l-.957 6.416 1.64-1.09-2.594 3.547-4.369.272z"/></g><g><path fill="#263238" d="M22.427 38.54H15.33l1.275 14.33h4.546l1.276-14.33z"/><path fill="none" stroke="#263238" stroke-linecap="round" stroke-linejoin="round" stroke-miterlimit="20" stroke-width=".7" d="M22.427 38.54v0H15.33v0l1.275 14.33v0h4.546v0l1.276-14.33v0z"/></g><g><path fill="#fff" d="M11.56 52.7h24.18v51.22H11.56z"/><path fill="none" stroke="#263238" stroke-linecap="round" stroke-linejoin="round" stroke-miterlimit="20" stroke-width=".7" d="M11.56 52.7v0h24.18v51.22H11.56v0z"/></g><g><path fill="#fff" d="M23.65 52.7h13.417v51.22H23.65z"/><path fill="none" stroke="#263238" stroke-linecap="round" stroke-linejoin="round" stroke-miterlimit="20" stroke-width=".7" d="M23.65 52.7v0h13.417v51.22H23.65v0z"/></g><g><path fill="#263238" d="M23.65 52.7h11.905v51.22H23.65z"/><path fill="none" stroke="#263238" stroke-linecap="round" stroke-linejoin="round" stroke-miterlimit="20" stroke-width=".7" d="M23.65 52.7v0h11.905v51.22H23.65v0z"/></g><g><path fill="#adc7f7" d="M23.65 92.02h10.567v10.49H23.65z"/><path fill="none" stroke="#263238" stroke-linecap="round" stroke-linejoin="round" stroke-miterlimit="20" stroke-width=".7" d="M23.65 92.02v0h10.567v10.49H23.65v0z"/></g><g><path fill="#fff" d="M23.65 92.58h10.567v1.344H23.65z"/><path fill="none" stroke="#263238" stroke-linecap="round" stroke-linejoin="round" stroke-miterlimit="20" stroke-width=".7" d="M23.65 92.58v0h10.567v1.344H23.65v0z"/></g><g><path fill="#fff" d="M23.65 100.3h10.567v1.344H23.65z"/><path fill="none" stroke="#263238" stroke-linecap="round" stroke-linejoin="round" stroke-miterlimit="20" stroke-width=".7" d="M23.65 100.3v0h10.567v1.344H23.65v0z"/></g><g><path fill="none" stroke="#263238" stroke-linecap="round" stroke-linejoin="round" stroke-miterlimit="20" stroke-width=".7" d="M25.656 92.23v13.264"/></g><g><path fill="none" stroke="#263238" stroke-linecap="round" stroke-linejoin="round" stroke-miterlimit="20" stroke-width=".7" d="M29.336 92.23v13.264"/></g><g><path fill="none" stroke="#263238" stroke-linecap="round" stroke-linejoin="round" stroke-miterlimit="20" stroke-width=".7" d="M32.576 92.23v13.264"/></g><g><path fill="#adc7f7" d="M23.65 54.61h10.567v15.422H23.65z"/><path fill="none" stroke="#263238" stroke-linecap="round" stroke-linejoin="round" stroke-miterlimit="20" stroke-width=".7" d="M23.65 54.61v0h10.567v15.422H23.65v0z"/></g><g><path fill="#fff" d="M23.65 55.25h10.567v1.528H23.65z"/><path fill="none" stroke="#263238" stroke-linecap="round" stroke-linejoin="round" stroke-miterlimit="20" stroke-width=".7" d="M23.65 55.25v0h10.567v1.528H23.65v0z"/></g><g><path fill="#fff" d="M23.65 65.14h10.567v1.528H23.65z"/><path fill="none" stroke="#263238" stroke-linecap="round" stroke-linejoin="round" stroke-miterlimit="20" stroke-width=".7" d="M23.65 65.14v0h10.567v1.528H23.65v0z"/></g><g><path fill="none" stroke="#263238" stroke-linecap="round" stroke-linejoin="round" stroke-miterlimit="20" stroke-width=".7" d="M25.656 54.85v15.07"/></g><g><path fill="none" stroke="#263238" stroke-linecap="round" stroke-linejoin="round" stroke-miterlimit="20" stroke-width=".7" d="M29.336 54.85v15.07"/></g><g><path fill="none" stroke="#263238" stroke-linecap="round" stroke-linejoin="round" stroke-miterlimit="20" stroke-width=".7" d="M32.576 54.85v15.07"/></g><g><path fill="#adc7f7" d="M23.65 73.19h10.567v15.422H23.65z"/><path fill="none" stroke="#263238" stroke-linecap="round" stroke-linejoin="round" stroke-miterlimit="20" stroke-width=".7" d="M23.65 73.19v0h10.567v15.422H23.65v0z"/></g><g><path fill="#fff" d="M23.65 73.84h10.567v1.528H23.65z"/><path fill="none" stroke="#263238" stroke-linecap="round" stroke-linejoin="round" stroke-miterlimit="20" stroke-width=".7" d="M23.65 73.84v0h10.567v1.528H23.65v0z"/></g><g><path fill="#fff" d="M23.65 83.73h10.567v1.528H23.65z"/><path fill="none" stroke="#263238" stroke-linecap="round" stroke-linejoin="round" stroke-miterlimit="20" stroke-width=".7" d="M23.65 83.73v0h10.567v1.528H23.65v0z"/></g><g><path fill="none" stroke="#263238" stroke-linecap="round" stroke-linejoin="round" stroke-miterlimit="20" stroke-width=".7" d="M25.656 73.44v15.07"/></g><g><path fill="none" stroke="#263238" stroke-linecap="round" stroke-linejoin="round" stroke-miterlimit="20" stroke-width=".7" d="M29.336 73.44v15.07"/></g><g><path fill="none" stroke="#263238" stroke-linecap="round" stroke-linejoin="round" stroke-miterlimit="20" stroke-width=".7" d="M32.576 73.44v15.07"/></g><g><path fill="#fff" d="M23.65 69.82h12.092v1.752H23.65z"/><path fill="none" stroke="#263238" stroke-linecap="round" stroke-linejoin="round" stroke-miterlimit="20" stroke-width=".7" d="M23.65 69.82v0h12.092v1.752H23.65v0z"/></g><g><path fill="#fff" d="M23.65 88.52h12.092v1.752H23.65z"/><path fill="none" stroke="#263238" stroke-linecap="round" stroke-linejoin="round" stroke-miterlimit="20" stroke-width=".7" d="M23.65 88.52v0h12.092v1.752H23.65v0z"/></g><g><path fill="none" stroke="#263238" stroke-linecap="round" stroke-linejoin="round" stroke-miterlimit="20" stroke-width=".7" d="M35.736 52.7v51.22"/></g><g><path fill="#fff" d="M21.94 52.699v51.22h1.702V54.604h11.883V52.68l-13.585.019z"/><path fill="none" stroke="#263238" stroke-linecap="round" stroke-linejoin="round" stroke-miterlimit="20" stroke-width=".7" d="M21.94 52.699v51.22h1.702v0-49.315 0h11.883v0-1.924 0l-13.585.019v0z"/></g><g><path fill="none" stroke="#263238" stroke-linecap="round" stroke-linejoin="round" stroke-miterlimit="20" stroke-width=".7" d="M23.646 54.605V52.7"/></g></g></g><g><g><path fill="none" stroke="#263238" stroke-linecap="round" stroke-linejoin="round" stroke-miterlimit="20" stroke-width=".7" d="M139.83 103.636H1.62"/></g></g><g><g><path fill="#fff" d="M73.275 82.766H51.667c-2.681-.205-2.844.86-2.844.86l-4.053 20.016h26.678c.14-1.001 2.245-15.803 2.64-18.194.416-2.476-.813-2.682-.813-2.682z"/><path fill="none" stroke="#263238" stroke-linecap="round" stroke-linejoin="round" stroke-miterlimit="20" stroke-width=".7" d="M73.275 82.766v0H51.667c-2.681-.205-2.844.86-2.844.86v0l-4.053 20.016v0h26.678c.14-1.001 2.245-15.803 2.64-18.194.416-2.476-.813-2.682-.813-2.682z"/></g><g><path fill="#263238" d="M73.272 82.77h-.041c-.156 0-.739.156-1.094 1.752-.356 1.597-2.386 15.316-2.947 19.123h2.264c.14-1 2.245-15.802 2.64-18.193.406-2.476-.822-2.682-.822-2.682z"/><path fill="none" stroke="#263238" stroke-linecap="round" stroke-linejoin="round" stroke-miterlimit="20" stroke-width=".7" d="M73.272 82.77v0h-.041c-.156 0-.739.156-1.094 1.752-.356 1.597-2.386 15.316-2.947 19.123h2.264c.14-1 2.245-15.802 2.64-18.193.406-2.476-.822-2.682-.822-2.682z"/></g><g><path fill="#adc7f7" d="M38.238 103.644h25.147c-.13-3.932-.623-18.11-.997-19.868-.43-2.045-1.506-2.367-3.012-2.476-1.506-.109-2.626.28-5.638.28s-5.924-.31-5.924-.31-1.182-.11-1.827-.11c-.646 0-1.076.43-1.937.43a39.19 39.19 0 0 1-4.627-.215c-1.615-.215-3.551.646-3.872 2.26-.281 1.404-.936 16.296-1.101 20.134h3.782z"/><path fill="none" stroke="#263238" stroke-linecap="round" stroke-linejoin="round" stroke-miterlimit="20" stroke-width=".7" d="M38.238 103.644v0h25.147c-.13-3.932-.623-18.11-.997-19.868-.43-2.045-1.506-2.367-3.012-2.476-1.506-.109-2.626.28-5.638.28s-5.924-.31-5.924-.31v0s-1.182-.11-1.827-.11c-.646 0-1.076.43-1.937.43a39.19 39.19 0 0 1-4.627-.215c-1.615-.215-3.551.646-3.872 2.26-.281 1.404-.936 16.296-1.101 20.134h3.782v0z"/></g><g><path fill="none" stroke="#263238" stroke-linecap="round" stroke-linejoin="round" stroke-miterlimit="20" stroke-width=".7" d="M45.5 83.47s.889 4.265 3.374 5.329"/></g><g><path fill="none" stroke="#263238" stroke-linecap="round" stroke-linejoin="round" stroke-miterlimit="20" stroke-width=".7" d="M43.185 82.76s-1.248 2.666.533 6.573"/></g><g><path fill="none" stroke="#263238" stroke-linecap="round" stroke-linejoin="round" stroke-miterlimit="20" stroke-width=".7" d="M57.931 88.27s-2.84 7.28-9.061 10.657"/></g><g><path fill="#fff" d="M46.21 78.781s.215 3.012.536 4.734c.321 1.72 2.152 2.806 4.197 2.151 2.046-.655 2.903-2.042 3.012-3.012.11-.97.106-4.624.106-4.624s-3.233 2.151-7.851.751z"/><path fill="none" stroke="#263238" stroke-linecap="round" stroke-linejoin="round" stroke-miterlimit="20" stroke-width=".7" d="M46.21 78.781s.215 3.012.536 4.734c.321 1.72 2.152 2.806 4.197 2.151 2.046-.655 2.903-2.042 3.012-3.012.11-.97.106-4.624.106-4.624v0s-3.233 2.151-7.851.751z"/></g><g><path fill="#263238" d="M57.245 61.651s.293-.39-.486-1.559c-.78-1.17-2.632-1.949-2.632-1.949l1.17 1.56s-3.312-1.753-4.678-1.753c-1.365 0-4.783.486-4.783.486l1.656.39s-4.09 1.266-4.577 1.85c-.487.582-2.825 2.534-2.339 2.534.487 0 2.922-.39 2.922-.39s-2.435 2.339-2.435 3.312c0 .973 2.142 5.65 2.142 5.65s1.462 2.631 1.948 1.362c.487-1.269-.293-4.284-.193-4.577.1-.293 5.747-.78 7.013-.78s1.072 3.022 1.559 3.508c.486.487 2.837 1.36 3.217 1.36.38 0 1.073-.29 1.073-.68a7.43 7.43 0 0 1 .486-2.438c.39-.976.877-1.852.973-3.022.097-1.169-.583-3.798-.583-3.798h.876s-.866-1.456-2.329-1.066z"/><path fill="none" stroke="#263238" stroke-linecap="round" stroke-linejoin="round" stroke-miterlimit="20" stroke-width=".7" d="M57.245 61.651s.293-.39-.486-1.559c-.78-1.17-2.632-1.949-2.632-1.949v0l1.17 1.56v0s-3.312-1.753-4.678-1.753c-1.365 0-4.783.486-4.783.486v0l1.656.39v0s-4.09 1.266-4.577 1.85c-.487.582-2.825 2.534-2.339 2.534.487 0 2.922-.39 2.922-.39v0s-2.435 2.339-2.435 3.312c0 .973 2.142 5.65 2.142 5.65v0s1.462 2.631 1.948 1.362c.487-1.269-.293-4.284-.193-4.577.1-.293 5.747-.78 7.013-.78s1.072 3.022 1.559 3.508c.486.487 2.837 1.36 3.217 1.36.38 0 1.073-.29 1.073-.68a7.43 7.43 0 0 1 .486-2.438c.39-.976.877-1.852.973-3.022.097-1.169-.583-3.798-.583-3.798v0h.876v0s-.866-1.456-2.329-1.066z"/></g><g><path fill="#fff" d="M43.704 71.096s-.49-1.849-1.366-.583c-.564.817.876 4.09 1.656 4.287.78.197-.29-3.704-.29-3.704z"/><path fill="none" stroke="#263238" stroke-linecap="round" stroke-linejoin="round" stroke-miterlimit="20" stroke-width=".7" d="M43.704 71.096v0s-.49-1.849-1.366-.583c-.564.817.876 4.09 1.656 4.287.78.197-.29-3.704-.29-3.704z"/></g><g><path fill="#fff" d="M43.71 67.398s0 7.113.486 8.865c.487 1.752 2.436 4.384 5.26 4.384 2.825 0 4.774-1.463 5.554-2.532.78-1.07 1.166-3.215 1.166-3.215s.88.683 1.949-.586c1.07-1.269 1.225-3.52.78-3.798-.78-.486-1.656.097-2.046.487l-.78.78s-1.266-.877-1.266-2.046c0-1.17.197-3.312.197-3.312l-.88.584.1-.78s-.196.196-1.365.196c-1.17 0-3.995.194-3.995.194l1.463-1.949s-2.825 1.269-3.798 1.852c-.973.583-2.825.876-2.825.876z"/><path fill="none" stroke="#263238" stroke-linecap="round" stroke-linejoin="round" stroke-miterlimit="20" stroke-width=".7" d="M43.71 67.398v0s0 7.113.486 8.865c.487 1.752 2.436 4.384 5.26 4.384 2.825 0 4.774-1.463 5.554-2.532.78-1.07 1.166-3.215 1.166-3.215v0s.88.683 1.949-.586c1.07-1.269 1.225-3.52.78-3.798-.78-.486-1.656.097-2.046.487l-.78.78v0s-1.266-.877-1.266-2.046c0-1.17.197-3.312.197-3.312v0l-.88.584v0l.1-.78v0s-.196.196-1.365.196c-1.17 0-3.995.194-3.995.194v0l1.463-1.949v0s-2.825 1.269-3.798 1.852c-.973.583-2.825.876-2.825.876z"/></g><g><path fill="#263238" d="M47.365 71.657c0 .527-.209.957-.467.957-.26 0-.468-.43-.468-.957 0-.527.209-.957.468-.957.258 0 .467.43.467.957z"/></g><g><path fill="#263238" d="M51.875 71.797c0 .527-.209.954-.467.954-.26 0-.468-.427-.468-.954 0-.527.209-.957.468-.957.258 0 .467.427.467.957z"/></g><g><path fill="none" stroke="#263238" stroke-linecap="round" stroke-linejoin="round" stroke-miterlimit="20" stroke-width=".7" d="M48.15 73.92s0 1.369 1.696 1.041"/></g><g><path fill="none" stroke="#263238" stroke-linecap="round" stroke-linejoin="round" stroke-miterlimit="20" stroke-width=".7" d="M47.62 76.395s1.369.845 3.261-.065"/></g><g><path fill="none" stroke="#263238" stroke-linecap="round" stroke-linejoin="round" stroke-miterlimit="20" stroke-width=".7" d="M45.21 69.813a1.51 1.51 0 0 1 1.762-.718"/></g><g><path fill="none" stroke="#263238" stroke-linecap="round" stroke-linejoin="round" stroke-miterlimit="20" stroke-width=".7" d="M50.49 69.099s1.559-.456 2.151.589"/></g><g><path fill="#adc7f7" d="M35.742 83.01L31.42 94.912s-2.768 2.01-3.065 2.531c-.745 1.3.225 3.147 1.12 4.11 1.41 1.512 4.275 1.727 5.99.605 1.125-.736 1.786-2.233 2.21-3.464l.455-10.458"/><path fill="none" stroke="#263238" stroke-linecap="round" stroke-linejoin="round" stroke-miterlimit="20" stroke-width=".7" d="M35.742 83.01v0L31.42 94.912v0s-2.768 2.01-3.065 2.531c-.745 1.3.225 3.147 1.12 4.11 1.41 1.512 4.275 1.727 5.99.605 1.125-.736 1.786-2.233 2.21-3.464l.455-10.458v0"/></g><g><path fill="none" stroke="#263238" stroke-linecap="round" stroke-linejoin="round" stroke-miterlimit="20" stroke-width=".7" d="M29.55 95.958s2.217-1.824 5.868.262"/></g><g><path fill="#fff" d="M31.466 96.857l2.928.624s2.806-1.144 3.052.128c.247 1.272-1.652 1.655-2.164 1.655-.511 0-1.78-.127-2.288 0-.509.128-1.145.761-2.289.889 0 0-3.18 1.272-4.453.508-1.272-.764-.255-3.43 1.4-4.324 1.656-.895 3.814.52 3.814.52z"/><path fill="none" stroke="#263238" stroke-linecap="round" stroke-linejoin="round" stroke-miterlimit="20" stroke-width=".7" d="M31.466 96.857v0l2.928.624v0s2.806-1.144 3.052.128c.247 1.272-1.652 1.655-2.164 1.655-.511 0-1.78-.127-2.288 0-.509.128-1.145.761-2.289.889 0 0-3.18 1.272-4.453.508-1.272-.764-.255-3.43 1.4-4.324 1.656-.895 3.814.52 3.814.52z"/></g><g><path fill="#fff" d="M24.943 97.797s-1.247-.742-1.64.203c-.393.945-1.538 3.136-.823 2.94.714-.196 2.463-3.143 2.463-3.143z"/><path fill="none" stroke="#263238" stroke-linecap="round" stroke-linejoin="round" stroke-miterlimit="20" stroke-width=".7" d="M24.943 97.797v0s-1.247-.742-1.64.203c-.393.945-1.538 3.136-.823 2.94.714-.196 2.463-3.143 2.463-3.143z"/></g><g><path fill="#fff" d="M26.886 96.47s-2.052-.222-2.292.38c-.443 1.12-1.016 4.2-.125 4.453.892.252 1.145-1.653 1.653-2.806.296-.66.552-1.336.764-2.027z"/><path fill="none" stroke="#263238" stroke-linecap="round" stroke-linejoin="round" stroke-miterlimit="20" stroke-width=".7" d="M26.886 96.47s-2.052-.222-2.292.38c-.443 1.12-1.016 4.2-.125 4.453.892.252 1.145-1.653 1.653-2.806.296-.66.552-1.336.764-2.027z"/></g><g><path fill="#fff" d="M28.03 95.195s-1.528-.128-2.036.892-.804 5.095-.312 5.095c.493 0 .368.402 1.132-1.247.374-.808.936-3.465.936-3.465z"/><path fill="none" stroke="#263238" stroke-linecap="round" stroke-linejoin="round" stroke-miterlimit="20" stroke-width=".7" d="M28.03 95.195v0s-1.528-.128-2.036.892-.804 5.095-.312 5.095c.493 0 .368.402 1.132-1.247.374-.808.936-3.465.936-3.465v0z"/></g><g><path fill="#fff" d="M31.834 97.197s-2.027-1.728-2.56-2.024c-.533-.296-.895-.418-1.49.118-.596.537-.714 2.442-1.188 3.633-.474 1.191-.954 2.438-.359 2.438.596 0 1.132-.296 1.606-.935.474-.64 1.372-2.978 1.372-2.978"/><path fill="none" stroke="#263238" stroke-linecap="round" stroke-linejoin="round" stroke-miterlimit="20" stroke-width=".7" d="M31.834 97.197v0s-2.027-1.728-2.56-2.024c-.533-.296-.895-.418-1.49.118-.596.537-.714 2.442-1.188 3.633-.474 1.191-.954 2.438-.359 2.438.596 0 1.132-.296 1.606-.935.474-.64 1.372-2.978 1.372-2.978v0"/></g><g><path fill="#fff" d="M28.91 98.629s.714.311 1.727-.359"/><path fill="none" stroke="#263238" stroke-linecap="round" stroke-linejoin="round" stroke-miterlimit="20" stroke-width=".7" d="M28.91 98.629s.714.311 1.727-.359"/></g><g><path fill="#adc7f7" d="M58.87 81.211s2.435-.468 3.617.717S67.07 92 68.255 95.024c1.185 3.024 2.367 5.163 2.043 6.67-.325 1.505-2.807 2.042-4.624 2.15-2.068.122-3.43-1.184-3.43-1.614 0-.43-.755-1.397.645-4.733l-.97-7.1"/><path fill="none" stroke="#263238" stroke-linecap="round" stroke-linejoin="round" stroke-miterlimit="20" stroke-width=".7" d="M58.87 81.211v0s2.435-.468 3.617.717S67.07 92 68.255 95.024c1.185 3.024 2.367 5.163 2.043 6.67-.325 1.505-2.807 2.042-4.624 2.15-2.068.122-3.43-1.184-3.43-1.614 0-.43-.755-1.397.645-4.733l-.97-7.1v0"/></g><g><path fill="#fff" d="M65.225 97.979s-2.045-.889-2.388-.889a2.095 2.095 0 0 0-.477 1.228c0 .683.069 3.48.408 3.617.34.138 1.366-.477 2.049-1.43.683-.955.817-2.324.408-2.526z"/><path fill="none" stroke="#263238" stroke-linecap="round" stroke-linejoin="round" stroke-miterlimit="20" stroke-width=".7" d="M65.225 97.979s-2.045-.889-2.388-.889a2.095 2.095 0 0 0-.477 1.228c0 .683.069 3.48.408 3.617.34.138 1.366-.477 2.049-1.43.683-.955.817-2.324.408-2.526z"/></g><g><path fill="#fff" d="M63.73 94.167l-1.16 9.407.415 1.506.683-1.297 1.228-9.485a.583.583 0 0 0-.511-.643.58.58 0 0 0-.655.512z"/><path fill="none" stroke="#263238" stroke-linecap="round" stroke-linejoin="round" stroke-miterlimit="20" stroke-width=".7" d="M63.73 94.167v0l-1.16 9.407v0l.415 1.506v0l.683-1.297v0l1.228-9.485a.583.583 0 0 0-.511-.643v0a.58.58 0 0 0-.655.512z"/></g><g><path fill="#fff" d="M63.661 103.786l-1.091-.206.408 1.503.683-1.297z"/><path fill="none" stroke="#263238" stroke-linecap="round" stroke-linejoin="round" stroke-miterlimit="20" stroke-width=".7" d="M63.661 103.786v0l-1.091-.206v0l.408 1.503v0l.683-1.297v0z"/></g><g><path fill="#fff" d="M64.378 93.654a.58.58 0 0 0-.648.515l-.15 1.216 1.138.228.172-1.316a.583.583 0 0 0-.512-.643z"/><path fill="none" stroke="#263238" stroke-linecap="round" stroke-linejoin="round" stroke-miterlimit="20" stroke-width=".7" d="M64.378 93.654a.58.58 0 0 0-.648.515l-.15 1.216v0l1.138.228v0l.172-1.316a.583.583 0 0 0-.512-.643z"/></g><g><path fill="#fff" d="M62.844 97.09c-.34 0-1.023.889-1.431 1.366-.409.477-.275 1.5.065 2.32.34.82.48 2.32.889 2.388.408.069.751-.34.751-1.091 0-.752-.137-2.32-.137-2.32"/><path fill="none" stroke="#263238" stroke-linecap="round" stroke-linejoin="round" stroke-miterlimit="20" stroke-width=".7" d="M62.844 97.09c-.34 0-1.023.889-1.431 1.366-.409.477-.275 1.5.065 2.32.34.82.48 2.32.889 2.388.408.069.751-.34.751-1.091 0-.752-.137-2.32-.137-2.32v0"/></g><g><path fill="#fff" d="M67.41 101.94s.48 1.297-.066 1.98-2.323.408-2.663.137c-.34-.271 1.503-.751 2.728-2.117z"/><path fill="none" stroke="#263238" stroke-linecap="round" stroke-linejoin="round" stroke-miterlimit="20" stroke-width=".7" d="M67.41 101.94s.48 1.297-.066 1.98-2.323.408-2.663.137c-.34-.271 1.503-.751 2.728-2.117z"/></g><g><path fill="#fff" d="M67.208 100.71c.37.408.475.991.271 1.503-.34.885-1.559 1.637-2.457 1.774-.898.137-1.637-.343-1.225-.624.411-.28 2.454-1.63 3.411-2.653z"/><path fill="none" stroke="#263238" stroke-linecap="round" stroke-linejoin="round" stroke-miterlimit="20" stroke-width=".7" d="M67.208 100.71c.37.408.475.991.271 1.503-.34.885-1.559 1.637-2.457 1.774-.898.137-1.637-.343-1.225-.624.411-.28 2.454-1.63 3.411-2.653z"/></g><g><path fill="#fff" d="M66.39 99.209s.82.748.82 1.5c0 .75-1.98 2.525-2.933 2.865-.955.34-1.435 0-1.16-.624.274-.623 3.002-3.682 3.002-3.682s-.137-.197.272-.06z"/><path fill="none" stroke="#263238" stroke-linecap="round" stroke-linejoin="round" stroke-miterlimit="20" stroke-width=".7" d="M66.39 99.209s.82.748.82 1.5c0 .75-1.98 2.525-2.933 2.865-.955.34-1.435 0-1.16-.624.274-.623 3.002-3.682 3.002-3.682v0s-.137-.197.272-.06z"/></g><g><path fill="#fff" d="M64.07 99.205s-1.5 2.591-1.705 3.411c-.206.82.546.82 1.023.477.477-.343 2.731-3.071 3.002-3.888.272-.817-.202-1.706-1.091-1.559-.889.147-1.229 1.559-1.229 1.559z"/><path fill="none" stroke="#263238" stroke-linecap="round" stroke-linejoin="round" stroke-miterlimit="20" stroke-width=".7" d="M64.07 99.205v0s-1.5 2.591-1.705 3.411c-.206.82.546.82 1.023.477.477-.343 2.731-3.071 3.002-3.888.272-.817-.202-1.706-1.091-1.559-.889.147-1.229 1.559-1.229 1.559z"/></g></g><g><g><path fill="#fff" d="M118.117 103.625c.443-3.23 2.217-16.176 2.579-18.337.412-2.476-.826-2.682-.826-2.682H98.27c-2.681-.205-2.844.861-2.844.861l-3.947 20.158z"/><path fill="none" stroke="#263238" stroke-linecap="round" stroke-linejoin="round" stroke-miterlimit="20" stroke-width=".7" d="M118.117 103.625c.443-3.23 2.217-16.176 2.579-18.337.412-2.476-.826-2.682-.826-2.682v0H98.27c-2.681-.205-2.844.861-2.844.861v0l-3.947 20.158v0z"/></g><g><path fill="#263238" d="M118.117 103.629c.443-3.23 2.217-16.177 2.58-18.337.41-2.476-.827-2.682-.827-2.682h-.04c-.157 0-.74.156-1.092 1.752-.337 1.513-2.205 14.655-2.878 19.267z"/><path fill="none" stroke="#263238" stroke-linecap="round" stroke-linejoin="round" stroke-miterlimit="20" stroke-width=".7" d="M118.117 103.629c.443-3.23 2.217-16.177 2.58-18.337.41-2.476-.827-2.682-.827-2.682v0h-.04c-.157 0-.74.156-1.092 1.752-.337 1.513-2.205 14.655-2.878 19.267z"/></g><g><path fill="#adc7f7" d="M74.099 103.626c1.646-1.803 6.894-7.54 8.219-8.868a42.345 42.345 0 0 0 2.784-3.084l.452 11.952H110.6c-.029-.162-1.441-9.149-2.632-15.335-1.204-6.236-2.407-12.185-5.114-15.945-2.706-3.76-10.757-7.596-10.757-7.596l-6.919 5.404s-2.03 2.407-2.632 4.739c-.601 2.332-2.107 8.272-2.784 10.601-.624 2.136-8.306 15.84-9.591 18.12z"/><path fill="none" stroke="#263238" stroke-linecap="round" stroke-linejoin="round" stroke-miterlimit="20" stroke-width=".7" d="M74.099 103.626c1.646-1.803 6.894-7.54 8.219-8.868a42.345 42.345 0 0 0 2.784-3.084v0l.452 11.952v0H110.6c-.029-.162-1.441-9.149-2.632-15.335-1.204-6.236-2.407-12.185-5.114-15.945-2.706-3.76-10.757-7.596-10.757-7.596v0l-6.919 5.404v0s-2.03 2.407-2.632 4.739c-.601 2.332-2.107 8.272-2.784 10.601-.624 2.136-8.306 15.84-9.591 18.12z"/></g><g><path fill="none" stroke="#263238" stroke-linecap="round" stroke-linejoin="round" stroke-miterlimit="20" stroke-width=".7" d="M102.37 83.02c1.335 6.38 2.51 12.248 3.742 18.468"/></g><g><path fill="none" stroke="#263238" stroke-linecap="round" stroke-linejoin="round" stroke-miterlimit="20" stroke-width=".7" d="M96.8 84.88c1.032 5.3 1.815 11.175 2.837 16.638"/></g><g><path fill="none" stroke="#263238" stroke-linecap="round" stroke-linejoin="round" stroke-miterlimit="20" stroke-width=".7" d="M90.73 73.41c.848 9.354 1.628 18.733 2.7 28.062"/></g><g><path fill="none" stroke="#263238" stroke-linecap="round" stroke-linejoin="round" stroke-miterlimit="20" stroke-width=".7" d="M85.16 75.94c.935 8.768 1.721 16.984 2.825 25.584"/></g><g><path fill="none" stroke="#263238" stroke-linecap="round" stroke-linejoin="round" stroke-miterlimit="20" stroke-width=".7" d="M83.129 77.8S80.6 89.103 79.25 92.143"/></g><g><path fill="none" stroke="#263238" stroke-linecap="round" stroke-linejoin="round" stroke-miterlimit="20" stroke-width=".7" d="M83.807 86.4s-1.515 6.236-2.697 8.603"/></g><g><path fill="none" stroke="#263238" stroke-linecap="round" stroke-linejoin="round" stroke-miterlimit="20" stroke-width=".7" d="M92.24 68.01l3.879 2.697"/></g><g><path fill="none" stroke="#263238" stroke-linecap="round" stroke-linejoin="round" stroke-miterlimit="20" stroke-width=".7" d="M85.098 91.677L83.82 81.45"/></g><g><path fill="#fff" d="M74.092 103.63c1.56-1.712 6.364-6.963 7.96-8.603a527.022 527.022 0 0 0-5.216-3.377c-2.31 4.484-5.818 10.526-6.666 11.98z"/><path fill="none" stroke="#263238" stroke-linecap="round" stroke-linejoin="round" stroke-miterlimit="20" stroke-width=".7" d="M74.092 103.63c1.56-1.712 6.364-6.963 7.96-8.603a527.022 527.022 0 0 0-5.216-3.377c-2.31 4.484-5.818 10.526-6.666 11.98z"/></g><g><path fill="#fff" d="M75.77 93.63s4.365 3.16 4.74 3.16c.374 0 2.556-2.183 2.706-2.632.15-.45-5.263-4.138-5.575-4.138-.312 0-1.871 2.56-1.871 3.61z"/><path fill="none" stroke="#263238" stroke-linecap="round" stroke-linejoin="round" stroke-miterlimit="20" stroke-width=".7" d="M75.77 93.63s4.365 3.16 4.74 3.16c.374 0 2.556-2.183 2.706-2.632.15-.45-5.263-4.138-5.575-4.138-.312 0-1.871 2.56-1.871 3.61z"/></g><g><path fill="none" stroke="#263238" stroke-linecap="round" stroke-linejoin="round" stroke-miterlimit="20" stroke-width=".7" d="M86.23 72.57v0l.751 7.898v0l1.354-.3v0l-.15-1.73v0"/></g><g><path fill="#fff" d="M83.067 71.44l-.377 3.084 2.784-2.856-2.407-.228z"/><path fill="none" stroke="#263238" stroke-linecap="round" stroke-linejoin="round" stroke-miterlimit="20" stroke-width=".7" d="M83.067 71.44v0l-.377 3.084v0l2.784-2.856v0l-2.407-.228v0z"/></g><g><path fill="#fff" d="M84.648 68.89l-1.578 2.557 4.287 1.655 1.2-3.158-3.91-1.054z"/><path fill="none" stroke="#263238" stroke-linecap="round" stroke-linejoin="round" stroke-miterlimit="20" stroke-width=".7" d="M84.648 68.89v0l-1.578 2.557v0l4.287 1.655v0l1.2-3.158v0l-3.91-1.054v0z"/></g><g><path fill="#fff" d="M73.292 51.587s-.602 3.838-.377 4.59c.224.75 1.203 1.655 1.278 2.332.075.676-1.727 3.005-1.204 3.607.524.602 1.656 1.054 1.656 1.054s2.258 5.943 3.308 6.168c1.051.224 4.44-1.578 4.44-1.578s4.21 3.835 4.437 4.053c.228.219 4.437-8.272 4.437-8.272s-1.87-3.685-1.87-3.913c0-.228 2.934-8.272 2.78-11.506-.152-3.233-9.4-6.392-11.28-6.092-1.88.3-5.865 2.494-5.865 2.494s1.428-1.203.224-1.129c-1.203.075-4.814 2.785-4.661 5.114.152 2.33 2.697 3.078 2.697 3.078z"/><path fill="none" stroke="#263238" stroke-linecap="round" stroke-linejoin="round" stroke-miterlimit="20" stroke-width=".7" d="M73.292 51.587v0s-.602 3.838-.377 4.59c.224.75 1.203 1.655 1.278 2.332.075.676-1.727 3.005-1.204 3.607.524.602 1.656 1.054 1.656 1.054v0s2.258 5.943 3.308 6.168c1.051.224 4.44-1.578 4.44-1.578v0s4.21 3.835 4.437 4.053c.228.219 4.437-8.272 4.437-8.272v0s-1.87-3.685-1.87-3.913c0-.228 2.934-8.272 2.78-11.506-.152-3.233-9.4-6.392-11.28-6.092-1.88.3-5.865 2.494-5.865 2.494v0s1.428-1.203.224-1.129c-1.203.075-4.814 2.785-4.661 5.114.152 2.33 2.697 3.078 2.697 3.078z"/></g><g><path fill="#263238" d="M86.153 63.847c.752-2.104-.904-6.092-.754-6.993.15-.902.904-3.084 2.257-3.084 1.353 0 1.129 2.706.979 3.835a6.956 6.956 0 0 1-.83 2.26s.886-.158 1.588-.268c.171-.676 2.921-8.331 2.775-11.465-.15-3.233-9.401-6.392-11.281-6.092-1.88.299-5.865 2.494-5.865 2.494s1.428-1.203.224-1.129c-1.203.075-4.814 2.785-4.661 5.114.152 2.33 2.706 3.084 2.706 3.084s4.814-2.404 6.548-2.632c1.734-.227-.524 1.656-.677 2.71-.152 1.054 2.495 1.87 3.461 2.781.967.91 1.578 6.694.98 8.048-.6 1.353-3.462.676-4.815.15-1.353-.528-4.137.526-4.137.526s2.257 5.943 3.308 6.168c.577.124 1.849-.362 2.884-.823l1.56-.755s2.996-1.82 3.75-3.929z"/><path fill="none" stroke="#263238" stroke-linecap="round" stroke-linejoin="round" stroke-miterlimit="20" stroke-width=".7" d="M86.153 63.847c.752-2.104-.904-6.092-.754-6.993.15-.902.904-3.084 2.257-3.084 1.353 0 1.129 2.706.979 3.835a6.956 6.956 0 0 1-.83 2.26s.886-.158 1.588-.268c.171-.676 2.921-8.331 2.775-11.465-.15-3.233-9.401-6.392-11.281-6.092-1.88.299-5.865 2.494-5.865 2.494v0s1.428-1.203.224-1.129c-1.203.075-4.814 2.785-4.661 5.114.152 2.33 2.706 3.084 2.706 3.084v0s4.814-2.404 6.548-2.632c1.734-.227-.524 1.656-.677 2.71-.152 1.054 2.495 1.87 3.461 2.781.967.91 1.578 6.694.98 8.048-.6 1.353-3.462.676-4.815.15-1.353-.528-4.137.526-4.137.526v0s2.257 5.943 3.308 6.168c.577.124 1.849-.362 2.884-.823l1.56-.755v0s2.996-1.82 3.75-3.929z"/></g><g><path fill="#263238" d="M76.512 58.352c.119.484.069.91-.112.958-.18.046-.427-.312-.546-.799-.118-.486-.068-.91.113-.957.18-.047.424.312.545.798z"/></g><g><path fill="none" stroke="#7d7d7d" stroke-linecap="round" stroke-linejoin="round" stroke-miterlimit="20" stroke-width=".7" d="M75.77 64.524s1.503 0 2.332-1.204"/></g><g><path fill="none" stroke="#263238" stroke-linecap="round" stroke-linejoin="round" stroke-miterlimit="20" stroke-width=".78" d="M74.57 56.475s.225-1.05 2.105-.312"/></g><g><path fill="#fff" d="M90.958 62.27L85.77 72.422l2.781 3.461 4.74-11.206-2.333-2.407z"/><path fill="none" stroke="#263238" stroke-linecap="round" stroke-linejoin="round" stroke-miterlimit="20" stroke-width=".7" d="M90.958 62.27v0L85.77 72.422v0l2.781 3.461v0l4.74-11.206v0l-2.333-2.407v0z"/></g><g><path fill="#adc7f7" d="M97.054 71.37s-2.332-.311-3.233.378c-.901.689-5.491 11.505-5.491 11.505a7.433 7.433 0 0 1 3.536 2.258c1.428 1.73 2.494 4.814 2.494 4.814s6.093-7.446 7.219-9.102"/><path fill="none" stroke="#263238" stroke-linecap="round" stroke-linejoin="round" stroke-miterlimit="20" stroke-width=".7" d="M97.054 71.37v0s-2.332-.311-3.233.378c-.901.689-5.491 11.505-5.491 11.505a7.433 7.433 0 0 1 3.536 2.258c1.428 1.73 2.494 4.814 2.494 4.814v0s6.093-7.446 7.219-9.102"/></g><g><path fill="none" stroke="#263238" stroke-linecap="round" stroke-linejoin="round" stroke-miterlimit="20" stroke-width=".7" d="M97.469 72.9v0s-2.024.168-2.7 1.35c-.677 1.182-5.909 11.977-5.909 11.977v0l2.183 1.855v0s4.555-9.616 5.905-11.303a6.94 6.94 0 0 1 3.374-2.183"/></g><g><path fill="none" stroke="#263238" stroke-linecap="round" stroke-linejoin="round" stroke-miterlimit="20" stroke-width=".7" d="M100.674 77.96L93.25 88.25"/></g><g><path fill="#fff" d="M87.2 82.73s-2.03 1.278-2.03 2.706 1.805 4.677 3.76 6.236c1.955 1.559 3.686 1.129 4.677.452.992-.677 3.383-1.054 3.533-3.76.15-2.707-3.533-6.62-5.113-7.147-1.581-.527-4.827 1.512-4.827 1.512z"/><path fill="none" stroke="#263238" stroke-linecap="round" stroke-linejoin="round" stroke-miterlimit="20" stroke-width=".7" d="M87.2 82.73v0s-2.03 1.278-2.03 2.706 1.805 4.677 3.76 6.236c1.955 1.559 3.686 1.129 4.677.452.992-.677 3.383-1.054 3.533-3.76.15-2.707-3.533-6.62-5.113-7.147-1.581-.527-4.827 1.512-4.827 1.512z"/></g><g><path fill="#fff" d="M54.114 91.667s-.827.752-1.656 1.354c-.83.601-1.728 1.054-.976 1.43.751.378 1.578.076 2.407-.077.83-.153 1.805-.374 1.87-.976.066-.602-.065-2.401-1.645-1.73z"/><path fill="none" stroke="#263238" stroke-linecap="round" stroke-linejoin="round" stroke-miterlimit="20" stroke-width=".7" d="M54.114 91.667s-.827.752-1.656 1.354c-.83.601-1.728 1.054-.976 1.43.751.378 1.578.076 2.407-.077.83-.153 1.805-.374 1.87-.976.066-.602-.065-2.401-1.645-1.73z"/></g><g><path fill="#fff" d="M92.39 91.376s1.203-2.108.074-4.212c-1.129-2.105-3.311-3.084-4.677-3.084-1.366 0-24.442 6.467-24.442 6.467s-6.994-1.955-7.823-1.653c-.83.303-5.79 3.006-6.92 3.533-1.128.527-1.128 1.204-.601 1.278.527.075 1.87-.374 2.557-.601.686-.228 2.934-1.051 2.934-1.051-.19.54-.34 1.092-.452 1.652 0 .312 2.108 1.432 2.494 1.432.387 0 1.656.224 2.557-.075.901-.3-.374-1.581-.374-1.581l1.578-.677s1.58.827 2.934.752a4.905 4.905 0 0 0 2.104-.527s24.446-.677 28.056-1.653z"/><path fill="none" stroke="#263238" stroke-linecap="round" stroke-linejoin="round" stroke-miterlimit="20" stroke-width=".7" d="M92.39 91.376s1.203-2.108.074-4.212c-1.129-2.105-3.311-3.084-4.677-3.084-1.366 0-24.442 6.467-24.442 6.467v0s-6.994-1.955-7.823-1.653c-.83.303-5.79 3.006-6.92 3.533-1.128.527-1.128 1.204-.601 1.278.527.075 1.87-.374 2.557-.601.686-.228 2.934-1.051 2.934-1.051-.19.54-.34 1.092-.452 1.652 0 .312 2.108 1.432 2.494 1.432.387 0 1.656.224 2.557-.075.901-.3-.374-1.581-.374-1.581v0l1.578-.677v0s1.58.827 2.934.752a4.905 4.905 0 0 0 2.104-.527s24.446-.677 28.056-1.653z"/></g><g><path fill="none" stroke="#263238" stroke-linecap="round" stroke-linejoin="round" stroke-miterlimit="20" stroke-width=".7" d="M54.875 91.38v0s-.976 1.87-.751 2.254c.224.384 2.182 1.431 2.182 1.431v0"/></g><g><path fill="none" stroke="#263238" stroke-linecap="round" stroke-linejoin="round" stroke-miterlimit="20" stroke-width=".7" d="M56.435 91.45v0s-.98 1.87-.677 2.254c.302.384 2.33 1.357 2.33 1.357v0"/></g><g><path fill="none" stroke="#263238" stroke-linecap="round" stroke-linejoin="round" stroke-miterlimit="20" stroke-width=".7" d="M53.511 92.056l.15-.676"/></g></g><g><g><path fill="#fff" d="M51.846 103.42h-25.2l-9.616 5.195h26.4l8.416-5.195z"/><path fill="none" stroke="#263238" stroke-linecap="round" stroke-linejoin="round" stroke-miterlimit="20" stroke-width=".7" d="M51.846 103.42v0h-25.2v0l-9.616 5.195v0h26.4v0l8.416-5.195v0z"/></g><g><path fill="none" stroke="#263238" stroke-linecap="round" stroke-linejoin="round" stroke-miterlimit="20" stroke-width=".7" d="M28.29 104.776h18.605"/></g><g><path fill="none" stroke="#263238" stroke-linecap="round" stroke-linejoin="round" stroke-miterlimit="20" stroke-width=".7" d="M26.94 105.746h18.605"/></g><g><path fill="none" stroke="#263238" stroke-linecap="round" stroke-linejoin="round" stroke-miterlimit="20" stroke-width=".7" d="M25.58 106.716h18.608"/></g><g><path fill="none" stroke="#263238" stroke-linecap="round" stroke-linejoin="round" stroke-miterlimit="20" stroke-width=".7" d="M46.999 104.78l-5.329 2.616"/></g><g><path fill="none" stroke="#263238" stroke-linecap="round" stroke-linejoin="round" stroke-miterlimit="20" stroke-width=".7" d="M44.089 104.78l-5.329 2.616"/></g><g><path fill="#263238" d="M12.52 90.49h26.404l4.505 18.125h-26.4L12.52 90.49z"/><path fill="none" stroke="#263238" stroke-linecap="round" stroke-linejoin="round" stroke-miterlimit="20" stroke-width=".7" d="M12.52 90.49v0h26.404v0l4.505 18.125v0h-26.4v0L12.52 90.49v0z"/></g><g transform="rotate(180 30.5 109)"><path fill="#fff" d="M17.02 108.61h26.404v1.288H17.02z"/><path fill="none" stroke="#263238" stroke-linecap="round" stroke-linejoin="round" stroke-miterlimit="20" stroke-width=".7" d="M17.02 108.61v0h26.404v1.288H17.02v0z"/></g><g><path fill="#fff" d="M12.23 90.49h26.404l4.508 18.125H16.74L12.23 90.49z"/><path fill="none" stroke="#263238" stroke-linecap="round" stroke-linejoin="round" stroke-miterlimit="20" stroke-width=".7" d="M12.23 90.49v0h26.404v0l4.508 18.125v0H16.74v0L12.23 90.49v0z"/></g><g><path fill="#263238" d="M43.43 108.615l8.416-5.195v1.066l-8.416 5.416v-1.287z"/><path fill="none" stroke="#263238" stroke-linecap="round" stroke-linejoin="round" stroke-miterlimit="20" stroke-width=".7" d="M43.43 108.615v0l8.416-5.195v1.066l-8.416 5.416v0-1.287 0z"/></g><g><path fill="none" stroke="#263238" stroke-linecap="round" stroke-linejoin="round" stroke-miterlimit="20" stroke-width=".7" d="M28.829 98.993a1.412 1.412 0 1 1-1.746-1.154c.8-.16 1.58.355 1.746 1.154z"/></g></g></g></g></svg>