<svg xmlns="http://www.w3.org/2000/svg" width="188" height="144" viewBox="0 0 188 144"><g><g><g><g><path fill="#adc7f7" d="M141.707 19.502S123.445-.567 94.532.393c-28.913.96-53.576 20.406-73.966 35.62C.176 51.228-5.289 74.86 6.563 93.308c11.853 18.45 30.742 10.683 54.787 22.658 24.046 11.975 28.614 18.777 55.4 15.865 26.785-2.912 47.175-32.694 44.136-64.42-3.04-31.725-19.179-47.909-19.179-47.909z"/></g><g opacity=".7"><path fill="#fff" d="M141.707 19.502S123.445-.567 94.532.393c-28.913.96-53.576 20.406-73.966 35.62C.176 51.228-5.289 74.86 6.563 93.308c11.853 18.45 30.742 10.683 54.787 22.658 24.046 11.975 28.614 18.777 55.4 15.865 26.785-2.912 47.175-32.694 44.136-64.42-3.04-31.725-19.179-47.909-19.179-47.909z"/></g></g><g><g><path fill="#adc7f7" d="M97.179 143.386c49.849 0 90.259-2.293 90.259-5.123s-40.41-5.123-90.259-5.123c-49.849 0-90.259 2.294-90.259 5.123 0 2.83 40.41 5.123 90.259 5.123z"/></g><g opacity=".3"><path fill="#fff" d="M97.179 143.386c49.849 0 90.259-2.293 90.259-5.123s-40.41-5.123-90.259-5.123c-49.849 0-90.259 2.294-90.259 5.123 0 2.83 40.41 5.123 90.259 5.123z"/></g></g><g><g><path fill="#adc7f7" d="M149.942 64.607c-.028 0 .315-1.697.352-1.82.393-1.21 1.875-3.322 3.306-3.317a1.7 1.7 0 0 1 1.246.596c.311.365.452.845.387 1.32-.105 1.005-1.011 1.856-1.83 2.352-.96.596-3.461.87-3.461.87z"/></g><g><path fill="#adc7f7" d="M147.167 53.177c1.349.482 2.02 2.967 1.975 4.24 0 .11-.256 1.82-.279 1.82h-.027c.105.392.22.815.334 1.275.2.855.42 1.82.59 2.894.196 1.152.324 2.314.384 3.48a21.872 21.872 0 0 1-.133 3.914.136.136 0 0 0 0 .045c.178-.377.704-1.424.755-1.501.704-1.065 2.689-2.73 4.074-2.33.46.14.837.469 1.04.903.202.433.21.932.021 1.372-.365.937-1.463 1.524-2.382 1.784-1.038.295-3.352-.055-3.535-.082a29.422 29.422 0 0 1-.85 3.895 52.437 52.437 0 0 1-.696 2.238c.16-.323.31-.61.334-.65.704-1.065 2.689-2.73 4.074-2.334.46.14.84.467 1.042.901.202.434.21.934.02 1.374-.366.942-1.464 1.524-2.383 1.788-.92.264-2.913 0-3.435-.068-.096.282-.192.568-.292.85-.458 1.366-.952 2.73-1.372 4.068-.151.455-.284.947-.416 1.42.146-.287.27-.528.292-.56.7-1.064 2.69-2.73 4.07-2.334.46.141.837.469 1.04.902.203.434.213.933.026 1.373-.366.937-1.468 1.524-2.387 1.784-.92.26-2.717.032-3.339-.055-.123.492-.242.979-.338 1.456-.06.328-.137.642-.178.974-.042.332-.092.655-.138.974-.064.623-.137 1.27-.183 1.879-.036.423-.064.828-.091 1.233.142-.455.457-1.392.48-1.47a6.608 6.608 0 0 1 2.195-2.484 1.75 1.75 0 0 1 .188-.323 1.703 1.703 0 0 1 2.492-.391c1.089.91.814 3.494.316 4.668-.028.068-.435.783-.695 1.229.196-.237.38-.455.585-.72.398-.482.81-.955 1.248-1.464l.673-.724c.22-.25.484-.482.727-.723.571-.551 1.18-1.083 1.806-1.607-.43-.345-1.925-1.606-2.355-2.461-.43-.856-.736-2.052-.288-2.953.198-.438.574-.771 1.034-.916.46-.145.96-.088 1.376.156 1.212.755 1.335 3.326 1.02 4.55 0 .077-.348.937-.535 1.406.38-.31.754-.623 1.148-.91 1.134-.874 2.31-1.72 3.475-2.57l1.066-.788c-.151-.123-1.962-1.579-2.447-2.535-.425-.85-.736-2.052-.288-2.957.2-.437.576-.769 1.035-.914.46-.145.96-.089 1.375.154 1.212.76 1.335 3.33 1.02 4.55a34.032 34.032 0 0 1-.631 1.643 57.146 57.146 0 0 0 2.286-1.77 29.545 29.545 0 0 0 2.836-2.63c-.069-.055-1.967-1.566-2.46-2.548-.43-.851-.737-2.052-.289-2.953a1.7 1.7 0 0 1 2.405-.76c1.217.755 1.34 3.326 1.025 4.55-.023.077-.38 1.024-.562 1.47l.073.04a21.794 21.794 0 0 0 2.328-3.112c.38-.6.713-1.196 1.024-1.788-.384-.246-2.117-1.365-2.662-2.22-.544-.856-.955-1.957-.612-2.904.149-.45.482-.817.917-1.01a1.705 1.705 0 0 1 1.37-.009c1.293.62 1.696 3.163 1.517 4.423 0 .068-.182.755-.315 1.256.133-.269.279-.542.402-.801.458-.974.846-1.893 1.167-2.73.182-.455.333-.91.457-1.288-.252-.455-1.23-2.207-1.326-3.185-.096-.978.06-2.18.804-2.862a1.702 1.702 0 0 1 2.52.16c.86 1.141.041 3.58-.7 4.622a53.914 53.914 0 0 1-1.243 1.365v-.027c-.128.387-.266.8-.43 1.247a36.445 36.445 0 0 1-1.107 2.73 30.369 30.369 0 0 1-1.614 3.112 22.084 22.084 0 0 1-2.287 3.185l-.032.037a33.56 33.56 0 0 1 1.459-.838c1.18-.5 3.75-.787 4.692.292a1.687 1.687 0 0 1-.375 2.484c-.828.583-2.072.455-2.982.178-1.029-.324-2.744-1.884-2.904-2.007-.891.99-1.85 1.919-2.867 2.78a44.696 44.696 0 0 1-1.83 1.483c.316-.177.6-.336.641-.354 1.175-.501 3.745-.788 4.688.29a1.682 1.682 0 0 1-.375 2.485c-.824.583-2.068.455-2.978.178-.91-.278-2.433-1.588-2.826-1.939l-.718.55a230.88 230.88 0 0 0-3.407 2.635c-.389.314-.759.637-1.134.956.284-.16.517-.291.558-.305 1.175-.505 3.745-.787 4.687.287a1.678 1.678 0 0 1-.375 2.484c-.827.582-2.067.455-2.977.182-.91-.273-2.286-1.465-2.744-1.88-.37.342-.745.679-1.088 1.03-.233.24-.457.454-.686.714-.229.259-.457.491-.659.737-.397.482-.814.983-1.193 1.465-.265.332-.512.655-.76.978.38-.314 1.149-.91 1.217-.96 1.084-.673 3.581-1.342 4.679-.423a1.689 1.689 0 0 1 0 2.516c-.728.696-1.971.774-2.914.628-1.042-.164-2.926-1.365-3.16-1.538a86.214 86.214 0 0 0-4.102 5.87l-.068.104-.878-.423c.045-.068.091-.132.137-.204a90.142 90.142 0 0 1 3.06-4.282c.415-.546.868-1.124 1.34-1.716-.491-.53-.95-1.09-1.373-1.674-1.01.391-3.11.41-3.38.41-.04.673-.077 1.328-.105 1.947a85.094 85.094 0 0 0-.059 5.196v.15l-.965-.455c0-1.242.05-2.93.178-4.918.042-.687.101-1.42.17-2.166-.27-.068-2.452-.628-3.275-1.283-.745-.592-1.532-1.557-1.504-2.562a1.68 1.68 0 0 1 .552-1.262c.356-.323.834-.48 1.314-.43 1.422.181 2.61 2.465 2.849 3.717 0 .072.073.91.1 1.41.032-.31.055-.605.087-.91.064-.623.146-1.247.233-1.915.05-.319.106-.642.156-.97.05-.327.137-.664.206-1a34.4 34.4 0 0 1 .617-2.33c-.549-.06-2.492-.287-3.33-.76-.836-.473-1.75-1.31-1.874-2.307-.08-.474.05-.959.352-1.332.303-.374.753-.601 1.235-.625 1.431-.036 2.958 2.043 3.38 3.245.027.077.232.973.333 1.47.146-.456.284-.938.457-1.402.458-1.365.974-2.703 1.478-4.054.155-.414.301-.829.457-1.238-.197 0-2.515-.241-3.448-.774-.828-.455-1.752-1.31-1.88-2.306a1.686 1.686 0 0 1 .356-1.33c.303-.373.75-.6 1.231-.627 1.436-.036 2.963 2.043 3.384 3.244.032.091.325 1.365.384 1.716.33-.91.654-1.82.915-2.73.387-1.23.692-2.482.915-3.75-.092 0-2.516-.227-3.467-.773-.832-.455-1.756-1.31-1.88-2.307a1.686 1.686 0 0 1 .357-1.33c.302-.373.75-.6 1.23-.627 1.432-.032 2.96 2.043 3.38 3.244.027.082.251 1.065.348 1.534h.082c.189-1.282.262-2.578.22-3.872 0-.715-.07-1.393-.138-2.057-.457 0-2.533 0-3.448-.391-.915-.392-1.889-1.11-2.127-2.089a1.68 1.68 0 0 1 .21-1.363 1.697 1.697 0 0 1 1.162-.753c1.423-.19 3.17 1.707 3.723 2.858.027.063.265.732.425 1.22-.032-.297-.064-.606-.105-.888a36.685 36.685 0 0 0-.526-2.899c-.11-.486-.215-.91-.32-1.333-.457-.227-2.25-1.165-2.867-1.924-.618-.76-1.157-1.848-.915-2.826.106-.472.41-.876.834-1.11.425-.234.93-.275 1.389-.114z"/></g><g><path fill="#adc7f7" d="M173.091 75.17c-1.12-.046-3.361-1.188-3.361-1.193 0-.004 1.203-1.238 1.29-1.306 1.001-.796 3.407-1.743 4.6-.955a1.687 1.687 0 0 1 .297 2.498c-.64.764-1.87.992-2.826.955z"/></g><g opacity=".5"><g opacity=".5"><path fill="#fff" d="M149.942 64.607c-.028 0 .315-1.697.352-1.82.393-1.21 1.875-3.322 3.306-3.317a1.7 1.7 0 0 1 1.246.596c.311.365.452.845.387 1.32-.105 1.005-1.011 1.856-1.83 2.352-.96.596-3.461.87-3.461.87z"/></g><g opacity=".5"><path fill="#fff" d="M147.167 53.177c1.349.482 2.02 2.967 1.975 4.24 0 .11-.256 1.82-.279 1.82h-.027c.105.392.22.815.334 1.275.2.855.42 1.82.59 2.894.196 1.152.324 2.314.384 3.48a21.872 21.872 0 0 1-.133 3.914.136.136 0 0 0 0 .045c.178-.377.704-1.424.755-1.501.704-1.065 2.689-2.73 4.074-2.33.46.14.837.469 1.04.903.202.433.21.932.021 1.372-.365.937-1.463 1.524-2.382 1.784-1.038.295-3.352-.055-3.535-.082a29.422 29.422 0 0 1-.85 3.895 52.437 52.437 0 0 1-.696 2.238c.16-.323.31-.61.334-.65.704-1.065 2.689-2.73 4.074-2.334.46.14.84.467 1.042.901.202.434.21.934.02 1.374-.366.942-1.464 1.524-2.383 1.788-.92.264-2.913 0-3.435-.068-.096.282-.192.568-.292.85-.458 1.366-.952 2.73-1.372 4.068-.151.455-.284.947-.416 1.42.146-.287.27-.528.292-.56.7-1.064 2.69-2.73 4.07-2.334.46.141.837.469 1.04.902.203.434.213.933.026 1.373-.366.937-1.468 1.524-2.387 1.784-.92.26-2.717.032-3.339-.055-.123.492-.242.979-.338 1.456-.06.328-.137.642-.178.974-.042.332-.092.655-.138.974-.064.623-.137 1.27-.183 1.879-.036.423-.064.828-.091 1.233.142-.455.457-1.392.48-1.47a6.608 6.608 0 0 1 2.195-2.484 1.75 1.75 0 0 1 .188-.323 1.703 1.703 0 0 1 2.492-.391c1.089.91.814 3.494.316 4.668-.028.068-.435.783-.695 1.229.196-.237.38-.455.585-.72.398-.482.81-.955 1.248-1.464l.673-.724c.22-.25.484-.482.727-.723.571-.551 1.18-1.083 1.806-1.607-.43-.345-1.925-1.606-2.355-2.461-.43-.856-.736-2.052-.288-2.953.198-.438.574-.771 1.034-.916.46-.145.96-.088 1.376.156 1.212.755 1.335 3.326 1.02 4.55 0 .077-.348.937-.535 1.406.38-.31.754-.623 1.148-.91 1.134-.874 2.31-1.72 3.475-2.57l1.066-.788c-.151-.123-1.962-1.579-2.447-2.535-.425-.85-.736-2.052-.288-2.957.2-.437.576-.769 1.035-.914.46-.145.96-.089 1.375.154 1.212.76 1.335 3.33 1.02 4.55a34.032 34.032 0 0 1-.631 1.643 57.146 57.146 0 0 0 2.286-1.77 29.545 29.545 0 0 0 2.836-2.63c-.069-.055-1.967-1.566-2.46-2.548-.43-.851-.737-2.052-.289-2.953a1.7 1.7 0 0 1 2.405-.76c1.217.755 1.34 3.326 1.025 4.55-.023.077-.38 1.024-.562 1.47l.073.04a21.794 21.794 0 0 0 2.328-3.112c.38-.6.713-1.196 1.024-1.788-.384-.246-2.117-1.365-2.662-2.22-.544-.856-.955-1.957-.612-2.904.149-.45.482-.817.917-1.01a1.705 1.705 0 0 1 1.37-.009c1.293.62 1.696 3.163 1.517 4.423 0 .068-.182.755-.315 1.256.133-.269.279-.542.402-.801.458-.974.846-1.893 1.167-2.73.182-.455.333-.91.457-1.288-.252-.455-1.23-2.207-1.326-3.185-.096-.978.06-2.18.804-2.862a1.702 1.702 0 0 1 2.52.16c.86 1.141.041 3.58-.7 4.622a53.914 53.914 0 0 1-1.243 1.365v-.027c-.128.387-.266.8-.43 1.247a36.445 36.445 0 0 1-1.107 2.73 30.369 30.369 0 0 1-1.614 3.112 22.084 22.084 0 0 1-2.287 3.185l-.032.037a33.56 33.56 0 0 1 1.459-.838c1.18-.5 3.75-.787 4.692.292a1.687 1.687 0 0 1-.375 2.484c-.828.583-2.072.455-2.982.178-1.029-.324-2.744-1.884-2.904-2.007-.891.99-1.85 1.919-2.867 2.78a44.696 44.696 0 0 1-1.83 1.483c.316-.177.6-.336.641-.354 1.175-.501 3.745-.788 4.688.29a1.682 1.682 0 0 1-.375 2.485c-.824.583-2.068.455-2.978.178-.91-.278-2.433-1.588-2.826-1.939l-.718.55a230.88 230.88 0 0 0-3.407 2.635c-.389.314-.759.637-1.134.956.284-.16.517-.291.558-.305 1.175-.505 3.745-.787 4.687.287a1.678 1.678 0 0 1-.375 2.484c-.827.582-2.067.455-2.977.182-.91-.273-2.286-1.465-2.744-1.88-.37.342-.745.679-1.088 1.03-.233.24-.457.454-.686.714-.229.259-.457.491-.659.737-.397.482-.814.983-1.193 1.465-.265.332-.512.655-.76.978.38-.314 1.149-.91 1.217-.96 1.084-.673 3.581-1.342 4.679-.423a1.689 1.689 0 0 1 0 2.516c-.728.696-1.971.774-2.914.628-1.042-.164-2.926-1.365-3.16-1.538a86.214 86.214 0 0 0-4.102 5.87l-.068.104-.878-.423c.045-.068.091-.132.137-.204a90.142 90.142 0 0 1 3.06-4.282c.415-.546.868-1.124 1.34-1.716-.491-.53-.95-1.09-1.373-1.674-1.01.391-3.11.41-3.38.41-.04.673-.077 1.328-.105 1.947a85.094 85.094 0 0 0-.059 5.196v.15l-.965-.455c0-1.242.05-2.93.178-4.918.042-.687.101-1.42.17-2.166-.27-.068-2.452-.628-3.275-1.283-.745-.592-1.532-1.557-1.504-2.562a1.68 1.68 0 0 1 .552-1.262c.356-.323.834-.48 1.314-.43 1.422.181 2.61 2.465 2.849 3.717 0 .072.073.91.1 1.41.032-.31.055-.605.087-.91.064-.623.146-1.247.233-1.915.05-.319.106-.642.156-.97.05-.327.137-.664.206-1a34.4 34.4 0 0 1 .617-2.33c-.549-.06-2.492-.287-3.33-.76-.836-.473-1.75-1.31-1.874-2.307-.08-.474.05-.959.352-1.332.303-.374.753-.601 1.235-.625 1.431-.036 2.958 2.043 3.38 3.245.027.077.232.973.333 1.47.146-.456.284-.938.457-1.402.458-1.365.974-2.703 1.478-4.054.155-.414.301-.829.457-1.238-.197 0-2.515-.241-3.448-.774-.828-.455-1.752-1.31-1.88-2.306a1.686 1.686 0 0 1 .356-1.33c.303-.373.75-.6 1.231-.627 1.436-.036 2.963 2.043 3.384 3.244.032.091.325 1.365.384 1.716.33-.91.654-1.82.915-2.73.387-1.23.692-2.482.915-3.75-.092 0-2.516-.227-3.467-.773-.832-.455-1.756-1.31-1.88-2.307a1.686 1.686 0 0 1 .357-1.33c.302-.373.75-.6 1.23-.627 1.432-.032 2.96 2.043 3.38 3.244.027.082.251 1.065.348 1.534h.082c.189-1.282.262-2.578.22-3.872 0-.715-.07-1.393-.138-2.057-.457 0-2.533 0-3.448-.391-.915-.392-1.889-1.11-2.127-2.089a1.68 1.68 0 0 1 .21-1.363 1.697 1.697 0 0 1 1.162-.753c1.423-.19 3.17 1.707 3.723 2.858.027.063.265.732.425 1.22-.032-.297-.064-.606-.105-.888a36.685 36.685 0 0 0-.526-2.899c-.11-.486-.215-.91-.32-1.333-.457-.227-2.25-1.165-2.867-1.924-.618-.76-1.157-1.848-.915-2.826.106-.472.41-.876.834-1.11.425-.234.93-.275 1.389-.114z"/></g><g opacity=".5"><path fill="#fff" d="M173.091 75.17c-1.12-.046-3.361-1.188-3.361-1.193 0-.004 1.203-1.238 1.29-1.306 1.001-.796 3.407-1.743 4.6-.955a1.687 1.687 0 0 1 .297 2.498c-.64.764-1.87.992-2.826.955z"/></g></g><g><path fill="#adc7f7" d="M160.009 103.085s-6.8-16.312-10.605-15.602c-3.805.71 6.516 26 6.516 26s-11.963-22.456-20.122-22.456c-8.158 0 2.991 24.821 13.322 33.093 0 0-16.312-17.49-25.83-13.71-9.516 3.782 19.034 21.51 19.034 21.51s-16.587-5.201-14.684-1.184c1.902 4.018 7.07 4.728 7.07 4.728l-18.75.946h65.26l-14.685-1.42s15.228-7.562 11.15-10.633c-4.08-3.071-13.053 3.545-13.053 3.545s15.499-17.018 12.508-23.402c-2.991-6.384-16.317 11.585-16.317 11.585s10.88-22.928 8.689-26.946c-2.19-4.018-9.503 13.946-9.503 13.946z"/></g><g opacity=".4"><path fill="#fff" d="M160.009 103.085s-6.8-16.312-10.605-15.602c-3.805.71 6.516 26 6.516 26s-11.963-22.456-20.122-22.456c-8.158 0 2.991 24.821 13.322 33.093 0 0-16.312-17.49-25.83-13.71-9.516 3.782 19.034 21.51 19.034 21.51s-16.587-5.201-14.684-1.184c1.902 4.018 7.07 4.728 7.07 4.728l-18.75.946h65.26l-14.685-1.42s15.228-7.562 11.15-10.633c-4.08-3.071-13.053 3.545-13.053 3.545s15.499-17.018 12.508-23.402c-2.991-6.384-16.317 11.585-16.317 11.585s10.88-22.928 8.689-26.946c-2.19-4.018-9.503 13.946-9.503 13.946z"/></g><g><path fill="none" stroke="#263238" stroke-linecap="round" stroke-linejoin="round" stroke-miterlimit="20" stroke-width=".5" d="M162.186 103.95c-5.986 17.586-5.986 30.031-5.986 30.031v0s7.07.269 14.415-5.142"/></g><g><path fill="none" stroke="#263238" stroke-linecap="round" stroke-linejoin="round" stroke-miterlimit="20" stroke-width=".5" d="M159.188 113.415a105.411 105.411 0 0 0-4.898-15.425"/></g><g><path fill="none" stroke="#263238" stroke-linecap="round" stroke-linejoin="round" stroke-miterlimit="20" stroke-width=".5" d="M141.52 103.14v0l15.224 22.455v0s10.335-8.645 13.87-13.528"/></g><g><path fill="none" stroke="#263238" stroke-linecap="round" stroke-linejoin="round" stroke-miterlimit="20" stroke-width=".5" d="M156.469 131.01s-16.043-7.576-22.569-11.89"/></g></g><g><g><path fill="#fff" d="M90.4 12.058c0-1.6 1.297-2.898 2.898-2.898h49.666c1.6 0 2.898 1.297 2.898 2.898V132.37c0 1.6-1.298 2.898-2.898 2.898H93.298a2.898 2.898 0 0 1-2.898-2.898z"/><path fill="none" stroke="#263238" stroke-linecap="round" stroke-linejoin="round" stroke-miterlimit="20" stroke-width=".5" d="M90.4 12.058c0-1.6 1.297-2.898 2.898-2.898h49.666c1.6 0 2.898 1.297 2.898 2.898V132.37c0 1.6-1.298 2.898-2.898 2.898H93.298a2.898 2.898 0 0 1-2.898-2.898z"/></g><g><path fill="#263238" d="M144.007 31.236a.738.738 0 0 1-.737-.74v-9.91a.742.742 0 0 1 1.478 0v9.893a.745.745 0 0 1-.741.757z"/></g><g><path fill="#263238" d="M144.007 40.424a.738.738 0 0 1-.737-.74v-5.538a.742.742 0 0 1 1.478 0v5.538a.743.743 0 0 1-.741.74z"/></g><g><path fill="#263238" d="M86.22 12.058c0-1.6 1.297-2.898 2.898-2.898h49.666c1.6 0 2.898 1.297 2.898 2.898V132.37c0 1.6-1.298 2.898-2.898 2.898H89.118a2.898 2.898 0 0 1-2.898-2.898z"/><path fill="none" stroke="#263238" stroke-linecap="round" stroke-linejoin="round" stroke-miterlimit="20" stroke-width=".5" d="M86.22 12.058c0-1.6 1.297-2.898 2.898-2.898h49.666c1.6 0 2.898 1.297 2.898 2.898V132.37c0 1.6-1.298 2.898-2.898 2.898H89.118a2.898 2.898 0 0 1-2.898-2.898z"/></g><g><path fill="#adc7f7" d="M89.91 17.56h48.075v108.165H89.91z"/></g><g><path fill="none" stroke="#fff" stroke-linecap="round" stroke-linejoin="round" stroke-miterlimit="20" stroke-width="1.1" d="M106.81 14.107h12.799"/></g><g><path fill="#fff" d="M112.224 129.556c0 .884-.552 1.6-1.234 1.6-.683 0-1.23-.716-1.23-1.6 0-.885.552-1.606 1.23-1.606.678 0 1.234.717 1.234 1.606z"/></g><g><path fill="#fff" d="M113.946 44.475c4.605 0 8.337-4.367 8.337-9.753s-3.732-9.752-8.337-9.752c-4.604 0-8.336 4.366-8.336 9.752 0 5.386 3.732 9.753 8.336 9.753z"/></g><g><path fill="#263238" d="M113.945 34.602c1.747 0 3.164-1.66 3.164-3.706 0-2.047-1.417-3.706-3.164-3.706-1.748 0-3.165 1.66-3.165 3.706 0 2.047 1.417 3.706 3.165 3.706z"/><path fill="none" stroke="#263238" stroke-linecap="round" stroke-linejoin="round" stroke-miterlimit="20" stroke-width=".5" d="M113.945 34.602c1.747 0 3.164-1.66 3.164-3.706 0-2.047-1.417-3.706-3.164-3.706-1.748 0-3.165 1.66-3.165 3.706 0 2.047 1.417 3.706 3.165 3.706z"/></g><g><path fill="#263238" d="M113.945 35.58c-3.165 0-5.755 2.436-5.755 5.443.003.28.028.56.077.835a7.467 7.467 0 0 0 5.678 2.62 7.467 7.467 0 0 0 5.678-2.62c.045-.276.07-.555.073-.835 0-3.007-2.577-5.443-5.751-5.443z"/><path fill="none" stroke="#263238" stroke-linecap="round" stroke-linejoin="round" stroke-miterlimit="20" stroke-width=".5" d="M113.945 35.58c-3.165 0-5.755 2.436-5.755 5.443.003.28.028.56.077.835a7.467 7.467 0 0 0 5.678 2.62 7.467 7.467 0 0 0 5.678-2.62c.045-.276.07-.555.073-.835 0-3.007-2.577-5.443-5.751-5.443z"/></g><g><path fill="#263238" d="M105.755 62.546c0-4.908 3.68-8.904 8.196-8.904 4.517 0 8.192 3.996 8.192 8.904V72.98h-16.388zm18.332 14.651a2.022 2.022 0 0 0 1.408-.655c.363-.398.555-.924.531-1.463V62.533c0-7.226-5.42-13.123-12.075-13.123-6.654 0-12.08 5.888-12.08 13.123v12.555a2.03 2.03 0 0 0 1.945 2.11z"/></g><g><path fill="#fff" d="M99.87 68.63h28.147v26.717H99.87z"/></g><g><path fill="#263238" d="M118.045 87.031l-2.089-5.04a3.72 3.72 0 0 0 1.47-3.002c0-2.01-1.497-3.629-3.346-3.629s-3.34 1.624-3.34 3.629a3.715 3.715 0 0 0 1.464 3.003l-2.084 5.039z"/><path fill="none" stroke="#263238" stroke-linecap="round" stroke-linejoin="round" stroke-miterlimit="20" stroke-width=".5" d="M118.045 87.031v0l-2.089-5.04a3.72 3.72 0 0 0 1.47-3.002c0-2.01-1.497-3.629-3.346-3.629s-3.34 1.624-3.34 3.629a3.715 3.715 0 0 0 1.464 3.003l-2.084 5.039v0z"/></g><g><path fill="#fff" d="M105.37 119.359c.044.032.096.05.15.05.078 0 .15-.04.194-.105l32.27-44.04v-.834l-32.65 44.584a.246.246 0 0 0 .037.345z"/></g><g><path fill="#fff" d="M131.498 33.42a.246.246 0 0 0 .054.345c.11.079.263.055.344-.054l6.094-8.315v-.816z"/></g><g><path fill="#fff" d="M89.91 91.016l39.838-54.354a.247.247 0 0 0-.055-.345.245.245 0 0 0-.343.055l-39.422 53.81z"/></g><g><path fill="#fff" d="M101.628 124.717a.257.257 0 0 0 .2-.1l2.26-3.066a.246.246 0 0 0-.055-.345.248.248 0 0 0-.343.055l-2.26 3.061a.246.246 0 0 0 .05.345.23.23 0 0 0 .148.05z"/></g><g><path fill="#fff" d="M137.99 84.08l-26.493 36.156a.246.246 0 0 0 .2.39.24.24 0 0 0 .198-.1L137.99 84.91z"/></g></g><g><g><path fill="#263238" d="M44.518 33.824a7.245 7.245 0 0 0 .64-3.194c0-2.04-2.471-3.221-5.376-3.545-2.905-.324-4.192.858-3.763 1.61a7.03 7.03 0 0 0 1.612 1.611s-2.905-1.61-4.841-.319c-1.937 1.291.863.753.324 2.04-.539 1.286-3.548.752-4.302 4.188-.754 3.436 1.398 6.877-.539 8.382-1.936 1.506-7.764-.538-9.463 3.222-1.699 3.76.713 5.43-3.37 7.793-4.083 2.364-7.061 4.672-5.878 10.472 1.183 5.8 5.056 7.83 12.692 5.781 7.636-2.049 7.097-6.662 9.59-11.407 2.494-4.746 6.349-3.76 7.532-6.448 1.182-2.687-.325-5.908-.215-8.382.11-2.473 2.58-3.006 3.549-5.931.968-2.925 1.808-5.873 1.808-5.873z"/><path fill="none" stroke="#263238" stroke-linecap="round" stroke-linejoin="round" stroke-miterlimit="20" stroke-width=".5" d="M44.518 33.824a7.245 7.245 0 0 0 .64-3.194c0-2.04-2.471-3.221-5.376-3.545-2.905-.324-4.192.858-3.763 1.61a7.03 7.03 0 0 0 1.612 1.611s-2.905-1.61-4.841-.319c-1.937 1.291.863.753.324 2.04-.539 1.286-3.548.752-4.302 4.188-.754 3.436 1.398 6.877-.539 8.382-1.936 1.506-7.764-.538-9.463 3.222-1.699 3.76.713 5.43-3.37 7.793-4.083 2.364-7.061 4.672-5.878 10.472 1.183 5.8 5.056 7.83 12.692 5.781 7.636-2.049 7.097-6.662 9.59-11.407 2.494-4.746 6.349-3.76 7.532-6.448 1.182-2.687-.325-5.908-.215-8.382.11-2.473 2.58-3.006 3.549-5.931.968-2.925 1.808-5.873 1.808-5.873z"/></g><g><path fill="none" stroke="#fff" stroke-linecap="round" stroke-linejoin="round" stroke-miterlimit="20" stroke-width=".5" d="M10.447 65.97c-.2.404-.302.85-.297 1.3"/></g><g><path fill="none" stroke="#fff" stroke-linecap="round" stroke-linejoin="round" stroke-miterlimit="20" stroke-width=".5" d="M40.385 31.692v0s-1.343-1.552 1.242-.83c3.257.912-.566 4.676-2.037 5.433-2.95 1.51-6.85 1.027-9.134 3.774-2.073 2.482.726 5.07-.516 7.036-1.242 1.967-6.216.826-7.869 3.194-1.653 2.368 3 7.451-1.763 10.244-3.443 2.02-7.216 2.797-9.038 4.398"/></g><g><path fill="none" stroke="#fff" stroke-linecap="round" stroke-linejoin="round" stroke-miterlimit="20" stroke-width=".5" d="M32.668 40.87a3.725 3.725 0 0 0-.246 2.094c.41 1.757 2.795 5.07.62 6.931-2.173 1.862-5.904 1.757-6.52 3.938-.617 2.181.62 8.172-1.449 10.951s-6.11 2.587-8.284 4.449c-2.174 1.861-1.864 2.897-1.864 2.897v0"/></g><g><path fill="none" stroke="#fff" stroke-linecap="round" stroke-linejoin="round" stroke-miterlimit="20" stroke-width=".5" d="M33.76 38.83a9.089 9.089 0 0 0-.52.826"/></g><g><path fill="#fff" d="M45.907 65.808l.525 4.107s2.74 2.738 4.754 4.43c2.015 1.693 7.175 5.275 7.175 5.275l-2.617.744S47.19 75.299 45.5 74.888c-1.69-.41-2.954-2.847-3.48-3.586-.525-.74 2.512-6.233 3.887-5.494z"/><path fill="none" stroke="#263238" stroke-linecap="round" stroke-linejoin="round" stroke-miterlimit="20" stroke-width=".5" d="M45.907 65.808l.525 4.107v0s2.74 2.738 4.754 4.43c2.015 1.693 7.175 5.275 7.175 5.275v0l-2.617.744v0S47.19 75.299 45.5 74.888c-1.69-.41-2.954-2.847-3.48-3.586-.525-.74 2.512-6.233 3.887-5.494z"/></g><g><path fill="#fff" d="M51.135 132.621s2.585 2.181 3.654 2.911c1.068.73 2.315 1.059 2.119 1.456-.197.397-.731.794-3.247.456-2.517-.338-3.243-1.19-3.709-1.323-.466-.133-1.59.2-2.448-.329-.858-.53.503-3.682.503-3.682.778.91 2.1 1.125 3.128.511z"/><path fill="none" stroke="#263238" stroke-linecap="round" stroke-linejoin="round" stroke-miterlimit="20" stroke-width=".5" d="M51.135 132.621v0s2.585 2.181 3.654 2.911c1.068.73 2.315 1.059 2.119 1.456-.197.397-.731.794-3.247.456-2.517-.338-3.243-1.19-3.709-1.323-.466-.133-1.59.2-2.448-.329-.858-.53.503-3.682.503-3.682.778.91 2.1 1.125 3.128.511z"/></g><g><path fill="#fff" d="M56.895 136.988a.337.337 0 0 0 0-.064 11.78 11.78 0 0 1-4.32-.406c-1.626-.384-2.105-1.246-3.654-1.246a5.311 5.311 0 0 1-1.785-.292.94.94 0 0 0 .324.817c.858.53 1.986.196 2.448.328.461.133 1.192.995 3.708 1.324 2.517.328 3.078-.064 3.28-.461z"/><path fill="none" stroke="#263238" stroke-linecap="round" stroke-linejoin="round" stroke-miterlimit="20" stroke-width=".5" d="M56.895 136.988a.337.337 0 0 0 0-.064 11.78 11.78 0 0 1-4.32-.406c-1.626-.384-2.105-1.246-3.654-1.246a5.311 5.311 0 0 1-1.785-.292.94.94 0 0 0 .324.817c.858.53 1.986.196 2.448.328.461.133 1.192.995 3.708 1.324 2.517.328 3.078-.064 3.28-.461z"/></g><g><path fill="#fff" d="M37.6 44.44s.497 3.35-.142 4.7c-.64 1.35-2.64 1.496-4.348 1.784-1.708.287-5.631 1.78-5.207 5.626.425 3.846 5.349 12.178 5.349 14.528 0 2.35-1.498 3.56-3.138 8.117-1.64 4.559-1.425 13.037-.913 18.521a57.856 57.856 0 0 0 2.137 10.682s-4.11 6.625-5.937 9.472c-1.827 2.848-8.221 15.245-8.221 15.245s0 .424.996.712c.7.17 1.425.218 2.142.141 0 0 12.258-14.743 14.541-17.234 2.284-2.491 4.421-6.844 4.704-8.834.283-1.989-.068-14.172-.068-14.172s2.562 6.124 4.567 9.258a65.792 65.792 0 0 1 3.343 5.932 35.822 35.822 0 0 0 0 7.757c.498 3.559.078 14.993.575 15.92.498.926 2.43.538 2.86.114.429-.425.63-3.194.63-3.194s.854-8.67 1.37-12.749c.516-4.08 1.37-7.551 1.073-8.478-.297-.926-2.069-10.827-3.425-15.513-1.357-4.687-5.48-13.461-6.394-15.738-.914-2.277-1.43-4.348-1.284-5.06.147-.712 2.923-4.983 3.654-6.123a5.626 5.626 0 0 0 .142-5.056c-.854-1.853 0-4.349-.142-5.84-.142-1.493-2.352-2.14-3.494-2.706-1.142-.566-1.57-1.853-1.57-2.92.069-.9.286-1.782.643-2.61 0 0-3.517-2.282-4.444-2.282z"/><path fill="none" stroke="#263238" stroke-linecap="round" stroke-linejoin="round" stroke-miterlimit="20" stroke-width=".5" d="M37.6 44.44s.497 3.35-.142 4.7c-.64 1.35-2.64 1.496-4.348 1.784-1.708.287-5.631 1.78-5.207 5.626.425 3.846 5.349 12.178 5.349 14.528 0 2.35-1.498 3.56-3.138 8.117-1.64 4.559-1.425 13.037-.913 18.521a57.856 57.856 0 0 0 2.137 10.682s-4.11 6.625-5.937 9.472c-1.827 2.848-8.221 15.245-8.221 15.245v0s0 .424.996.712c.7.17 1.425.218 2.142.141 0 0 12.258-14.743 14.541-17.234 2.284-2.491 4.421-6.844 4.704-8.834.283-1.989-.068-14.172-.068-14.172v0s2.562 6.124 4.567 9.258a65.792 65.792 0 0 1 3.343 5.932 35.822 35.822 0 0 0 0 7.757c.498 3.559.078 14.993.575 15.92.498.926 2.43.538 2.86.114.429-.425.63-3.194.63-3.194v0s.854-8.67 1.37-12.749c.516-4.08 1.37-7.551 1.073-8.478-.297-.926-2.069-10.827-3.425-15.513-1.357-4.687-5.48-13.461-6.394-15.738-.914-2.277-1.43-4.348-1.284-5.06.147-.712 2.923-4.983 3.654-6.123a5.626 5.626 0 0 0 .142-5.056c-.854-1.853 0-4.349-.142-5.84-.142-1.493-2.352-2.14-3.494-2.706-1.142-.566-1.57-1.853-1.57-2.92.069-.9.286-1.782.643-2.61 0 0-3.517-2.282-4.444-2.282z"/></g><g><path fill="none" stroke="#263238" stroke-linecap="round" stroke-linejoin="round" stroke-miterlimit="20" stroke-width=".5" d="M46.246 59.675a23.489 23.489 0 0 1-.936-2.925"/></g><g><path fill="none" stroke="#263238" stroke-linecap="round" stroke-linejoin="round" stroke-miterlimit="20" stroke-width=".5" d="M36.98 67.604s1.288.283 3.868-1.004"/></g><g><path fill="#263238" d="M50.501 92.726c-1.292-4.49-5.124-12.69-6.27-15.396-5.48 2.054-10.605.302-13.012-.83a34.851 34.851 0 0 0-1.105 2.692c-1.64 4.563-1.425 13.036-.913 18.52a57.856 57.856 0 0 0 2.137 10.682s-4.11 6.626-5.937 9.473c-1.827 2.847-8.221 15.245-8.221 15.245s0 .424.996.711c.7.17 1.425.218 2.142.142 0 0 12.258-14.743 14.541-17.234 2.284-2.491 4.421-6.844 4.704-8.834.283-1.99-.068-14.172-.068-14.172s2.562 6.123 4.567 9.258a65.792 65.792 0 0 1 3.343 5.932 35.822 35.822 0 0 0 0 7.757c.498 3.559.078 14.993.575 15.92.498.926 2.43.538 2.86.113.429-.424.63-3.194.63-3.194s.854-8.669 1.37-12.748c.516-4.08 1.37-7.552 1.073-8.478-.297-.926-2.055-10.86-3.412-15.56z"/><path fill="none" stroke="#263238" stroke-linecap="round" stroke-linejoin="round" stroke-miterlimit="20" stroke-width=".5" d="M50.501 92.726c-1.292-4.49-5.124-12.69-6.27-15.396-5.48 2.054-10.605.302-13.012-.83a34.851 34.851 0 0 0-1.105 2.692c-1.64 4.563-1.425 13.036-.913 18.52a57.856 57.856 0 0 0 2.137 10.682s-4.11 6.626-5.937 9.473c-1.827 2.847-8.221 15.245-8.221 15.245v0s0 .424.996.711c.7.17 1.425.218 2.142.142 0 0 12.258-14.743 14.541-17.234 2.284-2.491 4.421-6.844 4.704-8.834.283-1.99-.068-14.172-.068-14.172v0s2.562 6.123 4.567 9.258a65.792 65.792 0 0 1 3.343 5.932 35.822 35.822 0 0 0 0 7.757c.498 3.559.078 14.993.575 15.92.498.926 2.43.538 2.86.113.429-.424.63-3.194.63-3.194v0s.854-8.669 1.37-12.748c.516-4.08 1.37-7.552 1.073-8.478-.297-.926-2.055-10.86-3.412-15.56z"/></g><g><path fill="#adc7f7" d="M78.425 88.2v-.93h.78v-7.31h-9.27v7.31h.78v.93h-.785v1.698h3.01v-.57h3.26v.57h3.01V88.2h-.785z"/><path fill="none" stroke="#263238" stroke-linecap="round" stroke-linejoin="round" stroke-miterlimit="20" stroke-width=".5" d="M78.425 88.2v0-.93 0h.78v0-7.31 0h-.78v0h-7.71v0h-.78v7.31h.78v.93h-.785v1.698h3.01v0-.57 0h3.26v.57h3.01v0V88.2v0h-.785v0z"/></g><g><path fill="#adc7f7" d="M28.6 77.775h53.782c.449 0 .813.363.813.812v1.633a.813.813 0 0 1-.813.812H28.6V77.77z"/><path fill="none" stroke="#263238" stroke-linecap="round" stroke-linejoin="round" stroke-miterlimit="20" stroke-width=".5" d="M28.6 77.775v0h53.782c.449 0 .813.363.813.812v1.633a.813.813 0 0 1-.813.812H28.6v0-3.262 0z"/></g><g><path fill="#adc7f7" d="M63.47 77.652c0-.2.162-.362.362-.362h3.455c.2 0 .362.162.362.362v3.515c0 .2-.162.362-.362.362h-3.455a.362.362 0 0 1-.362-.362z"/><path fill="none" stroke="#263238" stroke-linecap="round" stroke-linejoin="round" stroke-miterlimit="20" stroke-width=".5" d="M63.47 77.652c0-.2.162-.362.362-.362h3.455c.2 0 .362.162.362.362v3.515c0 .2-.162.362-.362.362h-3.455a.362.362 0 0 1-.362-.362z"/></g><g transform="rotate(-80.7 22 79)"><path fill="#adc7f7" d="M21.904 87.9c4.685 0 8.482-3.8 8.481-8.489 0-4.689-3.799-8.49-8.484-8.491-4.684 0-8.482 3.8-8.481 8.489 0 4.689 3.799 8.49 8.484 8.491z"/><path fill="none" stroke="#263238" stroke-linecap="round" stroke-linejoin="round" stroke-miterlimit="20" stroke-width=".5" d="M21.904 87.9c4.685 0 8.482-3.8 8.481-8.489 0-4.689-3.799-8.49-8.484-8.491-4.684 0-8.482 3.8-8.481 8.489 0 4.689 3.799 8.49 8.484 8.491z"/></g><g><path fill="#fff" d="M23.644 79.388a2.966 2.966 0 0 0 1.686-2.592c0-1.665-1.535-3.016-3.43-3.016-1.895 0-3.43 1.369-3.43 3.016a2.957 2.957 0 0 0 1.685 2.592 2.97 2.97 0 0 0-1.685 2.596c0 1.665 1.535 3.016 3.43 3.016 1.895 0 3.43-1.369 3.43-3.016a2.98 2.98 0 0 0-1.686-2.596z"/><path fill="none" stroke="#263238" stroke-linecap="round" stroke-linejoin="round" stroke-miterlimit="20" stroke-width=".5" d="M23.644 79.388a2.966 2.966 0 0 0 1.686-2.592c0-1.665-1.535-3.016-3.43-3.016-1.895 0-3.43 1.369-3.43 3.016a2.957 2.957 0 0 0 1.685 2.592 2.97 2.97 0 0 0-1.685 2.596c0 1.665 1.535 3.016 3.43 3.016 1.895 0 3.43-1.369 3.43-3.016a2.98 2.98 0 0 0-1.686-2.596z"/></g><g><path fill="#fff" d="M56.69 81.103s2.658 1.123 3.48 1.123c.822 0 1.772-.826 2.243-1.825.47-1 .456-1.474.178-1.237l-.59.456s.457-.999-.059-.88a1.443 1.443 0 0 0-.827.707s-.059-.885-.53-.456a5.404 5.404 0 0 0-.826.944s-.06-1.118-.356-.826c-.297.292-1.411 1.885-1.411 1.885z"/><path fill="none" stroke="#263238" stroke-linecap="round" stroke-linejoin="round" stroke-miterlimit="20" stroke-width=".5" d="M56.69 81.103v0s2.658 1.123 3.48 1.123c.822 0 1.772-.826 2.243-1.825.47-1 .456-1.474.178-1.237l-.59.456v0s.457-.999-.059-.88a1.443 1.443 0 0 0-.827.707s-.059-.885-.53-.456a5.404 5.404 0 0 0-.826.944s-.06-1.118-.356-.826c-.297.292-1.411 1.885-1.411 1.885v0z"/></g><g><path fill="#fff" d="M59.76 79.93s-.179 1.414-1.06 1.652"/><path fill="none" stroke="#263238" stroke-linecap="round" stroke-linejoin="round" stroke-miterlimit="20" stroke-width=".5" d="M59.76 79.93s-.179 1.414-1.06 1.652"/></g><g><path fill="#fff" d="M61.108 79.46s-.456 2.236-1.178 2.592"/><path fill="none" stroke="#263238" stroke-linecap="round" stroke-linejoin="round" stroke-miterlimit="20" stroke-width=".5" d="M61.108 79.46s-.456 2.236-1.178 2.592"/></g><g><path fill="#fff" d="M61.995 79.63a12.71 12.71 0 0 1-.945 2.359"/><path fill="none" stroke="#263238" stroke-linecap="round" stroke-linejoin="round" stroke-miterlimit="20" stroke-width=".5" d="M61.995 79.63a12.71 12.71 0 0 1-.945 2.359"/></g><g><path fill="#fff" d="M42.803 52.115a3.239 3.239 0 0 1-1.424-2.83 8.207 8.207 0 0 1 .666-2.564s-3.494-2.281-4.42-2.281c0 0 .497 3.35-.142 4.7-.21.42-.552.76-.973.967a27.196 27.196 0 0 0 3.402 6.388c1.284 1.61 1.91-1.784 2.891-4.38z"/><path fill="none" stroke="#263238" stroke-linecap="round" stroke-linejoin="round" stroke-miterlimit="20" stroke-width=".5" d="M42.803 52.115a3.239 3.239 0 0 1-1.424-2.83 8.207 8.207 0 0 1 .666-2.564s-3.494-2.281-4.42-2.281c0 0 .497 3.35-.142 4.7-.21.42-.552.76-.973.967a27.196 27.196 0 0 0 3.402 6.388c1.284 1.61 1.91-1.784 2.891-4.38z"/></g><g><path fill="#fff" d="M32.02 51.38a5.704 5.704 0 0 0-4.11 3.007c-1.406 2.71-7.553 15.012-7.028 15.746 2.987 4.198 13.852 7.219 14.957 8.323a25.112 25.112 0 0 0 3.622 3.126c1.105.702 3.31.401 3.713.2.402-.2.703-1.104 0-1.104a1.174 1.174 0 0 1-1.16-.912c-.1-.402 1.105.401 1.708.1.603-.301-1.348-1.4-1.95-1.903-.603-.502-1.106-1.2-1.91-1.2h-2.315s-3.7-2.678-5.937-4.672a33.963 33.963 0 0 0-5.668-4.134l6.782-11.147"/><path fill="none" stroke="#263238" stroke-linecap="round" stroke-linejoin="round" stroke-miterlimit="20" stroke-width=".5" d="M32.02 51.38a5.704 5.704 0 0 0-4.11 3.007c-1.406 2.71-7.553 15.012-7.028 15.746 2.987 4.198 13.852 7.219 14.957 8.323a25.112 25.112 0 0 0 3.622 3.126c1.105.702 3.31.401 3.713.2.402-.2.703-1.104 0-1.104a1.174 1.174 0 0 1-1.16-.912c-.1-.402 1.105.401 1.708.1.603-.301-1.348-1.4-1.95-1.903-.603-.502-1.106-1.2-1.91-1.2h-2.315v0s-3.7-2.678-5.937-4.672a33.963 33.963 0 0 0-5.668-4.134l6.782-11.147v0"/></g><g><path fill="#fff" d="M41.767 77.968c-.603-.501-1.105-1.2-1.909-1.2h-2.315s-3.7-2.678-5.938-4.672a33.964 33.964 0 0 0-5.667-4.134L28.65 63.5a9.081 9.081 0 0 0-4.595-1.31c-1.827 3.805-3.466 7.565-3.197 7.962 2.987 4.198 13.852 7.219 14.957 8.323a25.112 25.112 0 0 0 3.622 3.125c1.105.703 3.311.402 3.713.201.402-.2.703-1.104 0-1.104a1.174 1.174 0 0 1-1.16-.913c-.1-.401 1.105.402 1.708.1.603-.3-1.329-1.41-1.932-1.916z"/><path fill="none" stroke="#263238" stroke-linecap="round" stroke-linejoin="round" stroke-miterlimit="20" stroke-width=".5" d="M41.767 77.968c-.603-.501-1.105-1.2-1.909-1.2h-2.315v0s-3.7-2.678-5.938-4.672a33.964 33.964 0 0 0-5.667-4.134L28.65 63.5a9.081 9.081 0 0 0-4.595-1.31c-1.827 3.805-3.466 7.565-3.197 7.962 2.987 4.198 13.852 7.219 14.957 8.323a25.112 25.112 0 0 0 3.622 3.125c1.105.703 3.311.402 3.713.201.402-.2.703-1.104 0-1.104a1.174 1.174 0 0 1-1.16-.913c-.1-.401 1.105.402 1.708.1.603-.3-1.329-1.41-1.932-1.916z"/></g><g><path fill="#fff" d="M45.446 39.524c-.356-.712-.356-1.283-.215-2.282.142-1-.712-3.422-.712-3.422-.873 1.506-3.394 2.4-4.508 2.738-1.229.374.566 1.223.374 2.359-.191 1.136-2.644 1.793-2.644 1.793s-.717-1.474-1.713-1.474c-.995 0-1.703 2.282-1.137 3.49a1.617 1.617 0 0 0 1.786.936s-.068 2.14 1.283 2.779a25.135 25.135 0 0 0 4.494 1.638c.854.141 1.708-.283 2.065-1.565.278-1.292.469-2.602.57-3.92a9.173 9.173 0 0 0 1.64-1.368c.343-.493-.927-.99-1.283-1.702z"/><path fill="none" stroke="#263238" stroke-linecap="round" stroke-linejoin="round" stroke-miterlimit="20" stroke-width=".5" d="M45.446 39.524c-.356-.712-.356-1.283-.215-2.282.142-1-.712-3.422-.712-3.422v0c-.873 1.506-3.394 2.4-4.508 2.738-1.229.374.566 1.223.374 2.359-.191 1.136-2.644 1.793-2.644 1.793v0s-.717-1.474-1.713-1.474c-.995 0-1.703 2.282-1.137 3.49a1.617 1.617 0 0 0 1.786.936s-.068 2.14 1.283 2.779a25.135 25.135 0 0 0 4.494 1.638c.854.141 1.708-.283 2.065-1.565.278-1.292.469-2.602.57-3.92a9.173 9.173 0 0 0 1.64-1.368c.343-.493-.927-.99-1.283-1.702z"/></g><g><path fill="#263238" d="M44.056 39.557c0 .393-.128.707-.283.707-.155 0-.283-.314-.283-.707 0-.392.128-.707.283-.707.155 0 .283.315.283.707z"/></g><g><path fill="none" stroke="#263238" stroke-linecap="round" stroke-linejoin="round" stroke-miterlimit="20" stroke-width=".5" d="M42.83 38.38s.758-.854 1.324-.662"/></g><g><path fill="none" stroke="#263238" stroke-linecap="round" stroke-linejoin="round" stroke-miterlimit="20" stroke-width=".5" d="M44.147 44.226a2.057 2.057 0 0 1-1.987-.456"/></g><g><path fill="#fff" d="M17.211 133.11s-1.703 3.413-1.64 3.878c.065.466 3.444 2.912 5.025 3.77 1.58.857 4.439.994 4.238-.197-.201-1.19-2.914-1.985-3.576-3.773a28.902 28.902 0 0 1-.914-2.825 5.86 5.86 0 0 1-3.133-.853z"/><path fill="none" stroke="#263238" stroke-linecap="round" stroke-linejoin="round" stroke-miterlimit="20" stroke-width=".5" d="M17.211 133.11v0s-1.703 3.413-1.64 3.878c.065.466 3.444 2.912 5.025 3.77 1.58.857 4.439.994 4.238-.197-.201-1.19-2.914-1.985-3.576-3.773a28.902 28.902 0 0 1-.914-2.825 5.86 5.86 0 0 1-3.133-.853z"/></g><g><path fill="#fff" d="M24.846 140.578a6.678 6.678 0 0 1-3.576-.507c-2.453-1.063-4.828-3.235-5.48-3.851-.117.246-.19.51-.22.78.069.457 3.444 2.911 5.024 3.77 1.58.857 4.416.976 4.252-.192z"/><path fill="none" stroke="#263238" stroke-linecap="round" stroke-linejoin="round" stroke-miterlimit="20" stroke-width=".5" d="M24.846 140.578a6.678 6.678 0 0 1-3.576-.507c-2.453-1.063-4.828-3.235-5.48-3.851-.117.246-.19.51-.22.78.069.457 3.444 2.911 5.024 3.77 1.58.857 4.416.976 4.252-.192z"/></g></g></g></g></svg>