<svg xmlns="http://www.w3.org/2000/svg" width="161" height="167" viewBox="0 0 161 167"><g><g><g><g><path fill="#adc7f7" d="M109.107.035C94.949.277 84.034 11.854 71.914 19.177c-18.3 11.058-41.803 13.304-57.261 28.077C4.073 57.381-1.151 72.627.326 87.193c1.477 14.565 9.477 28.219 21.046 37.196 7.377 5.719 16.035 9.577 24.87 12.596 8.953 3.054 18.276 5.319 27.738 5.438 13.111.166 25.992-3.8 37.854-9.396 8.25-3.888 16.204-8.642 22.692-15.054 6.13-6.054 10.83-13.492 14.05-21.484 7.958-19.754 6.692-42.397-.208-62.547C142.661 17.277 128.707-.304 109.107.035z"/></g><g opacity=".7"><path fill="#fff" d="M109.107.035C94.949.277 84.034 11.854 71.914 19.177c-18.3 11.058-41.803 13.304-57.261 28.077C4.073 57.381-1.151 72.627.326 87.193c1.477 14.565 9.477 28.219 21.046 37.196 7.377 5.719 16.035 9.577 24.87 12.596 8.953 3.054 18.276 5.319 27.738 5.438 13.111.166 25.992-3.8 37.854-9.396 8.25-3.888 16.204-8.642 22.692-15.054 6.13-6.054 10.83-13.492 14.05-21.484 7.958-19.754 6.692-42.397-.208-62.547C142.661 17.277 128.707-.304 109.107.035z"/></g></g><g><g opacity=".1"><path d="M25.055 97.348a27.208 27.208 0 0 1-.273-3.132c.214 1.104.448 2.205.694 3.309-.14-.061-.28-.123-.421-.177zm92.83-15.786a147.26 147.26 0 0 0-.6-9.181c-.419-6.385-1.219-12.346-2.669-16.096-7.984-1.635-49.465 1.411-49.496 1.411l-.258-1.153-.104-.458-.184-.804-.05-.185a43.29 43.29 0 0 0-.927-3.223S32.15 49.066 21.72 51.79v.273l.03 2.573c.032 4.98-.084 9.654.174 14.784v.039a.835.835 0 0 0-.15 0c-.826.109-1.52.672-1.796 1.458a2.204 2.204 0 0 0-.112.93l.139 1.62v.077c.384 4.084.769 8.13.769 8.13s.2.02.527.035l1.727.123c-3.677.338-7.693 5.192-7.516 9.365.177 4.173-3.846 12.031-2.842 16.539.77 3.523 4.727 9.188 6.654 13.492l-.15.854-8.604 17.277c.577-.846 5.77 21.73 29.885 16.95l17.157-27.954a33.1 33.1 0 0 0 5.223-4.911 8.542 8.542 0 0 0 1.62-2.239 11.962 11.962 0 0 0 1.388-3.154c.077-.292.158-.58.242-.877 1.4-3.565 3.27-8.43 4.639-11.8 18.077-.538 37.058-1.642 46.588-3.884h.02c.923-6.27.942-13.304.553-19.927z"/></g><g><path fill="#fff" d="M8.6 138.246s7.723 22.835 31.85 18.054c0 0 5.354-25.135 9.838-28.846 2.893-2.385 9.281-6.662 10.647-9.758 1.365-3.096 6.85-17.8 7.911-19.57C69.908 96.359 57.338 76 57.338 76L30.862 89.662 16.13 115.815s-2.827 16.923-7.531 22.431z"/></g><g><path fill="none" stroke="#263238" stroke-linecap="round" stroke-linejoin="round" stroke-miterlimit="20" stroke-width=".5" d="M15.87 117.86s-1.888 14.12-8.13 21.496"/></g><g><path fill="none" stroke="#263238" stroke-linecap="round" stroke-linejoin="round" stroke-miterlimit="20" stroke-width=".5" d="M40.45 156.306v0s5.323-24.32 9.838-28.846c0 0 10.2-5.93 12.039-12.912 1.273-4.834 3.588-10.407 4.696-12.938"/></g><g><path fill="none" stroke="#263238" stroke-linecap="round" stroke-linejoin="round" stroke-miterlimit="20" stroke-width=".5" d="M42.596 102.388c-.384-.246 6.173 5 6.427 12.17"/></g><g><path fill="#adc7f7" d="M113.816 97.99c-21.261 5-89.738 4.343-89.738 4.343-.577-1.216-1.273-4.277-1.946-7.824-1.346-7.119-2.604-16.192-2.604-16.192l-2.266-.158s-.384-4.046-.769-8.13c-.384-4.085 1.923-4.081 1.923-4.081l-.165-14.139-.042-3.53c10.43-2.723 41.877.084 41.877.084l.98 3.408.546 2.415 49.493-1.396c4.538 11.735 2.711 45.2 2.711 45.2z"/></g><g transform="rotate(-2.862 89.5 70)"><path fill="#263238" d="M70.97 66.92a2.42 2.42 0 0 1 2.42-2.42h32.507a2.42 2.42 0 0 1 2.42 2.42v6.61a2.42 2.42 0 0 1-2.42 2.419H73.39a2.42 2.42 0 0 1-2.419-2.42z"/></g><g><path fill="#263238" d="M108.284 79.44l.104 1.096-37.377 1.446-.031-.984 37.304-1.558z"/></g><g><path fill="#263238" d="M108.473 83.25l.035.985-37.373 1.38-.035-.98 37.373-1.385z"/></g><g opacity=".3"><path d="M111.096 52.795s5.516 26.154 2.72 45.2c0 0-34.878 4.093-46.82 3.431l-.488-6.365 1-.154s-4.816-36.33-5.908-40.715c0 0 41.535-3.035 49.496-1.397z"/></g><g opacity=".8"><path fill="#fff" d="M65.356 94.97l.411 4.812s-35.154 1.538-38.246.419c-3.092-1.12.165-2.904 8.342-3.546 8.177-.643 29.493-1.685 29.493-1.685z"/></g><g><path fill="#263238" d="M44.372 74.555c1.773 0 3.211-1.301 3.211-2.907s-1.438-2.908-3.211-2.908c-1.774 0-3.212 1.302-3.212 2.908 0 1.606 1.438 2.907 3.212 2.907z"/></g><g><path fill="none" stroke="#263238" stroke-linecap="round" stroke-linejoin="round" stroke-miterlimit="20" stroke-width=".5" d="M19.53 78.313a124.616 124.616 0 0 0 4.546 24.02c14.912-.127 29.82-.293 44.727-.77 14.908-.476 30.227-1.484 45-3.573 0 0 2.646-23.369-2.72-45.2-5.93-1.234-49.33 1.389-49.33 1.389v0"/></g><g><path fill="none" stroke="#263238" stroke-linecap="round" stroke-linejoin="round" stroke-miterlimit="20" stroke-width=".5" d="M65.36 94.962v0l.412 4.812v0l-33.461.77c-1.381.118-3.531.3-4.8-.35-.577-.297-.993-1.02-.72-1.612.247-.531.893-.72 1.47-.835 4.092-.842 8.269-1.196 12.434-1.504a559.283 559.283 0 0 1 26.797-1.342c-.189 0-2.37-17.996-2.612-19.658-.946-6.5-1.846-13.027-3.015-19.492a52.527 52.527 0 0 0-1.804-7.389c-13.785-.984-28.181-1.896-41.881-.084.127 6.104-.1 11.538.212 17.67"/></g><g><path fill="none" stroke="#263238" stroke-linecap="round" stroke-linejoin="round" stroke-miterlimit="20" stroke-width=".5" d="M23.565 100.52a2.981 2.981 0 0 1-.146-.77"/></g><g><path fill="none" stroke="#263238" stroke-dasharray="1.504 1.504" stroke-linecap="round" stroke-linejoin="round" stroke-miterlimit="20" stroke-width=".5" d="M23.64 98.297c.512-1.28 2.046-2.727 6.22-3.189 7.61-.846 24.203-2.369 33.938-2.738"/></g><g><path fill="none" stroke="#263238" stroke-linecap="round" stroke-linejoin="round" stroke-miterlimit="20" stroke-width=".5" d="M64.55 92.346v0l.77-.027v0l-.105-.769v0"/></g><g><path fill="none" stroke="#263238" stroke-dasharray="1.493 1.493" stroke-linecap="round" stroke-linejoin="round" stroke-miterlimit="20" stroke-width=".5" d="M64.998 90.074c-1.75-12.589-3.689-25.085-5.908-37.604"/></g><g><path fill="none" stroke="#263238" stroke-linecap="round" stroke-linejoin="round" stroke-miterlimit="20" stroke-width=".5" d="M58.968 51.733v0l-.139-.77v0l-.769-.053v0"/></g><g><path fill="none" stroke="#263238" stroke-dasharray="1.564 1.564" stroke-linecap="round" stroke-linejoin="round" stroke-miterlimit="20" stroke-width=".5" d="M56.51 50.81c-6.397-.427-24.585-1.493-36.72-.662"/></g><g><path fill="none" stroke="#263238" stroke-linecap="round" stroke-linejoin="round" stroke-miterlimit="20" stroke-width=".5" d="M19 50.212l-.77.061"/></g><g><path fill="none" stroke="#263238" stroke-linecap="round" stroke-linejoin="round" stroke-miterlimit="20" stroke-width=".5" d="M17.259 78.165l-.92-9.807a2.2 2.2 0 0 1 2.066-2.404c5.654-.327 20.277-1.096 25.889-.646 2.692.215 5.619 1.08 6.923 3.657 1.084 2.123 1.246 5.308-.573 7.054-2.77 2.654-8.023 2.45-11.593 2.577-6.646.254-21.788-.373-21.792-.43z"/></g><g><path fill="#263238" d="M52.034 72.17c0-.274 1.4 5.634-3.716 7.584-5.115 1.95-28.788 1.334-28.788 1.334V78.32s16.746.354 19.535.277c2.788-.077 12.669.85 12.969-6.427z"/></g><g><path fill="none" stroke="#263238" stroke-linecap="round" stroke-linejoin="round" stroke-miterlimit="20" stroke-width=".5" d="M47.11 105.17s4.185 2.45 5.75 7.054"/></g><g><path fill="none" stroke="#263238" stroke-dasharray="1.538 1.538" stroke-linecap="round" stroke-linejoin="round" stroke-miterlimit="20" stroke-width=".5" d="M16.46 67.423v0s20.523-.965 25.746-.792c5.223.173 7.78 1.323 8.3 4.596.52 3.273-2.646 5.311-5.17 5.696-2.522.385-28.076.496-28.076.496v0"/></g><g><path fill="#fff" d="M30.558 107.07s-3.177-11.035-9.023-13.208c0 0-1.154-7.531 1.338-7.947 2.492-.415 9.53-5.053 7.692-10.842-1.838-5.788-7.357 2.904-11.034 3.239-3.677.334-7.693 5.192-7.527 9.369.165 4.177-3.846 12.034-2.843 16.538 1.004 4.504 7.193 12.539 7.693 16.72"/><path fill="none" stroke="#263238" stroke-linecap="round" stroke-linejoin="round" stroke-miterlimit="20" stroke-width=".5" d="M30.558 107.07v0s-3.177-11.035-9.023-13.208c0 0-1.154-7.531 1.338-7.947 2.492-.415 9.53-5.053 7.692-10.842-1.838-5.788-7.357 2.904-11.034 3.239-3.677.334-7.693 5.192-7.527 9.369.165 4.177-3.846 12.034-2.843 16.538 1.004 4.504 7.193 12.539 7.693 16.72"/></g><g><path fill="#fff" d="M22.87 76.62s4.404.8 6.796-1.997c2.392-2.796-.361-2.973-.361-2.973z"/><path fill="none" stroke="#263238" stroke-linecap="round" stroke-linejoin="round" stroke-miterlimit="20" stroke-width=".5" d="M22.87 76.62v0s4.404.8 6.796-1.997c2.392-2.796-.361-2.973-.361-2.973v0z"/></g><g><path fill="none" stroke="#263238" stroke-linecap="round" stroke-linejoin="round" stroke-miterlimit="20" stroke-width=".5" d="M15 82.85c.804.055 1.581.31 2.262.742"/></g><g><path fill="none" stroke="#263238" stroke-linecap="round" stroke-linejoin="round" stroke-miterlimit="20" stroke-width=".5" d="M14.87 84.45c.8.076 1.564.377 2.2.87"/></g><g><path fill="none" stroke="#263238" stroke-linecap="round" stroke-linejoin="round" stroke-miterlimit="20" stroke-width=".5" d="M26.75 99.23s18.846-.972 23.808-.688"/></g><g><path fill="none" stroke="#263238" stroke-linecap="round" stroke-linejoin="round" stroke-miterlimit="20" stroke-width=".5" d="M45.97 97.108s4.742-.385 7.692 0"/></g><g><path fill="none" stroke="#263238" stroke-linecap="round" stroke-linejoin="round" stroke-miterlimit="20" stroke-width=".5" d="M57.99 98.492h7.673"/></g><g><path fill="none" stroke="#263238" stroke-dasharray="1.538 1.538" stroke-linecap="round" stroke-linejoin="round" stroke-miterlimit="20" stroke-width=".5" d="M62.63 56.343v0s33.704-3.012 47.246-1.293c0 0 3.654 6.72 2.858 41.154a432.1 432.1 0 0 1-45.877 3.412"/></g></g><g><g opacity=".1"><g opacity=".1"><path d="M133.671 62.576c.526 2.454 1.356 5.985 2.456 9.404a61.453 61.453 0 0 1-2.463-9.404zm-25.515 47.33l-.885-1.753c-1.23-3.53-4.011-11.854-4.023-11.889a48.077 48.077 0 0 0-2.177-7.038 4.188 4.188 0 0 0 3.927-.615l6.731-5.112c.696.42 1.408.796 2.104 1.127l6.304 4.927-5 20.55zm6.4 1.618c-.237 0-.473-.018-.708-.051zm-6.262-1.329l-.065-.123a15.562 15.562 0 0 0 4.23 1.231c-1.534-.177-3.268-.423-4.165-1.108zm45.577-6.204c-.957-4.073-2.361-5.603-3.769-6.78 0 0-.03-2.308-1.835-3.623-.481-.425-.996-.81-1.538-1.154a635.65 635.65 0 0 1-3.558-2.693c-.877-2.538-2.065-5.611-3.35-8.634l.066.688c-1.316-3.211-2.604-6.407-2.966-7.469v-.023c.385 1.023.77 2.011 1.193 2.923l-4.816-17.02a141.5 141.5 0 0 0-.354-2.007c-.23-1.923-.857-5.546-2.369-5.804a1.26 1.26 0 0 0-.17 0s-1.78-.769-1.78 2.389c-2.12.707-2.938 2.307-3.142 4.188a5.623 5.623 0 0 0-.039 1.808c.039.696.12 1.408.227 2.115l-6.823-8.969-.657-.854-8.416-11.077-11.311-14.923a5.296 5.296 0 0 0-7.423-1.011L76.998 36.726l-5.48 4.162c-4.204 2.188-3.108 6.511-1.943 8.046l24.489 32.234a2.551 2.551 0 0 0-.385-.019s-.7-1.65-2.43-1.388a2.004 2.004 0 0 0-1.032.342 1.85 1.85 0 0 0-.688.627 5.469 5.469 0 0 0-.515.738c-.881 1.508-.066 5.196 1.207 9.7.081.293.162.573.239.835v.042l.327 1.127c1.246 4.323 3.577 12.812 4.007 16.973.031.385.05.796.058 1.181.027 4.792-2.1 12.815-1.185 16.13.12.435.243.85.366 1.262.68 2.216 1.288 4.312 2.358 6.393 1.3 2.538 2.85 4.973 4.3 7.43a386.017 386.017 0 0 0 8.261 13.385c1.312 2.023 2.846 3.87 4.33 5.77.682.872 2.166 2.184 2.424 3.303 0 0 13.165 1.089 20.535-3.592l-.693-10.477 4.943-28.404c1.411-2.142 5.769-6.327 6.638-7.65.45-.658.888-1.312 1.315-1.95 3.25-3.035 4.877-5.385 5.593-8.12.015.008-.035-.303-.166-.815z"/></g><g opacity=".1"><path d="M105.093 161.33l.038.185"/></g></g><g><path fill="#fff" d="M128.463 63.335c.385-.254 6.023-3.323 8.846 5.88 2.823 9.204 6.135 24.866 6.135 24.866l-6.708 1.304s-6.215-3.308-11.785-11.593c0 0-7.807-2.023-11.207-6.83-3.077-4.37 6.415-20.412 6.415-20.412z"/></g><g><path fill="none" stroke="#263238" stroke-linecap="round" stroke-linejoin="round" stroke-miterlimit="20" stroke-width=".5" d="M126.05 74.79c1.662 2.492 4.808 7.735 9.054 9.388"/></g><g><path fill="none" stroke="#263238" stroke-linecap="round" stroke-linejoin="round" stroke-miterlimit="20" stroke-width=".5" d="M121.35 77.47c.77.312 2.692 1.42 3.6 1.462 0 0 3.92 7.757 10.385 10.276"/></g><g><path fill="none" stroke="#263238" stroke-linecap="round" stroke-linejoin="round" stroke-miterlimit="20" stroke-width=".5" d="M117.75 80.33c2.404 2.012 5.27 3.385 7.196 3.462 0 0 3.92 7.757 10.385 10.276"/></g><g transform="rotate(-37.22 104 55)"><path fill="#263238" d="M86.65 30.56a4.2 4.2 0 0 1 4.2-4.2h26.708a4.2 4.2 0 0 1 4.2 4.2v48.835a4.2 4.2 0 0 1-4.2 4.2H90.85a4.2 4.2 0 0 1-4.2-4.2z"/></g><g><path fill="#adc7f7" d="M131.54 68.842L112.025 83.67a5.288 5.288 0 0 1-7.423-1.015L76.39 45.515a5.185 5.185 0 0 1-.946-2.03 5.273 5.273 0 0 1 1.958-5.385l5.484-4.162L96.925 23.27a5.296 5.296 0 0 1 7.423 1.016l11.319 14.9 8.415 11.077 8.462 11.153a5.296 5.296 0 0 1-1.004 7.427z"/></g><g opacity=".1"><path d="M115.647 39.185l-32.777-5.25 14.05-10.666a5.296 5.296 0 0 1 7.423 1.016z"/></g><g opacity=".1"><path d="M131.536 68.848l-19.515 14.827a5.288 5.288 0 0 1-7.423-1.016L76.386 45.521a5.185 5.185 0 0 1-.946-2.031l49.285 7.665 7.815 10.289a5.296 5.296 0 0 1-1.004 7.404z"/></g><g transform="rotate(-37.22 101 32)"><path fill="#fff" d="M97.27 28.9c0-.867.703-1.57 1.57-1.57h4.326c.867 0 1.57.703 1.57 1.57v6.895a1.57 1.57 0 0 1-1.57 1.57H98.84a1.57 1.57 0 0 1-1.569-1.57z"/><path fill="none" stroke="#263238" stroke-linecap="round" stroke-linejoin="round" stroke-miterlimit="20" stroke-width=".5" d="M97.27 28.9c0-.867.703-1.57 1.57-1.57h4.326c.867 0 1.57.703 1.57 1.57v6.895a1.57 1.57 0 0 1-1.57 1.57H98.84a1.57 1.57 0 0 1-1.569-1.57z"/></g><g><path fill="#fff" d="M98.04 28.29l5.95 8.085"/><path fill="none" stroke="#263238" stroke-linecap="round" stroke-linejoin="round" stroke-miterlimit="20" stroke-width=".5" d="M98.04 28.29l5.95 8.085"/></g><g><path fill="#fff" d="M98.04 34.622l5.95-4.512"/><path fill="none" stroke="#263238" stroke-linecap="round" stroke-linejoin="round" stroke-miterlimit="20" stroke-width=".5" d="M98.04 34.622l5.95-4.512"/></g><g><path fill="#263238" d="M109.564 81.253l-1.016.746L96.16 65.692l1.008-.762 12.396 16.323z"/></g><g><path fill="#263238" d="M111.29 79.982l-1.016.754L97.87 64.402l1-.762 12.42 16.342z"/></g><g><path fill="#263238" d="M113.005 78.72l-1.012.745-12.423-16.35 1.004-.765 12.43 16.37z"/></g><g><path fill="#263238" d="M114.723 77.444l-1.015.746-12.258-16.135 1-.765 12.273 16.154z"/></g><g><path fill="#263238" d="M116.572 76.077l-1.015.75-12.277-16.162 1.004-.765 12.288 16.177z"/></g><g><path fill="#263238" d="M116.572 57.057l-1.015.746-12.277-16.161 1.004-.762 12.288 16.177z"/></g><g transform="rotate(-37.22 106.5 52)"><path fill="#263238" d="M105.36 23.47h1.973v57.192h-1.973z"/></g><g><path fill="none" stroke="#263238" stroke-linecap="round" stroke-linejoin="round" stroke-miterlimit="20" stroke-width=".5" d="M131.54 68.842L112.025 83.67a5.288 5.288 0 0 1-7.423-1.015L76.39 45.515a5.185 5.185 0 0 1-.946-2.03 5.273 5.273 0 0 1 1.958-5.385l5.484-4.162v0L96.925 23.27a5.296 5.296 0 0 1 7.423 1.016l11.319 14.9v0l8.415 11.077v0l8.462 11.153a5.296 5.296 0 0 1-1.004 7.427z"/></g><g><path fill="#fff" d="M115.72 165s22.715 8.077 29.588-9.515c0 0-10.75-13.077-4.881-23.762 3.692-6.73 13.904-21.588 13.904-21.588s4.265-4.05 5.592-8.12c0 0-.73-4.534-3.946-7.603 0 0-.035-2.308-1.839-3.623-1.803-1.316-5.111-3.846-5.111-3.846s-5.439-13.047-6.246-15.404c-.808-2.358-2.431-6.816-3.243-11.739-.811-4.923-1.561-10.223-3.284-10.207 0 0-1.777-.77-1.777 2.388 0 0-3.73 1.923-3.18 5.992.55 4.07 1.057 6.173.91 8.462-.146 2.288.59 10.234 2.428 12.727 0 0 .615 11.154 1.538 14.057.03.089.058.17.085.243.969 2.457-8.716 11.923-13.958 14.484 0 0-.55 1.023-2.585.743-2.034-.281-5.477-.412-6.069-1.923-.592-1.512-4.535-13.304-4.535-13.304s-3.188-15.116-9.557-15.112c0 0-.966-2.307-3.462-1.046-2.496 1.262-.861 8.139.243 11.9 1.103 3.762 3.9 13.65 4.353 18.2.454 4.55-2.123 13.665-1.153 17.25.969 3.585 2.046 6.004 5.138 11.873 3.092 5.87 9.942 23.37 11.046 28.473z"/></g><g><path fill="none" stroke="#263238" stroke-linecap="round" stroke-linejoin="round" stroke-miterlimit="20" stroke-width=".5" d="M115.722 164.996v0s-4.861-18.3-12.007-30.134c-7.147-11.835-2.943-16.02-2.943-25.87 0-9.85-8.027-26.619-5.861-30.315 2.165-3.696 5.119-.739 6.354 2.711 1.234 3.45-.493 5.424-3.954 5.67"/></g><g><path fill="none" stroke="#263238" stroke-linecap="round" stroke-linejoin="round" stroke-miterlimit="20" stroke-width=".5" d="M99.55 78.361v0s4.15-.254 6.7 6.381 6.635 23.462 10.888 28.58"/></g><g><path fill="none" stroke="#263238" stroke-linecap="round" stroke-linejoin="round" stroke-miterlimit="20" stroke-width=".5" d="M113.78 107.11c.023.054 5.942 3.354 15.127.462"/></g><g><path fill="none" stroke="#263238" stroke-linecap="round" stroke-linejoin="round" stroke-miterlimit="20" stroke-width=".5" d="M100.34 97.837a4.158 4.158 0 0 1 3.885-1.473"/></g><g><path fill="none" stroke="#263238" stroke-linecap="round" stroke-linejoin="round" stroke-miterlimit="20" stroke-width=".5" d="M101.13 99.927a3.312 3.312 0 0 1 3.342-1.088"/></g><g><path fill="none" stroke="#263238" stroke-linecap="round" stroke-linejoin="round" stroke-miterlimit="20" stroke-width=".5" d="M134.476 51.97c-6.038 2.012-1.538 11.13-2.27 14.458-.73 3.327 1.155 9.696 2.605 13.15 0 4.05 1.442 13.877 1.442 13.877-.892 3.127-8.338 12.342-15.573 15.227"/></g><g><path fill="none" stroke="#263238" stroke-linecap="round" stroke-linejoin="round" stroke-miterlimit="20" stroke-width=".5" d="M138.913 56.56s-.45-6.98-2.654-6.98c-2.204 0-2.07 4.704-1.154 8.196.915 3.492 4.477 2.992 3.808-1.215z"/></g><g><path fill="none" stroke="#263238" stroke-linecap="round" stroke-linejoin="round" stroke-miterlimit="20" stroke-width=".5" d="M138.91 56.56s1.877 10.973 5.058 17.865"/></g><g><path fill="none" stroke="#263238" stroke-linecap="round" stroke-linejoin="round" stroke-miterlimit="20" stroke-width=".5" d="M147.715 100.125c1.538-2.492 2.219-4.85 2.788-7.85-.142-1.88-2.308-8.019-4.823-13.965"/></g><g><path fill="none" stroke="#263238" stroke-linecap="round" stroke-linejoin="round" stroke-miterlimit="20" stroke-width=".5" d="M149.23 87.52c2.496 1.877 6.838 3.32 6.338 6.558a27.227 27.227 0 0 1-3.346 9.188"/></g><g><path fill="none" stroke="#263238" stroke-linecap="round" stroke-linejoin="round" stroke-miterlimit="20" stroke-width=".5" d="M145.865 156.303v0s-8.697-12.073-6.954-20.411c1.28-6.135 9.515-16.862 15.423-25.747 3.254-3.034 4.88-5.384 5.592-8.119-1.042-5.134-2.734-6.63-4.361-7.946"/></g><g><path fill="none" stroke="#263238" stroke-linecap="round" stroke-linejoin="round" stroke-miterlimit="20" stroke-width=".5" d="M148.176 89.514a7.35 7.35 0 0 0-5.796.789"/></g><g><path fill="none" stroke="#263238" stroke-linecap="round" stroke-linejoin="round" stroke-miterlimit="20" stroke-width=".5" d="M147.688 91.582a5.482 5.482 0 0 0-3.438.603"/></g></g></g></g></svg>