<svg xmlns="http://www.w3.org/2000/svg" width="20" height="20" viewBox="0 0 20 20"><g><g><g/><g><path fill="#828282" d="M18 10c0-.78-.12-1.53-.33-2.24-.7.15-1.42.24-2.17.24a10 10 0 0 1-7.76-3.69A10.016 10.016 0 0 1 2 9.86c.01.04 0 .09 0 .14 0 4.41 3.59 8 8 8s8-3.59 8-8zM2.42 7.47a8.046 8.046 0 0 0 3.66-4.44zm6.24-5.35C10.06 4.44 12.6 6 15.5 6c.46 0 .91-.05 1.34-.12C15.44 3.56 12.9 2 10 2c-.46 0-.91.05-1.34.12zM20 10c0 5.52-4.48 10-10 10S0 15.52 0 10 4.48 0 10 0s10 4.48 10 10zm-5.75 1a1.25 1.25 0 1 1-2.5 0 1.25 1.25 0 0 1 2.5 0zm-6 0a1.25 1.25 0 1 1-2.5 0 1.25 1.25 0 0 1 2.5 0z"/></g></g></g></svg>