<svg xmlns="http://www.w3.org/2000/svg" width="20" height="20" viewBox="0 0 20 20"><g><g><g><path fill="#ffc10e" d="M9.999 19.997c5.522 0 9.998-4.476 9.998-9.998C19.997 4.477 15.521 0 10 0 4.477 0 0 4.477 0 9.999s4.477 9.998 9.999 9.998z"/></g><g><g><path fill="#333" d="M6.96 9.7a1.57 1.57 0 1 0 0-3.14 1.57 1.57 0 0 0 0 3.14z"/></g><g><path fill="#333" d="M12.9 9.7a1.57 1.57 0 1 0 0-3.14 1.57 1.57 0 0 0 0 3.14z"/></g><g><path fill="#333" d="M13.425 4.278l-3.63 1.608h.4l-3.63-1.608c-.461-.204-.863.476-.399.681l1.958.868 1.257.557c.17.076.42.238.614.238s.444-.162.614-.238l1.257-.557 1.958-.868c.464-.205.062-.885-.399-.681z"/></g><g><path fill="#333" d="M4.442 13.79h10.935c.51 0 .51-.79 0-.79H4.442c-.51 0-.51.79 0 .79z"/></g></g></g></g></svg>