<svg xmlns="http://www.w3.org/2000/svg" width="20" height="20" viewBox="0 0 20 20"><g><g><g><path fill="#3f70ca" d="M10 20c5.523 0 10-4.477 10-10S15.523 0 10 0 0 4.477 0 10s4.477 10 10 10z"/></g><g><g><path fill="#ffc380" d="M12.225 8.934H8.949a.379.379 0 0 1-.193-.705c1.427-.843 2.169-1.827 2.266-3.007a.814.814 0 0 1 .814-.732c.422.007.818.176 1.115.477.297.301.46.7.46 1.123v.128c0 1.033-.306 1.692-.87 2.546a.379.379 0 0 1-.316.17z"/></g><g><path fill="#ffcf99" d="M16.241 9.357c0-.655-.532-1.187-1.187-1.187H8.951a.379.379 0 0 0-.193.053c-.429.253-.861.462-1.209.63l-.34.165A.379.379 0 0 0 7 9.357v4.847c0 .144.081.275.21.34 1.53.764 2.802.857 4.285.857.23 0 .465-.002.706-.005.268-.002.544-.005.833-.005h1.198a1.188 1.188 0 0 0 1.021-1.79 1.187 1.187 0 0 0 .404-1.616 1.187 1.187 0 0 0 .259-1.812c.21-.221.325-.51.325-.816z"/></g><g><path fill="#73c3ff" d="M6.137 13.409v1.994H5.38V13.41a.379.379 0 0 1 .757 0z"/></g><g><path fill="#73c3ff" d="M6.137 13.409v1.994H5.38V13.41a.379.379 0 0 1 .757 0z"/></g><g><path fill="#ff6243" d="M7.37 8.17H4.14c-.21 0-.379.17-.379.379v6.463c0 .21.17.38.379.384h2.424a1.2 1.2 0 0 0 1.186-1.192V8.55c0-.21-.17-.379-.378-.379z"/></g><g><path fill="#d24a2f" d="M6.137 13.379v2.02H5.38v-2.02a.379.379 0 0 1 .757 0z"/></g></g></g></g></svg>