<?xml version="1.0" encoding="UTF-8"?>
<svg width="184px" height="161px" viewBox="0 0 184 161" version="1.1" xmlns="http://www.w3.org/2000/svg" xmlns:xlink="http://www.w3.org/1999/xlink">
    <title>Mail sent-bro</title>
    <g id="Page-1" stroke="none" stroke-width="1" fill="none" fill-rule="evenodd" opacity="0.497307187">
        <g id="no-alerts" transform="translate(-880.000000, -137.000000)">
            <g id="Group-2" transform="translate(880.000000, 93.000000)">
                <g id="Mail-sent-bro" transform="translate(0.000000, 44.000000)">
                    <g id="freepik--background-simple--inject-1--inject-58" transform="translate(0.000000, 22.780255)" fill="#F9FBFF" fill-rule="nonzero">
                        <path d="M146.336762,110.966857 C146.336762,110.966857 160.279441,107.309714 171.189917,89.024 C183.418743,68.5257143 178.172622,32.7588571 161.88419,15.3828571 C146.773181,-0.731428571 113.318933,-3.56571429 93.9073778,4.29714286 C75.5641397,11.7302857 61.4759873,29.5954286 50.265473,32.032 C39.0549587,34.4685714 25.1077333,30.5097143 9.95580952,47.2685714 C-5.19611429,64.0274286 -1.86387302,101.824 15.4110476,114.317714 C32.6859683,126.811429 58.143746,112.182857 80.2692825,102.125714 C102.394819,92.0685714 106.027098,114.011429 146.336762,110.966857 Z" id="Path"></path>
                    </g>
                    <g id="freepik--Character--inject-1--inject-58" transform="translate(17.000000, 38.780255)">
                        <path d="M125.001273,57.7602597 L125.001273,57.7329714 C121.275072,56.5004494 115.557909,56.9188701 114.708555,57.4237039 C113.805536,58.0257562 113.029827,58.7983438 112.425343,59.6977299 C110.418305,62.5337332 108.979466,65.7287569 108.187702,69.1076494 L67.6606949,72.8597922 C66.1674745,69.6488675 63.9162277,66.7699506 61.6558482,65.0325948 C61.0099832,64.493989 60.2657154,64.0847443 59.463965,63.827361 C59.1110441,63.7853136 58.7537292,63.7975852 58.4045547,63.8637455 C56.9341664,59.620413 54.8518774,55.5271662 52.2490161,55.2679273 C46.769308,54.722161 37.2072175,56.5504779 34.5997898,61.8444104 C31.992362,67.1383429 31.1749723,80.3549818 31.1749723,80.3549818 L29.3484029,82.1742026 C28.0161856,79.5892645 26.1632305,77.3056126 23.9052263,75.465826 C23.2614991,74.9241203 22.5165882,74.514522 21.7133431,74.2605922 C21.2567007,74.1332468 19.4301314,74.415226 17.5168,75.0383091 C17.4391708,74.9655403 17.366108,74.8927714 17.2839124,74.8245506 C15.4573431,73.3009532 11.7128759,72.4686597 9.62145401,76.3526961 C7.53003212,80.2367325 10.041565,87.5909325 11.292765,89.2555195 C11.9004116,90.1058622 12.6624106,90.8354871 13.5394453,91.4067481 C15.0144,95.0451896 17.6492263,99.6842026 21.7042102,99.897961 C24.5145408,100.04859 27.2520899,98.9765618 29.2068438,96.9599195 C31.8371036,94.2310883 32.1202219,90.3970805 31.129308,86.6449377 L31.5539854,86.0264026 C31.5539854,86.0264026 32.499235,87.3680779 36.1204088,86.8268597 C37.1701439,86.719188 38.1653609,86.3081587 38.9835562,85.6443662 C40.6822657,89.9604675 43.4266861,94.2856649 47.7876204,94.9314883 C51.5747801,95.5085901 55.4266724,94.4162715 58.3406248,91.9388701 C59.1776394,91.2189048 59.9079253,90.3843688 60.5096759,89.4601818 C62.951448,89.3259564 65.2517426,88.2763026 66.9483328,86.5221403 C68.4663368,84.9097249 69.3344764,82.7966834 69.3868029,80.5869325 L74.7797489,79.9593013 C78.1651763,81.4632707 81.8586681,82.1519431 85.5610745,81.9695403 C89.1063953,81.7426986 92.462363,80.2957436 95.0546686,77.8762935 L107.342914,76.8302416 C107.548403,81.5738597 109.260812,85.9263455 113.279264,88.3231688 C116.39285,90.1740422 120.163929,90.5745614 123.599381,89.4192494 C129.266312,87.5272597 130.608841,79.1406519 130.974155,74.0422857 C131.540391,65.8557922 128.919264,58.920013 125.001273,57.7602597 Z" id="Path" stroke="#263238" stroke-width="0.5" fill="#263238" fill-rule="nonzero" stroke-linecap="round" stroke-linejoin="round"></path>
                        <path d="M49.9749372,92.2981662 C49.5037035,92.8981721 48.9028024,93.3847314 48.2168642,93.7217065" id="Path" stroke="#FFFFFF" stroke-width="0.5" stroke-linecap="round" stroke-linejoin="round"></path>
                        <path d="M52.1896526,81.5192831 C52.1896526,81.5192831 52.7330569,87.4317506 50.7101314,91.1838935" id="Path" stroke="#FFFFFF" stroke-width="0.5" stroke-linecap="round" stroke-linejoin="round"></path>
                        <path d="M53.7924672,88.0502857 C53.2764613,90.3243117 52.2490161,92.5301169 50.2580555,93.5079481" id="Path" stroke="#FFFFFF" stroke-width="0.5" stroke-linecap="round" stroke-linejoin="round"></path>
                        <path d="M56.272035,81.069026 C56.272035,81.069026 57.1853197,90.8973662 52.3038131,93.2714494" id="Path" stroke="#FFFFFF" stroke-width="0.5" stroke-linecap="round" stroke-linejoin="round"></path>
                        <path d="M58.3177927,80.8416234 C58.3177927,80.8416234 59.2310774,90.6745117 54.3450044,93.0440468" id="Path" stroke="#FFFFFF" stroke-width="0.5" stroke-linecap="round" stroke-linejoin="round"></path>
                        <path d="M119.92341,87.7319221 C119.398538,88.3920357 118.746461,88.9409789 118.005512,89.3464805" id="Path" stroke="#FFFFFF" stroke-width="0.5" stroke-linecap="round" stroke-linejoin="round"></path>
                        <path d="M123.594815,75.4567299 C123.594815,75.4567299 123.302564,82.1832987 120.795597,86.4630156" id="Path" stroke="#FFFFFF" stroke-width="0.5" stroke-linecap="round" stroke-linejoin="round"></path>
                        <path d="M124.247813,82.906439 C123.425857,85.4942805 122.110727,88.0048052 120.033004,89.0963377" id="Path" stroke="#FFFFFF" stroke-width="0.5" stroke-linecap="round" stroke-linejoin="round"></path>
                        <path d="M127.649799,74.9564442 C127.649799,74.9564442 127.161191,86.1628442 122.060496,88.8461948" id="Path" stroke="#FFFFFF" stroke-width="0.5" stroke-linecap="round" stroke-linejoin="round"></path>
                        <path d="M129.686423,74.7108494 C129.686423,74.7108494 129.197816,85.9127013 124.097121,88.6006" id="Path" stroke="#FFFFFF" stroke-width="0.5" stroke-linecap="round" stroke-linejoin="round"></path>
                        <path d="M22.9919416,98.3789117 C22.6033387,98.9719555 22.0909086,99.4745678 21.4895883,99.8524805" id="Path" stroke="#FFFFFF" stroke-width="0.5" stroke-linecap="round" stroke-linejoin="round"></path>
                        <path d="M23.7134365,88.8143584 C23.7134365,88.8143584 25.0011679,93.8172156 23.5490453,97.3146675" id="Path" stroke="#FFFFFF" stroke-width="0.5" stroke-linecap="round" stroke-linejoin="round"></path>
                        <path d="M26.1016759,94.1856078 C25.8961869,96.2094909 25.1883912,98.2470182 23.4211854,99.365839" id="Path" stroke="#FFFFFF" stroke-width="0.5" stroke-linecap="round" stroke-linejoin="round"></path>
                        <path d="M27.5674978,87.8410753 C27.5674978,87.8410753 29.7137168,96.1412701 25.3482161,98.8746494" id="Path" stroke="#FFFFFF" stroke-width="0.5" stroke-linecap="round" stroke-linejoin="round"></path>
                        <path d="M29.4945285,87.3498857 C29.4945285,87.3498857 31.6453139,95.6500805 27.2752467,98.3880078" id="Path" stroke="#FFFFFF" stroke-width="0.5" stroke-linecap="round" stroke-linejoin="round"></path>
                        <path d="M45.2349898,78.1491766 C46.3217985,84.3390753 45.6414015,89.6330078 43.7235036,89.9741117 C41.8056058,90.3152156 39.3625693,85.5579532 38.2757606,79.3680545 C37.1889518,73.1781558 37.8693489,67.8842234 39.7918131,67.5431195 C41.7142774,67.2020156 44.148181,71.9547299 45.2349898,78.1491766 Z" id="Path" stroke="#263238" stroke-width="0.5" fill="#ADC7F7" fill-rule="nonzero" stroke-linecap="round" stroke-linejoin="round"></path>
                        <path d="M44.266908,78.2810701 C44.568292,80.6551532 44.2897401,82.6426519 43.6367416,82.7245169 C42.9837431,82.8063818 42.2165839,80.9507766 41.9152,78.5766935 C41.6138161,76.2026104 41.9152,74.2105636 42.5453664,74.1286987 C43.1755328,74.0468338 43.9655241,75.906987 44.266908,78.2810701 Z" id="Path" stroke="#263238" stroke-width="0.5" fill="#ADC7F7" fill-rule="nonzero" stroke-linecap="round" stroke-linejoin="round"></path>
                        <path d="M39.6867854,72.6051013 C39.7515473,71.808199 39.878265,71.0174992 40.0657985,70.2401143" id="Path" stroke="#263238" stroke-width="0.5" stroke-linecap="round" stroke-linejoin="round"></path>
                        <path d="M42.7143241,87.7410182 C41.4506876,85.2210286 40.5469244,82.537486 40.0292672,79.7682831 C39.6853825,77.8094755 39.5461246,75.8204609 39.6137226,73.8330753" id="Path" stroke="#263238" stroke-width="0.5" stroke-linecap="round" stroke-linejoin="round"></path>
                        <ellipse id="Oval" stroke="#263238" stroke-width="0.5" fill="#ADC7F7" fill-rule="nonzero" stroke-linecap="round" stroke-linejoin="round" transform="translate(16.117951, 88.485078) rotate(-15.490000) translate(-16.117951, -88.485078) " cx="16.1179514" cy="88.4850781" rx="2.59299907" ry="8.36627774"></ellipse>
                        <path d="M18.1652321,87.9729688 C18.5990423,89.6648442 18.5762102,91.1293169 18.110435,91.2475662 C17.6446599,91.3658156 16.923165,90.087813 16.4893547,88.4004857 C16.0555445,86.7131584 16.0783766,85.2395896 16.5441518,85.1258883 C17.009927,85.012187 17.7314219,86.2810935 18.1652321,87.9729688 Z" id="Path" stroke="#263238" stroke-width="0.5" stroke-linecap="round" stroke-linejoin="round"></path>
                        <path d="M14.3385693,84.2754026 C14.3130915,83.6925984 14.3329386,83.1087043 14.3979328,82.5289506" id="Path" stroke="#263238" stroke-width="0.5" stroke-linecap="round" stroke-linejoin="round"></path>
                        <path d="M17.8958131,94.9587766 C16.7539478,93.2478866 15.8578654,91.3863901 15.2335883,89.4283455 C14.806881,88.0420056 14.5253084,86.6154209 14.3933664,85.1713688" id="Path" stroke="#263238" stroke-width="0.5" stroke-linecap="round" stroke-linejoin="round"></path>
                        <path d="M116.247439,11.8249351 C111.434429,1.93292208 109.356707,1.07334026 106.155644,0.90961039 C102.954581,0.745880519 95.3971504,-0.191018182 86.9766657,1.15065714 C86.9766657,1.15065714 63.4869839,0.741332468 45.312619,11.7066857 C26.3391299,23.1541325 17.1058219,33.2098753 15.8135241,38.4219429 C14.5212263,43.6340104 10.1100613,57.2144935 8.01863942,65.0007584 C5.92721752,72.7870234 4.50249343,79.6454857 7.16928467,85.9490857 C8.78123212,89.7603532 10.4982073,90.9064623 12.7037898,90.8884826 C12.3663447,90.2852028 12.0688914,89.6607851 11.8133372,89.0190208 C9.62145401,83.611387 9.88630657,75.8751506 12.3887066,75.3748649 C14.8911066,74.8745792 16.384327,80.0548104 17.8958131,85.7034909 C18.1958438,86.9485683 18.6022134,88.1658155 19.1104818,89.3419325 C22.8503825,87.9365844 28.8415299,84.7938805 36.8053723,81.5283792 C36.0493419,76.5672757 36.0324161,71.522217 36.7551416,66.5561922 C37.9332788,58.7926675 42.9152467,57.0780519 45.0842978,61.8034779 C46.8789022,65.6966104 47.5456,74.4106779 47.7236905,77.3487195 C50.9201869,76.252639 53.5961109,75.5294987 55.2445898,75.4294416 C55.2445898,75.4294416 82.4970044,69.2986675 102.584701,68.8074779 C122.672397,68.3162883 132.723095,67.8387429 132.723095,67.8387429 C132.723095,67.8387429 121.06045,21.6987558 116.247439,11.8249351 Z" id="Path" fill="#FFFFFF" fill-rule="nonzero"></path>
                        <g id="Group" transform="translate(6.392993, 0.454805)" fill="#ADC7F7" fill-rule="nonzero">
                            <path d="M45.6322686,59.097387 C45.6322686,59.097387 42.8695825,62.863174 39.5086949,63.6681792 C40.695965,68.0070208 41.1845723,74.4288701 41.3352642,76.8575299 C44.1892788,75.8796987 46.6140496,75.1929429 48.2762277,74.9928286 C48.5182482,73.5738364 48.6643737,72.668774 48.6643737,72.668774 L45.6322686,59.097387 Z" id="Path"></path>
                            <path d="M11.6215474,85.6580104 C12.8910131,85.7853558 13.7358015,86.3311221 16.3158307,85.6898468 C20.882254,84.5573818 17.5989956,75.7796416 25.174692,72.1957766 C26.6453019,71.4572008 28.2456215,71.0093078 29.8872409,70.8768416 C29.9553547,69.2706076 30.107777,67.6690214 30.3438832,66.0786468 C30.545005,64.516509 31.0080866,62.9990998 31.7138102,61.5897195 C29.6452204,60.9575403 29.2707737,60.3526494 25.7454949,62.0217844 C18.1652321,65.6056494 19.3022715,74.851839 14.7586803,75.9843039 C11.1329401,76.8939143 10.9320175,75.4430857 8.17846423,76.1161974 C9.46619562,77.9354182 10.4616759,81.4783506 11.4662891,85.2123013 C11.5439182,85.3805792 11.5804496,85.5033766 11.6215474,85.6580104 Z" id="Path" opacity="0.2"></path>
                            <path d="M4.1645781,77.8853896 C2.04119124,79.3407662 0.776291971,81.5238312 0.0547970803,83.3657922 C0.250510661,84.0925462 0.491475297,84.8064559 0.776291971,85.5033766 C2.38823942,89.3146442 4.1052146,90.4607532 6.31079708,90.442561 C5.97335198,89.8394937 5.67589872,89.2150761 5.42034453,88.5733117 C4.0275854,85.1304364 3.65313869,80.7506623 4.1645781,77.8853896 Z" id="Path" opacity="0.2"></path>
                            <path d="M99.7626511,0.454805195 L98.9361285,0.404776623 C65.6332029,8.89144156 52.0846248,48.8688182 47.4223066,68.1343662 C47.6734599,70.0490961 47.9474453,71.9274416 48.2442628,73.7557584 C48.8104993,73.6466052 48.4177869,74.9746364 48.8515971,74.9521849 C48.8515971,74.9521849 76.1040117,68.8211221 96.191708,68.3299325 C116.279404,67.8387429 126.330102,67.3611974 126.330102,67.3611974 C126.330102,67.3611974 114.667457,21.2439506 109.854447,11.3701299 C105.041436,1.49630909 102.963714,0.600342857 99.7626511,0.454805195 Z" id="Path" opacity="0.2" style="mix-blend-mode: multiply;"></path>
                        </g>
                        <path d="M116.247439,11.8249351 C111.434429,1.93292208 109.356707,1.07334026 106.155644,0.90961039 C102.954581,0.745880519 95.3971504,-0.191018182 86.9766657,1.15065714 C86.9766657,1.15065714 63.4869839,0.741332468 45.312619,11.7066857 C26.3391299,23.1541325 17.1058219,33.2098753 15.8135241,38.4219429 C14.5212263,43.6340104 10.1100613,57.2144935 8.01863942,65.0007584 C5.92721752,72.7870234 4.50249343,79.6454857 7.16928467,85.9490857 C8.78123212,89.7603532 10.4982073,90.9064623 12.7037898,90.8884826 C12.3663447,90.2852028 12.0688914,89.6607851 11.8133372,89.0190208 C9.62145401,83.611387 9.88630657,75.8751506 12.3887066,75.3748649 C14.8911066,74.8745792 16.384327,80.0548104 17.8958131,85.7034909 C18.1958438,86.9485683 18.6022134,88.1658155 19.1104818,89.3419325 C22.8503825,87.9365844 28.8415299,84.7938805 36.8053723,81.5283792 C36.0493419,76.5672757 36.0324161,71.522217 36.7551416,66.5561922 C37.9332788,58.7926675 42.9152467,57.0780519 45.0842978,61.8034779 C46.8789022,65.6966104 47.5456,74.4106779 47.7236905,77.3487195 C50.9201869,76.252639 53.5961109,75.5294987 55.2445898,75.4294416 C55.2445898,75.4294416 82.4970044,69.2986675 102.584701,68.8074779 C122.672397,68.3162883 132.723095,67.8387429 132.723095,67.8387429 C132.723095,67.8387429 121.06045,21.6987558 116.247439,11.8249351 Z" id="Path" stroke="#263238" stroke-width="0.5" stroke-linecap="round" stroke-linejoin="round"></path>
                        <path d="M16.5624175,61.7443532 C17.2024731,62.2746722 18.0934958,62.3864893 18.8456292,62.0308805 C20.2840526,61.457826 20.4301781,59.3020494 20.4301781,59.3020494 L22.5855299,59.1610597 L23.0193401,52.4253948 L18.2702599,54.2855481 C18.2702599,54.2855481 16.9962277,60.8847714 16.5624175,61.7443532 Z" id="Path" fill="#ADC7F7" fill-rule="nonzero" opacity="0.2"></path>
                        <path d="M10.3338161,81.4419662 C8.97025799,82.1637555 7.680941,83.0167955 6.48432117,83.9888753 C6.67365811,84.6551517 6.90237827,85.309697 7.16928467,85.9490857 C8.78123212,89.7603532 10.4982073,90.9064623 12.7037898,90.8882701 C12.3663447,90.2852028 12.0688914,89.6607851 11.8133372,89.0190208 C10.8772106,86.5994747 10.3763828,84.0345907 10.3338161,81.4419662 L10.3338161,81.4419662 Z" id="Path" stroke="#263238" stroke-width="0.5" fill="#263238" fill-rule="nonzero" stroke-linecap="round" stroke-linejoin="round"></path>
                        <path d="M17.6081285,77.6852753 C17.356422,77.6840633 17.125378,77.5463433 17.0053606,77.3259792 C16.8324352,76.9990854 16.9543086,76.5944749 17.279346,76.4163688 C17.3889401,76.3572442 26.2752,70.8722935 33.6362745,66.974613 C33.9704349,66.7975297 34.3854598,66.9237761 34.5632584,67.2565922 C34.741057,67.5894083 34.6143006,68.0027635 34.2801401,68.1798468 C26.9236321,72.0729792 18.0419387,77.5533818 17.9323445,77.6125065 C17.8323825,77.6642065 17.7206931,77.6892747 17.6081285,77.6852753 L17.6081285,77.6852753 Z" id="Path" stroke="#263238" stroke-width="0.5" fill="#263238" fill-rule="nonzero"></path>
                        <path d="M29.2251095,32.0956026 L28.9100263,39.9046078 C28.8415299,40.9688519 29.4625635,41.4827818 30.2799533,41.0234286 L42.9061139,32.8369351 C43.849713,32.1816547 44.3880688,31.0886523 44.330838,29.944374 L44.2532088,21.2348545 C44.1618803,20.4434935 43.6230423,20.1205818 42.9609109,20.4616857 C40.5863708,21.6851117 36.0016818,25.823839 30.5219737,29.676039 C29.7714382,30.2684905 29.3017247,31.1448365 29.2251095,32.0956026 L29.2251095,32.0956026 Z" id="Path" stroke="#263238" stroke-width="0.5" fill="#ADC7F7" fill-rule="nonzero" stroke-linecap="round" stroke-linejoin="round"></path>
                        <line x1="37.7551883" y1="29.8943455" x2="43.9244263" y2="31.3952026" id="Path" stroke="#263238" stroke-width="0.5" stroke-linecap="round" stroke-linejoin="round"></line>
                        <line x1="29.316438" y1="41.059813" x2="33.124835" y2="32.6823013" id="Path" stroke="#263238" stroke-width="0.5" stroke-linecap="round" stroke-linejoin="round"></line>
                        <path d="M29.2981723,31.8363636 L34.8966073,32.5322156 C35.4765431,32.6186286 36.198038,32.1410831 36.7231766,31.3133377 L44.029454,20.8937506" id="Path" stroke="#263238" stroke-width="0.5" stroke-linecap="round" stroke-linejoin="round"></path>
                        <path d="M60.5553401,17.5873169 L61.8522044,37.1439403 C61.9200713,38.2848284 62.4560615,39.3477034 63.3344055,40.0831634 C64.2127496,40.8186235 65.3561309,41.1619293 66.4962569,41.0325247 L110.114733,35.3929403 C111.330965,35.2533528 112.424537,34.5895149 113.106482,33.576839 C113.788427,32.5641631 113.990125,31.3045516 113.658277,30.1308442 L108.151171,10.7379506 C107.61386,8.8379641 105.807846,7.57731931 103.831334,7.72259221 C96.7625109,8.24107013 79.807381,9.75557143 63.8020672,13.3076 C61.8179322,13.7565344 60.4469683,15.5636888 60.5553401,17.5873169 L60.5553401,17.5873169 Z" id="Path" stroke="#263238" stroke-width="0.5" fill="#ADC7F7" fill-rule="nonzero" stroke-linecap="round" stroke-linejoin="round"></path>
                        <line x1="92.976946" y1="23.6498701" x2="112.891118" y2="33.0461455" id="Path" stroke="#263238" stroke-width="0.5" stroke-linecap="round" stroke-linejoin="round"></line>
                        <line x1="63.5052496" y1="40.1729429" x2="80.3233869" y2="25.1825636" id="Path" stroke="#263238" stroke-width="0.5" stroke-linecap="round" stroke-linejoin="round"></line>
                        <path d="M60.7014657,17.073387 L84.8350131,26.9563039 C86.6863849,27.7094353 88.8095049,27.3047058 90.2507912,25.9238961 L107.452508,9.74647532" id="Path" stroke="#263238" stroke-width="0.5" stroke-linecap="round" stroke-linejoin="round"></path>
                        <ellipse id="Oval" stroke="#263238" stroke-width="0.5" fill="#263238" fill-rule="nonzero" stroke-linecap="round" stroke-linejoin="round" transform="translate(108.718996, 30.895454) rotate(-1.410000) translate(-108.718996, -30.895454) " cx="108.718996" cy="30.8954536" rx="7.42498629" ry="7.26780479"></ellipse>
                        <path d="M107.918283,34.3650836 L107.895451,34.3650836 C107.603151,34.3658358 107.328147,34.2271965 107.155691,33.9921403 L104.237746,29.9807584 C103.941415,29.5738436 104.032393,29.0047167 104.440952,28.7095779 C104.84951,28.4144391 105.420936,28.5050514 105.717267,28.9119662 L107.895451,31.9045844 L113.101174,24.7414026 C113.397505,24.3344878 113.968931,24.2438755 114.377489,24.5390143 C114.786048,24.8341531 114.877026,25.40328 114.580695,25.8101948 L108.644345,33.9966883 C108.473787,34.2261727 108.204941,34.3625811 107.918283,34.3650836 Z" id="Path" stroke="#263238" stroke-width="0.5" fill="#FFFFFF" fill-rule="nonzero" stroke-linecap="round" stroke-linejoin="round"></path>
                        <path d="M80.3370861,53.9671844 C80.3370861,53.9671844 95.8629255,51.0018545 106.502692,51.2110649 L107.141991,53.757974 C107.141991,53.757974 84.8030482,54.8131221 80.5471416,56.9416104 L80.3370861,53.9671844 Z" id="Path" stroke="#263238" stroke-width="0.5" fill="#263238" fill-rule="nonzero" stroke-linecap="round" stroke-linejoin="round"></path>
                        <path d="M80.5471416,56.9325143 L81.0037839,59.4794234 C81.1019989,60.0697171 81.655706,60.4737313 82.2504175,60.3890338 C86.1455766,59.8341714 99.8174482,57.9649221 106.909104,58.1377481 C107.263423,58.1485752 107.601611,57.990146 107.819182,57.7114092 C108.036753,57.4326723 108.107517,57.0671787 108.009612,56.7278519 L107.160257,53.7670701" id="Path" stroke="#263238" stroke-width="0.5" stroke-linecap="round" stroke-linejoin="round"></path>
                        <path d="M23.891527,52.4344909 L23.804765,41.9284909 L24.3299036,31.1268675 C24.3379422,30.9154 24.2150128,30.7206434 24.0201915,30.6361918 C23.8253702,30.5517403 23.5984905,30.5948609 23.4485839,30.7448312 C21.4850219,32.745974 18.1241343,35.7749766 17.128654,38.258213 C15.8363562,41.4736857 14.3066044,57.3009065 14.3066044,57.3009065 L23.891527,52.4344909 Z" id="Path" stroke="#263238" stroke-width="0.5" fill="#263238" fill-rule="nonzero" stroke-linecap="round" stroke-linejoin="round"></path>
                        <rect id="Rectangle" stroke="#263238" stroke-width="0.5" fill="#263238" fill-rule="nonzero" stroke-linecap="round" stroke-linejoin="round" x="8.79036496" y="50.3241948" width="4.35180146" height="10.6606338" rx="1.20068571"></rect>
                        <path d="M12.6946569,42.9927351 C13.4188013,43.131086 14.1260406,43.3460634 14.8043445,43.6340104 C15.3667837,43.9096762 15.8779318,44.2788062 16.3158307,44.7255429 L18.5990423,41.7192805 C18.5990423,41.7192805 15.251854,40.3230286 14.6171212,39.4725429 L13.9869547,38.6175091 L12.6946569,42.9927351 Z" id="Path" fill="#FFFFFF" fill-rule="nonzero"></path>
                        <path d="M14.6125547,39.4725429 L14.0234861,38.6584416 L13.9549898,38.7039221 L12.6946569,42.9790909 C12.6946569,42.9790909 12.9366774,43.0245714 13.2791591,43.1064364 L16.5441518,40.7505455 C15.8305873,40.4396224 15.1769298,40.007143 14.6125547,39.4725429 L14.6125547,39.4725429 Z" id="Path" fill="#ADC7F7" fill-rule="nonzero" opacity="0.5" style="mix-blend-mode: multiply;"></path>
                        <path d="M12.6946569,42.9927351 C13.4188013,43.131086 14.1260406,43.3460634 14.8043445,43.6340104 C15.3667837,43.9096762 15.8779318,44.2788062 16.3158307,44.7255429 L18.5990423,41.7192805 C18.5990423,41.7192805 15.251854,40.3230286 14.6171212,39.4725429 L13.9869547,38.6175091 L12.6946569,42.9927351 Z" id="Path" stroke="#263238" stroke-width="0.5" stroke-linecap="round" stroke-linejoin="round"></path>
                        <polygon id="Path" stroke="#263238" stroke-width="0.5" fill="#ADC7F7" fill-rule="nonzero" stroke-linecap="round" stroke-linejoin="round" points="17.5168 40.4412779 14.7267153 43.9842104 15.1057285 45.1894442 19.3570686 40.7914779"></polygon>
                        <path d="M13.050838,30.4310156 C11.1649051,28.975639 6.25143358,29.9034416 5.28791825,33.3508649 C4.69428321,35.4748052 5.02306569,38.6584416 5.02306569,38.6584416 L10.6215007,37.4759481 L11.0781431,38.1627039 C11.9914277,39.5271195 13.9686891,38.6175091 14.4801285,38.1627039 C14.7586803,37.9216571 14.7404146,37.212161 14.6673518,36.6254623 L14.8911786,36.5754338 C14.8911786,36.5754338 14.9322044,31.8909403 13.050838,30.4310156 Z" id="Path" stroke="#263238" stroke-width="0.5" fill="#263238" fill-rule="nonzero" stroke-linecap="round" stroke-linejoin="round"></path>
                        <path d="M10.9594161,37.0575273 C8.50217419,36.7848731 6.01487573,37.0202158 3.65313869,37.7488312 C0,38.9677091 -0.561670073,40.0228571 2.05489051,39.9591844 C4.67145109,39.8955117 10.9594161,37.0575273 10.9594161,37.0575273 Z" id="Path" stroke="#263238" stroke-width="0.5" fill="#263238" fill-rule="nonzero" stroke-linecap="round" stroke-linejoin="round"></path>
                        <ellipse id="Oval" fill="#ADC7F7" fill-rule="nonzero" cx="6.44778978" cy="34.6834442" rx="1" ry="1.0506"></ellipse>
                        <path d="M23.804765,41.9284909 C23.804765,41.9284909 18.8045314,40.6641325 17.2656467,41.8284338 C15.726762,42.9927351 15.3340496,44.916561 15.8272234,47.2497117 C16.3203971,49.5828623 17.5213664,55.7181844 17.5213664,55.7181844 L23.891527,52.4344909 L23.804765,41.9284909 Z" id="Path" stroke="#263238" stroke-width="0.5" fill="#263238" fill-rule="nonzero" stroke-linecap="round" stroke-linejoin="round"></path>
                        <path d="M15.8683212,54.7403532 C15.8683212,54.7403532 15.5989022,57.0962442 15.283819,57.4282519 C14.9687358,57.7602597 6.65784526,50.8062883 6.15097226,50.1513688 C5.64409927,49.4964494 5.99114745,47.1587506 6.15097226,46.4265143 C6.31079708,45.6942779 6.0413781,45.2940494 5.23768759,45.7988831 C4.43399708,46.3037169 4.64861898,48.4049169 4.64861898,48.4049169 C4.64861898,48.4049169 2.19644964,47.8182182 1.70784234,47.7499974 C1.21923504,47.6817766 0.794557664,48.2866675 0.867620438,48.768761 C0.940683212,49.2508545 1.58454891,49.291787 1.58454891,49.291787 C1.41982369,49.9898804 1.46589486,50.720889 1.71697518,51.392987 C2.14621898,52.2753091 2.63025985,52.8301714 3.54354453,53.0484779 C4.48582639,53.1948733 5.43983783,53.2527364 6.3929927,53.2213039 C6.3929927,53.2213039 10.6397664,57.2508779 11.8727007,58.7562831 C13.105635,60.2616883 15.7039299,62.3083117 16.9962277,61.9399195 C18.2885255,61.5715273 19.5214599,55.1451299 19.5214599,55.1451299 L15.8683212,54.7403532 Z" id="Path" fill="#FFFFFF" fill-rule="nonzero"></path>
                        <path d="M15.283819,57.4282519 L17.7131562,58.2332571 C17.8723636,59.2819061 17.2404611,60.2896548 16.2245022,60.6073403 C15.1513927,60.9620883 13.224362,59.7477584 11.854435,58.7244468 L11.8955328,58.7744753 C13.1512993,60.2844286 15.726762,62.3265039 17.0190599,61.9581117 C18.3113577,61.5897195 19.544292,55.1633221 19.544292,55.1633221 L15.8683212,54.7085169 C15.8683212,54.7085169 15.5989022,57.0962442 15.283819,57.4282519 Z" id="Path" fill="#ADC7F7" fill-rule="nonzero" opacity="0.5" style="mix-blend-mode: multiply;"></path>
                        <path d="M15.8683212,54.7403532 C15.8683212,54.7403532 15.5989022,57.0962442 15.283819,57.4282519 C14.9687358,57.7602597 6.65784526,50.8062883 6.15097226,50.1513688 C5.64409927,49.4964494 5.99114745,47.1587506 6.15097226,46.4265143 C6.31079708,45.6942779 6.0413781,45.2940494 5.23768759,45.7988831 C4.43399708,46.3037169 4.64861898,48.4049169 4.64861898,48.4049169 C4.64861898,48.4049169 2.19644964,47.8182182 1.70784234,47.7499974 C1.21923504,47.6817766 0.794557664,48.2866675 0.867620438,48.768761 C0.940683212,49.2508545 1.58454891,49.291787 1.58454891,49.291787 C1.41982369,49.9898804 1.46589486,50.720889 1.71697518,51.392987 C2.14621898,52.2753091 2.63025985,52.8301714 3.54354453,53.0484779 C4.48582639,53.1948733 5.43983783,53.2527364 6.3929927,53.2213039 C6.3929927,53.2213039 10.6397664,57.2508779 11.8727007,58.7562831 C13.105635,60.2616883 15.7039299,62.3083117 16.9962277,61.9399195 C18.2885255,61.5715273 19.5214599,55.1451299 19.5214599,55.1451299 L15.8683212,54.7403532 Z" id="Path" stroke="#263238" stroke-width="0.5" stroke-linecap="round" stroke-linejoin="round"></path>
                        <polygon id="Path" stroke="#263238" stroke-width="0.5" fill="#263238" fill-rule="nonzero" points="7.56199708 51.4293714 6.3929927 53.2394961 6.99119416 53.6442727 8.18759708 51.9387532"></polygon>
                        <ellipse id="Oval" stroke="#263238" stroke-width="0.5" fill="#FFFFFF" fill-rule="nonzero" stroke-linecap="round" stroke-linejoin="round" cx="7.16015182" cy="52.6800857" rx="1" ry="1"></ellipse>
                        <path d="M6.0413781,39.2405922 C6.0413781,39.2405922 6.31992993,39.9273481 6.78570511,41.1325818 C7.25148029,42.3378156 9.75388029,44.8801766 10.9776818,45.0257143 C12.2014832,45.1712519 13.6673051,40.7414494 13.9001927,39.8272909 C13.9778219,39.5271195 14.0554511,39.045026 14.0554511,39.045026 C14.0554511,39.045026 15.5943358,38.3218857 15.2381547,37.4486597 C14.8819737,36.5754338 14.1604788,36.1752052 13.8179971,36.4435403 C13.4755153,36.7118753 13.4161518,37.8443403 12.9047124,37.8534364 C12.393273,37.8625325 12.1147212,37.7033506 11.6626453,37.1030078 C11.2105693,36.5026649 6.52541898,37.7488312 6.0413781,39.2405922 Z" id="Path" fill="#FFFFFF" fill-rule="nonzero"></path>
                        <g id="Group" transform="translate(5.936350, 35.929610)" fill="#ADC7F7" fill-rule="nonzero" opacity="0.5">
                            <path d="M5.71716204,1.1733974 C5.26051971,0.577602597 0.589068613,1.82376883 0.105027737,3.31098182 L0.369880292,3.98409351 C2.15557266,2.91149558 4.09610064,2.11846643 6.12357372,1.63275065 C5.97209452,1.49445605 5.83585373,1.34046774 5.71716204,1.1733974 L5.71716204,1.1733974 Z" id="Path"></path>
                            <path d="M9.24244088,1.39625195 C8.86799416,0.613987013 8.20586277,0.259238961 7.87251387,0.51392987 C7.66357113,0.785430133 7.50858346,1.0941584 7.41587153,1.42354026 C8.02242453,1.35587352 8.63412302,1.34673496 9.24244088,1.39625195 L9.24244088,1.39625195 Z" id="Path"></path>
                        </g>
                        <path d="M6.0413781,39.2405922 C6.0413781,39.2405922 6.31992993,39.9273481 6.78570511,41.1325818 C7.25148029,42.3378156 9.75388029,44.8801766 10.9776818,45.0257143 C12.2014832,45.1712519 13.6673051,40.7414494 13.9001927,39.8272909 C13.9778219,39.5271195 14.0554511,39.045026 14.0554511,39.045026 C14.0554511,39.045026 15.5943358,38.3218857 15.2381547,37.4486597 C14.8819737,36.5754338 14.1604788,36.1752052 13.8179971,36.4435403 C13.4755153,36.7118753 13.4161518,37.8443403 12.9047124,37.8534364 C12.393273,37.8625325 12.1147212,37.7033506 11.6626453,37.1030078 C11.2105693,36.5026649 6.52541898,37.7488312 6.0413781,39.2405922 Z" id="Path" stroke="#263238" stroke-width="0.5" stroke-linecap="round" stroke-linejoin="round"></path>
                        <path d="M7.69898978,39.5680519 C7.7811854,39.8454831 7.75378686,40.100174 7.6441927,40.1320104 C7.53459854,40.1638468 7.37477372,39.9637325 7.2925781,39.6772052 C7.21038248,39.3906779 7.23778102,39.1450831 7.34737518,39.1132468 C7.45696934,39.0814104 7.61679416,39.2997169 7.69898978,39.5680519 Z" id="Path" stroke="#263238" stroke-width="0.5" fill="#263238" fill-rule="nonzero"></path>
                        <path d="M6.84963504,38.7948831 C7.48893431,38.612961 7.76291971,39.0905065 7.84054891,39.5316675 L7.95927591,40.0546935 L8.35655474,42.0785766 L8.95932263,41.8238857" id="Path" stroke="#263238" stroke-width="0.5" stroke-linecap="round" stroke-linejoin="round"></path>
                        <path d="M9.45249635,38.9495169 C9.73417598,38.6417207 10.1464167,38.4862739 10.5621372,38.5310961" id="Path" stroke="#263238" stroke-width="0.5" stroke-linecap="round" stroke-linejoin="round"></path>
                        <path d="M9.98220146,37.6897065 C9.45141926,37.8002142 9.03603705,38.212142 8.92279124,38.7403065" id="Path" stroke="#263238" stroke-width="0.5" stroke-linecap="round" stroke-linejoin="round"></path>
                        <path d="M9.50272701,42.4788052 C9.50272701,42.4788052 10.8269898,42.2150182 10.9320175,41.2690234" id="Path" stroke="#263238" stroke-width="0.5" stroke-linecap="round" stroke-linejoin="round"></path>
                        <path d="M20.7452613,58.1513922 L14.0600175,56.295787 C14.0600175,56.295787 14.6490861,44.9256571 15.6810978,43.0018312 C17.2884788,40.013761 20.9735825,41.3599844 21.6676788,45.1166753 C22.3161109,48.6641558 20.7452613,58.1513922 20.7452613,58.1513922 Z" id="Path" stroke="#263238" stroke-width="0.5" fill="#ADC7F7" fill-rule="nonzero" stroke-linecap="round" stroke-linejoin="round"></path>
                        <path d="M14.2198423,55.0314286 C14.2198423,55.0314286 17.872981,55.8682701 20.0968292,56.5959584" id="Path" stroke="#263238" stroke-width="0.5" stroke-linecap="round" stroke-linejoin="round"></path>
                        <path d="M20.0055007,41.0143325 C20.0055007,41.0143325 22.1791182,41.1826104 23.5992759,42.3469117" id="Path" stroke="#ADC7F7" stroke-width="0.5" stroke-linecap="round" stroke-linejoin="round"></path>
                        <path d="M58.3086599,70.0991247 C58.3086599,70.0991247 48.5730453,73.5192597 47.6825927,74.4516104 C46.7921401,75.383961 46.8834686,79.0224026 48.9840234,80.7915948 C51.0845781,82.560787 66.0578803,78.5494052 76.7615766,77.3805558 C87.465273,76.2117065 110.964088,74.4925429 120.553577,74.0286416 C130.143066,73.5647403 134.504,74.8245506 135.344222,71.8455766 C136.184444,68.8666026 136.079416,65.6829662 134.252847,65.0371429 C132.426277,64.3913195 99.1461839,59.0837429 58.3086599,70.0991247 Z" id="Path" stroke="#263238" stroke-width="0.5" fill="#263238" fill-rule="nonzero" stroke-linecap="round" stroke-linejoin="round"></path>
                        <path d="M46.9884964,76.4391091 C46.9884964,76.4391091 47.4451387,80.3822701 49.8790423,80.987161 C52.312946,81.5920519 81.2366715,76.1343896 98.2831299,75.5294987 C115.329588,74.9246078 130.248093,74.4698026 130.248093,74.4698026" id="Path" stroke="#FFFFFF" stroke-width="0.5" stroke-linecap="round" stroke-linejoin="round"></path>
                        <path d="M61.1170102,78.4402519 C72.4234745,75.7114208 95.6802686,71.8546727 134.814517,72.9507532" id="Path" stroke="#FFFFFF" stroke-width="0.5" stroke-linecap="round" stroke-linejoin="round"></path>
                        <path d="M51.8471708,80.8416234 C51.8471708,80.8416234 54.4454657,80.2139922 58.3954219,79.1406519" id="Path" stroke="#FFFFFF" stroke-width="0.5" stroke-linecap="round" stroke-linejoin="round"></path>
                        <path d="M54.2308438,81.2918805 C54.3537378,82.982591 54.3078487,84.6812758 54.0938511,86.3629584" id="Path" stroke="#FFFFFF" stroke-width="0.5" stroke-linecap="round" stroke-linejoin="round"></path>
                        <path d="M53.8152993,8.56398182 C53.8152993,8.56398182 51.6371153,11.1063429 51.4681577,13.3849169" id="Path" stroke="#263238" stroke-width="0.5" stroke-linecap="round" stroke-linejoin="round"></path>
                        <path d="M51.2398365,15.2223299 C51.2398365,15.2223299 49.6004905,41.1962545 53.9385927,68.8393143" id="Path" stroke="#263238" stroke-width="0.5" stroke-linecap="round" stroke-linejoin="round"></path>
                        <path d="M51.7558423,45.2349247 C51.7558423,45.2349247 48.2168642,46.4628987 48.1712,48.0547169 C48.052473,52.3344338 48.5045489,61.4669221 49.4406657,62.3537922 C50.3767825,63.2406623 53.2855942,60.8938675 53.2855942,60.8938675 C53.2855942,60.8938675 57.3953752,61.2486156 57.8520175,60.3299091 C58.3086599,59.4112026 56.5962511,46.4810909 56.3405314,45.353174 C56.0848117,44.2252571 51.7558423,45.2349247 51.7558423,45.2349247 Z" id="Path" stroke="#263238" stroke-width="0.5" fill="#ADC7F7" fill-rule="nonzero" stroke-linecap="round" stroke-linejoin="round"></path>
                        <path d="M125.677104,51.392987 C126.598241,51.8412221 127.59915,52.1039663 128.622447,52.1661558 C127.489974,47.9273714 126.206809,43.2064935 124.882546,38.4947117 C123.686143,38.4128468 122.142692,38.4128468 122.174657,38.9495169 C122.197489,39.8682234 124.521799,50.7289714 125.677104,51.392987 Z" id="Path" stroke="#263238" stroke-width="0.5" fill="#ADC7F7" fill-rule="nonzero" stroke-linecap="round" stroke-linejoin="round"></path>
                        <path d="M51.2489693,46.5720519 C51.2489693,46.5720519 51.4042277,54.7585455 52.011562,57.9421818" id="Path" stroke="#263238" stroke-width="0.5" stroke-linecap="round" stroke-linejoin="round"></path>
                        <path d="M93.9358949,48.4640416 C93.9358949,48.4640416 114.311276,45.1939922 138.052111,49.3736519" id="Path" stroke="#263238" stroke-width="0.5" stroke-linecap="round" stroke-linejoin="round"></path>
                        <path d="M155.96619,61.285 C157.368082,61.7034208 158.747142,62.1445818 160.075971,62.6175792" id="Path" stroke="#263238" stroke-width="0.5" stroke-linecap="round" stroke-linejoin="round"></path>
                        <path d="M119.384572,55.1087455 C119.384572,55.1087455 135.540578,56.0865766 151.01162,59.9387766" id="Path" stroke="#263238" stroke-width="0.5" stroke-linecap="round" stroke-linejoin="round"></path>
                        <path d="M70.2133255,92.5801455 C83.5160083,90.5554313 97.0311199,90.3152795 110.397851,91.8661013" id="Path" stroke="#263238" stroke-width="0.5" stroke-linecap="round" stroke-linejoin="round"></path>
                        <path d="M68.5420146,90.438013 C68.5420146,90.438013 78.1041051,89.2464234 81.2138394,89.0099247" id="Path" stroke="#263238" stroke-width="0.5" stroke-linecap="round" stroke-linejoin="round"></path>
                        <path d="M132.581536,2.10574805 C133.951463,2.30131429 135.32139,2.56055325 136.563457,2.85617662" id="Path" stroke="#263238" stroke-width="0.5" stroke-linecap="round" stroke-linejoin="round"></path>
                        <path d="M112.895685,1.65549091 C118.522132,1.25964734 124.170888,1.29766106 129.791451,1.76919221" id="Path" stroke="#263238" stroke-width="0.5" stroke-linecap="round" stroke-linejoin="round"></path>
                        <path d="M39.2210102,56.7505922 C39.2210102,56.7505922 52.8654832,50.3150987 72.6061314,48.5277143" id="Path" stroke="#263238" stroke-width="0.5" stroke-linecap="round" stroke-linejoin="round"></path>
                        <path d="M62.1992526,44.9483974 C62.1992526,44.9483974 70.4599124,42.8062649 83.0267095,42.0876727" id="Path" stroke="#263238" stroke-width="0.5" stroke-linecap="round" stroke-linejoin="round"></path>
                        <path d="M38.9972555,90.3879844 C40.6554944,93.3460593 43.3314446,95.607428 46.531854,96.7552571" id="Path" stroke="#263238" stroke-width="0.5" stroke-linecap="round" stroke-linejoin="round"></path>
                        <path d="M38.5406131,92.4346078 C38.5406131,92.4346078 40.5955036,95.6182442 43.3353577,96.9826597" id="Path" stroke="#263238" stroke-width="0.5" stroke-linecap="round" stroke-linejoin="round"></path>
                        <path d="M105.895358,81.0644779 C105.895358,81.0644779 107.265285,87.4317506 112.744993,90.1605818" id="Path" stroke="#263238" stroke-width="0.5" stroke-linecap="round" stroke-linejoin="round"></path>
                        <path d="M106.580321,86.7495429 C107.666273,88.3335724 109.166389,89.591746 110.918423,90.3879844" id="Path" stroke="#263238" stroke-width="0.5" stroke-linecap="round" stroke-linejoin="round"></path>
                        <path d="M16.2382015,99.0110909 C16.2382015,99.0110909 17.6081285,101.285117 22.402873,101.285117" id="Path" stroke="#263238" stroke-width="0.5" stroke-linecap="round" stroke-linejoin="round"></path>
                        <path d="M15.3249168,100.375506 C17.0717422,101.822362 19.2249138,102.69605 21.4895883,102.876935" id="Path" stroke="#263238" stroke-width="0.5" stroke-linecap="round" stroke-linejoin="round"></path>
                    </g>
                    <g id="freepik--Floor--inject-1--inject-58" transform="translate(13.000000, 132.780255)">
                        <path d="M81.3459382,0.616533333 C69.2590028,1.27148928 57.2609139,3.05948095 45.5107632,5.9568 L45.7929299,6.3784 C45.7929299,6.3784 55.8052978,4.26133333 74.3099742,8.79466667 C92.8146505,13.328 94.0343389,16.9546667 114.359446,16.9546667 C134.684553,16.9546667 154.408917,12.1221333 154.408917,12.1221333 L151.942234,10.7621333 C133.692418,3.06906667 108.679703,-0.906666667 81.3459382,0.616533333 Z" id="Path" fill="#ADC7F7" fill-rule="nonzero"></path>
                        <path d="M81.3459382,0.616533333 C69.2590028,1.27148928 57.2609139,3.05948095 45.5107632,5.9568 L45.7929299,6.3784 C45.7929299,6.3784 55.8052978,4.26133333 74.3099742,8.79466667 C92.8146505,13.328 94.0343389,16.9546667 114.359446,16.9546667 C134.684553,16.9546667 154.408917,12.1221333 154.408917,12.1221333 L151.942234,10.7621333 C133.692418,3.06906667 108.679703,-0.906666667 81.3459382,0.616533333 Z" id="Path" fill="#FFFFFF" fill-rule="nonzero" opacity="0.5"></path>
                        <path d="M36.8182074,10.9888 C36.8182074,10.9888 60.7113581,7.36213333 81.4187554,21.1888" id="Path" stroke="#263238" stroke-width="0.5" stroke-linecap="round" stroke-linejoin="round"></path>
                        <path d="M61.8491272,16.2021333 C61.8491272,16.2021333 71.6339413,19.1488 77.5503405,25.4954667" id="Path" stroke="#263238" stroke-width="0.5" stroke-linecap="round" stroke-linejoin="round"></path>
                        <path d="M119.647796,4.64213333 C119.647796,4.64213333 133.528579,6.00213333 146.044039,13.4821333" id="Path" stroke="#263238" stroke-width="0.5" stroke-linecap="round" stroke-linejoin="round"></path>
                        <path d="M162.928532,16.3562667 C165.428131,17.8798866 167.807636,19.5908765 170.046416,21.4744" id="Path" stroke="#263238" stroke-width="0.5" stroke-linecap="round" stroke-linejoin="round"></path>
                        <path d="M0.0955726027,27.0504 C16.6842458,12.9970667 46.6576344,2.5704 81.3459382,0.616533333 C113.007776,-1.17413333 141.56578,4.4744 160.079559,14.6698667" id="Path" stroke="#263238" stroke-width="0.5" stroke-linecap="round" stroke-linejoin="round"></path>
                        <path d="M101.215937,4.41546667 C101.215937,4.41546667 115.551828,5.09546667 125.109088,8.2688" id="Path" stroke="#263238" stroke-width="0.5" stroke-linecap="round" stroke-linejoin="round"></path>
                    </g>
                    <g id="freepik--Clouds--inject-1--inject-58" transform="translate(2.000000, 0.780255)" fill-rule="nonzero">
                        <path d="M46.7686644,28.3761502 C46.7686644,28.3761502 46.3127406,22.08096 37.0802834,21.8533682 C27.8478263,21.6257763 30.3189333,28.1531102 27.843267,29.7280457 C25.3676008,31.3029812 24.6882743,28.8176784 22.2080488,30.4017176 C19.7278232,31.9857567 20.8402773,35.1265241 18.8296533,35.5771559 C16.8190293,36.0277878 14.0971642,33.5515886 11.6214979,35.1219722 C9.14583162,36.6923559 9.14127238,38.0442514 8.01514057,38.0442514 C6.88900876,38.0442514 4.63674514,37.1338841 3.28721067,38.0442514 C1.93767619,38.9546188 0.355620571,40.0561633 0.355620571,40.0561633 L57.3460968,40.0561633 C57.3460968,40.0561633 58.020864,38.0305959 55.5224015,36.6832522 C53.023939,35.3359086 51.9160442,36.4556604 51.0178743,35.3177012 C50.1197044,34.179742 53.5254552,31.3029812 46.7686644,28.3761502 Z" id="Path" fill="#ADC7F7"></path>
                        <path d="M80.6301257,4.28327837 C80.6301257,4.28327837 80.3565714,0.496150204 74.8034194,0.359595102 C69.2502674,0.22304 70.736579,4.1512751 69.2457082,5.09805714 C67.7548373,6.04483918 67.3490651,4.55638857 65.8581943,5.50317061 C64.3673234,6.44995265 65.0466499,8.34351673 63.8247741,8.6120751 C62.6028983,8.88063347 60.9798095,7.39673469 59.4889387,8.34351673 C57.9980678,9.29029878 57.9980678,10.1005257 57.3187413,10.1005257 C56.6394149,10.1005257 55.2853211,9.56340898 54.4737768,10.1005257 C53.6622324,10.6376424 52.7139109,11.320418 52.7139109,11.320418 L86.9993813,11.320418 C86.9993813,11.320418 87.4051535,10.1005257 85.9142827,9.29029878 C84.4234118,8.48007184 83.7486446,9.15374367 83.2060952,8.48007184 C82.6635459,7.8064 84.6969661,6.04483918 80.6301257,4.28327837 Z" id="Path" fill="#ADC7F7"></path>
                        <path d="M46.7686644,28.3761502 C46.7686644,28.3761502 46.3127406,22.08096 37.0802834,21.8533682 C27.8478263,21.6257763 30.3189333,28.1531102 27.843267,29.7280457 C25.3676008,31.3029812 24.6882743,28.8176784 22.2080488,30.4017176 C19.7278232,31.9857567 20.8402773,35.1265241 18.8296533,35.5771559 C16.8190293,36.0277878 14.0971642,33.5515886 11.6214979,35.1219722 C9.14583162,36.6923559 9.14127238,38.0442514 8.01514057,38.0442514 C6.88900876,38.0442514 4.63674514,37.1338841 3.28721067,38.0442514 C1.93767619,38.9546188 0.355620571,40.0561633 0.355620571,40.0561633 L57.3460968,40.0561633 C57.3460968,40.0561633 58.020864,38.0305959 55.5224015,36.6832522 C53.023939,35.3359086 51.9160442,36.4556604 51.0178743,35.3177012 C50.1197044,34.179742 53.5254552,31.3029812 46.7686644,28.3761502 Z" id="Path" fill="#FFFFFF" opacity="0.7"></path>
                        <path d="M80.6301257,4.28327837 C80.6301257,4.28327837 80.3565714,0.496150204 74.8034194,0.359595102 C69.2502674,0.22304 70.736579,4.1512751 69.2457082,5.09805714 C67.7548373,6.04483918 67.3490651,4.55638857 65.8581943,5.50317061 C64.3673234,6.44995265 65.0466499,8.34351673 63.8247741,8.6120751 C62.6028983,8.88063347 60.9798095,7.39673469 59.4889387,8.34351673 C57.9980678,9.29029878 57.9980678,10.1005257 57.3187413,10.1005257 C56.6394149,10.1005257 55.2853211,9.56340898 54.4737768,10.1005257 C53.6622324,10.6376424 52.7139109,11.320418 52.7139109,11.320418 L86.9993813,11.320418 C86.9993813,11.320418 87.4051535,10.1005257 85.9142827,9.29029878 C84.4234118,8.48007184 83.7486446,9.15374367 83.2060952,8.48007184 C82.6635459,7.8064 84.6969661,6.04483918 80.6301257,4.28327837 Z" id="Path" fill="#FFFFFF" opacity="0.8"></path>
                    </g>
                </g>
            </g>
        </g>
    </g>
</svg>