<?xml version="1.0" encoding="UTF-8"?>
<svg width="184px" height="174px" viewBox="0 0 184 174" version="1.1" xmlns="http://www.w3.org/2000/svg" xmlns:xlink="http://www.w3.org/1999/xlink">
    <title>New message-bro</title>
    <g id="Page-1" stroke="none" stroke-width="1" fill="none" fill-rule="evenodd" opacity="0.504903158">
        <g id="no-alerts" transform="translate(-268.000000, -124.000000)">
            <g id="Group-5" transform="translate(268.000000, 93.000000)">
                <g id="New-message-bro" transform="translate(0.000000, 31.000000)">
                    <g id="freepik--background-simple--inject-2" transform="translate(9.660167, 0.000000)" fill="#F9FBFF" fill-rule="nonzero">
                        <path d="M154.495053,62.0665738 C153.31452,55.8344787 151.805429,49.669133 149.974095,43.5963343 C144.467799,26.0196602 133.50834,8.23529248 114.685504,2.25564903 C100.789354,-2.15421727 85.7919443,0.888735376 74.0500111,9.87752089 C55.6329025,23.9717047 42.2294206,43.2050975 22.078312,55.4107187 C5.25513092,65.6070251 -3.55011142,82.07761 2.10591643,105.358613 C7.76194429,128.639616 26.6572312,142.20249 47.3348189,140.555432 C64.5202563,139.169198 82.4881671,140.652033 97.3455042,148.993588 C110.623404,156.446407 134.08312,149.959604 153.490396,129.600802 C164.797621,117.733287 163.701192,102.644106 160.015838,88.5450919 C157.736039,79.8123008 156.258033,70.9056267 154.495053,62.0665738 Z" id="Path"></path>
                    </g>
                    <g id="freepik--Shadow--inject-2" transform="translate(0.000000, 167.120891)" fill-rule="nonzero">
                        <path d="M183.741209,3.12989415 C183.741209,4.63688022 142.685499,5.86372145 92.0565627,5.86372145 C41.4276267,5.86372145 0.367086351,4.63688022 0.367086351,3.12989415 C0.367086351,1.62290808 41.4227967,0.396066852 92.0565627,0.396066852 C142.690329,0.396066852 183.741209,1.62290808 183.741209,3.12989415 Z" id="Path" fill="#ADC7F7"></path>
                        <path d="M183.741209,3.12989415 C183.741209,4.63688022 142.685499,5.86372145 92.0565627,5.86372145 C41.4276267,5.86372145 0.367086351,4.63688022 0.367086351,3.12989415 C0.367086351,1.62290808 41.4227967,0.396066852 92.0565627,0.396066852 C142.690329,0.396066852 183.741209,1.62290808 183.741209,3.12989415 Z" id="Path" fill="#FFFFFF" opacity="0.3"></path>
                    </g>
                    <g id="freepik--Plants--inject-2" transform="translate(12.558217, 66.172145)">
                        <path d="M153.630468,51.4452201 C153.630468,51.4693705 154.871799,50.1652479 154.939421,50.0734763 C155.726724,49.0205181 156.62995,46.5185348 155.775025,45.315844 C155.477062,44.9209425 155.02538,44.6711954 154.532497,44.6288167 C154.039615,44.586438 153.55193,44.7554172 153.19093,45.0936602 C152.408457,45.779532 152.224914,47.049844 152.292535,48.030351 C152.374646,49.1799109 153.630468,51.44039 153.630468,51.4452201 Z" id="Path" fill="#ADC7F7" fill-rule="nonzero"></path>
                        <path d="M164.913543,46.9532423 C163.706022,46.1079777 161.213699,47.0305237 160.165571,47.8226574 C160.073799,47.8951086 158.779337,49.13161 158.803487,49.1412702 L158.832468,49.1412702 C158.436401,49.2861727 158.016184,49.4407354 157.557326,49.6242786 C156.716891,49.9623844 155.770195,50.3584513 154.765538,50.8511198 C153.680978,51.3784971 152.62641,51.9654432 151.606663,52.6092702 C150.463881,53.3267239 149.387341,54.1446359 148.389827,55.0532925 C148.377374,55.0633136 148.366038,55.0746494 148.356017,55.0871031 C148.56854,54.7151866 149.13366,53.638078 149.167471,53.5607967 C149.650479,52.3339554 149.858173,49.6967298 148.718273,48.7548635 C148.323936,48.4540821 147.820416,48.334916 147.333092,48.4270378 C146.845768,48.5191596 146.420492,48.8139013 146.163159,49.2378719 C145.593209,50.1072869 145.747772,51.3775989 146.076217,52.3049749 C146.443304,53.3531031 148.109682,55.082273 148.244925,55.2030251 C147.250228,56.1519618 146.320738,57.1669778 145.462797,58.2411476 C144.979788,58.8642284 144.47263,59.5066295 144.013772,60.1731811 C144.187655,59.8447354 144.342217,59.5452702 144.356708,59.5017994 C144.839716,58.2797883 145.047409,55.6377326 143.90751,54.6958663 C143.513967,54.3952547 143.011163,54.2761638 142.524592,54.3683174 C142.038022,54.4604709 141.613588,54.7551749 141.357226,55.1788747 C140.782446,56.0434596 140.941838,57.3186017 141.265454,58.2411476 C141.58907,59.1636936 142.989794,60.69 143.36171,61.0812368 L142.796591,61.8250696 C141.927175,63.0374206 141.067421,64.2401114 140.183515,65.4089916 C139.87439,65.8195487 139.555604,66.2156156 139.217499,66.6068524 C139.372061,66.3122173 139.502474,66.065883 139.516964,66.0272423 C139.999972,64.8004011 140.207666,62.1631755 139.067766,61.1971588 C138.673958,60.8948543 138.169959,60.7747531 137.682138,60.8669687 C137.194318,60.9591843 136.768936,61.2549718 136.512652,61.6801671 C135.937872,62.5495822 136.097265,63.8198942 136.42571,64.7472702 C136.754156,65.6746462 138.009978,67.04639 138.449515,67.5149081 C138.111409,67.9109749 137.773304,68.3022117 137.425538,68.6692981 C137.184033,68.9156323 136.97151,69.1523064 136.710685,69.3986407 L135.971682,70.0941727 C135.488674,70.5192201 135.005666,70.9635877 134.498507,71.3693148 C134.160401,71.6542897 133.836786,71.9151142 133.53249,72.1807688 C133.841616,71.7798719 134.440546,70.9732479 134.498507,70.9007967 C135.042615,69.8791508 135.315363,68.7349382 135.290641,67.5776992 C135.355038,67.4665883 135.409973,67.3502559 135.454864,67.2299331 C135.637437,66.7693036 135.616001,66.252841 135.395885,65.8089249 C135.175769,65.3650088 134.777644,65.035328 134.300474,64.9018329 C132.851448,64.5492368 130.871114,66.3025571 130.180412,67.4231365 C130.141772,67.4907577 129.774685,68.2539109 129.557331,68.7417493 C129.639443,68.437454 129.731214,68.1379889 129.813326,67.8240334 C129.987209,67.2009526 130.141772,66.5730418 130.296334,65.892 C130.363955,65.5635543 130.436407,65.2302786 130.508858,64.8970028 C130.581309,64.563727 130.62478,64.2063008 130.687571,63.8585348 C130.808323,63.0470808 130.895265,62.2211365 130.967716,61.385532 C131.513515,61.5352646 133.460039,62.0424234 134.435716,61.8685404 C135.411393,61.6946574 136.604423,61.2599499 137.097092,60.3470641 C137.349467,59.9204845 137.407805,59.4064774 137.257448,58.9341892 C137.10709,58.461901 136.76233,58.0762241 136.309788,57.8740613 C134.947705,57.3041114 132.711376,58.7386462 131.856451,59.7384735 C131.80332,59.8012646 131.272011,60.5885682 130.987036,61.0281058 C131.025677,60.5450975 131.064318,60.0234485 131.088468,59.5114596 C131.146429,58.0624345 131.165749,56.5506184 131.1899,55.0629526 C131.1899,54.6089248 131.1899,54.1548969 131.21888,53.7008691 C131.412084,53.754 133.716033,54.4060613 134.807632,54.2370084 C135.773649,54.0921058 136.97634,53.6332479 137.473838,52.715532 C137.722771,52.2876575 137.778671,51.7743175 137.627667,51.3028922 C137.476664,50.8314669 137.13291,50.446141 136.681705,50.2425292 C135.324451,49.6774095 133.083292,51.1119443 132.228368,52.1117716 C132.165577,52.1842228 131.402423,53.3192925 131.21888,53.6187577 C131.243031,52.6189304 131.276841,51.6191031 131.349292,50.6385961 C131.442499,49.3132638 131.619961,47.995207 131.880602,46.6924178 C131.972373,46.6924178 134.372925,47.4072702 135.493504,47.2333872 C136.459521,47.0884847 137.657382,46.6296267 138.15488,45.7119109 C138.40411,45.2846516 138.460711,44.7718211 138.31066,44.3004929 C138.160608,43.8291646 137.817944,43.443444 137.367577,43.2389081 C136.005493,42.6737883 133.764334,44.103493 132.91424,45.1081504 C132.856279,45.1709415 132.271838,46.0355265 132.006184,46.4509136 L131.928903,46.4219331 C132.227429,45.1169303 132.642885,43.8414661 133.170234,42.6109972 C133.450379,41.9299554 133.754674,41.2972145 134.06863,40.6789638 C134.503337,40.8528468 136.483671,41.6449805 137.517309,41.5870195 C138.550947,41.5290585 139.739148,41.2199331 140.333248,40.3650084 C140.628133,39.9675161 140.740745,39.4636715 140.64315,38.9784578 C140.545555,38.4932441 140.246896,38.0721219 139.821259,37.8195543 C138.531627,37.109532 136.145565,38.3025627 135.189209,39.186468 C135.136078,39.2347688 134.66273,39.7902284 134.319794,40.2007855 C134.464696,39.9303008 134.609599,39.6453259 134.754501,39.3845014 C135.295471,38.4184847 135.8461,37.5490696 136.343599,36.7907465 C136.628574,36.3656992 136.894228,35.9841226 137.150223,35.6266964 C137.662212,35.5783955 139.739148,35.3417214 140.613393,34.8442228 C141.487638,34.3467242 142.415014,33.4966295 142.545426,32.4629916 C142.625835,31.9744139 142.494136,31.4747281 142.183358,31.0892531 C141.87258,30.7037781 141.412204,30.4690788 140.917688,30.4440167 C139.444513,30.405376 137.874735,32.5451031 137.440028,33.7864345 C137.401387,33.8975265 137.00532,35.6411866 137.029471,35.6363565 L137.063281,35.6363565 C136.812117,35.9583621 136.546462,36.3254485 136.266318,36.7376156 C135.749499,37.4862786 135.174719,38.3363733 134.614429,39.30239 C133.997844,40.3385628 133.441463,41.4093952 132.94805,42.5095655 C132.391796,43.740095 131.944116,45.0168717 131.610117,46.3253315 C131.612819,46.3413184 131.612819,46.3576454 131.610117,46.3736323 C131.610117,45.9437549 131.465214,44.7410641 131.445894,44.6492925 C131.175409,43.3644903 129.885777,41.03639 128.422262,40.8914875 C127.928281,40.8541612 127.441741,41.0287165 127.084152,41.3715591 C126.726564,41.7144017 126.531686,42.1931642 126.548189,42.6882786 C126.548189,43.7267465 127.383794,44.7024234 128.166267,45.2916936 C129.050173,45.9630752 131.392763,46.4895543 131.581136,46.528195 C131.278036,47.8699103 131.06344,49.2300948 130.938735,50.5999554 C130.866284,51.3969192 130.813153,52.1987131 130.769682,53.0149972 C130.735872,52.6430808 130.702061,52.309805 130.692401,52.2663343 C130.417086,50.9767019 129.127454,48.6534318 127.663939,48.5036992 C127.169958,48.4663729 126.683418,48.6409282 126.325829,48.9837708 C125.968241,49.3266134 125.773363,49.8053759 125.789866,50.3004903 C125.789866,51.3389582 126.625471,52.3146351 127.407944,52.9087354 C128.190418,53.5028357 130.194903,53.9955042 130.721382,54.1210864 C130.721382,54.4302117 130.692401,54.739337 130.682741,55.0484624 C130.62478,56.5361281 130.576479,58.0237939 130.484708,59.477649 C130.450897,59.9896379 130.397766,60.4967967 130.349465,60.9991253 C130.320485,60.6706797 130.286674,60.3905348 130.281844,60.3518942 C130.006529,59.0622618 128.716897,56.7389916 127.253382,56.5892591 C126.759401,56.5519328 126.27286,56.7264881 125.915272,57.0693306 C125.557683,57.4121732 125.362806,57.8909358 125.379309,58.3860501 C125.379309,59.4293482 126.214914,60.400195 126.997387,60.9942953 C127.779861,61.5883955 129.591142,62.0375933 130.214223,62.1824958 C130.151432,62.6993148 130.083811,63.2161337 129.996869,63.7088022 C129.929248,64.0469081 129.890607,64.3801838 129.803666,64.7134596 L129.571822,65.6794763 C129.397939,66.3025571 129.228886,66.9497883 129.045343,67.5535487 C128.91976,67.973766 128.794178,68.374663 128.668596,68.78039 C128.707237,68.2684011 128.760368,67.2685738 128.755538,67.1816323 C128.683086,65.8726797 127.76054,63.3755265 126.340496,63.0084401 C125.858428,62.8980831 125.352174,62.9976193 124.947769,63.2822685 C124.543365,63.5669176 124.278854,64.0099015 124.220089,64.5009359 C124.060696,65.5297437 124.736908,66.6165125 125.42278,67.3217047 C126.108652,68.0268969 128.32083,68.9494429 128.591315,69.0557047 C128.378791,69.7222563 128.171097,70.3646574 127.963404,70.9877382 C127.243721,73.0888245 126.56751,74.8131643 126.079671,76.0110251 C126.079671,76.0544958 126.045861,76.0931365 126.02654,76.1317772 L126.905616,76.6147855 C126.934596,76.5375042 126.968407,76.4602228 126.997387,76.3781114 C127.480396,75.1561003 128.113136,73.3979499 128.789348,71.2582228 C129.006702,70.5820111 129.224056,69.8574986 129.441409,69.1088357 C130.178496,69.2011283 130.920418,69.2495145 131.663248,69.2537382 C131.928903,70.3308468 133.160574,72.0986574 133.319967,72.3256713 C132.778997,72.7652089 132.247688,73.1902563 131.740529,73.581493 C129.982379,74.9387465 128.465733,75.9965348 127.393454,76.7307075 L127.267872,76.817649 L128.233889,77.3489582 C129.277187,76.6002953 130.64893,75.5618273 132.276669,74.2673649 C132.827298,73.8229972 133.411738,73.3351588 134.001008,72.8183398 C134.218362,73.001883 135.981343,74.4992089 137.024641,74.7986741 C137.966507,75.0691588 139.246479,75.1561003 140.077253,74.5330195 C140.483185,74.2500543 140.749775,73.8079439 140.810583,73.3168714 C140.871392,72.8257988 140.720691,72.3320164 140.396039,71.958585 C139.401042,70.8718162 136.768646,71.2340724 135.565955,71.7847019 C135.498334,71.8185125 134.773822,72.2677103 134.319794,72.538195 C134.561298,72.3305014 134.802802,72.132468 135.039476,71.9151142 C135.522485,71.4948969 136.005493,71.0553593 136.517482,70.5820111 L137.241994,69.8719889 C137.488329,69.6353148 137.725003,69.36 137.966507,69.1040056 C138.517136,68.495415 139.043616,67.8530139 139.560435,67.1961226 C139.937181,67.6211699 141.284774,69.128156 142.17834,69.533883 C143.071905,69.93961 144.322897,70.2197549 145.240613,69.7319164 C145.683832,69.5126043 146.013458,69.1158686 146.147851,68.6399699 C146.282244,68.1640711 146.208835,67.653519 145.945805,67.2347632 C145.124691,66.0127521 142.468145,65.9692813 141.202663,66.3315376 C141.120552,66.355688 140.236646,66.7179443 139.753638,66.9256379 C140.057933,66.529571 140.371889,66.1335042 140.666524,65.718117 C141.531109,64.5250864 142.366713,63.3030752 143.207148,62.0665738 L143.984791,60.9459944 C144.115203,61.095727 145.68015,62.9118384 146.684808,63.3610362 C147.573543,63.7715933 148.824535,64.0517382 149.742251,63.5590696 C150.187719,63.3420557 150.519441,62.9452946 150.654107,62.4684273 C150.788774,61.9915601 150.713592,61.4798902 150.447443,61.0619164 C149.626329,59.8399053 146.969783,59.7964345 145.704301,60.1635209 C145.612529,60.1876713 144.347047,60.7141504 144.033092,60.863883 C144.603042,60.0427688 145.182652,59.2264847 145.786412,58.4488412 C146.591347,57.3918873 147.465925,56.3898332 148.404318,55.4493593 C148.467109,55.5218106 150.090017,57.4200334 151.113994,57.8933816 C152.00756,58.3087688 153.258552,58.5840836 154.176267,58.0962451 C154.620607,57.8780751 154.951274,57.4813269 155.085803,57.0049473 C155.220332,56.5285677 155.146041,56.0174602 154.88146,55.5990919 C154.060345,54.3722507 151.403799,54.33361 150.138318,54.6958663 C150.056206,54.7200167 149.095019,55.1209136 148.640992,55.3189471 L148.592691,55.2464958 C149.561989,54.32627 150.611008,53.4938432 151.727415,52.7590028 C152.340836,52.3436156 152.944596,51.9813593 153.543526,51.6480836 C153.809181,52.0296602 155.040852,53.7733203 155.919928,54.3046295 C156.799003,54.8359387 157.972713,55.2271755 158.93873,54.8407688 C159.405529,54.6711915 159.777864,54.3106033 159.962314,53.8494784 C160.146764,53.3883535 160.125824,52.8704549 159.904747,52.425727 C159.223705,51.1167744 156.586479,50.7883287 155.292017,51.0105125 C155.219565,51.0105125 154.514373,51.2230362 154.007214,51.3775989 L154.818669,50.9332312 C155.808836,50.4212423 156.750702,50.0058552 157.576646,49.648429 C158.059655,49.4503955 158.484702,49.2765125 158.890429,49.1219499 C159.349287,49.363454 161.204039,50.3149805 162.208696,50.3777716 C163.213354,50.4405627 164.459515,50.2473593 165.135727,49.4600557 C165.448159,49.1022389 165.601083,48.6324424 165.559145,48.1592743 C165.517207,47.6861063 165.284039,47.2505299 164.913543,46.9532423 Z" id="Path" fill="#ADC7F7" fill-rule="nonzero"></path>
                        <path d="M130.987036,38.3315432 C131.687398,39.2492591 133.981688,40.4422897 133.986518,40.4422897 C133.991348,40.4422897 134.314964,38.6937994 134.319794,38.5778774 C134.397075,37.2640947 133.769164,34.6848301 132.38776,34.1535209 C131.920997,33.9878946 131.405822,34.028581 130.970843,34.265423 C130.535865,34.502265 130.222131,34.912913 130.107961,35.3948524 C129.837476,36.3946797 130.412256,37.5538997 130.987036,38.3315432 Z" id="Path" fill="#ADC7F7" fill-rule="nonzero"></path>
                        <g id="Group" opacity="0.5" transform="translate(124.133148, 30.429526)" fill="#FFFFFF" fill-rule="nonzero">
                            <path d="M29.4973203,21.0156936 C29.4973203,21.039844 30.7386518,19.7357214 30.806273,19.6439499 C31.5935766,18.5909916 32.4968022,16.0890084 31.6418774,14.8863175 C31.3439142,14.4914161 30.8922324,14.241669 30.3993498,14.1992903 C29.9064671,14.1569116 29.4187827,14.3258908 29.0577827,14.6641337 C28.2753092,15.3500056 28.091766,16.6203175 28.1593872,17.6008245 C28.2414986,18.7503844 29.4973203,21.0108635 29.4973203,21.0156936 Z" id="Path"></path>
                            <path d="M40.7803955,16.5237159 C39.5728747,15.6784513 37.0805515,16.6009972 36.0324234,17.3931309 C35.9406518,17.4655822 34.6461894,18.7020836 34.6703398,18.7117437 L34.6993203,18.7117437 C34.3032535,18.8566462 33.8830362,19.0112089 33.4241783,19.1947521 C32.5837437,19.5328579 31.6370474,19.9289248 30.63239,20.4215933 C29.5478302,20.9489706 28.4932622,21.5359168 27.4735153,22.1797437 C26.3307335,22.8971974 25.2541932,23.7151095 24.2566797,24.623766 C24.244226,24.6337872 24.2328902,24.645123 24.2228691,24.6575766 C24.4353928,24.2856602 25.0005125,23.2085515 25.0343231,23.1312702 C25.5173315,21.904429 25.7250251,19.2672033 24.5851253,18.325337 C24.190788,18.0245556 23.6872688,17.9053896 23.1999445,17.9975114 C22.7126201,18.0896332 22.2873443,18.3843748 22.0300111,18.8083454 C21.4600613,19.6777604 21.614624,20.9480724 21.9430696,21.8754485 C22.310156,22.9235766 23.9765348,24.6527465 24.1117772,24.7734986 C23.1170799,25.7224354 22.18759,26.7374513 21.329649,27.8116212 C20.8466407,28.4347019 20.3394819,29.0771031 19.880624,29.7436546 C20.054507,29.4152089 20.2090696,29.1157437 20.2235599,29.072273 C20.7065682,27.8502618 20.9142618,25.2082061 19.7743621,24.2663398 C19.3808192,23.9657282 18.8780156,23.8466373 18.3914448,23.9387909 C17.9048741,24.0309444 17.4804407,24.3256484 17.224078,24.7493482 C16.6492981,25.6139331 16.8086908,26.8890752 17.1323064,27.8116212 C17.455922,28.7341671 18.8566462,30.2604735 19.2285627,30.6517103 L18.6634429,31.3955432 C17.7940279,32.6078942 16.934273,33.810585 16.0503677,34.9794652 C15.7412423,35.3900223 15.4224568,35.7860891 15.084351,36.1773259 C15.2389136,35.8826908 15.3693259,35.6363565 15.3838162,35.5977159 C15.8668245,34.3708747 16.0745181,31.733649 14.9346184,30.7676323 C14.5408105,30.4653278 14.0368112,30.3452266 13.5489905,30.4374422 C13.0611699,30.5296578 12.6357885,30.8254454 12.3795042,31.2506407 C11.8047242,32.1200557 11.964117,33.3903677 12.2925627,34.3177437 C12.6210084,35.2451198 13.8768301,36.6168635 14.3163677,37.0853816 C13.9782618,37.4814485 13.640156,37.8726852 13.29239,38.2397716 C13.0508858,38.4861058 12.8383621,38.7227799 12.5775376,38.9691142 L11.8385348,39.6646462 C11.3555265,40.0896936 10.8725181,40.5340613 10.3653593,40.9397883 C10.0272535,41.2247632 9.70363788,41.4855877 9.39934262,41.7512423 C9.70846797,41.3503454 10.3073983,40.5437214 10.3653593,40.4712702 C10.909467,39.4496244 11.1822154,38.3054117 11.157493,37.1481727 C11.2218908,37.0370618 11.2768255,36.9207294 11.3217159,36.8004067 C11.5042893,36.3397772 11.4828538,35.8233145 11.2627377,35.3793984 C11.0426216,34.9354823 10.6444964,34.6058015 10.1673259,34.4723064 C8.71830084,34.1197103 6.73796657,35.8730306 6.04726462,36.99361 C6.00862396,37.0612312 5.6415376,37.8243844 5.42418384,38.3122228 C5.50629526,38.0079276 5.59806685,37.7084624 5.68017827,37.394507 C5.85406128,36.7714262 6.00862396,36.1435153 6.16318663,35.4624735 C6.2308078,35.1340279 6.30325905,34.8007521 6.37571031,34.4674763 C6.44816156,34.1342006 6.49163231,33.7767744 6.5544234,33.4290084 C6.67517549,32.6175543 6.76211699,31.79161 6.83456825,30.9560056 C7.38036769,31.1057382 9.32689136,31.6128969 10.3025682,31.4390139 C11.2782451,31.2651309 12.4712758,30.8304234 12.9639443,29.9175376 C13.2163196,29.490958 13.2746573,28.9769509 13.1242999,28.5046627 C12.9739426,28.0323746 12.629182,27.6466976 12.1766407,27.4445348 C10.8145571,26.874585 8.57822841,28.3091198 7.72330362,29.3089471 C7.6701727,29.3717382 7.13886351,30.1590418 6.85388858,30.5985794 C6.89252925,30.115571 6.93116992,29.593922 6.95532033,29.0819331 C7.01328134,27.6329081 7.03260167,26.1210919 7.05675209,24.6334262 C7.05675209,24.1793983 7.05675209,23.7253705 7.08573259,23.2713426 C7.27893593,23.3244735 9.58288579,23.9765348 10.6744847,23.8074819 C11.6405014,23.6625794 12.8431922,23.2037214 13.3406908,22.2860056 C13.5896231,21.858131 13.645523,21.3447911 13.4945196,20.8733657 C13.3435161,20.4019404 12.9997623,20.0166145 12.5485571,19.8130028 C11.1913036,19.247883 8.95014485,20.6824178 8.09522006,21.6822451 C8.03242897,21.7546964 7.26927577,22.889766 7.08573259,23.1892312 C7.10988301,22.1894039 7.14369359,21.1895766 7.21614485,20.2090696 C7.30935186,18.8837374 7.4868136,17.5656806 7.74745404,16.2628914 C7.83922563,16.2628914 10.2397772,16.9777437 11.3603565,16.8038607 C12.3263733,16.6589582 13.524234,16.2001003 14.0217326,15.2823844 C14.2709623,14.8551252 14.3275638,14.3422947 14.177512,13.8709664 C14.0274603,13.3996381 13.6847965,13.0139175 13.234429,12.8093816 C11.8723454,12.2442618 9.63118663,13.6739666 8.78109192,14.678624 C8.72313092,14.741415 8.13869081,15.606 7.87303621,16.0213872 L7.79575487,15.9924067 C8.09428173,14.6874038 8.50973713,13.4119396 9.03708635,12.1814708 C9.3172312,11.500429 9.62152646,10.867688 9.93548189,10.2494373 C10.3701894,10.4233203 12.3505237,11.215454 13.3841616,11.157493 C14.4177994,11.099532 15.606,10.7904067 16.2001003,9.93548189 C16.4949851,9.53798966 16.6075972,9.03414505 16.510002,8.54893135 C16.4124069,8.06371765 16.1137483,7.64259541 15.6881114,7.39002786 C14.3984791,6.68000557 12.0124178,7.87303621 11.0560613,8.7569415 C11.0029304,8.80524234 10.5295822,9.36070195 10.1866462,9.77125905 C10.3315487,9.50077437 10.4764513,9.21579944 10.6213538,8.95497493 C11.1623231,7.98895822 11.7129526,7.11954318 12.2104513,6.36122006 C12.4954262,5.9361727 12.7610808,5.5545961 13.0170752,5.19716992 C13.5290641,5.14886908 15.606,4.91219499 16.4802451,4.41469638 C17.3544903,3.91719777 18.2818663,3.06710306 18.4122786,2.03346518 C18.4926874,1.54488745 18.3609882,1.04520165 18.0502105,0.659726626 C17.7394328,0.274251597 17.279056,0.0395523154 16.7845404,0.0144902507 C15.3113649,-0.0241504178 13.7415877,2.1155766 13.3068802,3.35690808 C13.2682396,3.468 12.8721727,5.21166017 12.8963231,5.20683008 L12.9301337,5.20683008 C12.6789694,5.52883565 12.4133148,5.89592201 12.1331699,6.30808914 C11.616351,7.05675209 11.041571,7.9068468 10.4812813,8.87286351 C9.86469662,9.90903632 9.30831532,10.9798687 8.81490251,12.080039 C8.25864794,13.3105686 7.81096803,14.5873452 7.47696936,15.895805 C7.47967164,15.9117919 7.47967164,15.928119 7.47696936,15.9441058 C7.47696936,15.5142284 7.33206685,14.3115376 7.31274652,14.219766 C7.04226184,12.9349638 5.75262953,10.6068635 4.28911421,10.461961 C3.79513309,10.4246348 3.30859303,10.59919 2.95100452,10.9420326 C2.593416,11.2848752 2.3985386,11.7636377 2.41504178,12.2587521 C2.41504178,13.2972201 3.25064624,14.2728969 4.03311978,14.8621671 C4.91702507,15.5335487 7.2596156,16.0600279 7.44798886,16.0986685 C7.14488885,17.4403838 6.93029272,18.8005683 6.80558774,20.170429 C6.73313649,20.9673928 6.68000557,21.7691866 6.63653482,22.5854708 C6.60272423,22.2135543 6.56891365,21.8802786 6.55925348,21.8368078 C6.28393872,20.5471755 4.99430641,18.2239053 3.53079109,18.0741727 C3.03680997,18.0368465 2.55026991,18.2114017 2.1926814,18.5542443 C1.83509288,18.8970869 1.64021548,19.3758494 1.65671866,19.8709638 C1.65671866,20.9094318 2.49232312,21.8851086 3.27479666,22.4792089 C4.05727019,23.0733092 6.06175487,23.5659777 6.58823398,23.6915599 C6.58823398,24.0006852 6.55925348,24.3098106 6.54959331,24.6189359 C6.49163231,26.1066017 6.44333148,27.5942674 6.35155989,29.0481226 C6.3177493,29.5601114 6.26461838,30.0672702 6.21631755,30.5695989 C6.18733705,30.2411532 6.15352646,29.9610084 6.14869638,29.9223677 C5.87338162,28.6327354 4.5837493,26.3094652 3.12023398,26.1597326 C2.62625287,26.1224063 2.1397128,26.2969616 1.78212429,26.6398042 C1.42453578,26.9826468 1.22965838,27.4614093 1.24616156,27.9565237 C1.24616156,28.9998217 2.08176602,29.9706685 2.86423955,30.5647688 C3.64671309,31.1588691 5.45799443,31.6080669 6.08107521,31.7529694 C6.01828412,32.2697883 5.95066295,32.7866072 5.86372145,33.2792758 C5.79610028,33.6173816 5.75745961,33.9506574 5.67051811,34.2839331 L5.43867409,35.2499499 C5.26479109,35.8730306 5.09573816,36.5202618 4.91219499,37.1240223 C4.78661281,37.5442396 4.66103064,37.9451365 4.53544847,38.3508635 C4.57408914,37.8388747 4.62722006,36.8390474 4.62238997,36.7521058 C4.54993872,35.4431532 3.62739276,32.946 2.20734819,32.5789136 C1.72528033,32.4685566 1.21902619,32.5680929 0.814621739,32.852742 C0.410217287,33.1373911 0.14570653,33.5803751 0.0869415042,34.0714095 C-0.0724512535,35.1002173 0.603760446,36.1869861 1.28963231,36.8921783 C1.97550418,37.5973705 4.18768245,38.5199164 4.45816713,38.6261783 C4.24564345,39.2927298 4.03794986,39.9351309 3.83025627,40.5582117 C3.11057382,42.6592981 2.43436212,44.3836379 1.94652368,45.5814986 C1.94652368,45.6249694 1.91271309,45.66361 1.89339276,45.7022507 L2.77246797,46.1852591 C2.80144847,46.1079777 2.83525905,46.0306964 2.86423955,45.948585 C3.34724791,44.7265738 3.97998886,42.9684234 4.65620056,40.8286964 C4.87355432,40.1524847 5.09090808,39.4279721 5.30826184,38.6793092 C6.0453483,38.7716018 6.78727019,38.819988 7.53010028,38.8242117 C7.79575487,39.9013203 9.02742618,41.6691309 9.18681894,41.8961448 C8.64584958,42.3356825 8.11454039,42.7607298 7.60738162,43.1519666 C5.8492312,44.5092201 4.33258496,45.5670084 3.26030641,46.3011811 L3.13472423,46.3881226 L4.10074095,46.9194318 C5.144039,46.1707688 6.51578273,45.1323008 8.14352089,43.8378384 C8.69415042,43.3934708 9.27859053,42.9056323 9.86786072,42.3888134 C10.0852145,42.5723565 11.848195,44.0696825 12.891493,44.3691476 C13.8333593,44.6396323 15.1133315,44.7265738 15.9441058,44.103493 C16.3500376,43.8205279 16.6166275,43.3784174 16.6774357,42.8873449 C16.738244,42.3962724 16.5875433,41.9024899 16.2628914,41.5290585 C15.2678942,40.4422897 12.6354986,40.804546 11.4328078,41.3551755 C11.3651866,41.3889861 10.6406741,41.8381838 10.1866462,42.1086685 C10.4281504,41.9009749 10.6696546,41.7029415 10.9063287,41.4855877 C11.389337,41.0653705 11.8723454,40.6258329 12.3843343,40.1524847 L13.1088468,39.4424624 C13.3551811,39.2057883 13.5918552,38.9304735 13.8333593,38.6744791 C14.3839889,38.0658886 14.910468,37.4234875 15.4272869,36.7665961 C15.8040334,37.1916435 17.1516267,38.6986295 18.0451922,39.1043565 C18.9387577,39.5100836 20.1897493,39.7902284 21.1074652,39.30239 C21.5506844,39.0830779 21.8803102,38.6863421 22.0147033,38.2104434 C22.1490963,37.7345447 22.0756872,37.2239925 21.8126574,36.8052368 C20.9915432,35.5832256 18.3349972,35.5397549 17.0695153,35.9020111 C16.9874039,35.9261616 16.1034986,36.2884178 15.6204903,36.4961114 C15.9247855,36.1000446 16.2387409,35.7039777 16.533376,35.2885905 C17.397961,34.0955599 18.2335655,32.8735487 19.074,31.6370474 L19.8516435,30.516468 C19.9820557,30.6662006 21.5470028,32.482312 22.5516602,32.9315097 C23.4403955,33.3420669 24.6913872,33.6222117 25.6091031,33.1295432 C26.0545718,32.9125293 26.3862931,32.5157681 26.5209597,32.0389009 C26.6556263,31.5620336 26.5804445,31.0503637 26.3142953,30.63239 C25.4931811,29.4103788 22.8366351,29.3669081 21.5711532,29.7339944 C21.4793816,29.7581448 20.2138997,30.284624 19.8999443,30.4343565 C20.4698942,29.6132423 21.0495042,28.7969582 21.6532646,28.0193148 C22.4581991,26.9623608 23.3327777,25.9603068 24.2711699,25.0198329 C24.333961,25.0922841 25.9568691,26.990507 26.9808468,27.4638552 C27.8744123,27.8792423 29.1254039,28.1545571 30.0431198,27.6667187 C30.487459,27.4485486 30.8181263,27.0518005 30.9526552,26.5754209 C31.087184,26.0990413 31.0128938,25.5879337 30.748312,25.1695655 C29.9271978,23.9427242 27.2706518,23.9040836 26.0051699,24.2663398 C25.9230585,24.2904903 24.9618719,24.6913872 24.507844,24.8894206 L24.4595432,24.8169694 C25.4288413,23.8967436 26.4778607,23.0643168 27.5942674,22.3294763 C28.207688,21.9140891 28.8114485,21.5518329 29.4103788,21.2185571 C29.6760334,21.6001337 30.9077047,23.3437939 31.7867799,23.8751031 C32.6658552,24.4064123 33.8395655,24.797649 34.8055822,24.4112423 C35.2723814,24.241665 35.6447168,23.8810768 35.8291667,23.4199519 C36.0136167,22.958827 35.992676,22.4409284 35.7715989,21.9962006 C35.0905571,20.6872479 32.4533315,20.3588022 31.1588691,20.5809861 C31.0864178,20.5809861 30.3812256,20.7935097 29.8740669,20.9480724 L30.6855209,20.5037047 C31.675688,19.9917159 32.6175543,19.5763287 33.4434986,19.2189025 C33.926507,19.0208691 34.3515543,18.8469861 34.7572813,18.6924234 C35.2161393,18.9339276 37.0708914,19.885454 38.0755487,19.9482451 C39.0802061,20.0110362 40.3263677,19.8178329 41.0025794,19.0305292 C41.3150116,18.6727124 41.4679354,18.2029159 41.4259976,17.7297479 C41.3840598,17.2565798 41.150891,16.8210035 40.7803955,16.5237159 Z" id="Path"></path>
                            <path d="M6.85388858,7.90201671 C7.5542507,8.81973259 9.84854039,10.0127632 9.85337047,10.0127632 C9.85820056,10.0127632 10.1818162,8.26427298 10.1866462,8.14835097 C10.2639276,6.83456825 9.63601671,4.25530362 8.25461281,3.72399443 C7.78784929,3.55836818 7.2726739,3.59905455 6.83769561,3.83589654 C6.40271732,4.07273853 6.0889829,4.48338653 5.97481337,4.96532591 C5.70432869,5.9651532 6.27910864,7.12437326 6.85388858,7.90201671 Z" id="Path"></path>
                        </g>
                        <path d="M36.7086351,13.9106407 C36.7376156,13.9106407 36.3318886,11.8868357 36.2884178,11.7660836 C35.8054095,10.3170585 34.0665794,7.80058496 32.36639,7.8054081 C31.7952907,7.82330686 31.2586656,8.08291804 30.8901659,8.51959015 C30.5216663,8.95626225 30.3559741,9.52889698 30.4343565,10.0948747 C30.5599387,11.2879053 31.6322173,12.3070529 32.6030641,12.891493 C33.7333036,13.582195 36.7086351,13.9106407 36.7086351,13.9106407 Z" id="Path" fill="#ADC7F7" fill-rule="nonzero"></path>
                        <path d="M39.997922,0.28497493 C38.3943343,0.859754875 37.5828802,3.82542618 37.6505014,5.34207242 C37.6505014,5.47248468 37.9547967,7.51561003 37.9837772,7.50111978 L38.0175877,7.50111978 C37.8871755,7.98412813 37.7567632,8.46713649 37.6215209,9.0225961 C37.3800167,10.0417437 37.1385125,11.1961337 36.9163287,12.4712758 C36.686964,13.8446347 36.5353798,15.2298563 36.4623008,16.6203175 C36.3775016,18.175651 36.4308416,19.7354411 36.6216936,21.2813482 C36.6240204,21.3005985 36.6240204,21.3200589 36.6216936,21.3393092 C36.414,20.8852813 35.7860891,19.6439499 35.7232981,19.5521783 C34.8925237,18.2818663 32.5354429,16.3160223 30.8932145,16.7700501 C30.3474677,16.9389984 29.8988453,17.3312485 29.6585622,17.8495603 C29.4182791,18.3678721 29.408832,18.9637184 29.6325627,19.4893872 C30.0672702,20.6051365 31.3713928,21.3054986 32.4629916,21.614624 C33.694663,21.9672201 36.4381504,21.5518329 36.6555042,21.5180223 C36.8875235,23.0877356 37.2247793,24.6400805 37.6649916,26.1645627 C37.916156,27.0532981 38.1963008,27.9420334 38.4909359,28.8307688 C38.2977326,28.4443621 38.1190195,28.1014262 38.090039,28.0579554 C37.2544345,26.7876435 34.9021838,24.8217994 33.2599554,25.2758273 C32.7136058,25.4423403 32.2639384,25.8334996 32.023362,26.3515224 C31.7827856,26.8695451 31.7740371,27.4654728 31.9993036,27.9903343 C32.4340111,29.1109136 33.7381337,29.8112758 34.8297326,30.1204011 C35.9213315,30.4295265 38.2784123,30.1204011 38.901493,30.0382897 C39.017415,30.3763955 39.128507,30.7193315 39.244429,31.0574373 C39.8047187,32.6803454 40.3746685,34.3032535 40.8818273,35.8875209 C41.0605404,36.4526407 41.2151031,37.0177604 41.3648357,37.5780501 C41.1909526,37.2351142 41.0460501,36.9501393 41.0170696,36.9114986 C40.1862953,35.6411866 37.8292145,33.6753426 36.1869861,34.1293705 C35.6406364,34.2958835 35.190969,34.6870428 34.9503926,35.2050655 C34.7098162,35.7230883 34.7010678,36.319016 34.9263343,36.8438774 C35.3610418,37.9644568 36.6651643,38.6648189 37.7567632,38.9739443 C38.8483621,39.2830696 40.978429,39.012585 41.7174318,38.9063231 C41.8623343,39.4907632 42.0072368,40.0703733 42.1183287,40.6403231 C42.1907799,41.0315599 42.2825515,41.4034763 42.3308524,41.8043733 C42.3791532,42.2052702 42.4371142,42.5820167 42.4950752,42.9635933 C42.5723565,43.7074262 42.654468,44.4754095 42.712429,45.2047521 C42.7558997,45.6877604 42.7848802,46.1707688 42.8186908,46.6537772 C42.6496379,46.0886574 42.2873816,44.9873983 42.2487409,44.9004568 C41.6473098,43.7065552 40.7512531,42.6858153 39.6453259,41.9347855 C39.5836367,41.7992541 39.5092428,41.6698736 39.4231421,41.5483788 C39.1136966,41.0673258 38.6147273,40.7401041 38.0502031,40.6480121 C37.4856789,40.5559201 36.9085851,40.7076013 36.4623008,41.0653705 C35.1774986,42.1811198 35.4962841,45.2289025 36.0903844,46.6296267 C36.124195,46.7117382 36.6072033,47.5618329 36.9163287,48.0786518 C36.6844847,47.7936769 36.4671309,47.513532 36.2256267,47.2188969 C35.7426184,46.644117 35.25961,46.0789972 34.737961,45.4704067 L33.9409972,44.6058217 C33.6801727,44.3111866 33.3710474,44.0358719 33.0812423,43.7460669 C32.4050306,43.0891755 31.6805181,42.4564345 30.9415153,41.8140334 C31.4245237,41.3986462 33.2213148,39.882 33.7333036,38.8821727 C34.2452925,37.8823454 34.6027187,36.4333203 34.0714095,35.3562117 C33.8364417,34.8353028 33.3907895,34.439083 32.8459616,34.2666924 C32.3011337,34.0943019 31.7086759,34.1620503 31.2168301,34.4529861 C29.767805,35.3562117 29.6325627,38.4184847 30.0044791,39.8916602 C30.0286295,39.9834318 30.4150362,41.0074095 30.6372201,41.5676992 C30.1880223,41.2006128 29.7436546,40.8286964 29.2799666,40.4664401 C27.9323733,39.4279721 26.5413092,38.4184847 25.1550752,37.4041671 C24.7300279,37.0950418 24.3098106,36.7762563 23.8895933,36.4671309 C24.0731365,36.3173983 26.2225237,34.5833983 26.7876435,33.4434986 C27.2948022,32.4291811 27.6618886,30.9946462 27.1305794,29.9175376 C26.8956116,29.3966287 26.4499594,29.0004089 25.9051315,28.8280183 C25.3603036,28.6556278 24.7678459,28.7233762 24.276,29.014312 C22.8269749,29.9175376 22.6869025,32.9798106 23.063649,34.4529861 C23.063649,34.564078 23.6480891,36.0420836 23.8074819,36.4091699 C22.8801058,35.718468 21.9672201,35.0229359 21.0881448,34.2984234 C19.8954833,33.3283518 18.7661539,32.2829154 17.7070864,31.1685292 C17.7940279,31.1009081 20.0448468,29.2992869 20.6051365,28.1304067 C21.1122953,27.1160891 21.4793816,25.6815543 20.9480724,24.6044457 C20.7131047,24.0835367 20.2674525,23.687317 19.7226245,23.5149264 C19.1777966,23.3425359 18.5853389,23.4102843 18.093493,23.7012201 C16.644468,24.6044457 16.5043955,27.6667187 16.8811421,29.1398942 C16.8811421,29.2364958 17.3303398,30.3619053 17.5428635,30.8932145 L17.4607521,30.9415153 C16.4302782,29.7904982 15.5056044,28.5489781 14.6979443,27.2320111 C14.2439164,26.5171588 13.8526797,25.7829861 13.4855933,25.1019443 C13.9347911,24.8073092 15.9972368,23.4500557 16.6396379,22.4550585 C17.282039,21.4600613 17.7747075,20.1172981 17.3641504,18.9918886 C17.187807,18.448064 16.7886655,18.0048004 16.2662384,17.7726106 C15.7438113,17.5404207 15.147325,17.5411831 14.625493,17.7747075 C13.0943565,18.5185404 12.6161783,21.5470028 12.8238719,23.0491588 C12.8238719,23.1312702 13.0412256,23.9523844 13.2006184,24.5464847 C13.0412256,24.2276992 12.8721727,23.8992535 12.71761,23.580468 C12.1573203,22.4212479 11.7177827,21.329649 11.331376,20.3539721 C11.1188524,19.7985125 10.9401393,19.2961838 10.7759164,18.8180056 C11.0705515,18.3011866 12.2249415,16.1904401 12.3408635,15.0360501 C12.4567855,13.8816602 12.2780724,12.4374652 11.3748468,11.6260111 C10.9675457,11.2253891 10.4092728,11.016585 9.83903888,11.0515913 C9.26880492,11.0865976 8.7402646,11.3621204 8.38502507,11.8095543 C7.37070752,13.1716379 8.34155432,16.0841783 9.22062953,17.3206797 C9.29308078,17.4269415 10.6696546,18.9677382 10.6696546,18.9387577 L10.6696546,18.9049471 C10.8193872,19.3879554 10.98361,19.8709638 11.152663,20.3926128 C11.5149192,21.3586295 11.9351365,22.484039 12.4712758,23.6577493 C13.0335853,24.9307653 13.6706576,26.1694272 14.3791588,27.3672535 C15.1681061,28.7123738 16.0731691,29.9859267 17.0840056,31.1733593 L17.1226462,31.212 C16.6975989,30.9511755 15.490078,30.2459833 15.3886462,30.2170028 C13.9927521,29.6180724 10.9449694,29.2799666 9.82438997,30.5599387 C9.46172178,31.0020889 9.30356937,31.5772964 9.38920994,32.1427083 C9.47485051,32.7081202 9.79624964,33.2106921 10.2735877,33.52561 C11.2396045,34.216312 12.7272702,34.0810696 13.8043788,33.7381337 C15.02639,33.351727 17.0840056,31.4921448 17.2482284,31.3230919 C18.3006263,32.5027341 19.430126,33.6112574 20.6292869,34.6413593 C21.329649,35.2451198 22.0541616,35.83439 22.7883343,36.4091699 L22.0300111,35.9841226 C20.634117,35.3851922 17.5863343,35.0470864 16.4657549,36.3318886 C16.1028053,36.7726025 15.9439448,37.3466448 16.0286818,37.9112515 C16.1134189,38.4758582 16.4337913,38.9779765 16.9101226,39.2927298 C17.8761393,39.9882618 19.363805,39.8481894 20.4457437,39.5052535 C21.5276825,39.1623175 23.3437939,37.6118607 23.7978217,37.1916435 L24.6479164,37.8533649 C26.0148301,38.896663 27.3817437,39.9351309 28.6906964,40.9929192 C29.1495543,41.3648357 29.5890919,41.7512423 30.0334596,42.1328189 C29.7001838,41.9444457 29.420039,41.7850529 29.3717382,41.7657326 C27.9806741,41.1668022 24.9280613,40.8286964 23.812312,42.1086685 C23.4491765,42.5501927 23.290241,43.1249657 23.3749533,43.6903281 C23.4596656,44.2556906 23.7800838,44.7586386 24.2566797,45.0743398 C25.2226964,45.7650418 26.7103621,45.6297994 27.7923008,45.2868635 C28.8742396,44.9439276 30.5019777,43.5383733 31.0574373,43.0457047 C31.501805,43.4514318 31.9413426,43.8571588 32.3518997,44.272546 C32.6272145,44.5575209 32.9073593,44.8183454 33.1681838,45.1226407 L33.9458273,46.0017159 C34.4288357,46.5813259 34.911844,47.1754262 35.3610418,47.7502061 C35.6749972,48.146273 35.9696323,48.5326797 36.2642674,48.9190864 C35.8102396,48.5423398 34.9021838,47.8226574 34.8152423,47.7743565 C33.52561,46.9677326 30.5647688,46.1707688 29.2654763,47.2913482 C28.8395218,47.6725217 28.5960724,48.2170707 28.5960724,48.7886741 C28.5960724,49.3602775 28.8395218,49.9048265 29.2654763,50.286 C30.1300613,51.1216045 31.6080669,51.208546 32.7286462,51.034663 C33.9603175,50.8414596 36.1966462,49.3827744 36.471961,49.1992312 C36.9549694,49.8416323 37.4379777,50.4695432 37.858195,51.0733036 C39.3651811,53.1502396 40.5388914,54.9373705 41.3406852,56.1980223 L41.4227967,56.3284345 L42.4612646,55.8212758 L42.2970418,55.5749415 C41.4566072,54.3191198 40.2345961,52.5368189 38.669649,50.4743733 C38.1866407,49.8174819 37.6408412,49.13161 37.0805515,48.4312479 C37.655572,47.7956454 38.1941815,47.1280277 38.6937994,46.4315933 C39.8868301,46.9146017 42.3791532,46.9146017 42.6979387,46.9146017 C42.7510696,47.7212256 42.7945404,48.5036992 42.8235209,49.2427019 C42.9297827,51.8026462 42.9249526,53.9423733 42.8959721,55.4396992 L42.8959721,55.6135822 L44.0358719,55.0581226 C44.0358719,53.5704568 43.9827409,51.5659721 43.8281783,49.189571 C43.7798774,48.3732869 43.7122563,47.4990418 43.6301448,46.6054763 C43.9489304,46.528195 46.528195,45.8616435 47.4942117,45.084 C48.378117,44.3739777 49.3103231,43.2244178 49.2813426,42.0265571 C49.2856255,41.4544538 49.0464063,40.9075235 48.623406,40.5223076 C48.2004058,40.1370917 47.6335427,39.9499426 47.0643343,40.0075822 C45.3786351,40.2249359 43.9634206,42.944273 43.6832758,44.4415989 C43.6832758,44.5285404 43.5963343,45.5042173 43.5576936,46.1176379 C43.523883,45.7553816 43.4949025,45.3979554 43.4562618,45.0212089 C43.3789805,44.2822061 43.2823788,43.5383733 43.1809471,42.7462396 L42.9925738,41.5821894 C42.9394429,41.1957827 42.8331811,40.7948858 42.7510696,40.3939889 C42.5482061,39.4666128 42.2970418,38.5440669 42.021727,37.6118607 C42.6689582,37.5490696 44.9777382,37.2737549 45.9679053,36.7086351 C46.9580724,36.1435153 48.0448412,35.1485181 48.1945738,33.9554875 C48.2859694,33.3912134 48.1327006,32.8147216 47.7731395,32.3703409 C47.4135783,31.9259602 46.8817645,31.6557602 46.3108412,31.6273872 C44.6106518,31.5839164 42.7993705,34.042429 42.3018719,35.491454 C42.2680613,35.5783955 42.0265571,36.6506741 41.9009749,37.2399443 C41.731922,36.6844847 41.5676992,36.1290251 41.3793259,35.5687354 C40.8286964,33.9603175 40.2249359,32.3518997 39.6260056,30.7386518 L39.0898663,29.2606462 C39.3217103,29.2364958 42.0748579,28.9756713 43.1809471,28.3381003 C44.1469638,27.7729805 45.257883,26.7779833 45.4076156,25.5897827 C45.4989361,25.0250151 45.3457743,24.4480591 44.986365,24.0029446 C44.6269558,23.5578301 44.0952143,23.2865596 43.523883,23.2568524 C41.8236936,23.2182117 40.0124123,25.6718942 39.5149136,27.1209192 C39.476273,27.2320111 39.128507,28.7679777 39.0560557,29.1640446 C38.6648189,28.0772758 38.2832423,26.990507 37.9547967,25.9037382 C37.4963595,24.4398568 37.1349296,22.9473446 36.8728579,21.4359109 C36.9791198,21.4359109 39.8530195,21.1654262 40.9880891,20.5133649 C41.9541058,19.9482451 43.0650251,18.9532479 43.2147577,17.7602173 C43.3045636,17.1961984 43.1506997,16.6205708 42.7914556,16.1765819 C42.4322115,15.7325931 41.901367,15.4619913 41.3310251,15.432117 C39.6308357,15.3886462 37.8195543,17.8471588 37.3220557,19.2961838 C37.2882451,19.3927855 37.0225905,20.5616657 36.9066685,21.1219554 L36.8100669,21.1219554 C36.5884066,19.5933622 36.5027396,18.0481233 36.5540724,16.5043955 C36.5540724,15.6543008 36.6361838,14.8428468 36.7134652,14.0555432 C37.2544345,14.0555432 39.7226072,14.0555432 40.804546,13.5725348 C41.8864847,13.0895265 43.0457047,12.253922 43.3258496,11.0850418 C43.4787893,10.5339523 43.3896413,9.94380247 43.0807453,9.46247786 C42.7718492,8.98115325 42.2724789,8.65426869 41.7077716,8.56373816 C40.0220724,8.33189415 37.9499666,10.5972033 37.2979053,11.9447967 C37.2592646,12.022078 36.9839499,12.8190418 36.7859164,13.3938217 C36.8293872,13.0363955 36.8680279,12.6693092 36.9114986,12.3312033 C37.0853816,11.0560613 37.3220557,9.91616156 37.5394095,8.87769359 C37.6698217,8.29808357 37.7954039,7.77643454 37.9209861,7.2885961 C38.4522953,7.01811142 40.5871922,5.90236212 41.3020446,4.99430641 C42.0168969,4.0862507 42.6786184,2.7917883 42.3888134,1.61324791 C42.0607177,0.614299972 41.0194189,0.0358006546 39.997922,0.28497493 L39.997922,0.28497493 Z" id="Path" fill="#ADC7F7" fill-rule="nonzero"></path>
                        <path d="M9.24961003,26.5026685 C10.577883,26.4495376 13.234429,25.087454 13.2392711,25.087454 C13.2440891,25.087454 11.790234,23.6094485 11.7032925,23.527337 C10.5150919,22.5613203 7.66534262,21.4504011 6.25012813,22.3874373 C5.78177126,22.7157977 5.47555944,23.2282063 5.40824531,23.7962269 C5.34093117,24.3642476 5.51889581,24.9340343 5.89753203,25.3627688 C6.66068524,26.2949749 8.11454039,26.5654596 9.24961003,26.5026685 Z" id="Path" fill="#ADC7F7" fill-rule="nonzero"></path>
                        <g id="Group" opacity="0.5" transform="translate(5.313092, 0.000000)" fill="#FFFFFF" fill-rule="nonzero">
                            <path d="M31.3955432,13.9106407 C31.4245237,13.9106407 31.0187967,11.8868357 30.9753259,11.7660836 C30.4923175,10.3170585 28.7534875,7.80058496 27.0532981,7.8054081 C26.4821987,7.82330686 25.9455737,8.08291804 25.577074,8.51959015 C25.2085744,8.95626225 25.0428822,9.52889698 25.1212646,10.0948747 C25.2468468,11.2879053 26.3191253,12.3070529 27.2899721,12.891493 C28.4202117,13.582195 31.3955432,13.9106407 31.3955432,13.9106407 Z" id="Path"></path>
                            <path d="M34.6848301,0.28497493 C33.0812423,0.859754875 32.2697883,3.82542618 32.3374095,5.34207242 C32.3374095,5.47248468 32.6417047,7.51561003 32.6706852,7.50111978 L32.7044958,7.50111978 C32.5740836,7.98412813 32.4436713,8.46713649 32.308429,9.0225961 C32.0669248,10.0417437 31.8254206,11.1961337 31.6032368,12.4712758 C31.3738721,13.8446347 31.2222879,15.2298563 31.1492089,16.6203175 C31.0644097,18.175651 31.1177497,19.7354411 31.3086017,21.2813482 C31.3109285,21.3005985 31.3109285,21.3200589 31.3086017,21.3393092 C31.1009081,20.8852813 30.4729972,19.6439499 30.4102061,19.5521783 C29.5794318,18.2818663 27.222351,16.3160223 25.5801226,16.7700501 C25.0343758,16.9389984 24.5857534,17.3312485 24.3454703,17.8495603 C24.1051872,18.3678721 24.09574,18.9637184 24.3194708,19.4893872 C24.7541783,20.6051365 26.0583008,21.3054986 27.1498997,21.614624 C28.381571,21.9672201 31.1250585,21.5518329 31.3424123,21.5180223 C31.5744316,23.0877356 31.9116874,24.6400805 32.3518997,26.1645627 C32.6030641,27.0532981 32.8832089,27.9420334 33.177844,28.8307688 C32.9846407,28.4443621 32.8059276,28.1014262 32.7769471,28.0579554 C31.9413426,26.7876435 29.5890919,24.8217994 27.9468635,25.2758273 C27.4005138,25.4423403 26.9508464,25.8334996 26.71027,26.3515224 C26.4696937,26.8695451 26.4609452,27.4654728 26.6862117,27.9903343 C27.1209192,29.1109136 28.4250418,29.8112758 29.5166407,30.1204011 C30.6082396,30.4295265 32.9653203,30.1204011 33.5884011,30.0382897 C33.7043231,30.3763955 33.815415,30.7193315 33.931337,31.0574373 C34.4916267,32.6803454 35.0615766,34.3032535 35.5687354,35.8875209 C35.7474485,36.4526407 35.9020111,37.0177604 36.0517437,37.5780501 C35.8778607,37.2351142 35.7329582,36.9501393 35.7039777,36.9114986 C34.8732033,35.6411866 32.5161226,33.6753426 30.8738942,34.1293705 C30.3275445,34.2958835 29.8778771,34.6870428 29.6373007,35.2050655 C29.3967243,35.7230883 29.3879759,36.319016 29.6132423,36.8438774 C30.0479499,37.9644568 31.3520724,38.6648189 32.4436713,38.9739443 C33.5352702,39.2830696 35.665337,39.012585 36.4043398,38.9063231 C36.5492423,39.4907632 36.6941448,40.0703733 36.8052368,40.6403231 C36.877688,41.0315599 36.9694596,41.4034763 37.0177604,41.8043733 C37.0660613,42.2052702 37.1240223,42.5820167 37.1819833,42.9635933 C37.2592646,43.7074262 37.341376,44.4754095 37.399337,45.2047521 C37.4428078,45.6877604 37.4717883,46.1707688 37.5055989,46.6537772 C37.336546,46.0886574 36.9742897,44.9873983 36.935649,44.9004568 C36.3342179,43.7065552 35.4381612,42.6858153 34.332234,41.9347855 C34.2705447,41.7992541 34.1961509,41.6698736 34.1100501,41.5483788 C33.8006047,41.0673258 33.3016354,40.7401041 32.7371112,40.6480121 C32.172587,40.5559201 31.5954932,40.7076013 31.1492089,41.0653705 C29.8644067,42.1811198 30.1831922,45.2289025 30.7772925,46.6296267 C30.8111031,46.7117382 31.2941114,47.5618329 31.6032368,48.0786518 C31.3713928,47.7936769 31.154039,47.513532 30.9125348,47.2188969 C30.4295265,46.644117 29.9465181,46.0789972 29.4248691,45.4704067 L28.6279053,44.6058217 C28.3670808,44.3111866 28.0579554,44.0358719 27.7681504,43.7460669 C27.0919387,43.0891755 26.3674262,42.4564345 25.6284234,41.8140334 C26.1114318,41.3986462 27.9082228,39.882 28.4202117,38.8821727 C28.9322006,37.8823454 29.2896267,36.4333203 28.7583175,35.3562117 C28.5233498,34.8353028 28.0776976,34.439083 27.5328697,34.2666924 C26.9880417,34.0943019 26.395584,34.1620503 25.9037382,34.4529861 C24.4547131,35.3562117 24.3194708,38.4184847 24.6913872,39.8916602 C24.7155376,39.9834318 25.1019443,41.0074095 25.3241281,41.5676992 C24.8749304,41.2006128 24.4305627,40.8286964 23.9668747,40.4664401 C22.6192813,39.4279721 21.2282173,38.4184847 19.8419833,37.4041671 C19.4169359,37.0950418 18.9967187,36.7762563 18.5765014,36.4671309 C18.7600446,36.3173983 20.9094318,34.5833983 21.4745515,33.4434986 C21.9817103,32.4291811 22.3487967,30.9946462 21.8174875,29.9175376 C21.5825197,29.3966287 21.1368675,29.0004089 20.5920396,28.8280183 C20.0472117,28.6556278 19.4547539,28.7233762 18.9629081,29.014312 C17.513883,29.9175376 17.3738106,32.9798106 17.7505571,34.4529861 C17.7505571,34.564078 18.3349972,36.0420836 18.49439,36.4091699 C17.5670139,35.718468 16.6541281,35.0229359 15.7750529,34.2984234 C14.5823914,33.3283518 13.453062,32.2829154 12.3939944,31.1685292 C12.4809359,31.1009081 14.7317549,29.2992869 15.2920446,28.1304067 C15.7992033,27.1160891 16.1662897,25.6815543 15.6349805,24.6044457 C15.4000127,24.0835367 14.9543605,23.687317 14.4095326,23.5149264 C13.8647047,23.3425359 13.272247,23.4102843 12.7804011,23.7012201 C11.331376,24.6044457 11.1913036,27.6667187 11.5680501,29.1398942 C11.5680501,29.2364958 12.0172479,30.3619053 12.2297716,30.8932145 L12.1476602,30.9415153 C11.1171863,29.7904982 10.1925124,28.5489781 9.38485237,27.2320111 C8.93082451,26.5171588 8.53958774,25.7829861 8.17250139,25.1019443 C8.62169916,24.8073092 10.6841448,23.4500557 11.326546,22.4550585 C11.9689471,21.4600613 12.4616156,20.1172981 12.0510585,18.9918886 C11.874715,18.448064 11.4755736,18.0048004 10.9531465,17.7726106 C10.4307193,17.5404207 9.83423304,17.5411831 9.31240111,17.7747075 C7.78126462,18.5185404 7.30308635,21.5470028 7.51077994,23.0491588 C7.51077994,23.1312702 7.7281337,23.9523844 7.88752646,24.5464847 C7.7281337,24.2276992 7.55908078,23.8992535 7.40451811,23.580468 C6.84422841,22.4212479 6.40469081,21.329649 6.01828412,20.3539721 C5.80576045,19.7985125 5.62704735,19.2961838 5.46282451,18.8180056 C5.75745961,18.3011866 6.91184958,16.1904401 7.02777159,15.0360501 C7.14369359,13.8816602 6.9649805,12.4374652 6.06175487,11.6260111 C5.65445375,11.2253891 5.09618092,11.016585 4.52594696,11.0515913 C3.955713,11.0865976 3.42717268,11.3621204 3.07193315,11.8095543 C2.0576156,13.1716379 3.0284624,16.0841783 3.9075376,17.3206797 C3.97998886,17.4269415 5.35656267,18.9677382 5.35656267,18.9387577 L5.35656267,18.9049471 C5.50629526,19.3879554 5.67051811,19.8709638 5.83957103,20.3926128 C6.2018273,21.3586295 6.62204457,22.484039 7.15818384,23.6577493 C7.72049342,24.9307653 8.35756564,26.1694272 9.06606685,27.3672535 C9.85501422,28.7123738 10.7600772,29.9859267 11.7709136,31.1733593 L11.8095543,31.212 C11.384507,30.9511755 10.1769861,30.2459833 10.0755543,30.2170028 C8.67966017,29.6180724 5.63187744,29.2799666 4.51129805,30.5599387 C4.14862986,31.0020889 3.99047745,31.5772964 4.07611802,32.1427083 C4.16175859,32.7081202 4.48315772,33.2106921 4.96049582,33.52561 C5.92651253,34.216312 7.41417827,34.0810696 8.49128691,33.7381337 C9.71329805,33.351727 11.7709136,31.4921448 11.9351365,31.3230919 C12.9875344,32.5027341 14.1170341,33.6112574 15.316195,34.6413593 C16.0165571,35.2451198 16.7410696,35.83439 17.4752423,36.4091699 L16.7169192,35.9841226 C15.3210251,35.3851922 12.2732423,35.0470864 11.152663,36.3318886 C10.7897134,36.7726025 10.6308528,37.3466448 10.7155899,37.9112515 C10.800327,38.4758582 11.1206994,38.9779765 11.5970306,39.2927298 C12.5630474,39.9882618 14.0507131,39.8481894 15.1326518,39.5052535 C16.2145905,39.1623175 18.0307019,37.6118607 18.4847298,37.1916435 L19.3348245,37.8533649 C20.7017382,38.896663 22.0686518,39.9351309 23.3776045,40.9929192 C23.8364624,41.3648357 24.276,41.7512423 24.7203677,42.1328189 C24.3870919,41.9444457 24.1069471,41.7850529 24.0586462,41.7657326 C22.6675822,41.1668022 19.6149694,40.8286964 18.4992201,42.1086685 C18.1360846,42.5501927 17.9771491,43.1249657 18.0618613,43.6903281 C18.1465736,44.2556906 18.4669918,44.7586386 18.9435877,45.0743398 C19.9096045,45.7650418 21.3972702,45.6297994 22.4792089,45.2868635 C23.5611476,44.9439276 25.1888858,43.5383733 25.7443454,43.0457047 C26.1887131,43.4514318 26.6282507,43.8571588 27.0388078,44.272546 C27.3141226,44.5575209 27.5942674,44.8183454 27.8550919,45.1226407 L28.6327354,46.0017159 C29.1157437,46.5813259 29.5987521,47.1754262 30.0479499,47.7502061 C30.3619053,48.146273 30.6565404,48.5326797 30.9511755,48.9190864 C30.4971476,48.5423398 29.5890919,47.8226574 29.5021504,47.7743565 C28.2125181,46.9677326 25.2516769,46.1707688 23.9523844,47.2913482 C23.5264299,47.6725217 23.2829804,48.2170707 23.2829804,48.7886741 C23.2829804,49.3602775 23.5264299,49.9048265 23.9523844,50.286 C24.8169694,51.1216045 26.2949749,51.208546 27.4155543,51.034663 C28.6472256,50.8414596 30.8835543,49.3827744 31.1588691,49.1992312 C31.6418774,49.8416323 32.1248858,50.4695432 32.5451031,51.0733036 C34.0520891,53.1502396 35.2257994,54.9373705 36.0275933,56.1980223 L36.1097047,56.3284345 L37.1481727,55.8212758 L36.9839499,55.5749415 C36.1435153,54.3191198 34.9215042,52.5368189 33.3565571,50.4743733 C32.8735487,49.8174819 32.3277493,49.13161 31.7674596,48.4312479 C32.34248,47.7956454 32.8810895,47.1280277 33.3807075,46.4315933 C34.5737382,46.9146017 37.0660613,46.9146017 37.3848468,46.9146017 C37.4379777,47.7212256 37.4814485,48.5036992 37.510429,49.2427019 C37.6166908,51.8026462 37.6118607,53.9423733 37.5828802,55.4396992 L37.5828802,55.6135822 L38.7227799,55.0581226 C38.7227799,53.5704568 38.669649,51.5659721 38.5150864,49.189571 C38.4667855,48.3732869 38.3991643,47.4990418 38.3170529,46.6054763 C38.6358384,46.528195 41.2151031,45.8616435 42.1811198,45.084 C43.0650251,44.3739777 43.9972312,43.2244178 43.9682507,42.0265571 C43.9725336,41.4544538 43.7333144,40.9075235 43.3103141,40.5223076 C42.8873139,40.1370917 42.3204507,39.9499426 41.7512423,40.0075822 C40.0655432,40.2249359 38.6503287,42.944273 38.3701838,44.4415989 C38.3701838,44.5285404 38.2832423,45.5042173 38.2446017,46.1176379 C38.2107911,45.7553816 38.1818106,45.3979554 38.1431699,45.0212089 C38.0658886,44.2822061 37.9692869,43.5383733 37.8678552,42.7462396 L37.6794819,41.5821894 C37.626351,41.1957827 37.5200891,40.7948858 37.4379777,40.3939889 C37.2351142,39.4666128 36.9839499,38.5440669 36.7086351,37.6118607 C37.3558663,37.5490696 39.6646462,37.2737549 40.6548134,36.7086351 C41.6449805,36.1435153 42.7317493,35.1485181 42.8814819,33.9554875 C42.9728774,33.3912134 42.8196087,32.8147216 42.4600476,32.3703409 C42.1004864,31.9259602 41.5686726,31.6557602 40.9977493,31.6273872 C39.2975599,31.5839164 37.4862786,34.042429 36.9887799,35.491454 C36.9549694,35.5783955 36.7134652,36.6506741 36.587883,37.2399443 C36.4188301,36.6844847 36.2546072,36.1290251 36.066234,35.5687354 C35.5156045,33.9603175 34.911844,32.3518997 34.3129136,30.7386518 L33.7767744,29.2606462 C34.0086184,29.2364958 36.761766,28.9756713 37.8678552,28.3381003 C38.8338719,27.7729805 39.9447911,26.7779833 40.0945237,25.5897827 C40.1858442,25.0250151 40.0326824,24.4480591 39.6732731,24.0029446 C39.3138639,23.5578301 38.7821223,23.2865596 38.2107911,23.2568524 C36.5106017,23.2182117 34.6993203,25.6718942 34.2018217,27.1209192 C34.1631811,27.2320111 33.815415,28.7679777 33.7429638,29.1640446 C33.351727,28.0772758 32.9701504,26.990507 32.6417047,25.9037382 C32.1832676,24.4398568 31.8218376,22.9473446 31.559766,21.4359109 C31.6660279,21.4359109 34.5399276,21.1654262 35.6749972,20.5133649 C36.6410139,19.9482451 37.7519331,18.9532479 37.9016657,17.7602173 C37.9914717,17.1961984 37.8376078,16.6205708 37.4783637,16.1765819 C37.1191196,15.7325931 36.5882751,15.4619913 36.0179331,15.432117 C34.3177437,15.3886462 32.5064624,17.8471588 32.0089638,19.2961838 C31.9751532,19.3927855 31.7094986,20.5616657 31.5935766,21.1219554 L31.4969749,21.1219554 C31.2753147,19.5933622 31.1896477,18.0481233 31.2409805,16.5043955 C31.2409805,15.6543008 31.3230919,14.8428468 31.4003733,14.0555432 C31.9413426,14.0555432 34.4095153,14.0555432 35.491454,13.5725348 C36.5733928,13.0895265 37.7326128,12.253922 38.0127577,11.0850418 C38.1656974,10.5339523 38.0765494,9.94380247 37.7676534,9.46247786 C37.4587573,8.98115325 36.959387,8.65426869 36.3946797,8.56373816 C34.7089805,8.33189415 32.6368747,10.5972033 31.9848134,11.9447967 C31.9461727,12.022078 31.6708579,12.8190418 31.4728245,13.3938217 C31.5162953,13.0363955 31.5549359,12.6693092 31.5984067,12.3312033 C31.7722897,11.0560613 32.0089638,9.91616156 32.2263175,8.87769359 C32.3567298,8.29808357 32.482312,7.77643454 32.6078942,7.2885961 C33.1392033,7.01811142 35.2741003,5.90236212 35.9889526,4.99430641 C36.703805,4.0862507 37.3655265,2.7917883 37.0757214,1.61324791 C36.7476258,0.614299972 35.706327,0.0358006546 34.6848301,0.28497493 L34.6848301,0.28497493 Z" id="Path"></path>
                            <path d="M3.93651811,26.5026685 C5.26479109,26.4495376 7.92133705,25.087454 7.92617914,25.087454 C7.93099721,25.087454 6.47714206,23.6094485 6.39020056,23.527337 C5.202,22.5613203 2.3522507,21.4504011 0.937036212,22.3874373 C0.468679336,22.7157977 0.162467521,23.2282063 0.0951533841,23.7962269 C0.0278392471,24.3642476 0.20580389,24.9340343 0.584440111,25.3627688 C1.34759331,26.2949749 2.80144847,26.5654596 3.93651811,26.5026685 Z" id="Path"></path>
                        </g>
                        <path d="M25.4835209,62.9794596 C25.4835209,62.9794596 33.5497604,43.5383733 38.0658886,44.3836379 C42.5820167,45.2289025 30.3377549,75.3782841 30.3377549,75.3782841 C30.3377549,75.3782841 44.5285404,48.609961 54.2080279,48.609961 C63.8875153,48.609961 50.6579164,78.1942228 38.4039944,88.0572535 C38.4039944,88.0572535 57.7533092,67.2057827 69.0412145,71.7170808 C80.3291198,76.2283788 46.4654039,97.3551643 46.4654039,97.3551643 C46.4654039,97.3551643 66.1383343,91.1581671 63.8826852,95.94961 C61.6270362,100.741053 55.4976602,101.581487 55.4976602,101.581487 L77.7498552,102.711727 L0.328445682,102.711727 L17.745727,101.021198 C17.745727,101.021198 -0.318785515,92.0034318 4.52095822,88.3422284 C9.36070195,84.6810251 20.001376,92.5685515 20.001376,92.5685515 C20.001376,92.5685515 1.61807799,72.2822006 5.16335933,64.6699889 C8.70864067,57.0577772 24.5175042,78.4791978 24.5175042,78.4791978 C24.5175042,78.4791978 11.616351,51.1457549 14.1956156,46.3688022 C16.7748802,41.5918496 25.4835209,62.9794596 25.4835209,62.9794596 Z" id="Path" fill="#ADC7F7" fill-rule="nonzero"></path>
                        <path d="M25.4835209,62.9794596 C25.4835209,62.9794596 33.5497604,43.5383733 38.0658886,44.3836379 C42.5820167,45.2289025 30.3377549,75.3782841 30.3377549,75.3782841 C30.3377549,75.3782841 44.5285404,48.609961 54.2080279,48.609961 C63.8875153,48.609961 50.6579164,78.1942228 38.4039944,88.0572535 C38.4039944,88.0572535 57.7533092,67.2057827 69.0412145,71.7170808 C80.3291198,76.2283788 46.4654039,97.3551643 46.4654039,97.3551643 C46.4654039,97.3551643 66.1383343,91.1581671 63.8826852,95.94961 C61.6270362,100.741053 55.4976602,101.581487 55.4976602,101.581487 L77.7498552,102.711727 L0.328445682,102.711727 L17.745727,101.021198 C17.745727,101.021198 -0.318785515,92.0034318 4.52095822,88.3422284 C9.36070195,84.6810251 20.001376,92.5685515 20.001376,92.5685515 C20.001376,92.5685515 1.61807799,72.2822006 5.16335933,64.6699889 C8.70864067,57.0577772 24.5175042,78.4791978 24.5175042,78.4791978 C24.5175042,78.4791978 11.616351,51.1457549 14.1956156,46.3688022 C16.7748802,41.5918496 25.4835209,62.9794596 25.4835209,62.9794596 Z" id="Path" fill="#FFFFFF" fill-rule="nonzero" opacity="0.5"></path>
                        <path d="M22.9042563,64.0034373 C29.999649,84.9708301 29.999649,99.8088468 29.999649,99.8088468 C29.999649,99.8088468 21.614624,100.127632 12.9059833,93.6794708" id="Path" stroke="#263238" stroke-width="0.6375" stroke-linecap="round" stroke-linejoin="round"></path>
                        <path d="M26.4543677,75.2961727 C27.9129885,69.0275018 29.8507156,62.8800625 32.250468,56.9080446" id="Path" stroke="#263238" stroke-width="0.6375" stroke-linecap="round" stroke-linejoin="round"></path>
                        <path d="M47.4169304,63.0374206 L29.3572479,89.8105738 C29.3572479,89.8105738 17.0984958,79.4886852 12.9059833,73.6829248" id="Path" stroke="#263238" stroke-width="0.6375" stroke-linecap="round" stroke-linejoin="round"></path>
                        <path d="M29.6808635,96.2587354 C29.6808635,96.2587354 48.7065627,87.2264791 56.4491866,82.0679499" id="Path" stroke="#263238" stroke-width="0.6375" stroke-linecap="round" stroke-linejoin="round"></path>
                        <path d="M129.538011,62.9794596 C129.538011,62.9794596 121.476602,43.5383733 116.979794,44.3836379 C112.482986,45.2289025 124.707928,75.3782841 124.707928,75.3782841 C124.707928,75.3782841 110.517142,48.609961 100.842485,48.609961 C91.1678273,48.609961 104.387766,78.1942228 116.646518,88.0572535 C116.646518,88.0572535 97.2923733,67.2057827 86.004468,71.7170808 C74.7165627,76.2283788 108.585109,97.3551643 108.585109,97.3551643 C108.585109,97.3551643 88.9073482,91.1581671 91.1678273,95.94961 C93.4283064,100.741053 99.5528524,101.581487 99.5528524,101.581487 L77.281337,102.711727 L154.697916,102.711727 L137.280635,101.021198 C137.280635,101.021198 155.340318,92.0034318 150.505404,88.3422284 C145.67049,84.6810251 135.020156,92.5685515 135.020156,92.5685515 C135.020156,92.5685515 153.408284,72.2822006 149.858173,64.6699889 C146.308061,57.0577772 130.504028,78.4791978 130.504028,78.4791978 C130.504028,78.4791978 143.410011,51.1457549 140.825916,46.354312 C138.241822,41.5628691 129.538011,62.9794596 129.538011,62.9794596 Z" id="Path" fill="#ADC7F7" fill-rule="nonzero"></path>
                        <path d="M129.538011,62.9794596 C129.538011,62.9794596 121.476602,43.5383733 116.979794,44.3836379 C112.482986,45.2289025 124.707928,75.3782841 124.707928,75.3782841 C124.707928,75.3782841 110.517142,48.609961 100.842485,48.609961 C91.1678273,48.609961 104.387766,78.1942228 116.646518,88.0572535 C116.646518,88.0572535 97.2923733,67.2057827 86.004468,71.7170808 C74.7165627,76.2283788 108.585109,97.3551643 108.585109,97.3551643 C108.585109,97.3551643 88.9073482,91.1581671 91.1678273,95.94961 C93.4283064,100.741053 99.5528524,101.581487 99.5528524,101.581487 L77.281337,102.711727 L154.697916,102.711727 L137.280635,101.021198 C137.280635,101.021198 155.340318,92.0034318 150.505404,88.3422284 C145.67049,84.6810251 135.020156,92.5685515 135.020156,92.5685515 C135.020156,92.5685515 153.408284,72.2822006 149.858173,64.6699889 C146.308061,57.0577772 130.504028,78.4791978 130.504028,78.4791978 C130.504028,78.4791978 143.410011,51.1457549 140.825916,46.354312 C138.241822,41.5628691 129.538011,62.9794596 129.538011,62.9794596 Z" id="Path" fill="#FFFFFF" fill-rule="nonzero" opacity="0.5"></path>
                        <path d="M132.117276,64.0034373 C125.021883,84.9708301 125.021883,99.8088468 125.021883,99.8088468 C125.021883,99.8088468 133.406908,100.127632 142.115549,93.6794708" id="Path" stroke="#263238" stroke-width="0.6375" stroke-linecap="round" stroke-linejoin="round"></path>
                        <path d="M128.571994,75.2961727 C127.113374,69.0275018 125.175646,62.8800625 122.775894,56.9080446" id="Path" stroke="#263238" stroke-width="0.6375" stroke-linecap="round" stroke-linejoin="round"></path>
                        <path d="M107.604602,63.0374206 L125.669114,89.8105738 C125.669114,89.8105738 137.923036,79.4886852 142.115549,73.6829248" id="Path" stroke="#263238" stroke-width="0.6375" stroke-linecap="round" stroke-linejoin="round"></path>
                        <path d="M125.345499,96.2587354 C125.345499,96.2587354 106.314969,87.2264791 98.5723454,82.0679499" id="Path" stroke="#263238" stroke-width="0.6375" stroke-linecap="round" stroke-linejoin="round"></path>
                    </g>
                    <g id="freepik--Device--inject-2" opacity="0.698566255" transform="translate(51.198886, 24.150418)" fill-rule="nonzero">
                        <rect id="Rectangle" stroke="#263238" stroke-width="0.6375" fill="#263238" x="0.0386406685" y="0.241504178" width="81.0971031" height="146.153499" rx="3.26030641"></rect>
                        <path d="M46.1949192,8.97429526 L36.1000446,8.97429526 C35.8246257,8.97429526 35.5604873,8.86488556 35.3657368,8.67013504 C35.1709863,8.47538452 35.0615766,8.21124613 35.0615766,7.9358273 L35.0615766,7.9358273 C35.0615766,7.66085057 35.1711372,7.39720608 35.3660278,7.20322193 C35.5609184,7.00923778 35.8250708,6.90090448 36.1000446,6.90217811 L46.1949192,6.90217811 C46.7657817,6.90217811 47.2285684,7.36496486 47.2285684,7.9358273 L47.2285684,7.9358273 C47.229842,8.21080103 47.1215087,8.47495343 46.9275246,8.66984405 C46.7335404,8.86473466 46.469896,8.97429526 46.1949192,8.97429526 Z" id="Path" fill="#ADC7F7"></path>
                        <path d="M76.0110251,133.334457 L5.16335933,133.334457 L5.16335933,9.09504735 L21.9575599,9.09504735 L23.8461226,10.6599944 C24.504414,11.2103599 25.3354941,11.5113272 26.1935432,11.5100891 L55.8212758,11.5100891 C56.7105726,11.5051821 57.5681843,11.1792897 58.2363175,10.5923733 L59.941337,9.09504735 L75.9965348,9.09504735 L76.0110251,133.334457 Z" id="Path" stroke="#263238" stroke-width="0.6375" fill="#FFFFFF" stroke-linecap="round" stroke-linejoin="round"></path>
                        <polygon id="Path" fill="#ADC7F7" points="33.4579889 18.2528858 32.4919721 15.0070696 8.38019499 15.0070696 8.38019499 18.2528858 8.38019499 126.736563 8.38019499 129.987209 73.0115432 129.987209 73.0115432 18.2528858"></polygon>
                        <rect id="Rectangle" fill="#FFFFFF" x="10.6503343" y="24.102117" width="60.0862396" height="102.31083"></rect>
                        <path d="M42.8525087,137.174373 C42.8544563,136.521439 42.4626429,135.93171 41.8599709,135.680487 C41.2572988,135.429264 40.5626214,135.566092 40.1002337,136.027096 C39.637846,136.488099 39.4989358,137.182363 39.7483502,137.785786 C39.9977647,138.389208 40.5863167,138.782791 41.2392535,138.782791 C42.1272498,138.780156 42.8472038,138.062358 42.8525087,137.174373 L42.8525087,137.174373 Z" id="Path" fill="#ADC7F7"></path>
                    </g>
                    <g id="freepik--Message--inject-2" transform="translate(67.138162, 30.429526)">
                        <ellipse id="Oval" fill="#ADC7F7" fill-rule="nonzero" cx="20.2428802" cy="87.5162841" rx="19.7840223" ry="28.149727"></ellipse>
                        <ellipse id="Oval" fill="#FFFFFF" fill-rule="nonzero" opacity="0.5" cx="20.2428802" cy="87.5162841" rx="19.7840223" ry="28.149727"></ellipse>
                        <path d="M23.0491588,56.0965905 C23.0491588,56.0965905 21.8126574,54.0293148 20.6775877,53.927883 C19.5425181,53.8264513 6.02794429,62.308078 3.96066852,66.7227744 C1.89339276,71.1374708 -0.0627910864,79.995844 5.40969359,88.5209415 C10.7469359,96.814195 19.1126407,96.5388802 23.4500557,96.123493 C27.7874708,95.7081058 30.6951811,94.2977214 35.0905571,90.7717604 C39.4859331,87.2457994 43.5190529,82.0534596 44.103493,78.5274986 C44.6879331,75.0015376 42.538546,73.0405237 41.1668022,72.5526852 C39.7950585,72.0648468 31.8592312,72.1614485 26.0776212,66.2735766 C20.2960111,60.3857047 23.0491588,56.0965905 23.0491588,56.0965905 Z" id="Path" stroke="#263238" stroke-width="0.6375" fill="#263238" fill-rule="nonzero" stroke-linecap="round" stroke-linejoin="round"></path>
                        <path d="M24.8024791,53.4110641 C24.8024791,53.4110641 21.2958384,54.7538273 19.1271309,57.1253983 C16.9584234,59.4969694 15.6204903,63.2161337 15.5190585,68.6837883 C15.4176267,74.1514429 17.1709471,80.3387799 23.9765348,83.0243064 C30.7821226,85.7098329 36.8728579,83.6425571 38.8338719,81.7829749 C40.7948858,79.9233928 43.1809471,74.6682618 43.1809471,74.6682618 C43.1809471,74.6682618 32.3518997,77.566312 27.1933705,71.4659164 C22.0348412,65.3655209 24.8024791,53.4110641 24.8024791,53.4110641 Z" id="Path" stroke="#263238" stroke-width="0.6375" fill="#FFFFFF" fill-rule="nonzero" stroke-linecap="round" stroke-linejoin="round"></path>
                        <path d="M85.4103677,57.222 C82.7634819,53.2516713 76.4457326,52.077961 71.4514262,50.459883 C66.4571198,48.841805 63.5155989,45.6297994 64.8390418,37.6794819 C66.1624847,29.7291643 73.0501838,16.8135209 72.9197716,14.4612702 C72.7893593,12.1090195 49.1171198,12.2587521 46.9097716,13.0122451 C44.7024234,13.7657382 44.2677159,13.5966852 42.2101003,16.243571 C41.0697605,17.6730076 40.0380679,19.1858339 39.1236769,20.7693593 L41.673961,15.4079666 L41.8623343,15.4079666 C42.1394471,14.7033265 42.5329368,14.0502315 43.0263844,13.4759331 C45.2706704,10.8723486 46.5424171,7.57092835 46.6247967,4.13455153 C46.7213983,-0.922545961 43.1229861,-0.434707521 42.4419443,1.12057939 C41.7609025,2.6758663 37.7760836,8.02759889 36.6072033,9.48628412 C35.4383231,10.9449694 33.0087911,14.9346184 33.0087911,14.9346184 L30.3087744,24.2953203 C30.3087744,24.2953203 29.7195042,27.0871086 26.3384457,37.6698217 C22.9573872,48.2525348 24.4305627,53.1309192 24.4305627,53.1309192 C24.4305627,53.1309192 23.5466574,52.6913816 21.4890418,59.0091309 C19.4314262,65.3268802 20.3153315,73.40761 23.986195,77.2282061 C27.6570585,81.0488022 32.5112925,80.9038997 37.9499666,78.7013816 C41.2955603,77.2679461 44.0819119,74.7817675 45.8857939,71.6204791 C45.8857939,71.6204791 51.6191031,70.171454 55.8792368,66.9208078 C60.1393705,63.6701616 63.3706964,60.3084234 69.5532033,60.6030585 C75.7357103,60.8976936 82.7779721,64.4236546 85.1302228,64.273922 C87.4824735,64.1241894 88.0572535,61.1874986 85.4103677,57.222 Z" id="Path" fill="#FFFFFF" fill-rule="nonzero"></path>
                        <g id="Group" transform="translate(19.803343, 42.987744)" fill-rule="nonzero">
                            <path d="M27.7053593,0.483008357 C11.3555265,2.92220056 6.21631755,6.82490808 7.84888579,12.195961 C8.18769248,13.2610373 8.73804678,14.2467465 9.46696379,15.0940111 C9.46696379,15.1954429 9.46696379,15.3065348 9.49594429,15.4224568 C9.49594429,15.4224568 9.7857493,15.5963398 10.2204568,15.9054652 C10.7928208,16.4583735 11.4117493,16.9609499 12.0703788,17.4076212 C13.1426574,18.4267688 14.103844,19.7019109 13.9058106,20.8852813 C13.4855933,23.406585 7.62670195,27.8116212 4.66586072,28.0241448 C1.7050195,28.2366685 0.676211699,25.2951476 0.255994429,28.4443621 C-0.164222841,31.5935766 6.34672981,39.360351 12.6451588,38.5199164 C18.9435877,37.6794819 24.1938886,28.8597493 24.1938886,28.8597493 C24.1938886,28.8597493 23.353454,27.4107242 27.5749471,22.9815376 C30.347415,20.0834875 34.3129136,18.8035153 37.3510362,17.6153148 C40.2193187,16.771688 43.0152555,15.6991854 45.7119109,14.4081393 C53.1840501,10.7469359 62.0617437,13.1909582 62.0617437,13.1909582 C62.0617437,13.1909582 44.0551922,-1.98516435 27.7053593,0.483008357 Z" id="Path" fill="#ADC7F7"></path>
                            <path d="M27.7053593,0.483008357 C11.3555265,2.92220056 6.21631755,6.82490808 7.84888579,12.195961 C8.18769248,13.2610373 8.73804678,14.2467465 9.46696379,15.0940111 C9.46696379,15.1954429 9.46696379,15.3065348 9.49594429,15.4224568 C9.49594429,15.4224568 9.7857493,15.5963398 10.2204568,15.9054652 C10.7928208,16.4583735 11.4117493,16.9609499 12.0703788,17.4076212 C13.1426574,18.4267688 14.103844,19.7019109 13.9058106,20.8852813 C13.4855933,23.406585 7.62670195,27.8116212 4.66586072,28.0241448 C1.7050195,28.2366685 0.676211699,25.2951476 0.255994429,28.4443621 C-0.164222841,31.5935766 6.34672981,39.360351 12.6451588,38.5199164 C18.9435877,37.6794819 24.1938886,28.8597493 24.1938886,28.8597493 C24.1938886,28.8597493 23.353454,27.4107242 27.5749471,22.9815376 C30.347415,20.0834875 34.3129136,18.8035153 37.3510362,17.6153148 C40.2193187,16.771688 43.0152555,15.6991854 45.7119109,14.4081393 C53.1840501,10.7469359 62.0617437,13.1909582 62.0617437,13.1909582 C62.0617437,13.1909582 44.0551922,-1.98516435 27.7053593,0.483008357 Z" id="Path" fill="#FFFFFF" opacity="0.5"></path>
                        </g>
                        <path d="M85.4103677,57.222 C82.7634819,53.2516713 76.4457326,52.077961 71.4514262,50.459883 C66.4571198,48.841805 63.5155989,45.6297994 64.8390418,37.6794819 C66.1624847,29.7291643 73.0501838,16.8135209 72.9197716,14.4612702 C72.7893593,12.1090195 49.1171198,12.2587521 46.9097716,13.0122451 C44.7024234,13.7657382 44.2677159,13.5966852 42.2101003,16.243571 C41.0697605,17.6730076 40.0380679,19.1858339 39.1236769,20.7693593 L41.673961,15.4079666 L41.8623343,15.4079666 C42.1394471,14.7033265 42.5329368,14.0502315 43.0263844,13.4759331 C45.2706704,10.8723486 46.5424171,7.57092835 46.6247967,4.13455153 C46.7213983,-0.922545961 43.1229861,-0.434707521 42.4419443,1.12057939 C41.7609025,2.6758663 37.7760836,8.02759889 36.6072033,9.48628412 C35.4383231,10.9449694 33.0087911,14.9346184 33.0087911,14.9346184 L30.3087744,24.2953203 C30.3087744,24.2953203 29.7195042,27.0871086 26.3384457,37.6698217 C22.9573872,48.2525348 24.4305627,53.1309192 24.4305627,53.1309192 C24.4305627,53.1309192 23.5466574,52.6913816 21.4890418,59.0091309 C19.4314262,65.3268802 20.3153315,73.40761 23.986195,77.2282061 C27.6570585,81.0488022 32.5112925,80.9038997 37.9499666,78.7013816 C41.2955603,77.2679461 44.0819119,74.7817675 45.8857939,71.6204791 C45.8857939,71.6204791 51.6191031,70.171454 55.8792368,66.9208078 C60.1393705,63.6701616 63.3706964,60.3084234 69.5532033,60.6030585 C75.7357103,60.8976936 82.7779721,64.4236546 85.1302228,64.273922 C87.4824735,64.1241894 88.0572535,61.1874986 85.4103677,57.222 Z" id="Path" stroke="#263238" stroke-width="0.6375" stroke-linecap="round" stroke-linejoin="round"></path>
                        <path d="M85.4924791,64.2401114 C85.4924791,64.2401114 85.8016045,63.00361 82.2949638,61.3420613 C78.7883231,59.6805125 77.3441281,60.8252423 77.3441281,61.6511866 C77.3441281,62.4771309 84.9515097,64.2401114 85.4924791,64.2401114 Z" id="Path" stroke="#263238" stroke-width="0.6375" fill="#FFFFFF" fill-rule="nonzero" stroke-linecap="round" stroke-linejoin="round"></path>
                        <path d="M52.2663343,7.64602228 L43.4176212,14.4564401 L55.2851365,14.4564401 C55.2851365,14.4564401 55.2851365,6.09073538 52.2663343,7.64602228 Z" id="Path" stroke="#263238" stroke-width="0.6375" fill="#FFFFFF" fill-rule="nonzero" stroke-linecap="round" stroke-linejoin="round"></path>
                        <path d="M41.1668022,56.7679721 C42.4236129,55.347598 43.9903163,54.2353708 45.7457214,53.5173259" id="Path" stroke="#263238" stroke-width="0.6375" stroke-linecap="round" stroke-linejoin="round"></path>
                        <path d="M39.5583844,59.4100279 C39.6939943,59.0174945 39.8704552,58.640289 40.0848635,58.2846184" id="Path" stroke="#263238" stroke-width="0.6375" stroke-linecap="round" stroke-linejoin="round"></path>
                        <path d="M36.0324234,68.5871866 C35.5591197,68.1707408 35.1168001,67.7203497 34.7089805,67.2395933" id="Path" stroke="#263238" stroke-width="0.6375" stroke-linecap="round" stroke-linejoin="round"></path>
                        <path d="M45.8857939,71.6204791 C43.156786,71.9309621 40.399719,71.3660171 38.0127577,70.0072312" id="Path" stroke="#263238" stroke-width="0.6375" stroke-linecap="round" stroke-linejoin="round"></path>
                        <path d="M78.9718663,13.872 L34.3805348,13.872 C28.2221783,13.872 23.2327019,18.6392925 23.2327019,24.4981838 L23.2327019,45.5090474 C23.2327019,50.6192758 27.0049972,54.8890696 32.0379443,55.9178774 L29.6856936,62.8780279 L40.5727019,56.1738719 L78.9718663,56.1738719 C85.1253928,56.1738719 90.1196992,51.4065794 90.1196992,45.547688 L90.1196992,24.5368245 C90.1196992,18.6392925 85.1253928,13.872 78.9718663,13.872 Z" id="Path" stroke="#263238" stroke-width="0.966016713" fill="#ADC7F7" fill-rule="nonzero"></path>
                        <line x1="30.4923175" y1="28.0193148" x2="80.6189248" y2="28.0193148" id="Path" stroke="#263238" stroke-width="0.996972719" stroke-linecap="round"></line>
                        <line x1="30.4923175" y1="33.1826741" x2="80.6189248" y2="33.1826741" id="Path" stroke="#263238" stroke-width="0.996972719" stroke-linecap="round"></line>
                        <line x1="30.4923175" y1="38.3412033" x2="80.6189248" y2="38.3412033" id="Path" stroke="#263238" stroke-width="0.996972719" stroke-linecap="round"></line>
                        <line x1="30.4923175" y1="43.4997326" x2="80.6189248" y2="43.4997326" id="Path" stroke="#263238" stroke-width="0.996972719" stroke-linecap="round"></line>
                        <ellipse id="Oval" fill="#263238" fill-rule="nonzero" cx="89.7139721" cy="26.3529359" rx="6.21631755" ry="5.9361727"></ellipse>
                        <path d="M89.2309638,30.5454485 C89.026678,30.1373725 88.9349725,29.6821799 88.9653092,29.2268357 L88.9653092,24.3967521 L87.8737103,25.0053426 C87.7561452,25.0732977 87.6230847,25.1098893 87.4873036,25.1116045 C87.281428,25.1137251 87.0845022,25.0275701 86.9463343,24.8749304 C86.8041238,24.7272198 86.7260059,24.5293212 86.7289805,24.3243008 C86.7257717,24.1849769 86.7663126,24.0481513 86.8449025,23.9330641 C86.9576629,23.7982352 87.0913966,23.6824413 87.2409694,23.5901281 L89.356546,22.5081894 C89.5927925,22.3387425 89.8691566,22.2338573 90.1583398,22.2038942 C90.8780223,22.2038942 91.2354485,22.7448635 91.2354485,23.8268022 L91.2354485,29.3958886 C91.2354485,30.4536769 90.8587019,30.980156 90.1003788,30.980156 C89.7517654,31.0109082 89.4155301,30.8427905 89.2309638,30.5454485 L89.2309638,30.5454485 Z" id="Path" fill="#FFFFFF" fill-rule="nonzero"></path>
                        <path d="M65.8630195,10.7614262 C65.8630195,10.7614262 66.0610529,14.6496435 69.5628635,16.4995655 C73.0646741,18.3494875 77.5373315,17.9485905 77.6339331,15.6253203 C77.7305348,13.3020501 75.0063677,10.8580279 73.1612758,7.74262396 C71.3161838,4.62722006 67.2251031,6.38537047 65.4766128,8.52509749" id="Path" stroke="#263238" stroke-width="0.6375" fill="#FFFFFF" fill-rule="nonzero" stroke-linecap="round" stroke-linejoin="round"></path>
                        <path d="M71.8957939,13.872 C71.6011588,15.4272869 72.6734373,16.2870418 73.6442841,16.7700501 C74.6151309,17.2530585 76.5423343,16.9680836 77.6339331,15.606 C77.682234,14.4661003 77.0591532,13.3068802 76.1849081,12.0558886 C74.967727,12.2104513 72.1228078,12.6548189 71.8957939,13.872 Z" id="Path" stroke="#263238" stroke-width="0.6375" fill="#FFFFFF" fill-rule="nonzero" stroke-linecap="round" stroke-linejoin="round"></path>
                        <path d="M58.5695933,10.7614262 C58.5695933,10.7614262 58.7627967,14.6496435 62.2646072,16.4995655 C65.7664178,18.3494875 70.2439053,17.9485905 70.340507,15.6253203 C70.4371086,13.3020501 67.7129415,10.8580279 65.8630195,7.74262396 C64.0130975,4.62722006 59.9316769,6.38537047 58.1783565,8.52509749" id="Path" stroke="#263238" stroke-width="0.6375" fill="#FFFFFF" fill-rule="nonzero" stroke-linecap="round" stroke-linejoin="round"></path>
                        <path d="M64.6023677,13.872 C64.3077326,15.4272869 65.3800111,16.2870418 66.3508579,16.7700501 C67.3217047,17.2530585 69.2489081,16.9680836 70.340507,15.606 C70.3839777,14.4661003 69.7608969,13.3068802 68.8914819,12.0558886 C67.6743008,12.2104513 64.8293816,12.6548189 64.6023677,13.872 Z" id="Path" stroke="#263238" stroke-width="0.6375" fill="#FFFFFF" fill-rule="nonzero" stroke-linecap="round" stroke-linejoin="round"></path>
                        <path d="M51.7833259,10.7614262 C51.7833259,10.7614262 51.9765292,14.6496435 55.4783398,16.4995655 C58.9801504,18.3494875 63.4528078,17.9485905 63.5494095,15.6253203 C63.6460111,13.3020501 60.9266741,10.8580279 59.0767521,7.74262396 C57.2268301,4.62722006 53.1405794,6.38537047 51.3920891,8.52509749" id="Path" stroke="#263238" stroke-width="0.6375" fill="#FFFFFF" fill-rule="nonzero" stroke-linecap="round" stroke-linejoin="round"></path>
                        <path d="M57.8112702,13.872 C57.5214652,15.4272869 58.5889136,16.2870418 59.5645905,16.7700501 C60.5402674,17.2530585 62.4626407,16.9680836 63.5494095,15.606 C63.5977103,14.4661003 62.9746295,13.3068802 62.1003844,12.0558886 C60.8832033,12.2104513 58.0382841,12.6548189 57.8112702,13.872 Z" id="Path" stroke="#263238" stroke-width="0.6375" fill="#FFFFFF" fill-rule="nonzero" stroke-linecap="round" stroke-linejoin="round"></path>
                        <path d="M24.4305627,53.1309192 C24.4305627,53.1309192 24.7010474,59.1105627 27.9999944,63.1340223" id="Path" stroke="#263238" stroke-width="0.6375" stroke-linecap="round" stroke-linejoin="round"></path>
                        <path d="M14.8283565,78.087961 C14.8283565,79.3051421 14.0169025,80.2904791 13.0170752,80.2904791 C12.0172479,80.2904791 11.2057939,79.3244624 11.2057939,78.087961 C11.2057939,76.8514596 12.0172479,75.8854429 13.0170752,75.8854429 C14.0169025,75.8854429 14.8283565,76.8707799 14.8283565,78.087961 Z" id="Path" fill="#FFFFFF" fill-rule="nonzero"></path>
                        <path d="M10.3218886,80.8314485 C10.3218886,82.0486295 9.51043454,83.0339666 8.51060724,83.0339666 C7.51077994,83.0339666 6.69932591,82.0679499 6.69932591,80.8314485 C6.69932591,79.5949471 7.51077994,78.6241003 8.51060724,78.6241003 C9.51043454,78.6241003 10.3218886,79.6142674 10.3218886,80.8314485 Z" id="Path" stroke="#263238" stroke-width="0.6375" stroke-linecap="round" stroke-linejoin="round"></path>
                    </g>
                </g>
            </g>
        </g>
    </g>
</svg>