<svg xmlns="http://www.w3.org/2000/svg" width="167" height="227" viewBox="0 0 167 227"><g><g><g><path fill="#282826" d="M154.907 33.9c18.37 21.856 12.881 61.783-2.692 83.423-8.322 11.565-21.53 17.639-34.998 18.072.673 3.095 3.934 7.011 1.232 9.905-1.812 1.94-4.763 1.765-7.375 1.441-2.78 7.856-7.575 14.532-14.117 19.747-6.793 5.416-14.835 8.918-22.224 13.395-8.482 5.14-15.838 11.426-18.617 21.315-2.336 8.318-1.949 16.565-.968 25.04.035.3-.426.338-.507.07-4.957-16.29-2.122-33.255 11.761-44.022 7.236-5.613 15.768-9.15 23.468-14.026 8.572-5.427 15.186-12.407 19.01-21.797-2.638-.313-6.655-1.019-7.541-3.983-1.102-3.68 2.011-5.498 3.345-8.333-7.692-1.811-14.983-5.554-20.952-11.276-4.463-4.28-7.974-9.168-10.607-14.448-4.456 3.15-9.27 5.357-14.222 6.644 1.232 2.85 5.05 6.325 2.99 9.487-1.24 1.9-3.436 2.46-5.651 2.685 1.765 6.95 2.378 13.956.1 20.949-2.26 6.935-6.049 13.067-9.778 19.285-9.708 16.188-13.885 33.946-8.782 52.494.078.283-.356.482-.484.205-6.963-15.168-4.642-32.481 3.06-46.977 3.761-7.081 8.642-13.636 11.829-21.013 3.592-8.316 3.767-16.192 1.665-24.775-.192.01-.39.02-.575.031-2.61.155-7.287.425-8.733-2.463-1.746-3.485.863-5.608 1.739-8.58-11.954-.518-23.59-6.02-31.831-16.007C1.15 84.272-2.573 59.508 1.659 39.473 5.9 19.403 19.94 2.606 41.264.295c21.206-2.298 39.315 9.01 48.182 27.917 8.905-7.812 19.923-13.05 32.216-11.77 13.07 1.36 24.763 7.369 33.245 17.458zm7.861 42.848c-2.167-.076-4.475 1.196-5.081 3.394-.743 2.695.943 5.877 3.772 6.078a89.22 89.22 0 0 0 1.31-9.472zm-11.585-42.156c-.274-.294-.561-.58-.844-.869-2.153 2.004-2.475 5.434.13 7.45 1.687 1.305 3.817.81 5.366-.39-1.342-2.206-2.88-4.286-4.652-6.191zM21.157 12.245c6.661 6.838 17.529 7.894 26.653 7.426 7.535-.387 19.36-.982 24.04-8.003.025-.038.055-.066.083-.1-3.937-2.983-8.323-5.288-13.034-6.733-2.058 4.105-8.253 5.006-12.316 5.445-5.46.59-11.058-.236-15.206-3.946-3.753 1.52-7.178 3.5-10.22 5.91zm18.85-8.452c-1.693.315-3.314.745-4.903 1.225 3.345 2.118 7.526 2.484 11.49 1.955 2.618-.35 6.962-.814 8.915-3.018-4.916-1.038-10.127-1.161-15.501-.162zM8.945 27.77c10.41 7.91 23.885 9.999 36.668 8.337 12.215-1.587 27.15-5.495 36.774-13.59a48.588 48.588 0 0 0-7.89-8.878c-5.532 7.845-17.899 9.074-26.676 9.339-10.111.304-21.89-.818-29.17-8.575-4.02 3.743-7.272 8.271-9.706 13.367zM4.51 42.18c-.07.439-.12.888-.183 1.33 10.126 7.18 21.983 10.636 34.434 10.593 11.11-.038 25.415-.52 35.543-5.622.006-.002.01-.001.016-.004 2.219-4.655 4.894-9.045 7.995-13.019a71.554 71.554 0 0 1 4.6-4.914 51.855 51.855 0 0 0-2.757-5.247c-10.116 8.22-25.882 12.87-38.556 14.112-13.578 1.33-26.851-.54-37.995-8.565A53.484 53.484 0 0 0 4.51 42.18zm77.698-.96a66.504 66.504 0 0 0-4.792 8.413zM68.97 97.24a63.648 63.648 0 0 1-1.72-9.96C51.374 94.32 24.3 95.913 9 84.87c1.795 4.246 4.058 8.26 6.83 11.912 14.618 10.082 37.737 7.913 53.14.457zm-1.518-24.904c-11.034 5.736-25.82 5.115-37.6 3.154-8.948-1.49-18.668-3.533-25.76-9.453.515 4.162 1.351 8.283 2.552 12.272C19.688 93.04 50.8 91.569 66.871 83.836c.048-.022.092-.016.14-.035-.163-3.81-.008-7.65.441-11.465zm3.246 17.16c2.591-.02 5.396-1.986 5.249-4.843-.174-3.39-2.559-5.294-5.794-4.297a66.066 66.066 0 0 0 .452 9.158c.034-.002.058-.019.093-.019zm1.693-36.582C62.274 56.8 48.989 57.688 38.765 57.42c-12.632-.33-24.431-3.158-34.886-10.165a86.553 86.553 0 0 0-.252 13.796c.044.04.093.052.135.1 6.674 7.373 17.465 9.786 26.969 11.15 11.715 1.68 26.202 2.618 36.76-3.76.181-.11.358-.154.532-.19a76.775 76.775 0 0 1 4.368-15.438zm-13.642 68.452c-.093-.169-.2-.33-.297-.496-3.677.72-7.384 1.076-11.054.362-.148.413-.238.825-.21 1.224.173 2.363 4.495 1.795 6.089 1.675 1.556-.117 7.062.131 5.472-2.765zm-3.1-5.597a42.73 42.73 0 0 1-6 .639c-.128.628-.311 1.238-.624 1.842-.226.436-.542.921-.847 1.43 3.11.527 6.229.267 9.347-.312-.731-1.148-1.427-2.31-1.875-3.6zm16.08-10.4a56.976 56.976 0 0 1-1.835-4.932c-13.591 6.353-32.328 8.91-47.128 3.56 13.867 11.35 33.547 12.41 48.963 1.371zm36.226 29.424a9.304 9.304 0 0 1-1.307 2.364c-.257.336-.61.718-.964 1.128 2.862 1.673 6.374 1.974 9.677 1.54-.587-1.454-1.178-2.882-1.438-4.442a47.981 47.981 0 0 1-5.968-.59zm8.005 6.619c-3.815.56-7.955.236-11.24-1.782-.228.429-.375.87-.337 1.317.182 2.124 4.714 2.256 6.194 2.395 1.68.157 6.425 1.214 5.383-1.93zm7.89-10.177a42.365 42.365 0 0 0 8.709-2.6zm30-22.489c2.919-5.654 5.329-12.325 6.955-19.412-4.264-.733-7.736-4.857-6.452-9.514 1.056-3.828 4.752-6.668 8.647-6.436.456-10.5-1.125-20.968-5.547-29.713-3.075 2.054-7.499 2.326-10.01-.863-2.935-3.723-2.688-8.326.513-11.389-7.709-6.914-17.805-11.702-28.247-11.78-14.546-.11-25.864 7.348-35.044 18.161-.183.234-.356.482-.535.72 3.644 2.608 4.474 8.234 1.556 11.763-2.44 2.95-6.334 3.89-9.594 2.31a76.007 76.007 0 0 0-5.788 24.324c4.481-.808 8.667 2.185 8.917 7.071.246 4.785-3.445 8.555-8.125 8.792 2.002 11.287 7.221 21.665 16.469 29.058 9.834 7.864 21.748 11.063 33.04 9.856-.876-3.91.997-7.855 5.007-9.486 4.631-1.884 8.6.808 9.953 5.02 7.468-3.855 13.927-10.038 18.285-18.482z"/></g><g><path fill="#282826" d="M102.452 63.329c3.8-1.864 8.559-.949 10.336 3.26 1.676 3.967.688 8.731-3.373 10.86-3.968 2.08-8.267.866-10.48-3.052-1.942-4.044-.703-8.998 3.517-11.068zm7.239 4.44c-2.988-5.089-10.283 0-7.903 4.95z"/></g><g><path fill="#282826" d="M110.992 26.949c3.8-1.864 8.559-.949 10.336 3.26 1.677 3.967.688 8.731-3.373 10.86-3.968 2.08-8.267.866-10.48-3.052-1.942-4.044-.703-8.998 3.517-11.068zm7.237 4.44c-2.987-5.089-10.278 0-7.9 4.95z"/></g><g><path fill="#282826" d="M129.322 84.279c3.8-1.864 8.559-.949 10.336 3.26 1.677 3.967.688 8.731-3.373 10.86-3.968 2.08-8.267.866-10.48-3.052-1.942-4.044-.703-8.998 3.517-11.068zm7.237 4.44c-2.987-5.089-10.278.001-7.9 4.95z"/></g><g><path fill="#282826" d="M99.162 97.314c3.968-2.08 8.267-.865 10.48 3.053 1.942 4.044.702 8.998-3.518 11.068-3.8 1.864-8.559.949-10.336-3.26-1.675-3.967-.688-8.731 3.374-10.86zm7.636 4.723c-3.15-5.565-10.966-.245-7.912 4.956z"/></g><g><path fill="#282826" d="M132.232 51.014c3.968-2.08 8.266-.865 10.48 3.053 1.942 4.044.702 8.998-3.518 11.068-3.8 1.863-8.559.949-10.336-3.26-1.675-3.968-.688-8.731 3.374-10.86zm7.634 4.723c-3.148-5.565-10.96-.245-7.908 4.955z"/></g></g></g></svg>