<svg xmlns="http://www.w3.org/2000/svg" width="131" height="81" viewBox="0 0 131 81"><g><g><g><path fill="#fff" d="M126.18 36.093c-1.305-10.239-1.504-20.756-2.049-31.163-10.247 2.126-20.644 1.942-30.948 1.722-7.115-.152-14.23-.446-21.346-.319-7.45.132-14.89.868-22.335 1.313-7.983.476-15.967.85-23.953 1.047-7.477.185-15.077.813-22.549-.108.38 5.494.258 11.184.426 16.689.18 5.923.351 11.846.537 17.768.366 11.705.72 23.413.74 35.135 4.16-.539 8.332-.557 12.503-.748 4.502-.209 9.005-.455 13.505-.724 32.199-1.937 64.352-6.017 96.585-6.05.177 0 .336.05.478.134-.008-6.216-.053-12.442-.526-18.615-.07-.91.752-2.222.752-2.222s-.704-8.398-.704-12.422c-.496-.102-.998-.52-1.115-1.437z"/></g><g><path d="M130.619 53.151s.385 12.903.381 19.358c-.002 2.474-1.76 3.044-2.573 1.712-.214.334-.51.548-.887.548-9.204.004-18.406.316-27.605.82-16.2.887-32.39 2.261-48.586 3.41-8.09.573-16.182 1.098-24.277 1.463-7.784.35-15.721 1.047-23.493-.07-.87.716-2.182.017-2.183-2.104-.006-12.11-.38-24.203-.757-36.294C.455 36.105.266 30.216.175 24.322.086 18.562-.227 12.512.292 6.8c.14-1.552 1.5-1.774 2.007-.688 5.88-.753 11.822-.533 17.713-.724a883.591 883.591 0 0 0 18.232-.78c15.022-.802 30.004-2.296 45.038-2.248 13.772.042 27.731.827 41.412-2.327 1.67-.384 2.238 2.637 1.31 4.051 1.104 9.743 2.479 29.42 2.479 29.42zm-4.215-17.093c-1.308-10.205-1.507-20.686-2.053-31.058-10.266 2.118-20.681 1.935-31.005 1.716-7.127-.152-14.256-.444-21.384-.318-7.464.132-14.917.866-22.376 1.309-7.997.474-15.996.847-23.996 1.044-7.49.184-15.104.81-22.59-.108.38 5.475.259 11.146.427 16.632.18 5.904.352 11.807.538 17.708.367 11.666.72 23.334.742 35.017 4.166-.537 8.346-.555 12.524-.745 4.511-.209 9.022-.454 13.53-.722 32.258-1.93 64.47-5.997 96.76-6.03a.92.92 0 0 1 .479.134c-.008-6.195-.053-12.4-.526-18.552-.07-.908-.952-15.112-1.07-16.027z"/></g><g><g><text dominant-baseline="text-before-edge" style="font-kerning:normal" fill="#0b0212" font-family="Noteworthy-Bold" font-size="32" transform="translate(20 12)"><tspan style="font-kerning:normal">#Pets</tspan></text></g></g></g></g></svg>