<svg xmlns="http://www.w3.org/2000/svg" width="161" height="81" viewBox="0 0 161 81"><g><g><g><path fill="#fff" d="M155.744 36.058c-1.619-10.205-1.866-20.686-2.541-31.058-12.707 2.118-25.599 1.935-38.377 1.716-8.821-.152-17.645-.444-26.468-.318-9.238.132-18.464.866-27.696 1.309-9.898.474-19.799.847-29.701 1.044-9.272.184-18.696.81-27.961-.108.471 5.475.32 11.146.528 16.632.223 5.904.436 11.807.666 17.708.454 11.666.892 23.334.919 35.017 5.156-.537 10.33-.555 15.502-.745 5.583-.209 11.166-.454 16.747-.722 39.926-1.93 79.797-5.997 119.765-6.03.22 0 .417.05.592.134-.01-6.195-.065-12.4-.651-18.552-.087-.908.932-2.215.932-2.215s-.873-8.37-.873-12.38c-.616-.101-1.238-.517-1.383-1.432z"/></g><g><path d="M160.532 53.151s.473 12.903.468 19.358c-.002 2.474-2.163 3.044-3.163 1.712-.262.334-.625.548-1.09.548-11.31.004-22.62.316-33.926.82-19.911.887-39.809 2.261-59.712 3.41-9.944.573-19.889 1.098-29.837 1.463-9.567.35-19.322 1.047-28.873-.07-1.069.716-2.683.017-2.684-2.104-.007-12.11-.466-24.203-.93-36.294C.56 36.105.328 30.216.216 24.322.105 18.562-.279 12.512.36 6.8c.173-1.552 1.844-1.774 2.466-.688 7.227-.753 14.53-.533 21.77-.724 7.47-.198 14.94-.457 22.408-.78 18.462-.802 36.874-2.296 55.35-2.248 16.927.042 34.083.827 50.897-2.327C155.3-.35 156 2.67 154.86 4.084c1.357 9.743 3.047 29.42 3.047 29.42zm-4.51-17.093C154.4 25.853 154.151 15.372 153.474 5c-12.73 2.118-25.645 1.935-38.446 1.716-8.837-.152-17.677-.444-26.516-.318-9.255.132-18.498.866-27.746 1.309-9.917.474-19.835.847-29.756 1.044-9.288.184-18.729.81-28.011-.108.472 5.475.32 11.146.529 16.632.223 5.904.437 11.807.667 17.708.455 11.666.894 23.334.92 35.017 5.166-.537 10.35-.555 15.53-.745 5.594-.209 11.187-.454 16.778-.722 39.999-1.93 79.942-5.997 119.983-6.03.22 0 .417.05.593.134-.01-6.195-.065-12.4-.653-18.552-.087-.908-1.18-15.112-1.326-16.027z"/></g><g><g><text dominant-baseline="text-before-edge" style="font-kerning:normal" fill="#0b0212" font-family="Noteworthy-Bold" font-size="32" transform="translate(19 13)"><tspan style="font-kerning:normal">#Parties</tspan></text></g></g></g></g></svg>