<svg xmlns="http://www.w3.org/2000/svg" width="197" height="82" viewBox="0 0 197 82"><g><g><g><path fill="#fff" d="M189.78 36.093c-1.97-10.239-2.27-20.756-3.092-31.163-15.461 2.126-31.147 1.942-46.694 1.722-10.734-.152-21.47-.446-32.205-.319-11.24.132-22.466.868-33.699 1.313-12.044.476-24.09.85-36.14 1.047-11.28.185-22.746.813-34.02-.108.574 5.494.39 11.184.642 16.689.272 5.923.53 11.846.81 17.768.554 11.705 1.086 23.413 1.118 35.135 6.275-.539 12.57-.557 18.863-.748 6.793-.209 13.586-.455 20.377-.724 48.58-1.937 97.092-6.017 145.723-6.05.268 0 .507.05.72.134-.011-6.216-.079-12.442-.792-18.615-.106-.91 1.134-2.222 1.134-2.222s-1.062-8.398-1.062-12.422c-.749-.102-1.506-.52-1.683-1.437z"/></g><g><path d="M196.082 53.454s.579 12.976.572 19.47c-.002 2.487-2.641 3.06-3.863 1.72-.32.337-.764.552-1.331.552-13.816.003-27.63.318-41.44.825-24.32.891-48.624 2.273-72.935 3.428-12.146.577-24.293 1.105-36.445 1.473-11.686.352-23.6 1.052-35.267-.072-1.305.72-3.276.018-3.278-2.116-.009-12.178-.57-24.34-1.135-36.5C.684 36.31.399 30.389.263 24.46.129 18.668-.341 12.584.438 6.838c.211-1.56 2.253-1.784 3.013-.692 8.827-.756 17.747-.535 26.591-.728 9.124-.199 18.248-.459 27.37-.784 22.55-.807 45.04-2.31 67.609-2.26 20.674.042 41.63.832 62.167-2.34 2.505-.387 3.36 2.65 1.965 4.073 1.659 9.799 3.723 29.588 3.723 29.588zm-6.305-17.368c-1.97-10.238-2.27-20.753-3.092-31.159-15.461 2.126-31.147 1.942-46.694 1.722-10.734-.152-21.47-.446-32.205-.319-11.24.132-22.466.868-33.7 1.313-12.043.476-24.09.85-36.138 1.047-11.281.185-22.747.813-34.021-.108.574 5.493.39 11.182.642 16.686.272 5.923.53 11.845.81 17.766.554 11.703 1.086 23.41 1.118 35.13 6.275-.539 12.57-.556 18.863-.747 6.793-.21 13.586-.456 20.377-.724 48.58-1.937 97.092-6.017 145.723-6.05.268 0 .507.05.72.134-.011-6.215-.079-12.44-.792-18.612-.106-.91-1.434-15.161-1.61-16.079z"/></g><g><g><text dominant-baseline="text-before-edge" style="font-kerning:normal" fill="#0b0212" font-family="Noteworthy-Bold" font-size="32" transform="translate(20 12)"><tspan style="font-kerning:normal">#FirstLove</tspan></text></g></g></g></g></svg>