<svg xmlns="http://www.w3.org/2000/svg" width="249" height="81" viewBox="0 0 249 81"><g><g><g><path fill="#fff" d="M240.522 36.093c-2.496-10.239-2.878-20.756-3.919-31.163-19.594 2.126-39.472 1.942-59.174 1.722-13.602-.152-27.208-.446-40.812-.319-14.245.132-28.47.868-42.706 1.313-15.263.476-30.529.85-45.798 1.047-14.295.185-28.826.813-43.113-.108.727 5.494.494 11.184.814 16.689.344 5.923.672 11.846 1.027 17.768.7 11.705 1.376 23.413 1.416 35.135 7.952-.539 15.93-.557 23.904-.748 8.61-.209 17.218-.455 25.823-.724 61.564-1.937 123.041-6.017 184.67-6.05.34 0 .642.05.913.134-.015-6.216-.1-12.442-1.005-18.615-.133-.91 1.438-2.222 1.438-2.222s-1.346-8.398-1.346-12.422c-.95-.102-1.908-.52-2.132-1.437z"/></g><g><path d="M248.276 53.151s.732 12.903.724 19.358c-.003 2.474-3.345 3.044-4.892 1.712-.406.334-.967.548-1.685.548-17.494.004-34.985.316-52.47.82-30.794.887-61.568 2.261-92.35 3.41-15.378.573-30.759 1.098-46.146 1.463-14.796.35-29.882 1.047-44.653-.07-1.653.716-4.15.017-4.151-2.104-.012-12.11-.722-24.203-1.438-36.294-.35-5.889-.71-11.778-.882-17.672-.17-5.76-.765-11.81.222-17.522.267-1.552 2.852-1.774 3.815-.688 11.176-.753 22.47-.533 33.669-.724 11.552-.198 23.105-.457 34.655-.78 28.553-.802 57.029-2.296 85.605-2.248 26.177.042 52.71.827 78.715-2.327 3.172-.384 4.254 2.637 2.489 4.051 2.1 9.743 4.713 29.42 4.713 29.42zm-8.314-17.093c-2.49-10.205-2.87-20.686-3.91-31.058-19.547 2.118-39.377 1.935-59.033 1.716-13.57-.152-27.143-.444-40.715-.318-14.211.132-28.403.866-42.604 1.309-15.227.474-30.456.847-45.69 1.044-14.26.184-28.757.81-43.01-.108.725 5.475.493 11.146.812 16.632.343 5.904.67 11.807 1.025 17.708C7.536 54.65 8.209 66.317 8.25 78c7.932-.537 15.892-.555 23.846-.745a3696.63 3696.63 0 0 0 25.762-.722c61.417-1.93 122.749-5.997 184.23-6.03.34 0 .642.05.912.134-.015-6.195-.1-12.4-1.002-18.552-.134-.908-1.813-15.112-2.036-16.027z"/></g><g><g><text dominant-baseline="text-before-edge" style="font-kerning:normal" fill="#0b0212" font-family="Noteworthy-Bold" font-size="32" transform="translate(20 12)"><tspan style="font-kerning:normal">#Secret Santa</tspan></text></g></g></g></g></svg>