<svg xmlns="http://www.w3.org/2000/svg" width="234" height="81" viewBox="0 0 234 81"><g><g><g><path fill="#fff" d="M226.64 36.093c-2.36-10.239-2.72-20.756-3.704-31.163-18.529 2.126-37.325 1.942-55.956 1.722-12.862-.152-25.728-.446-38.592-.319-13.47.132-26.922.868-40.383 1.313-14.433.476-28.868.85-43.307 1.047-13.518.185-27.258.813-40.768-.108.687 5.494.467 11.184.77 16.689.325 5.923.635 11.846.97 17.768.663 11.705 1.302 23.413 1.34 35.135 7.519-.539 15.064-.557 22.604-.748 8.14-.209 16.28-.455 24.418-.724 58.215-1.937 116.348-6.017 174.625-6.05.321 0 .608.05.864.134-.015-6.216-.095-12.442-.95-18.615-.127-.91 1.359-2.222 1.359-2.222s-1.273-8.398-1.273-12.422c-.897-.102-1.804-.52-2.016-1.437z"/></g><g><path d="M233.32 53.151s.688 12.903.68 19.358c-.003 2.474-3.143 3.044-4.597 1.712-.382.334-.909.548-1.584.548-16.44.004-32.877.316-49.309.82-28.94.887-57.859 2.261-86.787 3.41-14.452.573-28.906 1.098-43.366 1.463-13.904.35-28.081 1.047-41.963-.07-1.554.716-3.9.017-3.901-2.104-.01-12.11-.678-24.203-1.351-36.294-.328-5.889-.667-11.778-.83-17.672-.158-5.76-.718-11.81.21-17.522.25-1.552 2.68-1.774 3.584-.688 10.504-.753 21.118-.533 31.641-.724a2813.95 2813.95 0 0 0 32.568-.78c26.832-.802 53.593-2.296 80.448-2.248 24.6.042 49.535.827 73.973-2.327 2.981-.384 3.998 2.637 2.339 4.051 1.973 9.743 4.429 29.42 4.429 29.42zm-7.18-17.093C223.797 25.853 223.44 15.372 222.461 5c-18.397 2.118-37.061 1.935-55.56 1.716-12.772-.152-25.547-.444-38.32-.318-13.376.132-26.733.866-40.099 1.309-14.33.474-28.665.847-43.001 1.044-13.423.184-27.067.81-40.481-.108.683 5.475.464 11.146.764 16.632.323 5.904.631 11.807.965 17.708C7.386 54.65 8.02 66.317 8.059 78c7.465-.537 14.957-.555 22.444-.745 8.083-.209 16.166-.454 24.246-.722 57.804-1.93 115.528-5.997 173.393-6.03.32 0 .604.05.858.134-.014-6.195-.094-12.4-.943-18.552-.126-.908-1.706-15.112-1.917-16.027z"/></g><g><g><text dominant-baseline="text-before-edge" style="font-kerning:normal" fill="#0b0212" font-family="Noteworthy-Bold" font-size="32" transform="translate(17 12)"><tspan style="font-kerning:normal">#Baby shower</tspan></text></g></g></g></g></svg>