<svg width="167" height="221" viewBox="0 0 167 221" fill="none" xmlns="http://www.w3.org/2000/svg">
<g id="gift1">
<g id="Group 5">
<rect id="Rectangle" width="12.9466" height="8.55245" transform="matrix(-0.939693 -0.34202 -0.34202 0.939693 140.834 105.988)" fill="white" stroke="#263238" stroke-width="0.73728" stroke-linecap="round" stroke-linejoin="round"/>
<path id="Path" d="M136.187 102.288L141.118 109.606L146.886 105.766L144.427 102.109L136.187 102.288Z" fill="white" stroke="#263238" stroke-width="0.73728" stroke-linecap="round" stroke-linejoin="round"/>
<path id="Path_2" d="M125.178 104.424L133.66 101.988L127.469 96.5566L123.228 97.7748L125.178 104.424Z" fill="white" stroke="#263238" stroke-width="0.73728" stroke-linecap="round" stroke-linejoin="round"/>
<path id="Path_3" d="M129.615 102.775L139.093 106.225L138.796 99.6674L134.057 97.9426L129.615 102.775Z" fill="white" stroke="#263238" stroke-width="0.73728" stroke-linecap="round" stroke-linejoin="round"/>
<path id="Path_4" d="M139.036 105.756L136.527 112.65L144.983 113.774L146.237 110.331L139.036 105.756Z" fill="white" stroke="#263238" stroke-width="0.73728" stroke-linecap="round" stroke-linejoin="round"/>
<path id="Path_5" d="M130.181 102.534L127.672 109.428L120.471 104.853L121.725 101.41L130.181 102.534Z" fill="white" stroke="#263238" stroke-width="0.73728" stroke-linecap="round" stroke-linejoin="round"/>
<rect id="Rectangle_2" width="66.2667" height="33.7822" transform="matrix(-0.939693 -0.34202 -0.34202 0.939693 162.951 120.047)" fill="#ADC7F7" stroke="#263238" stroke-width="0.73728" stroke-linecap="round" stroke-linejoin="round"/>
<rect id="Rectangle_3" width="7.81517" height="33.7822" transform="matrix(-0.939693 -0.34202 -0.34202 0.939693 146.718 114.139)" fill="white" stroke="#263238" stroke-width="0.73728" stroke-linecap="round" stroke-linejoin="round"/>
<rect id="Rectangle_4" width="22.8336" height="33.7822" transform="matrix(-0.939693 -0.34202 -0.34202 0.939693 122.13 105.19)" fill="#ADC7F7" stroke="#263238" stroke-width="0.73728" stroke-linecap="round" stroke-linejoin="round"/>
<rect id="Rectangle_5" width="7.81517" height="33.7822" transform="matrix(-0.939693 -0.34202 -0.34202 0.939693 116.227 103.042)" fill="white" stroke="#263238" stroke-width="0.73728" stroke-linecap="round" stroke-linejoin="round"/>
</g>
<g id="Group 2">
<rect id="Rectangle_6" x="4.37988" y="206.59" width="82.65" height="13.43" fill="#ADC7F7" stroke="#263238" stroke-linecap="round" stroke-linejoin="round"/>
<rect id="Rectangle_7" x="25.9199" y="206.59" width="9.75" height="13.43" fill="white" stroke="#263238" stroke-linecap="round" stroke-linejoin="round"/>
<rect id="Rectangle 2" x="58.55" y="206.59" width="28.48" height="13.43" fill="#ADC7F7" stroke="#263238" stroke-linecap="round" stroke-linejoin="round"/>
<rect id="Rectangle_8" x="66.3899" y="206.59" width="9.75" height="13.43" fill="white" stroke="#263238" stroke-linecap="round" stroke-linejoin="round"/>
<path id="Path_6" fill-rule="evenodd" clip-rule="evenodd" d="M37.8301 194.501C37.8301 194.501 32.0701 179.501 22.8301 181.841C13.5901 184.181 37.8301 194.501 37.8301 194.501Z" stroke="#263238" stroke-linecap="round" stroke-linejoin="round"/>
<path id="Path_7" fill-rule="evenodd" clip-rule="evenodd" d="M37.8301 194.5C37.8301 194.5 44.7401 174.93 54.5201 181.26C64.3001 187.59 37.8301 194.5 37.8301 194.5Z" stroke="#263238" stroke-linecap="round" stroke-linejoin="round"/>
<rect id="Rectangle_9" x="1" y="193.351" width="82.65" height="13.43" fill="#ADC7F7" stroke="#263238" stroke-linecap="round" stroke-linejoin="round"/>
<rect id="Rectangle_10" x="22.54" y="193.351" width="9.75" height="13.43" fill="white" stroke="#263238" stroke-linecap="round" stroke-linejoin="round"/>
<rect id="Rectangle_11" x="55.1699" y="193.351" width="28.48" height="13.43" fill="#ADC7F7" stroke="#263238" stroke-linecap="round" stroke-linejoin="round"/>
<rect id="Rectangle_12" x="63.01" y="193.351" width="9.75" height="13.43" fill="white" stroke="#263238" stroke-linecap="round" stroke-linejoin="round"/>
</g>
<g id="Group 7">
<path id="Path_8" fill-rule="evenodd" clip-rule="evenodd" d="M32.0009 20.7452C32.0009 20.7452 35.783 3.98227 42.8088 3.49209C49.8345 3.00191 53.1861 11.3948 48.1886 14.8963C43.1911 18.3978 32.0009 20.7452 32.0009 20.7452Z" stroke="#263238" stroke-width="2.21184" stroke-linecap="round" stroke-linejoin="round"/>
<path id="Path_9" fill-rule="evenodd" clip-rule="evenodd" d="M32.0008 20.745C32.0008 20.745 25.2548 5.83843 17.46 8.33585C9.66513 10.8333 14.4845 22.7106 18.606 22.7325C22.7274 22.7544 32.0008 20.745 32.0008 20.745Z" stroke="#263238" stroke-width="2.21184" stroke-linecap="round" stroke-linejoin="round"/>
<rect id="Rectangle_13" width="60.9362" height="50.3562" transform="matrix(-0.984808 0.173648 0.173648 0.984808 63.6228 14.7949)" fill="#FBFCFE"/>
<rect id="Rectangle_14" width="7.18848" height="50.3562" transform="matrix(-0.984808 0.173648 0.173648 0.984808 47.9832 17.5527)" fill="#ADC7F7" stroke="#263238" stroke-width="0.73728" stroke-linecap="round" stroke-linejoin="round"/>
<rect id="Rectangle_15" width="20.9977" height="50.3562" transform="matrix(-0.984808 0.173648 0.173648 0.984808 24.2913 21.73)" stroke="#263238" stroke-width="0.73728" stroke-linecap="round" stroke-linejoin="round"/>
<rect id="Rectangle_16" width="61.1942" height="50.3562" transform="matrix(-0.984808 0.173648 0.173648 0.984808 63.877 14.75)" stroke="#263238" stroke-width="0.73728" stroke-linecap="round" stroke-linejoin="round"/>
<rect id="Rectangle_17" width="7.18848" height="50.3562" transform="matrix(-0.984808 0.173648 0.173648 0.984808 18.606 22.7324)" fill="#ADC7F7" stroke="#35558F" stroke-width="0.73728" stroke-linecap="round" stroke-linejoin="round"/>
<path id="Path_10" d="M40.3886 51.4583L36.5478 29.676C35.2675 22.4152 31.9791 20.7491 31.9791 20.7491C31.9791 20.7491 29.5353 20.6035 28.9504 24.8018C28.3656 29 32.3957 44.3405 32.3957 44.3405" stroke="#263238" stroke-width="2.21184" stroke-linecap="round" stroke-linejoin="round"/>
</g>
</g>
</svg>
