<svg width="173" height="273" viewBox="0 0 173 273" fill="none" xmlns="http://www.w3.org/2000/svg">
<g id="gift1">
<g id="Group 5">
<rect id="Rectangle" width="12.9466" height="8.55245" transform="matrix(-0.939693 -0.34202 -0.34202 0.939693 146.835 19.9878)" fill="white" stroke="#263238" stroke-width="0.73728" stroke-linecap="round" stroke-linejoin="round"/>
<path id="Path" d="M142.187 16.2875L147.118 23.6059L152.886 19.7659L150.427 16.1092L142.187 16.2875Z" fill="white" stroke="#263238" stroke-width="0.73728" stroke-linecap="round" stroke-linejoin="round"/>
<path id="Path_2" d="M131.178 18.424L139.66 15.9875L133.469 10.5566L129.228 11.7748L131.178 18.424Z" fill="white" stroke="#263238" stroke-width="0.73728" stroke-linecap="round" stroke-linejoin="round"/>
<path id="Path_3" d="M135.615 16.7751L145.093 20.2247L144.796 13.6674L140.057 11.9426L135.615 16.7751Z" fill="white" stroke="#263238" stroke-width="0.73728" stroke-linecap="round" stroke-linejoin="round"/>
<path id="Path_4" d="M145.036 19.7565L142.527 26.65L150.983 27.7744L152.237 24.3311L145.036 19.7565Z" fill="white" stroke="#263238" stroke-width="0.73728" stroke-linecap="round" stroke-linejoin="round"/>
<path id="Path_5" d="M136.182 16.5342L133.672 23.4277L126.472 18.8531L127.725 15.4098L136.182 16.5342Z" fill="white" stroke="#263238" stroke-width="0.73728" stroke-linecap="round" stroke-linejoin="round"/>
<rect id="Rectangle_2" width="66.2667" height="33.7822" transform="matrix(-0.939693 -0.34202 -0.34202 0.939693 168.951 34.0474)" fill="#ADC7F7" stroke="#263238" stroke-width="0.73728" stroke-linecap="round" stroke-linejoin="round"/>
<rect id="Rectangle_3" width="7.81517" height="33.7822" transform="matrix(-0.939693 -0.34202 -0.34202 0.939693 152.718 28.1392)" fill="white" stroke="#263238" stroke-width="0.73728" stroke-linecap="round" stroke-linejoin="round"/>
<rect id="Rectangle_4" width="22.8336" height="33.7822" transform="matrix(-0.939693 -0.34202 -0.34202 0.939693 128.13 19.1899)" fill="#ADC7F7" stroke="#263238" stroke-width="0.73728" stroke-linecap="round" stroke-linejoin="round"/>
<rect id="Rectangle_5" width="7.81517" height="33.7822" transform="matrix(-0.939693 -0.34202 -0.34202 0.939693 122.227 17.0415)" fill="white" stroke="#263238" stroke-width="0.73728" stroke-linecap="round" stroke-linejoin="round"/>
</g>
<g id="Group 5_2">
<rect id="Rectangle_6" x="26.1654" y="105.988" width="12.9466" height="8.55245" transform="rotate(-20 26.1654 105.988)" fill="white" stroke="#263238" stroke-width="0.73728" stroke-linecap="round" stroke-linejoin="round"/>
<path id="Path_6" d="M30.8129 102.288L25.8817 109.606L20.1138 105.766L22.5725 102.109L30.8129 102.288Z" fill="white" stroke="#263238" stroke-width="0.73728" stroke-linecap="round" stroke-linejoin="round"/>
<path id="Path_7" d="M41.8217 104.424L33.34 101.988L39.5309 96.5566L43.7718 97.7748L41.8217 104.424Z" fill="white" stroke="#263238" stroke-width="0.73728" stroke-linecap="round" stroke-linejoin="round"/>
<path id="Path_8" d="M37.3849 102.775L27.9071 106.225L28.2038 99.6674L32.9426 97.9426L37.3849 102.775Z" fill="white" stroke="#263238" stroke-width="0.73728" stroke-linecap="round" stroke-linejoin="round"/>
<path id="Path_9" d="M27.9643 105.756L30.4734 112.65L22.0166 113.774L20.7634 110.331L27.9643 105.756Z" fill="white" stroke="#263238" stroke-width="0.73728" stroke-linecap="round" stroke-linejoin="round"/>
<path id="Path_10" d="M36.8185 102.534L39.3275 109.428L46.5285 104.853L45.2752 101.41L36.8185 102.534Z" fill="white" stroke="#263238" stroke-width="0.73728" stroke-linecap="round" stroke-linejoin="round"/>
<rect id="Rectangle_7" x="4.04932" y="120.047" width="66.2667" height="33.7822" transform="rotate(-20 4.04932 120.047)" fill="#ADC7F7" stroke="#263238" stroke-width="0.73728" stroke-linecap="round" stroke-linejoin="round"/>
<rect id="Rectangle_8" x="20.282" y="114.139" width="7.81517" height="33.7822" transform="rotate(-20 20.282 114.139)" fill="white" stroke="#263238" stroke-width="0.73728" stroke-linecap="round" stroke-linejoin="round"/>
<rect id="Rectangle_9" x="44.87" y="105.19" width="22.8336" height="33.7822" transform="rotate(-20 44.87 105.19)" fill="#ADC7F7" stroke="#263238" stroke-width="0.73728" stroke-linecap="round" stroke-linejoin="round"/>
<rect id="Rectangle_10" x="50.7728" y="103.042" width="7.81517" height="33.7822" transform="rotate(-20 50.7728 103.042)" fill="white" stroke="#263238" stroke-width="0.73728" stroke-linecap="round" stroke-linejoin="round"/>
</g>
<g id="Group 7">
<path id="Path_11" fill-rule="evenodd" clip-rule="evenodd" d="M104.001 217.745C104.001 217.745 107.783 200.982 114.809 200.492C121.835 200.002 125.186 208.395 120.189 211.896C115.191 215.398 104.001 217.745 104.001 217.745Z" stroke="#263238" stroke-width="2.21184" stroke-linecap="round" stroke-linejoin="round"/>
<path id="Path_12" fill-rule="evenodd" clip-rule="evenodd" d="M104.001 217.745C104.001 217.745 97.2549 202.838 89.4601 205.336C81.6653 207.833 86.4846 219.711 90.6061 219.733C94.7276 219.754 104.001 217.745 104.001 217.745Z" stroke="#263238" stroke-width="2.21184" stroke-linecap="round" stroke-linejoin="round"/>
<rect id="Rectangle_11" width="60.9362" height="50.3562" transform="matrix(-0.984808 0.173648 0.173648 0.984808 135.623 211.795)" fill="#FBFCFE"/>
<rect id="Rectangle_12" width="7.18848" height="50.3562" transform="matrix(-0.984808 0.173648 0.173648 0.984808 119.983 214.553)" fill="#ADC7F7" stroke="#263238" stroke-width="0.73728" stroke-linecap="round" stroke-linejoin="round"/>
<rect id="Rectangle_13" width="20.9977" height="50.3562" transform="matrix(-0.984808 0.173648 0.173648 0.984808 96.2913 218.73)" stroke="#263238" stroke-width="0.73728" stroke-linecap="round" stroke-linejoin="round"/>
<rect id="Rectangle_14" width="61.1942" height="50.3562" transform="matrix(-0.984808 0.173648 0.173648 0.984808 135.877 211.75)" stroke="#263238" stroke-width="0.73728" stroke-linecap="round" stroke-linejoin="round"/>
<rect id="Rectangle_15" width="7.18848" height="50.3562" transform="matrix(-0.984808 0.173648 0.173648 0.984808 90.6061 219.732)" fill="#ADC7F7" stroke="#35558F" stroke-width="0.73728" stroke-linecap="round" stroke-linejoin="round"/>
<path id="Path_13" d="M112.389 248.458L108.548 226.676C107.268 219.415 103.979 217.749 103.979 217.749C103.979 217.749 101.535 217.603 100.95 221.802C100.366 226 104.396 241.341 104.396 241.341" stroke="#263238" stroke-width="2.21184" stroke-linecap="round" stroke-linejoin="round"/>
</g>
</g>
</svg>
