<svg width="170" height="248" viewBox="0 0 170 248" fill="none" xmlns="http://www.w3.org/2000/svg">
<path fill-rule="evenodd" clip-rule="evenodd" d="M10.6411 30.6671V32.487C10.6108 32.7972 10.7223 33.1045 10.9445 33.3231C11.1667 33.5417 11.4759 33.6481 11.7856 33.6127H18.9712C19.2845 33.6492 19.5974 33.5404 19.8204 33.3174C20.0434 33.0943 20.1522 32.7815 20.1157 32.4682V31.255C20.1157 28.6448 22.3005 27.1327 24.811 25.3951C28.2013 23.0487 32.1856 20.2911 32.1856 13.863C32.1856 5.98946 26.1819 0.72998 16.8825 0.72998C7.37662 0.72998 0.910156 6.35843 0.910156 14.4884V15.2326C0.910156 15.7017 1.37919 16.0394 2.05461 16.0394L9.26528 16.3083C10.0095 16.3083 10.4097 15.9706 10.4097 15.2326V14.4884C10.4097 11.5241 12.8175 9.43532 16.6636 9.43532C20.1657 9.43532 22.5234 11.3177 22.5234 14.2195C22.5234 17.2725 20.0361 19.0112 17.3375 20.8975C14.1378 23.1341 10.6411 25.5783 10.6411 30.6671ZM15.8068 37.9466C12.6424 37.9466 10.0157 40.373 10.0157 43.3374H10.0345C10.1332 46.3979 12.6831 48.8054 15.7443 48.7282C18.8399 48.7282 21.5416 46.3017 21.5416 43.3374C21.5416 40.373 18.8399 37.9466 15.8068 37.9466Z" fill="#ADC7F7"/>
<path fill-rule="evenodd" clip-rule="evenodd" d="M61.6411 229.667V231.487C61.6108 231.797 61.7223 232.105 61.9445 232.323C62.1667 232.542 62.4759 232.648 62.7856 232.613H69.9712C70.2845 232.649 70.5974 232.54 70.8204 232.317C71.0434 232.094 71.1522 231.782 71.1157 231.468V230.255C71.1157 227.645 73.3005 226.133 75.811 224.395C79.2013 222.049 83.1856 219.291 83.1856 212.863C83.1856 204.989 77.1819 199.73 67.8825 199.73C58.3766 199.73 51.9102 205.358 51.9102 213.488V214.233C51.9102 214.702 52.3792 215.039 53.0546 215.039L60.2653 215.308C61.0095 215.308 61.4097 214.971 61.4097 214.233V213.488C61.4097 210.524 63.8175 208.435 67.6636 208.435C71.1657 208.435 73.5234 210.318 73.5234 213.22C73.5234 216.273 71.0361 218.011 68.3375 219.897C65.1378 222.134 61.6411 224.578 61.6411 229.667ZM66.8068 236.947C63.6424 236.947 61.0157 239.373 61.0157 242.337H61.0345C61.1332 245.398 63.6831 247.805 66.7443 247.728C69.8399 247.728 72.5416 245.302 72.5416 242.337C72.5416 239.373 69.8399 236.947 66.8068 236.947Z" fill="#ADC7F7"/>
<path d="M134.543 129.95L135.039 130.009L135.043 129.98V129.95H134.543ZM132.256 104.333L132.238 104.832L132.247 104.833H132.256V104.333ZM120.84 103.913L120.858 103.413L120.849 103.413H120.84V103.913ZM149.443 129.95H148.943V129.98L148.947 130.011L149.443 129.95ZM147.623 131.769L147.684 131.273L147.654 131.269H147.623V131.769ZM136.331 131.769V131.269H136.306L136.28 131.272L136.331 131.769ZM133.578 147.137V147.637H134.113L134.077 147.103L133.578 147.137ZM142.662 155.675L142.664 155.175L142.655 155.175L142.646 155.176L142.662 155.675ZM133.547 147.137V146.637H133.03L133.047 147.153L133.547 147.137ZM135.043 129.95V127.072H134.043V129.95H135.043ZM135.043 127.072C135.043 119.923 139.537 116.186 144.227 112.856C146.548 111.207 148.95 109.637 150.751 107.818C152.572 105.979 153.831 103.837 153.831 101.02H152.831C152.831 103.491 151.743 105.395 150.04 107.114C148.319 108.853 146.023 110.353 143.647 112.04C138.942 115.382 134.043 119.383 134.043 127.072H135.043ZM153.831 101.02C153.831 98.5775 152.832 96.5399 151.079 95.123C149.337 93.7142 146.883 92.9452 143.999 92.9452V93.9452C146.714 93.9452 148.927 94.6693 150.451 95.9007C151.964 97.1242 152.831 98.8738 152.831 101.02H153.831ZM143.999 92.9452C140.871 92.9452 138.269 93.7974 136.439 95.3027C134.602 96.8144 133.576 98.9594 133.576 101.455H134.576C134.576 99.2541 135.471 97.394 137.075 96.075C138.686 94.7494 141.046 93.9452 143.999 93.9452V92.9452ZM133.576 101.455V102.622H134.576V101.455H133.576ZM133.576 102.622C133.576 103.126 133.442 103.397 133.273 103.551C133.094 103.714 132.783 103.833 132.256 103.833V104.833C132.911 104.833 133.51 104.687 133.946 104.29C134.391 103.885 134.576 103.3 134.576 102.622H133.576ZM132.275 103.833L120.858 103.413L120.821 104.412L132.238 104.832L132.275 103.833ZM120.84 103.413C120.383 103.413 120.036 103.296 119.818 103.141C119.608 102.99 119.52 102.81 119.52 102.622H118.52C118.52 103.18 118.805 103.645 119.237 103.954C119.661 104.257 120.224 104.413 120.84 104.413V103.413ZM119.52 102.622V101.455H118.52V102.622H119.52ZM119.52 101.455C119.52 95.1422 122.022 89.838 126.353 86.1054C130.691 82.3677 136.894 80.1802 144.326 80.1802V79.1802C136.702 79.1802 130.252 81.4254 125.701 85.3479C121.143 89.2755 118.52 94.8589 118.52 101.455H119.52ZM144.326 80.1802C151.599 80.1802 157.528 82.2341 161.631 85.7803C165.727 89.3205 168.043 94.3815 168.043 100.491H169.043C169.043 94.1109 166.615 88.7665 162.285 85.0237C157.961 81.2868 151.782 79.1802 144.326 79.1802V80.1802ZM168.043 100.491C168.043 104.821 166.878 108.052 165.144 110.622C163.403 113.202 161.073 115.139 158.7 116.857C156.356 118.553 153.908 120.075 152.088 121.756C150.243 123.46 148.943 125.413 148.943 128.037H149.943C149.943 125.8 151.03 124.094 152.767 122.49C154.529 120.863 156.855 119.427 159.286 117.667C161.688 115.928 164.133 113.908 165.973 111.181C167.82 108.445 169.043 105.018 169.043 100.491H168.043ZM148.943 128.037V129.95H149.943V128.037H148.943ZM148.947 130.011C148.989 130.357 148.87 130.703 148.623 130.95L149.33 131.657C149.795 131.193 150.019 130.54 149.939 129.889L148.947 130.011ZM148.623 130.95C148.377 131.196 148.03 131.316 147.684 131.273L147.562 132.266C148.214 132.346 148.866 132.121 149.33 131.657L148.623 130.95ZM147.623 131.269H136.331V132.269H147.623V131.269ZM136.28 131.272C135.937 131.307 135.597 131.185 135.356 130.939L134.643 131.64C135.097 132.103 135.737 132.333 136.382 132.267L136.28 131.272ZM135.356 130.939C135.114 130.694 134.998 130.351 135.039 130.009L134.046 129.89C133.969 130.534 134.188 131.178 134.643 131.64L135.356 130.939ZM134.077 147.103C133.842 143.558 135.799 140.23 139.011 138.713L138.584 137.809C135 139.502 132.817 143.215 133.079 147.17L134.077 147.103ZM139.011 138.713C142.223 137.195 146.037 137.797 148.625 140.231L149.31 139.502C146.422 136.787 142.168 136.116 138.584 137.809L139.011 138.713ZM148.625 140.231C151.214 142.664 152.05 146.433 150.734 149.733L151.663 150.104C153.131 146.422 152.198 142.217 149.31 139.502L148.625 140.231ZM150.734 149.733C149.418 153.033 146.217 155.192 142.664 155.175L142.659 156.175C146.623 156.194 150.194 153.785 151.663 150.104L150.734 149.733ZM142.646 155.176C138.047 155.324 134.198 151.718 134.047 147.12L133.047 147.153C133.217 152.303 137.528 156.341 142.678 156.175L142.646 155.176ZM133.547 147.637H133.578V146.637H133.547V147.637Z" fill="#263238"/>
</svg>
