<svg width="171" height="215" viewBox="0 0 171 215" fill="none" xmlns="http://www.w3.org/2000/svg">
<path fill-rule="evenodd" clip-rule="evenodd" d="M50.4702 48.6V51.51C50.4216 52.0061 50.5999 52.4975 50.9553 52.847C51.3106 53.1966 51.8049 53.3667 52.3002 53.31H63.7902C64.2911 53.3684 64.7913 53.1945 65.148 52.8378C65.5046 52.4812 65.6786 51.981 65.6202 51.48V49.54C65.6202 45.3663 69.1137 42.9484 73.1281 40.17C78.5492 36.418 84.9202 32.0086 84.9202 21.73C84.9202 9.13998 75.3202 0.72998 60.4502 0.72998C45.2502 0.72998 34.9102 9.72998 34.9102 22.73V23.92C34.9102 24.67 35.6602 25.21 36.7402 25.21L48.2702 25.64C49.4602 25.64 50.1002 25.1 50.1002 23.92V22.73C50.1002 17.99 53.9502 14.65 60.1002 14.65C65.7002 14.65 69.4702 17.66 69.4702 22.3C69.4702 27.1818 65.4929 29.9619 61.1778 32.9782C56.0614 36.5545 50.4702 40.4629 50.4702 48.6ZM58.7302 60.24C53.6702 60.24 49.4702 64.12 49.4702 68.86H49.5002C49.658 73.7539 53.7353 77.6034 58.6302 77.48C63.5802 77.48 67.9002 73.6 67.9002 68.86C67.9002 64.12 63.5802 60.24 58.7302 60.24Z" fill="#ADC7F7"/>
<path d="M11 139L11.4964 139.06L11.5 139.03V139H11ZM9.53002 122.53L9.51164 123.03L9.52083 123.03H9.53002V122.53ZM2.19002 122.26L2.2084 121.761L2.19921 121.76H2.19002V122.26ZM20.58 139H20.08V139.031L20.0837 139.061L20.58 139ZM19.41 140.17L19.4709 139.674L19.4406 139.67H19.41V140.17ZM12.15 140.17V139.67H12.1243L12.0988 139.673L12.15 140.17ZM10.38 150.05V150.55H10.9144L10.8789 150.017L10.38 150.05ZM16.22 155.54L16.2223 155.04L16.2131 155.04L16.2039 155.04L16.22 155.54ZM10.36 150.05V149.55H9.84327L9.86029 150.067L10.36 150.05ZM11.5 139V137.15H10.5V139H11.5ZM11.5 137.15C11.5 132.65 14.3174 130.295 17.3296 128.155C18.8125 127.102 20.3757 126.08 21.5478 124.896C22.7395 123.693 23.58 122.273 23.58 120.4H22.58C22.58 121.927 21.9106 123.109 20.8372 124.193C19.7443 125.297 18.2876 126.248 16.7505 127.34C13.7227 129.491 10.5 132.11 10.5 137.15H11.5ZM23.58 120.4C23.58 118.777 22.914 117.416 21.7443 116.47C20.5846 115.533 18.9645 115.03 17.08 115.03V116.03C18.7955 116.03 20.1754 116.488 21.1157 117.248C22.0461 118 22.58 119.073 22.58 120.4H23.58ZM17.08 115.03C15.0376 115.03 13.3216 115.587 12.1061 116.587C10.8828 117.593 10.2 119.023 10.2 120.68H11.2C11.2 119.318 11.7523 118.172 12.7414 117.359C13.7384 116.539 15.2124 116.03 17.08 116.03V115.03ZM10.2 120.68V121.43H11.2V120.68H10.2ZM10.2 121.43C10.2 121.723 10.123 121.841 10.0632 121.896C9.99445 121.958 9.84596 122.03 9.53002 122.03V123.03C9.97408 123.03 10.4106 122.932 10.7368 122.635C11.0721 122.329 11.2 121.898 11.2 121.43H10.2ZM9.5484 122.031L2.2084 121.761L2.17164 122.76L9.51164 123.03L9.5484 122.031ZM2.19002 121.76C1.92438 121.76 1.74027 121.692 1.63712 121.618C1.54169 121.55 1.52002 121.485 1.52002 121.43H0.52002C0.52002 121.855 0.738351 122.205 1.05542 122.432C1.36477 122.653 1.76566 122.76 2.19002 122.76V121.76ZM1.52002 121.43V120.68H0.52002V121.43H1.52002ZM1.52002 120.68C1.52002 116.672 3.10705 113.311 5.85142 110.946C8.60172 108.576 12.5462 107.18 17.29 107.18V106.18C12.3539 106.18 8.16332 107.634 5.19862 110.189C2.22799 112.749 0.52002 116.389 0.52002 120.68H1.52002ZM17.29 107.18C21.9335 107.18 25.7009 108.491 28.2993 110.737C30.8909 112.977 32.36 116.181 32.36 120.06H33.36C33.36 115.91 31.7792 112.423 28.9532 109.981C26.1342 107.544 22.1165 106.18 17.29 106.18V107.18ZM32.36 120.06C32.36 122.809 31.6217 124.852 30.5268 126.474C29.4251 128.106 27.9471 129.337 26.4268 130.438C24.9358 131.517 23.3395 132.511 22.1595 133.601C20.9539 134.714 20.08 136.014 20.08 137.77H21.08C21.08 136.401 21.7412 135.348 22.838 134.335C23.9605 133.298 25.4342 132.391 27.0132 131.248C28.563 130.126 30.1549 128.813 31.3557 127.033C32.5634 125.244 33.36 123.006 33.36 120.06H32.36ZM20.08 137.77V139H21.08V137.77H20.08ZM20.0837 139.061C20.1043 139.229 20.0464 139.397 19.9267 139.517L20.6338 140.224C20.9712 139.887 21.1344 139.413 21.0763 138.939L20.0837 139.061ZM19.9267 139.517C19.807 139.637 19.6389 139.694 19.4709 139.674L19.3492 140.666C19.8227 140.725 20.2965 140.561 20.6338 140.224L19.9267 139.517ZM19.41 139.67H12.15V140.67H19.41V139.67ZM12.0988 139.673C11.9325 139.69 11.7674 139.63 11.6502 139.511L10.9371 140.212C11.2673 140.548 11.7325 140.716 12.2012 140.668L12.0988 139.673ZM11.6502 139.511C11.533 139.392 11.4764 139.226 11.4964 139.06L10.5036 138.94C10.4473 139.408 10.6068 139.876 10.9371 140.212L11.6502 139.511ZM10.8789 150.017C10.7323 147.811 11.9501 145.74 13.9491 144.796L13.522 143.892C11.1514 145.011 9.70726 147.467 9.88112 150.083L10.8789 150.017ZM13.9491 144.796C15.9481 143.851 18.3212 144.226 19.932 145.74L20.617 145.012C18.7068 143.216 15.8925 142.772 13.522 143.892L13.9491 144.796ZM19.932 145.74C21.5428 147.255 22.0633 149.6 21.2442 151.654L22.173 152.024C23.1444 149.589 22.5272 146.807 20.617 145.012L19.932 145.74ZM21.2442 151.654C20.425 153.707 18.4331 155.05 16.2223 155.04L16.2177 156.04C18.8394 156.052 21.2016 154.459 22.173 152.024L21.2442 151.654ZM16.2039 155.04C13.346 155.133 10.9539 152.892 10.8597 150.034L9.86029 150.067C9.97263 153.476 12.8265 156.15 16.2361 156.04L16.2039 155.04ZM10.36 150.55H10.38V149.55H10.36V150.55Z" fill="#263238"/>
<path d="M148 197L148.496 197.06L148.5 197.03V197H148ZM146.53 180.53L146.512 181.03L146.521 181.03H146.53V180.53ZM139.19 180.26L139.208 179.761L139.199 179.76H139.19V180.26ZM157.58 197H157.08V197.031L157.084 197.061L157.58 197ZM156.41 198.17L156.471 197.674L156.441 197.67H156.41V198.17ZM149.15 198.17V197.67H149.124L149.099 197.673L149.15 198.17ZM147.38 208.05V208.55H147.914L147.879 208.017L147.38 208.05ZM153.22 213.54L153.222 213.04L153.213 213.04L153.204 213.04L153.22 213.54ZM147.36 208.05V207.55H146.843L146.86 208.067L147.36 208.05ZM148.5 197V195.15H147.5V197H148.5ZM148.5 195.15C148.5 190.65 151.317 188.295 154.33 186.155C155.812 185.102 157.376 184.08 158.548 182.896C159.739 181.693 160.58 180.273 160.58 178.4H159.58C159.58 179.927 158.911 181.109 157.837 182.193C156.744 183.297 155.288 184.248 153.75 185.34C150.723 187.491 147.5 190.11 147.5 195.15H148.5ZM160.58 178.4C160.58 176.777 159.914 175.416 158.744 174.47C157.585 173.533 155.965 173.03 154.08 173.03V174.03C155.796 174.03 157.175 174.488 158.116 175.248C159.046 176 159.58 177.073 159.58 178.4H160.58ZM154.08 173.03C152.038 173.03 150.322 173.587 149.106 174.587C147.883 175.593 147.2 177.023 147.2 178.68H148.2C148.2 177.318 148.752 176.172 149.741 175.359C150.738 174.539 152.212 174.03 154.08 174.03V173.03ZM147.2 178.68V179.43H148.2V178.68H147.2ZM147.2 179.43C147.2 179.723 147.123 179.841 147.063 179.896C146.994 179.958 146.846 180.03 146.53 180.03V181.03C146.974 181.03 147.411 180.932 147.737 180.635C148.072 180.329 148.2 179.898 148.2 179.43H147.2ZM146.548 180.031L139.208 179.761L139.172 180.76L146.512 181.03L146.548 180.031ZM139.19 179.76C138.924 179.76 138.74 179.692 138.637 179.618C138.542 179.55 138.52 179.485 138.52 179.43H137.52C137.52 179.855 137.738 180.205 138.055 180.432C138.365 180.653 138.766 180.76 139.19 180.76V179.76ZM138.52 179.43V178.68H137.52V179.43H138.52ZM138.52 178.68C138.52 174.672 140.107 171.311 142.851 168.946C145.602 166.576 149.546 165.18 154.29 165.18V164.18C149.354 164.18 145.163 165.634 142.199 168.189C139.228 170.749 137.52 174.389 137.52 178.68H138.52ZM154.29 165.18C158.933 165.18 162.701 166.491 165.299 168.737C167.891 170.977 169.36 174.181 169.36 178.06H170.36C170.36 173.91 168.779 170.423 165.953 167.981C163.134 165.544 159.117 164.18 154.29 164.18V165.18ZM169.36 178.06C169.36 180.809 168.622 182.852 167.527 184.474C166.425 186.106 164.947 187.337 163.427 188.438C161.936 189.517 160.34 190.511 159.16 191.601C157.954 192.714 157.08 194.014 157.08 195.77H158.08C158.08 194.401 158.741 193.348 159.838 192.335C160.961 191.298 162.434 190.391 164.013 189.248C165.563 188.126 167.155 186.813 168.356 185.033C169.563 183.244 170.36 181.006 170.36 178.06H169.36ZM157.08 195.77V197H158.08V195.77H157.08ZM157.084 197.061C157.104 197.229 157.046 197.397 156.927 197.517L157.634 198.224C157.971 197.887 158.134 197.413 158.076 196.939L157.084 197.061ZM156.927 197.517C156.807 197.637 156.639 197.694 156.471 197.674L156.349 198.666C156.823 198.725 157.297 198.561 157.634 198.224L156.927 197.517ZM156.41 197.67H149.15V198.67H156.41V197.67ZM149.099 197.673C148.933 197.69 148.767 197.63 148.65 197.511L147.937 198.212C148.267 198.548 148.733 198.716 149.201 198.668L149.099 197.673ZM148.65 197.511C148.533 197.392 148.476 197.226 148.496 197.06L147.504 196.94C147.447 197.408 147.607 197.876 147.937 198.212L148.65 197.511ZM147.879 208.017C147.732 205.811 148.95 203.74 150.949 202.796L150.522 201.892C148.151 203.011 146.707 205.467 146.881 208.083L147.879 208.017ZM150.949 202.796C152.948 201.851 155.321 202.226 156.932 203.74L157.617 203.012C155.707 201.216 152.892 200.772 150.522 201.892L150.949 202.796ZM156.932 203.74C158.543 205.255 159.063 207.6 158.244 209.654L159.173 210.024C160.144 207.589 159.527 204.807 157.617 203.012L156.932 203.74ZM158.244 209.654C157.425 211.707 155.433 213.05 153.222 213.04L153.218 214.04C155.839 214.052 158.202 212.459 159.173 210.024L158.244 209.654ZM153.204 213.04C150.346 213.133 147.954 210.892 147.86 208.034L146.86 208.067C146.973 211.476 149.826 214.15 153.236 214.04L153.204 213.04ZM147.36 208.55H147.38V207.55H147.36V208.55Z" fill="#263238"/>
</svg>
