<svg xmlns="http://www.w3.org/2000/svg" width="485" height="385" viewBox="0 0 485 385"><g><g><g><g><path fill="#f9fbff" d="M457.307 216.602c-6.24-4.82-12.61-9.49-16.36-16.46-19-35.27 20.55-76.53-1.4-114.75-11.14-19.39-33.11-33.58-54.55-25.52-22.85 8.6-44.42 17.58-69 10.47-43-12.46-65.33-70.76-112.17-69.78-38.45.8-81.24 41.3-59 83.33 16.85 31.8 6.32 58.12-32.65 63.6-38.97 5.48-55.73 51.51-44.18 71.28 11.55 19.77 33.69 40.57 12.63 49.34-21.06 8.77-28.43 37.28-26.32 57 2.11 19.72 6.31 27.41 6.31 27.41h404.22s17.05-21.93 19.15-72.36c.92-21.86-3.61-43.27-20.13-58.22-2.09-1.86-4.31-3.61-6.55-5.34z"/></g></g><g><g><path fill="#dee8fb" d="M266.56 385c42.25 0 76.5-3.582 76.5-8s-34.25-8-76.5-8-76.5 3.582-76.5 8 34.25 8 76.5 8z"/></g></g><g><g><path fill="none" stroke="#2e353a" stroke-miterlimit="20" d="M439.43 310.9v0-12.21 0h-13.62v0V275v0h-19.57v0-96.22 0h-18.72v58.16H370.5v0-20.82 0h-22.97v53.85h-9.36v17.23h-22.12v0-6.46 0h6.8v0-3.59 0h-28.08v4.31h3.41v18.67h-14.47v0-35.19 0h-51.05v25.13h-36.6v0-18.67 0h-13.61v20.83h-28.93v0-38.06 0h-11.91v0-12.92 0h-21.28v58.88H99.06v12.92H85.45v39.49h380.36v0-41.64 0h-26.38v0z"/></g><g><path fill="#2e353a" d="M124.1 254h4.6v4.6h-4.6z"/></g><g><path fill="#2e353a" d="M133.68 254h4.6v4.6h-4.6z"/></g><g><path fill="#2e353a" d="M124.1 263.59h4.6v4.6h-4.6z"/></g><g><path fill="#2e353a" d="M133.68 263.59h4.6v4.6h-4.6z"/></g><g><path fill="#2e353a" d="M144.03 263.59h4.6v4.6h-4.6z"/></g><g><path fill="#2e353a" d="M144.03 273.17h4.6v4.6h-4.6z"/></g><g><path fill="#2e353a" d="M144.03 282.76h4.6v4.6h-4.6z"/></g><g><path fill="#2e353a" d="M144.03 292.34h4.6v4.6h-4.6z"/></g><g><path fill="#2e353a" d="M144.03 301.93h4.6v4.6h-4.6z"/></g><g><path fill="#2e353a" d="M144.03 311.52h4.6v4.6h-4.6z"/></g><g><path fill="#2e353a" d="M124.1 273.17h4.6v4.6h-4.6z"/></g><g><path fill="#2e353a" d="M133.68 273.17h4.6v4.6h-4.6z"/></g><g><path fill="#2e353a" d="M124.1 282.76h4.6v4.6h-4.6z"/></g><g><path fill="#2e353a" d="M133.68 282.76h4.6v4.6h-4.6z"/></g><g><path fill="#2e353a" d="M124.1 292.34h4.6v4.6h-4.6z"/></g><g><path fill="#2e353a" d="M133.68 292.34h4.6v4.6h-4.6z"/></g><g><path fill="#2e353a" d="M124.1 301.93h4.6v4.6h-4.6z"/></g><g><path fill="#2e353a" d="M103.01 307.3h4.6v4.6h-4.6z"/></g><g><path fill="#2e353a" d="M169.34 296.94h4.6v4.6h-4.6z"/></g><g><path fill="#2e353a" d="M178.54 296.94h4.6v4.6h-4.6z"/></g><g><path fill="#2e353a" d="M390.58 184.21h4.6v4.6h-4.6z"/></g><g><path fill="#2e353a" d="M396.33 184.21h4.6v4.6h-4.6z"/></g><g><path fill="#2e353a" d="M390.58 193.8h4.6v4.6h-4.6z"/></g><g><path fill="#2e353a" d="M396.33 193.8h4.6v4.6h-4.6z"/></g><g><path fill="#2e353a" d="M390.58 203.39h4.6v4.6h-4.6z"/></g><g><path fill="#2e353a" d="M396.33 203.39h4.6v4.6h-4.6z"/></g><g><path fill="#2e353a" d="M390.58 212.97h4.6v4.6h-4.6z"/></g><g><path fill="#2e353a" d="M396.33 212.97h4.6v4.6h-4.6z"/></g><g><path fill="#2e353a" d="M390.58 222.56h4.6v4.6h-4.6z"/></g><g><path fill="#2e353a" d="M396.33 222.56h4.6v4.6h-4.6z"/></g><g><path fill="#2e353a" d="M390.58 232.14h4.6v4.6h-4.6z"/></g><g><path fill="#2e353a" d="M396.33 232.14h4.6v4.6h-4.6z"/></g><g><path fill="#2e353a" d="M390.58 241.73h4.6v4.6h-4.6z"/></g><g><path fill="#2e353a" d="M396.33 241.73h4.6v4.6h-4.6z"/></g><g><path fill="#2e353a" d="M390.58 251.32h4.6v4.6h-4.6z"/></g><g><path fill="#2e353a" d="M396.33 251.32h4.6v4.6h-4.6z"/></g><g><path fill="#2e353a" d="M390.58 260.9h4.6v4.6h-4.6z"/></g><g><path fill="#2e353a" d="M396.33 260.9h4.6v4.6h-4.6z"/></g><g><path fill="#2e353a" d="M351.47 260.9h4.6v4.6h-4.6z"/></g><g><path fill="#2e353a" d="M361.44 260.9h4.6v4.6h-4.6z"/></g><g><path fill="#2e353a" d="M371.41 260.9h4.6v4.6h-4.6z"/></g><g><path fill="#2e353a" d="M351.47 281.61h4.6v4.6h-4.6z"/></g><g><path fill="#2e353a" d="M361.44 281.61h4.6v4.6h-4.6z"/></g><g><path fill="#2e353a" d="M371.41 281.61h4.6v4.6h-4.6z"/></g><g><path fill="#2e353a" d="M351.47 302.31h4.6v4.6h-4.6z"/></g><g><path fill="#2e353a" d="M361.44 302.31h4.6v4.6h-4.6z"/></g><g><path fill="#2e353a" d="M371.41 302.31h4.6v4.6h-4.6z"/></g><g><path fill="#2e353a" d="M390.58 270.49h4.6v4.6h-4.6z"/></g><g><path fill="#2e353a" d="M396.33 270.49h4.6v4.6h-4.6z"/></g><g><path fill="#2e353a" d="M390.58 280.07h4.6v4.6h-4.6z"/></g><g><path fill="#2e353a" d="M396.33 280.07h4.6v4.6h-4.6z"/></g><g><path fill="#2e353a" d="M390.58 289.66h4.6v4.6h-4.6z"/></g><g><path fill="#2e353a" d="M396.33 289.66h4.6v4.6h-4.6z"/></g><g><path fill="#2e353a" d="M405.92 280.07h4.6v4.6h-4.6z"/></g><g><path fill="#2e353a" d="M416.66 280.07h4.6v4.6h-4.6z"/></g><g><path fill="#2e353a" d="M405.92 289.28h4.6v4.6h-4.6z"/></g><g><path fill="#2e353a" d="M416.66 289.28h4.6v4.6h-4.6z"/></g><g><path fill="#2e353a" d="M405.92 298.48h4.6v4.6h-4.6z"/></g><g><path fill="#2e353a" d="M416.66 298.48h4.6v4.6h-4.6z"/></g><g><path fill="#2e353a" d="M405.92 307.68h4.6v4.6h-4.6z"/></g><g><path fill="#2e353a" d="M416.66 307.68h4.6v4.6h-4.6z"/></g><g><path fill="#2e353a" d="M390.58 299.25h4.6v4.6h-4.6z"/></g><g><path fill="#2e353a" d="M396.33 299.25h4.6v4.6h-4.6z"/></g><g><path fill="#2e353a" d="M390.58 308.83h4.6v4.6h-4.6z"/></g><g><path fill="#2e353a" d="M396.33 308.83h4.6v4.6h-4.6z"/></g><g><path fill="#2e353a" d="M133.68 301.93h4.6v4.6h-4.6z"/></g><g><path fill="#2e353a" d="M124.1 311.52h4.6v4.6h-4.6z"/></g><g><path fill="#2e353a" d="M133.68 311.52h4.6v4.6h-4.6z"/></g><g><path fill="#2e353a" d="M124.1 321.1h4.6v4.6h-4.6z"/></g><g><path fill="#2e353a" d="M133.68 321.1h4.6v4.6h-4.6z"/></g><g><path fill="#2e353a" d="M124.1 330.69h4.6v4.6h-4.6z"/></g><g><path fill="#2e353a" d="M133.68 330.69h4.6v4.6h-4.6z"/></g><g><path fill="none" stroke="#2e353a" stroke-miterlimit="20" d="M380.61 333.57v18.97h-38.34v0-37.72 0h38.34v15.37"/></g><g><path fill="none" stroke="#2e353a" stroke-miterlimit="20" d="M451.17 346.81v5.73h-38.35v0-19.94 0h7.92v0"/></g><g><path fill="none" stroke="#2e353a" stroke-miterlimit="20" d="M425.41 332.6v0h25.76v11.1"/></g><g><path fill="none" stroke="#2e353a" stroke-miterlimit="20" d="M168.56 332.6v0h27.24v19.94h-38.35v0-19.94 0h7.47v0"/></g><g><path fill="none" stroke="#2e353a" stroke-miterlimit="20" d="M108.57 332.6v0h3.64v19.94H98.02v0-19.94 0h7.69v0"/></g><g><path fill="none" stroke="#2e353a" stroke-miterlimit="20" d="M358.37 314.82v0h6.13v37.72h-6.13v0z"/></g><g><path fill="none" stroke="#2e353a" stroke-miterlimit="20" d="M316.85 319.95v0h-6.02v0-9.97 0h20.32v9.97h-8.84v0"/></g><g><path fill="none" stroke="#2e353a" stroke-miterlimit="20" d="M185.83 303.08v0h23.39v8.44h-23.39v0z"/></g><g><path fill="none" stroke="#2e353a" stroke-miterlimit="20" d="M196.95 303.08v0h2.3v49.46h-2.3v0z"/></g></g><g><g><path fill="#2e353a" d="M208 131.63c0-34.794 28.206-63 63-63s63 28.206 63 63a63 63 0 0 1-63 63c-34.794 0-63-28.206-63-63zm63-129c-71.245 0-129 57.755-129 129 0 64.35 119 216 119 216h10s129-144.76 129-216c0-71.245-57.755-129-129-129z"/><path fill="none" stroke="#2e353a" stroke-linecap="round" stroke-linejoin="round" stroke-miterlimit="20" d="M208 131.63c0-34.794 28.206-63 63-63s63 28.206 63 63a63 63 0 0 1-63 63c-34.794 0-63-28.206-63-63zm63-129c-71.245 0-129 57.755-129 129 0 64.35 119 216 119 216h10s129-144.76 129-216c0-71.245-57.755-129-129-129z"/></g><g><path fill="#f77d0e" d="M198 131.63c0-34.794 28.206-63 63-63s63 28.206 63 63-28.206 63-63 63-63-28.206-63-63zm63-129c-71.245 0-129 57.755-129 129 0 71.24 129 216 129 216s129-144.76 129-216c0-71.245-57.755-129-129-129z"/><path fill="none" stroke="#2e353a" stroke-linecap="round" stroke-linejoin="round" stroke-miterlimit="20" d="M198 131.63c0-34.794 28.206-63 63-63s63 28.206 63 63-28.206 63-63 63-63-28.206-63-63zm63-129c-71.245 0-129 57.755-129 129 0 71.24 129 216 129 216s129-144.76 129-216c0-71.245-57.755-129-129-129z"/></g></g><g><g><path fill="#fff" d="M220.43 210.25L234.68 186l.25 8.75-8.5 17-6-1.5z"/><path fill="none" stroke="#2e353a" stroke-linecap="round" stroke-linejoin="round" stroke-miterlimit="20" d="M220.43 210.25v0L234.68 186v0l.25 8.75v0l-8.5 17v0l-6-1.5v0z"/></g><g><path fill="#fff" d="M234.933 292.17a25.86 25.86 0 0 1-5.36 11.51c-4.55 5.63-10.71 16.61-11 27.05-.29 10.44-12.33 39.33-11 41.47 1.33 2.14 13.12 5.09 17.67 5.09 2.39 0 6.35.92 7.93-1.41.09-.13-9.35-5-10-5.47-.65-.47-5.91-4.17-5.74-4.64 0 0 12.34-33.44 18.5-42 6.16-8.56 10.71-15 12.58-20.35 1.87-5.35 3.55-10.42 3.55-10.42z"/></g><g><path fill="#ffb76f" d="M231.58 300.82a66.29 66.29 0 0 0 16.2 4.61c.3-.69.57-1.36.8-2 1.88-5.36 3.48-10.45 3.48-10.45l-17.13-.8a25.16 25.16 0 0 1-3.35 8.64z"/></g><g><path fill="none" stroke="#2e353a" stroke-linecap="round" stroke-linejoin="round" stroke-miterlimit="20" d="M234.933 292.17a25.86 25.86 0 0 1-5.36 11.51c-4.55 5.63-10.71 16.61-11 27.05-.29 10.44-12.33 39.33-11 41.47 1.33 2.14 13.12 5.09 17.67 5.09 2.39 0 6.35.92 7.93-1.41.09-.13-9.35-5-10-5.47-.65-.47-5.91-4.17-5.74-4.64 0 0 12.34-33.44 18.5-42 6.16-8.56 10.71-15 12.58-20.35 1.87-5.35 3.55-10.42 3.55-10.42v0z"/></g><g><path fill="#fff" d="M273.68 294.36a25.87 25.87 0 0 1 5 11.68c1.13 7.15 5.17 19.07 12.76 26.26 7.59 7.19 21 37.43 23.48 37.86 2.91.52 7.35-3.2 9.51-4.71 2.75-1.92 9.06-5.84 10-9.23 1.13-3.9-2.88-1.94-4.57-.68-2.19 1.63-13.12 3-13.12 3S300.13 325 297.89 314.7c-2.24-10.3-4-18-6.71-23s-5.43-9.57-5.43-9.57z"/></g><g><path fill="#ffb76f" d="M291.18 291.73c-2.73-5-5.44-9.57-5.44-9.57l-12.06 12.2a25.34 25.34 0 0 1 4.39 9 99.459 99.459 0 0 0 16-4.25 38.92 38.92 0 0 0-2.89-7.38z"/></g><g><path fill="none" stroke="#2e353a" stroke-linecap="round" stroke-linejoin="round" stroke-miterlimit="20" d="M273.68 294.36a25.87 25.87 0 0 1 5 11.68c1.13 7.15 5.17 19.07 12.76 26.26 7.59 7.19 21 37.43 23.48 37.86 2.91.52 7.35-3.2 9.51-4.71 2.75-1.92 9.06-5.84 10-9.23 1.13-3.9-2.88-1.94-4.57-.68-2.19 1.63-13.12 3-13.12 3v0S300.13 325 297.89 314.7c-2.24-10.3-4-18-6.71-23s-5.43-9.57-5.43-9.57v0z"/></g><g><path fill="#fff" d="M334.44 356.22c1.13-3.9-2.88-1.94-4.57-.68-2.19 1.63-13.12 3-13.12 3s-1.18-2.6-2.9-6.52a29 29 0 0 1-7 4.09c3.75 7.39 6.86 13.88 8.08 14.09 2.91.52 7.35-3.2 9.51-4.71 2.72-1.96 9.03-5.88 10-9.27z"/><path fill="none" stroke="#2e353a" stroke-linecap="round" stroke-linejoin="round" stroke-miterlimit="20" d="M334.44 356.22c1.13-3.9-2.88-1.94-4.57-.68-2.19 1.63-13.12 3-13.12 3v0s-1.18-2.6-2.9-6.52a29 29 0 0 1-7 4.09c3.75 7.39 6.86 13.88 8.08 14.09 2.91.52 7.35-3.2 9.51-4.71 2.72-1.96 9.03-5.88 10-9.27z"/></g><g><path fill="#fff" d="M235.29 238.73L226 290a70.74 70.74 0 0 0 13.31 6.66c7.32 2.66 20 2 20 2l5-24.95 2 23.29s9.65 1 16.64-.33 18.3-8.66 18.3-8.66l-22-40.92-5-9.65-38.93-1z"/></g><g><path fill="#ffb76f" d="M264.63 268.16c3.38-4.23 4.6-29.1 4.6-29.1l-33.94-2.57v2.24L231.05 262c9.5 3.06 30.95 9.44 33.58 6.16z"/></g><g><path fill="none" stroke="#2e353a" stroke-miterlimit="20" d="M235.29 238.73v0L226 290a70.74 70.74 0 0 0 13.31 6.66c7.32 2.66 20 2 20 2v0l5-24.95v0l2 23.29v0s9.65 1 16.64-.33 18.3-8.66 18.3-8.66v0l-22-40.92v0l-5-9.65v0l-38.93-1v0z"/></g><g><path fill="#2e353a" d="M292.68 198.25l19 5 7.75-23-29-5.5-6.5 21.25 8.75 2.25z"/><path fill="none" stroke="#2e353a" stroke-linecap="round" stroke-linejoin="round" stroke-miterlimit="20" d="M292.68 198.25v0l19 5v0l7.75-23v0l-29-5.5v0l-6.5 21.25v0l8.75 2.25v0z"/></g><g><path fill="none" stroke="#fff" stroke-linecap="round" stroke-linejoin="round" stroke-miterlimit="20" d="M296.39 187.61l12.08 2.95"/></g><g><path fill="none" stroke="#fff" stroke-linecap="round" stroke-linejoin="round" stroke-miterlimit="20" d="M295.22 190.56l12.08 2.95"/></g><g><path fill="#fff" d="M272.93 199.5s6-3.25 8-6 4.25-7.5 5.25-8.25 6-3.25 7-4 2.5.75.75 2.25-5.5 4.75-5.5 4.75 1 4.5-.25 6a15.13 15.13 0 0 1-2.25 2.25l6.75 1.75s-4.5 3.25-6.5 3.75a46 46 0 0 1-6 .75l-8.25 6.5z"/><path fill="none" stroke="#2e353a" stroke-linecap="round" stroke-linejoin="round" stroke-miterlimit="20" d="M272.93 199.5v0s6-3.25 8-6 4.25-7.5 5.25-8.25 6-3.25 7-4 2.5.75.75 2.25-5.5 4.75-5.5 4.75v0s1 4.5-.25 6a15.13 15.13 0 0 1-2.25 2.25l6.75 1.75v0s-4.5 3.25-6.5 3.75a46 46 0 0 1-6 .75l-8.25 6.5v0z"/></g><g><path fill="#2e353a" d="M245.93 144.89s-8 11.65-10 25.29c-2 13.64-.66 68.55-.66 68.55s10.64 4.32 19 4.32 20.63.67 21-4c.37-4.67-2.33-58.23-6-71.21a95.83 95.83 0 0 0-11-24s-8.34-5.61-12.34 1.05z"/><path fill="none" stroke="#2e353a" stroke-linecap="round" stroke-linejoin="round" stroke-miterlimit="20" d="M245.93 144.89s-8 11.65-10 25.29c-2 13.64-.66 68.55-.66 68.55v0s10.64 4.32 19 4.32 20.63.67 21-4c.37-4.67-2.33-58.23-6-71.21a95.83 95.83 0 0 0-11-24s-8.34-5.61-12.34 1.05z"/></g><g><path fill="#fff" d="M264.18 155l-10.75 68.5 9.5 3.5 4.25-65.75-3-6.25z"/><path fill="none" stroke="#2e353a" stroke-linecap="round" stroke-linejoin="round" stroke-miterlimit="20" d="M264.18 155v0l-10.75 68.5v0l9.5 3.5v0l4.25-65.75v0l-3-6.25v0z"/></g><g><path fill="#fff" d="M240.38 118.35s1.33 6.32 4 9.65 7.65 5 7.65 5l-1.43 7.57 9.32 5.66 3.42-16.23 1-19.3s-23.34 3.99-23.96 7.65z"/><path fill="none" stroke="#2e353a" stroke-linecap="round" stroke-linejoin="round" stroke-miterlimit="20" d="M240.38 118.35s1.33 6.32 4 9.65 7.65 5 7.65 5v0l-1.43 7.57v0l9.32 5.66v0l3.42-16.23v0l1-19.3v0s-23.34 3.99-23.96 7.65z"/></g><g><path fill="#2e353a" d="M240.38 118.35s1.33 6.32 4 9.65 7.65 5 7.65 5 8-2.33 8.65-7.65c.48-3.84-.24-10.43-.69-13.82-6.79 1.34-19.13 4.17-19.61 6.82z"/><path fill="none" stroke="#2e353a" stroke-linecap="round" stroke-linejoin="round" stroke-miterlimit="20" d="M240.38 118.35s1.33 6.32 4 9.65 7.65 5 7.65 5v0s8-2.33 8.65-7.65c.48-3.84-.24-10.43-.69-13.82-6.79 1.34-19.13 4.17-19.61 6.82z"/></g><g><path fill="#fff" d="M254.002 120s-3.33-4-5.32-2.33c-1.99 1.67-1.34 6.33 1 8.66s5.33.33 5.33.33 1.33 4.32 3.66 6.32 10.31 3.33 13 1.33c2.69-2 1.66-9.32 1.66-9.32s4.66-2.33 4.33-4c-.33-1.67-3.67-3-3.67-4.32a18.49 18.49 0 0 0-.33-3V111l-15.3 3.33s-2.01 7.67-4.36 5.67z"/></g><g opacity=".5"><g opacity=".5"><path fill="#ffb76f" d="M258.35 114.36a20.36 20.36 0 0 1-1.86 4.61c6-.27 12.41-.65 18.15-1.15a1.81 1.81 0 0 1-.66-1.13 18.49 18.49 0 0 0-.33-3V111z"/></g></g><g><path fill="none" stroke="#2e353a" stroke-linecap="round" stroke-linejoin="round" stroke-miterlimit="20" d="M254.002 120s-3.33-4-5.32-2.33c-1.99 1.67-1.34 6.33 1 8.66s5.33.33 5.33.33v0s1.33 4.32 3.66 6.32 10.31 3.33 13 1.33c2.69-2 1.66-9.32 1.66-9.32v0s4.66-2.33 4.33-4c-.33-1.67-3.67-3-3.67-4.32a18.49 18.49 0 0 0-.33-3V111v0l-15.3 3.33v0s-2.01 7.67-4.36 5.67z"/></g><g><path fill="#fff" d="M240.38 118.35l33.27-7.35s-4.66-16.31-10.31-17.64c-5.65-1.33-16.64-2-22.63 4-5.99 6-.33 20.99-.33 20.99z"/><path fill="none" stroke="#2e353a" stroke-linecap="round" stroke-linejoin="round" stroke-miterlimit="20" d="M240.38 118.35v0l33.27-7.35v0s-4.66-16.31-10.31-17.64c-5.65-1.33-16.64-2-22.63 4-5.99 6-.33 20.99-.33 20.99z"/></g><g><path fill="#2e353a" d="M262.67 113.687a97.07 97.07 0 0 0 13.31 2c6 .33 19.63-5 16.31-5.33-3.32-.33-18.64.67-18.64.67z"/><path fill="none" stroke="#2e353a" stroke-linecap="round" stroke-linejoin="round" stroke-miterlimit="20" d="M262.67 113.687a97.07 97.07 0 0 0 13.31 2c6 .33 19.63-5 16.31-5.33-3.32-.33-18.64.67-18.64.67v0z"/></g><g><path fill="#fff" d="M247.27 137.9l-3 6.66 14.98 9.31 2.99-9.31-14.97-6.66z"/><path fill="none" stroke="#2e353a" stroke-linecap="round" stroke-linejoin="round" stroke-miterlimit="20" d="M247.27 137.9v0l-3 6.66v0l14.98 9.31v0l2.99-9.31v0l-14.97-6.66v0z"/></g><g><path fill="#fff" d="M216.43 207.5l53.25 13.75-5.53 38.94a4.56 4.56 0 0 1-5.67 3.77l-48.41-12.58a3.61 3.61 0 0 1-2.62-4.29z"/><path fill="none" stroke="#2e353a" stroke-linecap="round" stroke-linejoin="round" stroke-miterlimit="20" d="M216.43 207.5v0l53.25 13.75v0l-5.53 38.94a4.56 4.56 0 0 1-5.67 3.77l-48.41-12.58a3.61 3.61 0 0 1-2.62-4.29z"/></g><g><path fill="none" stroke="#2e353a" stroke-linecap="round" stroke-linejoin="round" stroke-miterlimit="20" d="M216.43 207.5v0S229 238 236.7 242c7.7 4 33-20.72 33-20.72v0"/></g><g><path fill="#fff" d="M226.997 194.14s-3.33 7.32-2.33 10c1 2.68 42.26 17.64 42.26 17.64s.33 5.65 1.33 7a20.57 20.57 0 0 1 2 4.66s-2 4.66-1 5.66 4-4.66 4-6.32c0-1.66.33-10.65-.66-13-.99-2.35-29.29-19.63-29.29-19.63z"/><path fill="none" stroke="#2e353a" stroke-linecap="round" stroke-linejoin="round" stroke-miterlimit="20" d="M226.997 194.14v0s-3.33 7.32-2.33 10c1 2.68 42.26 17.64 42.26 17.64v0s.33 5.65 1.33 7a20.57 20.57 0 0 1 2 4.66s-2 4.66-1 5.66 4-4.66 4-6.32c0-1.66.33-10.65-.66-13-.99-2.35-29.29-19.63-29.29-19.63v0z"/></g><g><path fill="#2e353a" d="M245.27 154.21l-19.3 40.92 17.3 5 13.98-32.61"/><path fill="none" stroke="#2e353a" stroke-linecap="round" stroke-linejoin="round" stroke-miterlimit="20" d="M245.27 154.21v0l-19.3 40.92v0l17.3 5v0l13.98-32.61v0"/></g><g><path fill="none" stroke="#fff" stroke-linecap="round" stroke-linejoin="round" stroke-miterlimit="20" d="M243.27 200.13l12.74-28.57"/></g><g><path fill="none" stroke="#fff" stroke-linecap="round" stroke-linejoin="round" stroke-miterlimit="20" d="M251.64 182.05l6.41-6.41"/></g><g><path fill="none" stroke="#2e353a" stroke-linecap="round" stroke-linejoin="round" stroke-miterlimit="20" d="M232.64 288.93a48.92 48.92 0 0 0 25.94 5.37"/></g><g><path fill="none" stroke="#2e353a" stroke-linecap="round" stroke-linejoin="round" stroke-miterlimit="20" d="M228.3 286.31s.77.58 2.2 1.44"/></g><g><path fill="none" stroke="#2e353a" stroke-linecap="round" stroke-linejoin="round" stroke-miterlimit="20" d="M293.16 286.58a39.82 39.82 0 0 0 3.69-2.27"/></g><g><path fill="none" stroke="#2e353a" stroke-linecap="round" stroke-linejoin="round" stroke-miterlimit="20" d="M267.56 293a58.21 58.21 0 0 0 22.66-4.92"/></g><g><path fill="none" stroke="#2e353a" stroke-linecap="round" stroke-linejoin="round" stroke-miterlimit="20" d="M264.24 273.67l7.18-12.43"/></g><g><path fill="none" stroke="#2e353a" stroke-linecap="round" stroke-linejoin="round" stroke-miterlimit="20" d="M264.63 273.02l11.97-13.57"/></g><g><path fill="none" stroke="#2e353a" stroke-linecap="round" stroke-linejoin="round" stroke-miterlimit="20" d="M234.1 267.63v0l-1 7.38a30.55 30.55 0 0 0 8 4c4.79 1.6 15 1.4 15 1.4v0l1.4-7v0s-17.76-2-21.35-5"/></g><g><path fill="none" stroke="#2e353a" stroke-linecap="round" stroke-linejoin="round" stroke-miterlimit="20" d="M232.914 277.8v0s-2.8 6.79-1 8.39c1.8 1.6 14.56 6.38 18 6 3.44-.38 5.38-8.78 5.38-8.78v0"/></g><g><path fill="#2e353a" d="M334.44 356.223c1.13-3.9-2.88-1.94-4.57-.68-2.19 1.63-13.12 3-13.12 3l-1.33-3a23.1 23.1 0 0 1-6.78 4.14c2.91 5.78 5.24 10.32 6.26 10.49 2.91.52 7.35-3.2 9.51-4.71 2.75-1.93 9.06-5.85 10.03-9.24z"/><path fill="none" stroke="#2e353a" stroke-linecap="round" stroke-linejoin="round" stroke-miterlimit="20" d="M334.44 356.223c1.13-3.9-2.88-1.94-4.57-.68-2.19 1.63-13.12 3-13.12 3v0l-1.33-3a23.1 23.1 0 0 1-6.78 4.14c2.91 5.78 5.24 10.32 6.26 10.49 2.91.52 7.35-3.2 9.51-4.71 2.75-1.93 9.06-5.85 10.03-9.24z"/></g><g><path fill="#fff" d="M326.13 361.68c-4.5 2.34-9.75 5.18-12.78 6.77.66 1 1.19 1.65 1.55 1.71 2.91.52 7.35-3.2 9.51-4.71 2.75-1.92 9.06-5.84 10-9.23.48-1.64 0-2.24-.75-2.29-1.66 2.78-4.24 6.07-7.53 7.75z"/><path fill="none" stroke="#2e353a" stroke-linecap="round" stroke-linejoin="round" stroke-miterlimit="20" d="M326.13 361.68c-4.5 2.34-9.75 5.18-12.78 6.77.66 1 1.19 1.65 1.55 1.71 2.91.52 7.35-3.2 9.51-4.71 2.75-1.92 9.06-5.84 10-9.23.48-1.64 0-2.24-.75-2.29-1.66 2.78-4.24 6.07-7.53 7.75z"/></g><g><path fill="#fff" d="M223.243 370.41c-.48-.36-5.91-4.17-5.74-4.64 0 0 1.09-2.93 2.76-7.27a31.2 31.2 0 0 1-8.32-2.24c-2.66 8.08-5 14.94-4.34 15.94 1.33 2.14 13.12 5.09 17.67 5.09 2.39 0 6.35.92 7.93-1.41.09-.13-9.35-5.02-9.96-5.47z"/><path fill="none" stroke="#2e353a" stroke-linecap="round" stroke-linejoin="round" stroke-miterlimit="20" d="M223.243 370.41c-.48-.36-5.91-4.17-5.74-4.64 0 0 1.09-2.93 2.76-7.27a31.2 31.2 0 0 1-8.32-2.24c-2.66 8.08-5 14.94-4.34 15.94 1.33 2.14 13.12 5.09 17.67 5.09 2.39 0 6.35.92 7.93-1.41.09-.13-9.35-5.02-9.96-5.47z"/></g><g><path fill="#2e353a" d="M233.205 375.88c.09-.13-9.35-5-10-5.47-.65-.47-5.91-4.17-5.74-4.64l1.06-2.83a42.59 42.59 0 0 1-8.06-2.3c-2 6.06-3.41 10.74-2.9 11.56 1.33 2.14 13.12 5.09 17.67 5.09 2.43 0 6.39.92 7.97-1.41z"/><path fill="none" stroke="#2e353a" stroke-linecap="round" stroke-linejoin="round" stroke-miterlimit="20" d="M233.205 375.88c.09-.13-9.35-5-10-5.47-.65-.47-5.91-4.17-5.74-4.64l1.06-2.83a42.59 42.59 0 0 1-8.06-2.3c-2 6.06-3.41 10.74-2.9 11.56 1.33 2.14 13.12 5.09 17.67 5.09 2.43 0 6.39.92 7.97-1.41z"/></g><g><path fill="#fff" d="M223.84 375.08c-6.13-.37-12.94-2.89-16.27-4.27a2.46 2.46 0 0 0 0 1.39c1.33 2.14 13.12 5.09 17.67 5.09 2.39 0 6.35.92 7.93-1.41a9.82 9.82 0 0 0-1.41-.83 57.05 57.05 0 0 1-7.92.03z"/><path fill="none" stroke="#2e353a" stroke-linecap="round" stroke-linejoin="round" stroke-miterlimit="20" d="M223.84 375.08c-6.13-.37-12.94-2.89-16.27-4.27a2.46 2.46 0 0 0 0 1.39c1.33 2.14 13.12 5.09 17.67 5.09 2.39 0 6.35.92 7.93-1.41a9.82 9.82 0 0 0-1.41-.83 57.05 57.05 0 0 1-7.92.03z"/></g><g><path fill="none" stroke="#000" stroke-linecap="round" stroke-linejoin="round" stroke-miterlimit="20" d="M260.94 113.72l-5.34-12.69"/></g><g><path fill="none" stroke="#000" stroke-linecap="round" stroke-linejoin="round" stroke-miterlimit="20" d="M254.925 98.7s-1.67-3.68-.33-5.35"/></g></g><g><g><path fill="#fff" d="M6.149 37.412c.882 9.244 1.537 18.503 1.444 27.787 6.302-1.708 13.075-2.004 19.55-2.38 7.189-.417 14.384-.599 21.585-.668 14.366-.14 28.755.073 43.107-.72 26.503-1.463 52.999-4.045 79.557-4.112.877-.002 1.485.405 1.841.972 3.827 3.023 6.196 9.356 8.266 13.484 2.247 4.481 4.328 9.052 6.37 13.633 1.234-6.51 1.048-13.613 1.104-20.135.06-7.164-.085-14.324-.203-21.486-.114-7.11-.241-14.235.049-21.344.219-5.365.262-11.114 1.247-16.51-6.602 1.184-13.784.911-20.428 1.11-8.101.242-16.207.268-24.311.106-16.201-.324-32.379-1.242-48.563-2.03-16.126-.787-32.274-1.45-48.423-1.142-8.054.156-16.104.512-24.133 1.198C17.096 5.782 10.042 6.97 2.94 7.6c.841 4.535 1.002 9.25 1.496 13.826.575 5.328 1.204 10.652 1.713 15.987"/></g><g><path fill="#fff" d="M6.149 37.412c.882 9.244 1.537 18.503 1.444 27.787 6.302-1.708 13.075-2.004 19.55-2.38 7.189-.417 14.384-.599 21.585-.668 14.366-.14 28.755.073 43.107-.72 26.503-1.463 52.999-4.045 79.557-4.112.877-.002 1.485.405 1.841.972 3.827 3.023 6.196 9.356 8.266 13.484 2.247 4.481 4.328 9.052 6.37 13.633 1.234-6.51 1.048-13.613 1.104-20.135.06-7.164-.085-14.324-.203-21.486-.114-7.11-.241-14.235.049-21.344.219-5.365.262-11.114 1.247-16.51-6.602 1.184-13.784.911-20.428 1.11-8.101.242-16.207.268-24.311.106-16.201-.324-32.379-1.242-48.563-2.03-16.126-.787-32.274-1.45-48.423-1.142-8.054.156-16.104.512-24.133 1.198C17.096 5.782 10.042 6.97 2.94 7.6c.841 4.535 1.002 9.25 1.496 13.826.575 5.328 1.204 10.652 1.713 15.987"/></g><g><path d="M1.054 21.429C.621 16.674-.142 11.753.165 6.976c-.38-.794-.115-1.963.91-2.24 7.47-2.013 15.448-2.682 23.137-3.371C32.236.647 40.292.24 48.345.088 64.042-.21 79.74.292 95.421.954c16.182.683 32.363 1.533 48.561 1.75 8.102.109 16.21.097 24.31-.198a401.08 401.08 0 0 0 12.156-.611c3.274-.218 6.515-.008 9.75-.701.651-.138 1.211-.016 1.668.253.783-.176 1.715.295 1.701 1.292-.092 7.003-1.223 14.003-1.342 21.034-.12 7.12-.05 14.238.087 21.359.138 7.16.312 14.325.207 21.488-.106 7.134-1.064 14.313-1.018 21.424.01 1.473-1.148 2.083-2.244 1.972-.56 1.58-2.838 2.388-3.746.489-2.626-5.493-5.098-11.057-7.75-16.538-1.396-2.884-2.813-5.77-4.424-8.541-.689-1.186-1.517-2.331-2.223-3.53-26.478.03-52.845 2.2-79.275 3.469-14.36.69-28.736.473-43.107.59-7.196.058-14.399.172-21.585.542-6.508.336-13.068 1.249-19.588 1.198-.002.079 0 .158-.003.237-.067 2.464-3.91 2.467-3.828 0 .34-10.192-.279-20.37-1.2-30.516-.482-5.33-.99-10.658-1.474-15.987zm1.89-13.826c.841 4.535 1.002 9.25 1.496 13.826.575 5.328 1.204 10.652 1.713 15.987.882 9.244 1.537 18.503 1.444 27.787 6.302-1.708 13.075-2.004 19.55-2.38 7.19-.417 14.384-.6 21.585-.668 14.366-.14 28.755.073 43.107-.72 26.503-1.463 53-4.045 79.557-4.112.877-.002 1.485.405 1.841.972 3.827 3.023 6.196 9.356 8.266 13.484 2.247 4.48 4.328 9.052 6.37 13.633 1.234-6.511 1.048-13.613 1.104-20.135.06-7.164-.085-14.324-.203-21.486-.114-7.111-.24-14.235.05-21.344.218-5.365.261-11.114 1.246-16.51-6.602 1.184-13.784.91-20.428 1.11-8.1.242-16.207.268-24.31.106-16.202-.324-32.38-1.242-48.564-2.031-16.126-.786-32.274-1.45-48.423-1.141-8.054.156-16.104.512-24.133 1.198-7.112.607-14.166 1.794-21.268 2.424z"/></g><g><path d="M44.576 38.534c-1.946-4.13-7.866-4.7-9.618-8.891-.862-2.063-1.229-4.33-1.225-6.553.01-4.432 3.692-4.416 7.152-3.942 1.085.149 1.948-1.306.806-1.914-9.865-5.25-13.122 4.818-10.567 12.744 1.468 4.555 5.547 6.074 8.944 8.929 2.894 2.433 2.008 6.805-1.634 7.65-1.4.328-3.359-.182-4.372 1.11-.695.886-.514 2.077.351 2.576l-.018.015c.081.037.162.065.243.099.03.012.056.026.086.035 7.161 2.934 12.826-5.547 9.852-11.858"/></g><g><path d="M57.31 45.002c-1.605-2.769-2.416-5.997-3.161-9.082-1.281-5.31-1.68-10.765-2.888-16.083-.29-1.278-2.235-.965-2.24.302-.028 5.595.722 11.215 1.783 16.704.677 3.5 2.082 11.135 6.117 12.171.43.11 1.043-.138 1.114-.634.224-1.569.1-1.953-.725-3.378"/></g><g><path d="M87.816 46.491c-.014-.015-.404-3.437-.474-4.115-.287-2.733-.334-5.497-.442-8.24-.209-5.37-.06-11.37-2.018-16.466-.58-1.513-2.3-1.699-3.256-.425-2.165 2.888-4.44 5.773-6.17 8.944-1.186-3.149-2.794-6.052-4.855-8.885-.92-1.266-3.117-.94-3.1.84.051 5.883.396 11.763.835 17.63.247 3.305.027 9.151 2.475 11.723.285.3.7.107.836-.22 1.452-3.518.035-9.149-.213-12.836a275.402 275.402 0 0 1-.498-10.12 32.218 32.218 0 0 1 2.568 7.28c.39 1.744 2.828 1.542 3.32 0 1.133-3.553 3.337-6.65 5.617-9.624 1.263 5.657.841 11.963 1.135 17.586.1 1.924.01 10.18 4.053 8.376.581-.258.537-1.042.187-1.448"/></g><g><path d="M108.696 22.747c1.004 5.576-4.511 10.547-9.688 12.78.79 4.864 1.463 9.743 1.87 14.608.187 2.244-3.163 2.14-3.438 0-.575-4.484-1.255-9-1.86-13.526-.005 0-.01.002-.014.003-1.59.294-2.868-2.047-1.18-2.8.252-.111.517-.227.793-.345-.524-4.255-.938-8.515-1.086-12.767-.26.076-.501.15-.718.219-.866.274-1.478-1.117-.626-1.485 4.838-2.091 14.582-4.27 15.947 3.313zm-2.862.78c-.167-4.62-5.584-4.268-9.565-3.385.722 3.935 1.462 7.898 2.15 11.876 3.71-1.783 7.566-4.32 7.415-8.491z"/></g><g><path d="M129.782 46.517c-1.681-1.33-2.396-.881-4.651-.6-2.691.339-5.425.38-8.142.397.145-9.406 1.256-19.5-1.5-28.543-.435-1.427-2.862-1.231-2.701.365 1.016 10.06.674 19.91.565 30-.011.992.832 1.805 1.81 1.81 3.62.02 12.8 1.482 14.756-2.368.163-.321.18-.811-.137-1.061"/></g><g><path d="M149.911 47.423c.805-.584 1.113-2.05 0-2.563a.368.368 0 0 0-.093-.039c-.407-.453-.978-.8-1.605-.744-3.689.33-7.393.686-11.097.838-.312-3.485-.488-6.979-.628-10.474.35-.002.7-.008 1.05-.008 1.877 0 3.746-.285 5.624-.307 2.558-.03 2.561-4 0-3.969-1.92.024-3.793.297-5.678.647-.334.062-.724.132-1.125.225l-.084-2.397c-.077-2.203.623-7.218-.603-9.856 2.18.214 4.381.245 6.567.275 2.558.034 5.792.87 7.73-1.103a1.154 1.154 0 0 0 0-1.613c-1.756-1.789-4.233-1.15-6.576-1.118-3.204.044-6.446.024-9.618.523-1.078.17-1.312 1.616-.719 2.366-1.769 2.352-.865 8.121-.869 10.526-.015 6.17.213 12.37.822 18.51.115 1.158.892 2.164 2.153 2.153 4.361-.04 8.715-.47 13.051-.904.701-.07 1.551-.347 1.862-1.069-.274.185-.329.22-.164.101"/></g></g></g></g></svg>