<?xml version="1.0" encoding="UTF-8"?>
<svg width="229px" height="202px" viewBox="0 0 229 202" version="1.1" xmlns="http://www.w3.org/2000/svg" xmlns:xlink="http://www.w3.org/1999/xlink">
    <title>Catalogue-bro</title>
    <g id="Page-1" stroke="none" stroke-width="1" fill="none" fill-rule="evenodd">
        <g id="shopping-on-splitchek-copy" transform="translate(-745.000000, -3921.000000)">
            <g id="definitions" transform="translate(150.000000, 3790.000000)">
                <g id="Catalogue-bro" transform="translate(595.000000, 132.000000)">
                    <g id="freepik--background-simple--inject-2" transform="translate(0.000000, 10.152284)" fill-rule="nonzero">
                        <path d="M211.243655,33.6497462 C211.243655,33.6497462 196.756345,5.02538071 164.766497,0.781725888 C132.77665,-3.46192893 110.451777,17.213198 86.9086294,27.8172589 C74.5786802,33.3705584 60.5126904,31.213198 47.4162437,33.9086294 C5.58375635,42.4923858 -10.1928934,96.3299492 7.23857868,126.949239 C22.3248731,153.456853 48.8629442,167.238579 89.319797,170.416244 C129.77665,173.593909 158.126904,177.309645 194.345178,151.335025 C230.563452,125.360406 228.142132,71.2893401 211.243655,33.6497462 Z" id="Path" fill="#FFB76F"></path>
                        <path d="M211.243655,33.6497462 C211.243655,33.6497462 196.756345,5.02538071 164.766497,0.781725888 C132.77665,-3.46192893 110.451777,17.213198 86.9086294,27.8172589 C74.5786802,33.3705584 60.5126904,31.213198 47.4162437,33.9086294 C5.58375635,42.4923858 -10.1928934,96.3299492 7.23857868,126.949239 C22.3248731,153.456853 48.8629442,167.238579 89.319797,170.416244 C129.77665,173.593909 158.126904,177.309645 194.345178,151.335025 C230.563452,125.360406 228.142132,71.2893401 211.243655,33.6497462 Z" id="Path" fill="#F9FBFF"></path>
                    </g>
                    <g id="freepik--Plants--inject-2" transform="translate(184.771574, 122.842640)">
                        <path d="M13.7055838,65.3959391 C13.7055838,65.3959391 -1.81725888,41.715736 0.507614213,36.284264 C2.83248731,30.8527919 10.9847716,40.1624365 10.9847716,40.1624365 C10.9847716,40.1624365 -1.01522843,8.33502538 7.10659898,1.35025381 C15.2284264,-5.63451777 17.9746193,30.071066 17.9746193,30.071066 C17.9746193,30.071066 25.3451777,9.50253807 31.1725888,17.2639594 C37,25.0253807 22.248731,41.3299492 22.248731,41.3299492 C22.248731,41.3299492 32.3401015,41.715736 29.6192893,48.3147208 C26.8984772,54.9137056 19.5279188,61.8984772 19.5279188,61.8984772 L13.7055838,65.3959391 Z" id="Path" fill="#FFB76F" fill-rule="nonzero"></path>
                        <path d="M9.43654822,59.9593909 C9.43654822,59.9593909 0.121827411,46.7614213 4.78172589,44.0456853 C9.44162437,41.3299492 11.7664975,49.4822335 11.7664975,49.4822335 C11.7664975,49.4822335 12.1573604,13.7715736 19.5279188,16.4873096 C26.8984772,19.2030457 24.1878173,40.9390863 24.1878173,40.9390863 C24.1878173,40.9390863 33.5025381,34.7309645 33.1167513,43.6548223 C32.7309645,52.5786802 20.3045685,60.3502538 20.3045685,60.3502538" id="Path" stroke="#263238" stroke-width="0.507614213" stroke-linecap="round" stroke-linejoin="round"></path>
                        <line x1="17.9796954" y1="60.7360406" x2="9.82741117" y2="51.8071066" id="Path" stroke="#263238" stroke-width="0.507614213" stroke-linecap="round" stroke-linejoin="round"></line>
                        <line x1="18.3654822" y1="65.0050761" x2="17.9796954" y2="42.8832487" id="Path" stroke="#263238" stroke-width="0.507614213" stroke-linecap="round" stroke-linejoin="round"></line>
                        <line x1="18.751269" y1="57.6294416" x2="26.1269036" y2="47.928934" id="Path" stroke="#263238" stroke-width="0.507614213" stroke-linecap="round" stroke-linejoin="round"></line>
                        <polygon id="Path" stroke="#263238" stroke-width="0.507614213" fill="#263238" fill-rule="nonzero" stroke-linecap="round" stroke-linejoin="round" points="25.3502538 58.4060914 4.78172589 58.4060914 6.83756345 76.6497462 23.2944162 76.6497462"></polygon>
                    </g>
                    <g id="freepik--Device--inject-2" transform="translate(77.664975, 0.000000)">
                        <rect id="Rectangle" stroke="#263238" stroke-width="0.507614213" fill="#FFFFFF" fill-rule="nonzero" stroke-linecap="round" stroke-linejoin="round" x="0.00507614213" y="0.197969543" width="105.507614" height="199.294416" rx="3.89340102"></rect>
                        <path d="M63.2081218,11.1979695 L42.3096447,11.1979695 C41.5218679,11.1979695 40.8832487,10.5593503 40.8832487,9.7715736 L40.8832487,9.7715736 C40.8832487,8.98379688 41.5218679,8.34517766 42.3096447,8.34517766 L63.2081218,8.34517766 C63.9958986,8.34517766 64.6345178,8.98379688 64.6345178,9.7715736 L64.6345178,9.7715736 C64.6345178,10.1498773 64.4842372,10.5126867 64.2167361,10.7801878 C63.9492349,11.047689 63.5864256,11.1979695 63.2081218,11.1979695 Z" id="Path" fill="#263238" fill-rule="nonzero"></path>
                        <path d="M58.4568528,186.390863 C58.4568528,183.24256 55.9046486,180.690355 52.7563452,180.690355 C49.6080418,180.690355 47.0558376,183.24256 47.0558376,186.390863 C47.0558376,189.539166 49.6080418,192.091371 52.7563452,192.091371 C55.9046486,192.091371 58.4568528,189.539166 58.4568528,186.390863 Z" id="Path" stroke="#263238" stroke-width="0.5" fill="#FFFFFF" fill-rule="nonzero" stroke-linecap="round" stroke-linejoin="round"></path>
                        <rect id="Rectangle" fill="#263238" fill-rule="nonzero" x="49.8680203" y="183.502538" width="5.77664975" height="5.77664975"></rect>
                        <rect id="Rectangle" stroke="#263238" stroke-width="0.507614213" fill="#FFB76F" fill-rule="nonzero" stroke-linecap="round" stroke-linejoin="round" x="4.69543147" y="22.0812183" width="96.1269036" height="155.527919"></rect>
                        <rect id="Rectangle" stroke="#263238" stroke-width="0.507614213" fill="#263238" fill-rule="nonzero" stroke-linecap="round" stroke-linejoin="round" x="4.69543147" y="22.0812183" width="96.1269036" height="9.97969543"></rect>
                        <line x1="48.2030457" y1="34.5126904" x2="58.9847716" y2="34.5126904" id="Path" stroke="#263238" stroke-width="0.507614213" stroke-linecap="round" stroke-linejoin="round"></line>
                        <line x1="41.3807107" y1="36.4923858" x2="67.1269036" y2="36.4923858" id="Path" stroke="#263238" stroke-width="0.507614213" stroke-linecap="round" stroke-linejoin="round"></line>
                        <path d="M20.248731,51.7107316 C20.0519792,51.710274 19.8694128,51.6081868 19.766065,51.4407633 C19.6627172,51.2733398 19.6532806,51.0643823 19.7411168,50.8883249 L28.0812183,34.0609137 C28.1753835,33.8667237 28.3730251,33.7441859 28.5888325,33.7461686 C28.8070277,33.7506536 29.0037882,33.8785479 29.0964467,34.0761421 L36.7106599,50.6091371 C36.8386483,50.7948125 36.8447925,51.0385849 36.7263205,51.2304724 C36.6078485,51.4223598 36.3871587,51.526084 36.1638187,51.4948482 C35.9404788,51.4636123 35.7567135,51.3033219 35.6954315,51.0862944 L28.5888325,35.6345178 L20.7817259,51.3705584 C20.6882171,51.5804473 20.478479,51.7142802 20.248731,51.7107316 L20.248731,51.7107316 Z" id="Path" fill="#263238" fill-rule="nonzero"></path>
                        <path d="M17.9086294,49.5329949 L38.5380711,49.5329949 L43.7208122,66.7258883 C44.2372031,68.4246006 43.9149525,70.2676475 42.8527919,71.6903553 L42.8527919,71.6903553 C41.7983211,73.1231864 40.124195,73.9677906 38.3451777,73.9644768 L18.7208122,73.9644768 C16.9235824,73.9630763 15.2352404,73.1028708 14.177665,71.6497462 L13.9543147,71.3401015 C12.9389346,69.9436751 12.6225532,68.1577114 13.0964467,66.4974619 L17.9086294,49.5329949 Z" id="Path" stroke="#263238" stroke-width="0.507614213" fill="#FFFFFF" fill-rule="nonzero" stroke-linecap="round" stroke-linejoin="round"></path>
                        <path d="M59.6243655,51.8730964 L94.7360406,51.8730964 L94.7360406,70.0507614 C94.7360406,72.2150448 92.9815423,73.9695431 90.8172589,73.9695431 L63.5431472,73.9695431 C61.3788638,73.9695431 59.6243655,72.2150448 59.6243655,70.0507614 L59.6243655,51.8781726 L59.6243655,51.8730964 Z" id="Path" stroke="#263238" stroke-width="0.507614213" fill="#FFFFFF" fill-rule="nonzero" stroke-linecap="round" stroke-linejoin="round"></path>
                        <path d="M59.6243655,51.8730964 L63.4162437,61.751269 C64.0404934,63.3780419 65.6027432,64.4517768 67.3451777,64.4517768 L87.3553299,64.4517768 C89.1456932,64.4522966 90.7403604,63.3199403 91.3299492,61.6294416 L94.7360406,51.8730964" id="Path" stroke="#263238" stroke-width="0.507614213" stroke-linecap="round" stroke-linejoin="round"></path>
                        <rect id="Rectangle" stroke="#263238" stroke-width="0.507614213" fill="#FFFFFF" fill-rule="nonzero" stroke-linecap="round" stroke-linejoin="round" x="73.9593909" y="62.6954315" width="7.75126904" height="3.36548223"></rect>
                        <polygon id="Path" stroke="#263238" stroke-width="0.507614213" fill="#FFFFFF" fill-rule="nonzero" stroke-linecap="round" stroke-linejoin="round" points="71.4720812 51.7258883 57.5736041 66.2081218 58.4517766 67.5279188 73.5228426 52.0152284"></polygon>
                        <rect id="Rectangle" fill="#263238" fill-rule="nonzero" x="19.4213198" y="77.4670051" width="17.4314721" height="5.68527919" rx="2.53807107"></rect>
                        <rect id="Rectangle" fill="#263238" fill-rule="nonzero" x="67.6903553" y="77.4670051" width="17.4314721" height="5.68527919" rx="2.53807107"></rect>
                        <path d="M38.4416244,100.543147 C38.1790009,100.541456 37.9510715,100.361622 37.8883249,100.106599 C37.8883249,100.010152 35.5939086,90.8629442 28.7055838,91.3248731 C21.5279188,91.8020305 18.9695431,99.7309645 18.9441624,99.8121827 C18.8493176,100.112781 18.5296895,100.280529 18.2284264,100.187817 C18.08453,100.143473 17.964369,100.043379 17.8947511,99.9098653 C17.8251333,99.7763516 17.8118511,99.6205275 17.857868,99.4771574 C17.857868,99.3857868 20.6649746,90.7208122 28.6294416,90.1928934 C36.4619289,89.6852792 38.9695431,99.7411168 38.9949239,99.8375635 C39.0617243,100.136986 38.8767033,100.434825 38.5786802,100.507614 C38.535501,100.527597 38.4890735,100.539634 38.4416244,100.543147 L38.4416244,100.543147 Z" id="Path" fill="#263238" fill-rule="nonzero"></path>
                        <path d="M17.6446701,98.3654822 C17.6446701,98.3654822 25.2588832,100.847716 38.857868,98.3654822 L41.4873096,114.426396 C41.6751016,115.569058 41.4012034,116.739516 40.7258883,117.680203 L40.4517766,118.055838 C39.6298062,119.198641 38.3061713,119.873695 36.8984772,119.868056 L19.6395939,119.868056 C17.9633535,119.868718 16.4354677,118.907374 15.7106599,117.395939 L15.7106599,117.395939 C15.3394924,116.623038 15.2035769,115.75812 15.319797,114.908629 L17.6446701,98.3654822 Z" id="Path" stroke="#263238" stroke-width="0.507614213" fill="#FFFFFF" fill-rule="nonzero" stroke-linecap="round" stroke-linejoin="round"></path>
                        <path d="M38.857868,98.3654822 C38.857868,98.3654822 38.5786802,109.64467 28.7614213,109.64467 C18.9441624,109.64467 17.6446701,98.3807107 17.6446701,98.3807107" id="Path" stroke="#263238" stroke-width="0.507614213" stroke-linecap="round" stroke-linejoin="round"></path>
                        <rect id="Rectangle" stroke="#263238" stroke-width="0.507614213" stroke-linecap="round" stroke-linejoin="round" x="25.9796954" y="107.28934" width="5.26903553" height="4.53299492"></rect>
                        <path d="M67.9847716,97.6142132 C67.7891657,97.6110686 67.6086502,97.5084494 67.5058912,97.3419798 C67.4031322,97.1755102 67.3923009,96.9681477 67.4771574,96.7918782 L75.8172589,84.4873096 C75.9094503,84.2913507 76.108359,84.1680273 76.3248731,84.1724665 C76.5430683,84.1770496 76.7398288,84.3049439 76.8324873,84.5025381 L84.4467005,96.5177665 C84.5759903,96.802358 84.4512791,97.1379446 84.1675127,97.2690355 C83.8814801,97.3987225 83.5443393,97.2742745 83.4111675,96.9898477 L76.3045685,86.0609137 L68.4923858,97.2994924 C68.3963502,97.4919867 68.1998918,97.6137909 67.9847716,97.6142132 L67.9847716,97.6142132 Z" id="Path" fill="#263238" fill-rule="nonzero"></path>
                        <path d="M65.6446701,95.4314721 L86.2944162,95.4314721 L91.4822335,112.629442 C91.9928061,114.328505 91.6710198,116.168897 90.6142132,117.593909 L90.6142132,117.593909 C89.5538304,119.021786 87.8800741,119.863371 86.1015228,119.862944 L66.4568528,119.862944 C64.6603353,119.863561 62.971817,119.005152 61.9137056,117.553299 L61.6903553,117.243655 C60.6771155,115.850283 60.3590491,114.069111 60.8274112,112.411168 L65.6446701,95.4314721 Z" id="Path" stroke="#263238" stroke-width="0.507614213" fill="#FFFFFF" fill-rule="nonzero" stroke-linecap="round" stroke-linejoin="round"></path>
                        <polygon id="Path" fill="#263238" fill-rule="nonzero" points="63.5685279 102.751269 62.1573604 107.725888 89.9746193 107.725888 88.4771574 102.751269"></polygon>
                        <path d="M60.8274112,112.416244 C60.4115473,113.892907 60.6168025,115.475363 61.3959391,116.796954 L91.0761421,116.796954 C91.7371545,115.511091 91.8736299,114.018959 91.4568528,112.634518 L91.2081218,111.822335 L60.9949239,111.822335 L60.8274112,112.416244 Z" id="Path" fill="#263238" fill-rule="nonzero"></path>
                        <polygon id="Path" fill="#263238" fill-rule="nonzero" points="65.6446701 95.4365482 64.7309645 98.6548223 87.2436548 98.6548223 86.2690355 95.4365482"></polygon>
                        <rect id="Rectangle" fill="#263238" fill-rule="nonzero" x="19.4213198" y="122.411168" width="17.4314721" height="5.68527919" rx="2.53807107"></rect>
                        <rect id="Rectangle" fill="#263238" fill-rule="nonzero" x="67.6903553" y="122.411168" width="17.4314721" height="5.68527919" rx="2.53807107"></rect>
                        <path d="M21.248731,146.522933 C21.097948,146.522933 20.9533407,146.462944 20.846721,146.356325 C20.7401014,146.249705 20.680203,146.105098 20.680203,145.954315 L20.680203,140.761421 C20.6858062,136.768451 23.9258083,133.535265 27.9187817,133.538069 L28.0659898,133.538069 C32.0490522,133.549248 35.2736132,136.778347 35.2791878,140.761421 L35.2791878,145.685279 C35.2791878,145.999268 35.0246492,146.253807 34.7106599,146.253807 C34.3966706,146.253807 34.142132,145.999268 34.142132,145.685279 L34.142132,140.761421 C34.142132,137.39725 31.4149325,134.670051 28.0507614,134.670051 L27.9187817,134.670051 C24.5546107,134.670051 21.8274112,137.39725 21.8274112,140.761421 L21.8274112,145.954315 C21.8274355,146.106873 21.7661456,146.253041 21.65732,146.359957 C21.5484944,146.466873 21.4012652,146.525567 21.248731,146.522933 L21.248731,146.522933 Z" id="Path" fill="#263238" fill-rule="nonzero"></path>
                        <path d="M16.8883249,143.781726 C16.8883249,143.781726 23.5888325,145.812183 39.5837563,143.781726 L42.4010152,160.964467 C42.6012618,162.186063 42.3072145,163.437133 41.5837563,164.441624 L41.2944162,164.847716 C40.4175204,166.065544 39.0082982,166.787157 37.5076142,166.786802 L19.0406091,166.786802 C17.2481523,166.784903 15.6149436,165.757243 14.8375635,164.142132 L14.8375635,164.142132 C14.4430075,163.314872 14.2983506,162.39048 14.4213198,161.482234 L16.8883249,143.781726 Z" id="Path" stroke="#263238" stroke-width="0.507614213" fill="#FFFFFF" fill-rule="nonzero" stroke-linecap="round" stroke-linejoin="round"></path>
                        <path d="M21.1015231,163.659898 C21.1015231,160.348171 18.418325,157.6627 15.106599,157.659898 L14.9543147,157.659898 L14.4213198,161.477157 C14.2983506,162.385404 14.4430075,163.309796 14.8375635,164.137056 L14.8375635,164.137056 C15.6149436,165.752167 17.2481523,166.779826 19.0406091,166.781726 L20.213198,166.781726 C20.7941725,165.844113 21.1018302,164.762916 21.1015231,163.659898 L21.1015231,163.659898 Z" id="Path" fill="#263238" fill-rule="nonzero"></path>
                        <path d="M35.4416206,163.659898 C35.4403709,164.764641 35.7480648,165.847724 36.3299492,166.786802 L37.5076142,166.786802 C39.0082982,166.787157 40.4175204,166.065544 41.2944162,164.847716 L41.5837563,164.441624 C42.3072145,163.437133 42.6012618,162.186063 42.4010152,160.964467 L41.8629442,157.680203 C41.7208122,157.680203 41.5837563,157.680203 41.4365482,157.680203 C38.1327341,157.682979 35.4528036,160.356102 35.4416206,163.659898 L35.4416206,163.659898 Z" id="Path" fill="#263238" fill-rule="nonzero"></path>
                        <line x1="27.8324873" y1="144.786802" x2="27.8324873" y2="166.878173" id="Path" stroke="#263238" stroke-width="0.507614213" stroke-linecap="round" stroke-linejoin="round"></line>
                        <rect id="Rectangle" stroke="#263238" stroke-width="0.507614213" fill="#FFFFFF" fill-rule="nonzero" stroke-linecap="round" stroke-linejoin="round" x="60.2081218" y="148.294416" width="31.893401" height="18.5786802" rx="1.30456853"></rect>
                        <path d="M60.3553299,149.172589 L74.5939086,159.832487 C75.4238702,160.467174 76.5761298,160.467174 77.4060914,159.832487 L91.5177665,148.918782" id="Path" stroke="#263238" stroke-width="0.507614213" stroke-linecap="round" stroke-linejoin="round"></path>
                        <path d="M74.2538071,148.441624 L77.4720812,148.441624 L77.4720812,161.639594 C77.4720812,162.432978 76.8289167,163.076142 76.035533,163.076142 L75.6903553,163.076142 C74.8969717,163.076142 74.2538071,162.432978 74.2538071,161.639594 L74.2538071,148.441624 L74.2538071,148.441624 Z" id="Path" stroke="#263238" stroke-width="0.507614213" fill="#FFFFFF" fill-rule="nonzero" stroke-linecap="round" stroke-linejoin="round"></path>
                        <rect id="Rectangle" fill="#263238" fill-rule="nonzero" x="19.4213198" y="169.406091" width="17.4314721" height="5.68527919" rx="2.53807107"></rect>
                        <rect id="Rectangle" fill="#263238" fill-rule="nonzero" x="67.6903553" y="169.406091" width="17.4314721" height="5.68527919" rx="2.53807107"></rect>
                    </g>
                    <g id="freepik--Character--inject-2" transform="translate(21.319797, 41.116751)">
                        <path d="M6.79695431,66.4974619 C6.79695431,66.4974619 3.3857868,72.4670051 2.39086294,84.4060914 C1.39593909,96.3451777 7.93401015,107.852792 11.4873096,113.538071 C15.0406091,119.22335 10.6345178,124.335025 10.0659898,127.751269 C9.49746193,131.167513 9.78172589,137.248731 13.1979695,141.370558 C16.6142132,145.492386 17.4619289,152.598985 17.319797,155.010152 C17.177665,157.42132 17.6040609,157.994924 18.3350254,157.994924 C19.0659898,157.994924 31.9746193,158.847716 34.106599,157.994924 L37.5177665,157.71066 C37.5177665,157.71066 38.0862944,156.431472 36.9492386,155.862944 C35.8121827,155.294416 32.3807107,154.15736 31.2639594,152.030457 C30.1472081,149.903553 29.9492386,146.192893 30.3857868,144.497462 C30.822335,142.80203 33.5126904,134.263959 34.0812183,129.005076 C34.6497462,123.746193 34.9340102,114.51269 34.9340102,112.380711 C34.9340102,110.248731 40.1928934,103.568528 40.9035533,95.6294416 C41.6142132,87.6903553 38.9137056,71.5736041 38.9137056,71.5736041 L6.79695431,66.4974619 Z" id="Path" stroke="#263238" stroke-width="0.507614213" fill="#FFFFFF" fill-rule="nonzero" stroke-linecap="round" stroke-linejoin="round"></path>
                        <path d="M36.9238579,155.862944 C35.786802,155.294416 32.3553299,154.15736 31.2385787,152.030457 C30.9215905,151.402632 30.6845482,150.737549 30.5329949,150.050761 C30.0253807,150.101523 28.2944162,150.345178 27.6852792,151.319797 C27.2010785,152.035527 26.5053995,152.582132 25.6954315,152.883249 L22.5685279,152.598985 C22.5685279,152.598985 22.4263959,155.57868 22.9949239,157 C23.1573604,157.395939 22.4873096,157.568528 23.0406091,158.015228 C27.0253807,158.162437 34.2081218,158.492386 36.0203046,158.13198 L37.4923858,157.725888 C37.4923858,157.725888 38.071066,156.431472 36.9238579,155.862944 Z" id="Path" stroke="#263238" stroke-width="0.507614213" fill="#FB7D00" fill-rule="nonzero" stroke-linecap="round" stroke-linejoin="round"></path>
                        <path d="M32.0913706,156.28934 C29.8172589,155.57868 26.6903553,153.167513 25.8375635,152.172589 C25.3599323,151.599305 24.7819959,151.117691 24.1319797,150.751269 C24.1319797,150.751269 22.284264,150.040609 21.715736,151.461929 L21.1472081,152.883249 L17.2182741,152.553299 C17.3086882,153.368924 17.3409186,154.18995 17.3147208,155.010152 C17.1725888,157.426396 17.5989848,157.994924 18.3299492,157.994924 C18.9593909,157.994924 29.3096447,158.675127 33.0507614,158.218274 C33.213198,157.411168 33.0913706,156.604061 32.0913706,156.28934 Z" id="Path" stroke="#263238" stroke-width="0.507614213" fill="#FB7D00" fill-rule="nonzero" stroke-linecap="round" stroke-linejoin="round"></path>
                        <path d="M30.3857868,144.497462 C30.8121827,142.791878 33.5126904,134.263959 34.0812183,129.005076 C34.6497462,123.746193 34.9340102,114.51269 34.9340102,112.380711 C34.9340102,110.248731 40.1928934,103.568528 40.9035533,95.6294416 C41.6142132,87.6903553 38.9137056,71.5736041 38.9137056,71.5736041 L6.79695431,66.4974619 C6.79695431,66.4974619 3.3857868,72.4670051 2.39086294,84.4060914 C1.39593909,96.3451777 7.93401015,107.852792 11.4873096,113.538071 C15.0406091,119.22335 10.6345178,124.335025 10.0659898,127.751269 C9.49746193,131.167513 9.78172589,137.248731 13.1979695,141.370558 C14.2937477,142.757419 15.1514531,144.316728 15.7360406,145.984772 C17.2588832,146.700508 19.7258883,147 23.4314721,144.923858 C23.4314721,144.923858 26.0558376,147 30.2182741,145.675127 C30.242576,145.278729 30.2985927,144.884914 30.3857868,144.497462 L30.3857868,144.497462 Z" id="Path" stroke="#263238" stroke-width="0.507614213" fill="#263238" fill-rule="nonzero" stroke-linecap="round" stroke-linejoin="round"></path>
                        <path d="M30.6700508,89.3401015 L26.8324873,91.4670051 C26.8324873,91.4670051 26.2639594,110.654822 26.2639594,117.477157 C26.2639594,124.299492 24.4162437,126.304569 23.857868,135.685279 C23.2994924,145.06599 24.142132,150.751269 24.142132,150.751269" id="Path" stroke="#7D7D7D" stroke-width="0.507614213" stroke-linecap="round" stroke-linejoin="round"></path>
                        <path d="M37.9796954,35.2182741 C37.9796954,35.2182741 42.8680203,36.8883249 44.6598985,41.4213198 C46.4517766,45.9543147 46.9238579,54.4213198 46.9238579,58.715736 C46.9238579,63.0101523 48.3553299,66.5837563 46.4467005,69.3299492 C44.5380711,72.0761421 40.7208122,71.715736 38.9340102,69.2081218 C37.1472081,66.7005076 37.3807107,65.1472081 38.0964467,59.5634518 C38.8121827,53.9796954 38.5736041,43.2233503 37.9796954,41.0761421 C37.3857868,38.928934 35.2335025,35.1116751 35.2335025,35.1116751 C35.2335025,35.1116751 36.9035533,34.5177665 37.9796954,35.2182741 Z" id="Path" stroke="#263238" stroke-width="0.507614213" fill="#FB7D00" fill-rule="nonzero" stroke-linecap="round" stroke-linejoin="round"></path>
                        <path d="M47.1472081,62.0609137 C46.9877727,61.8981128 46.8182317,61.7455259 46.6395939,61.6040609 C44.7884526,60.0114429 42.2549642,59.4684159 39.9137056,60.1624365 L37.7055838,62.7005076 C37.3654822,65.8832487 37.5228426,67.2690355 38.9238579,69.2233503 C40.7106599,71.7309645 44.5076142,72.0862944 46.4365482,69.3451777 C47.8375635,67.3350254 47.4568528,64.893401 47.1472081,62.0609137 Z" id="Path" stroke="#263238" stroke-width="0.507614213" fill="#FFFFFF" fill-rule="nonzero" stroke-linecap="round" stroke-linejoin="round"></path>
                        <path d="M38.4568528,65.5126904 C38.4568528,65.5126904 39.2893401,61.9340102 41.0812183,61.3350254 C42.8730964,60.7360406 46.3299492,62.4111675 47.5228426,64.5583756 C48.715736,66.7055838 46.3299492,69.8071066 46.3299492,69.8071066 C46.3299492,69.8071066 48.4771574,69.3299492 48.715736,64.9137056 C48.9543147,60.4974619 43.9441624,58.822335 41.5583756,58.715736 C39.1725888,58.6091371 37.857868,63.8426396 38.4568528,65.5126904 Z" id="Path" stroke="#263238" stroke-width="0.507614213" fill="#FFFFFF" fill-rule="nonzero" stroke-linecap="round" stroke-linejoin="round"></path>
                        <path d="M40.7208122,43.9238579 C41.5565786,47.7582684 41.9567442,51.6747833 41.9137056,55.5989848 C41.7969543,59.893401 39.5279188,62.8730964 39.4111675,65.1370558 C39.2944162,67.4010152 40.3654822,71.4619289 40.0050761,72.0558376 C39.6446701,72.6497462 33.5685279,76.1167513 25.5736041,75.2791878 C17.5786802,74.4416244 8.16243655,72.3096447 6.59898477,69.5685279 C5.03553299,66.8274112 8.15228426,47.6192893 8.26903553,45.4720812 C8.3857868,43.3248731 10.2994924,33.7969543 13.9949239,32.5939086 C17.6903553,31.3908629 26.3959391,31.5177665 26.3959391,31.5177665 C26.3959391,31.5177665 35.9340102,34.3807107 36.2944162,34.5025381 C36.6548223,34.6243655 34.7411168,33.786802 37.3654822,34.9796954 C39.9898477,36.1725888 40.4670051,39.8680203 40.5888325,40.4670051" id="Path" stroke="#263238" stroke-width="0.507614213" fill="#FB7D00" fill-rule="nonzero" stroke-linecap="round" stroke-linejoin="round"></path>
                        <path d="M24.142132,29.1319797 C24.142132,29.1319797 21.2791878,30.9238579 21.2791878,32.1167513 C21.2791878,33.3096447 22.5939086,44.1624365 22.5939086,44.1624365 L31.1827411,40.6091371 L37.9796954,44.5431472 C37.9796954,44.5431472 36.5482234,38.071066 35.2335025,35.0964467 C34.0618331,32.2361968 31.717381,30.0174725 28.7969543,29.0050761 C25.9340102,28.0609137 24.142132,29.1319797 24.142132,29.1319797 Z" id="Path" stroke="#263238" stroke-width="0.507614213" fill="#FFFFFF" fill-rule="nonzero" stroke-linecap="round" stroke-linejoin="round"></path>
                        <path d="M24.2639594,29.9492386 C24.2639594,29.9492386 25.2182741,35.1928934 26.1725888,37.5634518 C27.3654822,40.5431472 29.751269,46.0304569 29.751269,46.0304569 C29.751269,46.0304569 32.1370558,42.213198 32.8527919,38.9949239 C33.5685279,35.7766497 34.2791878,30.5228426 34.2791878,30.5228426 C34.2791878,30.5228426 26.2893401,28.2588832 25.9340102,28.0203046 C25.5786802,27.7817259 23.786802,28.7766497 24.2639594,29.9492386 Z" id="Path" stroke="#263238" stroke-width="0.507614213" fill="#FFFFFF" fill-rule="nonzero" stroke-linecap="round" stroke-linejoin="round"></path>
                        <path d="M46.5685279,6.7106599 C46.5685279,6.7106599 40.1269036,-0.208121827 34.3857868,0.390862944 C28.6446701,0.989847716 22.2030457,9.45177665 19.2385787,14.6040609 C16.2741117,19.7563452 20.4314721,29.6294416 26.3959391,31.5380711 C32.3604061,33.4467005 35.2182741,32.2538071 35.2182741,32.2538071 C35.2182741,32.2538071 39.5126904,35.4771574 43.5685279,33.0913706 C47.6243655,30.7055838 47.7461929,27.2436548 47.3857868,24.2639594 C47.0253807,21.284264 50.4873096,20.8071066 51.680203,17.106599 C52.8730964,13.4060914 46.5685279,6.7106599 46.5685279,6.7106599 Z" id="Path" stroke="#263238" stroke-width="0.507614213" fill="#263238" fill-rule="nonzero" stroke-linecap="round" stroke-linejoin="round"></path>
                        <path d="M42.751269,13.3908629 C42.751269,13.3908629 42.2741117,14.9390863 43.9441624,18.2791878 C45.6142132,21.6192893 45.8527919,23.5279188 45.6142132,25.6751269 C45.3756345,27.822335 43.822335,29.9492386 42.1319797,31.5177665 C40.4416244,33.0862944 38.071066,34.2639594 35.8121827,33.9035533 C33.5532995,33.5431472 31.6395939,30.2081218 31.6395939,29.7309645 C31.6395939,29.2538071 29.035533,17.2081218 42.751269,13.3908629 Z" id="Path" stroke="#263238" stroke-width="0.507614213" fill="#FFFFFF" fill-rule="nonzero" stroke-linecap="round" stroke-linejoin="round"></path>
                        <path d="M43.4670051,22.2182741 L42.6395939,23.2893401 C42.6395939,23.2893401 42.0456853,26.6294416 41.6852792,26.6294416 C41.0784748,26.5157778 40.481162,26.3562681 39.8984772,26.1522843" id="Path" stroke="#263238" stroke-width="0.507614213" stroke-linecap="round" stroke-linejoin="round"></path>
                        <path d="M38.6954315,28.6548223 C38.6954315,28.6548223 36.5482234,28.5380711 36.786802,26.8680203" id="Path" stroke="#263238" stroke-width="0.507614213" stroke-linecap="round" stroke-linejoin="round"></path>
                        <path d="M39.5939086,21.9492386 C39.3096447,22.5786802 38.8121827,22.964467 38.4822335,22.822335 C38.1522843,22.680203 38.1116751,22.0406091 38.3959391,21.4111675 C38.680203,20.7817259 39.1725888,20.3959391 39.5076142,20.5380711 C39.8426396,20.680203 39.8730964,21.319797 39.5939086,21.9492386 Z" id="Path" fill="#263238" fill-rule="nonzero"></path>
                        <path d="M44.7208122,23.6192893 C44.4365482,24.248731 43.9390863,24.6345178 43.6091371,24.4923858 C43.2791878,24.3502538 43.2385787,23.7106599 43.5228426,23.0812183 C43.8071066,22.4517766 44.3045685,22.0659898 44.6345178,22.2081218 C44.964467,22.3502538 45.0050761,22.9847716 44.7208122,23.6192893 Z" id="Path" fill="#263238" fill-rule="nonzero"></path>
                        <path d="M37.9796954,18.9949239 C37.9796954,18.9949239 39.7664975,17.8020305 41.4365482,19.1167513" id="Path" stroke="#263238" stroke-width="0.507614213" stroke-linecap="round" stroke-linejoin="round"></path>
                        <path d="M43.9441624,21.142132 C44.4415081,20.8645084 45.0690463,21.0225056 45.3756345,21.5025381" id="Path" stroke="#263238" stroke-width="0.507614213" stroke-linecap="round" stroke-linejoin="round"></path>
                        <path d="M18.3756345,32.177665 C18.3756345,32.177665 11.6192893,32.3553299 7.80203046,33.6649746 C3.98477157,34.9746193 2.91370558,41.6598985 2.91370558,44.9949239 C2.91370558,48.3299492 1.83756345,68.3756345 2.53807107,69.8071066 C3.23857868,71.2385787 28.0659898,60.1624365 28.0659898,60.1624365 C28.0659898,60.1624365 28.5431472,60.6395939 29.8527919,60.6395939 C30.647258,60.6372032 31.4280688,60.4328299 32.1218274,60.0456853 L31.8832487,61.5939086 C31.8832487,61.5939086 29.8527919,62.4314721 30.6903553,63.0253807 C31.5279188,63.6192893 34.6243655,62.4314721 34.9796954,62.1928934 C35.3350254,61.9543147 38.5583756,61 39.1573604,60.0456853 C39.7563452,59.0913706 38.680203,56.4670051 38.680203,56.4670051 C39.6254657,56.9701591 40.540712,57.5277813 41.4213198,58.1370558 C42.3756345,58.8527919 43.213198,59.4517766 43.6903553,58.1370558 C44.1675127,56.822335 40.8274112,55.5126904 39.6294416,54.7969543 C38.4851618,53.9837064 37.0888917,53.6040505 35.6903553,53.7258883 C33.9035533,53.8426396 25.7918782,56.7055838 25.7918782,56.7055838 C25.7918782,56.7055838 25.3350254,56.8121827 22.2385787,57.0659898 C19.142132,57.319797 12.0862944,57.5431472 12.0862944,57.5431472 L15.1878173,44.4213198" id="Path" stroke="#263238" stroke-width="0.507614213" fill="#FFFFFF" fill-rule="nonzero" stroke-linecap="round" stroke-linejoin="round"></path>
                        <path d="M23.7664975,56.7766497 C23.7664975,56.7766497 23.106599,59.822335 24.9238579,61.4111675 L26.4974619,60.9035533 C26.4974619,60.9035533 25.0406091,58.4416244 25.8121827,56.6751269 C25.9187817,56.4416244 24.3654822,56.3451777 23.7664975,56.7766497 Z" id="Path" fill="#263238" fill-rule="nonzero"></path>
                        <ellipse id="Oval" stroke="#263238" stroke-width="0.507614213" fill="#FFFFFF" fill-rule="nonzero" stroke-linecap="round" stroke-linejoin="round" cx="24.5126904" cy="58.4720812" rx="1.3248731" ry="1.28426396"></ellipse>
                        <path d="M34.1624365,57.7614213 C34.1624365,57.7614213 36.071066,61.3147208 34.9949239,62.1725888" id="Path" stroke="#263238" stroke-width="0.507614213" stroke-linecap="round" stroke-linejoin="round"></path>
                        <path d="M36.3096447,56.4467005 C36.3096447,56.4467005 38.4568528,58.9543147 37.3807107,60.857868" id="Path" stroke="#263238" stroke-width="0.507614213" stroke-linecap="round" stroke-linejoin="round"></path>
                        <path d="M18.3756345,32.177665 C16.2588832,32.2944162 10.177665,32.8477157 7.80203046,33.6649746 C3.98477157,34.9796954 2.91370558,41.6598985 2.91370558,44.9949239 C2.91370558,47.822335 2.14213198,62.6091371 2.34010152,67.9543147 C4.58883249,60.2791878 12.0964467,57.5228426 12.0964467,57.5228426 L15.7664975,43.0812183" id="Path" stroke="#263238" stroke-width="0.507614213" fill="#FB7D00" fill-rule="nonzero" stroke-linecap="round" stroke-linejoin="round"></path>
                        <path d="M12.0964467,57.5228426 C12.0964467,57.5228426 8.03553299,60.9796954 6.73096447,65.035533 C5.42639594,69.0913706 6.01522843,69.0964467 6.01522843,69.0964467 C5.82892354,69.9143667 5.24597106,70.5849526 4.46192893,70.8832487 C3.15228426,71.3604061 0.644670051,70.0507614 0.401015228,68.3807107 C0.157360406,66.7106599 0.878172589,65.2791878 3.86294416,61.2233503 C6.84771574,57.1675127 10.6598985,56.4467005 12.0964467,57.5228426 Z" id="Path" stroke="#263238" stroke-width="0.507614213" fill="#FFFFFF" fill-rule="nonzero" stroke-linecap="round" stroke-linejoin="round"></path>
                        <polygon id="Path" stroke="#263238" stroke-width="0.507614213" fill="#263238" fill-rule="nonzero" stroke-linecap="round" stroke-linejoin="round" points="47.8781726 55.9695431 41.5583756 65.3908629 47.8781726 65.8680203 55.035533 56.4467005"></polygon>
                        <path d="M43.3451777,65.3908629 C43.3451777,65.3908629 41.4365482,66.106599 42.9898477,67.2994924 C44.5431472,68.4923858 47.0507614,68.0152284 47.8781726,66.4670051 C48.7055838,64.9187817 43.3451777,65.3908629 43.3451777,65.3908629 Z" id="Path" stroke="#263238" stroke-width="0.507614213" fill="#FFFFFF" fill-rule="nonzero" stroke-linecap="round" stroke-linejoin="round"></path>
                        <path d="M48.3553299,65.3908629 C48.3553299,65.3908629 44.0609137,64.0812183 43.3451777,65.3908629 C42.6294416,66.7005076 47.1624365,67.1827411 48.2385787,67.1827411 C49.3147208,67.1827411 48.9543147,65.6294416 48.3553299,65.3908629 Z" id="Path" stroke="#263238" stroke-width="0.507614213" fill="#FFFFFF" fill-rule="nonzero" stroke-linecap="round" stroke-linejoin="round"></path>
                        <path d="M50.0253807,64.319797 C50.0253807,64.319797 45.7309645,63.0050761 45.0152284,64.319797 C44.2994924,65.6345178 48.8324873,66.106599 49.9086294,66.106599 C50.9847716,66.106599 50.6243655,64.5583756 50.0253807,64.319797 Z" id="Path" stroke="#263238" stroke-width="0.507614213" fill="#FFFFFF" fill-rule="nonzero" stroke-linecap="round" stroke-linejoin="round"></path>
                        <path d="M51.2182741,62.4365482 C51.2182741,62.4365482 46.9238579,61.1218274 46.2081218,62.4365482 C45.4923858,63.751269 50.0253807,64.2233503 51.0964467,64.2233503 C52.1675127,64.2233503 51.8121827,62.6497462 51.2182741,62.4365482 Z" id="Path" stroke="#263238" stroke-width="0.507614213" fill="#FFFFFF" fill-rule="nonzero" stroke-linecap="round" stroke-linejoin="round"></path>
                    </g>
                    <g id="freepik--Floor--inject-2" transform="translate(4.060914, 198.984772)" stroke="#263238" stroke-linecap="round" stroke-linejoin="round" stroke-width="0.507614213">
                        <line x1="13.7055838" y1="0.507614213" x2="222.84264" y2="0.507614213" id="Path"></line>
                        <line x1="0" y1="0.507614213" x2="6.59898477" y2="0.507614213" id="Path"></line>
                    </g>
                </g>
            </g>
        </g>
    </g>
</svg>