<?xml version="1.0" encoding="UTF-8"?>
<svg width="217px" height="197px" viewBox="0 0 217 197" version="1.1" xmlns="http://www.w3.org/2000/svg" xmlns:xlink="http://www.w3.org/1999/xlink">
    <title>Frozen figure-bro</title>
    <g id="Page-1" stroke="none" stroke-width="1" fill="none" fill-rule="evenodd">
        <g id="shopping-on-splitchek-copy" transform="translate(-1057.000000, -3928.000000)">
            <g id="definitions" transform="translate(150.000000, 3790.000000)">
                <g id="4" transform="translate(892.000000, 138.000000)">
                    <g id="Frozen-figure-bro" transform="translate(16.000000, 0.000000)">
                        <g id="freepik--background-simple--inject-57" transform="translate(10.405405, 0.000000)" fill="#F9FBFF" fill-rule="nonzero">
                            <path d="M59.1274775,194.027928 L147.41982,194.027928 C150.700468,191.892145 153.84471,189.553821 156.834234,187.026577 C199.977027,150.602703 208.861261,79.4743243 174.672072,34.0720721 C155.436937,8.49954955 123.274324,-1.82657658 91.7608108,0.472522523 C57.6657658,2.95 21.8959459,20.6689189 7.03108108,52.8662162 C-10.3954955,90.5981982 8.89414414,137.7 32.1725225,168.812162 C39.5499084,178.786144 48.6843128,187.331178 59.1274775,194.027928 Z" id="Path"></path>
                        </g>
                        <g id="freepik--Character--inject-57" transform="translate(95.135135, 39.522523)">
                            <path d="M95.704955,124.28018 C95.704955,124.28018 99.8225225,132.703604 102.176126,139.477027 C104.52973,146.25045 105.114414,154.782883 105.114414,154.782883 L49.5495495,154.782883 L49.5495495,128.828829 L95.704955,124.28018 Z" id="Path" fill="#FB7D00" fill-rule="nonzero"></path>
                            <path d="M70.4198198,150.977477 L70.4198198,154.782883 L49.5495495,154.782883 L49.5495495,128.828829 L95.6851351,124.28018 C95.6851351,124.28018 97.6671171,128.323423 99.6490991,133.07027 C92.3702703,135.478378 72.1490991,141.815766 62.5315315,141.181532 C62.5315315,141.181532 65.3608108,148.430631 66.6936937,148.430631 L67.9918919,149.02027 C67.9918919,149.02027 69.6369369,150.784234 70.4198198,150.977477 Z" id="Path" fill-opacity="0.7" fill="#000000" fill-rule="nonzero" opacity="0.2"></path>
                            <path d="M95.704955,124.28018 C95.704955,124.28018 99.8225225,132.703604 102.176126,139.477027 C104.52973,146.25045 105.114414,154.782883 105.114414,154.782883 L49.5495495,154.782883 L49.5495495,128.828829 L95.704955,124.28018 Z" id="Path" stroke="#263238" stroke-width="0.55" stroke-linecap="round" stroke-linejoin="round"></path>
                            <path d="M98.4351351,144.154505 C99.3611737,147.621228 99.8276295,151.194612 99.8225225,154.782883" id="Path" stroke="#263238" stroke-width="0.55" stroke-linecap="round" stroke-linejoin="round"></path>
                            <path d="M97.240991,140.091441 C97.4788288,140.814865 97.7067568,141.538288 97.9198198,142.266667" id="Path" stroke="#263238" stroke-width="0.55" stroke-linecap="round" stroke-linejoin="round"></path>
                            <path d="M88.2576577,121.421171 C91.670918,126.653693 94.4597276,132.267897 96.5671171,138.149099" id="Path" stroke="#263238" stroke-width="0.55" stroke-linecap="round" stroke-linejoin="round"></path>
                            <path d="M82.7031532,129.81982 C82.7031532,129.81982 87.1626126,137.891441 96.6414414,138.362162" id="Path" stroke="#263238" stroke-width="0.55" stroke-linecap="round" stroke-linejoin="round"></path>
                            <path d="M62.5711712,131.672973 C62.5711712,131.672973 63.9536036,145.492342 68.0662162,148.430631" id="Path" stroke="#263238" stroke-width="0.55" stroke-linecap="round" stroke-linejoin="round"></path>
                            <path d="M76.8018018,149.798198 C77.6342342,149.798198 78.4716216,149.798198 79.3040541,149.798198" id="Path" stroke="#263238" stroke-width="0.55" stroke-linecap="round" stroke-linejoin="round"></path>
                            <path d="M58.8004505,145.145495 C63.2896396,147.964865 68.9581081,149.223423 74.1608108,149.654505" id="Path" stroke="#263238" stroke-width="0.55" stroke-linecap="round" stroke-linejoin="round"></path>
                            <path d="M68.0662162,148.430631 C68.0662162,148.430631 67.872973,150.194595 70.4198198,150.977477 L70.4198198,154.782883" id="Path" stroke="#263238" stroke-width="0.55" stroke-linecap="round" stroke-linejoin="round"></path>
                            <path d="M90.4130631,139.531532 C90.4130631,139.531532 96.690991,140.591892 99.8274775,139.12027" id="Path" stroke="#263238" stroke-width="0.55" stroke-linecap="round" stroke-linejoin="round"></path>
                            <path d="M32.0288288,53.9792793 C27.5346847,58.295045 13.8738739,90.6756757 13.8738739,90.6756757 C13.8738739,90.6756757 7.49684685,105.862613 11.4657658,106.818919 C29.6157658,111.213964 41.0022523,84.1400901 41.0022523,84.1400901 L32.0288288,53.9792793 Z" id="Path" fill="#DEE8FB" fill-rule="nonzero"></path>
                            <path d="M40.5959459,85.0418919 C38.4207207,89.6945946 27.6238739,110.738288 11.4608108,106.843694 C7.49189189,105.867568 13.8738739,90.6756757 13.8738739,90.6756757 C13.8738739,90.6756757 14.6666667,88.7927928 15.9400901,85.8693694 C18.8734234,85.7256757 22.4905405,87.6927928 22.4905405,87.6927928 L28.6693694,72.4364865 L40.5959459,85.0418919 Z" id="Path" fill-opacity="0.7" fill="#000000" fill-rule="nonzero" opacity="0.2"></path>
                            <path d="M32.0288288,53.9792793 C27.5346847,58.295045 13.8738739,90.6756757 13.8738739,90.6756757 C13.8738739,90.6756757 7.49684685,105.862613 11.4657658,106.818919 C29.6157658,111.213964 41.0022523,84.1400901 41.0022523,84.1400901 L32.0288288,53.9792793 Z" id="Path" stroke="#263238" stroke-width="0.55" stroke-linecap="round" stroke-linejoin="round"></path>
                            <path d="M16.5644144,104.172973 C14.4635135,106.531532 11.3963964,107.730631 8.82477477,106.036036 C4.13243243,102.909459 3.26036036,92.8459459 3.26036036,92.8459459 C1.83810927,91.2456366 0.928503903,89.2555513 0.649099099,87.1328829 C0.649099099,87.1328829 4.11756757,81.6031532 8.96351351,81.8806306 C13.8094595,82.1581081 13.8738739,87.7027027 13.8738739,87.7027027 C13.8738739,87.7027027 17.9716216,91.4288288 18.9427928,96.9783784" id="Path" stroke="#263238" stroke-width="0.55" fill="#DEE8FB" fill-rule="nonzero" stroke-linecap="round" stroke-linejoin="round"></path>
                            <path d="M28.6644144,70.8063063 C28.6644144,70.8063063 30.0418919,80.2207207 33.7630631,83.0995495" id="Path" stroke="#263238" stroke-width="0.55" stroke-linecap="round" stroke-linejoin="round"></path>
                            <path d="M15.1423423,87.7027027 C15.1423423,87.7027027 18.5711712,87.9653153 21.0238739,92.6576577" id="Path" stroke="#263238" stroke-width="0.55" stroke-linecap="round" stroke-linejoin="round"></path>
                            <path d="M32.0288288,53.9792793 C32.0288288,53.9792793 50.9121622,33.2972973 61.595045,38.8171171 C72.2779279,44.3369369 79.7301802,51.8189189 82.0490991,59.9103604 C84.368018,68.0018018 86.8256757,100.481532 86.8256757,100.481532 L100.635135,131.385586 C100.635135,131.385586 71.0936937,140.8 48.731982,132.094144 L44.3468468,99.5400901 C44.3468468,99.5400901 32.7869369,87.9009009 31.1617117,68.9432432" id="Path" fill="#DEE8FB" fill-rule="nonzero"></path>
                            <path d="M65.8117117,115.044144 C56.6995495,114.39009 57.2198198,116.773423 57.2198198,116.773423 C54.1774775,115.861712 49.4653153,112.968018 45.8234234,110.535135 L44.3369369,99.5400901 C42.128442,97.1496064 40.1908585,94.5224027 38.5594595,91.7063063 C32.7671171,83.0995495 31.2509009,69.9689189 31.2509009,69.9689189 C31.2509009,69.9689189 37.6081081,76.6333333 44.3369369,80.6418919 C54.3657658,86.6175676 58.7905405,86.8306306 58.7905405,86.8306306 L63.4481982,83.0995495 L81.6130631,80.295045 C83.4166667,114.459459 74.9288288,115.693243 65.8117117,115.044144 Z" id="Path" fill-opacity="0.7" fill="#000000" fill-rule="nonzero" opacity="0.2"></path>
                            <path d="M32.0288288,53.9792793 C32.0288288,53.9792793 50.9121622,33.2972973 61.595045,38.8171171 C72.2779279,44.3369369 79.7301802,51.8189189 82.0490991,59.9103604 C84.368018,68.0018018 86.8256757,100.481532 86.8256757,100.481532 L100.635135,131.385586 C100.635135,131.385586 71.0936937,140.8 48.731982,132.094144 L44.3468468,99.5400901 C44.3468468,99.5400901 32.7869369,87.9009009 31.1617117,68.9432432" id="Path" stroke="#263238" stroke-width="0.55" stroke-linecap="round" stroke-linejoin="round"></path>
                            <path d="M44.3468468,49.0986486 L39.9220721,37.8806306 L24.3238739,29.3581081 C24.3238739,29.3581081 25.9391892,30.690991 27.2027027,34.8927928 C27.4702703,38.4554054 27.7477477,43.7720721 27.4355856,47.8797297 C26.9153153,54.6927928 27.5148649,63.5126126 32.122973,63.140991 C35.3387387,62.8783784 37.4495495,58.1414414 38.4355856,55.3022523 C41.4828829,52.8990991 44.3468468,49.0986486 44.3468468,49.0986486 Z M32.122973,61.7734234 C29.2441441,60.9954955 28.1342342,54.9157658 28.9022523,47.3495495 C29.5315315,53.9842342 30.3887387,55.877027 33.5004505,57.086036 C34.4617117,57.4626126 35.6558559,57.086036 36.8945946,56.3774775 C35.859009,59.0630631 34.1545045,62.3234234 32.122973,61.7734234 Z" id="Shape" fill="#263238" fill-rule="nonzero"></path>
                            <path d="M42.7761261,50.5900901 C42.7761261,50.5900901 37.6972973,60.1977477 39.0747748,70.9648649 C40.4522523,81.731982 39.0747748,84.145045 39.0747748,84.145045 C39.0747748,84.145045 41.1211712,86.2063063 42.7761261,85.5423423 C44.4310811,84.8783784 45.7490991,87.6977477 45.7490991,87.6977477 C45.7490991,87.6977477 46.8441441,82.3959459 46.3040541,77.5945946 C45.763964,72.7932432 45.6797297,61.8972973 47.9193694,57.0513514 C50.159009,52.2054054 42.7761261,50.5900901 42.7761261,50.5900901 Z" id="Path" fill="#FB7D00" fill-rule="nonzero"></path>
                            <g id="Group" transform="translate(38.648649, 50.540541)" fill-rule="nonzero">
                                <path d="M4.12747748,0.0495495495 C4.12747748,0.0495495495 -0.951351351,9.65720721 0.426126126,20.4243243 C1.8036036,31.1914414 0.426126126,33.6045045 0.426126126,33.6045045 C0.426126126,33.6045045 2.47252252,35.6657658 4.12747748,35.0018018 C5.78243243,34.3378378 7.10045045,37.1572072 7.10045045,37.1572072 C7.10045045,37.1572072 8.1954955,31.8554054 7.65540541,27.0540541 C7.11531532,22.2527027 7.03108108,11.3567568 9.27072072,6.51081081 C11.5103604,1.66486486 4.12747748,0.0495495495 4.12747748,0.0495495495 Z" id="Path" fill="#FFFFFF" opacity="0.4"></path>
                                <path d="M3.67162162,1.98198198 C2.84474049,3.70262953 2.50214815,5.61600773 2.68063063,7.51666667 C3.02747748,10.4896396 4.34054054,11.3418919 4.34054054,11.3418919 C4.34054054,11.3418919 6.08963964,13.3238739 7.80900901,12.3675676 C7.80900901,12.3675676 8.4481982,9.4490991 8.8,7.65045045 C9.1518018,5.8518018 5.56441441,1.98198198 3.67162162,1.98198198 Z" id="Path" fill-opacity="0.7" fill="#000000" opacity="0.2"></path>
                            </g>
                            <path d="M42.7761261,50.5900901 C42.7761261,50.5900901 37.6972973,60.1977477 39.0747748,70.9648649 C40.4522523,81.731982 39.0747748,84.145045 39.0747748,84.145045 C39.0747748,84.145045 41.1211712,86.2063063 42.7761261,85.5423423 C44.4310811,84.8783784 45.7490991,87.6977477 45.7490991,87.6977477 C45.7490991,87.6977477 46.8441441,82.3959459 46.3040541,77.5945946 C45.763964,72.7932432 45.6797297,61.8972973 47.9193694,57.0513514 C50.159009,52.2054054 42.7761261,50.5900901 42.7761261,50.5900901 Z" id="Path" stroke="#263238" stroke-width="0.55" stroke-linecap="round" stroke-linejoin="round"></path>
                            <path d="M44.8225225,39.9369369 C49.4256757,34.9126126 58.845045,33.2279279 61.0797297,35.4477477 C63.3144144,37.6675676 62.5662162,39.9369369 62.5662162,39.9369369 C64.2800748,41.5971411 65.4129941,43.7656738 65.7968468,46.1207207 C66.2923423,49.8468468 52.3788288,63.2648649 46.2891892,61.0252252 C40.1995495,58.7855856 42.9346847,53.3252252 42.9346847,53.3252252 C42.9346847,53.3252252 37.509009,47.9144144 44.8225225,39.9369369 Z" id="Path" fill="#FB7D00" fill-rule="nonzero"></path>
                            <g id="Group" transform="translate(40.630631, 34.189189)" fill-rule="nonzero">
                                <path d="M4.19189189,5.74774775 C8.79504505,0.723423423 18.2144144,-0.961261261 20.4490991,1.25855856 C22.6837838,3.47837838 21.9355856,5.74774775 21.9355856,5.74774775 C23.6494442,7.40795189 24.7823635,9.57648459 25.1662162,11.9315315 C25.6617117,15.6576577 11.7481982,29.0756757 5.65855856,26.836036 C-0.431081081,24.5963964 2.30405405,19.136036 2.30405405,19.136036 C2.30405405,19.136036 -3.12162162,13.7252252 4.19189189,5.74774775 Z" id="Path" fill="#FFFFFF" opacity="0.5"></path>
                                <path d="M4.97972973,16.4009009 C2.69054054,15.9054054 2.44279279,11.9414414 4.20675676,8.78513514 C5.97072072,5.62882883 12.2585586,1.48648649 16.8468468,2.02162162 C21.4351351,2.55675676 21.1972973,7.14009009 21.1972973,7.14009009 C21.1972973,7.14009009 23.2981982,12.540991 21.9355856,15.2166667 C21.9355856,15.2166667 18.145045,16.6486486 15.9252252,13.1603604 C13.7054054,9.67207207 7.92792793,17.0648649 4.97972973,16.4009009 Z" id="Path" fill-opacity="0.7" fill="#000000" opacity="0.2"></path>
                            </g>
                            <path d="M44.8225225,39.9369369 C49.4256757,34.9126126 58.845045,33.2279279 61.0797297,35.4477477 C63.3144144,37.6675676 62.5662162,39.9369369 62.5662162,39.9369369 C64.2800748,41.5971411 65.4129941,43.7656738 65.7968468,46.1207207 C66.2923423,49.8468468 52.3788288,63.2648649 46.2891892,61.0252252 C40.1995495,58.7855856 42.9346847,53.3252252 42.9346847,53.3252252 C42.9346847,53.3252252 37.509009,47.9144144 44.8225225,39.9369369 Z" id="Path" stroke="#263238" stroke-width="0.55" stroke-linecap="round" stroke-linejoin="round"></path>
                            <path d="M53.6373874,52.5225225 C52.6463964,53.3846847 51.477027,54.2171171 50.1689189,54.3905405" id="Path" stroke="#263238" stroke-width="0.55" stroke-linecap="round" stroke-linejoin="round"></path>
                            <path d="M56.5608108,49.4058559 C56.104955,49.9707207 55.6325826,50.5190691 55.1436937,51.0509009" id="Path" fill-opacity="0.7" fill="#000000" fill-rule="nonzero" opacity="0.2"></path>
                            <path d="M62.5711712,39.9369369 C61.2055733,42.6299872 59.6403936,45.2170883 57.8887387,47.6765766" id="Path" stroke="#263238" stroke-width="0.55" stroke-linecap="round" stroke-linejoin="round"></path>
                            <path d="M43.3806306,75.3153153 C43.5540541,76.6779279 43.6234234,78.3279279 42.9297297,79.5765766" id="Path" stroke="#263238" stroke-width="0.55" stroke-linecap="round" stroke-linejoin="round"></path>
                            <path d="M43.6036036,59.3355856 C42.3054054,63.9882883 41.8891892,68.7004505 43.0436937,73.4027027" id="Path" stroke="#263238" stroke-width="0.55" stroke-linecap="round" stroke-linejoin="round"></path>
                            <path d="M54.4648649,37.3405405 C54.7724019,38.2156652 54.8757868,39.1495187 54.7671171,40.0707207 C54.6432432,41.8445946 51.040991,47.959009 48.3256757,49.8121622 C45.6103604,51.6653153 44.3617117,49.8121622 44.3617117,49.8121622" id="Path" stroke="#263238" stroke-width="0.55" stroke-linecap="round" stroke-linejoin="round"></path>
                            <path d="M48.3157658,49.8121622 C49.9112613,48.5337838 51.6405405,47.3644144 52.8941441,45.7441441 C53.6786282,44.7518522 54.24127,43.602914 54.5441441,42.3747748 C54.7000337,41.6168473 54.7747793,40.8444757 54.7671171,40.0707207 C53.7761261,38.8765766 52.4531532,37.5932432 51.3333333,35.75 C50.8639575,34.9619652 50.467565,34.1326923 50.1490991,33.2725225 C48.9400901,30.0220721 37.3256757,45.2387387 40.7941441,45.4716216 C42.3465538,45.6132107 43.8379644,46.1450051 45.1297297,47.0175676 C46.3115374,47.8029504 47.3830409,48.7428073 48.3157658,49.8121622 Z" id="Path" stroke="#263238" stroke-width="0.55" fill="#FFFFFF" fill-rule="nonzero" stroke-linecap="round" stroke-linejoin="round"></path>
                            <path d="M50.1490991,34.2833333 C49.1581081,41.4036036 47.2900901,45.8283784 45.1297297,47.0423423 C43.8379644,46.1697798 42.3465538,45.6379854 40.7941441,45.4963964 C37.3256757,45.2635135 48.9400901,30.0468468 50.1490991,33.2972973 C50.4959459,34.213964 49.7130631,33.5599099 50.1490991,34.2833333 Z" id="Path" fill="#263238" fill-rule="nonzero"></path>
                            <path d="M49.0540541,35.3189189 C49.0540541,35.3189189 54.5045045,48.1572072 63.8346847,49.8121622 C68.4328829,50.6297297 75.4936937,48.068018 78.6103604,52.5324324 C78.6103604,52.5324324 76.6283784,44.109009 70.4247748,40.6405405 C64.2211712,37.1720721 57.1306306,31.7612613 57.1306306,31.7612613 L49.0540541,35.3189189 Z" id="Path" fill="#263238" fill-rule="nonzero"></path>
                            <path d="M36.4783784,8.88918919 C20.2459459,14.3148649 22.0693694,35.0216216 34.9076577,47.3545045 C38.4256757,50.7387387 48.404955,42.8058559 51.3878378,35.3536036 C56.6797297,22.1288288 51.2094595,3.96396396 36.4783784,8.88918919 Z" id="Path" stroke="#263238" stroke-width="0.55" fill="#FFFFFF" fill-rule="nonzero" stroke-linecap="round" stroke-linejoin="round"></path>
                            <path d="M32.8761261,29.7297297 C32.8761261,29.7297297 33.7481982,28.3621622 37.9698198,29.2342342" id="Path" stroke="#263238" stroke-width="0.55" stroke-linecap="round" stroke-linejoin="round"></path>
                            <path d="M28.5306306,29.7297297 C28.5306306,29.7297297 25.9292793,28.1144144 25.1810811,29.7297297" id="Path" stroke="#263238" stroke-width="0.55" stroke-linecap="round" stroke-linejoin="round"></path>
                            <path d="M29.7693694,30.9635135 C30.4435474,32.0187744 30.7095788,33.2837451 30.5175676,34.5211712 C30.1459459,36.4585586 28.9022523,37.2117117 29.7693694,38.0788288 C30.6364865,38.9459459 32.8761261,38.722973 32.8761261,38.722973" id="Path" stroke="#263238" stroke-width="0.55" stroke-linecap="round" stroke-linejoin="round"></path>
                            <path d="M37.513964,32.9554054 C37.6675676,33.5153153 37.513964,34.0554054 37.1324324,34.1545045 C36.7509009,34.2536036 36.3495495,33.881982 36.1959459,33.3171171 C36.0423423,32.7522523 36.1959459,32.2171171 36.5725225,32.118018 C36.9490991,32.0189189 37.3554054,32.3905405 37.513964,32.9554054 Z" id="Path" fill="#263238" fill-rule="nonzero"></path>
                            <path d="M29.1896396,33.1189189 C29.3432432,33.6837838 29.1896396,34.2189189 28.8081081,34.318018 C28.4265766,34.4171171 28.0252252,34.0454955 27.8716216,33.4855856 C27.718018,32.9256757 27.8716216,32.3855856 28.2481982,32.2815315 C28.6247748,32.1774775 29.0310811,32.559009 29.1896396,33.1189189 Z" id="Path" fill="#263238" fill-rule="nonzero"></path>
                            <path d="M27.2869369,25.3297297 C27.2869369,25.3297297 41.686036,34.2486486 52.9585586,29.7198198 C52.9585586,29.7198198 41.5324324,32.5342342 29.9378378,25.3297297 C29.9378378,25.3297297 48.1274775,33.1932432 53.3599099,28.0995495 C58.5923423,23.0058559 43.5193694,14.2256757 43.5193694,14.2256757 L24.3882883,20.022973 L23.2238739,25.8599099 C23.2238739,25.8599099 22.0644144,30.4135135 25.627027,31.7662204 C25.627027,31.7711712 23.9720721,27.4009009 27.2869369,25.3297297 Z" id="Path" fill="#263238" fill-rule="nonzero"></path>
                            <path d="M24.7747748,23.8779279 C24.7747748,23.8779279 36.0968468,25.3941441 40.4472973,24.7747748 C44.7977477,24.1554054 47.522973,33.2527027 48.1423423,39.9369369 C48.7617117,46.6211712 47.8945946,57.0513514 47.8945946,57.0513514 L49.1581081,56.7094595 C49.1581081,56.7094595 49.9806306,42.895045 49.4702703,39.9369369 C48.9599099,36.9788288 58.0274775,34.8184685 58.081982,32.2220721 C58.081982,31.4045045 56.1792793,28.931982 56.1792793,28.931982 C56.1792793,28.931982 57.7896396,15.8063063 55.3914414,12.0851351 C53.8680739,9.76081621 52.1061135,7.60195802 50.1342342,5.64369369 C50.1342342,5.64369369 53.9842342,4.27612613 51.0013514,1.41711712 C48.0184685,-1.44189189 42.3054054,0.673873874 42.1815315,3.15630631 C42.1815315,3.15630631 32.3657658,3.03243243 28.5157658,6.26306306 C24.6657658,9.49369369 24.1653153,18.6851351 24.1653153,18.6851351 C24.1653153,18.6851351 19.3936937,21.5391892 23.209009,25.8896396 C23.2238739,25.8648649 23.9324324,23.7837838 24.7747748,23.8779279 Z" id="Path" fill="#FB7D00" fill-rule="nonzero"></path>
                            <path d="M58.0968468,32.2072072 C58.0968468,33.222973 56.6698198,34.1891892 55,35.1306306 C55.1932432,34.5558559 55.1932432,34.0504505 54.7918919,33.8324324 C53.5481982,33.1486486 51.3234234,35.7351351 50.4612613,34.6747748 C49.5990991,33.6144144 50.9567568,31.7018018 50.2432432,28.8328829 C49.5297297,25.963964 43.5887387,20.4094595 43.5887387,20.4094595 C44.6986486,19.6216216 46.9184685,20.1171171 46.9184685,20.1171171 C46.9184685,20.1171171 46.527027,18.8486486 46.2941441,15.2414414 C46.0612613,11.6342342 50.1490991,9.6027027 50.1490991,9.6027027 C49.063964,5.58918919 44.3468468,3.72117117 44.3468468,3.72117117 C46.4824324,1.92252252 50.2432432,2.96801802 50.2432432,2.96801802 C50.6632737,2.42778559 50.8195951,1.72797469 50.6693694,1.06036036 C50.7918348,1.15117666 50.9077383,1.25052254 51.0162162,1.35765766 C53.9891892,4.21666667 50.1490991,5.58423423 50.1490991,5.58423423 C52.1209784,7.54249856 53.8829388,9.70135676 55.4063063,12.0256757 C57.8045045,15.7567568 56.1941441,28.8725225 56.1941441,28.8725225 C56.1941441,28.8725225 58.1166667,31.4045045 58.0968468,32.2072072 Z" id="Path" fill-opacity="0.7" fill="#000000" fill-rule="nonzero" opacity="0.2"></path>
                            <path d="M24.7747748,23.8779279 C24.7747748,23.8779279 36.0968468,25.3941441 40.4472973,24.7747748 C44.7977477,24.1554054 47.522973,33.2527027 48.1423423,39.9369369 C48.7617117,46.6211712 47.8945946,57.0513514 47.8945946,57.0513514 L49.1581081,56.7094595 C49.1581081,56.7094595 49.9806306,42.895045 49.4702703,39.9369369 C48.9599099,36.9788288 58.0274775,34.8184685 58.081982,32.2220721 C58.081982,31.4045045 56.1792793,28.931982 56.1792793,28.931982 C56.1792793,28.931982 57.7896396,15.8063063 55.3914414,12.0851351 C53.8680739,9.76081621 52.1061135,7.60195802 50.1342342,5.64369369 C50.1342342,5.64369369 53.9842342,4.27612613 51.0013514,1.41711712 C48.0184685,-1.44189189 42.3054054,0.673873874 42.1815315,3.15630631 C42.1815315,3.15630631 32.3657658,3.03243243 28.5157658,6.26306306 C24.6657658,9.49369369 24.1653153,18.6851351 24.1653153,18.6851351 C24.1653153,18.6851351 19.3936937,21.5391892 23.209009,25.8896396 C23.2238739,25.8648649 23.9324324,23.7837838 24.7747748,23.8779279 Z" id="Path" stroke="#263238" stroke-width="0.55" stroke-linecap="round" stroke-linejoin="round"></path>
                            <path d="M24.1801802,18.6603604 C24.1801802,18.6603604 30.8891892,20.0279279 35.422973,19.1558559 C39.9567568,18.2837838 46.2941441,21.6333333 46.2941441,21.6333333" id="Path" stroke="#263238" stroke-width="0.55" stroke-linecap="round" stroke-linejoin="round"></path>
                            <path d="M56.1941441,28.931982 C56.1941441,28.931982 55.6986486,30.0864865 53.3599099,28.0995495" id="Path" stroke="#263238" stroke-width="0.55" stroke-linecap="round" stroke-linejoin="round"></path>
                            <path d="M50.1490991,5.61891892 C49.0702641,4.69993132 47.7106729,4.17566736 46.2941441,4.13243243" id="Path" stroke="#263238" stroke-width="0.55" stroke-linecap="round" stroke-linejoin="round"></path>
                            <path d="M24.3238739,17.1441441 C24.3238739,17.1441441 36.9045045,13.9432432 39.9220721,15.9301802" id="Path" stroke="#263238" stroke-width="0.55" stroke-linecap="round" stroke-linejoin="round"></path>
                            <path d="M52.8792793,23.5063063 C52.8792793,23.5063063 54.4698198,23.977027 56.2833333,28.0995495" id="Path" stroke="#263238" stroke-width="0.55" stroke-linecap="round" stroke-linejoin="round"></path>
                            <path d="M33.0842342,40.9031532 C33.0842342,40.9031532 35.6954955,41.5918919 37.7220721,39.9418919" id="Path" stroke="#263238" stroke-width="0.55" stroke-linecap="round" stroke-linejoin="round"></path>
                            <path d="M37.509009,40.1004505 C37.509009,40.1004505 36.854955,41.8941441 35.422973,42.0824324 C34.1743243,42.2608108 34.3378378,41.3094595 34.3378378,41.3094595" id="Path" stroke="#263238" stroke-width="0.55" stroke-linecap="round" stroke-linejoin="round"></path>
                            <polygon id="Path" fill="#263238" fill-rule="nonzero" points="29.6108108 79.745045 17.3621622 66.8274775 15.3603604 68.8391892 27.0936937 81.8707207"></polygon>
                            <path d="M43.6036036,84.145045 L35.0810811,78.5657658 C35.0810811,78.5657658 32.0436937,73.7346847 31.572973,73.4869369 C30.4581081,72.8972973 22.4509009,74.4036036 21.1031532,75.2756757 C19.7554054,76.1477477 18.263964,77.4707207 19.2599099,78.1743243 C20.2558559,78.8779279 19.8545045,80.6171171 19.804955,81.1126126 C19.7554054,81.6081081 20.3945946,82.2423423 21.3806306,82.7328829 C22.3666667,83.2234234 21.3806306,84.8833333 22.3716216,85.1310811 C23.3626126,85.3788288 23.1,87.0783784 23.9720721,87.45 C24.8441441,87.8216216 32.777027,86.7117117 32.777027,86.7117117 L42.2707207,93.504955 L43.6036036,84.145045 Z" id="Path" stroke="#263238" stroke-width="0.55" fill="#FFFFFF" fill-rule="nonzero" stroke-linecap="round" stroke-linejoin="round"></path>
                            <path d="M69.1117117,56.3675676 C65.3855856,60.5792793 62.5711712,91.3891892 62.5711712,91.3891892 L42.2558559,82.3959459 L37.4941441,78.431982 C37.4941441,78.431982 33.7481982,83.1193694 35.2247748,92.068018 L39.0599099,94.2085586 L39.9072072,98.668018 C39.9072072,98.668018 60.3166667,109.311261 68.0166667,111.174324 C75.7166667,113.037387 79.4972973,88.877027 82.6882883,75.6027027" id="Path" stroke="#263238" stroke-width="0.55" fill="#DEE8FB" fill-rule="nonzero" stroke-linecap="round" stroke-linejoin="round"></path>
                            <polygon id="Path" stroke="#263238" stroke-width="0.55" fill="#FB7D00" fill-rule="nonzero" stroke-linecap="round" stroke-linejoin="round" points="10.6333333 68.745045 16.0986486 63.5621622 22.4855856 61.9666667 13.2 71.6833333"></polygon>
                            <path d="M4.25630631,68.6063063 C4.25630631,68.6063063 6.49099099,67.6153153 8.31441441,68.9927928 L7.12027027,69.8945946 L6.28288288,85.0072072 L4.7518018,84.6801802 L5.47522523,69.8648649 L4.25630631,68.6063063 Z" id="Path" stroke="#263238" stroke-width="0.55" fill="#757575" fill-rule="nonzero" stroke-linecap="round" stroke-linejoin="round"></path>
                            <path d="M0.649099099,78.0504505 C0.649099099,78.0504505 1.89279279,74.7752252 4.7518018,74.8594595 L6.78333333,75.9842342 C6.78333333,75.9842342 8.62657658,75.4094595 9.79594595,75.9842342 C10.9653153,76.559009 10.1576577,80.295045 10.1576577,80.295045 L11.4756757,85.4878378 C11.4756757,85.4878378 9.72162162,90.7896396 5.41576577,89.977027 C1.10990991,89.1644144 -0.465765766,84.0112613 0.649099099,78.0504505 Z" id="Path" stroke="#263238" stroke-width="0.55" fill="#FFFFFF" fill-rule="nonzero" stroke-linecap="round" stroke-linejoin="round"></path>
                            <path d="M39.9220721,85.6067568 C39.9220721,85.6067568 38.3364865,90.2941441 39.0747748,94.1887387" id="Path" stroke="#263238" stroke-width="0.55" stroke-linecap="round" stroke-linejoin="round"></path>
                            <path d="M62.5711712,91.3891892 C62.5711712,91.3891892 64.9099099,90.9977477 65.9009009,92.6576577" id="Path" stroke="#263238" stroke-width="0.55" stroke-linecap="round" stroke-linejoin="round"></path>
                            <path d="M42.2707207,82.3959459 C41.5598435,82.6768698 40.9514437,83.1677379 40.5265766,83.8031532" id="Path" stroke="#263238" stroke-width="0.55" stroke-linecap="round" stroke-linejoin="round"></path>
                            <path d="M62.7,90.0612613 C62.7,90.0612613 64.3153153,88.8968468 65.8959459,89.8977477" id="Path" stroke="#263238" stroke-width="0.55" stroke-linecap="round" stroke-linejoin="round"></path>
                            <path d="M83.3076577,66.3963964 C83.3076577,66.3963964 83.0648649,76.5144144 75.3202703,80.0423423" id="Path" stroke="#263238" stroke-width="0.55" stroke-linecap="round" stroke-linejoin="round"></path>
                            <path d="M64.7364865,61.8328829 C64.7364865,61.8328829 64.0675676,70.5337838 64.6027027,74.3490991" id="Path" stroke="#263238" stroke-width="0.55" stroke-linecap="round" stroke-linejoin="round"></path>
                            <path d="M86.8256757,100.481532 C86.8256757,100.481532 81.3752252,116.773423 75.3202703,116.773423" id="Path" stroke="#263238" stroke-width="0.55" stroke-linecap="round" stroke-linejoin="round"></path>
                            <path d="M46.5072072,102.954054 C46.5072072,102.954054 62.5810811,128.630631 75.3153153,127.064865" id="Path" stroke="#263238" stroke-width="0.55" stroke-linecap="round" stroke-linejoin="round"></path>
                            <path d="M62.5711712,51.8486486 C62.5711712,51.8486486 53.4144144,65.122973 49.0292793,65.227027" id="Path" stroke="#263238" stroke-width="0.55" stroke-linecap="round" stroke-linejoin="round"></path>
                        </g>
                        <g id="freepik--frozen-fgiure--inject-57" transform="translate(7.927928, 38.036036)">
                            <polygon id="Path" fill="#FB7D00" fill-rule="nonzero" points="13.0612613 156.393243 0.222972973 156.393243 3.16126126 151.606757 10.8067568 152.097297"></polygon>
                            <g id="Group" transform="translate(0.000000, 151.126126)" fill="#FFFFFF" fill-rule="nonzero" opacity="0.4">
                                <polygon id="Path" points="13.0612613 5.26711712 0.222972973 5.26711712 3.16126126 0.480630631 10.8067568 0.971171171"></polygon>
                                <polygon id="Path" points="3.81531532 1.07027027 9.56801802 2.24459459 3.42387387 4.4"></polygon>
                            </g>
                            <polygon id="Path" stroke="#263238" stroke-width="0.55" stroke-linecap="round" stroke-linejoin="round" points="13.0612613 156.393243 0.222972973 156.393243 3.16126126 151.606757 10.8067568 152.097297"></polygon>
                            <polygon id="Path" fill="#FB7D00" fill-rule="nonzero" points="24.531982 156.393243 11.5945946 156.393243 6.49594595 146.755856 17.0797297 139.759459 28.8427928 145.75991"></polygon>
                            <g id="Group" transform="translate(6.441441, 139.729730)" fill-rule="nonzero">
                                <polygon id="Path" fill="#FFFFFF" opacity="0.6" points="18.0905405 16.6635135 5.15315315 16.6635135 0.0545045045 7.02612613 10.6382883 0.0297297297 22.4013514 6.03018018"></polygon>
                                <polygon id="Path" fill="#FB7D00" opacity="0.5" points="6.00045045 16.1927928 11.2279279 5.1481982 17.8923423 8.34414414 17.4364865 15.9301802"></polygon>
                                <polygon id="Path" fill="#FFFFFF" opacity="0.4" points="1.45675676 6.09459459 11.2279279 7.56621622 20.9297297 6.09459459 10.6382883 0.0297297297"></polygon>
                            </g>
                            <polygon id="Path" stroke="#263238" stroke-width="0.55" stroke-linecap="round" stroke-linejoin="round" points="24.531982 156.393243 11.5945946 156.393243 6.49594595 146.755856 17.0797297 139.759459 28.8427928 145.75991"></polygon>
                            <polyline id="Path" stroke="#263238" stroke-width="0.55" stroke-linecap="round" stroke-linejoin="round" points="6.49594595 146.755856 17.6693694 148.073874 20.6076577 154.351802"></polyline>
                            <polygon id="Path" fill="#FB7D00" fill-rule="nonzero" points="155.238739 130.553153 155.238739 156.393243 22.0495495 156.393243 22.0495495 113.557658 30.2747748 108.022973 30.3441441 107.84955 34.9720721 95.7941441 47.5824324 87.4153153 52.2896396 76.4698198 92.95 78.8382883 105.852703 97.4243243 123.527027 108.92973 123.809459 109.113063 126.395946 122.387387 154.604505 130.37973 154.609459 130.37973"></polygon>
                            <g id="Group" transform="translate(21.801802, 76.306306)" fill-rule="nonzero">
                                <polygon id="Path" fill="#FFFFFF" opacity="0.6" points="133.436937 54.2468468 133.436937 80.0869369 0.247747748 80.0869369 0.247747748 37.2513514 8.47297297 31.7166667 8.54234234 31.5432432 13.1702703 19.4878378 25.7806306 11.109009 30.4878378 0.163513514 71.1481982 2.53198198 84.0509009 21.118018 101.725225 32.6234234 102.007658 32.8067568 104.594144 46.0810811 132.802703 54.0734234 132.807658 54.0734234"></polygon>
                                <polygon id="Path" fill="#FB7D00" opacity="0.5" points="47.2256757 53.2558559 104.594144 46.0810811 100.932432 75.7810811 133.436937 80.0869369 0.247747748 80.0869369 50.7734234 73.4621622"></polygon>
                                <polygon id="Path" fill="#FB7D00" opacity="0.5" points="14.3297297 20.8851351 57.5666667 30.0617117 47.2256757 53.2558559 8.47297297 31.7166667"></polygon>
                                <polygon id="Path" fill="#FB7D00" opacity="0.5" points="70.8211712 4.05315315 81.7518018 20.8851351 58.8896396 29.2342342 58.0621622 9.44414414"></polygon>
                                <g opacity="0.5" fill="#FFFFFF" id="Path">
                                    <polygon points="30.4828829 0.163513514 46.7896396 12.5310811 71.1481982 2.53198198"></polygon>
                                    <polygon points="47.4635135 15.9797297 66.8423423 8.36396396 47.2256757 22.2774775 14.0671171 18.8981982 25.0126126 11.6243243"></polygon>
                                    <polygon points="101.725225 32.6234234 54.1279279 48.4495495 0.247747748 37.2513514 8.47297297 31.7166667 8.54234234 31.5432432 63.5324324 38.4752252 84.0509009 24.7599099 84.0509009 21.118018"></polygon>
                                    <polygon points="132.802703 54.0734234 80.5873874 57.5567568 80.5873874 53.4193694 104.594144 46.0810811"></polygon>
                                    <polygon points="74.6315315 61.7040541 0.247747748 75.3648649 0.247747748 47.1414414"></polygon>
                                </g>
                            </g>
                            <polygon id="Path" stroke="#263238" stroke-width="0.55" stroke-linecap="round" stroke-linejoin="round" points="155.238739 130.553153 155.238739 156.393243 22.0495495 156.393243 22.0495495 113.557658 30.2747748 108.022973 30.3441441 107.84955 34.9720721 95.7941441 47.5824324 87.4153153 52.2896396 76.4698198 92.95 78.8382883 105.852703 97.4243243 123.527027 108.92973 123.809459 109.113063 126.395946 122.387387 154.604505 130.37973 154.609459 130.37973"></polygon>
                            <polyline id="Path" stroke="#263238" stroke-width="0.55" stroke-linecap="round" stroke-linejoin="round" points="155.238739 130.553153 102.726126 135.344595 28.6792793 116.431532"></polyline>
                            <polyline id="Path" stroke="#263238" stroke-width="0.55" stroke-linecap="round" stroke-linejoin="round" points="30.2747748 108.022973 84.3382883 114.484234 104.554505 100.238739"></polyline>
                            <line x1="123.809459" y1="109.113063" x2="92.622973" y2="120.45" id="Path" stroke="#263238" stroke-width="0.55" stroke-linecap="round" stroke-linejoin="round"></line>
                            <polyline id="Path" stroke="#263238" stroke-width="0.55" stroke-linecap="round" stroke-linejoin="round" points="47.5824324 87.4153153 69.2653153 92.286036 90.4675676 81.9054054"></polyline>
                            <line x1="34.9720721" y1="95.7941441" x2="65.9504505" y2="98.5837838" id="Path" stroke="#263238" stroke-width="0.55" stroke-linecap="round" stroke-linejoin="round"></line>
                            <path d="M60.4801802,54.231982 C60.4801802,54.231982 46.2099099,54.4351351 45.0058559,54.231982 C43.8018018,54.0288288 37.8509009,69.8103604 39.7783784,74.7355856 C40.3927928,76.3013514 45.2040541,78.6995495 45.2040541,78.6995495 L48.0630631,73.7445946 L42.6126126,71.2671171 L47.0324324,61.2432432 L56.8828829,63.9238739 L60.4801802,54.231982 Z" id="Path" stroke="#263238" stroke-width="0.55" fill="#FB7D00" fill-rule="nonzero" stroke-linecap="round" stroke-linejoin="round"></path>
                            <path d="M90.4675676,31.2162162 C90.4675676,31.2162162 86.9990991,25.7657658 85.3342342,20.1567568 C83.6693694,14.5477477 76.5540541,9.55810811 76.5540541,9.55810811 C77.2384048,8.64585773 77.4800394,7.47583722 77.2130631,6.36711712 C73.5711712,7.69504505 67.2783784,3.71621622 67.2783784,3.71621622 C70.2513514,3.22072072 70.5882883,0.743243243 70.5882883,0.743243243 C66.7779279,2.72522523 54.8513514,-2.22972973 49.386036,1.52612613 C43.9207207,5.28198198 47.5675676,10.445045 47.6121622,10.4846847 C46.9382883,13.0959459 44.8373874,17.0698198 46.0563063,18.3878378 C46.0563063,18.3878378 44.1585586,24.1653153 41.6711712,27.6783784 C40.8981982,28.7684685 46.5220721,29.8981982 46.5220721,29.8981982 C49.6040541,28.6594595 53.2310811,24.6954955 53.2310811,24.6954955 C57.3783784,24.0711712 57.5369369,20.6572072 57.5369369,20.6572072 C57.5369369,20.6572072 61.1391892,20.1171171 62.8189189,24.6211712 C65.1725225,30.9337838 51.4225225,36.8301802 49.6486486,41.8297297 C47.8747748,46.8292793 48.2364865,50.3027027 48.2364865,50.3027027 L42.0576577,53.7711712 C42.0576577,53.7711712 34.213964,48.3702703 32.7027027,48.4495495 C31.1914414,48.5288288 23.1842342,62.0756757 23.645045,65.1576577 C24.1058559,68.2396396 30.8743243,69.8301802 30.8743243,69.8301802 L32.231982,65.4698198 L27.8815315,63.2351351 L33.1981982,55.0545045 C33.1981982,55.0545045 41.9189189,66.3121622 44.6490991,67.7738739 C47.3792793,69.2355856 54.0981982,69.3693694 54.0981982,69.3693694 L59.8509009,80.3990991 C70.836036,84.15 86.9891892,79.1801802 86.9891892,79.1801802 C80.3297297,70.4990991 81.177027,54.9009009 82.5743243,43.4252252 C85.4531532,42.2063063 85.3342342,38.8468468 85.3342342,38.8468468 C87.5540541,38.3513514 89.1445946,34.8085586 89.1445946,34.8085586 C87.9638669,34.4814868 86.844266,33.9643618 85.8297297,33.2774775 C88.9761261,34.0900901 90.4675676,31.2162162 90.4675676,31.2162162 Z" id="Path" fill="#FB7D00" fill-rule="nonzero"></path>
                            <path d="M90.4675676,31.2162162 C90.4675676,31.2162162 86.9990991,25.7657658 85.3342342,20.1567568 C83.6693694,14.5477477 76.5540541,9.55810811 76.5540541,9.55810811 C77.2384048,8.64585773 77.4800394,7.47583722 77.2130631,6.36711712 C73.5711712,7.69504505 67.2783784,3.71621622 67.2783784,3.71621622 C70.2513514,3.22072072 70.5882883,0.743243243 70.5882883,0.743243243 C66.7779279,2.72522523 54.8513514,-2.22972973 49.386036,1.52612613 C43.9207207,5.28198198 47.5675676,10.445045 47.6121622,10.4846847 C46.9382883,13.0959459 44.8373874,17.0698198 46.0563063,18.3878378 C46.0563063,18.3878378 44.1585586,24.1653153 41.6711712,27.6783784 C40.8981982,28.7684685 46.5220721,29.8981982 46.5220721,29.8981982 C49.6040541,28.6594595 53.2310811,24.6954955 53.2310811,24.6954955 C57.3783784,24.0711712 57.5369369,20.6572072 57.5369369,20.6572072 C57.5369369,20.6572072 61.1391892,20.1171171 62.8189189,24.6211712 C65.1725225,30.9337838 51.4225225,36.8301802 49.6486486,41.8297297 C47.8747748,46.8292793 48.2364865,50.3027027 48.2364865,50.3027027 L42.0576577,53.7711712 C42.0576577,53.7711712 34.213964,48.3702703 32.7027027,48.4495495 C31.1914414,48.5288288 23.1842342,62.0756757 23.645045,65.1576577 C24.1058559,68.2396396 30.8743243,69.8301802 30.8743243,69.8301802 L32.231982,65.4698198 L27.8815315,63.2351351 L33.1981982,55.0545045 C33.1981982,55.0545045 41.9189189,66.3121622 44.6490991,67.7738739 C47.3792793,69.2355856 54.0981982,69.3693694 54.0981982,69.3693694 L59.8509009,80.3990991 C70.836036,84.15 86.9891892,79.1801802 86.9891892,79.1801802 C80.3297297,70.4990991 81.177027,54.9009009 82.5743243,43.4252252 C85.4531532,42.2063063 85.3342342,38.8468468 85.3342342,38.8468468 C87.5540541,38.3513514 89.1445946,34.8085586 89.1445946,34.8085586 C87.9638669,34.4814868 86.844266,33.9643618 85.8297297,33.2774775 C88.9761261,34.0900901 90.4675676,31.2162162 90.4675676,31.2162162 Z" id="Path" fill="#FFFFFF" fill-rule="nonzero" opacity="0.6"></path>
                            <path d="M90.4675676,31.2162162 C90.4675676,31.2162162 86.9990991,25.7657658 85.3342342,20.1567568 C83.6693694,14.5477477 76.5540541,9.55810811 76.5540541,9.55810811 C77.2384048,8.64585773 77.4800394,7.47583722 77.2130631,6.36711712 C73.5711712,7.69504505 67.2783784,3.71621622 67.2783784,3.71621622 C70.2513514,3.22072072 70.5882883,0.743243243 70.5882883,0.743243243 C66.7779279,2.72522523 54.8513514,-2.22972973 49.386036,1.52612613 C43.9207207,5.28198198 47.5675676,10.445045 47.6121622,10.4846847 C46.9382883,13.0959459 44.8373874,17.0698198 46.0563063,18.3878378 C46.0563063,18.3878378 44.1585586,24.1653153 41.6711712,27.6783784 C40.8981982,28.7684685 46.5220721,29.8981982 46.5220721,29.8981982 C49.6040541,28.6594595 53.2310811,24.6954955 53.2310811,24.6954955 C57.3783784,24.0711712 57.5369369,20.6572072 57.5369369,20.6572072 C57.5369369,20.6572072 61.1391892,20.1171171 62.8189189,24.6211712 C65.1725225,30.9337838 51.4225225,36.8301802 49.6486486,41.8297297 C47.8747748,46.8292793 48.2364865,50.3027027 48.2364865,50.3027027 L42.0576577,53.7711712 C42.0576577,53.7711712 34.213964,48.3702703 32.7027027,48.4495495 C31.1914414,48.5288288 23.1842342,62.0756757 23.645045,65.1576577 C24.1058559,68.2396396 30.8743243,69.8301802 30.8743243,69.8301802 L32.231982,65.4698198 L27.8815315,63.2351351 L33.1981982,55.0545045 C33.1981982,55.0545045 41.9189189,66.3121622 44.6490991,67.7738739 C47.3792793,69.2355856 54.0981982,69.3693694 54.0981982,69.3693694 L59.8509009,80.3990991 C70.836036,84.15 86.9891892,79.1801802 86.9891892,79.1801802 C80.3297297,70.4990991 81.177027,54.9009009 82.5743243,43.4252252 C85.4531532,42.2063063 85.3342342,38.8468468 85.3342342,38.8468468 C87.5540541,38.3513514 89.1445946,34.8085586 89.1445946,34.8085586 C87.9638669,34.4814868 86.844266,33.9643618 85.8297297,33.2774775 C88.9761261,34.0900901 90.4675676,31.2162162 90.4675676,31.2162162 Z" id="Path" stroke="#263238" stroke-width="0.55" stroke-linecap="round" stroke-linejoin="round"></path>
                            <path d="M74.8198198,16.3513514 C77.4905405,21.0238739 78.3279279,29.6653153 84.0013514,31.8306306" id="Path" stroke="#263238" stroke-width="0.55" stroke-linecap="round" stroke-linejoin="round"></path>
                            <path d="M63.5027027,7.5463964 C67.1346847,8.72072072 70.4941441,10.6382883 72.9468468,13.6162162" id="Path" stroke="#263238" stroke-width="0.55" stroke-linecap="round" stroke-linejoin="round"></path>
                            <path d="M57.0563063,6.05 C58.1514337,6.14203079 59.2360162,6.33274483 60.2968468,6.61981982" id="Path" stroke="#263238" stroke-width="0.55" stroke-linecap="round" stroke-linejoin="round"></path>
                            <path d="M48.3504505,8.72072072 C49.5118227,7.62738059 50.9294539,6.84359411 52.472973,6.44144144" id="Path" stroke="#263238" stroke-width="0.55" stroke-linecap="round" stroke-linejoin="round"></path>
                            <path d="M53.0725225,7.10540541 C53.0725225,7.10540541 52.0815315,5.12342342 52.3243243,3.37432432 C52.3243243,3.37432432 54.8018018,5.35630631 55.9315315,5.61396396 C57.0612613,5.87162162 57.0563065,7.10045045 57.0563065,7.10045045" id="Path" stroke="#263238" stroke-width="0.55" stroke-linecap="round" stroke-linejoin="round"></path>
                            <path d="M82.1432432,33.2576577 C82.1432432,33.2576577 80.7756757,38.7081081 82.1432432,42.1369369" id="Path" stroke="#263238" stroke-width="0.55" stroke-linecap="round" stroke-linejoin="round"></path>
                            <path d="M85.3342342,38.827027 C84.2921376,37.7155244 83.6309333,36.3011374 83.4463964,34.7887387" id="Path" stroke="#263238" stroke-width="0.55" stroke-linecap="round" stroke-linejoin="round"></path>
                            <path d="M78.2288288,17.6990991 C80.8759299,18.5552877 82.9974998,20.5567688 84.0063063,23.1495495 C85.686036,27.5 87.6085586,31.2855856 90.4477477,31.2261261" id="Path" stroke="#263238" stroke-width="0.55" stroke-linecap="round" stroke-linejoin="round"></path>
                            <path d="M76.5540541,9.5481982 C76.5540541,9.5481982 74.8148649,11.0644144 71.5990991,9.5481982" id="Path" stroke="#263238" stroke-width="0.55" stroke-linecap="round" stroke-linejoin="round"></path>
                            <path d="M67.2783784,3.70630631 C65.1873874,4.2018018 58.854955,2.2990991 57.4824324,3.70630631" id="Path" stroke="#263238" stroke-width="0.55" stroke-linecap="round" stroke-linejoin="round"></path>
                            <path d="M49.3265766,7.92792793 C49.3265766,7.92792793 47.5477477,3.84009009 51.145045,1.98198198" id="Path" stroke="#263238" stroke-width="0.55" stroke-linecap="round" stroke-linejoin="round"></path>
                            <path d="M43.2567568,27.9112613 C43.2567568,27.9112613 42.9445946,26.8558559 43.8761261,26.6081081" id="Path" stroke="#263238" stroke-width="0.55" stroke-linecap="round" stroke-linejoin="round"></path>
                            <path d="M47.6072072,17.6990991 C47.6072072,17.6990991 47.3148649,16.9806306 48.8855856,15.9846847" id="Path" stroke="#263238" stroke-width="0.55" stroke-linecap="round" stroke-linejoin="round"></path>
                            <path d="M47.631982,17.2779279 C47.631982,17.2779279 49.1581081,17.6247748 48.3504505,16.3711712" id="Path" fill="#263238" fill-rule="nonzero"></path>
                            <path d="M57.5369369,20.6373874 C57.5369369,20.6373874 57.6707207,18.7644144 55.6788288,17.3225225" id="Path" stroke="#263238" stroke-width="0.55" stroke-linecap="round" stroke-linejoin="round"></path>
                            <path d="M61.7288288,16.7626126 C61.7288288,16.7626126 65.0387387,21.8265766 64.7018018,27.2621622 C64.3648649,32.6977477 55.990991,36.9342342 55.990991,36.9342342" id="Path" stroke="#263238" stroke-width="0.55" stroke-linecap="round" stroke-linejoin="round"></path>
                            <path d="M48.2364865,50.2927928 C48.2364865,50.2927928 49.386036,46.0315315 51.9527027,45.1198198" id="Path" stroke="#263238" stroke-width="0.55" stroke-linecap="round" stroke-linejoin="round"></path>
                            <path d="M54.0981982,69.3693694 C54.0981982,69.3693694 59.9004505,70.4 60.4801802,65.3509009" id="Path" stroke="#263238" stroke-width="0.55" stroke-linecap="round" stroke-linejoin="round"></path>
                            <path d="M30.2747748,64.459009 C30.2747748,64.459009 28.8427928,66.1585586 28.6792793,67.981982" id="Path" stroke="#263238" stroke-width="0.55" stroke-linecap="round" stroke-linejoin="round"></path>
                            <path d="M45.431982,72.5851351 C45.431982,72.5851351 43.4995495,74.2747748 43.5441441,76.3459459" id="Path" stroke="#263238" stroke-width="0.55" stroke-linecap="round" stroke-linejoin="round"></path>
                            <path d="M75.7265766,44.1882883 C75.7265766,44.1882883 76.5788288,51.4175676 74.8247748,55.8869369 C73.0707207,60.3563063 67.1099099,64.0031532 65.9504505,63.8148649 C64.790991,63.6265766 60.5,60.7972973 60.5,60.7972973" id="Path" stroke="#263238" stroke-width="0.55" stroke-linecap="round" stroke-linejoin="round"></path>
                            <path d="M76.5540541,60.0292793 C76.5540541,60.0292793 75.3054054,68.5716216 72.9468468,72.5851351 C70.5882883,76.5986486 71.5842342,77.4707207 71.5842342,77.4707207" id="Path" stroke="#263238" stroke-width="0.55" stroke-linecap="round" stroke-linejoin="round"></path>
                            <path d="M63.5027027,14.3099099 C63.5027027,14.3099099 71.2126126,20.2855856 70.836036,29.5959459 C70.4594595,38.9063063 59.286036,47.7063063 59.286036,47.7063063 C59.286036,47.7063063 55.8175676,45.8184685 54.3310811,47.7063063 C52.8445946,49.5941441 53.572973,54.8117117 53.572973,54.8117117 C53.572973,54.8117117 46.1900901,57.9184685 43.5490991,58.5378378 C40.9081081,59.1572072 34.1891892,51.2986486 34.1891892,51.2986486 L43.2072072,55.8869369 L49.940991,52.0765766 C49.940991,52.0765766 50.0747748,43.8761261 57.5369369,45.9918919 C57.5369369,45.9918919 65.1626126,38.7873874 65.9603604,33.2576577 C65.9603604,33.2576577 61.5009009,38.7081081 56.6202703,38.827027 C56.6103604,38.827027 71.2027027,31.5779279 63.5027027,14.3099099 Z" id="Path" fill="#FFFFFF" fill-rule="nonzero"></path>
                            <path d="M51.9527027,9.5481982 C51.9527027,9.5481982 50.8378378,12.6698198 51.9527027,13.6162162 C51.9527027,13.6162162 47.9887387,14.959009 46.859009,16.346399 C46.859009,16.3513514 47.2306306,9.38468468 51.9527027,9.5481982 Z" id="Path" fill="#FFFFFF" fill-rule="nonzero"></path>
                            <path d="M50.6495495,16.3513514 C50.6495495,16.3513514 49.4058559,19.2202703 47.295045,18.6009009 L47.295045,20.6423423 C47.295045,20.6423423 51.1896396,21.2072072 52.2846847,20.9594595 C53.3797297,20.7117117 54.3261261,16.0045045 54.3261261,16.0045045 C53.0930147,15.758814 51.8149576,15.8793855 50.6495495,16.3513514 Z" id="Path" fill="#FFFFFF" fill-rule="nonzero"></path>
                            <path d="M46.859009,19.6513514 L47.295045,22.3864865 C47.295045,22.3864865 44.8175676,25.1166667 44.8175676,25.8004505 C44.3669985,25.7820796 43.9229305,25.9126879 43.5540541,26.1720721 C43.5540541,26.1720721 45.5310811,20.6423423 46.859009,19.6513514 Z" id="Path" fill="#FFFFFF" fill-rule="nonzero"></path>
                            <path d="M48.2364865,7.10540541 C48.2364865,7.10540541 47.3941441,4.09279279 48.5882883,3.17612613 C48.5882883,3.17612613 46.5072072,4.74684685 47.5972973,7.91306306 L48.2364865,7.10540541 Z" id="Path" fill="#FFFFFF" fill-rule="nonzero"></path>
                            <path d="M68.4774775,1.9472973 C68.4774775,1.9472973 63.7355856,1.69954955 60.2968468,1.13963964 C56.8581081,0.57972973 53.568018,1.54594595 53.3846847,3.17612613 L55.6788288,4.37027027 C55.6788288,4.37027027 55.1833333,1.4518018 59.4693694,1.9472973 C63.7554054,2.44279279 67.7936937,3.06711712 68.4774775,1.9472973 Z" id="Path" fill="#FFFFFF" fill-rule="nonzero"></path>
                            <path d="M61.7040541,5.54459459 C61.7040541,5.54459459 62.9477477,4.58828829 67.5459459,6.00045045 C72.1441441,7.41261261 75.8207207,8.03198198 76.5540541,7.35810811 C76.5540541,7.35810811 76.8612613,9.83558559 74.0765766,9.5481982 C71.2918919,9.26081081 68.2148649,7.53153153 66.8720721,7.91306306 C65.419925,6.63233471 63.6222228,5.80845967 61.7040541,5.54459459 L61.7040541,5.54459459 Z" id="Path" fill="#FFFFFF" fill-rule="nonzero"></path>
                            <path d="M55.4310811,8.72072072 C55.4310811,8.72072072 62.1945946,7.66036036 68.2247748,11.327027 C74.254955,14.9936937 75.7463964,22.8175676 77.1734234,26.6081081 C77.958269,28.8021222 79.360664,30.722457 81.2117117,32.1378378 C81.2117117,32.1378378 79.5369369,36.0076577 80.1563063,38.827027 C80.4312828,40.2757292 80.8961005,41.6818444 81.5387387,43.009009 C81.5387387,43.009009 80.7657658,52.027027 80.7162162,54.6878378 C80.6666667,57.3486486 80.8400901,61.3968468 80.8400901,61.3968468 C79.8343654,58.382699 79.0071062,55.3119127 78.3626126,52.2004505 C77.4954955,47.740991 78.9225225,42.3896396 78.9225225,42.3896396 C78.9225225,42.3896396 76.8018018,38.1531532 74.5671171,29.2788288 C72.3324324,20.4045045 66.6144144,12.1346847 61.6842342,10.8315315 C56.7540541,9.52837838 54.9157658,11.2675676 54.9157658,11.2675676 C54.9157658,11.2675676 54.2518018,9.58783784 55.4310811,8.72072072 Z" id="Path" fill="#FFFFFF" fill-rule="nonzero"></path>
                            <path d="M53.3846847,5.22747748 C54.0784508,5.58533619 54.7080234,6.05584121 55.2477477,6.61981982 L53.8801802,7.11531532 C53.5835399,6.52809272 53.4146675,5.88468891 53.3846847,5.22747748 L53.3846847,5.22747748 Z" id="Path" fill="#FFFFFF" fill-rule="nonzero"></path>
                            <path d="M74.8891892,13.9432432 L76.5540541,16.7626126 C78.8879639,16.7632225 81.0946252,17.8264321 82.5495495,19.6513514 C84.2177665,21.7748545 85.6019586,24.1068268 86.6671171,26.5882883 C86.6671171,26.5882883 85.4036036,20.5432432 83.0103604,18.040991 C80.8407338,15.8012284 77.979829,14.3576846 74.8891892,13.9432432 Z" id="Path" fill="#FFFFFF" fill-rule="nonzero"></path>
                            <path d="M79.418018,63.8445946 C79.418018,63.8445946 80.7905405,74.7851351 84.7941441,78.1198198 C84.7941441,78.1198198 77.1635135,81.0927928 75.2558559,79.6063063 C75.2558559,79.6063063 74.690991,73.5463964 76.5540541,71.5594595 C78.4171171,69.5725225 79.418018,63.8445946 79.418018,63.8445946 Z" id="Path" fill="#FB7D00" fill-rule="nonzero" opacity="0.5"></path>
                            <path d="M46.859009,66.218018 C46.859009,66.218018 58.9094595,65.8711712 59.6576577,62.7495495 C59.6576577,62.7495495 60.0441441,67.209009 57.0563063,67.9671171 C54.0684685,68.7252252 45.431982,67.3873874 45.431982,67.3873874 L46.859009,66.218018 Z" id="Path" fill="#FB7D00" fill-rule="nonzero" opacity="0.5"></path>
                            <path d="M31.8256757,54.8117117 C31.8256757,54.8117117 25.9887387,62.813964 25.8797297,63.8445946 C25.7707207,64.8752252 27.9905405,66.4756757 27.9905405,66.4756757 L28.8576577,64.459009 L27.1184685,63.8445946 L31.8256757,54.8117117 Z" id="Path" fill="#FB7D00" fill-rule="nonzero" opacity="0.5"></path>
                            <path d="M61.5207207,60.0292793 C61.5207207,60.0292793 69.1265766,57.5518018 70.8509009,54.0189189 C72.5752252,50.486036 72.9468468,41.4234234 72.9468468,41.4234234 L71.3761261,39.3671171 L72.9468468,34.9869369 C72.9468468,34.9869369 76.009009,43.5689189 74.4333333,51.2986486 C72.8576577,59.0283784 65.9405405,61.7684685 65.9405405,61.7684685 L61.5207207,60.0292793 Z" id="Path" fill="#FB7D00" fill-rule="nonzero" opacity="0.5"></path>
                            <path d="M62.5117117,65.3310811 C62.5117117,65.3310811 64.6671171,67.654955 65.9504505,67.3824324 C67.2337838,67.1099099 71.4009009,63.8445946 71.4009009,63.8445946 C71.4009009,63.8445946 70.7171171,69.9342342 69.0522523,70.945045 C67.3873874,71.9558559 67.8828829,80.6121622 67.8828829,80.6121622 L64.7463964,80.0423423 L63.5126126,70.945045 L65.2567568,70.945045 C65.2567568,70.945045 63.5076577,70.6328829 62.5117117,65.3310811 Z" id="Path" fill="#FB7D00" fill-rule="nonzero" opacity="0.5"></path>
                            <path d="M81.0481982,28.0599099 C81.0481982,28.0599099 83.4018018,27.4702703 84.7743243,28.7783784 C86.1468468,30.0864865 87.9306306,31.9148649 89.0207207,31.8256757 C89.0207207,31.8256757 86.9297297,33.3765766 85.8198198,32.45 C84.7099099,31.5234234 84.3878378,31.2063063 84.3878378,31.2063063 C82.9351255,30.5891794 81.7507172,29.473305 81.0481982,28.0599099 L81.0481982,28.0599099 Z" id="Path" fill="#FB7D00" fill-rule="nonzero" opacity="0.5"></path>
                            <path d="M84.3481982,34.3279279 C84.3481982,34.3279279 86.4045045,35.8144144 88.0396396,35.4427928 C88.0396396,35.4427928 87.1972973,37.7418919 85.8198198,37.6972973 C84.4423423,37.6527027 84.3481982,34.3279279 84.3481982,34.3279279 Z" id="Path" fill="#FB7D00" fill-rule="nonzero" opacity="0.5"></path>
                            <path d="M82.7477477,39.0995495 C82.7477477,39.0995495 83.9220721,40.3878378 84.3481982,40.2342342 C84.3481982,40.2342342 83.9765766,42.0923423 83.0103604,41.9783784 C82.0441441,41.8644144 82.7477477,39.0995495 82.7477477,39.0995495 Z" id="Path" fill="#FB7D00" fill-rule="nonzero" opacity="0.5"></path>
                        </g>
                        <g id="freepik--Table--inject-57" transform="translate(0.000000, 194.117117)" stroke="#263238" stroke-linecap="round" stroke-linejoin="round" stroke-width="0.55">
                            <line x1="0.0693693694" y1="0.312162162" x2="215.233333" y2="0.312162162" id="Path"></line>
                        </g>
                    </g>
                </g>
            </g>
        </g>
    </g>
</svg>