<?xml version="1.0" encoding="UTF-8"?>
<svg width="223px" height="201px" viewBox="0 0 223 201" version="1.1" xmlns="http://www.w3.org/2000/svg" xmlns:xlink="http://www.w3.org/1999/xlink">
    <title>Ethnic friendship-bro</title>
    <g id="Page-1" stroke="none" stroke-width="1" fill="none" fill-rule="evenodd">
        <g id="shopping-on-splitchek-copy" transform="translate(-150.000000, -3933.000000)">
            <g id="definitions" transform="translate(150.000000, 3790.000000)">
                <g id="Ethnic-friendship-bro" transform="translate(0.000000, 144.000000)">
                    <g id="freepik--background-simple--inject-4" transform="translate(0.000000, 14.569096)" fill-rule="nonzero">
                        <path d="M160.823389,176.329763 C160.823389,176.329763 126.314058,193.239626 89.0803063,176.766836 C51.8465545,160.294045 29.9783422,121.685942 11.4415963,90.8771614 C-7.09514951,60.0683808 -1.67058962,25.9815536 23.6116474,7.83331701 C48.8938845,-10.3149196 69.4265964,9.87784675 107.184836,6.69692757 C144.943075,3.51600838 154.519827,-3.05465369 187.941332,14.8653338 C221.362837,32.7853212 232.158537,82.8544461 211.32473,123.133139 C190.490924,163.411832 160.823389,176.329763 160.823389,176.329763 Z" id="Path" fill="#FFB76F"></path>
                        <path d="M160.823389,176.329763 C160.823389,176.329763 126.314058,193.239626 89.0803063,176.766836 C51.8465545,160.294045 29.9783422,121.685942 11.4415963,90.8771614 C-7.09514951,60.0683808 -1.67058962,25.9815536 23.6116474,7.83331701 C48.8938845,-10.3149196 69.4265964,9.87784675 107.184836,6.69692757 C144.943075,3.51600838 154.519827,-3.05465369 187.941332,14.8653338 C221.362837,32.7853212 232.158537,82.8544461 211.32473,123.133139 C190.490924,163.411832 160.823389,176.329763 160.823389,176.329763 Z" id="Path" fill="#F9FBFF"></path>
                    </g>
                    <g id="freepik--Clouds--inject-4" transform="translate(9.712730, 0.000000)" stroke="#263238" stroke-linecap="round" stroke-linejoin="round" stroke-width="0.541484716">
                        <path d="M174.790295,15.5937886 C174.790295,15.5937886 175.159379,2.42818258 162.202597,0.485636517 C149.245814,-1.45690955 146.613664,7.81874792 143.049092,10.4071906 C139.48452,12.9956332 138.838624,5.22544892 130.743063,8.14412439 C122.647502,11.0627999 125.886698,17.5363346 122.001606,19.7994008 C118.116514,22.062467 116.727593,16.0551432 110.666849,16.8855817 C104.606106,17.7160201 105.859048,24.2235495 103.217185,25.627039 C100.575323,27.0305285 97.6226526,25.5153426 92.4846182,25.0879825 C87.3465839,24.6606223 86.5841346,30.5951006 86.5841346,30.5951006 L189.689623,30.5951006 C189.689623,30.5951006 192.278066,21.4214268 187.096324,18.1822312 C181.914583,14.9430356 176.086945,17.5363346 174.790295,15.5937886 Z" id="Path"></path>
                        <path d="M67.5811777,93.9123896 C67.5811777,93.9123896 65.1044314,83.75773 55.1974465,82.2571132 C45.2904616,80.7564964 46.0334854,87.9536295 43.3090646,89.9350265 C40.5846437,91.9164235 40.0941508,85.9722326 33.9022852,88.2013042 C27.7104196,90.4303758 30.1871659,95.3984373 27.1956449,97.1273033 C24.204124,98.8561693 23.1648618,94.2669043 18.5270331,94.8982317 C13.8892044,95.5295592 14.8701901,100.526759 12.8547986,101.590303 C10.8394071,102.653847 8.57634089,101.502888 4.64754147,101.172656 C0.718742045,100.842423 0.14083459,105.383124 0.14083459,105.383124 L78.969354,105.383124 C78.969354,105.383124 80.950751,98.3705328 76.987957,95.8937866 C73.025163,93.4170404 68.5718762,95.3984373 67.5811777,93.9123896 Z" id="Path"></path>
                        <path d="M203.821646,49.3503828 C203.821646,49.3503828 205.982729,43.5227446 200.203654,42.6777371 C194.424579,41.8327296 191.253373,45.8829381 189.665342,47.0484657 C188.07731,48.2139934 187.785928,44.7368359 184.172793,46.0383418 C180.559657,47.3398477 182.006854,50.2293849 180.2877,51.2395089 C178.568547,52.2496328 177.93722,49.5689193 175.232224,49.938003 C172.527229,50.3070868 173.090567,53.2111931 171.910471,53.8230951 C170.730374,54.4349972 169.419155,53.7745315 167.126951,53.5802769 C164.834747,53.3860223 164.494801,56.0375977 164.494801,56.0375977 L210.479723,56.0375977 C210.479723,56.0375977 211.620969,51.9631073 209.309339,50.5061977 C206.997709,49.0492882 204.399554,50.2196722 203.821646,49.3503828 Z" id="Path"></path>
                    </g>
                    <g id="freepik--characters-2--inject-4" transform="translate(78.187479, 17.968551)">
                        <path d="M74.754029,96.0394775 C74.754029,96.0394775 78.5517066,114.590792 79.5326923,117.825132 C80.0626802,119.425728 80.4399227,121.072912 80.6593691,122.74463 C80.6593691,122.74463 81.363542,129.490121 82.2036932,135.113792 C83.0438444,140.737463 87.1231911,155.510525 87.2640257,156.899446 C87.4048603,158.288366 86.4238745,161.114771 85.2971978,162.804786 C84.1705211,164.494801 79.8143615,167.724284 79.8143615,168.70527 C79.8143615,169.686255 84.4521903,169.676544 86.9823565,169.676544 C89.5125228,169.676544 93.2956312,169.254039 94.2911861,168.831535 C95.2867409,168.409031 95.5586974,167.709715 95.5586974,166.301369 C95.5586974,164.893023 93.3102003,151.824544 93.1693657,147.609219 C93.0285311,143.393894 94.995359,136.502712 94.0143733,130.883898 C93.0333875,125.265083 91.2025378,119.078074 91.2025378,114.158576 C91.2025378,109.239078 91.0617033,92.9314038 91.0617033,92.9314038 C91.0617033,92.9314038 78.9742104,96.7436505 74.754029,96.0394775 Z" id="Path" stroke="#263238" stroke-width="0.541484716" fill="#FFFFFF" fill-rule="nonzero" stroke-linecap="round" stroke-linejoin="round"></path>
                        <path d="M90.3575303,158.584605 C88.6723716,157.04028 86.9823565,159.007108 86.9823565,159.007108 L86.9823565,159.007108 C86.6103364,160.348942 86.0425111,161.628595 85.2971978,162.804786 C84.1753774,164.489945 79.8143615,167.724284 79.8143615,168.70527 C79.8143615,169.686255 84.4521903,169.676544 86.9823565,169.676544 C89.5125228,169.676544 93.2956312,169.254039 94.2911861,168.831535 C95.2867409,168.409031 95.5586974,167.709715 95.5586974,166.301369 C95.5586974,165.742887 95.2041827,163.338986 94.7671099,160.38146 L93.0285311,160.959367 C93.0285311,160.959367 92.042689,160.133785 90.3575303,158.584605 Z" id="Path" stroke="#263238" stroke-width="0.541484716" fill="#FFFFFF" fill-rule="nonzero" stroke-linecap="round" stroke-linejoin="round"></path>
                        <path d="M56.8194725,83.3692208 C56.8194725,83.3692208 54.7166663,91.4599252 52.7741203,98.4239528 C50.8315742,105.38798 51.3172107,112.021775 50.9918343,115.581491 C50.6664578,119.141207 49.2095482,126.425754 50.6664578,133.710302 C52.1233673,140.99485 54.7166663,152.329606 54.7166663,153.300879 C54.6674522,154.956175 53.9698148,156.525859 52.7741203,157.671608 C51.1520943,159.288777 47.1067421,162.848493 47.1067421,164.630779 C47.0649497,165.6009 47.5043815,166.529197 48.281198,167.111809 C49.0580145,167.694421 50.0722201,167.856353 50.9918343,167.544598 C53.4200168,166.898702 56.0084595,164.305403 56.9797325,162.042337 C57.9510055,159.77927 60.8648246,158.963401 61.0299411,156.700335 C61.1950575,154.437269 60.3791881,152.329606 60.058668,150.061684 C59.7381479,147.793761 58.7620185,138.246147 60.058668,132.093133 C61.3553175,125.940118 60.7045646,117.038401 60.7045646,117.038401 C60.7045646,117.038401 63.6183837,108.94284 65.2355533,105.222864 C66.8527229,101.502888 69.9316584,92.7565747 69.9316584,92.7565747 L56.8194725,83.3692208 Z" id="Path" stroke="#263238" stroke-width="0.541484716" fill="#FFFFFF" fill-rule="nonzero" stroke-linecap="round" stroke-linejoin="round"></path>
                        <path d="M61.0299411,156.700335 C61.0745319,155.374907 60.9273191,154.049992 60.5928682,152.766679 C59.9409692,154.526198 58.8670331,156.098747 57.465369,157.346231 C57.0772099,156.493274 56.528117,155.723225 55.8481994,155.078309 C55.178021,154.519827 54.5806881,155.044314 54.2795935,155.423111 C53.9346752,156.266539 53.4225634,157.031403 52.7741203,157.671608 C51.1520943,159.288777 47.1067421,162.848493 47.1067421,164.630779 C47.0649497,165.6009 47.5043815,166.529197 48.281198,167.111809 C49.0580145,167.694421 50.0722201,167.856353 50.9918343,167.544598 C53.4200168,166.898702 56.0084595,164.305403 56.9797325,162.042337 C57.9510055,159.77927 60.8648246,158.963401 61.0299411,156.700335 Z" id="Path" stroke="#263238" stroke-width="0.541484716" fill="#FFFFFF" fill-rule="nonzero" stroke-linecap="round" stroke-linejoin="round"></path>
                        <path d="M63.5115437,66.3816555 C61.7573059,68.627341 60.2891316,71.0824547 59.140815,73.690485 C57.5916345,77.4833062 55.7656412,82.8253079 56.188145,83.4032154 C56.6106488,83.9811228 60.40347,89.44939 62.9336362,91.1345487 C65.4638025,92.8197074 69.9607966,94.3688879 69.9607966,94.3688879 L71.5099771,92.8197074 L72.0684591,97.3167016 C72.0684591,97.3167016 74.7394599,98.0208745 80.6448,98.2879746 C86.55014,98.5550747 94.5582862,95.0536354 94.5582862,95.0536354 C94.5582862,95.0536354 92.7905693,83.2138171 90.9597196,78.9984922 C89.1288699,74.7831672 85.7051325,70.5969804 85.7051325,70.5969804 C85.7051325,70.5969804 73.8993088,71.8644917 68.8389762,70.0384984 C63.7786437,68.2125051 63.5115437,66.3816555 63.5115437,66.3816555 Z" id="Path" stroke="#263238" stroke-width="0.541484716" fill="#263238" fill-rule="nonzero" stroke-linecap="round" stroke-linejoin="round"></path>
                        <path d="M94.0483678,93.0236748 C92.0815399,93.9949478 87.3562966,96.1366049 82.626197,96.4619813 C78.961472,96.7268207 75.2810381,96.2477696 71.8062154,95.0536354 L72.0830282,97.3021325 C72.0830282,97.3021325 74.754029,98.0063054 80.6593691,98.2734055 C86.5647091,98.5405056 94.5728553,95.0390663 94.5728553,95.0390663 C94.5728553,95.0390663 94.3737443,94.2717606 94.0483678,93.0236748 Z" id="Path" stroke="#263238" stroke-width="0.541484716" fill="#999999" fill-rule="nonzero" stroke-linecap="round" stroke-linejoin="round"></path>
                        <path d="M69.9753657,94.3543188 L70.3930131,93.9366714 C68.2883916,92.8222581 66.2705488,91.5511632 64.3565512,90.1341375 C61.3067539,87.9293477 57.8684473,83.8208628 56.3241232,81.9123113 C56.1444377,82.6893297 56.081305,83.2283862 56.2027141,83.3692208 C56.6252179,83.9325592 60.418039,89.4153955 62.9482053,91.1005542 C65.4783716,92.7857129 69.9753657,94.3543188 69.9753657,94.3543188 Z" id="Path" stroke="#263238" stroke-width="0.541484716" fill="#999999" fill-rule="nonzero" stroke-linecap="round" stroke-linejoin="round"></path>
                        <path d="M72.5055319,89.2939863 C72.5055319,89.2939863 77.4250299,83.2478117 80.9410382,80.85848" id="Path" stroke="#6B6B6B" stroke-width="0.541484716" stroke-linecap="round" stroke-linejoin="round"></path>
                        <path d="M42.410637,27.6812815 C42.410637,27.6812815 42.7360135,32.2122702 40.7934674,33.1835432 C38.8509213,34.1548162 29.2984511,33.1835432 25.8989954,33.5089197 C22.4995398,33.8342961 3.72483208,46.2957291 2.75355905,47.1067421 C1.78228602,47.9177551 3.39945562,52.6090039 5.98789825,53.5802769 C8.57634089,54.5515499 22.9851763,47.4321186 22.9851763,47.4321186 C22.9851763,47.4321186 27.6812815,59.247655 28.327178,60.2189281 C28.9730746,61.1902011 25.2530989,70.4172949 22.8249163,74.3023871 C20.3967337,78.1874792 17.8082911,87.254313 17.6431747,92.9168347 C17.4780582,98.5793565 20.5569938,110.564866 22.3392798,114.124581 C24.1215658,117.684297 23.7961893,118.980947 23.1502928,123.351675 C22.5043962,127.722404 21.9216324,134.521315 23.0677345,138.649226 C24.2818258,143.019954 28.4922944,159.614154 28.4922944,159.614154 C28.4922944,159.614154 23.9564494,163.819766 21.5282668,165.762312 C19.1000842,167.704858 16.3513815,168.190495 16.837018,169.326884 C17.3226546,170.463274 32.5376466,169.326884 33.5089197,169.326884 C34.7276438,169.248783 35.6987413,168.277686 35.7768422,167.058962 C35.7768422,165.762312 35.4514657,159.774414 35.4514657,158.317504 C35.4514657,156.860595 35.7768422,138.566667 35.7768422,132.904146 L35.7768422,118.65557 C35.7768422,118.65557 36.4227388,107.811307 36.4227388,105.383124 C36.4227388,102.954942 37.7193883,96.4814068 37.7193883,96.4814068 L40.1475708,96.4814068 C40.1475708,96.4814068 48.5636517,111.696399 50.3459377,114.770478 C52.1282237,117.844557 53.9056534,121.083753 53.9056534,121.083753 C53.9056534,121.083753 53.7453933,135.167212 56.494096,140.188693 C59.2427987,145.210175 64.7499168,156.049582 65.5609298,157.671608 C66.3719427,159.293634 67.0178393,168.030235 67.9891123,169.001508 C68.9603854,169.972781 85.7974034,170.458417 86.2830399,170.298157 C86.7686764,170.137897 87.254313,168.030235 85.7974034,166.898702 C84.3404939,165.767169 78.0272191,163.17387 76.4051932,161.87722 C74.7831672,160.580571 73.4622359,160.420311 72.520101,156.860595 C72.2967082,156.015587 69.9316584,141.480486 69.6062819,136.303601 C69.2809055,131.126716 65.8863062,118.65557 65.8863062,118.65557 C65.8863062,118.65557 63.2930072,100.201382 62.0012141,94.5388607 C60.709421,88.8763389 54.8769264,73.331114 54.7166663,72.359841 C54.5564063,71.388568 52.4487438,65.7211898 52.4487438,65.7211898 C52.4487438,65.7211898 53.2597568,62.9724871 54.2310298,61.6758376 C55.2023029,60.3791881 57.305109,55.3625629 57.305109,53.2597568 C57.2864317,52.1180157 57.3955695,50.9777698 57.6304854,49.8603012 C57.6304854,49.8603012 58.7620185,47.7526387 60.058668,46.7813657 C61.3553175,45.8100926 67.3432158,40.7934674 67.3432158,40.7934674 C67.3432158,40.7934674 66.8575793,38.6906613 63.6183837,37.0686353 C60.3791881,35.4466094 52.1233673,34.9658292 51.6377308,34.8055692 C51.1520943,34.6453091 50.8315742,31.4061135 51.1520943,29.7840876 C51.4726144,28.1620616 42.410637,27.6812815 42.410637,27.6812815 Z" id="Path" stroke="#263238" stroke-width="0.541484716" fill="#FFFFFF" fill-rule="nonzero" stroke-linecap="round" stroke-linejoin="round"></path>
                        <path d="M85.7974034,166.898702 C84.3404939,165.762312 78.0272191,163.17387 76.4051932,161.87722 C74.7831672,160.580571 73.4622359,160.420311 72.520101,156.860595 C72.3452719,156.200129 70.8543678,147.109014 70.0579239,140.722893 C66.0677624,141.748148 61.9982989,142.435327 57.8927292,142.777136 C60.8065483,148.240547 64.8713259,156.287544 65.5609298,157.666752 C66.3719427,159.283921 67.0178393,168.025378 67.9891123,168.996651 C68.9603854,169.967924 85.7974034,170.453561 86.2830399,170.293301 C86.7686764,170.133041 87.254313,168.030235 85.7974034,166.898702 Z" id="Path" stroke="#263238" stroke-width="0.541484716" fill="#999999" fill-rule="nonzero" stroke-linecap="round" stroke-linejoin="round"></path>
                        <path d="M24.0292948,142.247792 C25.7241663,148.701901 28.4922944,159.614154 28.4922944,159.614154 C28.4922944,159.614154 23.9564494,163.819766 21.5282668,165.762312 C19.1000842,167.704858 16.3513815,168.190495 16.837018,169.326884 C17.3226546,170.463274 32.5376466,169.326884 33.5089197,169.326884 C34.7276438,169.248783 35.6987413,168.277686 35.7768422,167.058962 C35.7768422,165.762312 35.4514657,159.774414 35.4514657,158.317504 C35.4514657,157.409364 35.5777312,149.954844 35.6700022,143.097656 C30.9156207,142.874263 26.8265612,142.524605 24.0292948,142.247792 Z" id="Path" stroke="#263238" stroke-width="0.541484716" fill="#999999" fill-rule="nonzero" stroke-linecap="round" stroke-linejoin="round"></path>
                        <path d="M69.6062819,136.303601 C69.2857618,131.12186 65.8863062,118.65557 65.8863062,118.65557 C65.8863062,118.65557 63.2930072,100.201382 62.0012141,94.5388607 C60.8356865,89.44939 56.0181722,76.4003368 54.9303464,73.0882958 C49.1027082,74.1518397 36.5878552,75.5164784 24.7334678,70.737815 C24.1607466,71.95891 23.5236681,73.1487717 22.8249163,74.3023871 C20.3967337,78.1874792 17.8082911,87.254313 17.6431747,92.9168347 C17.4780582,98.5793565 20.5569938,110.564866 22.3392798,114.124581 C24.1215658,117.684297 23.7961893,118.980947 23.1502928,123.351675 C22.5043962,127.722404 21.9216324,134.521315 23.0677345,138.649226 C23.4562438,140.052715 24.1555603,142.714003 24.922866,145.681242 C28.4575017,146.297208 32.0577803,146.445791 35.6311512,146.123172 C35.7039967,140.965712 35.7768422,135.550865 35.7768422,132.904146 L35.7768422,118.65557 C35.7768422,118.65557 36.4227388,107.811307 36.4227388,105.383124 C36.4227388,102.954942 37.7193883,96.4814068 37.7193883,96.4814068 L40.1475708,96.4814068 C40.1475708,96.4814068 48.5636517,111.696399 50.3459377,114.770478 C52.1282237,117.844557 53.9056534,121.083753 53.9056534,121.083753 C53.9056534,121.083753 53.7453933,135.167212 56.494096,140.188693 C57.3148217,141.684454 58.383222,143.704702 59.500186,145.841502 C63.2191665,145.840845 66.9259132,145.415587 70.5484168,144.573991 C70.1016312,141.320226 69.7276911,138.187871 69.6062819,136.303601 Z" id="Path" stroke="#263238" stroke-width="0.541484716" fill="#263238" fill-rule="nonzero" stroke-linecap="round" stroke-linejoin="round"></path>
                        <path d="M31.5663736,160.745687 C30.8379188,158.803141 28.4922944,159.614154 28.4922944,159.614154 C28.4922944,159.614154 23.9564494,163.819766 21.5282668,165.762312 C19.1000842,167.704858 16.3513815,168.190495 16.837018,169.326884 C17.3226546,170.463274 32.5376466,169.326884 33.5089197,169.326884 C34.7276438,169.248783 35.6987413,168.277686 35.7768422,167.058962 C35.7768422,166.403352 35.694284,164.548221 35.6117258,162.688233 L32.2948284,162.688233 L31.5663736,160.745687 Z" id="Path" stroke="#263238" stroke-width="0.541484716" fill="#FB7D00" fill-rule="nonzero" stroke-linecap="round" stroke-linejoin="round"></path>
                        <path d="M85.7974034,166.898702 C84.3404939,165.762312 78.0272191,163.17387 76.4051932,161.87722 C75.710733,161.323594 75.0696928,160.973936 74.4917853,160.473731 C74.0651491,160.524043 73.6646696,160.705616 73.3456831,160.993362 C72.4084046,161.814087 72.2869955,163.907181 72.2869955,163.907181 C72.2869955,163.907181 68.8146944,163.275853 66.5953355,162.790217 C67.0178393,165.568058 67.4549122,168.467308 67.9891123,169.001508 C68.9603854,169.972781 85.7974034,170.458417 86.2830399,170.298157 C86.7686764,170.137897 87.254313,168.030235 85.7974034,166.898702 Z" id="Path" stroke="#263238" stroke-width="0.541484716" fill="#FB7D00" fill-rule="nonzero" stroke-linecap="round" stroke-linejoin="round"></path>
                        <path d="M62.3848669,40.2398418 C62.3848669,40.2398418 59.1553841,44.8776705 59.4370533,46.8444984 C59.7187225,48.8113263 61.5447158,50.3605068 61.6855504,52.3273347 C61.8263849,54.2941626 59.2962187,58.6406094 59.7430043,60.7579846 C60.1897899,62.8753598 63.3949909,65.8183171 63.3949909,65.8183171 C63.3949909,65.8183171 62.4237179,69.0526563 63.8174947,71.5828226 C65.2112715,74.1129888 71.1263242,78.0466446 77.0268079,77.0656588 C82.9272916,76.0846731 85.7439834,73.2679813 86.1664872,72.2869955 C86.5889909,71.3060098 89.2599918,64.273993 90.2409775,59.7769988 C91.2219633,55.2800047 90.3818121,51.3414925 87.7108113,48.8113263 C85.0398104,46.28116 77.8718155,43.0516772 73.5156559,41.2208275 C69.1594963,39.3899779 62.8073707,38.8509213 62.3848669,40.2398418 Z" id="Path" stroke="#263238" stroke-width="0.541484716" fill="#FB7D00" fill-rule="nonzero" stroke-linecap="round" stroke-linejoin="round"></path>
                        <path d="M73.9138778,69.1934909 C73.9138778,69.1934909 76.4440441,71.3011534 80.8002037,70.4561458 C83.4731153,69.8817747 85.8313832,68.3211562 87.4048603,66.0854172" id="Path" stroke="#263238" stroke-width="0.541484716" stroke-linecap="round" stroke-linejoin="round"></path>
                        <path d="M84.7338594,58.2278184 C84.515323,62.1711869 85.3214796,65.7697535 88.1333151,66.8381538 C88.9469245,64.5221186 89.6390888,62.1651939 90.206983,59.7769988 C91.1102669,55.6490885 90.4692267,52.0068146 88.2935751,49.4669356 C87.0454893,51.2346525 84.9329704,54.6972409 84.7338594,58.2278184 Z" id="Path" stroke="#263238" stroke-width="0.541484716" fill="#FFFFFF" fill-rule="nonzero" stroke-linecap="round" stroke-linejoin="round"></path>
                        <path d="M79.8143615,51.3414925 C80.8468791,49.4304542 81.7238581,47.4393871 82.4367987,45.3875889 C79.4549905,43.7995574 76.0069712,42.2746588 73.4913741,41.2208275 C70.6855432,40.0773018 67.6874801,39.4790077 64.6576458,39.457967 C64.7237071,39.5907294 64.8106031,39.7120559 64.9150332,39.817338 C66.0417099,40.9391584 66.6050483,43.0516772 66.6050483,43.0516772 C66.6050483,43.0516772 68.0085378,44.4551667 66.8867174,47.2670022 C65.7648971,50.0788376 65.4783716,56.1201559 68.9943799,57.8053146 C72.5103883,59.4904733 77.4250299,55.9793213 79.8143615,51.3414925 Z" id="Path" stroke="#263238" stroke-width="0.541484716" fill="#FFFFFF" fill-rule="nonzero" stroke-linecap="round" stroke-linejoin="round"></path>
                        <path d="M87.1329038,60.9425265 L102.27505,74.0547124 C101.43926,76.5377728 100.86472,79.1012312 100.560754,81.7034876 C100.24509,85.2971978 97.5935144,96.2240194 97.2778507,96.8504905 C96.9621869,97.4769616 91.5036325,99.9731333 89.9398829,100.910412 C88.3761333,101.84769 86.8172401,105.436544 86.9775001,106.218419 C87.1377602,107.000294 87.7545186,105.902755 88.225586,105.125737 C88.6185584,104.541864 89.0909246,104.01556 89.6290755,103.561987 L90.8771614,102.780112 C90.8771614,102.780112 89.3182682,105.902755 89.3182682,106.840034 C89.3182682,107.777312 88.8326316,109.962676 89.4736718,109.962676 C90.114712,109.962676 90.2555466,108.559187 90.4109503,108.08812 C90.566354,107.617052 91.8144399,104.033055 91.8144399,104.033055 L90.7217577,110.433744 C90.7217577,110.433744 90.4109503,111.68183 91.3482288,111.055359 C92.2855073,110.428888 92.5963146,106.995437 92.7517183,106.529226 C92.907122,106.063015 94.9370827,103.561987 94.9370827,103.561987 C94.9370827,103.561987 93.9998042,106.68463 93.9998042,107.621908 C93.9998042,108.559187 93.5141677,110.273484 94.1552079,109.651869 C94.7962481,109.030254 95.5635538,106.529226 95.5635538,106.529226 L96.9670433,103.095776 C97.9683932,102.261135 98.8149895,101.256727 99.4680714,100.128537 C99.9208271,99.2444496 100.235291,98.2961436 100.400493,97.3167016 C100.400493,97.3167016 107.427654,81.8588913 108.364932,78.8965085 C109.038727,76.9091602 109.559871,74.8732881 109.923826,72.8066266 C109.923826,72.3209901 106.334972,67.8094268 102.746118,63.1230344 C99.157264,58.4366421 94.3154679,52.9780876 91.8144399,50.948127 C89.3134118,48.9181663 86.6618364,50.3216559 86.6618364,51.2589343" id="Path" stroke="#263238" stroke-width="0.541484716" fill="#FFFFFF" fill-rule="nonzero" stroke-linecap="round" stroke-linejoin="round"></path>
                        <path d="M91.7027435,50.6567451 C91.7027435,50.6567451 93.4558913,48.8938845 93.970666,49.5349247 C94.4854407,50.1759649 93.6501459,53.4200168 93.106233,53.9347915 C92.5623201,54.4495663 92.5186128,53.9687861 92.5234692,52.9926567 C92.5312668,52.4132947 92.4273908,51.8378544 92.2175182,51.2977853 C92.2175182,51.2977853 92.18838,51.5891672 91.7027435,50.6567451 Z" id="Path" stroke="#263238" stroke-width="0.541484716" fill="#999999" fill-rule="nonzero" stroke-linecap="round" stroke-linejoin="round"></path>
                        <path d="M94.2863297,50.2536668 C94.2863297,50.2536668 95.8743611,50.030274 95.9423502,51.2249398 C96.0103394,52.4196056 94.4854407,54.7797991 93.9560969,55.1100319 C93.4267531,55.4402648 93.8006932,52.9440931 94.024086,51.7979909 C94.2474788,50.6518887 94.2863297,50.2536668 94.2863297,50.2536668 Z" id="Path" stroke="#263238" stroke-width="0.541484716" fill="#999999" fill-rule="nonzero" stroke-linecap="round" stroke-linejoin="round"></path>
                        <path d="M95.8695048,51.8854054 C95.8695048,51.8854054 97.4526798,51.666869 97.5206689,52.8566785 C97.588658,54.0464879 96.0637594,56.4115378 95.5392719,56.7417706 C95.0147845,57.0720034 95.3838683,54.5758318 95.6024047,53.4248732 C95.8209411,52.2739147 95.8695048,51.8854054 95.8695048,51.8854054 Z" id="Path" stroke="#263238" stroke-width="0.541484716" fill="#999999" fill-rule="nonzero" stroke-linecap="round" stroke-linejoin="round"></path>
                        <path d="M97.3944034,53.7648188 C97.3944034,53.7648188 98.7299039,53.5802769 98.7833239,54.5709754 C98.8367439,55.5616739 97.5595198,57.55764 97.122447,57.8393091 C96.6853741,58.1209783 96.9864688,56.0181722 97.175867,55.0566119 C97.3652652,54.0950516 97.3944034,53.7648188 97.3944034,53.7648188 Z" id="Path" stroke="#263238" stroke-width="0.541484716" fill="#999999" fill-rule="nonzero" stroke-linecap="round" stroke-linejoin="round"></path>
                        <path d="M39.9824544,13.5978225 L30.8087806,34.9949674 C30.8087806,34.9949674 38.2535884,41.9104314 47.0290403,41.9104314 C55.8044921,41.9104314 59.5293242,38.8509213 59.5293242,38.8509213 L58.8640022,19.3040515 L39.9824544,13.5978225 Z" id="Path" stroke="#263238" stroke-width="0.541484716" fill="#263238" fill-rule="nonzero" stroke-linecap="round" stroke-linejoin="round"></path>
                        <line x1="41.5801986" y1="14.1174535" x2="33.4652124" y2="37.6562555" id="Path" stroke="#6B6B6B" stroke-width="0.541484716" stroke-linecap="round" stroke-linejoin="round"></line>
                        <line x1="44.1055084" y1="14.7827756" x2="37.0589226" y2="38.9820432" id="Path" stroke="#6B6B6B" stroke-width="0.541484716" stroke-linecap="round" stroke-linejoin="round"></line>
                        <line x1="57.1351362" y1="18.5027513" x2="57.5382145" y2="39.7833435" id="Path" stroke="#6B6B6B" stroke-width="0.541484716" stroke-linecap="round" stroke-linejoin="round"></line>
                        <line x1="54.6098263" y1="17.8422856" x2="54.7458045" y2="40.8468874" id="Path" stroke="#6B6B6B" stroke-width="0.541484716" stroke-linecap="round" stroke-linejoin="round"></line>
                        <path d="M56.0910177,76.4343314 C55.3091429,74.2246852 54.76523,72.6463665 54.7166663,72.359841 C54.5515499,71.388568 52.4487438,65.7211898 52.4487438,65.7211898 C52.4487438,65.7211898 53.2597568,62.9724871 54.2310298,61.6758376 C55.2023029,60.3791881 57.305109,55.3625629 57.305109,53.2597568 C57.2864317,52.1180157 57.3955695,50.9777698 57.6304854,49.8603012 C57.6304854,49.8603012 58.7620185,47.7526387 60.058668,46.7813657 C61.3553175,45.8100926 67.3432158,40.7934674 67.3432158,40.7934674 C67.3432158,40.7934674 66.8575793,38.6906613 63.6183837,37.0686353 C60.3791881,35.4466094 52.1233673,34.9658292 51.6377308,34.8055692 C51.1520943,34.6453091 50.8315742,31.4061135 51.1520943,29.7840876 C51.4726144,28.1620616 42.410637,27.6812815 42.410637,27.6812815 C42.410637,27.6812815 42.7360135,32.2122702 40.7934674,33.1835432 C38.8509213,34.1548162 29.2984511,33.1835432 25.8989954,33.5089197 C22.4995398,33.8342961 3.72483208,46.2957291 2.75355905,47.1067421 C1.78228602,47.9177551 3.39945562,52.6090039 5.98789825,53.5802769 C8.57634089,54.5515499 22.9851763,47.4321186 22.9851763,47.4321186 C22.9851763,47.4321186 27.6812815,59.247655 28.327178,60.2189281 C28.9730746,61.1902011 25.6853154,69.3440382 23.2717019,73.5496505 C27.1665067,76.8374097 37.2871718,82.6213406 56.0910177,76.4343314 Z" id="Path" stroke="#263238" stroke-width="0.541484716" fill="#FFFFFF" fill-rule="nonzero" stroke-linecap="round" stroke-linejoin="round"></path>
                        <path d="M16.7738853,38.0787593 C16.3368124,38.3361466 15.8997396,38.6032467 15.4578103,38.8703468 C16.2396851,41.9250005 17.5509037,46.01406 19.522588,49.0687137 L20.8483757,48.4519553 C18.8572659,45.4458652 17.5266219,41.133413 16.7738853,38.0787593 Z" id="Path" fill="#263238" fill-rule="nonzero"></path>
                        <path d="M17.1721072,50.1322576 L18.5416022,49.5203556 C16.4212637,46.6504346 14.5619572,43.5965561 12.9859205,40.3952455 C12.5682731,40.6574892 12.1506256,40.9148765 11.742691,41.1771203 C13.2902144,44.3135091 15.1068258,47.3097806 17.1721072,50.1322576 L17.1721072,50.1322576 Z" id="Path" fill="#263238" fill-rule="nonzero"></path>
                        <path d="M23.8933166,49.7000411 C22.8094291,44.9614289 22.0548887,40.1534651 21.6351068,35.3106311 C21.1883212,35.5437367 20.7221102,35.7962676 20.24133,36.0682241 C20.6092225,40.0431117 21.1993851,43.9942828 22.0090469,47.903186 L22.98032,47.4175495 L23.8933166,49.7000411 Z" id="Path" fill="#263238" fill-rule="nonzero"></path>
                        <path d="M27.2587777,64.779055 C27.0985176,65.2258406 26.9188321,65.6871953 26.7342902,66.1582627 C30.8138429,67.7773032 35.1712451,68.5808075 39.5599507,68.5233125 C44.0252624,68.4943484 48.4617601,67.8053902 52.7255566,66.4787828 L52.4487438,65.7211898 C52.4487438,65.7211898 52.5410147,65.4152388 52.6964184,64.9587405 C40.0310181,68.8826835 30.8913388,66.25539 27.2587777,64.779055 Z" id="Path" fill="#263238" fill-rule="nonzero"></path>
                        <path d="M25.7387354,52.3467601 C25.4835542,52.2853311 25.2150003,52.3649712 25.0345624,52.5555838 C25.2045352,52.9635185 25.374508,53.3811659 25.5444808,53.7988133 C32.4479458,55.4027361 39.5050909,56.2527199 46.5919674,56.3338359 C50.0566508,56.3611622 53.5158743,56.053784 56.9214561,55.4159829 C57.0698401,54.9082124 57.1818206,54.3905055 57.2565453,53.8668024 C43.7364247,56.7514833 25.93299,52.3953238 25.7387354,52.3467601 Z" id="Path" fill="#263238" fill-rule="nonzero"></path>
                        <path d="M22.5772417,36.3207551 C22.5551502,36.7214816 22.8613412,37.0645892 23.2619892,37.0880608 L66.8090156,39.710498 C66.4076468,39.1208802 65.9159973,38.5980929 65.3521061,38.1613175 L23.3494037,35.6360076 C22.9477781,35.6138541 22.6032693,35.9193619 22.5772417,36.3207551 L22.5772417,36.3207551 Z" id="Path" fill="#263238" fill-rule="nonzero"></path>
                        <path d="M27.7055633,58.9222786 C27.8872054,59.3662915 28.0947677,59.7992534 28.327178,60.2189281 C28.3965896,60.3707522 28.4218353,60.5390569 28.4000235,60.7045646 C32.7765403,62.0576046 37.3344703,62.7323682 41.9152878,62.705387 C46.1924875,62.6964186 50.4519219,62.154813 54.5952572,61.0930738 C54.9157928,60.5253484 55.207544,59.9418461 55.4694029,59.3447823 C41.958995,63.1327472 31.3866881,60.2189281 27.7055633,58.9222786 Z" id="Path" fill="#263238" fill-rule="nonzero"></path>
                        <path d="M23.1357237,40.9925784 C22.7334092,40.9711216 22.3898747,41.2798678 22.368418,41.6821822 C22.3469612,42.0844967 22.6557074,42.4280312 23.0580218,42.4494879 L62.7879452,44.5814322 L64.4439658,43.22165 L23.1357237,40.9925784 Z" id="Path" fill="#263238" fill-rule="nonzero"></path>
                        <path d="M54.7215227,72.4035483 C54.7215227,72.4035483 54.7215227,72.3695537 54.7215227,72.359841 C54.6156683,71.8975431 54.4826978,71.4418757 54.3233008,70.9952024 C44.7850758,74.1161623 34.4422938,73.7007272 25.1851098,69.8248184 C24.9811424,70.2764603 24.7723187,70.7135332 24.563495,71.1408933 C34.1454851,75.1757964 44.8602902,75.6240425 54.7458045,72.4035483 L54.7215227,72.4035483 Z" id="Path" fill="#263238" fill-rule="nonzero"></path>
                        <path d="M44.5328686,48.2042807 C36.0342295,48.2042807 24.563495,46.3782873 24.4517986,46.3588619 C24.0494842,46.2944916 23.6711614,46.5684495 23.6067911,46.9707639 C23.5424208,47.3730784 23.8163786,47.7514011 24.2186931,47.8157714 C24.3352459,47.8157714 35.9176768,49.6806157 44.5328686,49.6806157 C49.7291793,49.6806157 54.7312354,49.5300683 57.9024419,49.4135156 C58.2169589,48.8907999 58.5657623,48.3894965 58.9465604,47.9128987 C55.9598958,48.0148824 50.3605068,48.2042807 44.5328686,48.2042807 Z" id="Path" fill="#263238" fill-rule="nonzero"></path>
                        <path d="M9.6058903,42.5320461 C5.98304189,44.8582451 3.11778644,46.8056475 2.75355905,47.1067421 C1.78228602,47.9177551 3.39945562,52.6090039 5.98789825,53.5802769 C7.32825504,54.0659134 11.8155365,52.4293183 15.8414632,50.7053087 L9.6058903,42.5320461 Z" id="Path" stroke="#263238" stroke-width="0.541484716" fill="#999999" fill-rule="nonzero" stroke-linecap="round" stroke-linejoin="round"></path>
                        <path d="M16.9972781,75.2008146 C16.9972781,75.2008146 16.4193706,73.3456831 16.8807253,73.1125776 C17.34208,72.8794721 17.9248438,74.7346036 17.9248438,74.7346036 L19.3137643,76.2400768 C19.3137643,76.2400768 19.8965281,77.2841953 18.6193041,77.2841953 C17.34208,77.2841953 16.9972781,75.2008146 16.9972781,75.2008146 Z" id="Path" stroke="#263238" stroke-width="0.541484716" fill="#999999" fill-rule="nonzero" stroke-linecap="round" stroke-linejoin="round"></path>
                        <path d="M16.1619833,76.2449331 C16.1619833,76.2449331 14.8896156,73.583645 15.3509703,73.331114 C15.812325,73.078583 16.9729963,75.1862455 16.9729963,75.1862455 L18.8281278,76.6917187 L16.1619833,76.2449331 Z" id="Path" stroke="#263238" stroke-width="0.541484716" fill="#999999" fill-rule="nonzero" stroke-linecap="round" stroke-linejoin="round"></path>
                        <path d="M2.75355905,47.1067421 C2.75355905,47.1067421 0.325376466,49.2095482 0.325376466,50.8315742 C0.325376466,52.4536002 19.9110972,70.8592242 19.9110972,70.8592242 C19.2549801,71.4390732 18.8479105,72.2497332 18.7747077,73.1222903 C18.7747077,74.4189398 18.6144477,76.0361094 18.6144477,76.0361094 L16.5116416,75.7155893 C16.5116416,75.7155893 15.2149921,74.4189398 14.5690955,74.4189398 C13.9231989,74.4189398 16.1862651,77.3327589 16.5116416,77.8183954 C16.837018,78.304032 20.5569938,77.9786555 20.5569938,77.9786555 C20.5569938,77.9786555 24.2818258,73.1222903 24.2818258,70.8592242 C24.2818258,68.596158 11.0773689,50.0982631 10.5917324,49.12699" id="Path" stroke="#263238" stroke-width="0.541484716" fill="#999999" fill-rule="nonzero" stroke-linecap="round" stroke-linejoin="round"></path>
                        <path d="M56.7320579,35.4077584 C54.1484716,35.0532438 51.8756927,34.8881274 51.6377308,34.8055692 C51.1520943,34.6404527 50.8315742,31.4061135 51.1520943,29.7840876 C51.4726144,28.1620616 42.410637,27.6812815 42.410637,27.6812815 C42.410637,27.6812815 42.7360135,32.2122702 40.7934674,33.1835432 C40.0552999,33.5526269 38.2195939,33.6400415 36.0439423,33.6303288 C36.6607006,37.4182936 37.4037245,44.1637848 44.032663,45.003936 C52.4487438,46.0723363 56.0861613,39.2782815 56.7320579,35.4077584 Z" id="Path" stroke="#263238" stroke-width="0.541484716" fill="#999999" fill-rule="nonzero" stroke-linecap="round" stroke-linejoin="round"></path>
                        <path d="M40.5020855,13.7386571 C40.5020855,13.7386571 38.5158321,10.824838 37.7485264,12.9762077 C36.9812207,15.1275775 38.8217831,18.4881822 39.8901835,18.8038459 C40.9585838,19.1195097 40.5020855,13.7386571 40.5020855,13.7386571 Z" id="Path" stroke="#263238" stroke-width="0.541484716" fill="#999999" fill-rule="nonzero" stroke-linecap="round" stroke-linejoin="round"></path>
                        <path d="M58.6163276,17.0701236 C58.6163276,17.0701236 61.3893121,14.894472 61.4767267,17.1672509 C61.5641412,19.4400298 58.7911567,22.1013179 57.6790491,22.0673233 C56.5669415,22.0333288 58.6163276,17.0701236 58.6163276,17.0701236 Z" id="Path" stroke="#263238" stroke-width="0.541484716" fill="#999999" fill-rule="nonzero" stroke-linecap="round" stroke-linejoin="round"></path>
                        <path d="M40.5020855,11.291049 C40.5020855,11.291049 39.7396362,19.1000842 39.7396362,21.5476922 C39.7396362,23.9953003 43.1050972,29.5072748 44.7902559,31.0370298 C46.4754147,32.5667848 48.9230227,32.7221885 52.9003858,29.9637731 C54.3233008,28.9925 57.3391035,24.762606 57.9510055,22.3101416 C58.5629076,19.8576772 60.2480663,14.2000117 60.2480663,9.2999393 C60.2480663,4.39986684 57.9510055,1.04411851 52.5944348,0.427360135 C47.237864,-0.189398242 41.8812932,1.80171148 40.5020855,11.291049 Z" id="Path" stroke="#263238" stroke-width="0.541484716" fill="#999999" fill-rule="nonzero" stroke-linecap="round" stroke-linejoin="round"></path>
                        <path d="M52.5944348,0.427360135 C47.2524331,-0.189398242 41.8812932,1.80171148 40.5020855,11.291049 C40.5020855,11.291049 40.4632346,11.7038401 40.4001018,12.3594494 C43.6975738,12.2963166 51.5697417,11.8738128 58.2569565,9.14939198 C58.2569565,9.14939198 58.1452601,15.0110247 59.2767932,16.9632835 C59.8642322,14.4492146 60.1897261,11.8810676 60.2480663,9.2999393 C60.2480663,4.40472321 57.9510055,1.03926215 52.5944348,0.427360135 Z M43.4110482,11.4464527 C43.4110482,11.4464527 46.3248673,8.68803728 55.8093485,8.68803728 C51.8604873,10.2962015 47.6692489,11.2286823 43.4110482,11.4464527 Z" id="Shape" stroke="#263238" stroke-width="0.541484716" fill="#263238" fill-rule="nonzero" stroke-linecap="round" stroke-linejoin="round"></path>
                        <path d="M42.1726751,10.0575323 C42.1726751,10.0575323 48.1508606,4.82237061 58.2423875,6.6920712" id="Path" stroke="#6B6B6B" stroke-width="0.541484716" stroke-linecap="round" stroke-linejoin="round"></path>
                        <path d="M43.6684356,5.57025085 C43.6684356,5.57025085 52.4487438,0.903283921 58.2375311,5.57025085" id="Path" stroke="#6B6B6B" stroke-width="0.541484716" stroke-linecap="round" stroke-linejoin="round"></path>
                        <path d="M43.4110482,17.1089745 C43.4110482,17.1089745 46.01406,16.4970725 46.931913,17.7208765" id="Path" stroke="#263238" stroke-width="1.08296943" stroke-linecap="round" stroke-linejoin="round"></path>
                        <path d="M52.1379364,18.9398242 C52.1379364,18.9398242 54.4301408,18.3279221 55.5033975,19.7071298" id="Path" stroke="#263238" stroke-width="1.08296943" stroke-linecap="round" stroke-linejoin="round"></path>
                        <path d="M43.4110482,14.6613664 C43.4110482,14.6613664 45.2467543,12.820804 47.3932677,14.1757299" id="Path" stroke="#263238" stroke-width="0.541484716" stroke-linecap="round" stroke-linejoin="round"></path>
                        <path d="M53.2063368,15.8851705 C53.2063368,15.8851705 55.6588012,14.3554154 56.7272015,17.4149255" id="Path" stroke="#263238" stroke-width="0.541484716" stroke-linecap="round" stroke-linejoin="round"></path>
                        <path d="M46.931913,20.0179372 C46.931913,20.0179372 47.849766,22.4461198 50.603325,21.0863376" id="Path" stroke="#263238" stroke-width="0.541484716" stroke-linecap="round" stroke-linejoin="round"></path>
                        <path d="M45.2418979,24.0292948 C45.2418979,24.0292948 45.3147434,26.4817593 46.9950457,27.0013903 C49.2046919,27.6861378 50.496485,25.4764917 50.496485,25.4764917 C50.496485,25.4764917 48.5927899,25.6318954 45.2418979,24.0292948 Z" id="Path" stroke="#263238" stroke-width="0.541484716" fill="#787878" fill-rule="nonzero" stroke-linecap="round" stroke-linejoin="round"></path>
                        <path d="M44.7125541,23.5727965 C45.6156338,24.2714905 46.6150706,24.8358206 47.6797932,25.2482425 C49.2046919,25.7824427 51.3317798,25.4036462 51.3317798,25.4036462 C50.6484123,25.3334625 49.9809229,25.15306 49.3552392,24.869446 C48.9383962,24.6386424 48.4549104,24.5580614 47.9857442,24.6411969 C47.9857442,24.6411969 47.3009967,23.8787475 46.6890947,23.8787475 C46.0236531,23.8252307 45.3630337,23.7229726 44.7125541,23.5727965 L44.7125541,23.5727965 Z" id="Path" stroke="#263238" stroke-width="0.541484716" fill="#595959" fill-rule="nonzero" stroke-linecap="round" stroke-linejoin="round"></path>
                        <path d="M61.8895177,38.7392249 C61.8895177,38.7392249 61.8895177,39.8756144 58.2423875,43.420761 C54.5952572,46.9659075 56.3435487,51.4094817 57.1011416,52.2010692 C57.6316663,52.7180606 58.2587103,53.1256392 58.9465604,53.4005914 L59.1505277,51.5843108 C59.1505277,51.5843108 59.5681751,52.9052421 61.787534,53.2986077 C64.0068929,53.6919733 64.5216676,52.9052421 63.3124327,51.0695361 C62.1031978,49.2338301 62.3168778,46.1354691 63.1910236,44.6785595 C63.7434522,43.7867064 64.4095013,42.9704697 65.1724205,42.250377 L61.8895177,38.7392249 Z" id="Path" stroke="#263238" stroke-width="0.541484716" fill="#FFB76F" fill-rule="nonzero" stroke-linecap="round" stroke-linejoin="round"></path>
                        <path d="M63.9340474,22.368418 C63.9340474,22.368418 62.146905,25.3308007 62.0157832,26.4477647 C61.8846613,27.5647287 62.6325416,28.4971508 62.5548397,29.1964674 C62.4771379,29.895784 61.680694,30.6533769 60.8842501,31.4109699 C60.0878062,32.1685629 58.8785713,32.8678795 59.5147551,33.5186324 C60.0375905,34.0078657 60.6013707,34.4514161 61.1999138,34.8444201 C61.1999138,34.8444201 61.3601739,36.4373079 61.6029921,38.0641902 C61.8652359,39.8027689 62.8996416,43.5227446 63.7397928,43.6198719 C64.579944,43.7169992 68.8778272,43.2167936 70.8543678,42.0269842 C72.8309084,40.8371747 75.2736601,39.4142597 76.4391877,36.4227388 C77.6047154,33.4312178 78.8673703,30.0511877 74.6229072,25.0394188 C70.378444,20.02765 65.4832279,20.2267609 63.9340474,22.368418 Z" id="Path" stroke="#263238" stroke-width="0.541484716" fill="#FFFFFF" fill-rule="nonzero" stroke-linecap="round" stroke-linejoin="round"></path>
                        <path d="M62.2488887,36.4227388 C63.5236299,36.7063146 64.8582801,36.5055112 65.9931463,35.8594004 C65.9931463,35.8594004 64.5750876,37.8262283 63.6912292,37.8262283 C62.8073707,37.8262283 62.2488887,36.4227388 62.2488887,36.4227388 Z" id="Path" stroke="#263238" stroke-width="0.541484716" fill="#FFFFFF" fill-rule="nonzero" stroke-linecap="round" stroke-linejoin="round"></path>
                        <path d="M66.30881,29.7646621 C66.2456772,30.308575 65.9154444,30.7359351 65.5657861,30.6728024 C65.2161278,30.6096696 64.9878787,30.1871659 65.0510114,29.6238275 C65.1141442,29.0604892 65.444377,28.6768363 65.7891789,28.7156872 C66.1339808,28.7545382 66.3670864,29.2256056 66.30881,29.7646621 Z" id="Path" fill="#263238" fill-rule="nonzero"></path>
                        <path d="M64.327413,27.2782031 C64.327413,27.2782031 65.497797,25.7144536 67.7608632,26.9625394" id="Path" stroke="#263238" stroke-width="0.541484716" stroke-linecap="round" stroke-linejoin="round"></path>
                        <path d="M72.4326865,25.6561772 C72.4326865,25.6561772 71.6459553,36.3158987 69.8005366,41.3422367 C67.9551178,46.3685746 67.2897958,49.685472 68.6398653,50.2633795 C69.9899348,50.8412869 70.7718096,48.9473045 70.7718096,48.9473045 C70.7718096,48.9473045 72.0150391,54.1824662 76.2157949,55.7947794 C80.4165508,57.4070926 80.4068381,54.9983355 80.4068381,54.9983355 C80.4068381,54.9983355 81.9414495,56.4552451 86.0402217,55.216872 C90.1389939,53.9784988 91.5521961,49.0492882 91.7853017,47.237864 C91.9072128,45.8279298 91.9266894,44.4110095 91.843578,42.9982572 C91.843578,42.9982572 91.1442615,44.192923 89.0463117,43.9695302 C86.948362,43.7461374 83.6217518,40.6623455 83.6217518,40.6623455 C83.6217518,40.6623455 85.8896743,40.6623455 86.2781836,40.9682966 C86.6666928,41.2742476 83.6120391,37.5251336 83.6120391,37.5251336 C83.6120391,37.5251336 74.7880236,25.9232773 72.4326865,25.6561772 Z" id="Path" stroke="#263238" stroke-width="0.541484716" fill="#FFB76F" fill-rule="nonzero" stroke-linecap="round" stroke-linejoin="round"></path>
                        <path d="M74.7491727,30.109464 C74.7491727,30.109464 72.1801555,39.8221944 74.0158615,44.6008577" id="Path" stroke="#263238" stroke-width="0.541484716" stroke-linecap="round" stroke-linejoin="round"></path>
                        <path d="M77.133648,31.9597392 C77.133648,31.9597392 74.9337145,42.6048916 77.8669591,48.4713807 C80.8002037,54.3378699 87.0406329,52.3224783 87.5796894,52.1379364" id="Path" stroke="#263238" stroke-width="0.541484716" stroke-linecap="round" stroke-linejoin="round"></path>
                        <path d="M80.8827619,35.6845712 C79.7188703,39.0508607 81.0620665,42.7729707 84.1073883,44.6202832" id="Path" stroke="#263238" stroke-width="0.541484716" stroke-linecap="round" stroke-linejoin="round"></path>
                        <path d="M67.0178393,18.7941332 C67.0178393,18.7941332 70.4804277,16.1522705 72.0490336,15.7006286 C73.6176396,15.2489866 80.0426107,15.4723794 81.0867292,15.2149921 C82.1308477,14.9576047 85.2923414,14.9381793 86.3558854,16.7010398 C87.4194294,18.4639004 86.4481563,23.6699238 86.5549964,24.9568606 C86.6618364,26.2437974 86.6229855,29.9006403 85.9285253,31.5906554 C85.2340651,33.2806705 84.5735994,34.6016018 84.5735994,34.6016018 C84.5735994,34.6016018 81.2955529,28.9147982 76.3954804,25.3162316 C73.4092875,23.1331443 70.2428617,21.2079444 66.9304247,19.5614389 L67.0178393,18.7941332 Z" id="Path" stroke="#263238" stroke-width="0.541484716" fill="#263238" fill-rule="nonzero" stroke-linecap="round" stroke-linejoin="round"></path>
                        <path d="M63.9340474,22.368418 C63.9340474,22.368418 66.5176337,21.8827814 69.0332309,24.2138367 C71.548828,26.544892 79.2801614,34.2373744 80.8827619,35.6845712 C81.6664214,36.4520067 82.5829634,37.0707137 83.5877573,37.5105646 C83.5877573,37.5105646 85.1175123,35.1552274 85.219496,34.2810817 C85.3214796,33.406936 80.3291362,26.132101 76.5605969,22.5432471 C72.7920575,18.9543932 67.9551178,18.1433803 66.8041592,18.2696458 C65.6532007,18.3959113 63.5601073,21.1883212 63.9340474,22.368418 Z" id="Path" stroke="#263238" stroke-width="0.541484716" fill="#263238" fill-rule="nonzero" stroke-linecap="round" stroke-linejoin="round"></path>
                    </g>
                    <g id="freepik--character-1--inject-4" transform="translate(44.678560, 12.626549)" stroke="#263238">
                        <path d="M42.1872442,69.3294691 C42.1872442,69.3294691 44.192923,69.1740654 44.192923,70.4172949 C44.192923,71.6605244 42.3475043,72.10731 42.0415533,71.3400043 C41.7356022,70.5726986 42.1872442,69.3294691 42.1872442,69.3294691 Z" id="Path" stroke-width="0.541484716" fill="#999999" fill-rule="nonzero"></path>
                        <path d="M42.3523606,67.6491668 C42.3523606,67.6491668 44.3483267,67.4986195 44.3483267,68.7272798 C44.3483267,69.9559402 42.5029079,70.4172949 42.1969569,69.6499892 C41.8910059,68.8826835 42.3523606,67.6491668 42.3523606,67.6491668 Z" id="Path" stroke-width="0.541484716" fill="#FFFFFF" fill-rule="nonzero"></path>
                        <path d="M42.7360135,65.9203008 C42.7360135,65.9203008 44.7319796,65.7648971 44.7319796,66.9984138 C44.7319796,68.2319306 42.8865608,68.6884289 42.5806098,67.9211232 C42.2746588,67.1538175 42.7360135,65.9203008 42.7360135,65.9203008 Z" id="Path" stroke-width="0.541484716" fill="#999999" fill-rule="nonzero"></path>
                        <path d="M42.4057806,64.8373313 C42.4057806,64.8373313 44.4017467,64.686784 44.4017467,65.9154444 C44.4017467,67.1441048 42.5611843,67.6054595 42.250377,66.8381538 C41.9395696,66.0708481 42.4057806,64.8373313 42.4057806,64.8373313 Z" id="Path" stroke-width="0.541484716" fill="#999999" fill-rule="nonzero"></path>
                        <path d="M1.01498032,170.526406 C1.01498032,170.526406 0.864433,172.493234 0.864433,173.401375 C0.894275962,174.11541 0.995138324,174.8247 1.16552764,175.51875 L29.444142,175.51875 C29.444142,175.51875 29.5946893,173.853017 27.9289561,172.19214 C26.2632228,170.531263 20.9746412,169.166624 19.6148589,169.166624 C18.2550767,169.166624 13.8697789,165.538919 13.112186,165.087277 C12.354593,164.635636 1.01498032,170.526406 1.01498032,170.526406 Z" id="Path" stroke-width="0.541484716" fill="#FFB76F" fill-rule="nonzero" stroke-linecap="round" stroke-linejoin="round"></path>
                        <path d="M0.971273033,174.50377 C1.05868761,175.067108 1.17038401,175.51875 1.17038401,175.51875 L29.4489984,175.51875 C29.4489984,175.51875 29.5995457,173.853017 27.9338124,172.19214 C27.0450976,171.303425 25.1171206,170.502125 23.3056964,169.943643 C23.3012467,171.498316 23.0302187,173.040712 22.5043962,174.50377 L0.971273033,174.50377 Z" id="Path" stroke-width="0.541484716" fill="#FFFFFF" fill-rule="nonzero" stroke-linecap="round" stroke-linejoin="round"></path>
                        <path d="M10.8442634,97.8023381 C10.8442634,97.8023381 7.51765328,118.364188 6.47353477,121.540251 C5.42941626,124.716314 1.6171696,131.21413 0.879002095,135.448881 C0.14083459,139.683631 -0.330232831,142.247792 0.427360135,144.219476 C1.1849531,146.191161 0.728454775,162.061762 0.728454775,162.061762 C0.728454775,162.061762 0.121409129,166.597607 0.276812815,167.957389 C0.4322165,169.317172 0.728454775,171.133452 0.728454775,171.133452 C1.55413633,171.59777 2.51657888,171.757604 3.44801927,171.585094 C4.9632052,171.283999 7.68276969,169.317172 7.68276969,169.317172 C7.68276969,169.317172 12.0534983,167.049249 12.8256604,165.990561 C13.5978225,164.931874 12.6751131,157.069419 12.6751131,153.441714 C12.6751131,149.814009 14.1854427,133.637457 15.2441303,131.369534 C16.3028179,129.101612 19.4788807,120.481563 21.5962559,110.050091 C23.7136311,99.6186187 25.2628116,94.8156735 22.0478979,88.424697 C18.8329841,82.0337204 11.2959054,90.2409775 10.8442634,97.8023381 Z" id="Path" stroke-width="0.541484716" fill="#263238" fill-rule="nonzero" stroke-linecap="round" stroke-linejoin="round"></path>
                        <path d="M18.099673,165.990561 C18.099673,165.990561 24.2818258,169.001508 26.1175319,169.623123 C27.9532379,170.244737 31.5566609,170.832357 32.6153485,172.19214 C33.6740361,173.551922 33.2223941,175.669297 33.2223941,175.669297 L6.60951299,175.669297 C6.01700033,174.122432 5.86076963,172.442532 6.15787103,170.812932 C6.60951299,167.957389 18.099673,165.990561 18.099673,165.990561 Z" id="Path" stroke-width="0.541484716" fill="#FFB76F" fill-rule="nonzero" stroke-linecap="round" stroke-linejoin="round"></path>
                        <path d="M6.60951299,175.669297 L33.2223941,175.669297 C33.2223941,175.669297 33.6740361,173.551922 32.6153485,172.19214 C31.7120645,171.031468 28.9439364,170.419566 27.0208158,169.890223 L27.0208158,174.61061 L6.2744238,174.61061 C6.35480742,174.972663 6.46693745,175.326929 6.60951299,175.669297 L6.60951299,175.669297 Z" id="Path" stroke-width="0.541484716" fill="#FFFFFF" fill-rule="nonzero" stroke-linecap="round" stroke-linejoin="round"></path>
                        <path d="M6.11902011,78.5225684 C6.11902011,78.5225684 4.66211056,84.7581413 5.55082539,88.1624532 C6.43954021,91.5667652 8.25582078,95.6703938 9.06683377,96.7776451 C9.87784675,97.8848963 9.74672489,111.293321 9.63502849,115.717469 C9.52333209,120.141618 6.23557287,127.625277 4.4192923,132.501067 C2.60301173,137.376858 4.4192923,144.977069 4.4192923,149.396362 C4.4192923,153.815654 4.30273954,156.540075 4.4192923,159.152799 C4.53584507,161.765524 4.75923786,164.494801 4.75923786,164.494801 C4.59517294,165.204619 4.48157369,165.925162 4.4192923,166.651027 C4.30273954,167.899113 5.55082539,168.462451 5.55082539,168.462451 C5.63606829,169.064007 5.67503355,169.671215 5.66737815,170.278732 C5.67609791,170.983066 5.91485739,171.665236 6.34726927,172.221278 C6.34726927,172.221278 13.1461805,169.496857 14.9624611,168.47702 C16.7787417,167.457184 18.9349678,166.325651 18.9349678,166.325651 C18.8694003,165.152635 18.9067755,163.97613 19.0466642,162.809642 C19.2749133,161.789806 17.5897546,159.861829 17.5897546,159.861829 C17.5897546,159.861829 17.7063074,153.737952 17.8180038,151.353477 C17.9297002,148.969002 22.4509762,133.064406 23.7961893,123.997572 C25.1414025,114.930738 27.9920888,103.469716 28.6525545,96.6659487 C29.3130201,89.8621811 28.9925,79.6686706 28.9925,79.3141559 C28.9925,78.9596413 12.7770968,78.862514 11.3007617,78.6342648 C9.82442673,78.4060156 6.53666752,77.7261245 6.53666752,77.7261245 L6.11902011,78.5225684 Z" id="Path" stroke-width="0.541484716" fill="#263238" fill-rule="nonzero" stroke-linecap="round" stroke-linejoin="round"></path>
                        <polygon id="Path" stroke-width="0.541484716" fill="#999999" fill-rule="nonzero" points="28.9099418 64.686784 37.4182936 65.7066207 37.52999 70.5824113 29.5946893 70.9223569"></polygon>
                        <path d="M14.28257,29.0799146 C14.28257,29.0799146 12.2428966,30.0997513 11.902951,31.5760863 C11.5630055,33.0524213 6.23071651,38.7197995 5.10403979,42.6874498 C3.97736307,46.6551002 4.42414867,54.4835608 4.98748703,57.8830164 C5.55082539,61.282472 6.44439658,68.0813833 6.23557287,70.8106605 C6.02674917,73.5399377 4.87579063,77.5027317 5.55568175,78.862514 C6.23557287,80.2222962 13.724088,81.1304365 19.0515206,81.0187401 C24.3789531,80.9070437 29.2498874,81.8103276 30.2794368,79.8823506 C31.3089862,77.9543737 30.7310788,72.9668866 30.3911332,69.1109327 C30.0511877,65.2549788 27.1956449,49.379521 26.4186265,45.1641961 C25.6416081,40.9488711 23.8107584,38.0204829 22.222727,35.5243112 C20.6346956,33.0281395 16.3270997,29.3081638 14.28257,29.0799146 Z" id="Path" stroke-width="0.541484716" fill="#FB7D00" fill-rule="nonzero" stroke-linecap="round" stroke-linejoin="round"></path>
                        <path d="M28.3417471,4.57955235 C28.3417471,4.57955235 30.8913388,6.80862396 31.7412027,9.13967924 C32.5910666,11.4707345 31.8480428,13.5978225 32.5910666,14.6613664 C33.3340905,15.7249104 34.6064582,16.4630779 34.8201382,17.6334619 C35.0338183,18.8038459 33.3340905,19.3283334 33.3340905,19.3283334 L33.3340905,20.7075411 C33.3340905,20.7075411 33.9702743,20.9212211 33.9702743,21.3485813 C33.886212,21.7405694 33.7040837,22.1048261 33.4409305,22.4072689 C33.6410488,22.8012468 33.6793856,23.2578031 33.5477706,23.6796366 C33.4311542,24.1180544 33.1169646,24.4771282 32.6979067,24.6509096 C32.6272734,25.5042309 32.3738642,26.3323654 31.9548828,27.0790922 C31.318699,28.0503652 29.4101475,28.5651399 27.9240997,28.5651399 C26.438052,28.5651399 23.9953003,27.5938669 23.9953003,27.5938669 C23.9953003,27.5938669 22.6160926,30.6728024 22.6160926,32.5813539 C22.6160926,34.4899054 22.7229326,38.3118648 22.7229326,38.3118648 C22.7229326,38.3118648 17.9442693,34.1742417 16.7787417,32.901874 C15.968388,32.0435695 15.0807891,31.2616371 14.1271663,30.5659624 C14.1271663,30.5659624 15.0984393,27.0645231 14.54967,24.4080913 C14.0009008,21.7516596 9.88270312,19.9499481 8.49863904,15.812325 C7.11457497,11.6747019 8.18297531,5.94419096 12.4274385,3.07893552 C16.6719016,0.213680067 22.0867488,-0.213680067 24.7383242,0.106840034 C27.3898995,0.427360135 30.9933225,3.09350461 28.3417471,4.57955235 Z" id="Path" stroke-width="0.541484716" fill="#999999" fill-rule="nonzero" stroke-linecap="round" stroke-linejoin="round"></path>
                        <path d="M28.3417471,4.57955235 C30.9933225,3.09350461 27.3704741,0.437072865 24.7334678,0.121409129 C22.0964615,-0.194254607 16.6670453,0.228249163 12.4225821,3.09350461 C8.17811894,5.95876006 7.11457497,11.689271 8.49378268,15.8268941 C9.71273033,19.4788807 13.0684787,21.3097304 14.2145808,23.5145201 C15.9337341,23.1697182 16.0162923,21.8730687 15.8171813,20.3918773 C15.6083576,18.7989896 16.5602052,17.0992618 17.6237492,16.8904381 C18.6872932,16.6816143 19.9596608,15.919165 19.7459808,14.9770302 C19.5323007,14.0348953 19.1097969,12.7479586 20.1684845,11.796111 C21.2271721,10.8442634 22.3975562,9.77586308 22.0818924,7.9741516 C21.7662287,6.17244013 20.1684845,5.85192003 22.2907161,4.89521609 C24.4129477,3.93851215 28.3417471,4.57955235 28.3417471,4.57955235 Z" id="Path" stroke-width="0.541484716" fill="#263238" fill-rule="nonzero" stroke-linecap="round" stroke-linejoin="round"></path>
                        <path d="M31.9500264,12.6265494 C31.9500264,12.6265494 29.084771,11.5630055 25.2628116,13.0490532 C25.2628116,13.0490532 25.1559716,17.4197819 27.8124033,17.5071964 C30.4688351,17.594611 32.5862103,16.9972781 31.9500264,12.6265494 Z" id="Path" stroke-width="0.541484716" stroke-linecap="round" stroke-linejoin="round"></path>
                        <path d="M31.9500264,12.6265494 C31.9500264,12.6265494 33.8585779,12.6265494 34.072258,12.9422132 C34.2859381,13.2578769 34.4996181,14.8507647 33.8585779,15.4918049" id="Path" stroke-width="0.541484716" stroke-linecap="round" stroke-linejoin="round"></path>
                        <polygon id="Path" stroke-width="0.541484716" fill="#263238" fill-rule="nonzero" stroke-linecap="round" stroke-linejoin="round" points="25.2628116 13.0684787 16.1377015 16.2542542 16.2445415 16.676758 21.2320285 14.9770302 22.0818924 15.1907102 25.2822371 14.4816809"></polygon>
                        <path d="M18.4541876,17.8422856 C18.0915437,16.5058462 16.8666143,15.5871491 15.4820922,15.613214 C13.0539096,15.613214 13.6755243,18.9058296 14.3117081,20.2850373 C14.947892,21.664245 16.6476198,23.2571328 18.3473476,21.9847651" id="Path" stroke-width="0.541484716" fill="#999999" fill-rule="nonzero" stroke-linecap="round" stroke-linejoin="round"></path>
                        <path d="M26.8702685,11.956371 C27.7877185,11.286503 28.9134379,10.9646229 30.0463313,11.0482308" id="Path" stroke-width="0.541484716" stroke-linecap="round" stroke-linejoin="round"></path>
                        <path d="M33.3292341,19.3283334 C33.3292341,19.3283334 32.2025574,20.4598664 31.3866881,19.5517262 C30.5708187,18.6435859 30.9350461,18.1919439 30.9350461,18.1919439" id="Path" stroke-width="0.541484716" stroke-linecap="round" stroke-linejoin="round"></path>
                        <path d="M28.9147982,22.6160926 C29.0822362,23.5117266 29.671872,24.27138 30.4979733,24.655766 C31.9548828,25.4522098 33.5234888,24.4080913 33.5429142,23.6844929 C33.5558476,23.2576862 33.520002,22.8307985 33.4360742,22.4121252 C31.9749483,22.8865747 30.4127094,22.9570517 28.9147982,22.6160926 L28.9147982,22.6160926 Z" id="Path" stroke-width="0.541484716" fill="#787878" fill-rule="nonzero" stroke-linecap="round" stroke-linejoin="round"></path>
                        <path d="M33.965418,21.3680067 C33.965418,20.9406466 33.3292341,20.7269665 33.3292341,20.7269665 C32.6343271,21.1361408 31.9177737,21.5073868 31.1827207,21.8390742 C30.2395759,22.1857532 29.2273025,22.3022978 28.2300507,22.1790197 C29.037516,22.5161717 29.8727031,22.7826517 30.7262224,22.9754636 C31.6665182,23.1547546 32.6396184,22.9576931 33.4360742,22.4266943 C33.6992273,22.1242516 33.8813556,21.7599949 33.965418,21.3680067 L33.965418,21.3680067 Z" id="Path" stroke-width="0.541484716" fill="#595959" fill-rule="nonzero" stroke-linecap="round" stroke-linejoin="round"></path>
                        <path d="M27.8901052,14.4525427 C28.5489139,14.2300748 29.2392833,14.1152865 29.9346349,14.1125972" id="Path" stroke-width="1.08296943" stroke-linecap="round" stroke-linejoin="round"></path>
                        <path d="M6.23071651,75.8030039 C6.23071651,75.8030039 13.0296277,83.9665537 14.3991227,85.5545852 C15.2878765,86.6177608 16.083989,87.7550644 16.7787417,88.9540408 L17.9151311,90.6537686 L20.29475,85.8945307 C19.7201713,84.6445998 19.2333566,83.3561636 18.8378405,82.0385768 C18.046253,79.5424051 14.7584937,70.8106605 14.7584937,70.8106605 C14.7584937,70.8106605 11.3347563,75.8030039 6.23071651,75.8030039 Z" id="Path" stroke-width="0.541484716" fill="#999999" fill-rule="nonzero" stroke-linecap="round" stroke-linejoin="round"></path>
                        <path d="M16.2105469,39.9678853 C14.3719282,39.3386701 12.3359397,39.9198276 11.1065071,41.4247949 C8.8385846,44.032663 8.04699708,46.1888891 7.70705152,48.6850608 C7.36710596,51.1812325 2.94295729,64.3322694 2.71470813,67.0518339 C2.48645897,69.7713984 3.51115202,71.3642861 3.51115202,71.3642861 C3.03665268,72.0779579 3.13220693,73.0274011 3.73940118,73.6322087 C4.75923786,74.8802945 5.19631073,74.9919909 5.19631073,74.9919909 C5.3328086,75.512042 5.66289585,75.9602658 6.11902011,76.2449331 C6.79891123,76.5848787 10.3149196,75.9049876 12.8110913,74.5452053 C15.307263,73.1854231 15.758905,71.8207845 15.758905,70.6892514 C15.7763259,70.0665162 15.6604208,69.447252 15.4189594,68.8729708 C15.3434696,68.4603667 15.3434696,68.0374891 15.4189594,67.624885 C15.5306558,66.8332974 14.6225155,65.1335696 14.6225155,65.1335696 C14.6225155,65.1335696 20.8629448,52.5458711 20.746392,48.2334188" id="Path" stroke-width="0.541484716" fill="#FB7D00" fill-rule="nonzero" stroke-linecap="round" stroke-linejoin="round"></path>
                        <path d="M39.404547,62.3023106 C39.1678063,62.3029802 38.9707233,62.1207314 38.952905,61.8846613 L38.6566667,58.3735093 L35.2572111,55.2654356 C35.0721465,55.0964635 35.0591008,54.8094601 35.2280729,54.6243954 C35.397045,54.4393307 35.6840485,54.4262851 35.8691131,54.5952572 L39.404547,57.82474 C39.4891488,57.9012655 39.5412742,58.0072538 39.5502379,58.1209783 L39.8610692,61.8118158 C39.8634444,62.0555724 39.6847671,62.2633366 39.4433979,62.2974524 L39.404547,62.3023106 Z" id="Path" stroke-width="0.541484716" fill="#FFFFFF" fill-rule="nonzero"></path>
                        <polygon id="Path" stroke-width="0.541484716" fill="#FB7D00" fill-rule="nonzero" stroke-linecap="round" stroke-linejoin="round" points="42.3766425 74.6034817 36.3498933 74.6034817 35.2232166 62.0012141 43.5081755 62.0012141"></polygon>
                        <rect id="Rectangle" stroke-width="0.541484716" fill="#FFFFFF" fill-rule="nonzero" stroke-linecap="round" stroke-linejoin="round" x="34.7521491" y="61.2339084" width="9.22223745" height="2.30677345"></rect>
                        <path d="M35.4077584,64.7693422 C35.4077584,64.7693422 33.5623397,64.6139386 33.5623397,65.6920516 C33.5623397,66.7701647 33.8682907,69.5334365 35.0969511,69.6888402 C36.3256115,69.8442438 35.8691131,66.920712 35.4077584,64.7693422 Z" id="Path" stroke-width="0.541484716" fill="#999999" fill-rule="nonzero"></path>
                    </g>
                    <g id="freepik--Floor--inject-4" transform="translate(15.054732, 187.941332)" stroke="#263238" stroke-linecap="round" stroke-linejoin="round" stroke-width="0.541484716">
                        <line x1="0" y1="0.395283843" x2="192.797697" y2="0.395283843" id="Path"></line>
                    </g>
                </g>
            </g>
        </g>
    </g>
</svg>