<svg xmlns="http://www.w3.org/2000/svg" width="345" height="113" viewBox="0 0 345 113"><g><g transform="matrix(-1 0 0 1 345 0)"><g><g><path fill="#263238" d="M316.99 106.13v.732l1.335.973-.525-1.614.127-.091h-.937z"/></g><g><path fill="#263238" d="M316.993 106.13h-1.005l.127.09-.525 1.615 1.373-.996.03.023v-.732z"/></g><g><path fill="#263238" d="M296.81 106.13v.732l1.327.973-.517-1.614.12-.091h-.93z"/></g><g><path fill="#263238" d="M296.802 106.13h-1.005l.12.09-.517 1.615 1.365-.996.037.023v-.732z"/></g><g><path fill="#263238" d="M256.43 106.13v.732l1.335.973-.518-1.614.12-.091h-.937z"/></g><g><path fill="#263238" d="M256.425 106.13h-.998l.12.09-.517 1.615 1.365-.996.03.023v-.732z"/></g><g><path fill="#263238" d="M236.24 106.13v.732l1.345.973-.529-1.614.129-.091h-.945z"/></g><g><path fill="#263238" d="M236.242 106.13h-1.005l.128.09-.525 1.615 1.365-.996.037.023v-.732z"/></g><g><path fill="#263238" d="M216.05 106.13v.732l1.345.973-.529-1.614.129-.091h-.945z"/></g><g><path fill="#263238" d="M216.055 106.13h-1.005l.128.09-.518 1.615 1.365-.996.03.023v-.732z"/></g><g><path fill="#263238" d="M196.768 106.49v1.02l.435.315-.435-1.335z"/></g><g><path fill="#fff" d="M.49 79.09h61.987v31.598H.49z"/><path fill="none" stroke="#263238" stroke-linecap="round" stroke-linejoin="round" stroke-miterlimit="20" stroke-width=".75" d="M.49 79.09v0h61.987v31.598H.49v0z"/></g><g><g><path fill="#fff" d="M156.98 17.76h75.68v93.487h-75.68z"/><path fill="none" stroke="#263238" stroke-linecap="round" stroke-linejoin="round" stroke-miterlimit="20" stroke-width=".5" d="M156.98 17.76v0h75.68v93.487h-75.68v0z"/></g><g><path fill="#263238" d="M225.127 17.857l.127-.092h-.654v.092h.527z"/></g><g><path fill="#263238" d="M230.586 22.993l-.296-.903-.29.903h-.95l.768.557-.296.902.768-.556.772.556-.295-.902.768-.557h-.95z"/></g><g><path fill="#263238" d="M224.6 29.21h.527l.696-.506h-.949l-.274-.844v1.35z"/></g><g><path fill="#263238" d="M224.6 17.86v.41l.75.543-.294-.902.071-.051h-.527z"/></g><g><path fill="#263238" d="M230.586 34.343l-.296-.903-.29.903h-.95l.768.557-.296.907.768-.561.772.56-.295-.906.768-.557h-.95z"/></g><g><path fill="#263238" d="M224.6 40.564h.527l.696-.506h-.949l-.274-.848v1.354z"/></g><g><path fill="#263238" d="M224.6 29.21v.413l.75.545-.294-.907.071-.051h-.527z"/></g><g><path fill="#263238" d="M230.586 45.703l-.296-.903-.29.903h-.95l.768.557-.296.903.768-.557.772.557-.295-.903.768-.557h-.95z"/></g><g><path fill="#263238" d="M224.6 51.92h.527l.696-.506h-.949l-.274-.844v1.35z"/></g><g><path fill="#263238" d="M224.6 40.56v.41l.75.543-.294-.902.071-.051h-.527z"/></g><g><path fill="#263238" d="M230.586 57.053l-.296-.903-.29.903h-.95l.768.56-.296.904.768-.561.772.56-.295-.902.768-.561h-.95z"/></g><g><path fill="#263238" d="M224.6 63.274h.527l.696-.506h-.949l-.274-.848v1.354z"/></g><g><path fill="#263238" d="M224.6 51.92v.413l.75.545-.294-.903.071-.055h-.527z"/></g><g><path fill="#263238" d="M230.586 68.413l-.296-.903-.29.903h-.95l.768.557-.296.903.768-.557.772.556-.295-.902.768-.557h-.95z"/></g><g><path fill="#263238" d="M224.6 74.63h.527l.696-.506h-.949l-.274-.844v1.35z"/></g><g><path fill="#263238" d="M224.6 63.27v.41l.75.543-.294-.902.071-.051h-.527z"/></g><g><path fill="#263238" d="M230.586 79.763l-.296-.903-.29.903h-.95l.768.56-.296.904.768-.561.772.56-.295-.902.768-.561h-.95z"/></g><g><path fill="#263238" d="M224.6 85.984h.527l.696-.506h-.949l-.274-.848v1.354z"/></g><g><path fill="#263238" d="M224.6 74.63v.413l.75.545-.294-.903.071-.055h-.527z"/></g><g><path fill="#263238" d="M230.586 91.123l-.296-.903-.29.903h-.95l.768.557-.296.903.768-.557.772.557-.295-.903.768-.557h-.95z"/></g><g><path fill="#263238" d="M224.6 97.34h.527l.696-.506h-.949l-.274-.844v1.35z"/></g><g><path fill="#263238" d="M224.6 85.98v.41l.75.543-.294-.902.071-.051h-.527z"/></g><g><path fill="#263238" d="M230.586 102.473l-.296-.903-.29.903h-.95l.768.56-.296.904.768-.557.772.557-.295-.903.768-.561h-.95z"/></g><g><path fill="#263238" d="M225.823 108.184h-.949l-.274-.844v1.35h.527l.696-.506z"/></g><g><path fill="#263238" d="M224.6 97.34v.413l.75.545-.294-.903.071-.055h-.527z"/></g><g><path fill="#263238" d="M224.6 108.69v.41l.75.543-.294-.902.071-.051h-.527z"/></g><g><path fill="#263238" d="M224.598 17.857v-.092h-.688l.122.092h.566z"/></g><g><path fill="#263238" d="M213.773 17.857l.127-.092h-.65v.092h.523z"/></g><g><path fill="#263238" d="M219.23 22.993l-.295-.903-.296.903h-.949l.768.557-.291.902.768-.556.767.556-.29-.902.767-.557h-.95z"/></g><g><path fill="#263238" d="M223.34 28.703l.696.506h.565v-1.35l-.016-.059-.296.903h-.949z"/></g><g><path fill="#263238" d="M224.599 17.86h-.565l.071.05-.295.903.772-.556.017.012v-.409z"/></g><g><path fill="#263238" d="M213.25 29.21h.523l.7-.506h-.949l-.274-.844v1.35z"/></g><g><path fill="#263238" d="M213.25 17.86v.41l.747.543-.291-.902.067-.051h-.523z"/></g><g><path fill="#263238" d="M219.23 34.343l-.295-.903-.296.903h-.949l.768.557-.291.907.768-.561.767.56-.29-.906.767-.557h-.95z"/></g><g><path fill="#263238" d="M223.34 40.063l.696.506h.565v-1.354l-.016-.055-.296.903h-.949z"/></g><g><path fill="#263238" d="M224.599 29.21h-.565l.071.05-.295.908.772-.561.017.016v-.413z"/></g><g><path fill="#263238" d="M213.25 40.564h.523l.7-.506h-.949l-.274-.848v1.354z"/></g><g><path fill="#263238" d="M213.25 29.21v.413l.747.545-.291-.907.067-.051h-.523z"/></g><g><path fill="#263238" d="M219.23 45.703l-.295-.903-.296.903h-.949l.768.557-.291.903.768-.557.767.557-.29-.903.767-.557h-.95z"/></g><g><path fill="#263238" d="M223.34 51.413l.696.506h.565v-1.35l-.016-.059-.296.903h-.949z"/></g><g><path fill="#263238" d="M224.599 40.56h-.565l.071.05-.295.903.772-.556.017.012v-.409z"/></g><g><path fill="#263238" d="M213.25 51.92h.523l.7-.506h-.949l-.274-.844v1.35z"/></g><g><path fill="#263238" d="M213.25 40.56v.41l.747.543-.291-.902.067-.051h-.523z"/></g><g><path fill="#263238" d="M219.23 57.053l-.295-.903-.296.903h-.949l.768.56-.291.904.768-.561.767.56-.29-.902.767-.561h-.95z"/></g><g><path fill="#263238" d="M223.34 62.773l.696.506h.565v-1.354l-.016-.055-.296.903h-.949z"/></g><g><path fill="#263238" d="M224.599 51.92h-.565l.071.055-.295.903.772-.561.017.016v-.413z"/></g><g><path fill="#263238" d="M213.25 63.274h.523l.7-.506h-.949l-.274-.848v1.354z"/></g><g><path fill="#263238" d="M213.25 51.92v.413l.747.545-.291-.903.067-.055h-.523z"/></g><g><path fill="#263238" d="M219.23 68.413l-.295-.903-.296.903h-.949l.768.557-.291.903.768-.557.767.556-.29-.902.767-.557h-.95z"/></g><g><path fill="#263238" d="M223.34 74.123l.696.506h.565v-1.35l-.016-.059-.296.903h-.949z"/></g><g><path fill="#263238" d="M224.599 63.27h-.565l.071.05-.295.903.772-.556.017.012v-.409z"/></g><g><path fill="#263238" d="M213.25 74.63h.523l.7-.506h-.949l-.274-.844v1.35z"/></g><g><path fill="#263238" d="M213.25 63.27v.41l.747.543-.291-.902.067-.051h-.523z"/></g><g><path fill="#263238" d="M219.23 79.763l-.295-.903-.296.903h-.949l.768.56-.291.904.768-.561.767.56-.29-.902.767-.561h-.95z"/></g><g><path fill="#263238" d="M223.34 85.473l.696.506h.565v-1.35l-.016-.059-.296.903h-.949z"/></g><g><path fill="#263238" d="M224.599 74.63h-.565l.071.055-.295.903.772-.557.017.012v-.413z"/></g><g><path fill="#263238" d="M213.25 85.984h.523l.7-.506h-.949l-.274-.848v1.354z"/></g><g><path fill="#263238" d="M213.25 74.63v.413l.747.545-.291-.903.067-.055h-.523z"/></g><g><path fill="#263238" d="M219.23 91.123l-.295-.903-.296.903h-.949l.768.557-.291.903.768-.557.767.557-.29-.903.767-.557h-.95z"/></g><g><path fill="#263238" d="M224.601 97.34v-1.35l-.016-.06-.296.903h-.949l.696.506h.565z"/></g><g><path fill="#263238" d="M224.599 85.98h-.565l.071.05-.295.903.772-.556.017.012v-.409z"/></g><g><path fill="#263238" d="M214.473 96.834h-.949l-.274-.844v1.35h.523l.7-.506z"/></g><g><path fill="#263238" d="M213.25 85.98v.41l.747.543-.291-.902.067-.051h-.523z"/></g><g><path fill="#263238" d="M219.23 102.473l-.295-.903-.296.903h-.949l.768.56-.291.904.768-.557.767.557-.29-.903.767-.561h-.95z"/></g><g><path fill="#263238" d="M224.601 107.34l-.016-.06-.296.903h-.949l.696.506h.565v-1.35z"/></g><g><path fill="#263238" d="M224.599 97.34h-.565l.071.055-.295.903.772-.557.017.012v-.413z"/></g><g><path fill="#263238" d="M213.25 108.69h.523l.7-.506h-.949l-.274-.844v1.35z"/></g><g><path fill="#263238" d="M213.25 97.34v.413l.747.545-.291-.903.067-.055h-.523z"/></g><g><path fill="#263238" d="M224.599 108.69h-.565l.071.05-.295.903.772-.556.017.012v-.409z"/></g><g><path fill="#263238" d="M213.25 108.69v.41l.747.543-.291-.902.067-.051h-.523z"/></g><g><path fill="#263238" d="M213.252 17.857v-.092h-.692l.127.092h.565z"/></g><g><path fill="#263238" d="M202.417 17.857l.127-.092h-.654v.092h.527z"/></g><g><path fill="#263238" d="M207.876 22.993l-.296-.903-.29.903h-.95l.768.557-.296.902.768-.556.772.556-.295-.902.768-.557h-.95z"/></g><g><path fill="#263238" d="M211.98 28.703l.7.506h.566v-1.35l-.021-.059-.292.903h-.953z"/></g><g><path fill="#263238" d="M213.249 17.86h-.565l.067.05-.291.903.768-.556.02.012v-.409z"/></g><g><path fill="#263238" d="M201.89 29.21h.527l.696-.506h-.949l-.274-.844v1.35z"/></g><g><path fill="#263238" d="M201.89 18.27l.75.543-.294-.902.071-.051h-.527v.41z"/></g><g><path fill="#263238" d="M207.876 34.343l-.296-.903-.29.903h-.95l.768.557-.296.907.768-.561.772.56-.295-.906.768-.557h-.95z"/></g><g><path fill="#263238" d="M211.98 40.063l.7.506h.566v-1.354l-.021-.055-.292.903h-.953z"/></g><g><path fill="#263238" d="M213.249 29.21h-.565l.067.05-.291.908.768-.561.02.016v-.413z"/></g><g><path fill="#263238" d="M201.89 40.564h.527l.696-.506h-.949l-.274-.848v1.354z"/></g><g><path fill="#263238" d="M201.89 29.21v.413l.75.545-.294-.907.071-.051h-.527z"/></g><g><path fill="#263238" d="M207.876 45.703l-.296-.903-.29.903h-.95l.768.557-.296.903.768-.557.772.557-.295-.903.768-.557h-.95z"/></g><g><path fill="#263238" d="M211.98 51.413l.7.506h.566v-1.35l-.021-.059-.292.903h-.953z"/></g><g><path fill="#263238" d="M213.249 40.56h-.565l.067.05-.291.903.768-.556.02.012v-.409z"/></g><g><path fill="#263238" d="M203.113 51.414h-.949l-.274-.844v1.35h.527l.696-.506z"/></g><g><path fill="#263238" d="M201.89 40.56v.41l.75.543-.294-.902.071-.051h-.527z"/></g><g><path fill="#263238" d="M207.876 57.053l-.296-.903-.29.903h-.95l.768.56-.296.904.768-.561.772.56-.295-.902.768-.561h-.95z"/></g><g><path fill="#263238" d="M211.98 62.773l.7.506h.566v-1.354l-.021-.055-.292.903h-.953z"/></g><g><path fill="#263238" d="M213.249 51.92h-.565l.067.055-.291.903.768-.561.02.016v-.413z"/></g><g><path fill="#263238" d="M203.113 62.768h-.949l-.274-.848v1.354h.527l.696-.506z"/></g><g><path fill="#263238" d="M201.89 51.92v.413l.75.545-.294-.903.071-.055h-.527z"/></g><g><path fill="#263238" d="M207.876 68.413l-.296-.903-.29.903h-.95l.768.557-.296.903.768-.557.772.556-.295-.902.768-.557h-.95z"/></g><g><path fill="#263238" d="M211.98 74.123l.7.506h.566v-1.35l-.021-.059-.292.903h-.953z"/></g><g><path fill="#263238" d="M213.249 63.27h-.565l.067.05-.291.903.768-.556.02.012v-.409z"/></g><g><path fill="#263238" d="M203.113 74.124h-.949l-.274-.844v1.35h.527l.696-.506z"/></g><g><path fill="#263238" d="M201.89 63.27v.41l.75.543-.294-.902.071-.051h-.527z"/></g><g><path fill="#263238" d="M207.876 79.763l-.296-.903-.29.903h-.95l.768.56-.296.904.768-.561.772.56-.295-.902.768-.561h-.95z"/></g><g><path fill="#263238" d="M213.246 85.98v-1.35l-.021-.06-.292.903h-.953l.7.506h.566z"/></g><g><path fill="#263238" d="M213.249 74.63h-.565l.067.055-.291.903.768-.557.02.012v-.413z"/></g><g><path fill="#263238" d="M203.113 85.478h-.949l-.274-.848v1.354h.527l.696-.506z"/></g><g><path fill="#263238" d="M201.89 74.63v.413l.75.545-.294-.903.071-.055h-.527z"/></g><g><path fill="#263238" d="M207.876 91.123l-.296-.903-.29.903h-.95l.768.557-.296.903.768-.557.772.557-.295-.903.768-.557h-.95z"/></g><g><path fill="#263238" d="M213.246 95.99l-.021-.06-.292.903h-.953l.7.506h.566v-1.35z"/></g><g><path fill="#263238" d="M213.249 85.98h-.565l.067.05-.291.903.768-.556.02.012v-.409z"/></g><g><path fill="#263238" d="M202.417 97.34l.696-.506h-.949l-.274-.844v1.35h.527z"/></g><g><path fill="#263238" d="M201.89 85.98v.41l.75.543-.294-.902.071-.051h-.527z"/></g><g><path fill="#263238" d="M207.876 102.473l-.296-.903-.29.903h-.95l.768.56-.296.904.768-.557.772.557-.295-.903.768-.561h-.95z"/></g><g><path fill="#263238" d="M213.246 108.69v-1.35l-.021-.06-.292.903h-.953l.7.506h.566z"/></g><g><path fill="#263238" d="M213.249 97.34h-.565l.067.055-.291.903.768-.557.02.012v-.413z"/></g><g><path fill="#263238" d="M202.417 108.69l.696-.506h-.949l-.274-.844v1.35h.527z"/></g><g><path fill="#263238" d="M201.89 97.34v.413l.75.545-.294-.903.071-.055h-.527z"/></g><g><path fill="#263238" d="M213.249 108.69h-.565l.067.05-.291.903.768-.556.02.012v-.409z"/></g><g><path fill="#263238" d="M201.89 108.69v.41l.75.543-.294-.902.071-.051h-.527z"/></g><g><path fill="#263238" d="M201.892 17.857v-.092h-.692l.127.092h.565z"/></g><g><path fill="#263238" d="M191.057 17.857l.127-.092h-.654v.092h.527z"/></g><g><path fill="#263238" d="M196.516 22.993l-.291-.903-.296.903h-.949l.768.557-.291.902.768-.556.767.556-.295-.902.772-.557h-.953z"/></g><g><path fill="#263238" d="M200.63 28.703l.696.506h.565v-1.35l-.02-.059-.292.903h-.949z"/></g><g><path fill="#263238" d="M201.324 17.86l.071.05-.295.903.768-.556.02.012v-.409h-.564z"/></g><g><path fill="#263238" d="M190.53 29.21h.527l.7-.506h-.949l-.278-.844v1.35z"/></g><g><path fill="#263238" d="M190.53 17.86v.41l.75.543-.29-.902.067-.051h-.527z"/></g><g><path fill="#263238" d="M196.516 34.343l-.291-.903-.296.903h-.949l.768.557-.291.907.768-.561.767.56-.295-.906.772-.557h-.953z"/></g><g><path fill="#263238" d="M200.63 40.063l.696.506h.565v-1.354l-.02-.055-.292.903h-.949z"/></g><g><path fill="#263238" d="M201.324 29.21l.071.05-.295.908.768-.561.02.016v-.413h-.564z"/></g><g><path fill="#263238" d="M190.53 40.564h.527l.7-.506h-.949l-.278-.848v1.354z"/></g><g><path fill="#263238" d="M190.53 29.21v.413l.75.545-.29-.907.067-.051h-.527z"/></g><g><path fill="#263238" d="M196.516 45.703l-.291-.903-.296.903h-.949l.768.557-.291.903.768-.557.767.557-.295-.903.772-.557h-.953z"/></g><g><path fill="#263238" d="M201.891 51.92v-1.35l-.02-.06-.292.903h-.949l.696.506h.565z"/></g><g><path fill="#263238" d="M201.324 40.56l.071.05-.295.903.768-.556.02.012v-.409h-.564z"/></g><g><path fill="#263238" d="M190.53 51.92h.527l.7-.506h-.949l-.278-.844v1.35z"/></g><g><path fill="#263238" d="M190.53 40.97l.75.543-.29-.902.067-.051h-.527v.41z"/></g><g><path fill="#263238" d="M196.516 57.053l-.291-.903-.296.903h-.949l.768.56-.291.904.768-.561.767.56-.295-.902.772-.561h-.953z"/></g><g><path fill="#263238" d="M201.891 63.279v-1.354l-.02-.055-.292.903h-.949l.696.506h.565z"/></g><g><path fill="#263238" d="M201.395 51.975l-.295.903.768-.561.02.016v-.413h-.564l.071.055z"/></g><g><path fill="#263238" d="M190.53 63.274h.527l.7-.506h-.949l-.278-.848v1.354z"/></g><g><path fill="#263238" d="M190.53 52.333l.75.545-.29-.903.067-.055h-.527v.413z"/></g><g><path fill="#263238" d="M196.516 68.413l-.291-.903-.296.903h-.949l.768.557-.291.903.768-.557.767.556-.295-.902.772-.557h-.953z"/></g><g><path fill="#263238" d="M201.891 74.63v-1.35l-.02-.06-.292.903h-.949l.696.506h.565z"/></g><g><path fill="#263238" d="M201.395 63.32l-.295.903.768-.556.02.012v-.409h-.564l.071.05z"/></g><g><path fill="#263238" d="M190.53 74.63h.527l.7-.506h-.949l-.278-.844v1.35z"/></g><g><path fill="#263238" d="M190.53 63.68l.75.543-.29-.902.067-.051h-.527v.41z"/></g><g><path fill="#263238" d="M196.516 79.763l-.291-.903-.296.903h-.949l.768.56-.291.904.768-.561.767.56-.295-.902.772-.561h-.953z"/></g><g><path fill="#263238" d="M201.891 85.98v-1.35l-.02-.06-.292.903h-.949l.696.506h.565z"/></g><g><path fill="#263238" d="M201.395 74.685l-.295.903.768-.557.02.012v-.413h-.564l.071.055z"/></g><g><path fill="#263238" d="M190.53 85.984h.527l.7-.506h-.949l-.278-.848v1.354z"/></g><g><path fill="#263238" d="M190.53 75.043l.75.545-.29-.903.067-.055h-.527v.413z"/></g><g><path fill="#263238" d="M196.516 91.123l-.291-.903-.296.903h-.949l.768.557-.291.903.768-.557.767.557-.295-.903.772-.557h-.953z"/></g><g><path fill="#263238" d="M201.891 97.34v-1.35l-.02-.06-.292.903h-.949l.696.506h.565z"/></g><g><path fill="#263238" d="M201.889 85.98h-.565l.071.05-.295.903.768-.556.02.012v-.409z"/></g><g><path fill="#263238" d="M190.53 97.34h.527l.7-.506h-.949l-.278-.844v1.35z"/></g><g><path fill="#263238" d="M190.53 85.98v.41l.75.543-.29-.902.067-.051h-.527z"/></g><g><path fill="#263238" d="M196.516 102.473l-.291-.903-.296.903h-.949l.768.56-.291.904.768-.557.767.557-.295-.903.772-.561h-.953z"/></g><g><path fill="#263238" d="M201.891 108.69v-1.35l-.02-.06-.292.903h-.949l.696.506h.565z"/></g><g><path fill="#263238" d="M201.889 97.34h-.565l.071.055-.295.903.768-.557.02.012v-.413z"/></g><g><path fill="#263238" d="M190.53 108.69h.527l.7-.506h-.949l-.278-.844v1.35z"/></g><g><path fill="#263238" d="M190.53 97.34v.413l.75.545-.29-.903.067-.055h-.527z"/></g><g><path fill="#263238" d="M201.889 108.69h-.565l.071.05-.295.903.768-.556.02.012v-.409z"/></g><g><path fill="#263238" d="M190.53 108.69v.41l.75.543-.29-.902.067-.051h-.527z"/></g><g><path fill="#263238" d="M190.538 17.857v-.092h-.688l.127.092h.56z"/></g><g><path fill="#263238" d="M179.707 17.857l.123-.092h-.65v.092h.527z"/></g><g><path fill="#263238" d="M185.166 22.993l-.296-.903-.29.903h-.95l.768.557-.296.902.768-.556.772.556-.295-.902.768-.557h-.95z"/></g><g><path fill="#263238" d="M189.27 28.703l.7.506h.561v-1.35l-.016-.059-.296.903h-.949z"/></g><g><path fill="#263238" d="M190.535 17.86h-.561l.067.05-.291.903.768-.556.017.012v-.409z"/></g><g><path fill="#263238" d="M179.18 29.21h.527l.696-.506h-.949l-.274-.844v1.35z"/></g><g><path fill="#263238" d="M179.18 17.86v.41l.75.543-.294-.902.071-.051h-.527z"/></g><g><path fill="#263238" d="M185.166 34.343l-.296-.903-.29.903h-.95l.768.557-.296.907.768-.561.772.56-.295-.906.768-.557h-.95z"/></g><g><path fill="#263238" d="M189.27 40.063l.7.506h.561v-1.354l-.016-.055-.296.903h-.949z"/></g><g><path fill="#263238" d="M190.535 29.21h-.561l.067.05-.291.908.768-.561.017.016v-.413z"/></g><g><path fill="#263238" d="M179.18 40.564h.527l.696-.506h-.949l-.274-.848v1.354z"/></g><g><path fill="#263238" d="M179.18 29.21v.413l.75.545-.294-.907.071-.051h-.527z"/></g><g><path fill="#263238" d="M185.166 45.703l-.296-.903-.29.903h-.95l.768.557-.296.903.768-.557.772.557-.295-.903.768-.557h-.95z"/></g><g><path fill="#263238" d="M190.531 51.92v-1.35l-.016-.06-.296.903h-.949l.7.506h.561z"/></g><g><path fill="#263238" d="M190.041 40.61l-.291.903.768-.556.017.012v-.409h-.561l.067.05z"/></g><g><path fill="#263238" d="M179.18 51.92h.527l.696-.506h-.949l-.274-.844v1.35z"/></g><g><path fill="#263238" d="M179.18 40.97l.75.543-.294-.902.071-.051h-.527v.41z"/></g><g><path fill="#263238" d="M185.166 57.053l-.296-.903-.29.903h-.95l.768.56-.296.904.768-.561.772.56-.295-.902.768-.561h-.95z"/></g><g><path fill="#263238" d="M190.531 63.279v-1.354l-.016-.055-.296.903h-.949l.7.506h.561z"/></g><g><path fill="#263238" d="M190.041 51.975l-.291.903.768-.561.017.016v-.413h-.561l.067.055z"/></g><g><path fill="#263238" d="M179.18 63.274h.527l.696-.506h-.949l-.274-.848v1.354z"/></g><g><path fill="#263238" d="M179.18 52.333l.75.545-.294-.903.071-.055h-.527v.413z"/></g><g><path fill="#263238" d="M185.166 68.413l-.296-.903-.29.903h-.95l.768.557-.296.903.768-.557.772.556-.295-.902.768-.557h-.95z"/></g><g><path fill="#263238" d="M190.531 74.63v-1.35l-.016-.06-.296.903h-.949l.7.506h.561z"/></g><g><path fill="#263238" d="M190.041 63.32l-.291.903.768-.556.017.012v-.409h-.561l.067.05z"/></g><g><path fill="#263238" d="M179.18 74.63h.527l.696-.506h-.949l-.274-.844v1.35z"/></g><g><path fill="#263238" d="M179.18 63.68l.75.543-.294-.902.071-.051h-.527v.41z"/></g><g><path fill="#263238" d="M185.166 79.763l-.296-.903-.29.903h-.95l.768.56-.296.904.768-.561.772.56-.295-.902.768-.561h-.95z"/></g><g><path fill="#263238" d="M190.531 85.98v-1.35l-.016-.06-.296.903h-.949l.7.506h.561z"/></g><g><path fill="#263238" d="M190.041 74.685l-.291.903.768-.557.017.012v-.413h-.561l.067.055z"/></g><g><path fill="#263238" d="M179.18 85.984h.527l.696-.506h-.949l-.274-.848v1.354z"/></g><g><path fill="#263238" d="M179.18 75.043l.75.545-.294-.903.071-.055h-.527v.413z"/></g><g><path fill="#263238" d="M185.166 91.123l-.296-.903-.29.903h-.95l.768.557-.296.903.768-.557.772.557-.295-.903.768-.557h-.95z"/></g><g><path fill="#263238" d="M190.531 97.34v-1.35l-.016-.06-.296.903h-.949l.7.506h.561z"/></g><g><path fill="#263238" d="M190.535 85.98h-.561l.067.05-.291.903.768-.556.017.012v-.409z"/></g><g><path fill="#263238" d="M179.18 97.34h.527l.696-.506h-.949l-.274-.844v1.35z"/></g><g><path fill="#263238" d="M179.18 86.39l.75.543-.294-.902.071-.051h-.527v.41z"/></g><g><path fill="#263238" d="M185.166 102.473l-.296-.903-.29.903h-.95l.768.56-.296.904.768-.557.772.557-.295-.903.768-.561h-.95z"/></g><g><path fill="#263238" d="M190.531 108.69v-1.35l-.016-.06-.296.903h-.949l.7.506h.561z"/></g><g><path fill="#263238" d="M190.535 97.34h-.561l.067.055-.291.903.768-.557.017.012v-.413z"/></g><g><path fill="#263238" d="M179.18 108.69h.527l.696-.506h-.949l-.274-.844v1.35z"/></g><g><path fill="#263238" d="M179.18 97.34v.413l.75.545-.294-.903.071-.055h-.527z"/></g><g><path fill="#263238" d="M190.535 108.69h-.561l.067.05-.291.903.768-.556.017.012v-.409z"/></g><g><path fill="#263238" d="M179.18 108.69v.41l.75.543-.294-.902.071-.051h-.527z"/></g><g><path fill="#263238" d="M179.182 17.857v-.092h-.692l.127.092h.565z"/></g><g><path fill="#263238" d="M168.347 17.857l.127-.092h-.654v.092h.527z"/></g><g><path fill="#263238" d="M173.806 22.993l-.291-.903-.296.903h-.949l.768.557-.291.902.768-.556.767.556-.295-.902.772-.557h-.953z"/></g><g><path fill="#263238" d="M177.92 28.703l.696.506h.565v-1.35l-.02-.059-.292.903h-.949z"/></g><g><path fill="#263238" d="M179.179 17.86h-.565l.071.05-.295.903.768-.556.02.012v-.409z"/></g><g><path fill="#263238" d="M168.347 29.21l.7-.506h-.953l-.274-.844v1.35h.527z"/></g><g><path fill="#263238" d="M167.82 18.27l.75.543-.294-.902.071-.051h-.527v.41z"/></g><g><path fill="#263238" d="M172.747 35.807l.768-.561.767.56-.295-.906.772-.557h-.953l-.291-.903-.296.903h-.949l.768.557-.291.907z"/></g><g><path fill="#263238" d="M179.181 40.569v-1.354l-.02-.055-.292.903h-.949l.696.506h.565z"/></g><g><path fill="#263238" d="M179.179 29.21h-.565l.071.05-.295.908.768-.561.02.016v-.413z"/></g><g><path fill="#263238" d="M168.347 40.564l.7-.506h-.953l-.274-.848v1.354h.527z"/></g><g><path fill="#263238" d="M167.82 29.623l.75.545-.294-.907.071-.051h-.527v.413z"/></g><g><path fill="#263238" d="M172.747 47.163l.768-.557.767.557-.295-.903.772-.557h-.953l-.291-.903-.296.903h-.949l.768.557-.291.903z"/></g><g><path fill="#263238" d="M179.181 51.92v-1.35l-.02-.06-.292.903h-.949l.696.506h.565z"/></g><g><path fill="#263238" d="M178.685 40.61l-.295.903.768-.556.02.012v-.409h-.564l.071.05z"/></g><g><path fill="#263238" d="M168.347 51.92l.7-.506h-.953l-.274-.844v1.35h.527z"/></g><g><path fill="#263238" d="M167.82 40.97l.75.543-.294-.902.071-.051h-.527v.41z"/></g><g><path fill="#263238" d="M172.747 58.517l.768-.561.767.56-.295-.902.772-.561h-.953l-.291-.903-.296.903h-.949l.768.56-.291.904z"/></g><g><path fill="#263238" d="M179.181 63.279v-1.354l-.02-.055-.292.903h-.949l.696.506h.565z"/></g><g><path fill="#263238" d="M178.685 51.975l-.295.903.768-.561.02.016v-.413h-.564l.071.055z"/></g><g><path fill="#263238" d="M168.347 63.274l.7-.506h-.953l-.274-.848v1.354h.527z"/></g><g><path fill="#263238" d="M167.82 52.333l.75.545-.294-.903.071-.055h-.527v.413z"/></g><g><path fill="#263238" d="M172.747 69.873l.768-.557.767.556-.295-.902.772-.557h-.953l-.291-.903-.296.903h-.949l.768.557-.291.903z"/></g><g><path fill="#263238" d="M179.181 74.63v-1.35l-.02-.06-.292.903h-.949l.696.506h.565z"/></g><g><path fill="#263238" d="M178.685 63.32l-.295.903.768-.556.02.012v-.409h-.564l.071.05z"/></g><g><path fill="#263238" d="M168.347 74.63l.7-.506h-.953l-.274-.844v1.35h.527z"/></g><g><path fill="#263238" d="M167.82 63.68l.75.543-.294-.902.071-.051h-.527v.41z"/></g><g><path fill="#263238" d="M172.747 81.227l.768-.561.767.56-.295-.902.772-.561h-.953l-.291-.903-.296.903h-.949l.768.56-.291.904z"/></g><g><path fill="#263238" d="M179.181 85.98v-1.35l-.02-.06-.292.903h-.949l.696.506h.565z"/></g><g><path fill="#263238" d="M178.685 74.685l-.295.903.768-.557.02.012v-.413h-.564l.071.055z"/></g><g><path fill="#263238" d="M168.347 85.984l.7-.506h-.953l-.274-.848v1.354h.527z"/></g><g><path fill="#263238" d="M167.82 75.043l.75.545-.294-.903.071-.055h-.527v.413z"/></g><g><path fill="#263238" d="M172.747 92.582l.768-.556.767.556-.295-.902.772-.557h-.953l-.291-.903-.296.903h-.949l.768.557-.291.902z"/></g><g><path fill="#263238" d="M179.181 97.34v-1.35l-.02-.06-.292.903h-.949l.696.506h.565z"/></g><g><path fill="#263238" d="M178.685 86.03l-.295.903.768-.556.02.012v-.409h-.564l.071.05z"/></g><g><path fill="#263238" d="M168.347 97.34l.7-.506h-.953l-.274-.844v1.35h.527z"/></g><g><path fill="#263238" d="M167.82 86.39l.75.543-.294-.902.071-.051h-.527v.41z"/></g><g><path fill="#263238" d="M173.806 102.473l-.291-.903-.296.903h-.949l.768.56-.291.904.768-.557.767.557-.295-.903.772-.561h-.953z"/></g><g><path fill="#263238" d="M179.181 108.69v-1.35l-.02-.06-.292.903h-.949l.696.506h.565z"/></g><g><path fill="#263238" d="M179.179 97.34h-.565l.071.055-.295.903.768-.557.02.012v-.413z"/></g><g><path fill="#263238" d="M168.347 108.69l.7-.506h-.953l-.274-.844v1.35h.527z"/></g><g><path fill="#263238" d="M167.82 97.34v.413l.75.545-.294-.903.071-.055h-.527z"/></g><g><path fill="#263238" d="M179.179 108.69h-.565l.071.05-.295.903.768-.556.02.012v-.409z"/></g><g><path fill="#263238" d="M167.82 108.69v.41l.75.543-.294-.902.071-.051h-.527z"/></g><g><path fill="#263238" d="M167.828 17.857v-.092h-.688l.122.092h.566z"/></g><g><path fill="#263238" d="M156.98 17.765v.092h.02l.123-.092h-.144z"/></g><g><path fill="#263238" d="M161.392 24.453l.768-.557.768.556-.291-.902.768-.557h-.95l-.295-.903-.29.903h-.95l.768.557-.296.903z"/></g><g><path fill="#263238" d="M167.821 29.21v-1.35l-.016-.06-.296.903h-.949l.696.506h.565z"/></g><g><path fill="#263238" d="M167.26 17.86l.071.05-.291.903.768-.556.017.012v-.409h-.566z"/></g><g><path fill="#263238" d="M157.697 28.7h-.717v.506h.021l.696-.506z"/></g><g><path fill="#263238" d="M156.98 17.87l.021-.018h-.02v.017z"/></g><g><path fill="#263238" d="M157.223 18.81l-.244-.75v.574l.244.177z"/></g><g><path fill="#263238" d="M161.392 35.807l.768-.561.768.56-.291-.906.768-.557h-.95l-.295-.903-.29.903h-.95l.768.557-.296.907z"/></g><g><path fill="#263238" d="M167.821 40.569v-1.354l-.016-.055-.296.903h-.949l.696.506h.565z"/></g><g><path fill="#263238" d="M167.331 29.26l-.291.908.768-.561.017.016v-.413h-.566l.072.05z"/></g><g><path fill="#263238" d="M157.697 40.06h-.717v.506h.021l.696-.506z"/></g><g><path fill="#263238" d="M157.223 30.165l-.244-.755v.578l.244.177z"/></g><g><path fill="#263238" d="M156.98 29.23l.021-.018h-.02v.017z"/></g><g><path fill="#263238" d="M161.392 47.163l.768-.557.768.557-.291-.903.768-.557h-.95l-.295-.903-.29.903h-.95l.768.557-.296.903z"/></g><g><path fill="#263238" d="M167.821 51.92v-1.35l-.016-.06-.296.903h-.949l.696.506h.565z"/></g><g><path fill="#263238" d="M167.331 40.61l-.291.903.768-.556.017.012v-.409h-.566l.072.05z"/></g><g><path fill="#263238" d="M157.697 51.41h-.717v.506h.021l.696-.506z"/></g><g><path fill="#263238" d="M156.98 40.58l.021-.017h-.02v.016z"/></g><g><path fill="#263238" d="M157.223 41.52l-.244-.75v.574l.244.177z"/></g><g><path fill="#263238" d="M161.392 58.517l.768-.561.768.56-.291-.902.768-.561h-.95l-.295-.903-.29.903h-.95l.768.56-.296.904z"/></g><g><path fill="#263238" d="M167.821 63.279v-1.354l-.016-.055-.296.903h-.949l.696.506h.565z"/></g><g><path fill="#263238" d="M167.331 51.975l-.291.903.768-.561.017.016v-.413h-.566l.072.055z"/></g><g><path fill="#263238" d="M157.697 62.77h-.717v.506h.021l.696-.506z"/></g><g><path fill="#263238" d="M157.223 52.875l-.244-.755v.578l.244.177z"/></g><g><path fill="#263238" d="M156.98 51.94l.021-.017h-.02v.016z"/></g><g><path fill="#263238" d="M161.392 69.873l.768-.557.768.556-.291-.902.768-.557h-.95l-.295-.903-.29.903h-.95l.768.557-.296.903z"/></g><g><path fill="#263238" d="M167.821 74.63v-1.35l-.016-.06-.296.903h-.949l.696.506h.565z"/></g><g><path fill="#263238" d="M167.331 63.32l-.291.903.768-.556.017.012v-.409h-.566l.072.05z"/></g><g><path fill="#263238" d="M157.697 74.12h-.717v.506h.021l.696-.506z"/></g><g><path fill="#263238" d="M157.223 64.23l-.244-.75v.574l.244.177z"/></g><g><path fill="#263238" d="M156.98 63.29l.021-.017h-.02v.016z"/></g><g><path fill="#263238" d="M161.392 81.227l.768-.561.768.56-.291-.902.768-.561h-.95l-.295-.903-.29.903h-.95l.768.56-.296.904z"/></g><g><path fill="#263238" d="M167.821 85.98v-1.35l-.016-.06-.296.903h-.949l.696.506h.565z"/></g><g><path fill="#263238" d="M167.331 74.685l-.291.903.768-.557.017.012v-.413h-.566l.072.055z"/></g><g><path fill="#263238" d="M157.697 85.48h-.717v.506h.021l.696-.506z"/></g><g><path fill="#263238" d="M157.223 75.585l-.244-.755v.578l.244.177z"/></g><g><path fill="#263238" d="M156.98 74.64l.021-.018h-.02v.017z"/></g><g><path fill="#263238" d="M161.392 92.582l.768-.556.768.556-.291-.902.768-.557h-.95l-.295-.903-.29.903h-.95l.768.557-.296.902z"/></g><g><path fill="#263238" d="M167.821 97.34v-1.35l-.016-.06-.296.903h-.949l.696.506h.565z"/></g><g><path fill="#263238" d="M167.331 86.03l-.291.903.768-.556.017.012v-.409h-.566l.072.05z"/></g><g><path fill="#263238" d="M157.697 96.83h-.717v.506h.021l.696-.506z"/></g><g><path fill="#263238" d="M156.98 86l.021-.017h-.02v.016z"/></g><g><path fill="#263238" d="M157.223 86.94l-.244-.75v.574l.244.177z"/></g><g><path fill="#263238" d="M161.392 103.937l.768-.557.768.557-.291-.903.768-.561h-.95l-.295-.903-.29.903h-.95l.768.56-.296.904z"/></g><g><path fill="#263238" d="M167.821 108.69v-1.35l-.016-.06-.296.903h-.949l.696.506h.565z"/></g><g><path fill="#263238" d="M167.331 97.395l-.291.903.768-.557.017.012v-.413h-.566l.072.055z"/></g><g><path fill="#263238" d="M157.697 108.19h-.717v.506h.021l.696-.506z"/></g><g><path fill="#263238" d="M157.223 98.29l-.244-.75v.574l.244.177z"/></g><g><path fill="#263238" d="M156.98 97.35l.021-.018h-.02v.017z"/></g><g><path fill="#263238" d="M167.825 108.69h-.566l.072.05-.291.903.768-.556.017.012v-.409z"/></g><g><path fill="#263238" d="M156.979 108.9v.574l.244.177-.244-.751z"/></g><g><path fill="#263238" d="M156.98 108.692v.017l.021-.017h-.02z"/></g><g><path fill="none" stroke="#263238" stroke-linecap="round" stroke-linejoin="round" stroke-miterlimit="20" stroke-width=".5" d="M206.58 17.76v0h26.076v93.487H206.58v0z"/></g><g><path fill="#ffb76f" d="M194.511 9.283s-7.632-4.13-10.813-7.311c-3.18-3.181-3.497 2.223-3.497 5.088 0 2.864-1.59 5.087.953 5.404 2.544.316 13.357-.954 13.357-.954z"/><path fill="none" stroke="#263238" stroke-linecap="round" stroke-linejoin="round" stroke-miterlimit="20" stroke-width=".5" d="M194.511 9.283v0s-7.632-4.13-10.813-7.311c-3.18-3.181-3.497 2.223-3.497 5.088 0 2.864-1.59 5.087.953 5.404 2.544.316 13.357-.954 13.357-.954v0z"/></g><g><path fill="#ffb76f" d="M197.13 9.283s7.632-4.13 10.813-7.311c3.18-3.181 3.497 2.223 3.497 5.088 0 2.864 1.59 5.087-.953 5.404-2.544.316-13.357-.954-13.357-.954z"/><path fill="none" stroke="#263238" stroke-linecap="round" stroke-linejoin="round" stroke-miterlimit="20" stroke-width=".5" d="M197.13 9.283v0s7.632-4.13 10.813-7.311c3.18-3.181 3.497 2.223 3.497 5.088 0 2.864 1.59 5.087-.953 5.404-2.544.316-13.357-.954-13.357-.954v0z"/></g><g><path fill="#ffb76f" d="M194.29 8.73h3.008v3.008h-3.008z"/><path fill="none" stroke="#263238" stroke-linecap="round" stroke-linejoin="round" stroke-miterlimit="20" stroke-width=".5" d="M194.29 8.73v0h3.008v3.008h-3.008v0z"/></g><g><path fill="#263238" d="M154.75 11.4h80.13v7.948h-80.13z"/><path fill="none" stroke="#263238" stroke-linecap="round" stroke-linejoin="round" stroke-miterlimit="20" stroke-width=".5" d="M154.75 11.4v0h80.13v7.948h-80.13v0z"/></g><g><path fill="#ffb76f" d="M172.01 11.36h9.703v99.837h-9.703z"/><path fill="none" stroke="#263238" stroke-linecap="round" stroke-linejoin="round" stroke-miterlimit="20" stroke-width=".5" d="M172.01 11.36v0h9.703v99.837h-9.703v0z"/></g><g transform="rotate(-12.19 151 45.5)"><path fill="#ffb76f" d="M185.14 40.62h15.88v9.328h-15.88z"/><path fill="none" stroke="#263238" stroke-linecap="round" stroke-linejoin="round" stroke-miterlimit="20" stroke-width=".5" d="M185.14 40.62v0h15.88v9.328h-15.88v0z"/></g><g transform="rotate(180 122.5 61.5)"><path fill="#ffb76f" d="M216.53 11.36h9.703v99.837h-9.703z"/><path fill="none" stroke="#263238" stroke-linecap="round" stroke-linejoin="round" stroke-miterlimit="20" stroke-width=".5" d="M216.53 11.36v0h9.703v99.837h-9.703v0z"/></g><g><path fill="#ffb76f" d="M181.717 11.36a14.833 14.833 0 0 0-2.426 2.738c-1.266 1.793-.738 4.957-.738 6.96 0 2.005-.633 8.65-.633 8.65l3.902-4.43s3.586 5.168 3.586 4.746V17.072a7.45 7.45 0 0 1 1.16-4.219c.633-.949 2.215-1.476 2.215-1.476z"/><path fill="none" stroke="#263238" stroke-linecap="round" stroke-linejoin="round" stroke-miterlimit="20" stroke-width=".5" d="M181.717 11.36a14.833 14.833 0 0 0-2.426 2.738c-1.266 1.793-.738 4.957-.738 6.96 0 2.005-.633 8.65-.633 8.65v0l3.902-4.43v0s3.586 5.168 3.586 4.746V17.072a7.45 7.45 0 0 1 1.16-4.219c.633-.949 2.215-1.476 2.215-1.476v0z"/></g><g><path fill="#ffb76f" d="M190.437 11.36a14.833 14.833 0 0 0-2.426 2.738c-1.266 1.793-.738 4.957-.738 6.96 0 2.005-.633 8.65-.633 8.65l3.902-4.43s3.586 5.168 3.586 4.746V17.072a7.45 7.45 0 0 1 1.16-4.219c.633-.949 2.215-1.476 2.215-1.476z"/><path fill="none" stroke="#263238" stroke-linecap="round" stroke-linejoin="round" stroke-miterlimit="20" stroke-width=".5" d="M190.437 11.36a14.833 14.833 0 0 0-2.426 2.738c-1.266 1.793-.738 4.957-.738 6.96 0 2.005-.633 8.65-.633 8.65v0l3.902-4.43v0s3.586 5.168 3.586 4.746V17.072a7.45 7.45 0 0 1 1.16-4.219c.633-.949 2.215-1.476 2.215-1.476v0z"/></g></g><g><g><path fill="#fff" d="M.25 78.94h61.987v31.598H.25z"/><path fill="none" stroke="#263238" stroke-linecap="round" stroke-linejoin="round" stroke-miterlimit="20" stroke-width=".75" d="M.25 78.94v0h61.987v31.598H.25v0z"/></g><g><path fill="#ffb76f" d="M16.41 78.94h7.312v31.598H16.41z"/><path fill="none" stroke="#263238" stroke-linecap="round" stroke-linejoin="round" stroke-miterlimit="20" stroke-width=".75" d="M16.41 78.94v0h7.312v31.598H16.41v0z"/></g><g><path fill="#fff" d="M40.89 78.94h21.36v31.598H40.89z"/><path fill="none" stroke="#263238" stroke-linecap="round" stroke-linejoin="round" stroke-miterlimit="20" stroke-width=".75" d="M40.89 78.94v0h21.36v31.598H40.89v0z"/></g><g><path fill="#fff" d="M46.76 78.94h7.313v31.598H46.76z"/><path fill="none" stroke="#263238" stroke-linecap="round" stroke-linejoin="round" stroke-miterlimit="20" stroke-width=".75" d="M46.76 78.94v0h7.313v31.598H46.76v0z"/></g><g><path fill="#fff" d="M44.3 78.94h61.987v31.598H44.3z"/></g><g><path fill="#ffb76f" d="M106.275 96.005V93.2L82.98 110.532h3.772l19.523-14.527z"/></g><g><path fill="#ffb76f" d="M44.3 84.722v2.806l11.543-8.588h-3.766L44.3 84.722z"/></g><g><path fill="#ffb76f" d="M70.52 78.94h-3.772L44.3 95.643v2.804L70.52 78.94z"/></g><g><path fill="#ffb76f" d="M85.19 78.94h-3.765L44.3 106.562v2.806L85.19 78.94z"/></g><g><path fill="#ffb76f" d="M68.31 110.532h3.765l34.2-25.447V82.28L68.31 110.532z"/></g><g><path fill="#ffb76f" d="M53.63 110.53h3.772l42.45-31.59h-3.764L53.63 110.53z"/></g><g><path fill="#adc7f7" d="M106.275 106.925v-2.805l-8.625 6.412h3.772l4.853-3.607z"/></g><g><path fill="#263238" d="M60.45 78.94h7.312v31.598H60.45z"/><path fill="none" stroke="#263238" stroke-linecap="round" stroke-linejoin="round" stroke-miterlimit="20" stroke-width=".75" d="M60.45 78.94v0h7.312v31.598H60.45v0z"/></g><g><path fill="none" stroke="#263238" stroke-linecap="round" stroke-linejoin="round" stroke-miterlimit="20" stroke-width=".75" d="M84.93 78.94v0h21.36v31.598H84.93v0z"/></g><g><path fill="#263238" d="M90.8 78.94h7.313v31.598H90.8z"/><path fill="none" stroke="#263238" stroke-linecap="round" stroke-linejoin="round" stroke-miterlimit="20" stroke-width=".75" d="M90.8 78.94v0h7.313v31.598H90.8v0z"/></g><g><path fill="none" stroke="#263238" stroke-linecap="round" stroke-linejoin="round" stroke-miterlimit="20" stroke-width=".75" d="M44.3 78.94v0h61.987v31.598H44.3v0z"/></g><g><path fill="#ffb76f" d="M86.31 100.46h61.987v10.072H86.31z"/><path fill="none" stroke="#263238" stroke-linecap="round" stroke-linejoin="round" stroke-miterlimit="20" stroke-width=".75" d="M86.31 100.46v0h61.987v10.072H86.31v0z"/></g><g><path fill="#fff" d="M102.46 100.46h7.313v10.072h-7.313z"/><path fill="none" stroke="#263238" stroke-linecap="round" stroke-linejoin="round" stroke-miterlimit="20" stroke-width=".75" d="M102.46 100.46v0h7.313v10.072h-7.313v0z"/></g><g><path fill="#ffb76f" d="M126.93 100.46h21.36v10.072h-21.36z"/><path fill="none" stroke="#263238" stroke-linecap="round" stroke-linejoin="round" stroke-miterlimit="20" stroke-width=".75" d="M126.93 100.46v0h21.36v10.072h-21.36v0z"/></g><g><path fill="#fff" d="M132.81 100.46h7.312v10.072h-7.312z"/><path fill="none" stroke="#263238" stroke-linecap="round" stroke-linejoin="round" stroke-miterlimit="20" stroke-width=".75" d="M132.81 100.46v0h7.312v10.072h-7.312v0z"/></g><g><path fill="none" stroke="#263238" stroke-linecap="round" stroke-linejoin="round" stroke-miterlimit="20" stroke-width=".75" d="M111.395 91.39s-4.32-11.25-11.25-9.494"/></g><g><path fill="none" stroke="#263238" stroke-linecap="round" stroke-linejoin="round" stroke-miterlimit="20" stroke-width=".75" d="M111.39 91.385s5.183-14.677 12.517-9.93"/></g><g><path fill="#ffb76f" d="M83.77 90.53h61.987v10.072H83.77z"/><path fill="none" stroke="#263238" stroke-linecap="round" stroke-linejoin="round" stroke-miterlimit="20" stroke-width=".75" d="M83.77 90.53v0h61.987v10.072H83.77v0z"/></g><g><path fill="#fff" d="M99.93 90.53h7.313v10.072H99.93z"/><path fill="none" stroke="#263238" stroke-linecap="round" stroke-linejoin="round" stroke-miterlimit="20" stroke-width=".75" d="M99.93 90.53v0h7.313v10.072H99.93v0z"/></g><g><path fill="#ffb76f" d="M124.4 90.53h21.36v10.072H124.4z"/><path fill="none" stroke="#263238" stroke-linecap="round" stroke-linejoin="round" stroke-miterlimit="20" stroke-width=".75" d="M124.4 90.53v0h21.36v10.072H124.4v0z"/></g><g><path fill="#fff" d="M130.28 90.53h7.313v10.072h-7.313z"/><path fill="none" stroke="#263238" stroke-linecap="round" stroke-linejoin="round" stroke-miterlimit="20" stroke-width=".75" d="M130.28 90.53v0h7.313v10.072h-7.313v0z"/></g><g><path fill="#fff" d="M19.41 50.49h9.225v6.098H19.41z"/><path fill="none" stroke="#263238" stroke-linecap="round" stroke-linejoin="round" stroke-miterlimit="20" stroke-width=".75" d="M19.41 50.49v0h9.225v6.098H19.41v0z"/></g><g><path fill="#fff" d="M23.427 57.697L18.342 54l-2.932 3.975 2.542 1.853 5.475-2.13z"/><path fill="none" stroke="#263238" stroke-linecap="round" stroke-linejoin="round" stroke-miterlimit="20" stroke-width=".75" d="M23.427 57.697v0L18.342 54v0l-2.932 3.975v0l2.542 1.853v0l5.475-2.13v0z"/></g><g><path fill="#fff" d="M30.015 53.73l-5.085 3.697 5.475 2.13 2.542-1.845-2.932-3.982z"/><path fill="none" stroke="#263238" stroke-linecap="round" stroke-linejoin="round" stroke-miterlimit="20" stroke-width=".75" d="M30.015 53.73v0l-5.085 3.697v0l5.475 2.13v0l2.542-1.845v0l-2.932-3.982v0z"/></g><g><path fill="#fff" d="M27.712 55.71H20.52l1.8 4.327h3.6l1.792-4.327z"/><path fill="none" stroke="#263238" stroke-linecap="round" stroke-linejoin="round" stroke-miterlimit="20" stroke-width=".75" d="M27.712 55.71v0H20.52v0l1.8 4.327v0h3.6v0l1.792-4.327v0z"/></g><g><path fill="#fff" d="M23.427 49.15l-5.085 3.697-2.932-3.982 2.542-1.845 5.475 2.13z"/><path fill="none" stroke="#263238" stroke-linecap="round" stroke-linejoin="round" stroke-miterlimit="20" stroke-width=".75" d="M23.427 49.15v0l-5.085 3.697v0l-2.932-3.982v0l2.542-1.845v0l5.475 2.13v0z"/></g><g><path fill="#fff" d="M30.277 53.258L25.2 49.56l5.468-2.13 2.542 1.853-2.933 3.974z"/><path fill="none" stroke="#263238" stroke-linecap="round" stroke-linejoin="round" stroke-miterlimit="20" stroke-width=".75" d="M30.277 53.258v0L25.2 49.56v0l5.468-2.13v0l2.542 1.853v0l-2.933 3.974v0z"/></g><g><path fill="#fff" d="M27.712 51.078H20.52l1.8-4.328h3.6l1.792 4.327z"/><path fill="none" stroke="#263238" stroke-linecap="round" stroke-linejoin="round" stroke-miterlimit="20" stroke-width=".75" d="M27.712 51.078v0H20.52v0l1.8-4.328v0h3.6v0l1.792 4.327v0z"/></g><g><path fill="#fff" d="M20.67 50.78v5.228l-5.94-1.306v-2.617l5.94-1.305z"/><path fill="none" stroke="#263238" stroke-linecap="round" stroke-linejoin="round" stroke-miterlimit="20" stroke-width=".75" d="M20.67 50.78v5.228l-5.94-1.306v0-2.617 0l5.94-1.305v0z"/></g><g><path fill="#fff" d="M27.39 50.78v5.228l5.94-1.306v-2.617l-5.94-1.305z"/><path fill="none" stroke="#263238" stroke-linecap="round" stroke-linejoin="round" stroke-miterlimit="20" stroke-width=".75" d="M27.39 50.78v5.228l5.94-1.306v0-2.617 0l-5.94-1.305v0z"/></g><g><path fill="#ffb76f" d="M1.17 54.52h47.242v24.082H1.17z"/><path fill="none" stroke="#263238" stroke-linecap="round" stroke-linejoin="round" stroke-miterlimit="20" stroke-width=".75" d="M1.17 54.52v0h47.242v24.082H1.17v0z"/></g><g><path fill="#fff" d="M13.48 54.52h5.572v24.082H13.48z"/><path fill="none" stroke="#263238" stroke-linecap="round" stroke-linejoin="round" stroke-miterlimit="20" stroke-width=".75" d="M13.48 54.52v0h5.572v24.082H13.48v0z"/></g><g><path fill="#ffb76f" d="M32.13 54.52h16.275v24.082H32.13z"/><path fill="none" stroke="#263238" stroke-linecap="round" stroke-linejoin="round" stroke-miterlimit="20" stroke-width=".75" d="M32.13 54.52v0h16.275v24.082H32.13v0z"/></g><g><path fill="#fff" d="M36.61 54.52h5.572v24.082H36.61z"/><path fill="none" stroke="#263238" stroke-linecap="round" stroke-linejoin="round" stroke-miterlimit="20" stroke-width=".75" d="M36.61 54.52v0h5.572v24.082H36.61v0z"/></g></g><g><g><path fill="#fff" d="M232.53 70.83h13.17v8.7h-13.17z"/><path fill="none" stroke="#263238" stroke-linecap="round" stroke-linejoin="round" stroke-miterlimit="20" stroke-width=".75" d="M232.53 70.83v0h13.17v8.7h-13.17v0z"/></g><g><path fill="#fff" d="M238.267 68.918l-7.26 5.28-4.177-5.678 3.623-2.64 7.814 3.038z"/><path fill="none" stroke="#263238" stroke-linecap="round" stroke-linejoin="round" stroke-miterlimit="20" stroke-width=".75" d="M238.267 68.918v0l-7.26 5.28v0l-4.177-5.678v0l3.623-2.64v0l7.814 3.038v0z"/></g><g><path fill="#fff" d="M248.04 74.787l-7.26-5.28 7.808-3.037 3.63 2.64-4.178 5.678z"/><path fill="none" stroke="#263238" stroke-linecap="round" stroke-linejoin="round" stroke-miterlimit="20" stroke-width=".75" d="M248.04 74.787v0l-7.26-5.28v0l7.808-3.037v0l3.63 2.64v0l-4.178 5.678v0z"/></g><g><path fill="#fff" d="M244.38 71.675h-10.26l2.565-6.175h5.13l2.565 6.175z"/><path fill="none" stroke="#263238" stroke-linecap="round" stroke-linejoin="round" stroke-miterlimit="20" stroke-width=".75" d="M244.38 71.675v0h-10.26v0l2.565-6.175v0h5.13v0l2.565 6.175v0z"/></g><g><path fill="#fff" d="M234.345 71.24v7.463l-8.485-1.868v-3.728l8.485-1.867z"/><path fill="none" stroke="#263238" stroke-linecap="round" stroke-linejoin="round" stroke-miterlimit="20" stroke-width=".75" d="M234.345 71.24v7.463l-8.485-1.868v0-3.728 0l8.485-1.867v0z"/></g><g><path fill="#fff" d="M243.92 71.24v7.463l8.475-1.868v-3.728l-8.475-1.867z"/><path fill="none" stroke="#263238" stroke-linecap="round" stroke-linejoin="round" stroke-miterlimit="20" stroke-width=".75" d="M243.92 71.24v7.463l8.475-1.868v0-3.728 0l-8.475-1.867v0z"/></g><g><path fill="#ffb76f" d="M206.5 76.58h67.41v34.365H206.5z"/><path fill="none" stroke="#263238" stroke-linecap="round" stroke-linejoin="round" stroke-miterlimit="20" stroke-width=".75" d="M206.5 76.58v0h67.41v34.365H206.5v0z"/></g><g><path fill="#fff" d="M224.07 76.58h7.95v34.365h-7.95z"/><path fill="none" stroke="#263238" stroke-linecap="round" stroke-linejoin="round" stroke-miterlimit="20" stroke-width=".75" d="M224.07 76.58v0h7.95v34.365h-7.95v0z"/></g><g><path fill="#ffb76f" d="M250.69 76.58h23.227v34.365H250.69z"/><path fill="none" stroke="#263238" stroke-linecap="round" stroke-linejoin="round" stroke-miterlimit="20" stroke-width=".75" d="M250.69 76.58v0h23.227v34.365H250.69v0z"/></g><g><path fill="#fff" d="M257.08 76.58h7.95v34.365h-7.95z"/><path fill="none" stroke="#263238" stroke-linecap="round" stroke-linejoin="round" stroke-miterlimit="20" stroke-width=".75" d="M257.08 76.58v0h7.95v34.365h-7.95v0z"/></g></g><g><g><path fill="none" stroke="#263238" stroke-linecap="round" stroke-linejoin="round" stroke-miterlimit="20" stroke-width="2.25" d="M313.494 59.9v0s-6.75-16.125-13.875-15.375-9 9.75-3.375 12.375 17.25 3 17.25 3z"/></g><g><path fill="none" stroke="#263238" stroke-linecap="round" stroke-linejoin="round" stroke-miterlimit="20" stroke-width="2.25" d="M313.5 59.896v0s4.125-16.125 12.375-15 5.52 13.875 1.395 14.625-13.77.375-13.77.375z"/></g><g><path fill="#fff" d="M280.77 59.53h61.987v51.225H280.77z"/></g><g><path fill="#ffb76f" d="M325.615 101.308a209.563 209.563 0 0 0 17.13-13.696V84.53c-5.85 5.61-12.563 10.59-18.473 15-6.06 4.5-10.942 8.123-13.312 11.25h2.962c2.58-2.707 7.05-6.022 11.693-9.472z"/></g><g><path fill="#ffb76f" d="M297.465 73.12c-6.99 5.85-12.75 10.785-16.695 14.873v3.33c4.35-4.935 12-11.333 18.142-16.5 6.675-5.58 12.975-10.86 15.495-14.25.254-.327.478-.676.668-1.043h-6.75c-2.498 1.403-6 3.518-10.935 6.563-5.362 3.3-11.475 7.05-16.59 9.84v2.55c5.317-2.82 11.775-6.788 17.767-10.5 4.935-3.038 10.373-6.383 13.328-7.86-2.783 3.255-8.453 8.002-14.43 12.997z"/></g><g><path fill="#ffb76f" d="M342.748 92.27c-2.865 2.513-6 5.647-9.323 8.955-3.195 3.18-6.705 6.683-9.975 9.518h3.397c2.618-2.393 5.37-5.138 8.16-7.92 2.475-2.468 5.175-5.153 7.74-7.5z"/></g><g><path fill="#ffb76f" d="M280.76 69.22c3.053-3 6.63-6.315 10.402-9.69h-3.33a230.672 230.672 0 0 0-4.867 4.5l-2.205 2.092z"/></g><g><path fill="#ffb76f" d="M342.755 74.853V72.07c-3.976 2.88-9.002 6.675-15.22 11.475-12.94 9.93-29.503 22.628-39.375 27.203h4.898c8.882-4.95 21.162-14.153 35.842-25.418 4.493-3.45 9.437-7.237 13.855-10.477z"/></g><g><path fill="#ffb76f" d="M325.623 59.56h-3.75c-4.5 3.473-11.04 9.21-20.558 17.782-6.825 6.158-15.495 13.973-20.565 17.686v2.692c4.162-2.708 11.025-8.745 22.073-18.705 7.597-6.87 17.25-15.57 22.8-19.455z"/></g><g><path fill="#ffb76f" d="M330.113 62.297c.442-.887.827-1.801 1.155-2.737h-2.4c-.195.495-.45 1.087-.788 1.808-5.94 12.442-21.517 24.104-34.028 33.442-6.037 4.5-10.5 7.905-13.282 10.658v3.3c2.445-3.053 8.61-7.658 14.625-12.15 12.713-9.496 28.538-21.308 34.718-34.32z"/></g><g><path fill="#263238" d="M296.92 59.53h7.313v51.225h-7.313z"/><path fill="none" stroke="#263238" stroke-linecap="round" stroke-linejoin="round" stroke-miterlimit="20" stroke-width=".75" d="M296.92 59.53v0h7.313v51.225h-7.313v0z"/></g><g><path fill="none" stroke="#263238" stroke-linecap="round" stroke-linejoin="round" stroke-miterlimit="20" stroke-width=".75" d="M321.39 59.53v0h21.36v51.225h-21.36v0z"/></g><g><path fill="#263238" d="M327.27 59.53h7.313v51.225h-7.313z"/><path fill="none" stroke="#263238" stroke-linecap="round" stroke-linejoin="round" stroke-miterlimit="20" stroke-width=".75" d="M327.27 59.53v0h7.313v51.225h-7.313v0z"/></g><g><path fill="none" stroke="#263238" stroke-linecap="round" stroke-linejoin="round" stroke-miterlimit="20" stroke-width="2.25" d="M310.52 92.148v0-22.5c0-7.5 3-9.75 3-9.75v0s2.422-.578 3.75 3.525c1.327 4.102 0 20.182 0 20.182v0"/></g></g><g><path fill="none" stroke="#263238" stroke-linecap="round" stroke-linejoin="round" stroke-miterlimit="20" stroke-width=".75" d="M280.75 59.5v0h61.987v51.225H280.75v0z"/></g></g></g></g></svg>