<svg xmlns="http://www.w3.org/2000/svg" width="1442" height="149" viewBox="0 0 1442 149"><g><g transform="matrix(-1 0 0 1 1442 0)"><g><g><g><path fill="#fff" d="M853.59 108.89h12.947v8.552H853.59z"/><path fill="none" stroke="#263238" stroke-linecap="round" stroke-linejoin="round" stroke-miterlimit="20" stroke-width=".74" d="M853.59 108.89v0h12.947v8.552H853.59v0z"/></g><g><path fill="#fff" d="M859.224 106.996l-7.137 5.19-4.107-5.58 3.561-2.596 7.683 2.986z"/><path fill="none" stroke="#263238" stroke-linecap="round" stroke-linejoin="round" stroke-miterlimit="20" stroke-width=".74" d="M859.224 106.996v0l-7.137 5.19v0l-4.107-5.58v0l3.561-2.596v0l7.683 2.986v0z"/></g><g><path fill="#fff" d="M868.837 112.766l-7.137-5.19 7.675-2.986 3.569 2.595-4.107 5.581z"/><path fill="none" stroke="#263238" stroke-linecap="round" stroke-linejoin="round" stroke-miterlimit="20" stroke-width=".74" d="M868.837 112.766v0l-7.137-5.19v0l7.675-2.986v0l3.569 2.595v0l-4.107 5.581v0z"/></g><g><path fill="#fff" d="M865.236 109.7H855.15l2.522-6.06h5.042l2.522 6.06z"/><path fill="none" stroke="#263238" stroke-linecap="round" stroke-linejoin="round" stroke-miterlimit="20" stroke-width=".74" d="M865.236 109.7v0H855.15v0l2.522-6.06v0h5.042v0l2.522 6.06v0z"/></g><g><path fill="#fff" d="M855.361 109.28v7.336l-8.331-1.836v-3.664l8.331-1.836z"/><path fill="none" stroke="#263238" stroke-linecap="round" stroke-linejoin="round" stroke-miterlimit="20" stroke-width=".74" d="M855.361 109.28v7.336l-8.331-1.836v0-3.664 0l8.331-1.836v0z"/></g><g><path fill="#fff" d="M864.78 109.28v7.336l8.331-1.836v-3.664l-8.331-1.836z"/><path fill="none" stroke="#263238" stroke-linecap="round" stroke-linejoin="round" stroke-miterlimit="20" stroke-width=".74" d="M864.78 109.28v7.336l8.331-1.836v0-3.664 0l-8.331-1.836v0z"/></g><g><path fill="#ffb76f" d="M828 114.53h66.267v33.782H828z"/><path fill="none" stroke="#263238" stroke-linecap="round" stroke-linejoin="round" stroke-miterlimit="20" stroke-width=".74" d="M828 114.53v0h66.267v33.782H828v0z"/></g><g><path fill="#fff" d="M845.27 114.53h7.815v33.782h-7.815z"/><path fill="none" stroke="#263238" stroke-linecap="round" stroke-linejoin="round" stroke-miterlimit="20" stroke-width=".74" d="M845.27 114.53v0h7.815v33.782h-7.815v0z"/></g><g><path fill="#ffb76f" d="M871.44 114.53h22.834v33.782H871.44z"/><path fill="none" stroke="#263238" stroke-linecap="round" stroke-linejoin="round" stroke-miterlimit="20" stroke-width=".74" d="M871.44 114.53v0h22.834v33.782H871.44v0z"/></g><g><path fill="#fff" d="M877.72 114.53h7.815v33.782h-7.815z"/><path fill="none" stroke="#263238" stroke-linecap="round" stroke-linejoin="round" stroke-miterlimit="20" stroke-width=".74" d="M877.72 114.53v0h7.815v33.782h-7.815v0z"/></g></g><g><g><path fill="none" stroke="#263238" stroke-linecap="round" stroke-linejoin="round" stroke-miterlimit="20" stroke-width="2.21" d="M916.956 98.14v0s-6.636-15.852-13.64-15.115c-7.004.737-8.847 9.585-3.318 12.165 5.53 2.58 16.958 2.95 16.958 2.95z"/></g><g><path fill="none" stroke="#263238" stroke-linecap="round" stroke-linejoin="round" stroke-miterlimit="20" stroke-width="2.21" d="M916.96 98.14v0s4.055-15.85 12.165-14.745c8.11 1.106 5.427 13.64 1.371 14.377-4.055.738-13.536.369-13.536.369z"/></g><g><path fill="#fbfcfe" d="M884.79 97.77h60.936v50.356H884.79z"/></g><g><path fill="#ffb76f" d="M900.67 97.77h7.188v50.356h-7.188z"/><path fill="none" stroke="#263238" stroke-linecap="round" stroke-linejoin="round" stroke-miterlimit="20" stroke-width=".74" d="M900.67 97.77v0h7.188v50.356h-7.188v0z"/></g><g><path fill="none" stroke="#263238" stroke-linecap="round" stroke-linejoin="round" stroke-miterlimit="20" stroke-width=".74" d="M924.72 97.77v0h20.998v50.356H924.72v0z"/></g><g><path fill="none" stroke="#263238" stroke-linecap="round" stroke-linejoin="round" stroke-miterlimit="20" stroke-width=".74" d="M884.53 97.77v0h61.194v50.356H884.53v0z"/></g><g><path fill="#ffb76f" d="M930.5 97.77h7.188v50.356H930.5z"/><path fill="none" stroke="#35558f" stroke-linecap="round" stroke-linejoin="round" stroke-miterlimit="20" stroke-width=".74" d="M930.5 97.77v0h7.188v50.356H930.5v0z"/></g><g><path fill="none" stroke="#263238" stroke-linecap="round" stroke-linejoin="round" stroke-miterlimit="20" stroke-width="2.21" d="M914.03 129.84v0-22.118c0-7.373 2.95-9.585 2.95-9.585v0s2.38-.567 3.686 3.466c1.305 4.033 0 19.84 0 19.84v0"/></g></g></g><g transform="matrix(-1 0 0 1 2188 0)"><g><g><path fill="#fff" d="M313.59 107.89h12.947v8.552H313.59z"/><path fill="none" stroke="#263238" stroke-linecap="round" stroke-linejoin="round" stroke-miterlimit="20" stroke-width=".74" d="M313.59 107.89v0h12.947v8.552H313.59v0z"/></g><g><path fill="#fff" d="M319.224 105.996l-7.137 5.19-4.107-5.58 3.561-2.596 7.683 2.986z"/><path fill="none" stroke="#263238" stroke-linecap="round" stroke-linejoin="round" stroke-miterlimit="20" stroke-width=".74" d="M319.224 105.996v0l-7.137 5.19v0l-4.107-5.58v0l3.561-2.596v0l7.683 2.986v0z"/></g><g><path fill="#fff" d="M328.837 111.766l-7.137-5.19 7.675-2.986 3.569 2.595-4.107 5.581z"/><path fill="none" stroke="#263238" stroke-linecap="round" stroke-linejoin="round" stroke-miterlimit="20" stroke-width=".74" d="M328.837 111.766v0l-7.137-5.19v0l7.675-2.986v0l3.569 2.595v0l-4.107 5.581v0z"/></g><g><path fill="#fff" d="M325.236 108.7H315.15l2.522-6.06h5.042l2.522 6.06z"/><path fill="none" stroke="#263238" stroke-linecap="round" stroke-linejoin="round" stroke-miterlimit="20" stroke-width=".74" d="M325.236 108.7v0H315.15v0l2.522-6.06v0h5.042v0l2.522 6.06v0z"/></g><g><path fill="#fff" d="M315.361 108.28v7.336l-8.331-1.836v-3.664l8.331-1.836z"/><path fill="none" stroke="#263238" stroke-linecap="round" stroke-linejoin="round" stroke-miterlimit="20" stroke-width=".74" d="M315.361 108.28v7.336l-8.331-1.836v0-3.664 0l8.331-1.836v0z"/></g><g><path fill="#fff" d="M324.78 108.28v7.336l8.331-1.836v-3.664l-8.331-1.836z"/><path fill="none" stroke="#263238" stroke-linecap="round" stroke-linejoin="round" stroke-miterlimit="20" stroke-width=".74" d="M324.78 108.28v7.336l8.331-1.836v0-3.664 0l-8.331-1.836v0z"/></g><g><path fill="#ffb76f" d="M288 113.53h66.267v33.782H288z"/><path fill="none" stroke="#263238" stroke-linecap="round" stroke-linejoin="round" stroke-miterlimit="20" stroke-width=".74" d="M288 113.53v0h66.267v33.782H288v0z"/></g><g><path fill="#fff" d="M305.27 113.53h7.815v33.782h-7.815z"/><path fill="none" stroke="#263238" stroke-linecap="round" stroke-linejoin="round" stroke-miterlimit="20" stroke-width=".74" d="M305.27 113.53v0h7.815v33.782h-7.815v0z"/></g><g><path fill="#ffb76f" d="M331.44 113.53h22.834v33.782H331.44z"/><path fill="none" stroke="#263238" stroke-linecap="round" stroke-linejoin="round" stroke-miterlimit="20" stroke-width=".74" d="M331.44 113.53v0h22.834v33.782H331.44v0z"/></g><g><path fill="#fff" d="M337.72 113.53h7.815v33.782h-7.815z"/><path fill="none" stroke="#263238" stroke-linecap="round" stroke-linejoin="round" stroke-miterlimit="20" stroke-width=".74" d="M337.72 113.53v0h7.815v33.782h-7.815v0z"/></g></g><g><g><path fill="none" stroke="#263238" stroke-linecap="round" stroke-linejoin="round" stroke-miterlimit="20" stroke-width="2.21" d="M376.956 97.14v0s-6.636-15.852-13.64-15.115c-7.004.737-8.847 9.585-3.318 12.165 5.53 2.58 16.958 2.95 16.958 2.95z"/></g><g><path fill="none" stroke="#263238" stroke-linecap="round" stroke-linejoin="round" stroke-miterlimit="20" stroke-width="2.21" d="M376.96 97.14v0s4.055-15.85 12.165-14.745c8.11 1.106 5.426 13.64 1.371 14.377-4.055.738-13.536.369-13.536.369z"/></g><g><path fill="#fbfcfe" d="M344.79 96.77h60.936v50.356H344.79z"/></g><g><path fill="#ffb76f" d="M360.67 96.77h7.188v50.356h-7.188z"/><path fill="none" stroke="#263238" stroke-linecap="round" stroke-linejoin="round" stroke-miterlimit="20" stroke-width=".74" d="M360.67 96.77v0h7.188v50.356h-7.188v0z"/></g><g><path fill="none" stroke="#263238" stroke-linecap="round" stroke-linejoin="round" stroke-miterlimit="20" stroke-width=".74" d="M384.72 96.77v0h20.998v50.356H384.72v0z"/></g><g><path fill="none" stroke="#263238" stroke-linecap="round" stroke-linejoin="round" stroke-miterlimit="20" stroke-width=".74" d="M344.53 96.77v0h61.194v50.356H344.53v0z"/></g><g><path fill="#ffb76f" d="M390.5 96.77h7.188v50.356H390.5z"/><path fill="none" stroke="#35558f" stroke-linecap="round" stroke-linejoin="round" stroke-miterlimit="20" stroke-width=".74" d="M390.5 96.77v0h7.188v50.356H390.5v0z"/></g><g><path fill="none" stroke="#263238" stroke-linecap="round" stroke-linejoin="round" stroke-miterlimit="20" stroke-width="2.21" d="M374.03 128.84v0-22.118c0-7.373 2.95-9.585 2.95-9.585v0s2.38-.567 3.686 3.466c1.305 4.033 0 19.84 0 19.84v0"/></g></g></g><g><g><path fill="#fff" d="M198.39 105.92h-82.65v42.13h82.65z"/><path fill="none" stroke="#263238" stroke-linecap="round" stroke-linejoin="round" stroke-miterlimit="20" d="M198.39 105.92v0h-82.65v42.13h82.65v0z"/></g><g><path fill="#ffb76f" d="M176.84 105.92h-9.75v42.13h9.75z"/><path fill="none" stroke="#263238" stroke-linecap="round" stroke-linejoin="round" stroke-miterlimit="20" d="M176.84 105.92v0h-9.75v42.13h9.75v0z"/></g><g><path fill="#fff" d="M144.21 105.92h-28.48v42.13h28.48z"/><path fill="none" stroke="#263238" stroke-linecap="round" stroke-linejoin="round" stroke-miterlimit="20" d="M144.21 105.92v0h-28.48v42.13h28.48v0z"/></g><g><path fill="#fff" d="M136.38 105.92h-9.75v42.13h9.75z"/><path fill="none" stroke="#263238" stroke-linecap="round" stroke-linejoin="round" stroke-miterlimit="20" d="M136.38 105.92v0h-9.75v42.13h9.75v0z"/></g><g><path fill="#fff" d="M139.66 105.92H57.01v42.13h82.65z"/></g><g><path fill="#ffb76f" d="M57.02 128.67v-3.74l31.06 23.11h-5.03l-26.03-19.37z"/></g><g><path fill="#ffb76f" d="M139.66 113.63v3.74l-15.39-11.45h5.02l10.37 7.71z"/></g><g><path fill="#ffb76f" d="M104.7 105.92h5.03l29.93 22.27v3.74l-34.96-26.01z"/></g><g><path fill="#ffb76f" d="M85.14 105.92h5.02l49.5 36.83v3.74l-54.52-40.57z"/></g><g><path fill="#ffb76f" d="M107.64 148.04h-5.02l-45.6-33.93v-3.74l50.62 37.67z"/></g><g><path fill="#ffb76f" d="M127.21 148.04h-5.03l-56.6-42.12h5.02l56.61 42.12z"/></g><g><path fill="#adc7f7" d="M57.02 143.23v-3.74l11.5 8.55h-5.03l-6.47-4.81z"/></g><g><path fill="#263238" d="M118.12 105.92h-9.75v42.13h9.75z"/><path fill="none" stroke="#263238" stroke-linecap="round" stroke-linejoin="round" stroke-miterlimit="20" d="M118.12 105.92v0h-9.75v42.13h9.75v0z"/></g><g><path fill="none" stroke="#263238" stroke-linecap="round" stroke-linejoin="round" stroke-miterlimit="20" d="M85.49 105.92v0H57.01v42.13h28.48v0z"/></g><g><path fill="#263238" d="M77.66 105.92h-9.75v42.13h9.75z"/><path fill="none" stroke="#263238" stroke-linecap="round" stroke-linejoin="round" stroke-miterlimit="20" d="M77.66 105.92v0h-9.75v42.13h9.75v0z"/></g><g><path fill="none" stroke="#263238" stroke-linecap="round" stroke-linejoin="round" stroke-miterlimit="20" d="M139.66 105.92v0H57.01v42.13h82.65v0z"/></g><g><path fill="#ffb76f" d="M83.65 134.61H1v13.43h82.65z"/><path fill="none" stroke="#263238" stroke-linecap="round" stroke-linejoin="round" stroke-miterlimit="20" d="M83.65 134.61v0H1v13.43h82.65v0z"/></g><g><path fill="#fff" d="M62.11 134.61h-9.75v13.43h9.75z"/><path fill="none" stroke="#263238" stroke-linecap="round" stroke-linejoin="round" stroke-miterlimit="20" d="M62.11 134.61v0h-9.75v13.43h9.75v0z"/></g><g><path fill="#ffb76f" d="M29.48 134.61H1v13.43h28.48z"/><path fill="none" stroke="#263238" stroke-linecap="round" stroke-linejoin="round" stroke-miterlimit="20" d="M29.48 134.61v0H1v13.43h28.48v0z"/></g><g><path fill="#fff" d="M21.64 134.61h-9.75v13.43h9.75z"/><path fill="none" stroke="#263238" stroke-linecap="round" stroke-linejoin="round" stroke-miterlimit="20" d="M21.64 134.61v0h-9.75v13.43h9.75v0z"/></g><g><path fill="none" stroke="#fff" stroke-linecap="round" stroke-linejoin="round" stroke-miterlimit="20" d="M52.3 122.518s5.76-15 15-12.66"/></g><g><path fill="none" stroke="#fff" stroke-linecap="round" stroke-linejoin="round" stroke-miterlimit="20" d="M48.03 122.52s-6.91-19.57-16.69-13.24"/></g><g><path fill="#ffb76f" d="M87.03 121.37H4.38v13.43h82.65z"/><path fill="none" stroke="#263238" stroke-linecap="round" stroke-linejoin="round" stroke-miterlimit="20" d="M87.03 121.37v0H4.38v13.43h82.65v0z"/></g><g><path fill="#fff" d="M65.49 121.37h-9.75v13.43h9.75z"/><path fill="none" stroke="#263238" stroke-linecap="round" stroke-linejoin="round" stroke-miterlimit="20" d="M65.49 121.37v0h-9.75v13.43h9.75v0z"/></g><g><path fill="#ffb76f" d="M32.86 121.37H4.38v13.43h28.48z"/><path fill="none" stroke="#263238" stroke-linecap="round" stroke-linejoin="round" stroke-miterlimit="20" d="M32.86 121.37v0H4.38v13.43h28.48v0z"/></g><g><path fill="#fff" d="M25.02 121.37h-9.75v13.43h9.75z"/><path fill="none" stroke="#263238" stroke-linecap="round" stroke-linejoin="round" stroke-miterlimit="20" d="M25.02 121.37v0h-9.75v13.43h9.75v0z"/></g><g><g><g><path fill="#fff" d="M190.98 108.24h12.947v8.552H190.98z"/><path fill="none" stroke="#263238" stroke-linecap="round" stroke-linejoin="round" stroke-miterlimit="20" stroke-width=".74" d="M190.98 108.24v0h12.947v8.552H190.98v0z"/></g><g><path fill="#fff" d="M196.614 106.356l-7.137 5.19-4.107-5.58 3.561-2.596 7.683 2.986z"/><path fill="none" stroke="#263238" stroke-linecap="round" stroke-linejoin="round" stroke-miterlimit="20" stroke-width=".74" d="M196.614 106.356v0l-7.137 5.19v0l-4.107-5.58v0l3.561-2.596v0l7.683 2.986v0z"/></g><g><path fill="#fff" d="M206.227 112.126l-7.137-5.19 7.675-2.986 3.569 2.595-4.107 5.581z"/><path fill="none" stroke="#263238" stroke-linecap="round" stroke-linejoin="round" stroke-miterlimit="20" stroke-width=".74" d="M206.227 112.126v0l-7.137-5.19v0l7.675-2.986v0l3.569 2.595v0l-4.107 5.581v0z"/></g><g><path fill="#fff" d="M202.626 109.06H192.54l2.522-6.06h5.042l2.522 6.06z"/><path fill="none" stroke="#263238" stroke-linecap="round" stroke-linejoin="round" stroke-miterlimit="20" stroke-width=".74" d="M202.626 109.06v0H192.54v0l2.522-6.06v0h5.042v0l2.522 6.06v0z"/></g><g><path fill="#fff" d="M192.751 108.64v7.336l-8.331-1.836v-3.664l8.331-1.836z"/><path fill="none" stroke="#263238" stroke-linecap="round" stroke-linejoin="round" stroke-miterlimit="20" stroke-width=".74" d="M192.751 108.64v7.336l-8.331-1.836v0-3.664 0l8.331-1.836v0z"/></g><g><path fill="#fff" d="M202.17 108.64v7.336l8.331-1.836v-3.664l-8.331-1.836z"/><path fill="none" stroke="#263238" stroke-linecap="round" stroke-linejoin="round" stroke-miterlimit="20" stroke-width=".74" d="M202.17 108.64v7.336l8.331-1.836v0-3.664 0l-8.331-1.836v0z"/></g><g><path fill="#ffb76f" d="M165.39 113.89h66.267v33.782H165.39z"/><path fill="none" stroke="#263238" stroke-linecap="round" stroke-linejoin="round" stroke-miterlimit="20" stroke-width=".74" d="M165.39 113.89v0h66.267v33.782H165.39v0z"/></g><g><path fill="#fff" d="M182.66 113.89h7.815v33.782h-7.815z"/><path fill="none" stroke="#263238" stroke-linecap="round" stroke-linejoin="round" stroke-miterlimit="20" stroke-width=".74" d="M182.66 113.89v0h7.815v33.782h-7.815v0z"/></g><g><path fill="#ffb76f" d="M208.83 113.89h22.834v33.782H208.83z"/><path fill="none" stroke="#263238" stroke-linecap="round" stroke-linejoin="round" stroke-miterlimit="20" stroke-width=".74" d="M208.83 113.89v0h22.834v33.782H208.83v0z"/></g><g><path fill="#fff" d="M215.11 113.89h7.815v33.782h-7.815z"/><path fill="none" stroke="#263238" stroke-linecap="round" stroke-linejoin="round" stroke-miterlimit="20" stroke-width=".74" d="M215.11 113.89v0h7.815v33.782h-7.815v0z"/></g></g></g><g><g><path fill="none" stroke="#263238" stroke-linecap="round" stroke-linejoin="round" stroke-miterlimit="20" stroke-width="2.21" d="M132.316 56.14v0s-6.636-15.852-13.64-15.115c-7.004.737-8.847 9.585-3.318 12.165 5.53 2.58 16.958 2.95 16.958 2.95z"/></g><g><path fill="none" stroke="#263238" stroke-linecap="round" stroke-linejoin="round" stroke-miterlimit="20" stroke-width="2.21" d="M132.32 56.14v0s4.055-15.85 12.165-14.745c8.11 1.106 5.426 13.64 1.371 14.377-4.055.738-13.536.369-13.536.369z"/></g><g><path fill="#fbfcfe" d="M100.14 55.77h60.936v50.356H100.14z"/></g><g><path fill="#ffb76f" d="M116.02 55.77h7.188v50.356h-7.188z"/><path fill="none" stroke="#263238" stroke-linecap="round" stroke-linejoin="round" stroke-miterlimit="20" stroke-width=".74" d="M116.02 55.77v0h7.188v50.356h-7.188v0z"/></g><g><path fill="none" stroke="#263238" stroke-linecap="round" stroke-linejoin="round" stroke-miterlimit="20" stroke-width=".74" d="M140.08 55.77v0h20.998v50.356H140.08v0z"/></g><g><path fill="none" stroke="#263238" stroke-linecap="round" stroke-linejoin="round" stroke-miterlimit="20" stroke-width=".74" d="M99.88 55.77v0h61.194v50.356H99.88v0z"/></g><g><path fill="#ffb76f" d="M145.85 55.77h7.188v50.356h-7.188z"/><path fill="none" stroke="#263238" stroke-linecap="round" stroke-linejoin="round" stroke-miterlimit="20" stroke-width=".74" d="M145.85 55.77v0h7.188v50.356h-7.188v0z"/></g><g><path fill="none" stroke="#263238" stroke-linecap="round" stroke-linejoin="round" stroke-miterlimit="20" stroke-width="2.21" d="M129.39 87.84v0-22.118c0-7.373 2.95-9.585 2.95-9.585v0s2.38-.567 3.686 3.466c1.305 4.033 0 19.84 0 19.84v0"/></g></g></g><g><g><path fill="#263238" d="M1406.32 141.18v.97l1.78 1.29-.7-2.14.17-.12h-1.25z"/></g><g><path fill="#263238" d="M1406.32 141.18h-1.34l.17.12-.7 2.14 1.83-1.32.04.03v-.97z"/></g><g><path fill="#263238" d="M1379.41 141.18v.97l1.77 1.29-.69-2.14.16-.12h-1.24z"/></g><g><path fill="#263238" d="M1379.41 141.18h-1.34l.16.12-.69 2.14 1.82-1.32.05.03v-.97z"/></g><g><path fill="#263238" d="M1325.57 141.18v.97l1.78 1.29-.69-2.14.16-.12h-1.25z"/></g><g><path fill="#263238" d="M1325.57 141.18h-1.33l.16.12-.69 2.14 1.82-1.32.04.03v-.97z"/></g><g><path fill="#263238" d="M1298.66 141.18v.97l1.78 1.29-.7-2.14.17-.12h-1.25z"/></g><g><path fill="#263238" d="M1298.66 141.18h-1.34l.17.12-.7 2.14 1.82-1.32.05.03v-.97z"/></g><g><path fill="#263238" d="M1271.74 141.18v.97l1.78 1.29-.7-2.14.17-.12h-1.25z"/></g><g><path fill="#263238" d="M1271.74 141.18h-1.34l.17.12-.69 2.14 1.82-1.32.04.03v-.97z"/></g><g><path fill="#263238" d="M1246.03 141.66v1.36l.58.42-.58-1.78z"/></g><g><path fill="#fff" d="M984.32 105.12h82.65v42.13h-82.65z"/><path fill="none" stroke="#263238" stroke-linecap="round" stroke-linejoin="round" stroke-miterlimit="20" d="M984.32 105.12v0h82.65v42.13h-82.65v0z"/></g><g><g><path fill="#fff" d="M1192.97 23.35h100.907V148H1192.97z"/><path fill="none" stroke="#263238" stroke-linecap="round" stroke-linejoin="round" stroke-miterlimit="20" stroke-width=".56" d="M1192.97 23.35v0h100.907V148H1192.97v0z"/></g><g><path fill="#263238" d="M1283.833 23.473l.169-.124h-.872v.124h.703z"/></g><g><path fill="#263238" d="M1291.118 30.324l-.394-1.204-.388 1.204h-1.266l1.024.742-.394 1.204 1.024-.743 1.03.743-.395-1.204 1.024-.742h-1.265z"/></g><g><path fill="#263238" d="M1283.13 38.61h.703l.928-.675h-1.265l-.366-1.125v1.8z"/></g><g><path fill="#263238" d="M1283.13 23.47v.546l1.001.725-.393-1.203.095-.068h-.703z"/></g><g><path fill="#263238" d="M1291.118 45.464l-.394-1.204-.388 1.204h-1.266l1.024.742-.394 1.21 1.024-.749 1.03.749-.395-1.21 1.024-.742h-1.265z"/></g><g><path fill="#263238" d="M1283.13 53.756h.703l.928-.675h-1.265l-.366-1.131v1.806z"/></g><g><path fill="#263238" d="M1283.13 38.61v.551l1.001.726-.393-1.21.095-.067h-.703z"/></g><g><path fill="#263238" d="M1291.118 60.604l-.394-1.204-.388 1.204h-1.266l1.024.742-.394 1.204 1.024-.743 1.03.743-.395-1.204 1.024-.742h-1.265z"/></g><g><path fill="#263238" d="M1283.13 68.89h.703l.928-.675h-1.265l-.366-1.125v1.8z"/></g><g><path fill="#263238" d="M1283.13 53.75v.546l1.001.725-.393-1.203.095-.068h-.703z"/></g><g><path fill="#263238" d="M1291.118 75.744l-.394-1.204-.388 1.204h-1.266l1.024.748-.394 1.204 1.024-.749 1.03.749-.395-1.204 1.024-.748h-1.265z"/></g><g><path fill="#263238" d="M1283.13 84.036h.703l.928-.675h-1.265l-.366-1.131v1.806z"/></g><g><path fill="#263238" d="M1283.13 68.89v.551l1.001.726-.393-1.204.095-.073h-.703z"/></g><g><path fill="#263238" d="M1291.118 90.884l-.394-1.204-.388 1.204h-1.266l1.024.742-.394 1.204 1.024-.742 1.03.742-.395-1.204 1.024-.742h-1.265z"/></g><g><path fill="#263238" d="M1283.13 99.17h.703l.928-.675h-1.265l-.366-1.125v1.8z"/></g><g><path fill="#263238" d="M1283.13 84.03v.546l1.001.725-.393-1.203.095-.068h-.703z"/></g><g><path fill="#263238" d="M1291.118 106.024l-.394-1.204-.388 1.204h-1.266l1.024.748-.394 1.204 1.024-.749 1.03.749-.395-1.204 1.024-.748h-1.265z"/></g><g><path fill="#263238" d="M1283.13 114.316h.703l.928-.675h-1.265l-.366-1.131v1.806z"/></g><g><path fill="#263238" d="M1283.13 99.17v.551l1.001.726-.393-1.204.095-.073h-.703z"/></g><g><path fill="#263238" d="M1291.118 121.164l-.394-1.204-.388 1.204h-1.266l1.024.742-.394 1.204 1.024-.743 1.03.743-.395-1.204 1.024-.742h-1.265z"/></g><g><path fill="#263238" d="M1283.13 129.45h.703l.928-.675h-1.265l-.366-1.125v1.8z"/></g><g><path fill="#263238" d="M1283.13 114.31v.546l1.001.725-.393-1.204.095-.067h-.703z"/></g><g><path fill="#263238" d="M1291.118 136.304l-.394-1.204-.388 1.204h-1.266l1.024.748-.394 1.204 1.024-.743 1.03.743-.395-1.204 1.024-.748h-1.265z"/></g><g><path fill="#263238" d="M1284.761 143.915h-1.265l-.366-1.125v1.8h.703l.928-.675z"/></g><g><path fill="#263238" d="M1283.13 129.45v.551l1.001.726-.393-1.204.095-.073h-.703z"/></g><g><path fill="#263238" d="M1283.13 144.59v.546l1.001.725-.393-1.204.095-.067h-.703z"/></g><g><path fill="#263238" d="M1283.137 23.473v-.124h-.917l.163.124h.754z"/></g><g><path fill="#263238" d="M1268.697 23.473l.17-.124H1268v.124h.697z"/></g><g><path fill="#263238" d="M1275.973 30.324l-.394-1.204-.393 1.204h-1.266l1.024.742-.388 1.204 1.023-.743 1.024.743-.388-1.204 1.024-.742h-1.266z"/></g><g><path fill="#263238" d="M1281.45 37.934l.928.675h.754v-1.8l-.023-.079-.393 1.204h-1.266z"/></g><g><path fill="#263238" d="M1283.132 23.47h-.754l.096.068-.394 1.203 1.03-.742.022.017v-.546z"/></g><g><path fill="#263238" d="M1268 38.61h.698l.933-.675h-1.265L1268 36.81v1.8z"/></g><g><path fill="#263238" d="M1268 23.47v.546l.996.725-.389-1.203.09-.068H1268z"/></g><g><path fill="#263238" d="M1275.973 45.464l-.394-1.204-.393 1.204h-1.266l1.024.742-.388 1.21 1.023-.749 1.024.749-.388-1.21 1.024-.742h-1.266z"/></g><g><path fill="#263238" d="M1281.45 53.074l.928.675h.754v-1.806l-.023-.073-.393 1.204h-1.266z"/></g><g><path fill="#263238" d="M1283.132 38.61h-.754l.096.068-.394 1.209 1.03-.748.022.022v-.551z"/></g><g><path fill="#263238" d="M1268 53.756h.698l.933-.675h-1.265L1268 51.95v1.806z"/></g><g><path fill="#263238" d="M1268 38.61v.551l.996.726-.389-1.21.09-.067H1268z"/></g><g><path fill="#263238" d="M1275.973 60.604l-.394-1.204-.393 1.204h-1.266l1.024.742-.388 1.204 1.023-.743 1.024.743-.388-1.204 1.024-.742h-1.266z"/></g><g><path fill="#263238" d="M1281.45 68.214l.928.675h.754v-1.8l-.023-.079-.393 1.204h-1.266z"/></g><g><path fill="#263238" d="M1283.132 53.75h-.754l.096.068-.394 1.203 1.03-.742.022.017v-.546z"/></g><g><path fill="#263238" d="M1268 68.89h.698l.933-.675h-1.265L1268 67.09v1.8z"/></g><g><path fill="#263238" d="M1268 53.75v.546l.996.725-.389-1.203.09-.068H1268z"/></g><g><path fill="#263238" d="M1275.973 75.744l-.394-1.204-.393 1.204h-1.266l1.024.748-.388 1.204 1.023-.749 1.024.749-.388-1.204 1.024-.748h-1.266z"/></g><g><path fill="#263238" d="M1281.45 83.354l.928.675h.754v-1.806l-.023-.073-.393 1.204h-1.266z"/></g><g><path fill="#263238" d="M1283.132 68.89h-.754l.096.073-.394 1.204 1.03-.748.022.022v-.551z"/></g><g><path fill="#263238" d="M1268 84.036h.698l.933-.675h-1.265L1268 82.23v1.806z"/></g><g><path fill="#263238" d="M1268 68.89v.551l.996.726-.389-1.204.09-.073H1268z"/></g><g><path fill="#263238" d="M1275.973 90.884l-.394-1.204-.393 1.204h-1.266l1.024.742-.388 1.204 1.023-.742 1.024.742-.388-1.204 1.024-.742h-1.266z"/></g><g><path fill="#263238" d="M1281.45 98.494l.928.675h.754v-1.8l-.023-.079-.393 1.204h-1.266z"/></g><g><path fill="#263238" d="M1283.132 84.03h-.754l.096.068-.394 1.203 1.03-.742.022.017v-.546z"/></g><g><path fill="#263238" d="M1268 99.17h.698l.933-.675h-1.265L1268 97.37v1.8z"/></g><g><path fill="#263238" d="M1268 84.03v.546l.996.725-.389-1.203.09-.068H1268z"/></g><g><path fill="#263238" d="M1275.973 106.024l-.394-1.204-.393 1.204h-1.266l1.024.748-.388 1.204 1.023-.749 1.024.749-.388-1.204 1.024-.748h-1.266z"/></g><g><path fill="#263238" d="M1281.45 113.634l.928.675h.754v-1.8l-.023-.079-.393 1.204h-1.266z"/></g><g><path fill="#263238" d="M1283.132 99.17h-.754l.096.073-.394 1.204 1.03-.743.022.017v-.551z"/></g><g><path fill="#263238" d="M1268 114.316h.698l.933-.675h-1.265l-.366-1.131v1.806z"/></g><g><path fill="#263238" d="M1268 99.17v.551l.996.726-.389-1.204.09-.073H1268z"/></g><g><path fill="#263238" d="M1275.973 121.164l-.394-1.204-.393 1.204h-1.266l1.024.742-.388 1.204 1.023-.743 1.024.743-.388-1.204 1.024-.742h-1.266z"/></g><g><path fill="#263238" d="M1283.132 129.449v-1.8l-.023-.079-.393 1.204h-1.266l.928.675h.754z"/></g><g><path fill="#263238" d="M1283.132 114.31h-.754l.096.068-.394 1.203 1.03-.742.022.017v-.546z"/></g><g><path fill="#263238" d="M1269.631 128.775h-1.265l-.366-1.125v1.8h.697l.934-.675z"/></g><g><path fill="#263238" d="M1268 114.31v.546l.996.725-.389-1.204.09-.067H1268z"/></g><g><path fill="#263238" d="M1275.973 136.304l-.394-1.204-.393 1.204h-1.266l1.024.748-.388 1.204 1.023-.743 1.024.743-.388-1.204 1.024-.748h-1.266z"/></g><g><path fill="#263238" d="M1283.132 142.789l-.023-.079-.393 1.204h-1.266l.928.675h.754v-1.8z"/></g><g><path fill="#263238" d="M1283.132 129.45h-.754l.096.073-.394 1.204 1.03-.743.022.017v-.551z"/></g><g><path fill="#263238" d="M1268 144.59h.698l.933-.675h-1.265l-.366-1.125v1.8z"/></g><g><path fill="#263238" d="M1268 129.45v.551l.996.726-.389-1.204.09-.073H1268z"/></g><g><path fill="#263238" d="M1283.132 144.59h-.754l.096.068-.394 1.203 1.03-.742.022.017v-.546z"/></g><g><path fill="#263238" d="M1268 144.59v.546l.996.725-.389-1.204.09-.067H1268z"/></g><g><path fill="#263238" d="M1267.992 23.473v-.124h-.922l.169.124h.753z"/></g><g><path fill="#263238" d="M1253.553 23.473l.169-.124h-.872v.124h.703z"/></g><g><path fill="#263238" d="M1260.838 30.324l-.394-1.204-.388 1.204h-1.266l1.024.742-.394 1.204 1.024-.743 1.03.743-.395-1.204 1.024-.742h-1.265z"/></g><g><path fill="#263238" d="M1266.31 37.934l.934.675h.753v-1.8l-.028-.079-.388 1.204h-1.271z"/></g><g><path fill="#263238" d="M1267.992 23.47h-.754l.09.068-.388 1.203 1.024-.742.028.017v-.546z"/></g><g><path fill="#263238" d="M1252.85 38.61h.703l.928-.675h-1.265l-.366-1.125v1.8z"/></g><g><path fill="#263238" d="M1252.85 24.016l1.001.725-.394-1.203.096-.068h-.703v.546z"/></g><g><path fill="#263238" d="M1260.838 45.464l-.394-1.204-.388 1.204h-1.266l1.024.742-.394 1.21 1.024-.749 1.03.749-.395-1.21 1.024-.742h-1.265z"/></g><g><path fill="#263238" d="M1266.31 53.074l.934.675h.753v-1.806l-.028-.073-.388 1.204h-1.271z"/></g><g><path fill="#263238" d="M1267.992 38.61h-.754l.09.068-.388 1.209 1.024-.748.028.022v-.551z"/></g><g><path fill="#263238" d="M1252.85 53.756h.703l.928-.675h-1.265l-.366-1.131v1.806z"/></g><g><path fill="#263238" d="M1252.85 38.61v.551l1.001.726-.394-1.21.096-.067h-.703z"/></g><g><path fill="#263238" d="M1260.838 60.604l-.394-1.204-.388 1.204h-1.266l1.024.742-.394 1.204 1.024-.743 1.03.743-.395-1.204 1.024-.742h-1.265z"/></g><g><path fill="#263238" d="M1266.31 68.214l.934.675h.753v-1.8l-.028-.079-.388 1.204h-1.271z"/></g><g><path fill="#263238" d="M1267.992 53.75h-.754l.09.068-.388 1.203 1.024-.742.028.017v-.546z"/></g><g><path fill="#263238" d="M1254.481 68.215h-1.265l-.366-1.125v1.8h.703l.928-.675z"/></g><g><path fill="#263238" d="M1252.85 53.75v.546l1.001.725-.394-1.203.096-.068h-.703z"/></g><g><path fill="#263238" d="M1260.838 75.744l-.394-1.204-.388 1.204h-1.266l1.024.748-.394 1.204 1.024-.749 1.03.749-.395-1.204 1.024-.748h-1.265z"/></g><g><path fill="#263238" d="M1266.31 83.354l.934.675h.753v-1.806l-.028-.073-.388 1.204h-1.271z"/></g><g><path fill="#263238" d="M1267.992 68.89h-.754l.09.073-.388 1.204 1.024-.748.028.022v-.551z"/></g><g><path fill="#263238" d="M1254.481 83.36h-1.265l-.366-1.13v1.806h.703l.928-.675z"/></g><g><path fill="#263238" d="M1252.85 68.89v.551l1.001.726-.394-1.204.096-.073h-.703z"/></g><g><path fill="#263238" d="M1260.838 90.884l-.394-1.204-.388 1.204h-1.266l1.024.742-.394 1.204 1.024-.742 1.03.742-.395-1.204 1.024-.742h-1.265z"/></g><g><path fill="#263238" d="M1266.31 98.494l.934.675h.753v-1.8l-.028-.079-.388 1.204h-1.271z"/></g><g><path fill="#263238" d="M1267.992 84.03h-.754l.09.068-.388 1.203 1.024-.742.028.017v-.546z"/></g><g><path fill="#263238" d="M1254.481 98.495h-1.265l-.366-1.125v1.8h.703l.928-.675z"/></g><g><path fill="#263238" d="M1252.85 84.03v.546l1.001.725-.394-1.203.096-.068h-.703z"/></g><g><path fill="#263238" d="M1260.838 106.024l-.394-1.204-.388 1.204h-1.266l1.024.748-.394 1.204 1.024-.749 1.03.749-.395-1.204 1.024-.748h-1.265z"/></g><g><path fill="#263238" d="M1267.997 114.309v-1.8l-.028-.079-.388 1.204h-1.271l.934.675h.753z"/></g><g><path fill="#263238" d="M1267.992 99.17h-.754l.09.073-.388 1.204 1.024-.743.028.017v-.551z"/></g><g><path fill="#263238" d="M1254.481 113.64h-1.265l-.366-1.13v1.806h.703l.928-.675z"/></g><g><path fill="#263238" d="M1252.85 99.17v.551l1.001.726-.394-1.204.096-.073h-.703z"/></g><g><path fill="#263238" d="M1260.838 121.164l-.394-1.204-.388 1.204h-1.266l1.024.742-.394 1.204 1.024-.743 1.03.743-.395-1.204 1.024-.742h-1.265z"/></g><g><path fill="#263238" d="M1267.997 127.649l-.028-.079-.388 1.204h-1.271l.934.675h.753v-1.8z"/></g><g><path fill="#263238" d="M1267.992 114.31h-.754l.09.068-.388 1.203 1.024-.742.028.017v-.546z"/></g><g><path fill="#263238" d="M1253.553 129.45l.928-.675h-1.265l-.366-1.125v1.8h.703z"/></g><g><path fill="#263238" d="M1252.85 114.31v.546l1.001.725-.394-1.204.096-.067h-.703z"/></g><g><path fill="#263238" d="M1260.838 136.304l-.394-1.204-.388 1.204h-1.266l1.024.748-.394 1.204 1.024-.743 1.03.743-.395-1.204 1.024-.748h-1.265z"/></g><g><path fill="#263238" d="M1267.997 144.589v-1.8l-.028-.079-.388 1.204h-1.271l.934.675h.753z"/></g><g><path fill="#263238" d="M1267.992 129.45h-.754l.09.073-.388 1.204 1.024-.743.028.017v-.551z"/></g><g><path fill="#263238" d="M1253.553 144.59l.928-.675h-1.265l-.366-1.125v1.8h.703z"/></g><g><path fill="#263238" d="M1252.85 129.45v.551l1.001.726-.394-1.204.096-.073h-.703z"/></g><g><path fill="#263238" d="M1267.992 144.59h-.754l.09.068-.388 1.203 1.024-.742.028.017v-.546z"/></g><g><path fill="#263238" d="M1252.85 144.59v.546l1.001.725-.394-1.204.096-.067h-.703z"/></g><g><path fill="#263238" d="M1252.852 23.473v-.124h-.922l.169.124h.754z"/></g><g><path fill="#263238" d="M1238.413 23.473l.169-.124h-.872v.124h.703z"/></g><g><path fill="#263238" d="M1245.697 30.324l-.388-1.204-.393 1.204h-1.266l1.024.742-.388 1.204 1.023-.743 1.024.743-.394-1.204 1.03-.742h-1.272z"/></g><g><path fill="#263238" d="M1251.17 37.934l.928.675h.754v-1.8l-.028-.079-.388 1.204h-1.266z"/></g><g><path fill="#263238" d="M1252.098 23.47l.096.068-.394 1.203 1.024-.742.028.017v-.546h-.754z"/></g><g><path fill="#263238" d="M1237.71 38.61h.703l.934-.675h-1.266l-.371-1.125v1.8z"/></g><g><path fill="#263238" d="M1237.71 23.47v.546l1.001.725-.388-1.203.09-.068h-.703z"/></g><g><path fill="#263238" d="M1245.697 45.464l-.388-1.204-.393 1.204h-1.266l1.024.742-.388 1.21 1.023-.749 1.024.749-.394-1.21 1.03-.742h-1.272z"/></g><g><path fill="#263238" d="M1251.17 53.074l.928.675h.754v-1.806l-.028-.073-.388 1.204h-1.266z"/></g><g><path fill="#263238" d="M1252.098 38.61l.096.068-.394 1.209 1.024-.748.028.022v-.551h-.754z"/></g><g><path fill="#263238" d="M1237.71 53.756h.703l.934-.675h-1.266l-.371-1.131v1.806z"/></g><g><path fill="#263238" d="M1237.71 38.61v.551l1.001.726-.388-1.21.09-.067h-.703z"/></g><g><path fill="#263238" d="M1245.697 60.604l-.388-1.204-.393 1.204h-1.266l1.024.742-.388 1.204 1.023-.743 1.024.743-.394-1.204 1.03-.742h-1.272z"/></g><g><path fill="#263238" d="M1252.852 68.889v-1.8l-.028-.079-.388 1.204h-1.266l.928.675h.754z"/></g><g><path fill="#263238" d="M1252.098 53.75l.096.068-.394 1.203 1.024-.742.028.017v-.546h-.754z"/></g><g><path fill="#263238" d="M1237.71 68.89h.703l.934-.675h-1.266l-.371-1.125v1.8z"/></g><g><path fill="#263238" d="M1237.71 54.296l1.001.725-.388-1.203.09-.068h-.703v.546z"/></g><g><path fill="#263238" d="M1245.697 75.744l-.388-1.204-.393 1.204h-1.266l1.024.748-.388 1.204 1.023-.749 1.024.749-.394-1.204 1.03-.748h-1.272z"/></g><g><path fill="#263238" d="M1252.852 84.029v-1.806l-.028-.073-.388 1.204h-1.266l.928.675h.754z"/></g><g><path fill="#263238" d="M1252.194 68.963l-.394 1.204 1.024-.748.028.022v-.551h-.754l.096.073z"/></g><g><path fill="#263238" d="M1237.71 84.036h.703l.934-.675h-1.266l-.371-1.131v1.806z"/></g><g><path fill="#263238" d="M1237.71 69.441l1.001.726-.388-1.204.09-.073h-.703v.551z"/></g><g><path fill="#263238" d="M1245.697 90.884l-.388-1.204-.393 1.204h-1.266l1.024.742-.388 1.204 1.023-.742 1.024.742-.394-1.204 1.03-.742h-1.272z"/></g><g><path fill="#263238" d="M1252.852 99.169v-1.8l-.028-.079-.388 1.204h-1.266l.928.675h.754z"/></g><g><path fill="#263238" d="M1252.194 84.097l-.394 1.204 1.024-.742.028.017v-.546h-.754l.096.067z"/></g><g><path fill="#263238" d="M1237.71 99.17h.703l.934-.675h-1.266l-.371-1.125v1.8z"/></g><g><path fill="#263238" d="M1237.71 84.576l1.001.725-.388-1.203.09-.068h-.703v.546z"/></g><g><path fill="#263238" d="M1245.697 106.024l-.388-1.204-.393 1.204h-1.266l1.024.748-.388 1.204 1.023-.749 1.024.749-.394-1.204 1.03-.748h-1.272z"/></g><g><path fill="#263238" d="M1252.852 114.309v-1.8l-.028-.079-.388 1.204h-1.266l.928.675h.754z"/></g><g><path fill="#263238" d="M1252.194 99.243l-.394 1.204 1.024-.743.028.017v-.551h-.754l.096.073z"/></g><g><path fill="#263238" d="M1237.71 114.316h.703l.934-.675h-1.266l-.371-1.131v1.806z"/></g><g><path fill="#263238" d="M1237.71 99.721l1.001.726-.388-1.204.09-.073h-.703v.551z"/></g><g><path fill="#263238" d="M1245.697 121.164l-.388-1.204-.393 1.204h-1.266l1.024.742-.388 1.204 1.023-.743 1.024.743-.394-1.204 1.03-.742h-1.272z"/></g><g><path fill="#263238" d="M1252.852 129.449v-1.8l-.028-.079-.388 1.204h-1.266l.928.675h.754z"/></g><g><path fill="#263238" d="M1252.852 114.31h-.754l.096.068-.394 1.203 1.024-.742.028.017v-.546z"/></g><g><path fill="#263238" d="M1237.71 129.45h.703l.934-.675h-1.266l-.371-1.125v1.8z"/></g><g><path fill="#263238" d="M1237.71 114.31v.546l1.001.725-.388-1.204.09-.067h-.703z"/></g><g><path fill="#263238" d="M1245.697 136.304l-.388-1.204-.393 1.204h-1.266l1.024.748-.388 1.204 1.023-.743 1.024.743-.394-1.204 1.03-.748h-1.272z"/></g><g><path fill="#263238" d="M1252.852 144.589v-1.8l-.028-.079-.388 1.204h-1.266l.928.675h.754z"/></g><g><path fill="#263238" d="M1252.852 129.45h-.754l.096.073-.394 1.204 1.024-.743.028.017v-.551z"/></g><g><path fill="#263238" d="M1237.71 144.59h.703l.934-.675h-1.266l-.371-1.125v1.8z"/></g><g><path fill="#263238" d="M1237.71 129.45v.551l1.001.726-.388-1.204.09-.073h-.703z"/></g><g><path fill="#263238" d="M1252.852 144.59h-.754l.096.068-.394 1.203 1.024-.742.028.017v-.546z"/></g><g><path fill="#263238" d="M1237.71 144.59v.546l1.001.725-.388-1.204.09-.067h-.703z"/></g><g><path fill="#263238" d="M1237.707 23.473v-.124h-.917l.169.124h.748z"/></g><g><path fill="#263238" d="M1223.273 23.473l.163-.124h-.866v.124h.703z"/></g><g><path fill="#263238" d="M1230.557 30.324l-.393-1.204-.388 1.204h-1.266l1.024.742-.394 1.204 1.024-.743 1.03.743-.395-1.204 1.024-.742h-1.266z"/></g><g><path fill="#263238" d="M1236.03 37.934l.934.675h.748v-1.8l-.023-.079-.393 1.204h-1.266z"/></g><g><path fill="#263238" d="M1237.716 23.47h-.748l.09.068-.388 1.203 1.024-.742.022.017v-.546z"/></g><g><path fill="#263238" d="M1222.57 38.61h.703l.928-.675h-1.265l-.366-1.125v1.8z"/></g><g><path fill="#263238" d="M1222.57 23.47v.546l1.001.725-.394-1.203.096-.068h-.703z"/></g><g><path fill="#263238" d="M1230.557 45.464l-.393-1.204-.388 1.204h-1.266l1.024.742-.394 1.21 1.024-.749 1.03.749-.395-1.21 1.024-.742h-1.266z"/></g><g><path fill="#263238" d="M1236.03 53.074l.934.675h.748v-1.806l-.023-.073-.393 1.204h-1.266z"/></g><g><path fill="#263238" d="M1237.716 38.61h-.748l.09.068-.388 1.209 1.024-.748.022.022v-.551z"/></g><g><path fill="#263238" d="M1222.57 53.756h.703l.928-.675h-1.265l-.366-1.131v1.806z"/></g><g><path fill="#263238" d="M1222.57 38.61v.551l1.001.726-.394-1.21.096-.067h-.703z"/></g><g><path fill="#263238" d="M1230.557 60.604l-.393-1.204-.388 1.204h-1.266l1.024.742-.394 1.204 1.024-.743 1.03.743-.395-1.204 1.024-.742h-1.266z"/></g><g><path fill="#263238" d="M1237.712 68.889v-1.8l-.023-.079-.393 1.204h-1.266l.934.675h.748z"/></g><g><path fill="#263238" d="M1237.058 53.818l-.388 1.203 1.024-.742.022.017v-.546h-.748l.09.068z"/></g><g><path fill="#263238" d="M1222.57 68.89h.703l.928-.675h-1.265l-.366-1.125v1.8z"/></g><g><path fill="#263238" d="M1222.57 54.296l1.001.725-.394-1.203.096-.068h-.703v.546z"/></g><g><path fill="#263238" d="M1230.557 75.744l-.393-1.204-.388 1.204h-1.266l1.024.748-.394 1.204 1.024-.749 1.03.749-.395-1.204 1.024-.748h-1.266z"/></g><g><path fill="#263238" d="M1237.712 84.029v-1.806l-.023-.073-.393 1.204h-1.266l.934.675h.748z"/></g><g><path fill="#263238" d="M1237.058 68.963l-.388 1.204 1.024-.748.022.022v-.551h-.748l.09.073z"/></g><g><path fill="#263238" d="M1222.57 84.036h.703l.928-.675h-1.265l-.366-1.131v1.806z"/></g><g><path fill="#263238" d="M1222.57 69.441l1.001.726-.394-1.204.096-.073h-.703v.551z"/></g><g><path fill="#263238" d="M1230.557 90.884l-.393-1.204-.388 1.204h-1.266l1.024.742-.394 1.204 1.024-.742 1.03.742-.395-1.204 1.024-.742h-1.266z"/></g><g><path fill="#263238" d="M1237.712 99.169v-1.8l-.023-.079-.393 1.204h-1.266l.934.675h.748z"/></g><g><path fill="#263238" d="M1237.058 84.097l-.388 1.204 1.024-.742.022.017v-.546h-.748l.09.067z"/></g><g><path fill="#263238" d="M1222.57 99.17h.703l.928-.675h-1.265l-.366-1.125v1.8z"/></g><g><path fill="#263238" d="M1222.57 84.576l1.001.725-.394-1.203.096-.068h-.703v.546z"/></g><g><path fill="#263238" d="M1230.557 106.024l-.393-1.204-.388 1.204h-1.266l1.024.748-.394 1.204 1.024-.749 1.03.749-.395-1.204 1.024-.748h-1.266z"/></g><g><path fill="#263238" d="M1237.712 114.309v-1.8l-.023-.079-.393 1.204h-1.266l.934.675h.748z"/></g><g><path fill="#263238" d="M1237.058 99.243l-.388 1.204 1.024-.743.022.017v-.551h-.748l.09.073z"/></g><g><path fill="#263238" d="M1222.57 114.316h.703l.928-.675h-1.265l-.366-1.131v1.806z"/></g><g><path fill="#263238" d="M1222.57 99.721l1.001.726-.394-1.204.096-.073h-.703v.551z"/></g><g><path fill="#263238" d="M1230.557 121.164l-.393-1.204-.388 1.204h-1.266l1.024.742-.394 1.204 1.024-.743 1.03.743-.395-1.204 1.024-.742h-1.266z"/></g><g><path fill="#263238" d="M1237.712 129.449v-1.8l-.023-.079-.393 1.204h-1.266l.934.675h.748z"/></g><g><path fill="#263238" d="M1237.716 114.31h-.748l.09.068-.388 1.203 1.024-.742.022.017v-.546z"/></g><g><path fill="#263238" d="M1222.57 129.45h.703l.928-.675h-1.265l-.366-1.125v1.8z"/></g><g><path fill="#263238" d="M1222.57 114.856l1.001.725-.394-1.204.096-.067h-.703v.546z"/></g><g><path fill="#263238" d="M1230.557 136.304l-.393-1.204-.388 1.204h-1.266l1.024.748-.394 1.204 1.024-.743 1.03.743-.395-1.204 1.024-.748h-1.266z"/></g><g><path fill="#263238" d="M1237.712 144.589v-1.8l-.023-.079-.393 1.204h-1.266l.934.675h.748z"/></g><g><path fill="#263238" d="M1237.716 129.45h-.748l.09.073-.388 1.204 1.024-.743.022.017v-.551z"/></g><g><path fill="#263238" d="M1222.57 144.59h.703l.928-.675h-1.265l-.366-1.125v1.8z"/></g><g><path fill="#263238" d="M1222.57 129.45v.551l1.001.726-.394-1.204.096-.073h-.703z"/></g><g><path fill="#263238" d="M1237.716 144.59h-.748l.09.068-.388 1.203 1.024-.742.022.017v-.546z"/></g><g><path fill="#263238" d="M1222.57 144.59v.546l1.001.725-.394-1.204.096-.067h-.703z"/></g><g><path fill="#263238" d="M1222.573 23.473v-.124h-.923l.169.124h.754z"/></g><g><path fill="#263238" d="M1208.133 23.473l.169-.124h-.872v.124h.703z"/></g><g><path fill="#263238" d="M1215.418 30.324l-.389-1.204-.393 1.204h-1.266l1.024.742-.388 1.204 1.023-.743 1.024.743-.394-1.204 1.03-.742h-1.271z"/></g><g><path fill="#263238" d="M1220.89 37.934l.928.675h.754v-1.8l-.028-.079-.388 1.204h-1.266z"/></g><g><path fill="#263238" d="M1222.572 23.47h-.754l.096.068-.394 1.203 1.024-.742.028.017v-.546z"/></g><g><path fill="#263238" d="M1208.133 38.61l.934-.675h-1.271l-.366-1.125v1.8h.703z"/></g><g><path fill="#263238" d="M1207.43 24.016l1.001.725-.393-1.203.095-.068h-.703v.546z"/></g><g><path fill="#263238" d="M1214.006 47.416l1.023-.749 1.024.749-.394-1.21 1.03-.742h-1.272l-.388-1.204-.393 1.204h-1.266l1.024.742-.388 1.21z"/></g><g><path fill="#263238" d="M1222.572 53.749v-1.806l-.028-.073-.388 1.204h-1.266l.928.675h.754z"/></g><g><path fill="#263238" d="M1222.572 38.61h-.754l.096.068-.394 1.209 1.024-.748.028.022v-.551z"/></g><g><path fill="#263238" d="M1208.133 53.756l.934-.675h-1.271l-.366-1.131v1.806h.703z"/></g><g><path fill="#263238" d="M1207.43 39.161l1.001.726-.393-1.21.095-.067h-.703v.551z"/></g><g><path fill="#263238" d="M1214.006 62.55l1.023-.743 1.024.743-.394-1.204 1.03-.742h-1.272l-.388-1.204-.393 1.204h-1.266l1.024.742-.388 1.204z"/></g><g><path fill="#263238" d="M1222.572 68.889v-1.8l-.028-.079-.388 1.204h-1.266l.928.675h.754z"/></g><g><path fill="#263238" d="M1221.914 53.818l-.394 1.203 1.024-.742.028.017v-.546h-.754l.096.068z"/></g><g><path fill="#263238" d="M1208.133 68.89l.934-.675h-1.271l-.366-1.125v1.8h.703z"/></g><g><path fill="#263238" d="M1207.43 54.296l1.001.725-.393-1.203.095-.068h-.703v.546z"/></g><g><path fill="#263238" d="M1214.006 77.696l1.023-.749 1.024.749-.394-1.204 1.03-.748h-1.272l-.388-1.204-.393 1.204h-1.266l1.024.748-.388 1.204z"/></g><g><path fill="#263238" d="M1222.572 84.029v-1.806l-.028-.073-.388 1.204h-1.266l.928.675h.754z"/></g><g><path fill="#263238" d="M1221.914 68.963l-.394 1.204 1.024-.748.028.022v-.551h-.754l.096.073z"/></g><g><path fill="#263238" d="M1208.133 84.036l.934-.675h-1.271l-.366-1.131v1.806h.703z"/></g><g><path fill="#263238" d="M1207.43 69.441l1.001.726-.393-1.204.095-.073h-.703v.551z"/></g><g><path fill="#263238" d="M1214.006 92.83l1.023-.743 1.024.743-.394-1.204 1.03-.742h-1.272l-.388-1.204-.393 1.204h-1.266l1.024.742-.388 1.204z"/></g><g><path fill="#263238" d="M1222.572 99.169v-1.8l-.028-.079-.388 1.204h-1.266l.928.675h.754z"/></g><g><path fill="#263238" d="M1221.914 84.097l-.394 1.204 1.024-.742.028.017v-.546h-.754l.096.067z"/></g><g><path fill="#263238" d="M1208.133 99.17l.934-.675h-1.271l-.366-1.125v1.8h.703z"/></g><g><path fill="#263238" d="M1207.43 84.576l1.001.725-.393-1.203.095-.068h-.703v.546z"/></g><g><path fill="#263238" d="M1214.006 107.976l1.023-.749 1.024.749-.394-1.204 1.03-.748h-1.272l-.388-1.204-.393 1.204h-1.266l1.024.748-.388 1.204z"/></g><g><path fill="#263238" d="M1222.572 114.309v-1.8l-.028-.079-.388 1.204h-1.266l.928.675h.754z"/></g><g><path fill="#263238" d="M1221.914 99.243l-.394 1.204 1.024-.743.028.017v-.551h-.754l.096.073z"/></g><g><path fill="#263238" d="M1208.133 114.316l.934-.675h-1.271l-.366-1.131v1.806h.703z"/></g><g><path fill="#263238" d="M1207.43 99.721l1.001.726-.393-1.204.095-.073h-.703v.551z"/></g><g><path fill="#263238" d="M1214.006 123.11l1.023-.743 1.024.743-.394-1.204 1.03-.742h-1.272l-.388-1.204-.393 1.204h-1.266l1.024.742-.388 1.204z"/></g><g><path fill="#263238" d="M1222.572 129.449v-1.8l-.028-.079-.388 1.204h-1.266l.928.675h.754z"/></g><g><path fill="#263238" d="M1221.914 114.377l-.394 1.204 1.024-.742.028.017v-.546h-.754l.096.067z"/></g><g><path fill="#263238" d="M1208.133 129.45l.934-.675h-1.271l-.366-1.125v1.8h.703z"/></g><g><path fill="#263238" d="M1207.43 114.856l1.001.725-.393-1.204.095-.067h-.703v.546z"/></g><g><path fill="#263238" d="M1215.418 136.304l-.389-1.204-.393 1.204h-1.266l1.024.748-.388 1.204 1.023-.743 1.024.743-.394-1.204 1.03-.748h-1.271z"/></g><g><path fill="#263238" d="M1222.572 144.589v-1.8l-.028-.079-.388 1.204h-1.266l.928.675h.754z"/></g><g><path fill="#263238" d="M1222.572 129.45h-.754l.096.073-.394 1.204 1.024-.743.028.017v-.551z"/></g><g><path fill="#263238" d="M1208.133 144.59l.934-.675h-1.271l-.366-1.125v1.8h.703z"/></g><g><path fill="#263238" d="M1207.43 129.45v.551l1.001.726-.393-1.204.095-.073h-.703z"/></g><g><path fill="#263238" d="M1222.572 144.59h-.754l.096.068-.394 1.203 1.024-.742.028.017v-.546z"/></g><g><path fill="#263238" d="M1207.43 144.59v.546l1.001.725-.393-1.204.095-.067h-.703z"/></g><g><path fill="#263238" d="M1207.427 23.473v-.124h-.917l.163.124h.754z"/></g><g><path fill="#263238" d="M1192.966 23.35v.123h.028l.163-.124h-.191z"/></g><g><path fill="#263238" d="M1198.86 32.27l1.024-.743 1.023.743-.388-1.204 1.024-.742h-1.265l-.394-1.204-.388 1.204h-1.266l1.024.742-.394 1.204z"/></g><g><path fill="#263238" d="M1207.432 38.609v-1.8l-.023-.079-.393 1.204h-1.266l.928.675h.754z"/></g><g><path fill="#263238" d="M1206.682 23.47l.096.068-.388 1.203 1.024-.742.022.017v-.546h-.754z"/></g><g><path fill="#263238" d="M1193.926 37.94h-.956v.685h.028l.928-.685z"/></g><g><path fill="#263238" d="M1192.967 23.492l.028-.022h-.028v.022z"/></g><g><path fill="#263238" d="M1193.294 24.741l-.326-1.001v.765l.326.236z"/></g><g><path fill="#263238" d="M1198.86 47.416l1.024-.749 1.023.749-.388-1.21 1.024-.742h-1.265l-.394-1.204-.388 1.204h-1.266l1.024.742-.394 1.21z"/></g><g><path fill="#263238" d="M1207.432 53.749v-1.806l-.023-.073-.393 1.204h-1.266l.928.675h.754z"/></g><g><path fill="#263238" d="M1206.778 38.678l-.388 1.209 1.024-.748.022.022v-.551h-.754l.096.068z"/></g><g><path fill="#263238" d="M1193.926 53.08h-.956v.685h.028l.928-.685z"/></g><g><path fill="#263238" d="M1193.294 39.887l-.326-1.007v.77l.326.237z"/></g><g><path fill="#263238" d="M1192.967 38.633l.028-.023h-.028v.022z"/></g><g><path fill="#263238" d="M1198.86 62.55l1.024-.743 1.023.743-.388-1.204 1.024-.742h-1.265l-.394-1.204-.388 1.204h-1.266l1.024.742-.394 1.204z"/></g><g><path fill="#263238" d="M1207.432 68.889v-1.8l-.023-.079-.393 1.204h-1.266l.928.675h.754z"/></g><g><path fill="#263238" d="M1206.778 53.818l-.388 1.203 1.024-.742.022.017v-.546h-.754l.096.068z"/></g><g><path fill="#263238" d="M1193.926 68.22h-.956v.675h.028l.928-.675z"/></g><g><path fill="#263238" d="M1192.967 53.772l.028-.022h-.028v.022z"/></g><g><path fill="#263238" d="M1193.294 55.021l-.326-1.001v.765l.326.236z"/></g><g><path fill="#263238" d="M1198.86 77.696l1.024-.749 1.023.749-.388-1.204 1.024-.748h-1.265l-.394-1.204-.388 1.204h-1.266l1.024.748-.394 1.204z"/></g><g><path fill="#263238" d="M1207.432 84.029v-1.806l-.023-.073-.393 1.204h-1.266l.928.675h.754z"/></g><g><path fill="#263238" d="M1206.778 68.963l-.388 1.204 1.024-.748.022.022v-.551h-.754l.096.073z"/></g><g><path fill="#263238" d="M1193.926 83.36h-.956v.685h.028l.928-.685z"/></g><g><path fill="#263238" d="M1193.294 70.167l-.326-1.007v.77l.326.237z"/></g><g><path fill="#263238" d="M1192.967 68.912l.028-.022h-.028v.022z"/></g><g><path fill="#263238" d="M1198.86 92.83l1.024-.743 1.023.743-.388-1.204 1.024-.742h-1.265l-.394-1.204-.388 1.204h-1.266l1.024.742-.394 1.204z"/></g><g><path fill="#263238" d="M1207.432 99.169v-1.8l-.023-.079-.393 1.204h-1.266l.928.675h.754z"/></g><g><path fill="#263238" d="M1206.778 84.097l-.388 1.204 1.024-.742.022.017v-.546h-.754l.096.067z"/></g><g><path fill="#263238" d="M1193.926 98.49h-.956v.685h.028l.928-.685z"/></g><g><path fill="#263238" d="M1193.294 85.301l-.326-1.001v.765l.326.236z"/></g><g><path fill="#263238" d="M1192.967 84.052l.028-.022h-.028v.022z"/></g><g><path fill="#263238" d="M1198.86 107.976l1.024-.749 1.023.749-.388-1.204 1.024-.748h-1.265l-.394-1.204-.388 1.204h-1.266l1.024.748-.394 1.204z"/></g><g><path fill="#263238" d="M1207.432 114.309v-1.8l-.023-.079-.393 1.204h-1.266l.928.675h.754z"/></g><g><path fill="#263238" d="M1206.778 99.243l-.388 1.204 1.024-.743.022.017v-.551h-.754l.096.073z"/></g><g><path fill="#263238" d="M1193.926 113.64h-.956v.675h.028l.928-.675z"/></g><g><path fill="#263238" d="M1193.294 100.447l-.326-1.007v.77l.326.237z"/></g><g><path fill="#263238" d="M1192.967 99.192l.028-.022h-.028v.022z"/></g><g><path fill="#263238" d="M1198.86 123.11l1.024-.743 1.023.743-.388-1.204 1.024-.742h-1.265l-.394-1.204-.388 1.204h-1.266l1.024.742-.394 1.204z"/></g><g><path fill="#263238" d="M1207.432 129.449v-1.8l-.023-.079-.393 1.204h-1.266l.928.675h.754z"/></g><g><path fill="#263238" d="M1206.778 114.377l-.388 1.204 1.024-.742.022.017v-.546h-.754l.096.067z"/></g><g><path fill="#263238" d="M1193.926 128.77h-.956v.685h.028l.928-.685z"/></g><g><path fill="#263238" d="M1192.967 114.332l.028-.022h-.028v.022z"/></g><g><path fill="#263238" d="M1193.294 115.581l-.326-1.001v.765l.326.236z"/></g><g><path fill="#263238" d="M1198.86 138.256l1.024-.743 1.023.743-.388-1.204 1.024-.748h-1.265l-.394-1.204-.388 1.204h-1.266l1.024.748-.394 1.204z"/></g><g><path fill="#263238" d="M1207.432 144.589v-1.8l-.023-.079-.393 1.204h-1.266l.928.675h.754z"/></g><g><path fill="#263238" d="M1206.778 129.523l-.388 1.204 1.024-.743.022.017v-.551h-.754l.096.073z"/></g><g><path fill="#263238" d="M1193.926 143.92h-.956v.675h.028l.928-.675z"/></g><g><path fill="#263238" d="M1193.294 130.721l-.326-1.001v.765l.326.236z"/></g><g><path fill="#263238" d="M1192.967 129.472l.028-.022h-.028v.022z"/></g><g><path fill="#263238" d="M1207.436 144.59h-.754l.096.068-.388 1.203 1.024-.742.022.017v-.546z"/></g><g><path fill="#263238" d="M1192.968 144.86v.765l.326.236-.326-1.001z"/></g><g><path fill="#263238" d="M1192.967 144.59v.022l.028-.022h-.028z"/></g><g><path fill="none" stroke="#263238" stroke-linecap="round" stroke-linejoin="round" stroke-miterlimit="20" stroke-width=".56" d="M1259.11 23.35v0h34.768V148h-34.768v0z"/></g><g><path fill="#ffb76f" d="M1243.015 12.044s-10.176-5.507-14.417-9.748c-4.241-4.242-4.663 2.964-4.663 6.783 0 3.82-2.12 6.784 1.271 7.206 3.392.422 17.809-1.271 17.809-1.271z"/><path fill="none" stroke="#263238" stroke-linecap="round" stroke-linejoin="round" stroke-miterlimit="20" stroke-width=".56" d="M1243.015 12.044v0s-10.176-5.507-14.417-9.748c-4.241-4.242-4.663 2.964-4.663 6.783 0 3.82-2.12 6.784 1.271 7.206 3.392.422 17.809-1.271 17.809-1.271v0z"/></g><g><path fill="#ffb76f" d="M1246.5 12.044s10.176-5.507 14.417-9.748c4.241-4.242 4.663 2.964 4.663 6.783 0 3.82 2.12 6.784-1.271 7.206-3.392.422-17.809-1.271-17.809-1.271z"/><path fill="none" stroke="#263238" stroke-linecap="round" stroke-linejoin="round" stroke-miterlimit="20" stroke-width=".56" d="M1246.5 12.044v0s10.176-5.507 14.417-9.748c4.241-4.242 4.663 2.964 4.663 6.783 0 3.82 2.12 6.784-1.271 7.206-3.392.422-17.809-1.271-17.809-1.271v0z"/></g><g><path fill="#ffb76f" d="M1242.72 11.31h4.01v4.01h-4.01z"/><path fill="none" stroke="#263238" stroke-linecap="round" stroke-linejoin="round" stroke-miterlimit="20" stroke-width=".56" d="M1242.72 11.31v0h4.01v4.01h-4.01v0z"/></g><g><path fill="#263238" d="M1190 14.87h106.841v10.598H1190z"/><path fill="none" stroke="#263238" stroke-linecap="round" stroke-linejoin="round" stroke-miterlimit="20" stroke-width=".56" d="M1190 14.87v0h106.841v10.598H1190v0z"/></g><g><path fill="#ffb76f" d="M1213.02 14.81h12.938v133.116h-12.938z"/><path fill="none" stroke="#263238" stroke-linecap="round" stroke-linejoin="round" stroke-miterlimit="20" stroke-width=".56" d="M1213.02 14.81v0h12.938v133.116h-12.938v0z"/></g><g transform="rotate(-12.19 201 60)"><path fill="#ffb76f" d="M1230.52 53.83h21.172v12.437h-21.172z"/><path fill="none" stroke="#263238" stroke-linecap="round" stroke-linejoin="round" stroke-miterlimit="20" stroke-width=".56" d="M1230.52 53.83v0h21.172v12.437h-21.172v0z"/></g><g transform="rotate(180 163 81)"><path fill="#ffb76f" d="M1272.37 14.82h12.937v133.116h-12.937z"/><path fill="none" stroke="#263238" stroke-linecap="round" stroke-linejoin="round" stroke-miterlimit="20" stroke-width=".56" d="M1272.37 14.82v0h12.937v133.116h-12.937v0z"/></g><g><path fill="#ffb76f" d="M1225.953 14.81a19.777 19.777 0 0 0-3.235 3.65c-1.687 2.391-.984 6.61-.984 9.282 0 2.672-.844 11.531-.844 11.531l5.203-5.906s4.781 6.89 4.781 6.328V22.426a9.934 9.934 0 0 1 1.547-5.625c.844-1.265 2.953-1.969 2.953-1.969z"/><path fill="none" stroke="#263238" stroke-linecap="round" stroke-linejoin="round" stroke-miterlimit="20" stroke-width=".56" d="M1225.953 14.81a19.777 19.777 0 0 0-3.235 3.65c-1.687 2.391-.984 6.61-.984 9.282 0 2.672-.844 11.531-.844 11.531v0l5.203-5.906v0s4.781 6.89 4.781 6.328V22.426a9.934 9.934 0 0 1 1.547-5.625c.844-1.265 2.953-1.969 2.953-1.969v0z"/></g><g><path fill="#ffb76f" d="M1237.582 14.81a19.777 19.777 0 0 0-3.234 3.65c-1.687 2.391-.984 6.61-.984 9.282 0 2.672-.844 11.531-.844 11.531l5.203-5.906s4.781 6.89 4.781 6.328V22.426a9.934 9.934 0 0 1 1.547-5.625c.844-1.265 2.953-1.969 2.953-1.969z"/><path fill="none" stroke="#263238" stroke-linecap="round" stroke-linejoin="round" stroke-miterlimit="20" stroke-width=".56" d="M1237.582 14.81a19.777 19.777 0 0 0-3.234 3.65c-1.687 2.391-.984 6.61-.984 9.282 0 2.672-.844 11.531-.844 11.531v0l5.203-5.906v0s4.781 6.89 4.781 6.328V22.426a9.934 9.934 0 0 1 1.547-5.625c.844-1.265 2.953-1.969 2.953-1.969v0z"/></g></g><g><g><path fill="#fff" d="M984 104.92h82.65v42.13H984z"/><path fill="none" stroke="#263238" stroke-linecap="round" stroke-linejoin="round" stroke-miterlimit="20" d="M984 104.92v0h82.65v42.13H984v0z"/></g><g><path fill="#ffb76f" d="M1005.55 104.92h9.75v42.13h-9.75z"/><path fill="none" stroke="#263238" stroke-linecap="round" stroke-linejoin="round" stroke-miterlimit="20" d="M1005.55 104.92v0h9.75v42.13h-9.75v0z"/></g><g><path fill="#fff" d="M1038.18 104.92h28.48v42.13h-28.48z"/><path fill="none" stroke="#263238" stroke-linecap="round" stroke-linejoin="round" stroke-miterlimit="20" d="M1038.18 104.92v0h28.48v42.13h-28.48v0z"/></g><g><path fill="#fff" d="M1046.01 104.92h9.75v42.13h-9.75z"/><path fill="none" stroke="#263238" stroke-linecap="round" stroke-linejoin="round" stroke-miterlimit="20" d="M1046.01 104.92v0h9.75v42.13h-9.75v0z"/></g><g><path fill="#fff" d="M1042.73 104.92h82.65v42.13h-82.65z"/></g><g><path fill="#ffb76f" d="M1125.37 127.67v-3.74l-31.06 23.11h5.03l26.03-19.37z"/></g><g><path fill="#ffb76f" d="M1042.73 112.63v3.74l15.39-11.45h-5.02l-10.37 7.71z"/></g><g><path fill="#ffb76f" d="M1077.69 104.92h-5.03l-29.93 22.27v3.74l34.96-26.01z"/></g><g><path fill="#ffb76f" d="M1097.25 104.92h-5.02l-49.5 36.83v3.74l54.52-40.57z"/></g><g><path fill="#ffb76f" d="M1074.75 147.04h5.02l45.6-33.93v-3.74l-50.62 37.67z"/></g><g><path fill="#ffb76f" d="M1055.18 147.04h5.03l56.6-42.12h-5.02l-56.61 42.12z"/></g><g><path fill="#adc7f7" d="M1125.37 142.23v-3.74l-11.5 8.55h5.03l6.47-4.81z"/></g><g><path fill="#263238" d="M1064.27 104.92h9.75v42.13h-9.75z"/><path fill="none" stroke="#263238" stroke-linecap="round" stroke-linejoin="round" stroke-miterlimit="20" d="M1064.27 104.92v0h9.75v42.13h-9.75v0z"/></g><g><path fill="none" stroke="#263238" stroke-linecap="round" stroke-linejoin="round" stroke-miterlimit="20" d="M1096.9 104.92v0h28.48v42.13h-28.48v0z"/></g><g><path fill="#263238" d="M1104.73 104.92h9.75v42.13h-9.75z"/><path fill="none" stroke="#263238" stroke-linecap="round" stroke-linejoin="round" stroke-miterlimit="20" d="M1104.73 104.92v0h9.75v42.13h-9.75v0z"/></g><g><path fill="none" stroke="#263238" stroke-linecap="round" stroke-linejoin="round" stroke-miterlimit="20" d="M1042.73 104.92v0h82.65v42.13h-82.65v0z"/></g><g><path fill="#ffb76f" d="M1098.74 133.61h82.65v13.43h-82.65z"/><path fill="none" stroke="#263238" stroke-linecap="round" stroke-linejoin="round" stroke-miterlimit="20" d="M1098.74 133.61v0h82.65v13.43h-82.65v0z"/></g><g><path fill="#fff" d="M1120.28 133.61h9.75v13.43h-9.75z"/><path fill="none" stroke="#263238" stroke-linecap="round" stroke-linejoin="round" stroke-miterlimit="20" d="M1120.28 133.61v0h9.75v13.43h-9.75v0z"/></g><g><path fill="#ffb76f" d="M1152.91 133.61h28.48v13.43h-28.48z"/><path fill="none" stroke="#263238" stroke-linecap="round" stroke-linejoin="round" stroke-miterlimit="20" d="M1152.91 133.61v0h28.48v13.43h-28.48v0z"/></g><g><path fill="#fff" d="M1160.75 133.61h9.75v13.43h-9.75z"/><path fill="none" stroke="#263238" stroke-linecap="round" stroke-linejoin="round" stroke-miterlimit="20" d="M1160.75 133.61v0h9.75v13.43h-9.75v0z"/></g><g><path fill="none" stroke="#263238" stroke-linecap="round" stroke-linejoin="round" stroke-miterlimit="20" d="M1132.19 121.518s-5.76-15-15-12.66"/></g><g><path fill="none" stroke="#263238" stroke-linecap="round" stroke-linejoin="round" stroke-miterlimit="20" d="M1132.19 121.52s6.91-19.57 16.69-13.24"/></g><g><path fill="#ffb76f" d="M1095.36 120.37h82.65v13.43h-82.65z"/><path fill="none" stroke="#263238" stroke-linecap="round" stroke-linejoin="round" stroke-miterlimit="20" d="M1095.36 120.37v0h82.65v13.43h-82.65v0z"/></g><g><path fill="#fff" d="M1116.9 120.37h9.75v13.43h-9.75z"/><path fill="none" stroke="#263238" stroke-linecap="round" stroke-linejoin="round" stroke-miterlimit="20" d="M1116.9 120.37v0h9.75v13.43h-9.75v0z"/></g><g><path fill="#ffb76f" d="M1149.53 120.37h28.48v13.43h-28.48z"/><path fill="none" stroke="#263238" stroke-linecap="round" stroke-linejoin="round" stroke-miterlimit="20" d="M1149.53 120.37v0h28.48v13.43h-28.48v0z"/></g><g><path fill="#fff" d="M1157.37 120.37h9.75v13.43h-9.75z"/><path fill="none" stroke="#263238" stroke-linecap="round" stroke-linejoin="round" stroke-miterlimit="20" d="M1157.37 120.37v0h9.75v13.43h-9.75v0z"/></g><g><path fill="#fff" d="M1009.55 66.99h12.3v8.13h-12.3z"/><path fill="none" stroke="#263238" stroke-linecap="round" stroke-linejoin="round" stroke-miterlimit="20" d="M1009.55 66.99v0h12.3v8.13h-12.3v0z"/></g><g><path fill="#fff" d="M1014.9 76.6l-6.78-4.93-3.91 5.3 3.39 2.47 7.3-2.84z"/><path fill="none" stroke="#263238" stroke-linecap="round" stroke-linejoin="round" stroke-miterlimit="20" d="M1014.9 76.6v0l-6.78-4.93v0l-3.91 5.3v0l3.39 2.47v0l7.3-2.84v0z"/></g><g><path fill="#fff" d="M1023.69 71.31l-6.78 4.93 7.3 2.84 3.39-2.46-3.91-5.31z"/><path fill="none" stroke="#263238" stroke-linecap="round" stroke-linejoin="round" stroke-miterlimit="20" d="M1023.69 71.31v0l-6.78 4.93v0l7.3 2.84v0l3.39-2.46v0l-3.91-5.31v0z"/></g><g><path fill="#fff" d="M1020.61 73.94h-9.59l2.4 5.77h4.8l2.39-5.77z"/><path fill="none" stroke="#263238" stroke-linecap="round" stroke-linejoin="round" stroke-miterlimit="20" d="M1020.61 73.94v0h-9.59v0l2.4 5.77v0h4.8v0l2.39-5.77v0z"/></g><g><path fill="#fff" d="M1014.9 65.2l-6.78 4.93-3.91-5.31 3.39-2.46 7.3 2.84z"/><path fill="none" stroke="#263238" stroke-linecap="round" stroke-linejoin="round" stroke-miterlimit="20" d="M1014.9 65.2v0l-6.78 4.93v0l-3.91-5.31v0l3.39-2.46v0l7.3 2.84v0z"/></g><g><path fill="#fff" d="M1024.03 70.68l-6.77-4.93 7.29-2.84 3.39 2.47-3.91 5.3z"/><path fill="none" stroke="#263238" stroke-linecap="round" stroke-linejoin="round" stroke-miterlimit="20" d="M1024.03 70.68v0l-6.77-4.93v0l7.29-2.84v0l3.39 2.47v0l-3.91 5.3v0z"/></g><g><path fill="#fff" d="M1020.61 67.77h-9.59l2.4-5.77h4.8l2.39 5.77z"/><path fill="none" stroke="#263238" stroke-linecap="round" stroke-linejoin="round" stroke-miterlimit="20" d="M1020.61 67.77v0h-9.59v0l2.4-5.77v0h4.8v0l2.39 5.77v0z"/></g><g><path fill="#fff" d="M1011.23 67.37v6.97l-7.92-1.74v-3.49l7.92-1.74z"/><path fill="none" stroke="#263238" stroke-linecap="round" stroke-linejoin="round" stroke-miterlimit="20" d="M1011.23 67.37v6.97l-7.92-1.74v0-3.49 0l7.92-1.74v0z"/></g><g><path fill="#fff" d="M1020.18 67.37v6.97l7.92-1.74v-3.49l-7.92-1.74z"/><path fill="none" stroke="#263238" stroke-linecap="round" stroke-linejoin="round" stroke-miterlimit="20" d="M1020.18 67.37v6.97l7.92-1.74v0-3.49 0l-7.92-1.74v0z"/></g><g><path fill="#ffb76f" d="M985.22 72.36h62.99v32.11h-62.99z"/><path fill="none" stroke="#263238" stroke-linecap="round" stroke-linejoin="round" stroke-miterlimit="20" d="M985.22 72.36v0h62.99v32.11h-62.99v0z"/></g><g><path fill="#fff" d="M1001.64 72.36h7.43v32.11h-7.43z"/><path fill="none" stroke="#263238" stroke-linecap="round" stroke-linejoin="round" stroke-miterlimit="20" d="M1001.64 72.36v0h7.43v32.11h-7.43v0z"/></g><g><path fill="#ffb76f" d="M1026.51 72.36h21.7v32.11h-21.7z"/><path fill="none" stroke="#263238" stroke-linecap="round" stroke-linejoin="round" stroke-miterlimit="20" d="M1026.51 72.36v0h21.7v32.11h-21.7v0z"/></g><g><path fill="#fff" d="M1032.48 72.36h7.43v32.11h-7.43z"/><path fill="none" stroke="#263238" stroke-linecap="round" stroke-linejoin="round" stroke-miterlimit="20" d="M1032.48 72.36v0h7.43v32.11h-7.43v0z"/></g></g><g><g><path fill="#fff" d="M1293.71 94.11h17.56v11.6h-17.56z"/><path fill="none" stroke="#263238" stroke-linecap="round" stroke-linejoin="round" stroke-miterlimit="20" d="M1293.71 94.11v0h17.56v11.6h-17.56v0z"/></g><g><path fill="#fff" d="M1301.35 91.55l-9.68 7.04-5.57-7.57 4.83-3.52 10.42 4.05z"/><path fill="none" stroke="#263238" stroke-linecap="round" stroke-linejoin="round" stroke-miterlimit="20" d="M1301.35 91.55v0l-9.68 7.04v0l-5.57-7.57v0l4.83-3.52v0l10.42 4.05v0z"/></g><g><path fill="#fff" d="M1314.39 99.38l-9.68-7.04 10.41-4.05 4.84 3.52-5.57 7.57z"/><path fill="none" stroke="#263238" stroke-linecap="round" stroke-linejoin="round" stroke-miterlimit="20" d="M1314.39 99.38v0l-9.68-7.04v0l10.41-4.05v0l4.84 3.52v0l-5.57 7.57v0z"/></g><g><path fill="#fff" d="M1309.5 95.22h-13.68l3.42-8.22h6.84l3.42 8.22z"/><path fill="none" stroke="#263238" stroke-linecap="round" stroke-linejoin="round" stroke-miterlimit="20" d="M1309.5 95.22v0h-13.68v0l3.42-8.22v0h6.84v0l3.42 8.22v0z"/></g><g><path fill="#fff" d="M1296.11 94.65v9.95l-11.3-2.49v-4.97l11.3-2.49z"/><path fill="none" stroke="#263238" stroke-linecap="round" stroke-linejoin="round" stroke-miterlimit="20" d="M1296.11 94.65v9.95l-11.3-2.49v0-4.97 0l11.3-2.49v0z"/></g><g><path fill="#fff" d="M1308.89 94.65v9.95l11.3-2.49v-4.97l-11.3-2.49z"/><path fill="none" stroke="#263238" stroke-linecap="round" stroke-linejoin="round" stroke-miterlimit="20" d="M1308.89 94.65v9.95l11.3-2.49v0-4.97 0l-11.3-2.49v0z"/></g><g><path fill="#ffb76f" d="M1259 101.77h89.88v45.82H1259z"/><path fill="none" stroke="#263238" stroke-linecap="round" stroke-linejoin="round" stroke-miterlimit="20" d="M1259 101.77v0h89.88v45.82H1259v0z"/></g><g><path fill="#fff" d="M1282.43 101.77h10.6v45.82h-10.6z"/><path fill="none" stroke="#263238" stroke-linecap="round" stroke-linejoin="round" stroke-miterlimit="20" d="M1282.43 101.77v0h10.6v45.82h-10.6v0z"/></g><g><path fill="#ffb76f" d="M1317.92 101.77h30.97v45.82h-30.97z"/><path fill="none" stroke="#263238" stroke-linecap="round" stroke-linejoin="round" stroke-miterlimit="20" d="M1317.92 101.77v0h30.97v45.82h-30.97v0z"/></g><g><path fill="#fff" d="M1326.44 101.77h10.6v45.82h-10.6z"/><path fill="none" stroke="#263238" stroke-linecap="round" stroke-linejoin="round" stroke-miterlimit="20" d="M1326.44 101.77v0h10.6v45.82h-10.6v0z"/></g></g><g><g><path fill="none" stroke="#263238" stroke-linecap="round" stroke-linejoin="round" stroke-miterlimit="20" stroke-width="3" d="M1401.662 79.534v0s-9-21.5-18.5-20.5-12 13-4.5 16.5 23 4 23 4z"/></g><g><path fill="none" stroke="#263238" stroke-linecap="round" stroke-linejoin="round" stroke-miterlimit="20" stroke-width="3" d="M1401.66 79.535v0s5.5-21.5 16.5-20 7.36 18.5 1.86 19.5-18.36.5-18.36.5z"/></g><g><path fill="#fff" d="M1358.02 79.03h82.65v68.3h-82.65z"/></g><g><path fill="#ffb76f" d="M1417.82 134.74a279.418 279.418 0 0 0 22.84-18.26v-4.11c-7.8 7.48-16.75 14.12-24.63 20-8.08 6-14.59 10.83-17.75 15h3.95c3.44-3.61 9.4-8.03 15.59-12.63z"/></g><g><path fill="#ffb76f" d="M1380.28 97.15c-9.32 7.8-17 14.38-22.26 19.83v4.44c5.8-6.58 16-15.11 24.19-22 8.9-7.44 17.3-14.48 20.66-19a9.1 9.1 0 0 0 .89-1.39h-9c-3.33 1.87-8 4.69-14.58 8.75-7.15 4.4-15.3 9.4-22.12 13.12v3.4c7.09-3.76 15.7-9.05 23.69-14 6.58-4.05 13.83-8.51 17.77-10.48-3.71 4.34-11.27 10.67-19.24 17.33z"/></g><g><path fill="#ffb76f" d="M1440.66 122.69c-3.82 3.35-8 7.53-12.43 11.94-4.26 4.24-8.94 8.91-13.3 12.69h4.53c3.49-3.19 7.16-6.85 10.88-10.56 3.3-3.29 6.9-6.87 10.32-10z"/></g><g><path fill="#ffb76f" d="M1358.02 91.95c4.07-4 8.84-8.42 13.87-12.92h-4.44c-2.11 1.9-4.31 3.92-6.49 6l-2.94 2.79z"/></g><g><path fill="#ffb76f" d="M1440.66 99.46v-3.71c-5.3 3.84-12 8.9-20.29 15.3-17.25 13.24-39.33 30.17-52.49 36.27h6.53c11.84-6.6 28.21-18.87 47.78-33.89 5.99-4.6 12.58-9.65 18.47-13.97z"/></g><g><path fill="#ffb76f" d="M1417.83 79.08h-5c-6 4.63-14.72 12.28-27.41 23.71-9.1 8.21-20.66 18.63-27.42 23.58v3.59c5.55-3.61 14.7-11.66 29.43-24.94 10.13-9.16 23-20.76 30.4-25.94z"/></g><g><path fill="#ffb76f" d="M1423.81 82.73a31.46 31.46 0 0 0 1.54-3.65h-3.2c-.26.66-.6 1.45-1.05 2.41-7.92 16.59-28.69 32.14-45.37 44.59-8.05 6-14 10.54-17.71 14.21v4.4c3.26-4.07 11.48-10.21 19.5-16.2 16.95-12.66 38.05-28.41 46.29-45.76z"/></g><g><path fill="#263238" d="M1379.56 79.03h9.75v68.3h-9.75z"/><path fill="none" stroke="#263238" stroke-linecap="round" stroke-linejoin="round" stroke-miterlimit="20" d="M1379.56 79.03v0h9.75v68.3h-9.75v0z"/></g><g><path fill="none" stroke="#263238" stroke-linecap="round" stroke-linejoin="round" stroke-miterlimit="20" d="M1412.19 79.03v0h28.48v68.3h-28.48v0z"/></g><g><path fill="#263238" d="M1420.02 79.03h9.75v68.3h-9.75z"/><path fill="none" stroke="#263238" stroke-linecap="round" stroke-linejoin="round" stroke-miterlimit="20" d="M1420.02 79.03v0h9.75v68.3h-9.75v0z"/></g><g><path fill="none" stroke="#263238" stroke-linecap="round" stroke-linejoin="round" stroke-miterlimit="20" stroke-width="3" d="M1397.69 122.537v0-30c0-10 4-13 4-13v0s3.23-.77 5 4.7c1.77 5.47 0 26.91 0 26.91v0"/></g></g><g><path fill="none" stroke="#263238" stroke-linecap="round" stroke-linejoin="round" stroke-miterlimit="20" d="M1358 79v0h82.65v68.3H1358v0z"/></g></g></g></g></svg>