<svg xmlns="http://www.w3.org/2000/svg" width="492" height="348" viewBox="0 0 492 348"><g><g><g><g><path fill="#f9fbff" d="M458.481 266.03c28.205-44.914 30.135-104.761 10.638-152.74-16.767-41.304-54.08-72.826-97.171-91.58C321.947-.05 262.358-6.53 208.668 7.209c-14.107 3.61-27.855 6.923-41.162 12.862-54.55 24.332-43.992 84.297-63.158 105.16-16.107 17.55-46.891 12.378-66.308 25.826-52.33 36.311-22.036 129.837 34.134 163.406 65.398 39.086 316.46 62.785 386.307-48.431z"/></g></g><g><g><path fill="none" stroke="#263238" stroke-linecap="round" stroke-linejoin="round" stroke-miterlimit="20" d="M1 346.24h490"/></g></g><g><g><path fill="none" stroke="#dee8fb" stroke-linecap="round" stroke-linejoin="round" stroke-miterlimit="20" d="M51.02 250.81V128.87"/></g><g><path fill="#dee8fb" d="M50.11 239.81s-6.42-9.17-14.67-13.75-22-4.59-22-4.59 7.33 26.59 36.67 18.34z"/></g><g><path fill="#dee8fb" d="M51 239.81s6.42-9.17 14.67-13.75 22-4.59 22-4.59-7.31 26.59-36.67 18.34z"/></g><g><path fill="#dee8fb" d="M50.11 206.8s-6.42-9.17-14.67-13.75-22-4.58-22-4.58 7.33 26.58 36.67 18.33z"/></g><g><path fill="#dee8fb" d="M51 206.8s6.42-9.17 14.67-13.75 22-4.58 22-4.58S80.36 215.05 51 206.8z"/></g><g><path fill="#dee8fb" d="M50.11 173.8s-6.42-9.17-14.67-13.8c-8.25-4.63-22-4.58-22-4.58s7.33 26.63 36.67 18.38z"/></g><g><path fill="#dee8fb" d="M51 173.8s6.42-9.17 14.67-13.76 22-4.58 22-4.58S80.36 182.05 51 173.8z"/></g><g><path fill="#dee8fb" d="M50.11 140.79s-6.42-9.17-14.67-13.79c-8.25-4.62-22-4.58-22-4.58s7.33 26.58 36.67 18.37z"/></g><g><path fill="#dee8fb" d="M51 140.79s6.42-9.17 14.67-13.76 22-4.58 22-4.58S80.36 149 51 140.79z"/></g><g><path fill="#dee8fb" d="M50.996 128.87s-7.33-9.87-7.7-19.31c-.37-9.44 5.83-21.7 5.83-21.7s22.49 18.54 1.87 41.01z"/></g><g><path fill="#dee8fb" d="M32.66 248.53h35.58l-8.9 97.31H41.55l-8.89-97.31z"/></g></g><g><g><path fill="#fff" d="M188.77 93.761s-7.2-4.56-9.59-3.36c-2.39 1.2-6 4.8-6 6.72s2.64 2.16 4.08 1.44c1.44-.72 11.51-4.8 11.51-4.8z"/><path fill="none" stroke="#263238" stroke-linecap="round" stroke-linejoin="round" stroke-miterlimit="20" d="M188.77 93.761v0s-7.2-4.56-9.59-3.36c-2.39 1.2-6 4.8-6 6.72s2.64 2.16 4.08 1.44c1.44-.72 11.51-4.8 11.51-4.8z"/></g><g><path fill="#fff" d="M193.09 93.281s-7.2-4.56-9.6-3.36c-2.4 1.2-6 4.8-6 6.72s2.63 2.16 4.07 1.44c1.44-.72 11.53-4.8 11.53-4.8z"/><path fill="none" stroke="#263238" stroke-linecap="round" stroke-linejoin="round" stroke-miterlimit="20" d="M193.09 93.281v0s-7.2-4.56-9.6-3.36c-2.4 1.2-6 4.8-6 6.72s2.63 2.16 4.07 1.44c1.44-.72 11.53-4.8 11.53-4.8z"/></g><g><path fill="#fff" d="M233.413 114.643s-20.88-3.36-23.28-4.8a34.69 34.69 0 0 1-7.68-7.2c-2.64-3.12-5.76-9.84-8.88-10.56-3.12-.72-15.35 4.08-15.11 6.24.24 2.16 18 16.8 21.35 18.72 3.35 1.92 10.8 3.12 11.76 4.08.96.96 18.24 11.28 18.24 11.28z"/><path fill="none" stroke="#263238" stroke-linecap="round" stroke-linejoin="round" stroke-miterlimit="20" d="M233.413 114.643v0s-20.88-3.36-23.28-4.8a34.69 34.69 0 0 1-7.68-7.2c-2.64-3.12-5.76-9.84-8.88-10.56-3.12-.72-15.35 4.08-15.11 6.24.24 2.16 18 16.8 21.35 18.72 3.35 1.92 10.8 3.12 11.76 4.08.96.96 18.24 11.28 18.24 11.28v0z"/></g><g><path fill="#263238" d="M261.427 297.659s-17.52 22.63-34.38 31.69c-16.86 9.06-43 9.33-60.83 4.52-17.83-4.81-42-26.31-44-33.1-2-6.79 12.56-15.28 17.19-17.26 4.63-1.98 50.25.28 63.15-2.27 12.9-2.55 23.47.85 35-.84 11.53-1.69 28.83 1.13 23.87 17.26z"/><path fill="none" stroke="#263238" stroke-linecap="round" stroke-linejoin="round" stroke-miterlimit="20" d="M261.427 297.659s-17.52 22.63-34.38 31.69c-16.86 9.06-43 9.33-60.83 4.52-17.83-4.81-42-26.31-44-33.1-2-6.79 12.56-15.28 17.19-17.26 4.63-1.98 50.25.28 63.15-2.27 12.9-2.55 23.47.85 35-.84 11.53-1.69 28.83 1.13 23.87 17.26z"/></g><g><path fill="#ffb76f" d="M139.275 286.94s31.32 14.42 49.22 14.42 41.77-18.36 43.26-20.36c1.49-2 0-5-15.91-3s-49.22 4-62.65 1.49-20.88-2.49-13.92 7.45z"/><path fill="none" stroke="#263238" stroke-linecap="round" stroke-linejoin="round" stroke-miterlimit="20" d="M139.275 286.94s31.32 14.42 49.22 14.42 41.77-18.36 43.26-20.36c1.49-2 0-5-15.91-3s-49.22 4-62.65 1.49-20.88-2.49-13.92 7.45z"/></g><g><path fill="none" stroke="#263238" stroke-linecap="round" stroke-linejoin="round" stroke-miterlimit="20" d="M160.14 287.49s1.31 3.26-1 5.54"/></g><g><path fill="none" stroke="#263238" stroke-linecap="round" stroke-linejoin="round" stroke-miterlimit="20" d="M167.64 289.77c-1 0-2.28 6.52-2.28 6.52"/></g><g><path fill="none" stroke="#263238" stroke-linecap="round" stroke-linejoin="round" stroke-miterlimit="20" d="M172.525 290.75l-.97 3.58"/></g><g><path fill="none" stroke="#263238" stroke-linecap="round" stroke-linejoin="round" stroke-miterlimit="20" d="M181.97 300.52l-.32-8.14"/></g><g><path fill="none" stroke="#263238" stroke-linecap="round" stroke-linejoin="round" stroke-miterlimit="20" d="M190.61 292.45l.48 4.17"/></g><g><path fill="#dee8fb" d="M153.504 175.35s-14.08 0-19.2-1c-5.12-1-14.4-3.2-14.4-3.2l-7.67-17.28s-22.72 15.36-29.76 20.48c-7.04 5.12-5.12 18.88-2.56 25.28 2.56 6.4 13.76 7.37 26.56 7.37 12.8 0 29.75 4.47 29.75 4.47s.64 39-.64 50.24c-1.28 11.24-4.48 15.67 4.8 19.51 9.28 3.84 40.63 12.16 50.23 11.2 9.6-.96 35.52-13.12 39.68-15.68 4.16-2.56 1-10.23-1.28-15.35-2.28-5.12-11.2-56.95-11.2-56.95s45.75-48.32 50.55-57.59c4.8-9.27-3.2-20.48-7-24.64s-17.28-6.4-17.28-6.4l-16.95 24.32 5.8 5.16s-18 14-22.12 16.91c-4.12 2.91-17.92 9-24.32 9.92-6.4.92-32.99 3.23-32.99 3.23z"/><path fill="none" stroke="#263238" stroke-linecap="round" stroke-linejoin="round" stroke-miterlimit="20" d="M153.504 175.35v0s-14.08 0-19.2-1c-5.12-1-14.4-3.2-14.4-3.2v0l-7.67-17.28v0s-22.72 15.36-29.76 20.48c-7.04 5.12-5.12 18.88-2.56 25.28 2.56 6.4 13.76 7.37 26.56 7.37 12.8 0 29.75 4.47 29.75 4.47v0s.64 39-.64 50.24c-1.28 11.24-4.48 15.67 4.8 19.51 9.28 3.84 40.63 12.16 50.23 11.2 9.6-.96 35.52-13.12 39.68-15.68 4.16-2.56 1-10.23-1.28-15.35-2.28-5.12-11.2-56.95-11.2-56.95v0s45.75-48.32 50.55-57.59c4.8-9.27-3.2-20.48-7-24.64s-17.28-6.4-17.28-6.4v0l-16.95 24.32v0l5.8 5.16v0s-18 14-22.12 16.91c-4.12 2.91-17.92 9-24.32 9.92-6.4.92-32.99 3.23-32.99 3.23z"/></g><g><path fill="#ffb76f" d="M180.43 206.69a33.74 33.74 0 0 1-7.62 14.15c-6 6.53-5.44 9.8-2.18 9.8 3.26 0 19.6-6 19.6-9.8 0-3.8-9.8-14.15-9.8-14.15z"/></g><g><path fill="#ffb76f" d="M170.628 230.64a35.76 35.76 0 0 1-4.9 9.8c-3.26 4.35-8.71 8.71 3.81 7.62 12.52-1.09 26.13-12.52 24-17.42-2.13-4.9-3.26-7.08-3.26-7.08z"/></g><g><path fill="#fff" d="M190.233 217.576s-9.8 8.16-17.42 9.79c-7.62 1.63-10.89 4.36-7.62 7.08 3.27 2.72 19.59-4.35 26.13-8.71 6.54-4.36 5.98-10.89-1.09-8.16z"/></g><g><path fill="#ffb76f" d="M164.638 248.6a17 17 0 0 1-6 10.89c-5.45 4.35-8.17 10.34 4.35 10.34s30.48-2.18 36.47-12.52c5.99-10.34-5.46-19.05-5.46-19.05s-21.19 9.25-29.36 10.34z"/></g><g><path fill="#fff" d="M196.208 232.27a93.92 93.92 0 0 1-16.87 10.89c-9.8 4.9-21.23 2.72-19.59 6 1.64 3.28 1.63 4.35 17.41-1.09 15.78-5.44 19.05-7.62 21.23-11.43 2.18-3.81-2.18-4.37-2.18-4.37z"/></g><g><path fill="#fff" d="M202.751 248.596s-2.18 6.53-15.79 10.89-27.21 6-31 6c-3.79 0-6.54 3.81 1.08 6s30.49-1.63 43-8.16c12.51-6.53 8.69-16.91 2.71-14.73z"/></g><g><path fill="#263238" d="M167.91 256a3.54 3.54 0 1 1-7.08 0 3.54 3.54 0 0 1 7.08 0z"/></g><g><path fill="#263238" d="M181.25 250.78a3.54 3.54 0 1 0 0-7.08 3.54 3.54 0 0 0 0 7.08z"/></g><g><path fill="#263238" d="M168.45 240.17a3.54 3.54 0 1 0 0-7.08 3.54 3.54 0 0 0 0 7.08z"/></g><g><path fill="#263238" d="M194.58 225.47a3.54 3.54 0 1 0 0-7.08 3.54 3.54 0 0 0 0 7.08z"/></g><g><path fill="#263238" d="M183.42 202.88a3.54 3.54 0 1 1-7.08 0 3.54 3.54 0 0 1 7.08 0z"/></g><g><path fill="#263238" d="M203 238.53a3.54 3.54 0 1 1-7.08 0 3.54 3.54 0 0 1 7.08 0z"/></g><g><path fill="#263238" d="M203.83 264.12a3.54 3.54 0 1 0 0-7.08 3.54 3.54 0 0 0 0 7.08z"/></g><g><path fill="#263238" d="M185.87 272.83a3.54 3.54 0 1 0 0-7.08 3.54 3.54 0 0 0 0 7.08z"/></g><g><path fill="#263238" d="M168.18 272a3.54 3.54 0 1 1-7.08 0 3.54 3.54 0 0 1 7.08 0z"/></g><g><path fill="none" stroke="#263238" stroke-linecap="round" stroke-linejoin="round" stroke-miterlimit="20" d="M119.61 175.66l-15.87 17.52"/></g><g><path fill="none" stroke="#263238" stroke-linecap="round" stroke-linejoin="round" stroke-miterlimit="20" d="M116.96 178.96l-7.27 17.2"/></g><g><path fill="#263238" d="M136.22 211.5l-10.33-13.69 3.54 11.7 6.79 1.99z"/><path fill="none" stroke="#263238" stroke-linecap="round" stroke-linejoin="round" stroke-miterlimit="20" d="M136.22 211.5v0l-10.33-13.69v0l3.54 11.7v0l6.79 1.99v0z"/></g><g><path fill="#263238" d="M217.81 204.47l-.35-20.88 3.39 17.49-3.04 3.39z"/><path fill="none" stroke="#263238" stroke-linecap="round" stroke-linejoin="round" stroke-miterlimit="20" d="M217.81 204.47v0l-.35-20.88v0l3.39 17.49v0l-3.04 3.39v0z"/></g><g><path fill="none" stroke="#263238" stroke-linecap="round" stroke-linejoin="round" stroke-miterlimit="20" d="M233.49 146.56v0s5.46 6.62 10.09 8.93c4.63 2.31 14.22-3 15.54-6.61"/></g><g><path fill="none" stroke="#263238" stroke-linecap="round" stroke-linejoin="round" stroke-miterlimit="20" d="M235 151.53s6.61 10.57 11.57 10.24"/></g><g><path fill="#ffb76f" d="M193.807 101.915s-28.81-15.6-34.31-16.08c-5.5-.48-19 10.32-26.64 17.28-7.64 6.96-10.56 15.84-9.6 21.6.96 5.76 4.32 27.59 4.32 27.59s3.12 1 4.8.24c1.68-.76 3.6-13.91 4.56-16.31.96-2.4 6.72-6.24 6.72-6.24z"/><path fill="none" stroke="#263238" stroke-linecap="round" stroke-linejoin="round" stroke-miterlimit="20" d="M193.807 101.915v0s-28.81-15.6-34.31-16.08c-5.5-.48-19 10.32-26.64 17.28-7.64 6.96-10.56 15.84-9.6 21.6.96 5.76 4.32 27.59 4.32 27.59v0s3.12 1 4.8.24c1.68-.76 3.6-13.91 4.56-16.31.96-2.4 6.72-6.24 6.72-6.24v0z"/></g><g><path fill="#ffb76f" d="M159.26 161.19s-5.76-.24-5.76 1.44-1.2 12-1.2 14.64c0 2.64 5.52 12.72 19 13.2 13.48.48 20.15-5.28 21.83-9.36 1.68-4.08.72-8.88.24-11l-.48-2.16s-19.43-2.88-24.23-5a20.09 20.09 0 0 0-9.4-1.76z"/><path fill="none" stroke="#263238" stroke-linecap="round" stroke-linejoin="round" stroke-miterlimit="20" d="M159.26 161.19s-5.76-.24-5.76 1.44-1.2 12-1.2 14.64c0 2.64 5.52 12.72 19 13.2 13.48.48 20.15-5.28 21.83-9.36 1.68-4.08.72-8.88.24-11l-.48-2.16v0s-19.43-2.88-24.23-5a20.09 20.09 0 0 0-9.4-1.76z"/></g><g><path fill="#fff" d="M158.3 153.75v15.36s7.68 7.92 18.72 7c11.04-.92 14.15-5.52 14.15-5.52l.24-3.84z"/><path fill="none" stroke="#263238" stroke-linecap="round" stroke-linejoin="round" stroke-miterlimit="20" d="M158.3 153.75v15.36s7.68 7.92 18.72 7c11.04-.92 14.15-5.52 14.15-5.52v0l.24-3.84v0z"/></g><g><path fill="#263238" d="M191.41 166.71l-33.11-13v10.42c8.83 8.22 20.36 13.22 31.26 5.26l1.77-1.32z"/><path fill="none" stroke="#263238" stroke-linecap="round" stroke-linejoin="round" stroke-miterlimit="20" d="M191.41 166.71v0l-33.11-13v10.42c8.83 8.22 20.36 13.22 31.26 5.26l1.77-1.32v0z"/></g><g><path fill="none" stroke="#263238" stroke-linecap="round" stroke-linejoin="round" stroke-miterlimit="20" d="M158.51 171.18a14 14 0 0 0-1 4.89v6.51"/></g><g><path fill="none" stroke="#263238" stroke-linecap="round" stroke-linejoin="round" stroke-miterlimit="20" d="M160.47 176.39v8.47"/></g><g><path fill="none" stroke="#263238" stroke-linecap="round" stroke-linejoin="round" stroke-miterlimit="20" d="M164.05 176.07v10.1"/></g><g><path fill="none" stroke="#263238" stroke-linecap="round" stroke-linejoin="round" stroke-miterlimit="20" d="M167.31 181.61v5.86"/></g><g><path fill="none" stroke="#263238" stroke-linecap="round" stroke-linejoin="round" stroke-miterlimit="20" d="M156.89 166.62v0s-2.29 1.95-2.29 2.93v5.87"/></g><g><path fill="#fff" d="M201.49 121.36c.9 8.33 4 16.77 5.75 25 2.15 10.15-4.88 16.76-12.47 22.3-16.12 11.78-33.64-4.83-41.75-18.24-1.73-2.86-3.36-7.67-3.36-9.11 0-1.44.48-13 14.4-19.68s20.15-8.4 26.87-8.64c6.72-.24 9.6-.51 10.56 8.37z"/><path fill="none" stroke="#263238" stroke-linecap="round" stroke-linejoin="round" stroke-miterlimit="20" d="M201.49 121.36c.9 8.33 4 16.77 5.75 25 2.15 10.15-4.88 16.76-12.47 22.3-16.12 11.78-33.64-4.83-41.75-18.24-1.73-2.86-3.36-7.67-3.36-9.11 0-1.44.48-13 14.4-19.68s20.15-8.4 26.87-8.64c6.72-.24 9.6-.51 10.56 8.37z"/></g><g><path fill="#fff" d="M156.54 145.434s-6.31-3.31-9-.3c-2.69 3.01-1.21 9.92 3.9 12.62a8.66 8.66 0 0 0 10.22-1.5"/><path fill="none" stroke="#263238" stroke-linecap="round" stroke-linejoin="round" stroke-miterlimit="20" d="M156.54 145.434v0s-6.31-3.31-9-.3c-2.69 3.01-1.21 9.92 3.9 12.62a8.66 8.66 0 0 0 10.22-1.5"/></g><g><path fill="#263238" d="M163.82 128.8s-1.68 7.2.24 11.28a12.75 12.75 0 0 0 5.52 5.76s-4.56 1.43-5.52.72a21.07 21.07 0 0 1-1.92-1.68 6.19 6.19 0 0 0 2.4 3.83 36.378 36.378 0 0 0 3.84 2.64s-3.12 1.2-5.52-.24a35.898 35.898 0 0 1-3.6-2.4l2.64 4.08a35 35 0 0 1-5.28-2.16 16.81 16.81 0 0 1-2.16-2.16v3.6c0 .72-1.68-7.67-2.4-9.11-.72-1.44 11.76-14.16 11.76-14.16z"/><path fill="none" stroke="#263238" stroke-linecap="round" stroke-linejoin="round" stroke-miterlimit="20" d="M163.82 128.8v0s-1.68 7.2.24 11.28a12.75 12.75 0 0 0 5.52 5.76s-4.56 1.43-5.52.72a21.07 21.07 0 0 1-1.92-1.68 6.19 6.19 0 0 0 2.4 3.83 36.378 36.378 0 0 0 3.84 2.64s-3.12 1.2-5.52-.24a35.898 35.898 0 0 1-3.6-2.4l2.64 4.08a35 35 0 0 1-5.28-2.16 16.81 16.81 0 0 1-2.16-2.16v3.6c0 .72-1.68-7.67-2.4-9.11-.72-1.44 11.76-14.16 11.76-14.16z"/></g><g><path fill="none" stroke="#263238" stroke-linecap="round" stroke-linejoin="round" stroke-miterlimit="20" d="M191.41 129.76v0s.72 4.8 1.68 5.28c.96.48 7.2-.24 7.2 2.88s-4.56 4.32-4.56 4.32v0"/></g><g><path fill="none" stroke="#263238" stroke-linecap="round" stroke-linejoin="round" stroke-miterlimit="20" d="M197.89 147v0s-6 4.56-13.2 3.12c-7.2-1.44-8.15-4.55-8.15-4.55v0"/></g><g><path fill="none" stroke="#263238" stroke-linecap="round" stroke-linejoin="round" stroke-miterlimit="20" d="M178.22 144.16l-3.36 2.87"/></g><g><path fill="#263238" d="M178.27 147.72a99.001 99.001 0 0 0 5.94 10.11c2.88 4.08 5.52 3.36 6.48.72.96-2.64.08-8.32.08-8.32s-5.77 1.57-12.5-2.51z"/><path fill="none" stroke="#263238" stroke-linecap="round" stroke-linejoin="round" stroke-miterlimit="20" d="M178.27 147.72a99.001 99.001 0 0 0 5.94 10.11c2.88 4.08 5.52 3.36 6.48.72.96-2.64.08-8.32.08-8.32v0s-5.77 1.57-12.5-2.51z"/></g><g><path fill="#263238" d="M184.888 133.26c.44 1.53.28 2.92-.36 3.1-.64.18-1.51-.9-1.95-2.43-.44-1.53-.28-2.92.36-3.1.64-.18 1.51.91 1.95 2.43z"/><path fill="none" stroke="#263238" stroke-linecap="round" stroke-linejoin="round" stroke-miterlimit="20" d="M184.888 133.26c.44 1.53.28 2.92-.36 3.1-.64.18-1.51-.9-1.95-2.43-.44-1.53-.28-2.92.36-3.1.64-.18 1.51.91 1.95 2.43z"/></g><g><path fill="#263238" d="M196.648 129.43c.44 1.52.28 2.91-.36 3.09-.64.18-1.51-.9-1.95-2.43-.44-1.53-.28-2.92.36-3.1.64-.18 1.5.91 1.95 2.44z"/><path fill="none" stroke="#263238" stroke-linecap="round" stroke-linejoin="round" stroke-miterlimit="20" d="M196.648 129.43c.44 1.52.28 2.91-.36 3.09-.64.18-1.51-.9-1.95-2.43-.44-1.53-.28-2.92.36-3.1.64-.18 1.5.91 1.95 2.44z"/></g><g><path fill="none" stroke="#263238" stroke-linecap="round" stroke-linejoin="round" stroke-miterlimit="20" d="M174.86 130s1.44-5.76 9.35-6.24"/></g><g><path fill="none" stroke="#263238" stroke-linecap="round" stroke-linejoin="round" stroke-miterlimit="20" d="M191.17 123.278s3.12-3.84 8.16-.48"/></g><g><path fill="#fff" d="M147.995 147.004l17.76-17.27c8.88-8.64 18.71-10.56 26.39-12.24 7.68-1.68 7.68-.48 7.68-.48l1.68 4.32a13.37 13.37 0 0 0 3.36-1.92c1.44-1.2-.48-6-1.68-8.64-1.2-2.64-5.52-9.36-7.2-10.8-1.68-1.44-9.12-.24-20.15 3.36-11.03 3.6-22.84 15.87-27.38 19.95-4.54 4.08-8.64 8.4-8.88 11.52-.24 3.12 2.4 7.2 3.6 10.08 1.2 2.88 1.44 3.12 4.82 2.12z"/><path fill="none" stroke="#263238" stroke-linecap="round" stroke-linejoin="round" stroke-miterlimit="20" d="M147.995 147.004l17.76-17.27c8.88-8.64 18.71-10.56 26.39-12.24 7.68-1.68 7.68-.48 7.68-.48v0l1.68 4.32a13.37 13.37 0 0 0 3.36-1.92c1.44-1.2-.48-6-1.68-8.64-1.2-2.64-5.52-9.36-7.2-10.8-1.68-1.44-9.12-.24-20.15 3.36-11.03 3.6-22.84 15.87-27.38 19.95-4.54 4.08-8.64 8.4-8.88 11.52-.24 3.12 2.4 7.2 3.6 10.08 1.2 2.88 1.44 3.12 4.82 2.12z"/></g><g><path fill="#fff" d="M124.9 148.945l17.83-16.79s1-14.31 1.45-16.59c.45-2.28 3.32-3.94 3.94-6.22.62-2.28 1.66-2.9 2.49-3.11.83-.21 1 1.87 1 1.87s8.71-6.64 11.41-8.5c2.7-1.86 3.94-1.45 4.56-1 .62.45.21 1.66.21 1.66s6-4.56 7.87-3.11c1.87 1.45 1 3.11-2.07 5-3.07 1.89-9.33 7.46-10.16 8.7a11.7 11.7 0 0 0-1.24 2.49s10.36-4.14 13.06-5.39c2.7-1.25 5.39-1.86 5.8-.62.41 1.24-.2 2.69-2.48 3.94s-9.75 4.77-10.37 5.18c-.467.304-.951.58-1.45.83 0 0 7.25-.21 8.91 0 1.66.21 5.81-.62 5.19 1-.62 1.62-.63 1.66-3.32 2.28-2.69.62-10.78 1.24-10.78 1.24s-5 8.92-7.26 11.61c-2.26 2.69-7.25 5.39-7.88 6-.63.61-20.52 24.05-20.52 24.05z"/><path fill="none" stroke="#263238" stroke-linecap="round" stroke-linejoin="round" stroke-miterlimit="20" d="M124.9 148.945v0l17.83-16.79v0s1-14.31 1.45-16.59c.45-2.28 3.32-3.94 3.94-6.22.62-2.28 1.66-2.9 2.49-3.11.83-.21 1 1.87 1 1.87v0s8.71-6.64 11.41-8.5c2.7-1.86 3.94-1.45 4.56-1 .62.45.21 1.66.21 1.66v0s6-4.56 7.87-3.11c1.87 1.45 1 3.11-2.07 5-3.07 1.89-9.33 7.46-10.16 8.7a11.7 11.7 0 0 0-1.24 2.49s10.36-4.14 13.06-5.39c2.7-1.25 5.39-1.86 5.8-.62.41 1.24-.2 2.69-2.48 3.94s-9.75 4.77-10.37 5.18c-.467.304-.951.58-1.45.83 0 0 7.25-.21 8.91 0 1.66.21 5.81-.62 5.19 1-.62 1.62-.63 1.66-3.32 2.28-2.69.62-10.78 1.24-10.78 1.24v0s-5 8.92-7.26 11.61c-2.26 2.69-7.25 5.39-7.88 6-.63.61-20.52 24.05-20.52 24.05v0z"/></g><g><path fill="none" stroke="#263238" stroke-linecap="round" stroke-linejoin="round" stroke-miterlimit="20" d="M167.82 100.22s-9.33 5.6-11 8.71"/></g><g><path fill="none" stroke="#263238" stroke-linecap="round" stroke-linejoin="round" stroke-miterlimit="20" d="M151.64 108.1s-2.9 4.77-3.52 7.46"/></g><g><path fill="#263238" d="M236.81 275.858l-1.81 1.14c-8.36 5.24-43.49 27.18-51.83 30.67-9.47 4-15.27 6.25-15.27 6.25l15.88 21.43s1.8-.68 20.64-2.58 50.27-21 62.25-31.2c11.98-10.2 15.19-20.39 10.46-29.33-4.73-8.94-23.08-8-28-5.17a129.061 129.061 0 0 0-12.32 8.79z"/><path fill="none" stroke="#263238" stroke-linecap="round" stroke-linejoin="round" stroke-miterlimit="20" d="M236.81 275.858v0l-1.81 1.14c-8.36 5.24-43.49 27.18-51.83 30.67-9.47 4-15.27 6.25-15.27 6.25v0l15.88 21.43v0s1.8-.68 20.64-2.58 50.27-21 62.25-31.2c11.98-10.2 15.19-20.39 10.46-29.33-4.73-8.94-23.08-8-28-5.17a129.061 129.061 0 0 0-12.32 8.79z"/></g><g><path fill="#ffb76f" d="M137.816 316.752s-12.74-2-17.27-1.17c-4.53.83-1.56 8.45.17 15.49 1.73 7.04 8.95 13.42 15.45 14.62 6.5 1.2 16.57-2.32 21.33-4.46 4.76-2.14-19.68-24.48-19.68-24.48z"/><path fill="none" stroke="#263238" stroke-linecap="round" stroke-linejoin="round" stroke-miterlimit="20" d="M137.816 316.752v0s-12.74-2-17.27-1.17c-4.53.83-1.56 8.45.17 15.49 1.73 7.04 8.95 13.42 15.45 14.62 6.5 1.2 16.57-2.32 21.33-4.46 4.76-2.14-19.68-24.48-19.68-24.48z"/></g><g><path fill="#fff" d="M136.172 345.69a23.72 23.72 0 0 0 8.36-.32c-4.4-1.43-9.88-4.16-13.62-9.39-5.21-7.26-7.13-16.19-7.8-20.61a16.3 16.3 0 0 0-2.56.21c-4.52.84-1.56 8.45.17 15.49 1.73 7.04 8.95 13.42 15.45 14.62z"/><path fill="none" stroke="#263238" stroke-linecap="round" stroke-linejoin="round" stroke-miterlimit="20" d="M136.172 345.69a23.72 23.72 0 0 0 8.36-.32c-4.4-1.43-9.88-4.16-13.62-9.39-5.21-7.26-7.13-16.19-7.8-20.61a16.3 16.3 0 0 0-2.56.21c-4.52.84-1.56 8.45.17 15.49 1.73 7.04 8.95 13.42 15.45 14.62z"/></g><g><path fill="#fff" d="M195.36 343.585s35 3.93 45.45 2.41c10.45-1.52 22.77.37 28-2.73s1.78-20-2.16-24.07c-3.94-4.07-15.33.22-22.29 2.9-6.96 2.68-27.34 5-34.36 5a68.49 68.49 0 0 1-11.13-.72l-6.68 18.35z"/><path fill="none" stroke="#263238" stroke-linecap="round" stroke-linejoin="round" stroke-miterlimit="20" d="M195.36 343.585v0s35 3.93 45.45 2.41c10.45-1.52 22.77.37 28-2.73s1.78-20-2.16-24.07c-3.94-4.07-15.33.22-22.29 2.9-6.96 2.68-27.34 5-34.36 5a68.49 68.49 0 0 1-11.13-.72l-6.68 18.35v0z"/></g><g><path fill="#dee8fb" d="M244.36 322.102a60.63 60.63 0 0 1-10.31 2.46 16.05 16.05 0 0 0-1.21 12.58 15 15 0 0 0 7.11 9l.86-.11c10.47-1.52 22.77.37 28-2.73s1.78-20-2.16-24.07c-3.94-4.07-15.33.19-22.29 2.87z"/><path fill="none" stroke="#263238" stroke-linecap="round" stroke-linejoin="round" stroke-miterlimit="20" d="M244.36 322.102a60.63 60.63 0 0 1-10.31 2.46 16.05 16.05 0 0 0-1.21 12.58 15 15 0 0 0 7.11 9l.86-.11c10.47-1.52 22.77.37 28-2.73s1.78-20-2.16-24.07c-3.94-4.07-15.33.19-22.29 2.87z"/></g><g><path fill="#fff" d="M266.65 319.2c-2.11-2.21-6.38-2-11-.87 1.9.52 8.41 3 10.66 12.6 1.62 6.92-1.11 11.46-3.47 13.95a15.33 15.33 0 0 0 5.93-1.61c5.23-3.1 1.82-19.97-2.12-24.07z"/><path fill="none" stroke="#263238" stroke-linecap="round" stroke-linejoin="round" stroke-miterlimit="20" d="M266.65 319.2c-2.11-2.21-6.38-2-11-.87 1.9.52 8.41 3 10.66 12.6 1.62 6.92-1.11 11.46-3.47 13.95a15.33 15.33 0 0 0 5.93-1.61c5.23-3.1 1.82-19.97-2.12-24.07z"/></g><g><path fill="#263238" d="M101.933 314.403c11.37 4.7 42.45 20.89 56.31 28.9a226.98 226.98 0 0 0 5.36 3h31.25a61.142 61.142 0 0 0 5.78-7.8c4.85-8.06 1.87-19.32 1.87-19.32s-35.75-13.84-53.59-24c-17.84-10.16-26.46-18.87-38.9-21.74-12.44-2.87-21.34 9.45-24.31 18.9-2.97 9.45 4.85 17.37 16.23 22.06z"/><path fill="none" stroke="#263238" stroke-linecap="round" stroke-linejoin="round" stroke-miterlimit="20" d="M101.933 314.403c11.37 4.7 42.45 20.89 56.31 28.9a226.98 226.98 0 0 0 5.36 3h31.25a61.142 61.142 0 0 0 5.78-7.8c4.85-8.06 1.87-19.32 1.87-19.32v0s-35.75-13.84-53.59-24c-17.84-10.16-26.46-18.87-38.9-21.74-12.44-2.87-21.34 9.45-24.31 18.9-2.97 9.45 4.85 17.37 16.23 22.06z"/></g><g><path fill="#ffb76f" d="M126.768 142.929s12.64 17 13.06 18.45a3.17 3.17 0 0 1-1.25 3.94c-1.65 1.24-14.51 11.4-16.79 11.4-2.28 0-15.55-18.66-16.17-20.32-.62-1.66.62-2.9 1.45-3.73.83-.83 16.17-10.16 17.21-10.78 1.04-.62 2.49 1.04 2.49 1.04z"/><path fill="none" stroke="#263238" stroke-linecap="round" stroke-linejoin="round" stroke-miterlimit="20" d="M126.768 142.929v0s12.64 17 13.06 18.45a3.17 3.17 0 0 1-1.25 3.94c-1.65 1.24-14.51 11.4-16.79 11.4-2.28 0-15.55-18.66-16.17-20.32-.62-1.66.62-2.9 1.45-3.73.83-.83 16.17-10.16 17.21-10.78 1.04-.62 2.49 1.04 2.49 1.04z"/></g><g><path fill="none" stroke="#263238" stroke-linecap="round" stroke-linejoin="round" stroke-miterlimit="20" d="M126.77 142.93l-16.47 10.98"/></g><g><path fill="none" stroke="#263238" stroke-linecap="round" stroke-linejoin="round" stroke-miterlimit="20" d="M124.9 148.94l-12.32 7.91"/></g><g><path fill="none" stroke="#263238" stroke-linecap="round" stroke-linejoin="round" stroke-miterlimit="20" d="M113.23 163.04l15.64-10.1"/></g><g><path fill="none" stroke="#263238" stroke-linecap="round" stroke-linejoin="round" stroke-miterlimit="20" d="M115.18 169.55l7.17-4.56"/></g><g><path fill="#ffb76f" d="M232 112.06a.85.85 0 0 0-.38.45c-1.91 3.38-.11 6.78-4.26 12.82-6.54 9.52-5.19 12.35-4 13.87 1.19 1.52 7 5.55 9.76 5.55s9.18-4.55 12.88-13.35c3.7-8.8 3.65-14.27 1.83-15.78-1.24-1-6.84-2.76-10.3-3.77a8.75 8.75 0 0 0-5.47.21z"/><path fill="none" stroke="#263238" stroke-linecap="round" stroke-linejoin="round" stroke-miterlimit="20" d="M232 112.06a.85.85 0 0 0-.38.45c-1.91 3.38-.11 6.78-4.26 12.82-6.54 9.52-5.19 12.35-4 13.87 1.19 1.52 7 5.55 9.76 5.55s9.18-4.55 12.88-13.35c3.7-8.8 3.65-14.27 1.83-15.78-1.24-1-6.84-2.76-10.3-3.77a8.75 8.75 0 0 0-5.47.21z"/></g><g><path fill="none" stroke="#263238" stroke-linecap="round" stroke-linejoin="round" stroke-miterlimit="20" d="M223.67 135.99l12.06 5.87"/></g><g><path fill="none" stroke="#263238" stroke-linecap="round" stroke-linejoin="round" stroke-miterlimit="20" d="M229.21 134.04l9.13 4.89"/></g><g><path fill="none" stroke="#263238" stroke-linecap="round" stroke-linejoin="round" stroke-miterlimit="20" d="M227.91 130.13l13.68 5.86"/></g><g><path fill="none" stroke="#263238" stroke-linecap="round" stroke-linejoin="round" stroke-miterlimit="20" d="M237.03 130.78l6.84 1.96"/></g></g><g><g><path fill="#fff" d="M281.03 124.64h179.39v221.6H281.03z"/><path fill="none" stroke="#263238" stroke-linecap="round" stroke-linejoin="round" stroke-miterlimit="20" d="M281.03 124.64v0h179.39v221.6H281.03v0z"/></g><g><path fill="#263238" d="M442.57 124.86l.3-.22h-1.55v.22h1.25z"/></g><g><path fill="#263238" d="M455.51 137.04l-.7-2.14-.69 2.14h-2.25l1.82 1.32-.7 2.14 1.82-1.32 1.83 1.32-.7-2.14 1.82-1.32h-2.25z"/></g><g><path fill="#263238" d="M441.32 151.77h1.25l1.65-1.2h-2.25l-.65-2v3.2z"/></g><g><path fill="#263238" d="M441.32 124.86v.97l1.78 1.29-.7-2.14.17-.12h-1.25z"/></g><g><path fill="#263238" d="M455.51 163.95l-.7-2.14-.69 2.14h-2.25l1.82 1.32-.7 2.15 1.82-1.33 1.83 1.33-.7-2.15 1.82-1.32h-2.25z"/></g><g><path fill="#263238" d="M441.32 178.69h1.25l1.65-1.2h-2.25l-.65-2.01v3.21z"/></g><g><path fill="#263238" d="M441.32 151.77v.98l1.78 1.29-.7-2.15.17-.12h-1.25z"/></g><g><path fill="#263238" d="M455.51 190.87l-.7-2.14-.69 2.14h-2.25l1.82 1.32-.7 2.14 1.82-1.32 1.83 1.32-.7-2.14 1.82-1.32h-2.25z"/></g><g><path fill="#263238" d="M441.32 205.6h1.25l1.65-1.2h-2.25l-.65-2v3.2z"/></g><g><path fill="#263238" d="M441.32 178.69v.97l1.78 1.29-.7-2.14.17-.12h-1.25z"/></g><g><path fill="#263238" d="M455.51 217.78l-.7-2.14-.69 2.14h-2.25l1.82 1.33-.7 2.14 1.82-1.33 1.83 1.33-.7-2.14 1.82-1.33h-2.25z"/></g><g><path fill="#263238" d="M441.32 232.52h1.25l1.65-1.2h-2.25l-.65-2.01v3.21z"/></g><g><path fill="#263238" d="M441.32 205.6v.98l1.78 1.29-.7-2.14.17-.13h-1.25z"/></g><g><path fill="#263238" d="M455.51 244.7l-.7-2.14-.69 2.14h-2.25l1.82 1.32-.7 2.14 1.82-1.32 1.83 1.32-.7-2.14 1.82-1.32h-2.25z"/></g><g><path fill="#263238" d="M441.32 259.43h1.25l1.65-1.2h-2.25l-.65-2v3.2z"/></g><g><path fill="#263238" d="M441.32 232.52v.97l1.78 1.29-.7-2.14.17-.12h-1.25z"/></g><g><path fill="#263238" d="M455.51 271.61l-.7-2.14-.69 2.14h-2.25l1.82 1.33-.7 2.14 1.82-1.33 1.83 1.33-.7-2.14 1.82-1.33h-2.25z"/></g><g><path fill="#263238" d="M441.32 286.35h1.25l1.65-1.2h-2.25l-.65-2.01v3.21z"/></g><g><path fill="#263238" d="M441.32 259.43v.98l1.78 1.29-.7-2.14.17-.13h-1.25z"/></g><g><path fill="#263238" d="M455.51 298.53l-.7-2.14-.69 2.14h-2.25l1.82 1.32-.7 2.14 1.82-1.32 1.83 1.32-.7-2.14 1.82-1.32h-2.25z"/></g><g><path fill="#263238" d="M441.32 313.26h1.25l1.65-1.2h-2.25l-.65-2v3.2z"/></g><g><path fill="#263238" d="M441.32 286.35v.97l1.78 1.29-.7-2.14.17-.12h-1.25z"/></g><g><path fill="#263238" d="M455.51 325.44l-.7-2.14-.69 2.14h-2.25l1.82 1.33-.7 2.14 1.82-1.32 1.83 1.32-.7-2.14 1.82-1.33h-2.25z"/></g><g><path fill="#263238" d="M444.22 338.98h-2.25l-.65-2v3.2h1.25l1.65-1.2z"/></g><g><path fill="#263238" d="M441.32 313.26v.98l1.78 1.29-.7-2.14.17-.13h-1.25z"/></g><g><path fill="#263238" d="M441.32 340.18v.97l1.78 1.29-.7-2.14.17-.12h-1.25z"/></g><g><path fill="#263238" d="M441.32 124.86v-.22h-1.63l.29.22h1.34z"/></g><g><path fill="#263238" d="M415.65 124.86l.3-.22h-1.54v.22h1.24z"/></g><g><path fill="#263238" d="M428.6 137.04l-.7-2.14-.7 2.14h-2.25l1.82 1.32-.69 2.14 1.82-1.32 1.82 1.32-.69-2.14 1.82-1.32h-2.25z"/></g><g><path fill="#263238" d="M438.33 150.57l1.65 1.2h1.34v-3.2l-.04-.14-.7 2.14h-2.25z"/></g><g><path fill="#263238" d="M441.32 124.86h-1.34l.17.12-.7 2.14 1.83-1.32.04.03v-.97z"/></g><g><path fill="#263238" d="M414.41 151.77h1.24l1.66-1.2h-2.25l-.65-2v3.2z"/></g><g><path fill="#263238" d="M414.41 124.86v.97l1.77 1.29-.69-2.14.16-.12h-1.24z"/></g><g><path fill="#263238" d="M428.6 163.95l-.7-2.14-.7 2.14h-2.25l1.82 1.32-.69 2.15 1.82-1.33 1.82 1.33-.69-2.15 1.82-1.32h-2.25z"/></g><g><path fill="#263238" d="M438.33 177.49l1.65 1.2h1.34v-3.21l-.04-.13-.7 2.14h-2.25z"/></g><g><path fill="#263238" d="M441.32 151.77h-1.34l.17.12-.7 2.15 1.83-1.33.04.04v-.98z"/></g><g><path fill="#263238" d="M414.41 178.69h1.24l1.66-1.2h-2.25l-.65-2.01v3.21z"/></g><g><path fill="#263238" d="M414.41 151.77v.98l1.77 1.29-.69-2.15.16-.12h-1.24z"/></g><g><path fill="#263238" d="M428.6 190.87l-.7-2.14-.7 2.14h-2.25l1.82 1.32-.69 2.14 1.82-1.32 1.82 1.32-.69-2.14 1.82-1.32h-2.25z"/></g><g><path fill="#263238" d="M438.33 204.4l1.65 1.2h1.34v-3.2l-.04-.14-.7 2.14h-2.25z"/></g><g><path fill="#263238" d="M441.32 178.69h-1.34l.17.12-.7 2.14 1.83-1.32.04.03v-.97z"/></g><g><path fill="#263238" d="M414.41 205.6h1.24l1.66-1.2h-2.25l-.65-2v3.2z"/></g><g><path fill="#263238" d="M414.41 178.69v.97l1.77 1.29-.69-2.14.16-.12h-1.24z"/></g><g><path fill="#263238" d="M428.6 217.78l-.7-2.14-.7 2.14h-2.25l1.82 1.33-.69 2.14 1.82-1.33 1.82 1.33-.69-2.14 1.82-1.33h-2.25z"/></g><g><path fill="#263238" d="M438.33 231.32l1.65 1.2h1.34v-3.21l-.04-.13-.7 2.14h-2.25z"/></g><g><path fill="#263238" d="M441.32 205.6h-1.34l.17.13-.7 2.14 1.83-1.33.04.04v-.98z"/></g><g><path fill="#263238" d="M414.41 232.52h1.24l1.66-1.2h-2.25l-.65-2.01v3.21z"/></g><g><path fill="#263238" d="M414.41 205.6v.98l1.77 1.29-.69-2.14.16-.13h-1.24z"/></g><g><path fill="#263238" d="M428.6 244.7l-.7-2.14-.7 2.14h-2.25l1.82 1.32-.69 2.14 1.82-1.32 1.82 1.32-.69-2.14 1.82-1.32h-2.25z"/></g><g><path fill="#263238" d="M438.33 258.23l1.65 1.2h1.34v-3.2l-.04-.14-.7 2.14h-2.25z"/></g><g><path fill="#263238" d="M441.32 232.52h-1.34l.17.12-.7 2.14 1.83-1.32.04.03v-.97z"/></g><g><path fill="#263238" d="M414.41 259.43h1.24l1.66-1.2h-2.25l-.65-2v3.2z"/></g><g><path fill="#263238" d="M414.41 232.52v.97l1.77 1.29-.69-2.14.16-.12h-1.24z"/></g><g><path fill="#263238" d="M428.6 271.61l-.7-2.14-.7 2.14h-2.25l1.82 1.33-.69 2.14 1.82-1.33 1.82 1.33-.69-2.14 1.82-1.33h-2.25z"/></g><g><path fill="#263238" d="M438.33 285.15l1.65 1.2h1.34v-3.2l-.04-.14-.7 2.14h-2.25z"/></g><g><path fill="#263238" d="M441.32 259.43h-1.34l.17.13-.7 2.14 1.83-1.32.04.03v-.98z"/></g><g><path fill="#263238" d="M414.41 286.35h1.24l1.66-1.2h-2.25l-.65-2.01v3.21z"/></g><g><path fill="#263238" d="M414.41 259.43v.98l1.77 1.29-.69-2.14.16-.13h-1.24z"/></g><g><path fill="#263238" d="M428.6 298.53l-.7-2.14-.7 2.14h-2.25l1.82 1.32-.69 2.14 1.82-1.32 1.82 1.32-.69-2.14 1.82-1.32h-2.25z"/></g><g><path fill="#263238" d="M441.32 313.26v-3.2l-.04-.14-.7 2.14h-2.25l1.65 1.2h1.34z"/></g><g><path fill="#263238" d="M441.32 286.35h-1.34l.17.12-.7 2.14 1.83-1.32.04.03v-.97z"/></g><g><path fill="#263238" d="M417.31 312.06h-2.25l-.65-2v3.2h1.24l1.66-1.2z"/></g><g><path fill="#263238" d="M414.41 286.35v.97l1.77 1.29-.69-2.14.16-.12h-1.24z"/></g><g><path fill="#263238" d="M428.6 325.44l-.7-2.14-.7 2.14h-2.25l1.82 1.33-.69 2.14 1.82-1.32 1.82 1.32-.69-2.14 1.82-1.33h-2.25z"/></g><g><path fill="#263238" d="M441.32 336.98l-.04-.14-.7 2.14h-2.25l1.65 1.2h1.34v-3.2z"/></g><g><path fill="#263238" d="M441.32 313.26h-1.34l.17.13-.7 2.14 1.83-1.32.04.03v-.98z"/></g><g><path fill="#263238" d="M414.41 340.18h1.24l1.66-1.2h-2.25l-.65-2v3.2z"/></g><g><path fill="#263238" d="M414.41 313.26v.98l1.77 1.29-.69-2.14.16-.13h-1.24z"/></g><g><path fill="#263238" d="M441.32 340.18h-1.34l.17.12-.7 2.14 1.83-1.32.04.03v-.97z"/></g><g><path fill="#263238" d="M414.41 340.18v.97l1.77 1.29-.69-2.14.16-.12h-1.24z"/></g><g><path fill="#263238" d="M414.41 124.86v-.22h-1.64l.3.22h1.34z"/></g><g><path fill="#263238" d="M388.74 124.86l.3-.22h-1.55v.22h1.25z"/></g><g><path fill="#263238" d="M401.68 137.04l-.7-2.14-.69 2.14h-2.25l1.82 1.32-.7 2.14 1.82-1.32 1.83 1.32-.7-2.14 1.82-1.32h-2.25z"/></g><g><path fill="#263238" d="M411.41 150.57l1.66 1.2h1.34v-3.2l-.05-.14-.69 2.14h-2.26z"/></g><g><path fill="#263238" d="M414.41 124.86h-1.34l.16.12-.69 2.14 1.82-1.32.05.03v-.97z"/></g><g><path fill="#263238" d="M387.49 151.77h1.25l1.65-1.2h-2.25l-.65-2v3.2z"/></g><g><path fill="#263238" d="M387.49 125.83l1.78 1.29-.7-2.14.17-.12h-1.25v.97z"/></g><g><path fill="#263238" d="M401.68 163.95l-.7-2.14-.69 2.14h-2.25l1.82 1.32-.7 2.15 1.82-1.33 1.83 1.33-.7-2.15 1.82-1.32h-2.25z"/></g><g><path fill="#263238" d="M411.41 177.49l1.66 1.2h1.34v-3.21l-.05-.13-.69 2.14h-2.26z"/></g><g><path fill="#263238" d="M414.41 151.77h-1.34l.16.12-.69 2.15 1.82-1.33.05.04v-.98z"/></g><g><path fill="#263238" d="M387.49 178.69h1.25l1.65-1.2h-2.25l-.65-2.01v3.21z"/></g><g><path fill="#263238" d="M387.49 151.77v.98l1.78 1.29-.7-2.15.17-.12h-1.25z"/></g><g><path fill="#263238" d="M401.68 190.87l-.7-2.14-.69 2.14h-2.25l1.82 1.32-.7 2.14 1.82-1.32 1.83 1.32-.7-2.14 1.82-1.32h-2.25z"/></g><g><path fill="#263238" d="M411.41 204.4l1.66 1.2h1.34v-3.2l-.05-.14-.69 2.14h-2.26z"/></g><g><path fill="#263238" d="M414.41 178.69h-1.34l.16.12-.69 2.14 1.82-1.32.05.03v-.97z"/></g><g><path fill="#263238" d="M390.39 204.4h-2.25l-.65-2v3.2h1.25l1.65-1.2z"/></g><g><path fill="#263238" d="M387.49 178.69v.97l1.78 1.29-.7-2.14.17-.12h-1.25z"/></g><g><path fill="#263238" d="M401.68 217.78l-.7-2.14-.69 2.14h-2.25l1.82 1.33-.7 2.14 1.82-1.33 1.83 1.33-.7-2.14 1.82-1.33h-2.25z"/></g><g><path fill="#263238" d="M411.41 231.32l1.66 1.2h1.34v-3.21l-.05-.13-.69 2.14h-2.26z"/></g><g><path fill="#263238" d="M414.41 205.6h-1.34l.16.13-.69 2.14 1.82-1.33.05.04v-.98z"/></g><g><path fill="#263238" d="M390.39 231.32h-2.25l-.65-2.01v3.21h1.25l1.65-1.2z"/></g><g><path fill="#263238" d="M387.49 205.6v.98l1.78 1.29-.7-2.14.17-.13h-1.25z"/></g><g><path fill="#263238" d="M401.68 244.7l-.7-2.14-.69 2.14h-2.25l1.82 1.32-.7 2.14 1.82-1.32 1.83 1.32-.7-2.14 1.82-1.32h-2.25z"/></g><g><path fill="#263238" d="M411.41 258.23l1.66 1.2h1.34v-3.2l-.05-.14-.69 2.14h-2.26z"/></g><g><path fill="#263238" d="M414.41 232.52h-1.34l.16.12-.69 2.14 1.82-1.32.05.03v-.97z"/></g><g><path fill="#263238" d="M390.39 258.23h-2.25l-.65-2v3.2h1.25l1.65-1.2z"/></g><g><path fill="#263238" d="M387.49 232.52v.97l1.78 1.29-.7-2.14.17-.12h-1.25z"/></g><g><path fill="#263238" d="M401.68 271.61l-.7-2.14-.69 2.14h-2.25l1.82 1.33-.7 2.14 1.82-1.33 1.83 1.33-.7-2.14 1.82-1.33h-2.25z"/></g><g><path fill="#263238" d="M414.41 286.35v-3.2l-.05-.14-.69 2.14h-2.26l1.66 1.2h1.34z"/></g><g><path fill="#263238" d="M414.41 259.43h-1.34l.16.13-.69 2.14 1.82-1.32.05.03v-.98z"/></g><g><path fill="#263238" d="M390.39 285.15h-2.25l-.65-2.01v3.21h1.25l1.65-1.2z"/></g><g><path fill="#263238" d="M387.49 259.43v.98l1.78 1.29-.7-2.14.17-.13h-1.25z"/></g><g><path fill="#263238" d="M401.68 298.53l-.7-2.14-.69 2.14h-2.25l1.82 1.32-.7 2.14 1.82-1.32 1.83 1.32-.7-2.14 1.82-1.32h-2.25z"/></g><g><path fill="#263238" d="M414.41 310.06l-.05-.14-.69 2.14h-2.26l1.66 1.2h1.34v-3.2z"/></g><g><path fill="#263238" d="M414.41 286.35h-1.34l.16.12-.69 2.14 1.82-1.32.05.03v-.97z"/></g><g><path fill="#263238" d="M388.74 313.26l1.65-1.2h-2.25l-.65-2v3.2h1.25z"/></g><g><path fill="#263238" d="M387.49 286.35v.97l1.78 1.29-.7-2.14.17-.12h-1.25z"/></g><g><path fill="#263238" d="M401.68 325.44l-.7-2.14-.69 2.14h-2.25l1.82 1.33-.7 2.14 1.82-1.32 1.83 1.32-.7-2.14 1.82-1.33h-2.25z"/></g><g><path fill="#263238" d="M414.41 340.18v-3.2l-.05-.14-.69 2.14h-2.26l1.66 1.2h1.34z"/></g><g><path fill="#263238" d="M414.41 313.26h-1.34l.16.13-.69 2.14 1.82-1.32.05.03v-.98z"/></g><g><path fill="#263238" d="M388.74 340.18l1.65-1.2h-2.25l-.65-2v3.2h1.25z"/></g><g><path fill="#263238" d="M387.49 313.26v.98l1.78 1.29-.7-2.14.17-.13h-1.25z"/></g><g><path fill="#263238" d="M414.41 340.18h-1.34l.16.12-.69 2.14 1.82-1.32.05.03v-.97z"/></g><g><path fill="#263238" d="M387.49 340.18v.97l1.78 1.29-.7-2.14.17-.12h-1.25z"/></g><g><path fill="#263238" d="M387.49 124.86v-.22h-1.64l.3.22h1.34z"/></g><g><path fill="#263238" d="M361.82 124.86l.3-.22h-1.55v.22h1.25z"/></g><g><path fill="#263238" d="M374.76 137.04l-.69-2.14-.7 2.14h-2.25l1.82 1.32-.69 2.14 1.82-1.32 1.82 1.32-.7-2.14 1.83-1.32h-2.26z"/></g><g><path fill="#263238" d="M384.5 150.57l1.65 1.2h1.34v-3.2l-.05-.14-.69 2.14h-2.25z"/></g><g><path fill="#263238" d="M386.15 124.86l.17.12-.7 2.14 1.82-1.32.05.03v-.97h-1.34z"/></g><g><path fill="#263238" d="M360.57 151.77h1.25l1.66-1.2h-2.25l-.66-2v3.2z"/></g><g><path fill="#263238" d="M360.57 124.86v.97l1.78 1.29-.69-2.14.16-.12h-1.25z"/></g><g><path fill="#263238" d="M374.76 163.95l-.69-2.14-.7 2.14h-2.25l1.82 1.32-.69 2.15 1.82-1.33 1.82 1.33-.7-2.15 1.83-1.32h-2.26z"/></g><g><path fill="#263238" d="M384.5 177.49l1.65 1.2h1.34v-3.21l-.05-.13-.69 2.14h-2.25z"/></g><g><path fill="#263238" d="M386.15 151.77l.17.12-.7 2.15 1.82-1.33.05.04v-.98h-1.34z"/></g><g><path fill="#263238" d="M360.57 178.69h1.25l1.66-1.2h-2.25l-.66-2.01v3.21z"/></g><g><path fill="#263238" d="M360.57 151.77v.98l1.78 1.29-.69-2.15.16-.12h-1.25z"/></g><g><path fill="#263238" d="M374.76 190.87l-.69-2.14-.7 2.14h-2.25l1.82 1.32-.69 2.14 1.82-1.32 1.82 1.32-.7-2.14 1.83-1.32h-2.26z"/></g><g><path fill="#263238" d="M387.49 205.6v-3.2l-.05-.14-.69 2.14h-2.25l1.65 1.2h1.34z"/></g><g><path fill="#263238" d="M386.15 178.69l.17.12-.7 2.14 1.82-1.32.05.03v-.97h-1.34z"/></g><g><path fill="#263238" d="M360.57 205.6h1.25l1.66-1.2h-2.25l-.66-2v3.2z"/></g><g><path fill="#263238" d="M360.57 179.66l1.78 1.29-.69-2.14.16-.12h-1.25v.97z"/></g><g><path fill="#263238" d="M374.76 217.78l-.69-2.14-.7 2.14h-2.25l1.82 1.33-.69 2.14 1.82-1.33 1.82 1.33-.7-2.14 1.83-1.33h-2.26z"/></g><g><path fill="#263238" d="M387.49 232.52v-3.21l-.05-.13-.69 2.14h-2.25l1.65 1.2h1.34z"/></g><g><path fill="#263238" d="M386.32 205.73l-.7 2.14 1.82-1.33.05.04v-.98h-1.34l.17.13z"/></g><g><path fill="#263238" d="M360.57 232.52h1.25l1.66-1.2h-2.25l-.66-2.01v3.21z"/></g><g><path fill="#263238" d="M360.57 206.58l1.78 1.29-.69-2.14.16-.13h-1.25v.98z"/></g><g><path fill="#263238" d="M374.76 244.7l-.69-2.14-.7 2.14h-2.25l1.82 1.32-.69 2.14 1.82-1.32 1.82 1.32-.7-2.14 1.83-1.32h-2.26z"/></g><g><path fill="#263238" d="M387.49 259.43v-3.2l-.05-.14-.69 2.14h-2.25l1.65 1.2h1.34z"/></g><g><path fill="#263238" d="M386.32 232.64l-.7 2.14 1.82-1.32.05.03v-.97h-1.34l.17.12z"/></g><g><path fill="#263238" d="M360.57 259.43h1.25l1.66-1.2h-2.25l-.66-2v3.2z"/></g><g><path fill="#263238" d="M360.57 233.49l1.78 1.29-.69-2.14.16-.12h-1.25v.97z"/></g><g><path fill="#263238" d="M374.76 271.61l-.69-2.14-.7 2.14h-2.25l1.82 1.33-.69 2.14 1.82-1.33 1.82 1.33-.7-2.14 1.83-1.33h-2.26z"/></g><g><path fill="#263238" d="M387.49 286.35v-3.2l-.05-.14-.69 2.14h-2.25l1.65 1.2h1.34z"/></g><g><path fill="#263238" d="M386.32 259.56l-.7 2.14 1.82-1.32.05.03v-.98h-1.34l.17.13z"/></g><g><path fill="#263238" d="M360.57 286.35h1.25l1.66-1.2h-2.25l-.66-2.01v3.21z"/></g><g><path fill="#263238" d="M360.57 260.41l1.78 1.29-.69-2.14.16-.13h-1.25v.98z"/></g><g><path fill="#263238" d="M374.76 298.53l-.69-2.14-.7 2.14h-2.25l1.82 1.32-.69 2.14 1.82-1.32 1.82 1.32-.7-2.14 1.83-1.32h-2.26z"/></g><g><path fill="#263238" d="M387.49 313.26v-3.2l-.05-.14-.69 2.14h-2.25l1.65 1.2h1.34z"/></g><g><path fill="#263238" d="M387.49 286.35h-1.34l.17.12-.7 2.14 1.82-1.32.05.03v-.97z"/></g><g><path fill="#263238" d="M360.57 313.26h1.25l1.66-1.2h-2.25l-.66-2v3.2z"/></g><g><path fill="#263238" d="M360.57 286.35v.97l1.78 1.29-.69-2.14.16-.12h-1.25z"/></g><g><path fill="#263238" d="M374.76 325.44l-.69-2.14-.7 2.14h-2.25l1.82 1.33-.69 2.14 1.82-1.32 1.82 1.32-.7-2.14 1.83-1.33h-2.26z"/></g><g><path fill="#263238" d="M387.49 340.18v-3.2l-.05-.14-.69 2.14h-2.25l1.65 1.2h1.34z"/></g><g><path fill="#263238" d="M387.49 313.26h-1.34l.17.13-.7 2.14 1.82-1.32.05.03v-.98z"/></g><g><path fill="#263238" d="M360.57 340.18h1.25l1.66-1.2h-2.25l-.66-2v3.2z"/></g><g><path fill="#263238" d="M360.57 313.26v.98l1.78 1.29-.69-2.14.16-.13h-1.25z"/></g><g><path fill="#263238" d="M387.49 340.18h-1.34l.17.12-.7 2.14 1.82-1.32.05.03v-.97z"/></g><g><path fill="#263238" d="M360.57 340.18v.97l1.78 1.29-.69-2.14.16-.12h-1.25z"/></g><g><path fill="#263238" d="M360.57 124.86v-.22h-1.63l.3.22h1.33z"/></g><g><path fill="#263238" d="M334.91 124.86l.29-.22h-1.54v.22h1.25z"/></g><g><path fill="#263238" d="M347.85 137.04l-.7-2.14-.69 2.14h-2.25l1.82 1.32-.7 2.14 1.82-1.32 1.83 1.32-.7-2.14 1.82-1.32h-2.25z"/></g><g><path fill="#263238" d="M357.58 150.57l1.66 1.2h1.33v-3.2l-.04-.14-.7 2.14h-2.25z"/></g><g><path fill="#263238" d="M360.57 124.86h-1.33l.16.12-.69 2.14 1.82-1.32.04.03v-.97z"/></g><g><path fill="#263238" d="M333.66 151.77h1.25l1.65-1.2h-2.25l-.65-2v3.2z"/></g><g><path fill="#263238" d="M333.66 124.86v.97l1.78 1.29-.7-2.14.17-.12h-1.25z"/></g><g><path fill="#263238" d="M347.85 163.95l-.7-2.14-.69 2.14h-2.25l1.82 1.32-.7 2.15 1.82-1.33 1.83 1.33-.7-2.15 1.82-1.32h-2.25z"/></g><g><path fill="#263238" d="M357.58 177.49l1.66 1.2h1.33v-3.21l-.04-.13-.7 2.14h-2.25z"/></g><g><path fill="#263238" d="M360.57 151.77h-1.33l.16.12-.69 2.15 1.82-1.33.04.04v-.98z"/></g><g><path fill="#263238" d="M333.66 178.69h1.25l1.65-1.2h-2.25l-.65-2.01v3.21z"/></g><g><path fill="#263238" d="M333.66 151.77v.98l1.78 1.29-.7-2.15.17-.12h-1.25z"/></g><g><path fill="#263238" d="M347.85 190.87l-.7-2.14-.69 2.14h-2.25l1.82 1.32-.7 2.14 1.82-1.32 1.83 1.32-.7-2.14 1.82-1.32h-2.25z"/></g><g><path fill="#263238" d="M360.57 205.6v-3.2l-.04-.14-.7 2.14h-2.25l1.66 1.2h1.33z"/></g><g><path fill="#263238" d="M359.4 178.81l-.69 2.14 1.82-1.32.04.03v-.97h-1.33l.16.12z"/></g><g><path fill="#263238" d="M333.66 205.6h1.25l1.65-1.2h-2.25l-.65-2v3.2z"/></g><g><path fill="#263238" d="M333.66 179.66l1.78 1.29-.7-2.14.17-.12h-1.25v.97z"/></g><g><path fill="#263238" d="M347.85 217.78l-.7-2.14-.69 2.14h-2.25l1.82 1.33-.7 2.14 1.82-1.33 1.83 1.33-.7-2.14 1.82-1.33h-2.25z"/></g><g><path fill="#263238" d="M360.57 232.52v-3.21l-.04-.13-.7 2.14h-2.25l1.66 1.2h1.33z"/></g><g><path fill="#263238" d="M359.4 205.73l-.69 2.14 1.82-1.33.04.04v-.98h-1.33l.16.13z"/></g><g><path fill="#263238" d="M333.66 232.52h1.25l1.65-1.2h-2.25l-.65-2.01v3.21z"/></g><g><path fill="#263238" d="M333.66 206.58l1.78 1.29-.7-2.14.17-.13h-1.25v.98z"/></g><g><path fill="#263238" d="M347.85 244.7l-.7-2.14-.69 2.14h-2.25l1.82 1.32-.7 2.14 1.82-1.32 1.83 1.32-.7-2.14 1.82-1.32h-2.25z"/></g><g><path fill="#263238" d="M360.57 259.43v-3.2l-.04-.14-.7 2.14h-2.25l1.66 1.2h1.33z"/></g><g><path fill="#263238" d="M359.4 232.64l-.69 2.14 1.82-1.32.04.03v-.97h-1.33l.16.12z"/></g><g><path fill="#263238" d="M333.66 259.43h1.25l1.65-1.2h-2.25l-.65-2v3.2z"/></g><g><path fill="#263238" d="M333.66 233.49l1.78 1.29-.7-2.14.17-.12h-1.25v.97z"/></g><g><path fill="#263238" d="M347.85 271.61l-.7-2.14-.69 2.14h-2.25l1.82 1.33-.7 2.14 1.82-1.33 1.83 1.33-.7-2.14 1.82-1.33h-2.25z"/></g><g><path fill="#263238" d="M360.57 286.35v-3.2l-.04-.14-.7 2.14h-2.25l1.66 1.2h1.33z"/></g><g><path fill="#263238" d="M359.4 259.56l-.69 2.14 1.82-1.32.04.03v-.98h-1.33l.16.13z"/></g><g><path fill="#263238" d="M333.66 286.35h1.25l1.65-1.2h-2.25l-.65-2.01v3.21z"/></g><g><path fill="#263238" d="M333.66 260.41l1.78 1.29-.7-2.14.17-.13h-1.25v.98z"/></g><g><path fill="#263238" d="M347.85 298.53l-.7-2.14-.69 2.14h-2.25l1.82 1.32-.7 2.14 1.82-1.32 1.83 1.32-.7-2.14 1.82-1.32h-2.25z"/></g><g><path fill="#263238" d="M360.57 313.26v-3.2l-.04-.14-.7 2.14h-2.25l1.66 1.2h1.33z"/></g><g><path fill="#263238" d="M360.57 286.35h-1.33l.16.12-.69 2.14 1.82-1.32.04.03v-.97z"/></g><g><path fill="#263238" d="M333.66 313.26h1.25l1.65-1.2h-2.25l-.65-2v3.2z"/></g><g><path fill="#263238" d="M333.66 287.32l1.78 1.29-.7-2.14.17-.12h-1.25v.97z"/></g><g><path fill="#263238" d="M347.85 325.44l-.7-2.14-.69 2.14h-2.25l1.82 1.33-.7 2.14 1.82-1.32 1.83 1.32-.7-2.14 1.82-1.33h-2.25z"/></g><g><path fill="#263238" d="M360.57 340.18v-3.2l-.04-.14-.7 2.14h-2.25l1.66 1.2h1.33z"/></g><g><path fill="#263238" d="M360.57 313.26h-1.33l.16.13-.69 2.14 1.82-1.32.04.03v-.98z"/></g><g><path fill="#263238" d="M333.66 340.18h1.25l1.65-1.2h-2.25l-.65-2v3.2z"/></g><g><path fill="#263238" d="M333.66 313.26v.98l1.78 1.29-.7-2.14.17-.13h-1.25z"/></g><g><path fill="#263238" d="M360.57 340.18h-1.33l.16.12-.69 2.14 1.82-1.32.04.03v-.97z"/></g><g><path fill="#263238" d="M333.66 340.18v.97l1.78 1.29-.7-2.14.17-.12h-1.25z"/></g><g><path fill="#263238" d="M333.66 124.86v-.22h-1.64l.3.22h1.34z"/></g><g><path fill="#263238" d="M307.99 124.86l.3-.22h-1.55v.22h1.25z"/></g><g><path fill="#263238" d="M320.93 137.04l-.69-2.14-.7 2.14h-2.25l1.82 1.32-.69 2.14 1.82-1.32 1.82 1.32-.7-2.14 1.83-1.32h-2.26z"/></g><g><path fill="#263238" d="M330.67 150.57l1.65 1.2h1.34v-3.2l-.05-.14-.69 2.14h-2.25z"/></g><g><path fill="#263238" d="M333.66 124.86h-1.34l.17.12-.7 2.14 1.82-1.32.05.03v-.97z"/></g><g><path fill="#263238" d="M307.99 151.77l1.66-1.2h-2.26l-.65-2v3.2h1.25z"/></g><g><path fill="#263238" d="M306.74 125.83l1.78 1.29-.7-2.14.17-.12h-1.25v.97z"/></g><g><path fill="#263238" d="M318.42 167.42l1.82-1.33 1.82 1.33-.7-2.15 1.83-1.32h-2.26l-.69-2.14-.7 2.14h-2.25l1.82 1.32-.69 2.15z"/></g><g><path fill="#263238" d="M333.66 178.69v-3.21l-.05-.13-.69 2.14h-2.25l1.65 1.2h1.34z"/></g><g><path fill="#263238" d="M333.66 151.77h-1.34l.17.12-.7 2.15 1.82-1.33.05.04v-.98z"/></g><g><path fill="#263238" d="M307.99 178.69l1.66-1.2h-2.26l-.65-2.01v3.21h1.25z"/></g><g><path fill="#263238" d="M306.74 152.75l1.78 1.29-.7-2.15.17-.12h-1.25v.98z"/></g><g><path fill="#263238" d="M318.42 194.33l1.82-1.32 1.82 1.32-.7-2.14 1.83-1.32h-2.26l-.69-2.14-.7 2.14h-2.25l1.82 1.32-.69 2.14z"/></g><g><path fill="#263238" d="M333.66 205.6v-3.2l-.05-.14-.69 2.14h-2.25l1.65 1.2h1.34z"/></g><g><path fill="#263238" d="M332.49 178.81l-.7 2.14 1.82-1.32.05.03v-.97h-1.34l.17.12z"/></g><g><path fill="#263238" d="M307.99 205.6l1.66-1.2h-2.26l-.65-2v3.2h1.25z"/></g><g><path fill="#263238" d="M306.74 179.66l1.78 1.29-.7-2.14.17-.12h-1.25v.97z"/></g><g><path fill="#263238" d="M318.42 221.25l1.82-1.33 1.82 1.33-.7-2.14 1.83-1.33h-2.26l-.69-2.14-.7 2.14h-2.25l1.82 1.33-.69 2.14z"/></g><g><path fill="#263238" d="M333.66 232.52v-3.21l-.05-.13-.69 2.14h-2.25l1.65 1.2h1.34z"/></g><g><path fill="#263238" d="M332.49 205.73l-.7 2.14 1.82-1.33.05.04v-.98h-1.34l.17.13z"/></g><g><path fill="#263238" d="M307.99 232.52l1.66-1.2h-2.26l-.65-2.01v3.21h1.25z"/></g><g><path fill="#263238" d="M306.74 206.58l1.78 1.29-.7-2.14.17-.13h-1.25v.98z"/></g><g><path fill="#263238" d="M318.42 248.16l1.82-1.32 1.82 1.32-.7-2.14 1.83-1.32h-2.26l-.69-2.14-.7 2.14h-2.25l1.82 1.32-.69 2.14z"/></g><g><path fill="#263238" d="M333.66 259.43v-3.2l-.05-.14-.69 2.14h-2.25l1.65 1.2h1.34z"/></g><g><path fill="#263238" d="M332.49 232.64l-.7 2.14 1.82-1.32.05.03v-.97h-1.34l.17.12z"/></g><g><path fill="#263238" d="M307.99 259.43l1.66-1.2h-2.26l-.65-2v3.2h1.25z"/></g><g><path fill="#263238" d="M306.74 233.49l1.78 1.29-.7-2.14.17-.12h-1.25v.97z"/></g><g><path fill="#263238" d="M318.42 275.08l1.82-1.33 1.82 1.33-.7-2.14 1.83-1.33h-2.26l-.69-2.14-.7 2.14h-2.25l1.82 1.33-.69 2.14z"/></g><g><path fill="#263238" d="M333.66 286.35v-3.2l-.05-.14-.69 2.14h-2.25l1.65 1.2h1.34z"/></g><g><path fill="#263238" d="M332.49 259.56l-.7 2.14 1.82-1.32.05.03v-.98h-1.34l.17.13z"/></g><g><path fill="#263238" d="M307.99 286.35l1.66-1.2h-2.26l-.65-2.01v3.21h1.25z"/></g><g><path fill="#263238" d="M306.74 260.41l1.78 1.29-.7-2.14.17-.13h-1.25v.98z"/></g><g><path fill="#263238" d="M318.42 301.99l1.82-1.32 1.82 1.32-.7-2.14 1.83-1.32h-2.26l-.69-2.14-.7 2.14h-2.25l1.82 1.32-.69 2.14z"/></g><g><path fill="#263238" d="M333.66 313.26v-3.2l-.05-.14-.69 2.14h-2.25l1.65 1.2h1.34z"/></g><g><path fill="#263238" d="M332.49 286.47l-.7 2.14 1.82-1.32.05.03v-.97h-1.34l.17.12z"/></g><g><path fill="#263238" d="M307.99 313.26l1.66-1.2h-2.26l-.65-2v3.2h1.25z"/></g><g><path fill="#263238" d="M306.74 287.32l1.78 1.29-.7-2.14.17-.12h-1.25v.97z"/></g><g><path fill="#263238" d="M320.93 325.44l-.69-2.14-.7 2.14h-2.25l1.82 1.33-.69 2.14 1.82-1.32 1.82 1.32-.7-2.14 1.83-1.33h-2.26z"/></g><g><path fill="#263238" d="M333.66 340.18v-3.2l-.05-.14-.69 2.14h-2.25l1.65 1.2h1.34z"/></g><g><path fill="#263238" d="M333.66 313.26h-1.34l.17.13-.7 2.14 1.82-1.32.05.03v-.98z"/></g><g><path fill="#263238" d="M307.99 340.18l1.66-1.2h-2.26l-.65-2v3.2h1.25z"/></g><g><path fill="#263238" d="M306.74 313.26v.98l1.78 1.29-.7-2.14.17-.13h-1.25z"/></g><g><path fill="#263238" d="M333.66 340.18h-1.34l.17.12-.7 2.14 1.82-1.32.05.03v-.97z"/></g><g><path fill="#263238" d="M306.74 340.18v.97l1.78 1.29-.7-2.14.17-.12h-1.25z"/></g><g><path fill="#263238" d="M306.74 124.86v-.22h-1.63l.29.22h1.34z"/></g><g><path fill="#263238" d="M281.03 124.64v.22h.05l.29-.22h-.34z"/></g><g><path fill="#263238" d="M291.5 140.5l1.82-1.32 1.82 1.32-.69-2.14 1.82-1.32h-2.25l-.7-2.14-.69 2.14h-2.25l1.82 1.32-.7 2.14z"/></g><g><path fill="#263238" d="M306.74 151.77v-3.2l-.04-.14-.7 2.14h-2.25l1.65 1.2h1.34z"/></g><g><path fill="#263238" d="M305.4 124.86l.17.12-.69 2.14 1.82-1.32.04.03v-.97h-1.34z"/></g><g><path fill="#263238" d="M282.73 150.57h-1.7v1.2h.05l1.65-1.2z"/></g><g><path fill="#263238" d="M281.025 124.9l.05-.04h-.05v.04z"/></g><g><path fill="#263238" d="M281.61 127.12l-.58-1.78v1.36l.58.42z"/></g><g><path fill="#263238" d="M291.5 167.42l1.82-1.33 1.82 1.33-.69-2.15 1.82-1.32h-2.25l-.7-2.14-.69 2.14h-2.25l1.82 1.32-.7 2.15z"/></g><g><path fill="#263238" d="M306.74 178.69v-3.21l-.04-.13-.7 2.14h-2.25l1.65 1.2h1.34z"/></g><g><path fill="#263238" d="M305.57 151.89l-.69 2.15 1.82-1.33.04.04v-.98h-1.34l.17.12z"/></g><g><path fill="#263238" d="M282.73 177.49h-1.7v1.2h.05l1.65-1.2z"/></g><g><path fill="#263238" d="M281.61 154.04l-.58-1.79v1.37l.58.42z"/></g><g><path fill="#263238" d="M281.025 151.81l.05-.04h-.05v.04z"/></g><g><path fill="#263238" d="M291.5 194.33l1.82-1.32 1.82 1.32-.69-2.14 1.82-1.32h-2.25l-.7-2.14-.69 2.14h-2.25l1.82 1.32-.7 2.14z"/></g><g><path fill="#263238" d="M306.74 205.6v-3.2l-.04-.14-.7 2.14h-2.25l1.65 1.2h1.34z"/></g><g><path fill="#263238" d="M305.57 178.81l-.69 2.14 1.82-1.32.04.03v-.97h-1.34l.17.12z"/></g><g><path fill="#263238" d="M282.73 204.4h-1.7v1.2h.05l1.65-1.2z"/></g><g><path fill="#263238" d="M281.025 178.73l.05-.04h-.05v.04z"/></g><g><path fill="#263238" d="M281.61 180.95l-.58-1.78v1.36l.58.42z"/></g><g><path fill="#263238" d="M291.5 221.25l1.82-1.33 1.82 1.33-.69-2.14 1.82-1.33h-2.25l-.7-2.14-.69 2.14h-2.25l1.82 1.33-.7 2.14z"/></g><g><path fill="#263238" d="M306.74 232.52v-3.21l-.04-.13-.7 2.14h-2.25l1.65 1.2h1.34z"/></g><g><path fill="#263238" d="M305.57 205.73l-.69 2.14 1.82-1.33.04.04v-.98h-1.34l.17.13z"/></g><g><path fill="#263238" d="M282.73 231.32h-1.7v1.2h.05l1.65-1.2z"/></g><g><path fill="#263238" d="M281.61 207.87l-.58-1.79v1.37l.58.42z"/></g><g><path fill="#263238" d="M281.025 205.64l.05-.04h-.05v.04z"/></g><g><path fill="#263238" d="M291.5 248.16l1.82-1.32 1.82 1.32-.69-2.14 1.82-1.32h-2.25l-.7-2.14-.69 2.14h-2.25l1.82 1.32-.7 2.14z"/></g><g><path fill="#263238" d="M306.74 259.43v-3.2l-.04-.14-.7 2.14h-2.25l1.65 1.2h1.34z"/></g><g><path fill="#263238" d="M305.57 232.64l-.69 2.14 1.82-1.32.04.03v-.97h-1.34l.17.12z"/></g><g><path fill="#263238" d="M282.73 258.23h-1.7v1.2h.05l1.65-1.2z"/></g><g><path fill="#263238" d="M281.61 234.78l-.58-1.78v1.36l.58.42z"/></g><g><path fill="#263238" d="M281.025 232.56l.05-.04h-.05v.04z"/></g><g><path fill="#263238" d="M291.5 275.08l1.82-1.33 1.82 1.33-.69-2.14 1.82-1.33h-2.25l-.7-2.14-.69 2.14h-2.25l1.82 1.33-.7 2.14z"/></g><g><path fill="#263238" d="M306.74 286.35v-3.2l-.04-.14-.7 2.14h-2.25l1.65 1.2h1.34z"/></g><g><path fill="#263238" d="M305.57 259.56l-.69 2.14 1.82-1.32.04.03v-.98h-1.34l.17.13z"/></g><g><path fill="#263238" d="M282.73 285.15h-1.7v1.2h.05l1.65-1.2z"/></g><g><path fill="#263238" d="M281.61 261.7l-.58-1.79v1.37l.58.42z"/></g><g><path fill="#263238" d="M281.025 259.47l.05-.04h-.05v.04z"/></g><g><path fill="#263238" d="M291.5 301.99l1.82-1.32 1.82 1.32-.69-2.14 1.82-1.32h-2.25l-.7-2.14-.69 2.14h-2.25l1.82 1.32-.7 2.14z"/></g><g><path fill="#263238" d="M306.74 313.26v-3.2l-.04-.14-.7 2.14h-2.25l1.65 1.2h1.34z"/></g><g><path fill="#263238" d="M305.57 286.47l-.69 2.14 1.82-1.32.04.03v-.97h-1.34l.17.12z"/></g><g><path fill="#263238" d="M282.73 312.06h-1.7v1.2h.05l1.65-1.2z"/></g><g><path fill="#263238" d="M281.025 286.39l.05-.04h-.05v.04z"/></g><g><path fill="#263238" d="M281.61 288.61l-.58-1.78v1.36l.58.42z"/></g><g><path fill="#263238" d="M291.5 328.91l1.82-1.32 1.82 1.32-.69-2.14 1.82-1.33h-2.25l-.7-2.14-.69 2.14h-2.25l1.82 1.33-.7 2.14z"/></g><g><path fill="#263238" d="M306.74 340.18v-3.2l-.04-.14-.7 2.14h-2.25l1.65 1.2h1.34z"/></g><g><path fill="#263238" d="M305.57 313.39l-.69 2.14 1.82-1.32.04.03v-.98h-1.34l.17.13z"/></g><g><path fill="#263238" d="M282.73 338.98h-1.7v1.2h.05l1.65-1.2z"/></g><g><path fill="#263238" d="M281.61 315.53l-.58-1.78v1.36l.58.42z"/></g><g><path fill="#263238" d="M281.025 313.3l.05-.04h-.05v.04z"/></g><g><path fill="#263238" d="M306.74 340.18h-1.34l.17.12-.69 2.14 1.82-1.32.04.03v-.97z"/></g><g><path fill="#263238" d="M281.03 340.66v1.36l.58.42-.58-1.78z"/></g><g><path fill="#263238" d="M281.025 340.18v.04l.05-.04h-.05z"/></g><g><path fill="none" stroke="#263238" stroke-linecap="round" stroke-linejoin="round" stroke-miterlimit="20" d="M398.61 124.64v0h61.81v221.6h-61.81v0z"/></g><g><path fill="#fb7d00" d="M370.004 104.543s-18.09-9.79-25.63-17.33c-7.54-7.54-8.29 5.27-8.29 12.06 0 6.79-3.77 12.06 2.26 12.81 6.03.75 31.66-2.26 31.66-2.26z"/><path fill="none" stroke="#263238" stroke-linecap="round" stroke-linejoin="round" stroke-miterlimit="20" d="M370.004 104.543v0s-18.09-9.79-25.63-17.33c-7.54-7.54-8.29 5.27-8.29 12.06 0 6.79-3.77 12.06 2.26 12.81 6.03.75 31.66-2.26 31.66-2.26v0z"/></g><g><path fill="#fb7d00" d="M376.2 104.543s18.09-9.79 25.63-17.33c7.54-7.54 8.29 5.27 8.29 12.06 0 6.79 3.77 12.06-2.26 12.81-6.03.75-31.66-2.26-31.66-2.26z"/><path fill="none" stroke="#263238" stroke-linecap="round" stroke-linejoin="round" stroke-miterlimit="20" d="M376.2 104.543v0s18.09-9.79 25.63-17.33c7.54-7.54 8.29 5.27 8.29 12.06 0 6.79 3.77 12.06-2.26 12.81-6.03.75-31.66-2.26-31.66-2.26v0z"/></g><g><path fill="#fb7d00" d="M369.47 103.23h7.13v7.13h-7.13z"/><path fill="none" stroke="#263238" stroke-linecap="round" stroke-linejoin="round" stroke-miterlimit="20" d="M369.47 103.23v0h7.13v7.13h-7.13v0z"/></g><g><path fill="#263238" d="M275.75 109.57h189.94v18.84H275.75z"/><path fill="none" stroke="#263238" stroke-linecap="round" stroke-linejoin="round" stroke-miterlimit="20" d="M275.75 109.57v0h189.94v18.84H275.75v0z"/></g><g><path fill="#fb7d00" d="M316.67 109.46h23v236.65h-23z"/><path fill="none" stroke="#263238" stroke-linecap="round" stroke-linejoin="round" stroke-miterlimit="20" d="M316.67 109.46v0h23v236.65h-23v0z"/></g><g transform="rotate(-12.19 366.5 190)"><path fill="#fb7d00" d="M347.78 178.82h37.64v22.11h-37.64z"/><path fill="none" stroke="#263238" stroke-linecap="round" stroke-linejoin="round" stroke-miterlimit="20" d="M347.78 178.82v0h37.64v22.11h-37.64v0z"/></g><g transform="rotate(180 434 228)"><path fill="#fb7d00" d="M422.18 109.47h23v236.65h-23z"/><path fill="none" stroke="#263238" stroke-linecap="round" stroke-linejoin="round" stroke-miterlimit="20" d="M422.18 109.47v0h23v236.65h-23v0z"/></g><g><path fill="#fb7d00" d="M339.67 109.46a35.16 35.16 0 0 0-5.75 6.49c-3 4.25-1.75 11.75-1.75 16.5s-1.5 20.5-1.5 20.5l9.25-10.5s8.5 12.25 8.5 11.25V123a17.66 17.66 0 0 1 2.75-10c1.5-2.25 5.25-3.5 5.25-3.5z"/><path fill="none" stroke="#263238" stroke-linecap="round" stroke-linejoin="round" stroke-miterlimit="20" d="M339.67 109.46a35.16 35.16 0 0 0-5.75 6.49c-3 4.25-1.75 11.75-1.75 16.5s-1.5 20.5-1.5 20.5v0l9.25-10.5v0s8.5 12.25 8.5 11.25V123a17.66 17.66 0 0 1 2.75-10c1.5-2.25 5.25-3.5 5.25-3.5v0z"/></g><g><path fill="#fb7d00" d="M360.34 109.46a35.16 35.16 0 0 0-5.75 6.49c-3 4.25-1.75 11.75-1.75 16.5s-1.5 20.5-1.5 20.5l9.25-10.5s8.5 12.25 8.5 11.25V123a17.66 17.66 0 0 1 2.75-10c1.5-2.25 5.25-3.5 5.25-3.5z"/><path fill="none" stroke="#263238" stroke-linecap="round" stroke-linejoin="round" stroke-miterlimit="20" d="M360.34 109.46a35.16 35.16 0 0 0-5.75 6.49c-3 4.25-1.75 11.75-1.75 16.5s-1.5 20.5-1.5 20.5v0l9.25-10.5v0s8.5 12.25 8.5 11.25V123a17.66 17.66 0 0 1 2.75-10c1.5-2.25 5.25-3.5 5.25-3.5v0z"/></g><g><path fill="#fff" d="M19.32 304.12h82.65v42.13H19.32z"/><path fill="none" stroke="#263238" stroke-linecap="round" stroke-linejoin="round" stroke-miterlimit="20" d="M19.32 304.12v0h82.65v42.13H19.32v0z"/></g><g><path fill="#ffb76f" d="M40.87 304.12h9.75v42.13h-9.75z"/><path fill="none" stroke="#263238" stroke-linecap="round" stroke-linejoin="round" stroke-miterlimit="20" d="M40.87 304.12v0h9.75v42.13h-9.75v0z"/></g><g><path fill="#fff" d="M73.5 304.12h28.48v42.13H73.5z"/><path fill="none" stroke="#263238" stroke-linecap="round" stroke-linejoin="round" stroke-miterlimit="20" d="M73.5 304.12v0h28.48v42.13H73.5v0z"/></g><g><path fill="#fff" d="M81.33 304.12h9.75v42.13h-9.75z"/><path fill="none" stroke="#263238" stroke-linecap="round" stroke-linejoin="round" stroke-miterlimit="20" d="M81.33 304.12v0h9.75v42.13h-9.75v0z"/></g><g><path fill="#fff" d="M78.05 304.12h82.65v42.13H78.05z"/></g><g><path fill="#ffb76f" d="M160.69 323.13l-31.06 23.11h5.03l26.03-19.37z"/></g><g><path fill="#ffb76f" d="M78.05 315.57l15.39-11.45h-5.02l-10.37 7.71z"/></g><g><path fill="#ffb76f" d="M107.98 304.12l-29.93 22.27v3.74l34.96-26.01z"/></g><g><path fill="#ffb76f" d="M127.55 304.12l-49.5 36.83v3.74l54.52-40.57z"/></g><g><path fill="#ffb76f" d="M115.09 346.24l45.6-33.93v-3.74l-50.62 37.67z"/></g><g><path fill="#ffb76f" d="M95.53 346.24l56.6-42.12h-5.02L90.5 346.24z"/></g><g><path fill="#ffb76f" d="M160.69 341.43v-3.74l-11.5 8.55h5.03l6.47-4.81z"/></g><g><path fill="#263238" d="M99.59 304.12h9.75v42.13h-9.75z"/><path fill="none" stroke="#263238" stroke-linecap="round" stroke-linejoin="round" stroke-miterlimit="20" d="M99.59 304.12v0h9.75v42.13h-9.75v0z"/></g><g><path fill="none" stroke="#263238" stroke-linecap="round" stroke-linejoin="round" stroke-miterlimit="20" d="M132.22 304.12v0h28.48v42.13h-28.48v0z"/></g><g><path fill="#263238" d="M140.05 304.12h9.75v42.13h-9.75z"/><path fill="none" stroke="#263238" stroke-linecap="round" stroke-linejoin="round" stroke-miterlimit="20" d="M140.05 304.12v0h9.75v42.13h-9.75v0z"/></g><g><path fill="none" stroke="#263238" stroke-linecap="round" stroke-linejoin="round" stroke-miterlimit="20" d="M78.05 304.12v0h82.65v42.13H78.05v0z"/></g><g><path fill="#ffb76f" d="M134.06 332.81h82.65v13.43h-82.65z"/><path fill="none" stroke="#263238" stroke-linecap="round" stroke-linejoin="round" stroke-miterlimit="20" d="M134.06 332.81v0h82.65v13.43h-82.65v0z"/></g><g><path fill="#fff" d="M155.6 332.81h9.75v13.43h-9.75z"/><path fill="none" stroke="#263238" stroke-linecap="round" stroke-linejoin="round" stroke-miterlimit="20" d="M155.6 332.81v0h9.75v13.43h-9.75v0z"/></g><g><path fill="#ffb76f" d="M188.23 332.81h28.48v13.43h-28.48z"/><path fill="none" stroke="#263238" stroke-linecap="round" stroke-linejoin="round" stroke-miterlimit="20" d="M188.23 332.81v0h28.48v13.43h-28.48v0z"/></g><g><path fill="#fff" d="M196.07 332.81h9.75v13.43h-9.75z"/><path fill="none" stroke="#263238" stroke-linecap="round" stroke-linejoin="round" stroke-miterlimit="20" d="M196.07 332.81v0h9.75v13.43h-9.75v0z"/></g><g><path fill="none" stroke="#fff" stroke-linecap="round" stroke-linejoin="round" stroke-miterlimit="20" d="M167.51 320.718s-5.76-15-15-12.66"/></g><g><path fill="none" stroke="#fff" stroke-linecap="round" stroke-linejoin="round" stroke-miterlimit="20" d="M167.51 320.72s6.91-19.57 16.69-13.24"/></g><g><path fill="#ffb76f" d="M130.68 319.57h82.65V333h-82.65z"/><path fill="none" stroke="#263238" stroke-linecap="round" stroke-linejoin="round" stroke-miterlimit="20" d="M130.68 319.57v0h82.65V333h-82.65v0z"/></g><g><path fill="#fff" d="M152.22 319.57h9.75V333h-9.75z"/><path fill="none" stroke="#263238" stroke-linecap="round" stroke-linejoin="round" stroke-miterlimit="20" d="M152.22 319.57v0h9.75V333h-9.75v0z"/></g><g><path fill="#ffb76f" d="M184.85 319.57h28.48V333h-28.48z"/><path fill="none" stroke="#263238" stroke-linecap="round" stroke-linejoin="round" stroke-miterlimit="20" d="M184.85 319.57v0h28.48V333h-28.48v0z"/></g><g><path fill="#fff" d="M192.69 319.57h9.75V333h-9.75z"/><path fill="none" stroke="#263238" stroke-linecap="round" stroke-linejoin="round" stroke-miterlimit="20" d="M192.69 319.57v0h9.75V333h-9.75v0z"/></g><g><path fill="#ffb76f" d="M44.87 266.19h12.3v8.13h-12.3z"/><path fill="none" stroke="#263238" stroke-linecap="round" stroke-linejoin="round" stroke-miterlimit="20" d="M44.87 266.19v0h12.3v8.13h-12.3v0z"/></g><g><path fill="#fff" d="M50.22 275.8l-6.78-4.93-3.91 5.3 3.39 2.47 7.3-2.84z"/><path fill="none" stroke="#263238" stroke-linecap="round" stroke-linejoin="round" stroke-miterlimit="20" d="M50.22 275.8v0l-6.78-4.93v0l-3.91 5.3v0l3.39 2.47v0l7.3-2.84v0z"/></g><g><path fill="#fff" d="M59.01 270.51l-6.78 4.93 7.3 2.84 3.39-2.46-3.91-5.31z"/><path fill="none" stroke="#263238" stroke-linecap="round" stroke-linejoin="round" stroke-miterlimit="20" d="M59.01 270.51v0l-6.78 4.93v0l7.3 2.84v0l3.39-2.46v0l-3.91-5.31v0z"/></g><g><path fill="#fff" d="M55.93 273.14h-9.59l2.4 5.77h4.8l2.39-5.77z"/><path fill="none" stroke="#263238" stroke-linecap="round" stroke-linejoin="round" stroke-miterlimit="20" d="M55.93 273.14v0h-9.59v0l2.4 5.77v0h4.8v0l2.39-5.77v0z"/></g><g><path fill="#ffb76f" d="M43.44 269.33l-3.91-5.31 3.39-2.46 7.3 2.84z"/><path fill="none" stroke="#263238" stroke-linecap="round" stroke-linejoin="round" stroke-miterlimit="20" d="M43.44 269.33v0l-3.91-5.31v0l3.39-2.46v0l7.3 2.84v0z"/></g><g><path fill="#ffb76f" d="M59.35 269.88l-6.77-4.93 7.29-2.84 3.39 2.47-3.91 5.3z"/><path fill="none" stroke="#263238" stroke-linecap="round" stroke-linejoin="round" stroke-miterlimit="20" d="M59.35 269.88v0l-6.77-4.93v0l7.29-2.84v0l3.39 2.47v0l-3.91 5.3v0z"/></g><g><path fill="#ffb76f" d="M55.93 266.97h-9.59l2.4-5.77h4.8l2.39 5.77z"/><path fill="none" stroke="#263238" stroke-linecap="round" stroke-linejoin="round" stroke-miterlimit="20" d="M55.93 266.97v0h-9.59v0l2.4-5.77v0h4.8v0l2.39 5.77v0z"/></g><g><path fill="#ffb76f" d="M46.55 266.57v6.97l-7.92-1.74v-3.49l7.92-1.74z"/><path fill="none" stroke="#263238" stroke-linecap="round" stroke-linejoin="round" stroke-miterlimit="20" d="M46.55 266.57v6.97l-7.92-1.74v0-3.49 0l7.92-1.74v0z"/></g><g><path fill="#ffb76f" d="M55.5 266.57v6.97l7.92-1.74v-3.49l-7.92-1.74z"/><path fill="none" stroke="#263238" stroke-linecap="round" stroke-linejoin="round" stroke-miterlimit="20" d="M55.5 266.57v6.97l7.92-1.74v0-3.49 0l-7.92-1.74v0z"/></g><g><path fill="#263238" d="M20.54 271.56h62.99v32.11H20.54z"/><path fill="none" stroke="#263238" stroke-linecap="round" stroke-linejoin="round" stroke-miterlimit="20" d="M20.54 271.56v0h62.99v32.11H20.54v0z"/></g><g><path fill="#ffb76f" d="M36.96 271.56h7.43v32.11h-7.43z"/><path fill="none" stroke="#263238" stroke-linecap="round" stroke-linejoin="round" stroke-miterlimit="20" d="M36.96 271.56v0h7.43v32.11h-7.43v0z"/></g><g><path fill="#263238" d="M61.83 271.56h21.7v32.11h-21.7z"/><path fill="none" stroke="#263238" stroke-linecap="round" stroke-linejoin="round" stroke-miterlimit="20" d="M61.83 271.56v0h21.7v32.11h-21.7v0z"/></g><g><path fill="#ffb76f" d="M67.8 271.56h7.43v32.11H67.8z"/><path fill="none" stroke="#263238" stroke-linecap="round" stroke-linejoin="round" stroke-miterlimit="20" d="M67.8 271.56v0h7.43v32.11H67.8v0z"/></g><g><path fill="#fff" d="M325.36 292.77h17.56v11.6h-17.56z"/><path fill="none" stroke="#263238" stroke-linecap="round" stroke-linejoin="round" stroke-miterlimit="20" d="M325.36 292.77v0h17.56v11.6h-17.56v0z"/></g><g><path fill="#fff" d="M333 306.48l-9.68-7.04-5.57 7.57 4.83 3.53 10.42-4.06z"/><path fill="none" stroke="#263238" stroke-linecap="round" stroke-linejoin="round" stroke-miterlimit="20" d="M333 306.48v0l-9.68-7.04v0l-5.57 7.57v0l4.83 3.53v0l10.42-4.06v0z"/></g><g><path fill="#fff" d="M345.55 298.93l-9.68 7.04 10.41 4.06 4.84-3.52-5.57-7.58z"/><path fill="none" stroke="#263238" stroke-linecap="round" stroke-linejoin="round" stroke-miterlimit="20" d="M345.55 298.93v0l-9.68 7.04v0l10.41 4.06v0l4.84-3.52v0l-5.57-7.58v0z"/></g><g><path fill="#fff" d="M341.15 302.69h-13.68l3.42 8.23h6.84l3.42-8.23z"/><path fill="none" stroke="#263238" stroke-linecap="round" stroke-linejoin="round" stroke-miterlimit="20" d="M341.15 302.69v0h-13.68v0l3.42 8.23v0h6.84v0l3.42-8.23v0z"/></g><g><path fill="#fff" d="M333 290.21l-9.68 7.04-5.57-7.57 4.83-3.52 10.42 4.05z"/><path fill="none" stroke="#263238" stroke-linecap="round" stroke-linejoin="round" stroke-miterlimit="20" d="M333 290.21v0l-9.68 7.04v0l-5.57-7.57v0l4.83-3.52v0l10.42 4.05v0z"/></g><g><path fill="#fff" d="M346.04 298.04l-9.68-7.04 10.41-4.05 4.84 3.52-5.57 7.57z"/><path fill="none" stroke="#263238" stroke-linecap="round" stroke-linejoin="round" stroke-miterlimit="20" d="M346.04 298.04v0l-9.68-7.04v0l10.41-4.05v0l4.84 3.52v0l-5.57 7.57v0z"/></g><g><path fill="#fff" d="M341.15 293.88h-13.68l3.42-8.22h6.84l3.42 8.22z"/><path fill="none" stroke="#263238" stroke-linecap="round" stroke-linejoin="round" stroke-miterlimit="20" d="M341.15 293.88v0h-13.68v0l3.42-8.22v0h6.84v0l3.42 8.22v0z"/></g><g><path fill="#fff" d="M327.76 293.31v9.95l-11.3-2.49v-4.97l11.3-2.49z"/><path fill="none" stroke="#263238" stroke-linecap="round" stroke-linejoin="round" stroke-miterlimit="20" d="M327.76 293.31v9.95l-11.3-2.49v0-4.97 0l11.3-2.49v0z"/></g><g><path fill="#fff" d="M340.54 293.31v9.95l11.3-2.49v-4.97l-11.3-2.49z"/><path fill="none" stroke="#263238" stroke-linecap="round" stroke-linejoin="round" stroke-miterlimit="20" d="M340.54 293.31v9.95l11.3-2.49v0-4.97 0l-11.3-2.49v0z"/></g><g><path fill="#ffb76f" d="M290.65 300.43h89.88v45.82h-89.88z"/><path fill="none" stroke="#263238" stroke-linecap="round" stroke-linejoin="round" stroke-miterlimit="20" d="M290.65 300.43v0h89.88v45.82h-89.88v0z"/></g><g><path fill="#fff" d="M314.08 300.43h10.6v45.82h-10.6z"/><path fill="none" stroke="#263238" stroke-linecap="round" stroke-linejoin="round" stroke-miterlimit="20" d="M314.08 300.43v0h10.6v45.82h-10.6v0z"/></g><g><path fill="#ffb76f" d="M349.57 300.43h30.97v45.82h-30.97z"/><path fill="none" stroke="#263238" stroke-linecap="round" stroke-linejoin="round" stroke-miterlimit="20" d="M349.57 300.43v0h30.97v45.82h-30.97v0z"/></g><g><path fill="#fff" d="M358.09 300.43h10.6v45.82h-10.6z"/><path fill="none" stroke="#263238" stroke-linecap="round" stroke-linejoin="round" stroke-miterlimit="20" d="M358.09 300.43v0h10.6v45.82h-10.6v0z"/></g><g><path fill="none" stroke="#263238" stroke-linecap="round" stroke-linejoin="round" stroke-miterlimit="20" stroke-width="3" d="M436.312 278.454v0s-9-21.5-18.5-20.5-12 13-4.5 16.5 23 4 23 4z"/></g><g><path fill="none" stroke="#263238" stroke-linecap="round" stroke-linejoin="round" stroke-miterlimit="20" stroke-width="3" d="M436.31 278.455v0s5.5-21.5 16.5-20 7.36 18.5 1.86 19.5-18.36.5-18.36.5z"/></g><g><path fill="#fff" d="M392.67 277.95h82.65v68.3h-82.65z"/></g><g><path fill="#ffb76f" d="M452.47 333.66a279.418 279.418 0 0 0 22.84-18.26v-4.11c-7.8 7.48-16.75 14.12-24.63 20-8.08 6-14.59 10.83-17.75 15h3.95c3.44-3.61 9.4-8.03 15.59-12.63z"/></g><g><path fill="#ffb76f" d="M414.93 296.07c-9.32 7.8-17 14.38-22.26 19.83v4.44c5.8-6.58 16-15.11 24.19-22 8.9-7.44 17.3-14.48 20.66-19a9.1 9.1 0 0 0 .89-1.39h-9c-3.33 1.87-8 4.69-14.58 8.75-7.15 4.4-15.3 9.4-22.12 13.12v3.4c7.09-3.76 15.7-9.05 23.69-14 6.58-4.05 13.83-8.51 17.77-10.48-3.71 4.34-11.27 10.67-19.24 17.33z"/></g><g><path fill="#ffb76f" d="M475.31 321.61c-3.82 3.35-8 7.53-12.43 11.94-4.26 4.24-8.94 8.91-13.3 12.69h4.53c3.49-3.19 7.16-6.85 10.88-10.56 3.3-3.29 6.9-6.87 10.32-10z"/></g><g><path fill="#ffb76f" d="M392.67 290.87c4.07-4 8.84-8.42 13.87-12.92h-4.44c-2.11 1.9-4.31 3.92-6.49 6l-2.94 2.79z"/></g><g><path fill="#ffb76f" d="M475.31 298.38v-3.71c-5.3 3.84-12 8.9-20.29 15.3-17.25 13.24-39.33 30.17-52.49 36.27h6.53c11.84-6.6 28.21-18.87 47.78-33.89 5.99-4.6 12.58-9.65 18.47-13.97z"/></g><g><path fill="#ffb76f" d="M452.48 278h-5c-6 4.63-14.72 12.28-27.41 23.71-9.1 8.21-20.66 18.63-27.42 23.58v3.59c5.55-3.61 14.7-11.66 29.43-24.94 10.13-9.16 23-20.76 30.4-25.94z"/></g><g><path fill="#ffb76f" d="M458.46 281.65A31.46 31.46 0 0 0 460 278h-3.2c-.26.66-.6 1.45-1.05 2.41-7.92 16.59-28.69 32.14-45.37 44.59-8.05 6-14 10.54-17.71 14.21v4.4c3.26-4.07 11.48-10.21 19.5-16.2 16.95-12.66 38.05-28.41 46.29-45.76z"/></g><g><path fill="none" stroke="#263238" stroke-linecap="round" stroke-linejoin="round" stroke-miterlimit="20" d="M392.67 277.95v0h82.65v68.3h-82.65v0z"/></g><g><path fill="#263238" d="M414.21 277.95h9.75v68.3h-9.75z"/><path fill="none" stroke="#263238" stroke-linecap="round" stroke-linejoin="round" stroke-miterlimit="20" d="M414.21 277.95v0h9.75v68.3h-9.75v0z"/></g><g><path fill="none" stroke="#263238" stroke-linecap="round" stroke-linejoin="round" stroke-miterlimit="20" d="M446.84 277.95v0h28.48v68.3h-28.48v0z"/></g><g><path fill="#263238" d="M454.67 277.95h9.75v68.3h-9.75z"/><path fill="none" stroke="#263238" stroke-linecap="round" stroke-linejoin="round" stroke-miterlimit="20" d="M454.67 277.95v0h9.75v68.3h-9.75v0z"/></g><g><path fill="none" stroke="#263238" stroke-linecap="round" stroke-linejoin="round" stroke-miterlimit="20" stroke-width="3" d="M432.34 321.447v0-30c0-10 4-13 4-13v0s3.23-.77 5 4.7c1.77 5.47 0 26.91 0 26.91v0"/></g></g></g></g></svg>