<svg xmlns="http://www.w3.org/2000/svg" width="189" height="121" viewBox="0 0 189 121"><g><g><g><g><path fill="#fff" d="M58.538 98.314c-.088-2.285 3.848-3.047 4.927-.464 1.63 3.903 2.798 7.962 3.89 12.044 1.239-3.963 2.23-8.012 3.243-12.024.2-.791.874-1.455 1.66-1.659a80.894 80.894 0 0 1 9.728-1.923c12.294-1.653 24.69-1.313 37.053-1.953 11.09-.572 22.649-1.811 32.716-6.854 8.236-4.127 15.704-9.944 21.599-17.041 5.51-6.632 10.01-14.96 10.215-23.766.386-16.579-13.218-28.597-27.646-34.002-15.31-5.737-32.01-7.055-48.233-6.599-17.36.49-34.74 2.991-51.5 7.561-7.277 1.982-14.51 4.314-21.418 7.363-6.055 2.672-12.26 5.775-17.148 10.317C5.698 40.394-.34 59.515 6.9 74.815c4.305 9.099 12.313 15.062 21.83 18.018 9.718 3.018 19.96 3.175 29.807 5.481"/></g><g><path d="M59.348 100.689c-12.423-2.002-25.15-1.562-36.995-6.517-8.364-3.497-15.514-9.918-19.138-18.327C-.057 68.257-.787 59.907.823 51.809c1.639-8.245 5.493-16.108 11.156-22.34 4.796-5.28 10.77-9.077 17.149-12.161 14.08-6.81 29.484-10.954 44.84-13.677C91.192.576 108.897-.845 126.367.52c14.912 1.164 30.765 3.922 43.59 12.112 6.948 4.436 12.837 10.665 16.142 18.284 3.599 8.298 3.417 17.752.079 26.114-6.688 16.756-22.52 30.442-39.664 35.773-23.261 7.234-48.215 1.885-71.665 7.659-1.518 6.112-3.092 12.23-5.53 18.052-.871 2.08-3.943 2.504-4.658 0-1.698-5.96-3.063-12.043-5.313-17.826zm-30.623-7.856c9.718 3.018 19.96 3.175 29.806 5.48-.088-2.284 3.847-3.046 4.926-.463 1.63 3.903 2.798 7.962 3.89 12.044 1.24-3.963 2.23-8.012 3.243-12.024.2-.791.874-1.455 1.66-1.66a80.885 80.885 0 0 1 9.727-1.922c12.294-1.653 24.69-1.313 37.051-1.953 11.09-.572 22.648-1.811 32.715-6.854 8.235-4.127 15.703-9.944 21.597-17.041 5.51-6.632 10.01-14.96 10.215-23.766.386-16.58-13.218-28.597-27.645-34.002-15.308-5.737-32.007-7.055-48.23-6.6-17.358.49-34.738 2.992-51.497 7.562-7.277 1.982-14.508 4.314-21.417 7.363-6.055 2.672-12.258 5.775-17.147 10.317-11.925 11.08-17.962 30.2-10.722 45.5 4.304 9.1 12.312 15.063 21.828 18.019z"/></g></g><g><path d="M55.865 74.288c-.567-8.254-.602-16.545-.768-24.813-.081-3.986-.009-7.991-.202-11.97-.064-1.339.152-3.279-.304-4.545-.242-.67-.441-1.385-1.076-1.788.663.421.314.052.212-.585-.168-1.056-1.957-1.056-2.124 0-.099.637-.45 1.008.215.585-.636.404-.835 1.117-1.076 1.788-.456 1.276-.214 3.197-.284 4.545-.208 3.97-.037 7.996-.025 11.97 0 .172.002.342.003.512-2.233-.022-4.533.257-6.709.41-2.137.15-4.257.433-6.357.835.064-.651.129-1.301.198-1.951.443-4.248.978-8.483 1.305-12.744.261-3.401 1.13-8.231-1.338-10.955-.681-.753-1.796-.437-2.314.299-1.065 1.516-1.049 3.031-1.203 4.814-.169 1.95-.407 3.901-.647 5.842-.547 4.462-1.192 8.91-1.712 13.376-.503 4.316-.894 8.651-.928 12.998a45.098 45.098 0 0 0 .403 6.167c.318 2.444.435 4.661 3.092 5.557.699.236 1.566-.027 2.069-.546 1.698-1.758.984-3.401.722-5.54-.252-2.066-.281-4.151-.289-6.23-.01-2.723.144-5.448.371-8.166 2.209-.03 4.419-.016 6.628-.019 2.21-.005 4.5.236 6.739.201.064 6.654.234 13.319.702 19.953.213 3.003 4.905 3.027 4.697 0"/></g><g><path d="M77.555 65.988c-3.018.556-6.134.153-9.126-.495-.666-5.068-1.034-10.171-1.383-15.271 2.784-.294 5.571-.485 8.318-1.11 2.692-.611 1.552-4.77-1.14-4.134-2.459.582-4.97.83-7.43 1.35-.3-5.348-.434-10.98-1.772-16.148 3.981-.118 8.047.549 11.955-.115 1.734-.295 1.734-3.194 0-3.49-4.108-.695-9.063-.148-13.172 1.085-1.054-.611-2.652-.006-2.717 1.512-.282 6.556.75 13.316 1.16 19.867.4 6.375.845 12.742 1.711 19.075.107.783.957 1.503 1.683 1.683 4.192 1.032 8.933 1.944 13.202.864 3.065-.777 1.74-5.232-1.289-4.673"/></g><g><path d="M96.421 66.49c-2.274.688-4.684.78-7.065.796-.324-6.853-.356-13.715-.297-20.573.068-7.478.79-15.212-.133-22.65-.217-1.752-2.502-1.75-2.724 0-.905 7.174-.63 14.602-.768 21.825-.15 7.765-.157 15.529.246 23.286.052 1.027.816 1.884 1.884 1.886 3.28.003 6.7.044 9.87-.903 2.343-.701 1.34-4.381-1.013-3.667"/></g><g><path d="M115.966 64.68c-2.215.662-4.557.754-6.874.76-.216-6.28.143-12.554.603-18.82.257-3.501.535-6.997.723-10.504.186-3.476.662-7.322-.157-10.738-.338-1.418-2.495-1.403-2.84 0-.787 3.174-.63 6.68-.868 9.934-.255 3.5-.568 7-.843 10.499-.57 7.208-1.046 14.434-.61 21.664.067 1.104.877 2.04 2.039 2.036 3.287-.008 6.723.019 9.897-.947 2.477-.751 1.426-4.627-1.07-3.883"/></g><g><path d="M140.032 34.13c1.715 4.028 2.53 8.353 2.526 12.733-.008 7.576-1.836 17.335-8.19 22.302-1.078.844-2.31.943-3.38 0-2.76-2.43-4.013-6.582-4.828-10.033a57.49 57.49 0 0 1-1.511-14.15c.08-4.567.549-13.893 5.273-16.574-.028-.998.862-1.954 1.905-1.968 3.825-.053 6.872 4.557 8.205 7.69zm-2.118 12.733c-.046-3.466-.448-7.187-1.918-10.375-.646-1.404-1.402-2.81-2.479-3.936a16.085 16.085 0 0 0-1.111-1.034c-.97 1.064-1.53 2.796-1.904 4.15-.995 3.595-1.18 7.38-1.057 11.091.133 3.984.58 8.001 1.589 11.864.468 1.79 1.067 3.791 1.99 5.4 3.96-4.275 4.96-11.818 4.89-17.16z"/></g><g><path d="M157.993 45.742c.097-7.295-.16-14.43-.991-21.678-.194-1.676-2.696-1.773-2.687 0 .037 6.937-.237 13.905-.377 20.845-.073 3.613-.177 7.225-.264 10.838-.07 2.967-.801 7.165 1.017 9.736.508.72 1.426.716 1.934 0 1.688-2.376 1.17-6.138 1.205-8.902.045-3.612.116-7.226.163-10.84"/></g><g><path d="M157.605 75.132a1.94 1.94 0 0 0-.57-1.37c-.387-.388-.823-.505-1.346-.566a3.054 3.054 0 0 0-.291-.106c-1.325-.423-2.688.706-2.688 2.042 0 1.336 1.363 2.466 2.688 2.044.1-.032.197-.069.291-.109.523-.06.96-.176 1.347-.563.363-.362.569-.86.569-1.372"/></g></g></g></svg>