<svg xmlns="http://www.w3.org/2000/svg" width="1110" height="182" viewBox="0 0 1110 182"><g><g><g><g><path fill="none" stroke="#0b0212" stroke-miterlimit="20" d="M164.328 151.142a1.45 1.45 0 0 0 .45-1.29l-1.36-9.36a1.46 1.46 0 0 1 2.15-1.49l8.29 4.57a1.45 1.45 0 0 0 1.36 0l8.47-4.23a1.46 1.46 0 0 1 2.09 1.58l-1.79 9.3c-.099.471.048.96.39 1.3l6.64 6.74a1.46 1.46 0 0 1-.86 2.48l-9.39 1.17a1.47 1.47 0 0 0-1.12.77l-4.36 8.41a1.46 1.46 0 0 1-2.62-.06l-4-8.57a1.45 1.45 0 0 0-1.08-.82l-9.34-1.55a1.47 1.47 0 0 1-.83-2.48z"/></g><g><path fill="none" stroke="#0b0212" stroke-miterlimit="20" d="M1.227 173.82v0l3.32-3.1a.72.72 0 0 0 .22-.62l-.68-4.49a.7.7 0 0 1 1-.72l4 2.19a.7.7 0 0 0 .66 0l4.06-2a.7.7 0 0 1 1 .76l-.86 4.47a.7.7 0 0 0 .19.62l3.19 3.24a.7.7 0 0 1-.41 1.19l-4.51.56a.71.71 0 0 0-.54.38l-2.09 4a.7.7 0 0 1-1.26 0l-1.93-4.12a.71.71 0 0 0-.52-.4l-4.48-.74a.71.71 0 0 1-.36-1.22z"/></g><g><path fill="none" stroke="#0b0212" stroke-miterlimit="20" d="M52.786 87.083v0l-7.05 6.33a1.44 1.44 0 0 0-.47 1.27l1.21 9.39a1.46 1.46 0 0 1-2.18 1.45l-8.19-4.7a1.43 1.43 0 0 0-1.36-.06l-8.55 4.06a1.47 1.47 0 0 1-2.06-1.63l2-9.26a1.47 1.47 0 0 0-.37-1.31l-6.5-6.88a1.45 1.45 0 0 1 .91-2.45l9.42-1a1.47 1.47 0 0 0 1.13-.75l4.53-8.31a1.46 1.46 0 0 1 2.62.11l3.84 8.65a1.42 1.42 0 0 0 1.06.84l9.31 1.75a1.46 1.46 0 0 1 .7 2.5z"/></g><g><path fill="none" stroke="#0b0212" stroke-miterlimit="20" d="M25.764 56.041l-3.38 3a.7.7 0 0 0-.23.61l.59 4.51a.7.7 0 0 1-1.05.69l-3.93-2.27a.7.7 0 0 0-.66 0l-4.1 1.96a.7.7 0 0 1-1-.78l.95-4.45a.7.7 0 0 0-.18-.63l-3.12-3.3a.7.7 0 0 1 .44-1.18l4.52-.47a.75.75 0 0 0 .55-.36l2.17-4a.7.7 0 0 1 1.26.05l1.84 4.15a.72.72 0 0 0 .52.41l4.46.84a.7.7 0 0 1 .35 1.22z"/></g></g><g><g><path fill="none" stroke="#0b0212" stroke-miterlimit="20" d="M985.328 13.322a1.45 1.45 0 0 0 .45-1.29l-1.36-9.36a1.46 1.46 0 0 1 2.15-1.49l8.29 4.57a1.45 1.45 0 0 0 1.36 0l8.47-4.23a1.46 1.46 0 0 1 2.09 1.58l-1.79 9.3c-.099.471.048.96.39 1.3l6.64 6.74a1.46 1.46 0 0 1-.86 2.48l-9.39 1.17a1.47 1.47 0 0 0-1.12.77l-4.36 8.41a1.46 1.46 0 0 1-2.62-.06l-4-8.57a1.45 1.45 0 0 0-1.08-.82l-9.34-1.55a1.47 1.47 0 0 1-.83-2.48z"/></g><g><path fill="none" stroke="#0b0212" stroke-miterlimit="20" d="M1101.744 59.13l-6.54-1.32a1 1 0 0 0-.92.27l-4.79 4.64a1 1 0 0 1-1.74-.63l-.77-6.63a1 1 0 0 0-.54-.79l-5.86-3.1a1 1 0 0 1 .05-1.84l6.07-2.78a1 1 0 0 0 .59-.76l1.12-6.62a1 1 0 0 1 1.78-.52l4.51 4.92a1 1 0 0 0 .9.32l6.61-.93a1 1 0 0 1 1 1.52l-3.28 5.82a1.06 1.06 0 0 0 0 .95l2.93 6a1 1 0 0 1-1.12 1.48z"/></g><g><path fill="none" stroke="#0b0212" stroke-miterlimit="20" d="M1107.924 30.793l-3.14-.64a.51.51 0 0 0-.44.13l-2.3 2.23a.5.5 0 0 1-.84-.3l-.37-3.18a.45.45 0 0 0-.25-.38l-2.84-1.51a.49.49 0 0 1 0-.88l2.92-1.34a.5.5 0 0 0 .28-.36l.55-3.16a.5.5 0 0 1 .85-.25l2.24 2.36a.5.5 0 0 0 .43.16l3.18-.45a.5.5 0 0 1 .5.73l-1.58 2.8a.5.5 0 0 0 0 .46l1.41 2.87a.5.5 0 0 1-.6.71z"/></g></g></g></g></svg>