<svg xmlns="http://www.w3.org/2000/svg" width="433" height="377" viewBox="0 0 433 377"><g><g><g><g><path fill="#f9fbff" d="M126.372 277.352c-6.37-2.58-12.59-5.25-18.63-7.93-21.26-9.42-43.36-21.6-59.23-39.42-21-23.53-24.79-58.09-23-88.33 1.36-22.68 8.27-45.41 22.39-63.26 17.88-22.57 47.29-33.89 75-40.17 31.9-7.24 65-6.53 96.96-13.24 31.28-6.6 58.6-25.61 91.74-24.13 42.77 1.9 94.2 31.71 106.65 74 5.79 19.72 3.31 41-3.23 60.45-16.37 48.53-50.53 92.49-91.34 123.63-23.95 18.27-51.94 32-81.87 37.58-39.76 7.36-78.81-4.4-115.44-19.18z"/></g></g><g><g><path fill="none" stroke="#263238" stroke-linecap="round" stroke-linejoin="round" stroke-miterlimit="20" d="M428.65 302.01h-38.8"/></g><g><path fill="none" stroke="#263238" stroke-linecap="round" stroke-linejoin="round" stroke-miterlimit="20" d="M68.63 302.01h-38.8"/></g></g><g><g><path fill="#dee8fb" d="M231 376.87c111.23 0 201.4-14.636 201.4-32.69s-90.17-32.69-201.4-32.69-201.4 14.636-201.4 32.69 90.17 32.69 201.4 32.69z"/></g></g><g><g><path fill="#fff" d="M245.09 238l10.68 77.68c0 6 27.6 10.82 61.64 10.82s61.65-4.84 61.65-10.82L389.74 238z"/><path fill="none" stroke="#263238" stroke-linecap="round" stroke-linejoin="round" stroke-miterlimit="20" d="M245.09 238v0l10.68 77.68c0 6 27.6 10.82 61.64 10.82s61.65-4.84 61.65-10.82L389.74 238v0z"/></g><g><path fill="#fff" d="M317.41 248.77c39.941 0 72.32-4.84 72.32-10.81 0-5.97-32.379-10.81-72.32-10.81-39.941 0-72.32 4.84-72.32 10.81 0 5.97 32.379 10.81 72.32 10.81z"/><path fill="none" stroke="#263238" stroke-linecap="round" stroke-linejoin="round" stroke-miterlimit="20" d="M317.41 248.77c39.941 0 72.32-4.84 72.32-10.81 0-5.97-32.379-10.81-72.32-10.81-39.941 0-72.32 4.84-72.32 10.81 0 5.97 32.379 10.81 72.32 10.81z"/></g><g><path fill="#fff" d="M375.14 238c0 1.49-2.52 2.89-7 4.11-9.78 2.7-28.84 4.52-50.77 4.52-21.93 0-41-1.82-50.76-4.52-4.44-1.22-7-2.62-7-4.11 0-4.77 25.84-8.63 57.72-8.63s57.81 3.82 57.81 8.63z"/><path fill="none" stroke="#263238" stroke-linecap="round" stroke-linejoin="round" stroke-miterlimit="20" d="M375.14 238c0 1.49-2.52 2.89-7 4.11-9.78 2.7-28.84 4.52-50.77 4.52-21.93 0-41-1.82-50.76-4.52-4.44-1.22-7-2.62-7-4.11 0-4.77 25.84-8.63 57.72-8.63s57.81 3.82 57.81 8.63z"/></g><g><path fill="#263238" d="M368.18 242.07c-9.78 2.7-28.84 4.52-50.77 4.52-21.93 0-41-1.82-50.76-4.52 5.84-3.72 26.36-6.47 50.76-6.47s44.93 2.75 50.77 6.47z"/></g><g><g><path fill="#263238" d="M352.235 160.998c.05 0 1.14-4.13 1.18-4.44.44-3.17-.57-9.54-3.79-11.1a4.25 4.25 0 0 0-5.6 2.13c-.06.14-.11.29-.16.43-.86 2.37.24 5.28 1.53 7.28 1.52 2.4 6.83 5.7 6.84 5.7z"/></g><g><path fill="#263238" d="M288.736 159.665c2.56 1.11 8.83 1 8.84 1 .01 0-1.35-4.13-1.46-4.37-1.39-2.88-5.74-7.64-9.29-7.15a4.23 4.23 0 0 0-3.5 4.86c0 .15.06.3.1.44.57 2.43 3.12 4.26 5.31 5.22z"/></g><g><path fill="#263238" d="M371.366 138.38l-.39-.08c-3.56-.39-7.78 4.49-9.09 7.4-.11.26-1.41 4.4-1.35 4.4h.08c-.67.76-1.38 1.59-2.14 2.51-1.4 1.71-3 3.65-4.5 5.88-.59.84-1.17 1.68-1.73 2.54a82.164 82.164 0 0 0-2.93 4.88 54.999 54.999 0 0 0-4 9v-4.1c-.41-3.16-3.09-9.05-6.58-9.7a4.25 4.25 0 0 0-4.85 3.55v.44c-.2 2.51 1.62 5 3.4 6.62 2 1.79 7.58 3.53 8 3.66a75.34 75.34 0 0 0-2.35 9.73c-.34 1.91-.62 3.85-.88 5.79a14 14 0 0 0-.05-1.83c-.41-3.17-3.1-9-6.59-9.69a4.24 4.24 0 0 0-4.84 3.53v.44c-.21 2.52 1.62 5 3.41 6.63s6.52 3.19 7.77 3.59c-.09.75-.2 1.49-.28 2.24-.43 3.59-.85 7.18-1.35 10.68-.19 1.23-.4 2.45-.63 3.65v-1.59c-.41-3.17-3.1-9-6.58-9.69a4.24 4.24 0 0 0-4.84 3.53v.45c-.21 2.51 1.62 5 3.4 6.62 1.78 1.62 6.06 3 7.55 3.52-.27 1.23-.52 2.47-.83 3.65-.23.8-.4 1.6-.66 2.38-.26.78-.52 1.58-.77 2.36-.53 1.47-1.08 3-1.64 4.44-.38 1-.76 1.93-1.15 2.88.19-1.23.52-3.64.53-3.84a16.45 16.45 0 0 0-2.21-8 5.86 5.86 0 0 0 0-.93 4.24 4.24 0 0 0-4.75-3.67l-.41.07c-3.46.92-5.65 7-5.82 10.18 0 .19.12 2.24.22 3.53l-.52-2.25c-.37-1.53-.77-3-1.2-4.67-.24-.78-.48-1.57-.71-2.37-.23-.8-.57-1.6-.84-2.41-.69-1.87-1.47-3.73-2.3-5.59 1.34-.32 6.07-1.53 8-3 1.93-1.47 3.9-3.82 3.88-6.35a4.22 4.22 0 0 0-4.09-4.35 3.649 3.649 0 0 0-.47 0c-3.57.39-6.65 6.05-7.29 9.18 0 .19-.26 2.5-.34 3.76-.52-1.12-1-2.22-1.57-3.34-1.59-3.2-3.3-6.39-5-9.58l-1.53-2.93c.48-.12 6.13-1.43 8.26-3.1 1.9-1.45 3.9-3.83 3.88-6.36a4.22 4.22 0 0 0-4.1-4.34 2.36 2.36 0 0 0-.46 0c-3.56.38-6.65 6-7.29 9.17 0 .24-.35 3.54-.38 4.38-1.13-2.15-2.22-4.31-3.21-6.48a75.732 75.732 0 0 1-3.49-9c.22 0 6.13-1.39 8.26-3.09 1.9-1.46 3.9-3.83 3.88-6.36a4.25 4.25 0 0 0-4.14-4.35h-.43c-3.56.39-6.64 6.06-7.29 9.19 0 .2-.27 2.73-.35 3.92h-.2a54.4 54.4 0 0 1-1.83-9.55c-.19-1.78-.29-3.49-.34-5.16 1.13-.14 6.27-.83 8.41-2.06 2.14-1.23 4.29-3.38 4.55-5.89a4.23 4.23 0 0 0-3.68-4.73 3.997 3.997 0 0 0-.49 0c-3.57 0-7.23 5.29-8.26 8.32-.05.17-.41 1.91-.66 3.18v-2.25c0-2.7.17-5.16.34-7.37.11-1.25.23-2.37.35-3.42 1-.71 5.16-3.63 6.45-5.72s2.25-5 1.32-7.33a4.23 4.23 0 0 0-5.39-2.58c-.14.05-.28.12-.43.19-3.18 1.64-4 8-3.49 11.19.05.27 1.24 4.41 1.3 4.41h.06c-.13 1-.27 2.06-.4 3.28-.22 2.19-.44 4.67-.5 7.38a73.54 73.54 0 0 0 .2 8.78 56.62 56.62 0 0 0 1.63 9.67v.12c-.55-.88-2.22-3.31-2.36-3.47-2.07-2.42-7.55-5.86-10.84-4.46a4.24 4.24 0 0 0-2.09 5.62c.06.14.14.27.21.4 1.22 2.21 4.13 3.3 6.49 3.64 2.66.39 8.26-1.24 8.71-1.36a77.85 77.85 0 0 0 3.39 9.39c.78 1.79 1.61 3.56 2.47 5.33-.52-.74-1-1.41-1-1.5-2.07-2.41-7.55-5.85-10.84-4.46a4.25 4.25 0 0 0-2.09 5.63c.06.13.14.27.21.39 1.22 2.21 4.13 3.31 6.49 3.65 2.36.34 7.23-.94 8.47-1.29.34.67.66 1.35 1 2.06 1.62 3.23 3.25 6.44 4.76 9.65.54 1.13 1 2.27 1.5 3.39-.46-.66-.84-1.22-.91-1.3-2.07-2.42-7.55-5.85-10.84-4.45a4.23 4.23 0 0 0-2.09 5.61c.07.14.14.28.21.4 1.22 2.21 4.13 3.3 6.49 3.65 2.36.35 6.74-.81 8.26-1.23.47 1.17.93 2.34 1.32 3.5.26.8.55 1.54.77 2.36.22.82.44 1.59.66 2.37.37 1.53.75 3.1 1 4.61.23 1 .44 2.06.64 3-.51-1.13-1.57-3.32-1.68-3.5-1.7-2.69-6.58-6.92-10.05-6a4.22 4.22 0 0 0-2.77 5.58c.86 2.37 3.57 3.89 5.85 4.59 2.52.77 8.07.07 8.78 0 .33 1.67.64 3.29.9 4.82.91 5.21 1.49 9.6 1.85 12.7h2.43v-.11c-.44-3.15-1.12-7.64-2.18-13-.33-1.69-.71-3.49-1.14-5.32a43.942 43.942 0 0 0 4.9-2.33c1.83 2 6.52 4.31 7.13 4.6-.63 1.6-1.28 3.11-1.9 4.54-2.09 4.84-4 8.81-5.46 11.59h2.61c1.3-2.75 3-6.39 4.72-10.7.65-1.6 1.32-3.32 2-5.08.67.14 6.2 1.26 8.75.68 2.32-.53 5.16-1.84 6.19-4.13a4.21 4.21 0 0 0-1.91-5.67c-.13-.07-.28-.13-.42-.19-3.4-1.13-8.57 2.72-10.47 5.29-.1.16-1.13 1.93-1.76 3.1.26-.73.53-1.43.8-2.17.54-1.48 1-3 1.58-4.56.23-.79.46-1.57.7-2.37.24-.8.43-1.65.64-2.48.47-1.94.84-3.92 1.17-5.93 1.29.47 5.9 2.06 8.26 1.91 2.36-.15 5.36-1 6.74-3.16a4.23 4.23 0 0 0-1-5.89l-.4-.24c-3.18-1.65-8.88 1.38-11.14 3.63-.15.14-1.59 1.94-2.36 2.94.19-1.21.38-2.41.54-3.64.43-3.54.77-7.15 1.12-10.74.11-1.1.23-2.2.34-3.29.46.16 5.9 2.2 8.58 2 2.38-.18 5.36-1 6.75-3.16a4.24 4.24 0 0 0-1-5.91 4.34 4.34 0 0 0-.46-.28c-3.18-1.64-8.88 1.38-11.14 3.64-.17.17-2.24 2.76-2.73 3.44.24-2.42.52-4.82.89-7.23a72.71 72.71 0 0 1 2.07-9.45c.2.09 5.88 2.22 8.62 2.07 2.38-.17 5.37-1 6.75-3.16a4.24 4.24 0 0 0-1-5.9l-.38-.23c-3.18-1.64-8.88 1.38-11.14 3.63-.16.16-1.74 2.13-2.47 3.1l-.18-.09a54.75 54.75 0 0 1 3.75-9 58.65 58.65 0 0 1 2.56-4.48c1 .51 5.68 2.78 8.17 2.87 2.49.09 5.45-.44 7.05-2.39a4.25 4.25 0 0 0-.38-6c-.12-.09-.24-.2-.36-.28-3-2-9 .4-11.47 2.4-.14.1-1.4 1.35-2.31 2.28.41-.63.82-1.29 1.21-1.89 1.5-2.26 3-4.23 4.36-6 .78-1 1.5-1.85 2.19-2.65 1.25 0 6.31-.18 8.53-1.22 2.22-1.04 4.62-2.9 5.16-5.38a4.24 4.24 0 0 0-3.24-5.12z"/></g></g></g><g><g><path fill="none" stroke="#263238" stroke-linecap="round" stroke-linejoin="round" stroke-miterlimit="20" stroke-width="1.01" d="M.72 206.39v0l41.18 25.63v0l11.78-45.98v0L12.5 160.41v0L.72 206.39v0z"/></g><g><path fill="none" stroke="#263238" stroke-linecap="round" stroke-linejoin="round" stroke-miterlimit="20" stroke-width="1.01" d="M53.68 186.04v0l43.72-3.88v0l-11.78 45.99v0l-43.72 3.87v0l11.78-45.98v0z"/></g><g><path fill="none" stroke="#263238" stroke-linecap="round" stroke-linejoin="round" stroke-miterlimit="20" stroke-width="1.01" d="M97.4 182.16v0l-41.18-25.63v0l-43.72 3.88v0l41.18 25.63v0l43.72-3.88v0z"/></g><g><path fill="none" stroke="#263238" stroke-linecap="round" stroke-linejoin="round" stroke-miterlimit="20" stroke-width="1.01" d="M54.829 132.412a4.58 4.58 0 1 1-9.118-.884 4.58 4.58 0 0 1 9.118.884z"/></g><g><path fill="none" stroke="#263238" stroke-linecap="round" stroke-linejoin="round" stroke-miterlimit="20" stroke-width="1.01" d="M87.819 105.727a2.29 2.29 0 1 1-4.558-.454 2.29 2.29 0 0 1 4.558.454z"/></g><g><path fill="none" stroke="#263238" stroke-linecap="round" stroke-linejoin="round" stroke-miterlimit="20" stroke-width="1.01" d="M92.34 137.47a6.22 6.22 0 1 1-5.58-6.8 6.23 6.23 0 0 1 5.58 6.8z"/></g><g><path fill="none" stroke="#263238" stroke-linecap="round" stroke-linejoin="round" stroke-miterlimit="20" stroke-width="1.01" d="M396.247 148.004a2.81 2.81 0 1 1-2.52-3.07 2.8 2.8 0 0 1 2.52 3.07z"/></g><g><path fill="none" stroke="#263238" stroke-linecap="round" stroke-linejoin="round" stroke-miterlimit="20" stroke-width="1.01" d="M347.51 117.92a5.55 5.55 0 1 0 0-11.1 5.55 5.55 0 0 0 0 11.1z"/></g><g><path fill="none" stroke="#263238" stroke-linecap="round" stroke-linejoin="round" stroke-miterlimit="20" stroke-width="1.01" d="M427.04 76.67v0l-55.64 23.3v0l-5.34-58.8v0l55.64-23.29v0l5.34 58.79v0z"/></g><g><path fill="none" stroke="#263238" stroke-linecap="round" stroke-linejoin="round" stroke-miterlimit="20" stroke-width="1.01" d="M366.06 41.17v0l-52.91-13.43v0l5.35 58.8v0l52.9 13.43v0l-5.34-58.8v0z"/></g><g><path fill="none" stroke="#263238" stroke-linecap="round" stroke-linejoin="round" stroke-miterlimit="20" stroke-width="1.01" d="M313.15 27.74v0l55.65-23.3v0l52.9 13.44v0l-55.64 23.29v0l-52.91-13.43v0z"/></g></g><g><g><path fill="#f77d0e" d="M320.3 334.499c-5.14 9.7-10.05 16-14.89 20.16-6.51 5.55-12.86 7.11-19.32 7.56-11.13.76-31.78-2.51-51.78-16.17l-.87-.59c-.87.379-1.757.712-2.66 1a63.6 63.6 0 0 1-10.56 2.44 83.39 83.39 0 0 1-27.58-.76 95.677 95.677 0 0 1-9.38-2.28 51 51 0 0 1-7.88 10.39c-6.07 6.19-15.47 12.46-27.51 10.17-22.17-4.2-27.34-13.38-30.4-27a73.91 73.91 0 0 1-1.23-21.92c.28-3.22.64-5.21.64-5.21s-8 3.11-12.22-8.23c0 0-.37 24.78-11.23 27.37-5.23 1.24-9.11-1-11.89-4.75-3.09-4.19-4.84-10.34-5.58-15.87-.18-1.34-.29-2.65-.36-3.89-.58-10.89 2.49-29.82 8.22-47.4s23.32-40.92 38.05-54.11c14.73-13.19 24.13-18.41 24.13-18.41s-7.79-16.86-8.57-34.43a52.66 52.66 0 0 1 .46-10.36s-18.89-1.21-25.78-17.82c-5.29-12.79-5.5-24.34-1.92-32.81a24.16 24.16 0 0 1 4.21-6.77c7.46-8.41 24.91-16.08 46.33 4l.46-.2c3.61-1.52 27-10.78 52.72-7.39a78.353 78.353 0 0 1 9.09 1.78h.09a68.6 68.6 0 0 1 11.73 4.12s5.74-19.31 26.18-20.84c7.16-.54 12.17 2.16 15.62 6.1 6.43 7.32 7.51 19 7.14 22.19-.57 5-2.07 20.27-21 24.48a75.18 75.18 0 0 0 1.4 11c1.07 4.5 9.29 13.87 7.57 27.64-1.72 13.77-7.86 24.32-19.67 31.4a.12.12 0 0 1-.07.05l.18.19c.31.36 1 1.12 1.93 2.24 5.54 6.6 20.65 25.59 29.44 46.37 9.44 22.38 9.26 37.85 9 41.58 0 .58-.06.87-.06.87a8.71 8.71 0 0 1 5.92 6s9.94-14.26 20.26-7.95c10.32 6.31 6.34 21.22 6.34 21.22s7.35 12.09-4.7 34.84z"/></g><g opacity=".2"><path d="M265 286.88c-.94 29.73-14.31 48.49-30.47 57.68-.29-.19-.81 1.1-1.1.9a27.55 27.55 0 0 1-2.66 1 63.6 63.6 0 0 1-10.56 2.44c5.8-5.33 18.13-18.11 22.91-34.12 6.34-21.24 6.34-52.64 3.17-73.56s-10.46-45.67-10.46-45.67l9-1.69s21.44 53.07 20.17 93.02z"/></g><g opacity=".6"><path fill="#fff" d="M181.932 274.603s-5.79-6.22-9.86-8.36l1.07 4.29s-13.93-4.08-27.43 10.29c0 0-10.08-13.29-18-8.58-7.92 4.71-1.5 14.58-1.5 14.58l-4.71-3s1.5 8.14 6 11.14c0 0-11.36 22.94-8.36 49.3 0 0-8.18-24 1.69-47.45 0 0-9.66-17.59 2.15-27.83 11.81-10.24 22.11 6.02 22.11 6.02s10.91-17.19 25.27-13.3c10.29 2.83 11.57 12.9 11.57 12.9z"/></g><g opacity=".2"><path d="M293.21 279.84c-2.07-.39-5.84.51-8.8 3.21a117.42 117.42 0 0 1-20 14.58s1.52-28.92-2.19-46.48c-3.71-17.56-19.58-56-19.58-56l11.47-3.55c5.54 6.6 20.65 25.59 29.44 46.37 9.45 22.36 9.87 38.14 9.66 41.87z"/></g><g opacity=".2"><path d="M308.74 351.72c-6.51 5.55-16.19 10-22.65 10.5-11.29.77-32.38-2.61-52.65-16.76a27.55 27.55 0 0 1-2.66 1l-.14-.18s15.1-6.21 23.67-18.94l-1.48 7.4s28.22-3.63 36.21-11.91c-.04 0-1.04 35.4 19.7 28.89z"/></g><g opacity=".6"><path fill="#fff" d="M175.59 193.53s-16.83 0-25.78-5.15c0 0-20.35 19.8-30.93 38-10.58 18.2-12.48 29.3-12.48 29.3l-2.71-11.94A172.37 172.37 0 0 0 95 266.55c-2.41 8-3.53 16.31-6.49 24.11-2.82 7.43-7.62 14-12.54 20.19-.18-1.34-.29-2.65-.36-3.89-.58-10.89 2.49-29.82 8.22-47.4s23.32-40.92 38.05-54.11C136.61 192.26 146 187 146 187s-7.79-16.86-8.57-34.43l.46-10.36s5-30.93 15.82-39.89l2.31 1.73s-1.36 7.59 7.33 25.5c0 0-8.42-4.07-10-7.88a63.39 63.39 0 0 0 5.65 13.85s-2.84 1.41-7.4-2.05c-.04 0-2.6 45.96 23.99 60.06z"/></g><g opacity=".6"><path fill="#fff" d="M166.78 97.567l-9.59-7.24-.2 5.48s-9.21-10.77-15.47-12.53l3.12 4.68c-.59-.21-17.47-6.3-34.45 3.62a24.16 24.16 0 0 1 4.21-6.77c7.46-8.41 24.91-16.08 46.33 4l.46-.2.49 1.73z"/></g><g opacity=".2"><path d="M124.133 93.655s-8.2 6.45-7.81 15.42l4.1-4.88a35.44 35.44 0 0 0 .59 15l1.75-4.88s2.93 13.46 17.18 15.61c0 0 5.58-20.44 14-27.86-.03.04-15.94-11.92-29.81-8.41z"/></g><g opacity=".2"><path d="M283.79 94.557c-.57 5-2.07 20.27-21 24.48a75.18 75.18 0 0 0 1.4 11c1.07 4.5 9.29 13.87 7.57 27.64-1.72 13.77-7.86 24.32-19.67 31.4 11.88-33.19-9.68-49.43-14.6-53.29-4.92-3.86-4.74-7.31-4.74-16.13S228 99.417 228 99.417c-4.14-11-10.67-16.16-14.08-18.21a15.16 15.16 0 0 0-2.26-1.15 61 61 0 0 1 11.34 2.94h.09c8.68 2.86 18.22 6.75 18.22 6.75 13.18-17.36 27.7-18.37 35.31-17.37 6.46 7.31 7.54 18.95 7.17 22.18z"/></g><g opacity=".4"><path d="M145.82 290.909s14.22-8.09 23.41-2.5 14.24 15.86 12.8 29.92c-1.44 14.06-11.36 41.67-35.51 39.83-24.15-1.84-22-26.13-20.91-32.62 1.09-6.49 6.72-26.9 20.21-34.63z"/></g><g opacity=".4"><path d="M325.873 301.453s-7-14.24-16.51-10.32c-9.51 3.92-20.22 18.37-20 33.43.22 15.06 2.89 23.31 10.73 27.44 7.84 4.13 16.09-8.87 16.09-8.87s14.23-25.59 9.69-41.68z"/></g><g><path fill="none" stroke="#263238" stroke-linecap="round" stroke-linejoin="round" stroke-miterlimit="20" d="M202.9 80a85 85 0 0 1 17.83 2.18c18.59 4.32 38.08 16.73 41.75 36.66.68 3.69.74 7.6 1.69 11.21 1.75 6.61 6.05 12 7.28 18.8 3.21 17.71-9.21 41.57-28.8 42.91"/></g><g><path fill="none" stroke="#263238" stroke-linecap="round" stroke-linejoin="round" stroke-miterlimit="20" d="M160.83 89a102.21 102.21 0 0 1 24.67-7.68"/></g><g><path fill="#263238" d="M220 135.67c0 2.67-1.13 4.84-2.52 4.84-1.39 0-2.51-2.17-2.51-4.84s1.12-4.84 2.51-4.84c1.39 0 2.52 2.17 2.52 4.84z"/></g><g><path fill="#263238" d="M251.32 131.61c0 2.67-1.12 4.83-2.51 4.83-1.39 0-2.52-2.16-2.52-4.83s1.13-4.84 2.52-4.84c1.39 0 2.51 2.16 2.51 4.84z"/></g><g><path fill="#263238" d="M236.804 140.53a2.52 2.52 0 0 0-1.36 3.79c1.81 2.79 5.12 7 8.84 7.1 5.62.24 6.56-9.13 5.39-10.77-.96-1.33-8.09-1.58-12.87-.12z"/></g><g><path fill="none" stroke="#263238" stroke-linecap="round" stroke-linejoin="round" stroke-miterlimit="20" d="M106.711 221.1c-19.66 23.61-32 53.61-31.15 84.74.14 4.72.51 9.76 2.4 14.14 6.1 14.1 13.34 13.72 19.44 9.91 6.1-3.81 6.85-26.67 6.85-26.67v0s3 8.38 8.77 9.52a5.37 5.37 0 0 0 4.13-1.35"/></g><g><path fill="none" stroke="#263238" stroke-linecap="round" stroke-linejoin="round" stroke-miterlimit="20" d="M137.75 142.86C135.26 164.48 146 187 146 187c-.2-.41-25 19.21-27.27 21.32l-2.37 2.28v0"/></g><g><path fill="none" stroke="#263238" stroke-linecap="round" stroke-linejoin="round" stroke-miterlimit="20" d="M232.41 138.507a15.62 15.62 0 0 1 13.93-1.76"/></g><g><path fill="none" stroke="#263238" stroke-linecap="round" stroke-linejoin="round" stroke-miterlimit="20" d="M258 66.451a23.07 23.07 0 0 1 5-.39c18.47.7 24.24 25.16 18.63 39.5-3.22 8.2-10.63 12.05-19.12 13.25"/></g><g><path fill="none" stroke="#263238" stroke-linecap="round" stroke-linejoin="round" stroke-miterlimit="20" d="M235.46 87.25c1.31-6.85 6.31-13 12.59-16.87"/></g><g><path fill="none" stroke="#263238" stroke-linecap="round" stroke-linejoin="round" stroke-miterlimit="20" d="M253 100.1s5.15-23.47 21.76-18.7"/></g><g><path fill="none" stroke="#263238" stroke-linecap="round" stroke-linejoin="round" stroke-miterlimit="20" d="M256.61 91.509v0s13.59-3 15.69 6.87c2.1 9.87-11.74 12.92-11.74 12.92v0"/></g><g><path fill="none" stroke="#263238" stroke-linecap="round" stroke-linejoin="round" stroke-miterlimit="20" d="M247.88 72.33s0-3.82 1.52-5.5"/></g><g><path fill="none" stroke="#263238" stroke-linecap="round" stroke-linejoin="round" stroke-miterlimit="20" d="M252.696 65.82a9.7 9.7 0 0 0-1 4.64"/></g><g><path fill="none" stroke="#263238" stroke-linecap="round" stroke-linejoin="round" stroke-miterlimit="20" d="M257.135 64.32a9.76 9.76 0 0 0-.74 4.21"/></g><g><path fill="none" stroke="#263238" stroke-linecap="round" stroke-linejoin="round" stroke-miterlimit="20" d="M238.22 136a7.81 7.81 0 0 1-1.28-.78"/></g><g><path fill="none" stroke="#263238" stroke-dasharray="3.038 3.038" stroke-linecap="round" stroke-linejoin="round" stroke-miterlimit="20" d="M234.8 133.11a9.84 9.84 0 0 1-1.82-6.18c.19-6.39-1.2-37.85-20.44-45.52"/></g><g><path fill="none" stroke="#263238" stroke-linecap="round" stroke-linejoin="round" stroke-miterlimit="20" d="M211.11 80.895c-.48-.15-1-.29-1.45-.41"/></g><g><path fill="none" stroke="#263238" stroke-linecap="round" stroke-linejoin="round" stroke-miterlimit="20" d="M133.413 76a27 27 0 0 0-3.82.45c-20.79 3.93-28.88 27.22-16.57 49.43 7.69 13.9 20.67 16.5 28.42 16.69"/></g><g><path fill="none" stroke="#263238" stroke-linecap="round" stroke-linejoin="round" stroke-miterlimit="20" d="M164.7 94.43A49.75 49.75 0 0 0 149 79.91"/></g><g><path fill="none" stroke="#263238" stroke-linecap="round" stroke-linejoin="round" stroke-miterlimit="20" d="M158.59 106.35s-20.69-23.6-43-8.53"/></g><g><path fill="none" stroke="#263238" stroke-linecap="round" stroke-linejoin="round" stroke-miterlimit="20" d="M139.81 94.43s-17.71 15.85 1.19 30.65"/></g><g><path fill="none" stroke="#263238" stroke-linecap="round" stroke-linejoin="round" stroke-miterlimit="20" d="M140 132.32s1.2-18.17 13.87-30.11"/></g><g><path fill="none" stroke="#263238" stroke-linecap="round" stroke-linejoin="round" stroke-miterlimit="20" d="M142.74 75.18a10 10 0 0 1 1.94 4.69"/></g><g><path fill="none" stroke="#263238" stroke-linecap="round" stroke-linejoin="round" stroke-miterlimit="20" d="M145.89 74.89a10.6 10.6 0 0 1 1.46 5.74"/></g><g><path fill="none" stroke="#263238" stroke-linecap="round" stroke-linejoin="round" stroke-miterlimit="20" d="M136.4 73.84a8.24 8.24 0 0 1 3 5.28"/></g><g><path fill="none" stroke="#263238" stroke-linecap="round" stroke-linejoin="round" stroke-miterlimit="20" d="M158.81 189.86s37.85 12.21 71.12 4.89"/></g><g><path fill="none" stroke="#263238" stroke-linecap="round" stroke-linejoin="round" stroke-miterlimit="20" d="M183.25 345.86c24.61 6.91 38.26 5.37 53.27-2.59 17.34-9.21 25.79-28 28.06-46.77 4.16-34.64-7.51-70.77-19.7-102.64"/></g><g><path fill="none" stroke="#263238" stroke-dasharray="3 3" stroke-linecap="round" stroke-linejoin="round" stroke-miterlimit="20" d="M219.59 348.63c0 .24 50.91-25.67 17.36-151.44"/></g><g><path fill="none" stroke="#263238" stroke-linecap="round" stroke-linejoin="round" stroke-miterlimit="20" d="M234.05 345.231v0s30.36 22.93 59.05 15.85c28.69-7.08 38.83-55.51 31.94-61.42 0 0 2.6-21.86-10.06-22.39-12.66-.53-16.48 9.16-16.48 9.16v0s-2.35-8.47-9-6c-6.65 2.47-17.19 14-24.11 16.82"/></g><g><path fill="none" stroke="#263238" stroke-linecap="round" stroke-linejoin="round" stroke-miterlimit="20" d="M321.533 296.903c-3.74-7.28-10.57-6.74-16.44-3.54-5.87 3.2-9.78 9.13-12.19 15.36a49.81 49.81 0 0 0-1.18 32.28 20.28 20.28 0 0 0 4.38 8.29c2.18 2.28 5.46 3.71 8.54 3a17.26 17.26 0 0 0 6.75-3.51"/></g><g><path fill="none" stroke="#263238" stroke-dasharray="3 3" stroke-linecap="round" stroke-linejoin="round" stroke-miterlimit="20" d="M245.2 344.12s18.54 11.44 46.68 1.19"/></g><g><path fill="none" stroke="#263238" stroke-dasharray="3 3" stroke-linecap="round" stroke-linejoin="round" stroke-miterlimit="20" d="M81.77 326.21c2.51-.38 4.45-2.37 6-4.36 8.46-10.68 12-24.31 15.39-37.51 1 1.24 2.87.23 4.07-.86 4.25-3.85 6-9.67 7.66-15.15 4.58-14.74 10.4-29.21 18.81-42.16 8.41-12.95 19.52-24.37 33.11-31.7"/></g><g><path fill="none" stroke="#263238" stroke-linecap="round" stroke-linejoin="round" stroke-miterlimit="20" d="M251.93 189.58s39.38 39.92 40.93 89.42"/></g><g><path fill="none" stroke="#263238" stroke-linecap="round" stroke-linejoin="round" stroke-miterlimit="20" d="M120.83 296.808v0s-19.63 57.43 21 68.14c40.63 10.71 53.88-46.74 51.73-54.59 0 0 15-8.56 8.92-20.33-4.76-9.25-18.55-4.28-18.55-4.28v0s1.07-20.7-14.62-24.26c-15.69-3.56-24.22 13.51-24.22 13.51v0s-11.22-14.12-22.09-6c-12.52 9.25-2.17 27.81-2.17 27.81z"/></g><g><path fill="none" stroke="#263238" stroke-linecap="round" stroke-linejoin="round" stroke-miterlimit="20" d="M133.357 304.004c-7.54 12.48-10.8 29.62-5.84 40.91a22.71 22.71 0 0 0 13.9 12.38c25 7.72 40.31-21.44 40.8-41.77.16-6.93-.73-14.16-4.47-20-6.91-10.82-21.82-10.47-31.93-4.61-.63.36-1.25.76-1.86 1.19"/></g><g><path fill="none" stroke="#263238" stroke-linecap="round" stroke-linejoin="round" stroke-miterlimit="20" d="M138.18 268.18s3.7-27.3 17.12-53.67"/></g><g><path fill="none" stroke="#263238" stroke-linecap="round" stroke-linejoin="round" stroke-miterlimit="20" d="M108.79 213.005a16.77 16.77 0 0 1 11.1-.95"/></g><g><path fill="none" stroke="#263238" stroke-linecap="round" stroke-linejoin="round" stroke-miterlimit="20" d="M107.16 216.998a14.69 14.69 0 0 1 6.78-.42"/></g><g><path fill="none" stroke="#263238" stroke-linecap="round" stroke-linejoin="round" stroke-miterlimit="20" d="M137.35 291.87a28.1 28.1 0 0 1 6.67 2.61"/></g><g><path fill="none" stroke="#263238" stroke-linecap="round" stroke-linejoin="round" stroke-miterlimit="20" d="M137.58 295.48a27.56 27.56 0 0 1 4.52 1.42"/></g><g><path fill="none" stroke="#263238" stroke-linecap="round" stroke-linejoin="round" stroke-miterlimit="20" d="M132 302.335l3.75.13"/></g><g><path fill="#263238" d="M231.602 195.662s-1 6.74 4 7.09c5 .35 11.24-.35 9.69-7.09-1.55-6.74-11.29-3.11-13.69 0z"/></g><g><path fill="#263238" d="M185.08 206.41s2 15 11.76 16.36c9.76 1.36 38.22-24.47 38.22-24.47l.69-5.09z"/></g><g><path fill="#263238" d="M235.752 193.21s-43.15 20.6-50.15 13.89c-7-6.71 50.4-14.1 50.4-14.1z"/></g><g><path fill="#263238" d="M185.08 206.41s2 15 11.76 16.36c9.76 1.36 38.22-24.47 38.22-24.47l.69-5.09z"/></g><g opacity=".2"><path d="M235.752 193.21s-43.15 20.6-50.15 13.89c-7-6.71 50.4-14.1 50.4-14.1z"/></g><g><path fill="#263238" d="M241.53 191.19l-.95 3.94s15.68 14.82 32.57 18.43c16.89 3.61 11.2-18.09 11.2-18.09z"/></g><g><path fill="#263238" d="M241.53 191.19l-.95 3.94s15.68 14.82 32.57 18.43c16.89 3.61 11.2-18.09 11.2-18.09z"/></g><g><path fill="#263238" d="M241.53 191.189s34.93 11.32 41.77 6.44"/></g><g opacity=".2"><path d="M241.53 191.189s34.93 11.32 41.77 6.44"/></g><g><path fill="#263238" d="M234.66 198.89s-7.54 29.17-13.55 42.16l15.46 9.44s6-37.79 1.89-52.71z"/></g><g><path fill="#263238" d="M238.18 199.163s13.9 31.25 14.48 54.87l15.24-12.38s-16.77-40.39-26.1-45c-9.33-4.61-3.62 2.51-3.62 2.51z"/></g><g opacity=".2"><path d="M252.055 189.155l.18.19-.23-.05s0-.09.05-.14z"/></g><g><path fill="none" stroke="#263238" stroke-linecap="round" stroke-linejoin="round" stroke-miterlimit="20" d="M185.17 77.55a9.1 9.1 0 0 1 4.81 5.26"/></g><g><path fill="none" stroke="#263238" stroke-linecap="round" stroke-linejoin="round" stroke-miterlimit="20" d="M190.31 77.62a26.32 26.32 0 0 1 2.94 4.37"/></g><g><path fill="none" stroke="#263238" stroke-linecap="round" stroke-linejoin="round" stroke-miterlimit="20" d="M196.66 77.24a23 23 0 0 1 2.31 5.83"/></g><g opacity=".2"><path d="M168.22 193.51c-20.28 21.58-30.5 74.62-30.5 74.62s-8.14-6.06-16.76 2.08c-9.2 8.68-.14 26.6-.14 26.6l-4.3 20.08s-.09.23-.29.65c.28-3.22.64-5.21.64-5.21s-8 3.11-12.22-8.23c0 0-.37 24.78-11.23 27.37-5.23 1.24-9.11-1-11.89-4.75 13.13-4.94 21.66-42.38 21.66-42.38 10.2-.23 17.09-34.25 24.47-48.14 14.66-27.58 39.86-42.3 40.56-42.69z"/></g><g opacity=".2"><path d="M172.65 262.58s14.59 2.63 16.92 15.18c0 0 11.38-5.84 18.68 3.79 7.3 9.63 5.54 22.18-4.38 30.35 0 0-1.75 24.22-14.88 35.3l-5.74-1.34s10.3-22.44 10.35-35.5c0 0 12-6.93 9.11-19.18-2.89-12.25-18.71-5.43-18.71-5.43s-.26-16.46-11.35-23.17z"/></g></g></g></g></svg>