<?xml version="1.0" encoding="UTF-8"?>
<svg width="209px" height="153px" viewBox="0 0 209 153" version="1.1" xmlns="http://www.w3.org/2000/svg" xmlns:xlink="http://www.w3.org/1999/xlink">
    <title>we care copy</title>
    <g id="Page-1" stroke="none" stroke-width="1" fill="none" fill-rule="evenodd">
        <g id="shopping-on-splitchek-copy" transform="translate(-1081.000000, -1543.000000)">
            <g id="introduction" transform="translate(150.000000, 895.000000)">
                <g id="we-care-copy" transform="translate(931.000000, 648.000000)">
                    <g id="Group-32" transform="translate(104.500000, 76.500000) scale(1, -1) rotate(10.000000) translate(-104.500000, -76.500000) translate(10.000000, 16.000000)">
                        <path d="M58.533755,98.31355 C58.445755,96.02855 62.381755,95.26655 63.460755,97.84955 C65.090755,101.75255 66.258755,105.81155 67.350755,109.89355 C68.589755,105.93055 69.580755,101.88155 70.593755,97.86955 C70.793755,97.07855 71.467755,96.41455 72.253755,96.21055 C75.454755,95.37155 78.702755,94.72855 81.981755,94.28755 C94.275755,92.63455 106.672755,92.97455 119.034755,92.33455 C130.125755,91.76255 141.683755,90.52355 151.750755,85.48055 C159.986755,81.35355 167.454755,75.53655 173.349755,68.43955 C178.859755,61.80755 183.359755,53.47955 183.564755,44.67355 C183.950755,28.09455 170.346755,16.07655 155.918755,10.67155 C140.609755,4.93454999 123.909755,3.61654999 107.685755,4.07254999 C90.326755,4.56254999 72.945755,7.06354999 56.185755,11.63355 C48.908755,13.61555 41.676755,15.94755 34.767755,18.99655 C28.712755,21.66855 22.508755,24.77155 17.619755,29.31355 C5.69375504,40.39355 -0.343244958,59.51455 6.89675504,74.81455 C11.201755,83.91355 19.209755,89.87655 28.726755,92.83255 C38.444755,95.85055 48.686755,96.00755 58.533755,98.31355" id="Fill-41" fill="#FFFFFF"></path>
                        <path d="M6.89675504,74.81455 C-0.343244958,59.51455 5.69375504,40.39355 17.619755,29.31355 C22.508755,24.77155 28.712755,21.66855 34.767755,18.99655 C41.676755,15.94755 48.908755,13.61555 56.185755,11.63355 C72.945755,7.06354999 90.326755,4.56254999 107.685755,4.07254999 C123.909755,3.61654999 140.609755,4.93454999 155.918755,10.67155 C170.346755,16.07655 183.950755,28.09455 183.564755,44.67355 C183.359755,53.47955 178.859755,61.80755 173.349755,68.43955 C167.454755,75.53655 159.986755,81.35355 151.750755,85.48055 C141.683755,90.52355 130.125755,91.76255 119.034755,92.33455 C106.672755,92.97455 94.275755,92.63455 81.981755,94.28755 C78.702755,94.72855 75.454755,95.37155 72.253755,96.21055 C71.467755,96.41455 70.793755,97.07855 70.593755,97.86955 C69.580755,101.88155 68.589755,105.93055 67.350755,109.89355 C66.258755,105.81155 65.090755,101.75255 63.460755,97.84955 C62.381755,95.26655 58.445755,96.02855 58.533755,98.31355 C48.686755,96.00755 38.444755,95.85055 28.726755,92.83255 C19.209755,89.87655 11.201755,83.91355 6.89675504,74.81455 Z M59.347755,100.68855 C61.597755,106.47155 62.962755,112.55455 64.660755,118.51455 C65.375755,121.01855 68.447755,120.59555 69.318755,118.51455 C71.756755,112.69355 73.330755,106.57455 74.848755,100.46255 C98.298755,94.68855 123.252755,100.03755 146.513755,92.80355 C163.657755,87.47255 179.489755,73.78655 186.177755,57.03055 C189.515755,48.66855 189.697755,39.21455 186.098755,30.91655 C182.793755,23.29755 176.904755,17.06855 169.956755,12.63255 C157.131755,4.44254999 141.278755,1.68454999 126.366755,0.520549988 C108.896755,-0.845450012 91.191755,0.575549988 73.967755,3.63054999 C58.611755,6.35354999 43.208755,10.49755 29.127755,17.30755 C22.749755,20.39155 16.774755,24.18955 11.978755,29.46855 C6.31575504,35.70055 2.46175504,43.56355 0.822755042,51.80855 C-0.787244958,59.90655 -0.0572449582,68.25655 3.21475504,75.84455 C6.83875504,84.25355 13.988755,90.67455 22.352755,94.17155 C34.197755,99.12655 46.924755,98.68655 59.347755,100.68855 L59.347755,100.68855 Z" id="Fill-42" fill="#000000"></path>
                    </g>
                    <path d="M46.5680131,72.227145 C46.5680131,79.9382492 46.5860638,87.7268191 45.807801,95.413308 C44.8393115,92.990149 44.4463617,90.2151362 44.1027041,87.7463665 C43.5563234,83.8281903 43.4389938,79.8600594 43.0863109,75.9208877 C42.9419053,74.3165494 40.7785984,74.2883142 40.6744598,75.9208877 C40.2606822,82.3947111 41.0451934,88.9995748 40.3696807,95.4567467 C38.1084834,87.8173165 36.6734528,79.8977063 35.5563922,72.0077793 C35.4265661,71.0926694 33.8978107,71.3069672 34.0054206,72.227145 C35.1106788,81.7199624 36.6692873,91.167893 39.6948622,100.223427 C40.017692,101.186319 41.4443915,101.328943 41.7033496,100.223427 C42.1976611,98.1079591 42.4850838,95.9693241 42.6510114,93.8169335 C43.2730662,96.1575587 44.2082313,98.393931 45.7119934,100.248766 C46.2812847,100.948854 47.6934048,100.629579 47.8190654,99.6681347 C49.0118001,90.5894335 49,81.3739002 49,72.227145 C49,70.5909517 46.5680131,70.5909517 46.5680131,72.227145" id="Fill-156" fill="#000000"></path>
                    <path d="M65.4948814,94.7663074 C63.7450215,96.0052467 61.9507763,96.6652611 59.9090489,96.591483 C59.8619735,93.0667539 59.7288174,89.5446834 59.5869187,86.0226129 C60.3744229,86.0724629 61.1666346,86.0877503 61.9393437,86.1229776 C63.503592,86.1954263 65.0819629,86.4254011 66.5406278,85.7959615 C67.5769591,85.3479759 67.5769591,83.541411 66.5406278,83.0934254 C65.0819629,82.4646504 63.503592,82.6939605 61.9393437,82.7657446 C61.1316643,82.8029659 60.3017922,82.8189179 59.4773002,82.87475 C59.3972721,80.1117292 59.3192614,77.2961997 58.9487107,74.5677417 C59.2950512,74.543149 59.6427366,74.513239 59.9910946,74.477347 C61.1740322,74.3577069 62.5042485,74.4647183 63.623298,74.0606007 C65.0019347,73.5607712 65.0712028,71.7010329 63.623298,71.2251313 C61.913116,70.6654817 59.802793,71.2783046 57.8908592,71.6677995 C57.5498988,71.5740815 57.1611905,71.6352308 56.8874807,71.8479243 C56.693799,71.8758403 56.5007899,71.900433 56.3145058,71.9170496 C54.6090313,72.0632764 54.5485058,74.4161976 56.2183375,74.5976517 C55.8255942,78.1263688 56.0764388,81.8146061 56.1914373,85.3114192 C56.331991,89.5759227 56.4779247,93.8417556 56.4691821,98.1102471 C56.4685096,98.8201115 56.9930641,99.6236939 57.7395454,99.759286 C61.2231251,100.391384 64.3623818,99.8004954 67.2447413,97.7267343 C69.031589,96.441933 67.321407,93.4735301 65.4948814,94.7663074" id="Fill-27" fill="#000000"></path>
                    <g id="Group-33" transform="translate(80.000000, 70.000000)">
                        <path d="M26.4697876,16.0269878 C25.9770376,16.0708628 25.4876626,16.1289128 25.0030126,16.2112628 C25.3141876,14.2274378 25.6381876,12.2463128 25.9581376,10.2658628 C26.5008376,12.0114128 27.0698626,13.7502128 27.5646376,15.4977878 C27.6031126,15.6321128 27.6355126,15.7650878 27.6726376,15.8994128 C27.2534626,15.9399128 26.8444126,15.9939128 26.4697876,16.0269878 Z M30.9592126,16.3570628 C29.8015876,12.0174878 28.4623876,7.63403779 26.9065126,3.42136279 C26.3894626,2.02276279 24.3739126,2.23066279 24.2956126,3.77438779 C24.0701626,8.19968779 23.2696126,12.5426378 22.6708876,16.9065128 C22.5392626,16.9679378 22.4076376,17.0307128 22.2793876,17.1009128 C21.5078626,17.5234628 21.7528876,18.6277628 22.4116876,18.9166628 C22.0606876,21.8853128 21.8568376,24.8701628 22.0471876,27.9029378 C22.1086126,28.8587378 23.4464626,28.8479378 23.5240876,27.9029378 C23.7778876,24.8107628 24.1754626,21.7266878 24.6317626,18.6459878 C25.3857376,18.5933378 26.1592876,18.6210128 26.8741126,18.6162878 C27.3506626,18.6129128 27.8629876,18.6574628 28.3726126,18.6675878 C29.1151126,21.9372878 29.5747876,25.2191378 29.7671626,28.6123628 C29.8771876,30.5806628 32.7790126,30.6002378 32.8363876,28.6123628 C32.9558626,24.4786628 32.0196376,20.3267378 30.9592126,16.3570628 L30.9592126,16.3570628 Z" id="Fill-197" fill="#0B0212"></path>
                        <path d="M43.1323035,5.22697498 C43.431374,4.99204034 43.7398131,4.7693569 44.0705923,4.57405848 C44.2046336,4.49334474 44.3184966,4.46019445 44.4064161,4.44001602 C44.429477,4.59495757 44.4662302,4.7989039 44.4647889,4.96321401 C44.4597444,5.6716212 44.2536379,6.3800284 44.0684304,7.05672663 C43.793862,8.06420705 43.4825403,9.07384946 43.122935,10.0676374 C43.0595176,8.45336258 43.0465459,6.83260187 43.1323035,5.22697498 Z M53.36412,26.3552376 C53.1162157,25.2338932 52.2968344,24.5543123 51.5041173,23.7788839 C50.5009697,22.7959058 49.4689961,21.8460781 48.4067552,20.9279593 C46.9063578,19.6322155 45.309393,18.4395259 43.594962,17.4471793 C43.5697392,17.1329722 43.545237,16.8180445 43.5214555,16.5031168 C45.6243179,13.2745672 47.1103023,9.33184516 47.2011044,5.63126433 C47.237137,4.151032 46.9467143,2.46036743 45.3857821,1.90473981 C44.7307095,1.66980517 44.066989,1.81393685 43.4371392,2.15120498 C43.4760544,1.89248862 43.5178523,1.63593423 43.5646946,1.3801005 C43.7722424,0.235694981 42.2033831,-0.597386116 41.5915496,0.547019405 C39.3308644,4.77728414 39.445448,10.072682 39.6537164,14.7367831 C39.6760567,15.2434059 39.7048827,15.7514701 39.7337088,16.2566516 C39.6407447,16.367633 39.5506632,16.4793351 39.4555372,16.5888751 C38.8278493,17.3008856 38.7701971,18.6845497 39.7841545,19.1407265 C39.8324381,19.1623462 39.8800012,19.1868486 39.9275642,19.2084684 C40.0111598,20.3528739 40.0990794,21.4958381 40.1877195,22.639523 C40.3556315,24.8202352 40.3599554,27.046349 40.6655118,29.2097655 C40.9898052,31.5050624 44.2550792,30.6921598 44.4381248,28.6988187 C44.6204498,26.7242147 44.2341803,24.6083617 44.0532967,22.639523 C44.021588,22.2813557 43.9877173,21.9246298 43.955288,21.5671833 C44.688191,22.0903813 45.4016365,22.6510535 46.096345,23.2383901 C47.0360751,24.0347176 47.9318455,24.8829325 48.8182474,25.7369127 C49.7183417,26.6031441 50.5081763,27.6610706 51.777965,27.9435687 C52.7616549,28.1612075 53.5839188,27.339657 53.36412,26.3552376 L53.36412,26.3552376 Z" id="Fill-56" fill="#000000"></path>
                        <path d="M71.1826999,23.8246785 C67.8441064,24.389509 64.48212,24.9300917 61.0974719,25.1518875 C60.5908712,22.2835186 60.239979,19.3766385 60.0338298,16.455495 C61.0770032,16.5760207 62.1245627,16.6694459 63.1713913,16.7357707 C64.8893013,16.8477383 67.1423219,17.257811 68.7761639,16.6580352 C70.2469873,16.1181656 70.2469873,14.2810402 68.7761639,13.7411707 C67.1423219,13.1421081 64.8893013,13.5521807 63.1713913,13.6641483 C62.0770461,13.7333258 60.9819699,13.8331696 59.8912798,13.960827 C59.7458057,10.5333329 59.8013637,7.0972808 60.0426021,3.69260817 C61.2970419,3.82739726 62.5536747,3.91369081 63.820542,3.9964185 C65.5530724,4.11123884 67.6628121,4.38652238 69.0378711,3.18697078 C69.4106941,2.86390486 69.4106941,2.19709109 69.0378711,1.87188566 C67.7505351,0.748643221 66.0933003,1.0253531 64.4704236,1.04175601 C62.4286694,1.06101159 60.3737566,1.2735362 58.3597813,1.57877287 C57.4481925,1.71784098 57.3948276,3.14774644 58.1982247,3.43871972 C57.4167584,7.06875401 57.1499341,10.7979189 57.23254,14.5342155 C56.9079647,14.9121955 56.9225852,15.5725907 57.2800566,15.9213308 C57.4452684,19.6426508 57.9270142,23.3589786 58.5586203,26.9711837 C58.66535,27.5809439 59.3415486,27.9724741 59.926369,27.9881638 C64.0091465,28.093713 68.0100492,27.4753947 72.0372688,26.8485185 C74.0687887,26.5325843 73.217144,23.4795043 71.1826999,23.8246785" id="Fill-57" fill="#000000"></path>
                        <path d="M14.1301463,21.924207 C13.5907527,24.3347476 12.9001148,28.4457833 9.49042453,27.4573412 C6.43274549,26.5726287 4.44113839,22.8745034 3.53367225,20.0965595 C2.25277979,16.1762522 2.61482933,11.9012569 4.64859746,8.32359172 C5.56208661,6.71678775 6.73456498,5.19631351 8.26574678,4.13626457 C10.0519025,2.89954081 10.9412996,5.48006398 11.4519166,6.79843293 C11.7249595,7.50780911 12.9563295,7.48438631 12.8807073,6.60569676 C12.6939941,4.45013007 11.9437954,1.76386969 9.43287137,1.4326044 C7.13877556,1.12944646 5.23149054,2.99858579 3.91178314,4.62145111 C0.301326057,9.05705993 -0.865798532,14.6410551 0.643968139,20.1614741 C1.75889335,24.237041 4.68272783,28.8667245 9.017284,30.0104263 C13.7145589,31.2484885 16.2750054,26.165072 16.4724262,22.2414186 C16.5393484,20.8976192 14.4246043,20.6145379 14.1301463,21.924207" id="Fill-11" fill="#000000"></path>
                    </g>
                    <path d="M176.076744,83.1408828 C175.294888,85.8306898 174.388939,88.4928642 173.911934,91.241572 C172.536871,88.5575825 170.948052,85.9935762 169.920879,83.1103416 C168.963285,80.4278064 168.268221,77.3147857 168.917377,74.4940879 C169.164846,74.8184063 169.425225,75.1376346 169.695647,75.4554085 C170.54493,76.4509061 171.59936,77.3496899 172.229867,78.512437 C172.718348,79.4134023 174.119951,79.4264914 174.604128,78.512437 C175.241808,77.311877 176.251048,76.2225743 177.116829,75.0707348 C177.51493,77.7379994 176.843538,80.4990692 176.076744,83.1408828 Z M178.560036,70.6989805 C177.869276,69.3828003 176.068854,70.0997912 175.977757,71.4086997 C175.911048,72.3452965 174.814297,73.4709578 174.288517,74.1784955 C173.984382,74.587893 173.665901,74.9900188 173.356027,75.3986891 C172.126576,74.0156091 170.649656,72.7939612 169.997631,71.040751 C169.593791,69.9550841 168.148432,69.6125864 167.50358,70.709888 C165.268474,74.5137215 165.843749,79.0570883 167.172188,83.0761646 C168.475521,87.0203422 170.552103,91.5011722 173.58628,94.3887698 C173.584128,94.4629413 173.579107,94.5363856 173.57839,94.6098299 C173.550415,96.4648441 176.390204,96.4619354 176.412441,94.6098299 C176.509993,86.5222298 182.736154,78.6644158 178.560036,70.6989805 L178.560036,70.6989805 Z" id="Fill-35" fill="#000000"></path>
                </g>
            </g>
        </g>
    </g>
</svg>