<svg xmlns="http://www.w3.org/2000/svg" width="120" height="107" viewBox="0 0 120 107"><g><g><g><g><path fill="#adc7f7" d="M112.31 60.106c-1.733-1.338-3.502-2.634-4.544-4.568-5.277-9.788 5.709-21.238-.389-31.844-3.094-5.38-9.197-9.318-15.152-7.082-6.348 2.387-12.34 4.879-19.167 2.906C61.114 16.06 54.911-.12 41.9.153 31.22.375 19.333 11.614 25.51 23.278c4.681 8.825 1.756 16.128-9.069 17.65C5.616 42.447.961 55.22 4.17 60.707c3.208 5.486 9.358 11.258 3.508 13.692C1.827 76.834-.22 84.745.367 90.218c.585 5.472 1.752 7.606 1.752 7.606h112.283s4.737-6.086 5.32-20.08c.255-6.067-1.003-12.008-5.592-16.157a33.822 33.822 0 0 0-1.82-1.481z"/></g><g opacity=".7"><path fill="#fff" d="M112.31 60.106c-1.733-1.338-3.502-2.634-4.544-4.568-5.277-9.788 5.709-21.238-.389-31.844-3.094-5.38-9.197-9.318-15.152-7.082-6.348 2.387-12.34 4.879-19.167 2.906C61.114 16.06 54.911-.12 41.9.153 31.22.375 19.333 11.614 25.51 23.278c4.681 8.825 1.756 16.128-9.069 17.65C5.616 42.447.961 55.22 4.17 60.707c3.208 5.486 9.358 11.258 3.508 13.692C1.827 76.834-.22 84.745.367 90.218c.585 5.472 1.752 7.606 1.752 7.606h112.283s4.737-6.086 5.32-20.08c.255-6.067-1.003-12.008-5.592-16.157a33.822 33.822 0 0 0-1.82-1.481z"/></g></g><g><g><path fill="#adc7f7" d="M59.388 106.778c11.69 0 21.168-.987 21.168-2.204s-9.478-2.204-21.168-2.204-21.168.987-21.168 2.204 9.477 2.204 21.168 2.204z"/></g><g opacity=".5"><path fill="#fff" d="M59.388 106.778c11.69 0 21.168-.987 21.168-2.204s-9.478-2.204-21.168-2.204-21.168.987-21.168 2.204 9.477 2.204 21.168 2.204z"/></g></g><g><g><path fill="none" stroke="#2e353a" stroke-miterlimit="20" stroke-width=".5" d="M107.233 86.298v0-3.383 0h-3.782v0-6.564 0h-5.434v0V49.69v0h-5.198v16.115h-4.726v0-5.769 0h-6.379v14.921h-2.599v4.775h-6.142v0-1.79 0h1.888v0-.995 0h-7.797v1.194h.947v5.173h-4.018v0-9.75 0H49.817v6.963H39.654v0-5.173 0h-3.78v5.771h-8.032v0V70.58v0h-3.308v0V67v0h-5.909v16.315H12.72v3.58H8.94v10.942h105.618v0-11.538 0h-7.325v0z"/></g><g><path fill="#2e353a" d="M19.67 70.53h1.277v1.275H19.67z"/></g><g><path fill="#2e353a" d="M22.33 70.53h1.277v1.275H22.33z"/></g><g><path fill="#2e353a" d="M19.67 73.19h1.277v1.275H19.67z"/></g><g><path fill="#2e353a" d="M22.33 73.19h1.277v1.275H22.33z"/></g><g><path fill="#2e353a" d="M25.21 73.19h1.277v1.275H25.21z"/></g><g><path fill="#2e353a" d="M25.21 75.84h1.277v1.275H25.21z"/></g><g><path fill="#2e353a" d="M25.21 78.5h1.277v1.275H25.21z"/></g><g><path fill="#2e353a" d="M25.21 81.15h1.277v1.275H25.21z"/></g><g><path fill="#2e353a" d="M25.21 83.81h1.277v1.275H25.21z"/></g><g><path fill="#2e353a" d="M25.21 86.47h1.277v1.275H25.21z"/></g><g><path fill="#2e353a" d="M19.67 75.84h1.277v1.275H19.67z"/></g><g><path fill="#2e353a" d="M22.33 75.84h1.277v1.275H22.33z"/></g><g><path fill="#2e353a" d="M19.67 78.5h1.277v1.275H19.67z"/></g><g><path fill="#2e353a" d="M22.33 78.5h1.277v1.275H22.33z"/></g><g><path fill="#2e353a" d="M19.67 81.15h1.277v1.275H19.67z"/></g><g><path fill="#2e353a" d="M22.33 81.15h1.277v1.275H22.33z"/></g><g><path fill="#2e353a" d="M19.67 83.81h1.277v1.275H19.67z"/></g><g><path fill="#2e353a" d="M13.82 85.3h1.277v1.275H13.82z"/></g><g><path fill="#2e353a" d="M32.24 82.43h1.277v1.275H32.24z"/></g><g><path fill="#2e353a" d="M34.79 82.43h1.277v1.275H34.79z"/></g><g><path fill="#2e353a" d="M93.67 51.19h1.277v1.275H93.67z"/></g><g><path fill="#2e353a" d="M95.27 51.19h1.277v1.275H95.27z"/></g><g><path fill="#2e353a" d="M93.67 53.85h1.277v1.275H93.67z"/></g><g><path fill="#2e353a" d="M95.27 53.85h1.277v1.275H95.27z"/></g><g><path fill="#2e353a" d="M93.67 56.5h1.277v1.275H93.67z"/></g><g><path fill="#2e353a" d="M95.27 56.5h1.277v1.275H95.27z"/></g><g><path fill="#2e353a" d="M93.67 59.16h1.277v1.275H93.67z"/></g><g><path fill="#2e353a" d="M95.27 59.16h1.277v1.275H95.27z"/></g><g><path fill="#2e353a" d="M93.67 61.82h1.277v1.275H93.67z"/></g><g><path fill="#2e353a" d="M95.27 61.82h1.277v1.275H95.27z"/></g><g><path fill="#2e353a" d="M93.67 64.47h1.277v1.275H93.67z"/></g><g><path fill="#2e353a" d="M95.27 64.47h1.277v1.275H95.27z"/></g><g><path fill="#2e353a" d="M93.67 67.13h1.277v1.275H93.67z"/></g><g><path fill="#2e353a" d="M95.27 67.13h1.277v1.275H95.27z"/></g><g><path fill="#2e353a" d="M93.67 69.79h1.277v1.275H93.67z"/></g><g><path fill="#2e353a" d="M95.27 69.79h1.277v1.275H95.27z"/></g><g><path fill="#2e353a" d="M93.67 72.44h1.277v1.275H93.67z"/></g><g><path fill="#2e353a" d="M95.27 72.44h1.277v1.275H95.27z"/></g><g><path fill="#2e353a" d="M82.81 72.44h1.277v1.275H82.81z"/></g><g><path fill="#2e353a" d="M85.58 72.44h1.277v1.275H85.58z"/></g><g><path fill="#2e353a" d="M88.35 72.44h1.277v1.275H88.35z"/></g><g><path fill="#2e353a" d="M82.81 78.18h1.277v1.275H82.81z"/></g><g><path fill="#2e353a" d="M85.58 78.18h1.277v1.275H85.58z"/></g><g><path fill="#2e353a" d="M88.35 78.18h1.277v1.275H88.35z"/></g><g><path fill="#2e353a" d="M82.81 83.91h1.277v1.275H82.81z"/></g><g><path fill="#2e353a" d="M85.58 83.91h1.277v1.275H85.58z"/></g><g><path fill="#2e353a" d="M88.35 83.91h1.277v1.275H88.35z"/></g><g><path fill="#2e353a" d="M93.67 75.1h1.277v1.275H93.67z"/></g><g><path fill="#2e353a" d="M95.27 75.1h1.277v1.275H95.27z"/></g><g><path fill="#2e353a" d="M93.67 77.75h1.277v1.275H93.67z"/></g><g><path fill="#2e353a" d="M95.27 77.75h1.277v1.275H95.27z"/></g><g><path fill="#2e353a" d="M93.67 80.41h1.277v1.275H93.67z"/></g><g><path fill="#2e353a" d="M95.27 80.41h1.277v1.275H95.27z"/></g><g><path fill="#2e353a" d="M97.93 77.75h1.277v1.275H97.93z"/></g><g><path fill="#2e353a" d="M100.91 77.75h1.277v1.275h-1.277z"/></g><g><path fill="#2e353a" d="M97.93 80.3h1.277v1.275H97.93z"/></g><g><path fill="#2e353a" d="M100.91 80.3h1.277v1.275h-1.277z"/></g><g><path fill="#2e353a" d="M97.93 82.85h1.277v1.275H97.93z"/></g><g><path fill="#2e353a" d="M100.91 82.85h1.277v1.275h-1.277z"/></g><g><path fill="#2e353a" d="M97.93 85.4h1.277v1.275H97.93z"/></g><g><path fill="#2e353a" d="M100.91 85.4h1.277v1.275h-1.277z"/></g><g><path fill="#2e353a" d="M93.67 83.07h1.277v1.275H93.67z"/></g><g><path fill="#2e353a" d="M95.27 83.07h1.277v1.275H95.27z"/></g><g><path fill="#2e353a" d="M93.67 85.72h1.277v1.275H93.67z"/></g><g><path fill="#2e353a" d="M95.27 85.72h1.277v1.275H95.27z"/></g><g><path fill="#2e353a" d="M22.33 83.81h1.277v1.275H22.33z"/></g><g><path fill="#2e353a" d="M19.67 86.47h1.277v1.275H19.67z"/></g><g><path fill="#2e353a" d="M22.33 86.47h1.277v1.275H22.33z"/></g><g><path fill="#2e353a" d="M19.67 89.12h1.277v1.275H19.67z"/></g><g><path fill="#2e353a" d="M22.33 89.12h1.277v1.275H22.33z"/></g><g><path fill="#2e353a" d="M19.67 91.78h1.277v1.275H19.67z"/></g><g><path fill="#2e353a" d="M22.33 91.78h1.277v1.275H22.33z"/></g><g><path fill="none" stroke="#2e353a" stroke-miterlimit="20" stroke-width=".5" d="M90.896 92.575v5.257H80.25v0V87.38v0h10.646v4.259"/></g><g><path fill="none" stroke="#2e353a" stroke-miterlimit="20" stroke-width=".5" d="M110.499 96.247v1.588H99.85v0-5.525 0h2.2v0"/></g><g><path fill="none" stroke="#2e353a" stroke-miterlimit="20" stroke-width=".5" d="M103.34 92.31v0h7.153v3.076"/></g><g><path fill="none" stroke="#2e353a" stroke-miterlimit="20" stroke-width=".5" d="M32.015 92.31v0h7.564v5.525H28.93v0-5.525 0h2.074v0"/></g><g><path fill="none" stroke="#2e353a" stroke-miterlimit="20" stroke-width=".5" d="M15.36 92.31v0h1.01v5.525h-3.94v0-5.525 0h2.135v0"/></g><g><path fill="none" stroke="#2e353a" stroke-miterlimit="20" stroke-width=".5" d="M84.73 87.38v0h1.702v10.452H84.73v0z"/></g><g><path fill="none" stroke="#2e353a" stroke-miterlimit="20" stroke-width=".5" d="M73.192 88.803v0H71.52v0-2.763 0h5.642v2.763h-2.454v0"/></g><g><path fill="none" stroke="#2e353a" stroke-miterlimit="20" stroke-width=".5" d="M36.81 84.13v0h6.495v2.339H36.81v0z"/></g><g><path fill="none" stroke="#2e353a" stroke-miterlimit="20" stroke-width=".5" d="M39.9 84.13v0h.639v13.705H39.9v0z"/></g></g><g><g><path fill="#2e353a" d="M43.154 36.45c0-9.651 7.838-17.476 17.507-17.476 9.668 0 17.506 7.825 17.506 17.477 0 4.635-1.845 9.08-5.128 12.357a17.521 17.521 0 0 1-12.378 5.12c-9.669 0-17.507-7.825-17.507-17.477zM60.656.66C40.864.66 24.82 16.685 24.82 36.452c0 17.854 33.058 59.93 33.058 59.93h2.778S96.49 56.219 96.49 36.453C96.491 16.685 80.447.66 60.656.66z"/><path fill="none" stroke="#2e353a" stroke-linecap="round" stroke-linejoin="round" stroke-miterlimit="20" stroke-width=".5" d="M43.154 36.45c0-9.651 7.838-17.476 17.507-17.476 9.668 0 17.506 7.825 17.506 17.477 0 4.635-1.845 9.08-5.128 12.357a17.521 17.521 0 0 1-12.378 5.12c-9.669 0-17.507-7.825-17.507-17.477zM60.656.66C40.864.66 24.82 16.685 24.82 36.452c0 17.854 33.058 59.93 33.058 59.93h2.778S96.49 56.219 96.49 36.453C96.491 16.685 80.447.66 60.656.66z"/></g><g><path fill="#adc7f7" d="M40.374 36.45c0-9.651 7.838-17.476 17.507-17.476 9.668 0 17.506 7.825 17.506 17.477 0 9.652-7.838 17.476-17.506 17.476-9.669 0-17.507-7.824-17.507-17.476zM57.876.66C38.084.66 22.04 16.685 22.04 36.452c0 19.766 35.836 59.93 35.836 59.93S93.71 56.219 93.71 36.453C93.711 16.685 77.667.66 57.876.66z"/><path fill="none" stroke="#2e353a" stroke-linecap="round" stroke-linejoin="round" stroke-miterlimit="20" stroke-width=".5" d="M40.374 36.45c0-9.651 7.838-17.476 17.507-17.476 9.668 0 17.506 7.825 17.506 17.477 0 9.652-7.838 17.476-17.506 17.476-9.669 0-17.507-7.824-17.507-17.476zM57.876.66C38.084.66 22.04 16.685 22.04 36.452c0 19.766 35.836 59.93 35.836 59.93S93.71 56.219 93.71 36.453C93.711 16.685 77.667.66 57.876.66z"/></g></g><g><g><path fill="#fff" d="M46.36 58.278l3.98-6.728.07 2.428-2.374 4.716-1.676-.416z"/><path fill="none" stroke="#2e353a" stroke-linecap="round" stroke-linejoin="round" stroke-miterlimit="20" stroke-width=".5" d="M46.36 58.278v0l3.98-6.728v0l.07 2.428v0l-2.374 4.716v0l-1.676-.416v0z"/></g><g><path fill="#fff" d="M50.411 81a7.153 7.153 0 0 1-1.497 3.193c-1.27 1.562-2.992 4.609-3.073 7.505-.08 2.896-3.444 10.912-3.072 11.505.371.594 3.665 1.412 4.936 1.412.667 0 1.773.256 2.215-.39.025-.037-2.612-1.388-2.794-1.518-.181-.13-1.65-1.157-1.603-1.288 0 0 3.447-9.277 5.168-11.652 1.72-2.375 2.991-4.162 3.514-5.646.522-1.484.991-2.89.991-2.89z"/></g><g><path fill="#adc7f7" d="M49.48 83.407a18.615 18.615 0 0 0 4.525 1.279c.084-.191.16-.377.224-.555.525-1.487.972-2.9.972-2.9l-4.785-.221a6.952 6.952 0 0 1-.936 2.397z"/></g><g><path fill="none" stroke="#2e353a" stroke-linecap="round" stroke-linejoin="round" stroke-miterlimit="20" stroke-width=".5" d="M50.411 81a7.153 7.153 0 0 1-1.497 3.193c-1.27 1.562-2.992 4.609-3.073 7.505-.08 2.896-3.444 10.912-3.072 11.505.371.594 3.665 1.412 4.936 1.412.667 0 1.773.256 2.215-.39.025-.037-2.612-1.388-2.794-1.518-.181-.13-1.65-1.157-1.603-1.288 0 0 3.447-9.277 5.168-11.652 1.72-2.375 2.991-4.162 3.514-5.646.522-1.484.991-2.89.991-2.89v0z"/></g><g><path fill="#fff" d="M61.24 81.613a7.152 7.152 0 0 1 1.397 3.24c.315 1.984 1.444 5.291 3.564 7.286 2.12 1.995 5.866 10.384 6.559 10.504.813.144 2.053-.888 2.656-1.307.769-.533 2.531-1.62 2.794-2.56.315-1.083-.805-.539-1.277-.19-.612.453-3.665.833-3.665.833s-4.64-9.305-5.265-12.163c-.626-2.857-1.118-4.994-1.875-6.38-.757-1.388-1.516-2.656-1.516-2.656z"/></g><g><path fill="#adc7f7" d="M66.128 80.885c-.762-1.387-1.52-2.655-1.52-2.655l-3.368 3.385a7.01 7.01 0 0 1 1.226 2.497 27.934 27.934 0 0 0 4.47-1.18 10.754 10.754 0 0 0-.808-2.047z"/></g><g><path fill="none" stroke="#2e353a" stroke-linecap="round" stroke-linejoin="round" stroke-miterlimit="20" stroke-width=".5" d="M61.24 81.613a7.152 7.152 0 0 1 1.397 3.24c.315 1.984 1.444 5.291 3.564 7.286 2.12 1.995 5.866 10.384 6.559 10.504.813.144 2.053-.888 2.656-1.307.769-.533 2.531-1.62 2.794-2.56.315-1.083-.805-.539-1.277-.19-.612.453-3.665.833-3.665.833v0s-4.64-9.305-5.265-12.163c-.626-2.857-1.118-4.994-1.875-6.38-.757-1.388-1.516-2.656-1.516-2.656v0z"/></g><g><path fill="#fff" d="M78.207 98.775c.316-1.082-.805-.538-1.277-.188-.611.452-3.665.832-3.665.832s-.33-.721-.81-1.809a8.114 8.114 0 0 1-1.955 1.135c1.048 2.05 1.916 3.85 2.257 3.909.813.144 2.053-.888 2.657-1.307.76-.544 2.522-1.631 2.793-2.572z"/><path fill="none" stroke="#2e353a" stroke-linecap="round" stroke-linejoin="round" stroke-miterlimit="20" stroke-width=".5" d="M78.207 98.775c.316-1.082-.805-.538-1.277-.188-.611.452-3.665.832-3.665.832v0s-.33-.721-.81-1.809a8.114 8.114 0 0 1-1.955 1.135c1.048 2.05 1.916 3.85 2.257 3.909.813.144 2.053-.888 2.657-1.307.76-.544 2.522-1.631 2.793-2.572z"/></g><g><path fill="#fff" d="M50.515 66.175L47.92 80.4a19.814 19.814 0 0 0 3.718 1.847c2.045.738 5.587.555 5.587.555l1.396-6.922.56 6.462s2.695.277 4.647-.092c1.953-.369 5.112-2.403 5.112-2.403l-6.145-11.352-1.397-2.678-10.875-.277z"/></g><g><path fill="#adc7f7" d="M58.71 74.346c.944-1.173 1.285-8.073 1.285-8.073l-9.48-.713v.621l-1.185 6.456c2.654.85 8.645 2.62 9.38 1.71z"/></g><g><path fill="none" stroke="#2e353a" stroke-miterlimit="20" stroke-width=".5" d="M50.515 66.175v0L47.92 80.4a19.814 19.814 0 0 0 3.718 1.847c2.045.738 5.587.555 5.587.555v0l1.396-6.922v0l.56 6.462v0s2.695.277 4.647-.092c1.953-.369 5.112-2.403 5.112-2.403v0l-6.145-11.352v0l-1.397-2.678v0l-10.875-.277v0z"/></g><g><path fill="#2e353a" d="M66.544 54.95l5.308 1.387 2.164-6.381-8.1-1.526-1.816 5.896 2.444.624z"/><path fill="none" stroke="#2e353a" stroke-linecap="round" stroke-linejoin="round" stroke-miterlimit="20" stroke-width=".5" d="M66.544 54.95v0l5.308 1.387v0l2.164-6.381v0l-8.1-1.526v0L64.1 54.326v0l2.444.624v0z"/></g><g><path fill="none" stroke="#fff" stroke-linecap="round" stroke-linejoin="round" stroke-miterlimit="20" stroke-width=".5" d="M67.58 52l3.374.818"/></g><g><path fill="none" stroke="#fff" stroke-linecap="round" stroke-linejoin="round" stroke-miterlimit="20" stroke-width=".5" d="M67.26 52.81l3.374.818"/></g><g><path fill="#fff" d="M61.03 55.299s1.675-.902 2.234-1.665c.559-.763 1.187-2.08 1.467-2.289.279-.208 1.676-.902 1.955-1.11.28-.208.698.208.21.625-.49.416-1.537 1.317-1.537 1.317s.28 1.249-.07 1.665c-.187.23-.397.439-.628.624l1.885.486s-1.257.901-1.815 1.04c-.554.106-1.114.175-1.676.208l-2.305 1.804z"/><path fill="none" stroke="#2e353a" stroke-linecap="round" stroke-linejoin="round" stroke-miterlimit="20" stroke-width=".5" d="M61.03 55.299v0s1.675-.902 2.234-1.665c.559-.763 1.187-2.08 1.467-2.289.279-.208 1.676-.902 1.955-1.11.28-.208.698.208.21.625-.49.416-1.537 1.317-1.537 1.317v0s.28 1.249-.07 1.665c-.187.23-.397.439-.628.624l1.885.486v0s-1.257.901-1.815 1.04c-.554.106-1.114.175-1.676.208l-2.305 1.804v0z"/></g><g><path fill="#2e353a" d="M53.49 40.144s-2.234 3.232-2.793 7.017c-.559 3.784-.184 19.018-.184 19.018s2.972 1.198 5.307 1.198c2.335 0 5.763.186 5.866-1.11.104-1.295-.65-16.154-1.676-19.756a26.502 26.502 0 0 0-3.073-6.658s-2.33-1.557-3.447.291z"/><path fill="none" stroke="#2e353a" stroke-linecap="round" stroke-linejoin="round" stroke-miterlimit="20" stroke-width=".5" d="M53.49 40.144s-2.234 3.232-2.793 7.017c-.559 3.784-.184 19.018-.184 19.018v0s2.972 1.198 5.307 1.198c2.335 0 5.763.186 5.866-1.11.104-1.295-.65-16.154-1.676-19.756a26.502 26.502 0 0 0-3.073-6.658s-2.33-1.557-3.447.291z"/></g><g><path fill="#fff" d="M58.583 42.95L55.58 61.954l2.654.971 1.187-18.241-.838-1.734z"/><path fill="none" stroke="#2e353a" stroke-linecap="round" stroke-linejoin="round" stroke-miterlimit="20" stroke-width=".5" d="M58.583 42.95v0L55.58 61.954v0l2.654.971v0l1.187-18.241v0l-.838-1.734v0z"/></g><g><path fill="#fff" d="M51.94 32.782s.372 1.754 1.117 2.678c.746.924 2.137 1.387 2.137 1.387l-.4 2.1 2.604 1.57.956-4.502.279-5.355s-6.52 1.107-6.693 2.122z"/><path fill="none" stroke="#2e353a" stroke-linecap="round" stroke-linejoin="round" stroke-miterlimit="20" stroke-width=".5" d="M51.94 32.782s.372 1.754 1.117 2.678c.746.924 2.137 1.387 2.137 1.387v0l-.4 2.1v0l2.604 1.57v0l.956-4.502v0l.279-5.355v0s-6.52 1.107-6.693 2.122z"/></g><g><path fill="#2e353a" d="M51.94 32.782s.372 1.754 1.117 2.677c.746.924 2.137 1.388 2.137 1.388s2.235-.647 2.417-2.123c.134-1.065-.068-2.893-.193-3.834-1.897.372-5.344 1.157-5.478 1.892z"/><path fill="none" stroke="#2e353a" stroke-linecap="round" stroke-linejoin="round" stroke-miterlimit="20" stroke-width=".5" d="M51.94 32.782s.372 1.754 1.117 2.677c.746.924 2.137 1.388 2.137 1.388v0s2.235-.647 2.417-2.123c.134-1.065-.068-2.893-.193-3.834-1.897.372-5.344 1.157-5.478 1.892z"/></g><g><path fill="#fff" d="M55.736 33.237s-.93-1.11-1.486-.647c-.556.464-.374 1.757.28 2.403.653.647 1.488.092 1.488.092s.372 1.198 1.023 1.753c.65.555 2.88.924 3.631.369.752-.555.464-2.586.464-2.586s1.302-.646 1.21-1.11c-.093-.463-1.026-.832-1.026-1.198a5.096 5.096 0 0 0-.092-.832v-.741l-4.274.924s-.561 2.128-1.218 1.573z"/></g><g opacity=".5"><g opacity=".5"><path fill="#adc7f7" d="M56.96 31.672c-.12.446-.295.876-.52 1.28 1.676-.076 3.467-.181 5.07-.32a.501.501 0 0 1-.184-.313 5.096 5.096 0 0 0-.093-.833v-.746z"/></g></g><g><path fill="none" stroke="#2e353a" stroke-linecap="round" stroke-linejoin="round" stroke-miterlimit="20" stroke-width=".5" d="M55.736 33.237s-.93-1.11-1.486-.647c-.556.464-.374 1.757.28 2.403.653.647 1.488.092 1.488.092v0s.372 1.198 1.023 1.753c.65.555 2.88.924 3.631.369.752-.555.464-2.586.464-2.586v0s1.302-.646 1.21-1.11c-.093-.463-1.026-.832-1.026-1.198a5.096 5.096 0 0 0-.092-.832v-.741 0l-4.274.924v0s-.561 2.128-1.218 1.573z"/></g><g><path fill="#fff" d="M51.936 32.783l9.294-2.04s-1.302-4.524-2.88-4.893c-1.579-.369-4.648-.555-6.322 1.11-1.673 1.664-.092 5.823-.092 5.823z"/><path fill="none" stroke="#2e353a" stroke-linecap="round" stroke-linejoin="round" stroke-miterlimit="20" stroke-width=".5" d="M51.936 32.783v0l9.294-2.04v0s-1.302-4.524-2.88-4.893c-1.579-.369-4.648-.555-6.322 1.11-1.673 1.664-.092 5.823-.092 5.823z"/></g><g><path fill="#2e353a" d="M58.16 31.482a27.29 27.29 0 0 0 3.718.555c1.676.092 5.483-1.387 4.556-1.478-.927-.092-5.207.185-5.207.185z"/><path fill="none" stroke="#2e353a" stroke-linecap="round" stroke-linejoin="round" stroke-miterlimit="20" stroke-width=".5" d="M58.16 31.482a27.29 27.29 0 0 0 3.718.555c1.676.092 5.483-1.387 4.556-1.478-.927-.092-5.207.185-5.207.185v0z"/></g><g><path fill="#fff" d="M53.858 38.2l-.838 1.848 4.184 2.583.836-2.583-4.182-1.848z"/><path fill="none" stroke="#2e353a" stroke-linecap="round" stroke-linejoin="round" stroke-miterlimit="20" stroke-width=".5" d="M53.858 38.2v0l-.838 1.848v0l4.184 2.583v0l.836-2.583v0L53.858 38.2v0z"/></g><g><path fill="#fff" d="M45.243 57.51l14.875 3.815-1.545 10.803a1.264 1.264 0 0 1-.556.876c-.302.2-.676.262-1.028.17l-13.522-3.49a1.001 1.001 0 0 1-.732-1.19z"/><path fill="none" stroke="#2e353a" stroke-linecap="round" stroke-linejoin="round" stroke-miterlimit="20" stroke-width=".5" d="M45.243 57.51v0l14.875 3.815v0l-1.545 10.803a1.264 1.264 0 0 1-.556.876c-.302.2-.676.262-1.028.17l-13.522-3.49a1.001 1.001 0 0 1-.732-1.19z"/></g><g><path fill="none" stroke="#2e353a" stroke-linecap="round" stroke-linejoin="round" stroke-miterlimit="20" stroke-width=".5" d="M45.25 57.51v0s3.511 8.462 5.662 9.572c2.151 1.11 9.218-5.749 9.218-5.749v0"/></g><g><path fill="#fff" d="M48.203 53.81s-.93 2.03-.65 2.774c.279.744 11.804 4.894 11.804 4.894s.092 1.568.372 1.942c.239.407.426.841.558 1.293 0 0-.558 1.293-.28 1.57.28.278 1.118-1.292 1.118-1.753 0-.46.092-2.955-.184-3.607-.277-.652-8.182-5.446-8.182-5.446z"/><path fill="none" stroke="#2e353a" stroke-linecap="round" stroke-linejoin="round" stroke-miterlimit="20" stroke-width=".5" d="M48.203 53.81v0s-.93 2.03-.65 2.774c.279.744 11.804 4.894 11.804 4.894v0s.092 1.568.372 1.942c.239.407.426.841.558 1.293 0 0-.558 1.293-.28 1.57.28.278 1.118-1.292 1.118-1.753 0-.46.092-2.955-.184-3.607-.277-.652-8.182-5.446-8.182-5.446v0z"/></g><g><path fill="#2e353a" d="M53.301 42.73L47.91 54.083l4.833 1.387 3.905-9.047"/><path fill="none" stroke="#2e353a" stroke-linecap="round" stroke-linejoin="round" stroke-miterlimit="20" stroke-width=".5" d="M53.301 42.73v0L47.91 54.083v0l4.833 1.387v0l3.905-9.047v0"/></g><g><path fill="none" stroke="#fff" stroke-linecap="round" stroke-linejoin="round" stroke-miterlimit="20" stroke-width=".5" d="M52.74 55.466l3.559-7.926"/></g><g><path fill="none" stroke="#fff" stroke-linecap="round" stroke-linejoin="round" stroke-miterlimit="20" stroke-width=".5" d="M55.08 50.448l1.79-1.778"/></g><g><path fill="none" stroke="#2e353a" stroke-linecap="round" stroke-linejoin="round" stroke-miterlimit="20" stroke-width=".5" d="M49.77 80.11a13.744 13.744 0 0 0 7.246 1.49"/></g><g><path fill="none" stroke="#2e353a" stroke-linecap="round" stroke-linejoin="round" stroke-miterlimit="20" stroke-width=".5" d="M48.56 79.38s.215.16.614.4"/></g><g><path fill="none" stroke="#2e353a" stroke-linecap="round" stroke-linejoin="round" stroke-miterlimit="20" stroke-width=".5" d="M66.68 79.45c.355-.191.699-.402 1.03-.63"/></g><g><path fill="none" stroke="#2e353a" stroke-linecap="round" stroke-linejoin="round" stroke-miterlimit="20" stroke-width=".5" d="M59.53 81.235a16.355 16.355 0 0 0 6.33-1.365"/></g><g><path fill="none" stroke="#2e353a" stroke-linecap="round" stroke-linejoin="round" stroke-miterlimit="20" stroke-width=".5" d="M58.6 75.869l2.006-3.449"/></g><g><path fill="none" stroke="#2e353a" stroke-linecap="round" stroke-linejoin="round" stroke-miterlimit="20" stroke-width=".5" d="M58.71 75.695l3.344-3.765"/></g><g><path fill="none" stroke="#2e353a" stroke-linecap="round" stroke-linejoin="round" stroke-miterlimit="20" stroke-width=".5" d="M50.18 74.2v0l-.28 2.047c.686.477 1.439.851 2.235 1.11 1.338.444 4.19.389 4.19.389v0l.39-1.942v0s-4.96-.555-5.963-1.388"/></g><g><path fill="none" stroke="#2e353a" stroke-linecap="round" stroke-linejoin="round" stroke-miterlimit="20" stroke-width=".5" d="M49.848 77.02v0s-.782 1.884-.28 2.328c.503.444 4.068 1.77 5.029 1.664.96-.105 1.502-2.436 1.502-2.436v0"/></g><g><path fill="#2e353a" d="M78.207 98.769c.316-1.082-.805-.538-1.277-.189-.611.453-3.665.833-3.665.833l-.371-.833A6.46 6.46 0 0 1 71 99.73c.813 1.604 1.464 2.863 1.749 2.91.813.145 2.053-.888 2.656-1.306.768-.536 2.53-1.623 2.802-2.564z"/><path fill="none" stroke="#2e353a" stroke-linecap="round" stroke-linejoin="round" stroke-miterlimit="20" stroke-width=".5" d="M78.207 98.769c.316-1.082-.805-.538-1.277-.189-.611.453-3.665.833-3.665.833v0l-.371-.833A6.46 6.46 0 0 1 71 99.73c.813 1.604 1.464 2.863 1.749 2.91.813.145 2.053-.888 2.656-1.306.768-.536 2.53-1.623 2.802-2.564z"/></g><g><path fill="#fff" d="M75.89 100.29c-1.257.65-2.724 1.437-3.57 1.878.184.278.332.458.433.475.813.144 2.053-.888 2.656-1.307.769-.533 2.531-1.62 2.794-2.56.134-.456 0-.622-.21-.636-.463.771-1.184 1.684-2.103 2.15z"/><path fill="none" stroke="#2e353a" stroke-linecap="round" stroke-linejoin="round" stroke-miterlimit="20" stroke-width=".5" d="M75.89 100.29c-1.257.65-2.724 1.437-3.57 1.878.184.278.332.458.433.475.813.144 2.053-.888 2.656-1.307.769-.533 2.531-1.62 2.794-2.56.134-.456 0-.622-.21-.636-.463.771-1.184 1.684-2.103 2.15z"/></g><g><path fill="#fff" d="M47.15 102.706c-.134-.1-1.65-1.157-1.603-1.288 0 0 .304-.812.77-2.017-.799-.099-1.581-.308-2.323-.621-.743 2.242-1.397 4.145-1.213 4.422.372.594 3.665 1.412 4.936 1.412.668 0 1.774.256 2.216-.39.025-.037-2.612-1.393-2.783-1.518z"/><path fill="none" stroke="#2e353a" stroke-linecap="round" stroke-linejoin="round" stroke-miterlimit="20" stroke-width=".5" d="M47.15 102.706c-.134-.1-1.65-1.157-1.603-1.288 0 0 .304-.812.77-2.017-.799-.099-1.581-.308-2.323-.621-.743 2.242-1.397 4.145-1.213 4.422.372.594 3.665 1.412 4.936 1.412.668 0 1.774.256 2.216-.39.025-.037-2.612-1.393-2.783-1.518z"/></g><g><path fill="#2e353a" d="M49.932 104.228c.025-.036-2.612-1.387-2.794-1.517-.181-.13-1.65-1.157-1.603-1.288l.296-.785a11.96 11.96 0 0 1-2.252-.638c-.558 1.681-.952 2.98-.81 3.207.372.594 3.665 1.412 4.936 1.412.679 0 1.785.256 2.227-.39z"/><path fill="none" stroke="#2e353a" stroke-linecap="round" stroke-linejoin="round" stroke-miterlimit="20" stroke-width=".5" d="M49.932 104.228c.025-.036-2.612-1.387-2.794-1.517-.181-.13-1.65-1.157-1.603-1.288l.296-.785a11.96 11.96 0 0 1-2.252-.638c-.558 1.681-.952 2.98-.81 3.207.372.594 3.665 1.412 4.936 1.412.679 0 1.785.256 2.227-.39z"/></g><g><path fill="#fff" d="M47.313 104.005c-1.713-.103-3.615-.802-4.545-1.185a.678.678 0 0 0 0 .386c.372.593 3.665 1.412 4.936 1.412.667 0 1.774.255 2.215-.391a2.748 2.748 0 0 0-.394-.23c-.736.053-1.475.056-2.212.008z"/><path fill="none" stroke="#2e353a" stroke-linecap="round" stroke-linejoin="round" stroke-miterlimit="20" stroke-width=".5" d="M47.313 104.005c-1.713-.103-3.615-.802-4.545-1.185a.678.678 0 0 0 0 .386c.372.593 3.665 1.412 4.936 1.412.667 0 1.774.255 2.215-.391a2.748 2.748 0 0 0-.394-.23c-.736.053-1.475.056-2.212.008z"/></g><g><path fill="none" stroke="#000" stroke-linecap="round" stroke-linejoin="round" stroke-miterlimit="20" stroke-width=".5" d="M57.682 31.49l-1.492-3.52"/></g><g><path fill="none" stroke="#000" stroke-linecap="round" stroke-linejoin="round" stroke-miterlimit="20" stroke-width=".5" d="M55.998 27.324s-.466-1.02-.092-1.484"/></g></g></g></g></svg>