<svg xmlns="http://www.w3.org/2000/svg" width="215" height="138" viewBox="0 0 215 138"><g><g clip-path="url(#clip-DAC664CE-0367-46C3-BC9D-2FE89C05D1E2)"><g><g><path fill="#adc7f7" d="M214.095 103.609c4.65-38.028-17.863-88.575-41.209-109.442-42.135-37.685-77.14-30.398-104.365-16.9-27.223 13.499-31.12 58.552-49.916 78.94-18.796 20.387-29.5 47.807-.97 75.108 28.53 27.302 51.533 13.424 81.355 11.698 29.822-1.725 69.359 11.897 90.746.044 14.949-8.272 22.308-22.636 24.359-39.448z"/></g><g opacity=".7"><path fill="#fff" d="M214.095 103.609c4.65-38.028-17.863-88.575-41.209-109.442-42.135-37.685-77.14-30.398-104.365-16.9-27.223 13.499-31.12 58.552-49.916 78.94-18.796 20.387-29.5 47.807-.97 75.108 28.53 27.302 51.533 13.424 81.355 11.698 29.822-1.725 69.359 11.897 90.746.044 14.949-8.272 22.308-22.636 24.359-39.448z"/></g></g><g><g><path fill="none" stroke="#263238" stroke-linecap="round" stroke-linejoin="round" stroke-miterlimit="20" stroke-width=".5" d="M96.9 102.366V-37.27"/></g><g><path fill="none" stroke="#263238" stroke-linecap="round" stroke-linejoin="round" stroke-miterlimit="20" stroke-width=".5" d="M6.22 103.75v0h87.998v0l133.693 43.193v0"/></g><g><path fill="#263238" d="M184.609 130.163h-6.078V29.56h12.546L185.663 10h-16.249L164 29.56h12.546v100.603h-6.096a5.956 5.956 0 0 0-5.948 5.847v.094c.18 1.402 5.936 2.532 13.024 2.532 7.089 0 12.844-1.13 13.024-2.533a5.957 5.957 0 0 0-5.941-5.94z"/></g></g><g><g><path fill="#adc7f7" d="M95.324 161.266c39.248 0 71.065-9.913 71.065-22.143s-31.817-22.143-71.065-22.143c-39.247 0-71.064 9.914-71.064 22.143 0 12.23 31.817 22.143 71.064 22.143z"/></g><g opacity=".5"><path fill="#fff" d="M95.324 161.266c39.248 0 71.065-9.913 71.065-22.143s-31.817-22.143-71.065-22.143c-39.247 0-71.064 9.914-71.064 22.143 0 12.23 31.817 22.143 71.064 22.143z"/></g><g><path fill="#adc7f7" d="M89.323 41.49s-16.104-1.91-26.7 6.358c-10.597 8.267-19.71 42.814-19.5 59.361.21 16.547 6.362 24.802 21.83 31.58 15.468 6.777 44.283 4.241 60.388-.848 16.104-5.089 21.403-22.879 21.192-32.426-.21-9.547-10.806-20.56-14.41-22.879-3.605-2.319-13.774-7.204-18.856-14.84-5.082-7.637-12.507-24.184-23.944-26.305z"/></g><g opacity=".13"><path d="M128.296 136.796c-6.09-.822-13.31-2.473-18.776-5.794-11.542-7.006-14.423-20.202-18.546-25.148-4.124-4.947-11.542-4.533-14.837-9.894-3.296-5.361 2.058-44.93-7.42-47.403a21.566 21.566 0 0 0-5.915-.847c-.056.05-.124.087-.18.136-10.596 8.267-19.709 42.815-19.498 59.362.21 16.547 6.361 24.802 21.829 31.579 15.468 6.777 44.283 4.242 60.388-.847a25.418 25.418 0 0 0 2.955-1.144z"/></g><g><path fill="none" stroke="#263238" stroke-linecap="round" stroke-linejoin="round" stroke-miterlimit="20" stroke-width=".5" d="M89.323 41.49s-16.104-1.91-26.7 6.358c-10.597 8.267-19.71 42.814-19.5 59.361.21 16.547 6.362 24.802 21.83 31.58 15.468 6.777 44.283 4.241 60.388-.848 16.104-5.089 21.403-22.879 21.192-32.426-.21-9.547-10.806-20.56-14.41-22.879-3.605-2.319-13.774-7.204-18.856-14.84-5.082-7.637-12.507-24.184-23.944-26.305z"/></g><g><path fill="#263238" d="M82.987 48.96s-10.51 2.01-12.365 3.864c-1.854 1.855-9.582 30.918-9.582 30.918a11.497 11.497 0 0 1 6.491.31c3.091 1.236 3.4 4.482 3.71 6.028.248 1.846.403 3.704.463 5.565 0 0 31.239-2.788 37.885-4.328 6.646-1.54 16.76-2.257 16.76-2.257s-17.088-38.548-19.715-39.94c-2.628-1.39-13.601-1.545-15.147-1.236-1.545.309-8.5 1.076-8.5 1.076z"/><path fill="none" stroke="#263238" stroke-linecap="round" stroke-linejoin="round" stroke-miterlimit="20" stroke-width=".5" d="M82.987 48.96v0s-10.51 2.01-12.365 3.864c-1.854 1.855-9.582 30.918-9.582 30.918a11.497 11.497 0 0 1 6.491.31c3.091 1.236 3.4 4.482 3.71 6.028.248 1.846.403 3.704.463 5.565 0 0 31.239-2.788 37.885-4.328 6.646-1.54 16.76-2.257 16.76-2.257v0s-17.088-38.548-19.715-39.94c-2.628-1.39-13.601-1.545-15.147-1.236-1.545.309-8.5 1.076-8.5 1.076z"/></g><g><path fill="none" stroke="#fff" stroke-linecap="round" stroke-linejoin="round" stroke-miterlimit="20" stroke-width=".5" d="M72.63 84.668l2.627-21.488"/></g><g><path fill="none" stroke="#fff" stroke-linecap="round" stroke-linejoin="round" stroke-miterlimit="20" stroke-width=".5" d="M74.64 68.898l3.555-4.638"/></g><g><path fill="none" stroke="#fff" stroke-linecap="round" stroke-linejoin="round" stroke-miterlimit="20" stroke-width=".5" d="M85.3 71.686s10.046-3.246 16.692-3.246"/></g><g><path fill="none" stroke="#fff" stroke-linecap="round" stroke-linejoin="round" stroke-miterlimit="20" stroke-width=".5" d="M94.784 62.82v0l-.674 5.15v0s1.7 0 1.855.774a2.053 2.053 0 0 1-.619 1.546s4.792 2.628 5.41 5.72"/></g><g><path fill="#fff" d="M88.746 43.19s-5.768 1.855-6.596 3.296c-.829 1.44-.204 11.545-.204 12.781 0 1.237.723-.723 1.341-2.164.618-1.44 2.782-3.611 3.5-3.4.716.21 1.137 1.026 1.137 2.367 0 1.342 1.644 3.197 3.091 4.224a89.504 89.504 0 0 1 2.782 2.065s2.986-4.328 3.71-5.466c.723-1.138.618-3.5.716-4.329.1-.828 1.96 2.27 2.374 1.447.415-.822-.927-1.546-2.374-3.815-1.446-2.27-1.026-4.638-3.19-6.289-2.163-1.65-4.636-1.137-6.287-.717z"/></g><g><g><path fill="#adc7f7" d="M82.156 46.48c-.544.964-.457 5.775-.333 9.275 1.316-1.694 4.03-4.897 5.6-4.291 2.004.772 2.77 6.468 2.77 6.468L88.84 43.19h-.086s-5.768 1.855-6.597 3.29z"/></g><g opacity=".5"><path fill="#fff" d="M82.156 46.48c-.544.964-.457 5.775-.333 9.275 1.316-1.694 4.03-4.897 5.6-4.291 2.004.772 2.77 6.468 2.77 6.468L88.84 43.19h-.086s-5.768 1.855-6.597 3.29z"/></g></g><g><path fill="none" stroke="#263238" stroke-linecap="round" stroke-linejoin="round" stroke-miterlimit="20" stroke-width=".5" d="M88.746 43.19s-5.768 1.855-6.596 3.296c-.829 1.44-.204 11.545-.204 12.781 0 1.237.723-.723 1.341-2.164.618-1.44 2.782-3.611 3.5-3.4.716.21 1.137 1.026 1.137 2.367 0 1.342 1.644 3.197 3.091 4.224a89.504 89.504 0 0 1 2.782 2.065v0s2.986-4.328 3.71-5.466c.723-1.138.618-3.5.716-4.329.1-.828 1.96 2.27 2.374 1.447.415-.822-.927-1.546-2.374-3.815-1.446-2.27-1.026-4.638-3.19-6.289-2.163-1.65-4.636-1.137-6.287-.717z"/></g><g><path fill="#fff" d="M75.099 84.977s-3.555-5.102-7.883-5.566c-4.327-.463-9.582 3.092-9.737 4.329-.154 1.237-1.236 7.884-.463 8.811.772.928 3.709 1.7 9.427-.154 5.719-1.855 8.037-4.174 8.656-7.42z"/></g><g><g><path fill="#adc7f7" d="M60.638 92.392s-1.236-3.537-.618-4.768c.618-1.23 3.091-3.092 4.618-4.947 1.527-1.855-3.604 1.045-3.851 0-.192-.84 2.714-2.522 3.857-3.147-3.598.693-7.041 3.197-7.165 4.192-.154 1.237-1.236 7.884-.463 8.812.395.476 1.378.915 3.016.97.371-.636.606-1.112.606-1.112z"/></g><g opacity=".5"><path fill="#fff" d="M60.638 92.392s-1.236-3.537-.618-4.768c.618-1.23 3.091-3.092 4.618-4.947 1.527-1.855-3.604 1.045-3.851 0-.192-.84 2.714-2.522 3.857-3.147-3.598.693-7.041 3.197-7.165 4.192-.154 1.237-1.236 7.884-.463 8.812.395.476 1.378.915 3.016.97.371-.636.606-1.112.606-1.112z"/></g></g><g><path fill="none" stroke="#263238" stroke-linecap="round" stroke-linejoin="round" stroke-miterlimit="20" stroke-width=".5" d="M75.099 84.977s-3.555-5.102-7.883-5.566c-4.327-.463-9.582 3.092-9.737 4.329-.154 1.237-1.236 7.884-.463 8.811.772.928 3.709 1.7 9.427-.154 5.719-1.855 8.037-4.174 8.656-7.42z"/></g><g><path fill="#fff" d="M63.04 86.373s-5.798 2.3-6.027 6.802c-.13 2.473 4.018 3.555 8.346 3.555 4.327 0 10.51-5.41 14.528-7.73 4.019-2.318 13.292-7.729 14.374-8.192 1.082-.464 4.791.773 6.337 1.236 1.472.316 2.975.472 4.482.464 0 0 2.163 3.401 3.245 3.401 1.082 0-2.318-5.101-2.782-6.183-.463-1.083-8.037-3.556-8.964-3.556-.927 0-22.565 5.41-25.81 6.647-3.246 1.237-7.728 3.556-7.728 3.556z"/></g><g><g><path fill="#adc7f7" d="M75.164 85.73c8.834-4.422 21.415-9.56 21.415-9.56-.927 0-22.565 5.41-25.81 6.647-3.246 1.237-7.728 3.556-7.728 3.556s-5.8 2.3-6.028 6.802c-.13 2.473 4.018 3.555 8.346 3.555 4.327 0 10.51-5.41 14.528-7.73l2.436-1.409c-5.904.748-13.799 1.453-7.16-1.861z"/></g><g opacity=".5"><path fill="#fff" d="M75.164 85.73c8.834-4.422 21.415-9.56 21.415-9.56-.927 0-22.565 5.41-25.81 6.647-3.246 1.237-7.728 3.556-7.728 3.556s-5.8 2.3-6.028 6.802c-.13 2.473 4.018 3.555 8.346 3.555 4.327 0 10.51-5.41 14.528-7.73l2.436-1.409c-5.904.748-13.799 1.453-7.16-1.861z"/></g></g><g><path fill="none" stroke="#263238" stroke-linecap="round" stroke-linejoin="round" stroke-miterlimit="20" stroke-width=".5" d="M63.04 86.373v0s-5.798 2.3-6.027 6.802c-.13 2.473 4.018 3.555 8.346 3.555 4.327 0 10.51-5.41 14.528-7.73 4.019-2.318 13.292-7.729 14.374-8.192 1.082-.464 4.791.773 6.337 1.236 1.472.316 2.975.472 4.482.464 0 0 2.163 3.401 3.245 3.401 1.082 0-2.318-5.101-2.782-6.183-.463-1.083-8.037-3.556-8.964-3.556-.927 0-22.565 5.41-25.81 6.647-3.246 1.237-7.728 3.556-7.728 3.556z"/></g><g><path fill="#fff" d="M108.25 51.985l-4.71 26.496 34.002.155 5.057-25.13a1.565 1.565 0 0 0-1.484-1.855l-31.282-.94a1.558 1.558 0 0 0-1.582 1.274z"/><path fill="none" stroke="#263238" stroke-linecap="round" stroke-linejoin="round" stroke-miterlimit="20" stroke-width=".5" d="M108.25 51.985v0l-4.71 26.496v0l34.002.155v0l5.057-25.13a1.565 1.565 0 0 0-1.484-1.855l-31.282-.94a1.558 1.558 0 0 0-1.582 1.274z"/></g><g><path fill="#fff" d="M103.536 78.48L86.98 90.192l37.866-1.083 12.692-10.474-34.002-.155z"/></g><g><g><path fill="#adc7f7" d="M103.536 78.48L86.98 90.192l37.866-1.083 12.692-10.474-34.002-.155z"/></g><g opacity=".5"><path fill="#fff" d="M103.536 78.48L86.98 90.192l37.866-1.083 12.692-10.474-34.002-.155z"/></g></g><g><path fill="none" stroke="#263238" stroke-linecap="round" stroke-linejoin="round" stroke-miterlimit="20" stroke-width=".5" d="M103.536 78.48v0L86.98 90.192v0l37.866-1.083v0l12.692-10.474v0l-34.002-.155v0z"/></g><g><path fill="#fff" d="M116.06 90.075s13.6-11.903 27.047-15.922c13.446-4.02 16.228-3.401 15.92 2.628-.31 6.029-6.801 37.565-11.129 45.603-4.327 8.039-9.737 22.725-9.582 25.507.155 2.783 5.41 10.976 10.046 13.913 4.637 2.937 4.173 6.493 1.236 7.111-2.936.619-6.336 1.7-16.382-4.792-10.046-6.493-14.22-15.768-13.601-18.087.618-2.319 7.11-5.41 9.737-10.048s6.955-21.951 7.264-29.835a46.855 46.855 0 0 1 3.09-14.532s-17 3.092-21.946 6.184z"/></g><g><g><path fill="#adc7f7" d="M116.06 90.075s13.6-11.903 27.047-15.922c13.446-4.02 16.228-3.401 15.92 2.628-.31 6.029-6.801 37.565-11.129 45.603-4.327 8.039-9.737 22.725-9.582 25.507.155 2.783 5.41 10.976 10.046 13.913 4.637 2.937 4.173 6.493 1.236 7.111-2.936.619-6.336 1.7-16.382-4.792-10.046-6.493-14.22-15.768-13.601-18.087.618-2.319 7.11-5.41 9.737-10.048s6.955-21.951 7.264-29.835a46.855 46.855 0 0 1 3.09-14.532s-17 3.092-21.946 6.184z"/></g><g opacity=".5"><path fill="#fff" d="M116.06 90.075s13.6-11.903 27.047-15.922c13.446-4.02 16.228-3.401 15.92 2.628-.31 6.029-6.801 37.565-11.129 45.603-4.327 8.039-9.737 22.725-9.582 25.507.155 2.783 5.41 10.976 10.046 13.913 4.637 2.937 4.173 6.493 1.236 7.111-2.936.619-6.336 1.7-16.382-4.792-10.046-6.493-14.22-15.768-13.601-18.087.618-2.319 7.11-5.41 9.737-10.048s6.955-21.951 7.264-29.835a46.855 46.855 0 0 1 3.09-14.532s-17 3.092-21.946 6.184z"/></g></g><g><path fill="none" stroke="#263238" stroke-linecap="round" stroke-linejoin="round" stroke-miterlimit="20" stroke-width=".5" d="M116.06 90.075v0s13.6-11.903 27.047-15.922c13.446-4.02 16.228-3.401 15.92 2.628-.31 6.029-6.801 37.565-11.129 45.603-4.327 8.039-9.737 22.725-9.582 25.507.155 2.783 5.41 10.976 10.046 13.913 4.637 2.937 4.173 6.493 1.236 7.111-2.936.619-6.336 1.7-16.382-4.792-10.046-6.493-14.22-15.768-13.601-18.087.618-2.319 7.11-5.41 9.737-10.048s6.955-21.951 7.264-29.835a46.855 46.855 0 0 1 3.09-14.532s-17 3.092-21.946 6.184z"/></g><g><path fill="#fff" d="M129.352 135.988c-.198.346-.42.68-.656 1.014a15.88 15.88 0 0 1 8.693 3.624 27.316 27.316 0 0 1 2.114 2.046 135.225 135.225 0 0 1 8.395-20.288c4.328-8.038 10.82-39.574 11.128-45.603.31-6.03-2.473-6.647-15.919-2.628-13.446 4.02-27.047 15.922-27.047 15.922l1.7 7.73c4.946-3.092 21.947-6.184 21.947-6.184a46.855 46.855 0 0 0-3.091 14.532c-.31 7.884-4.637 25.197-7.264 29.835z"/><path fill="none" stroke="#263238" stroke-linecap="round" stroke-linejoin="round" stroke-miterlimit="20" stroke-width=".5" d="M129.352 135.988c-.198.346-.42.68-.656 1.014a15.88 15.88 0 0 1 8.693 3.624 27.316 27.316 0 0 1 2.114 2.046 135.225 135.225 0 0 1 8.395-20.288c4.328-8.038 10.82-39.574 11.128-45.603.31-6.03-2.473-6.647-15.919-2.628-13.446 4.02-27.047 15.922-27.047 15.922v0l1.7 7.73c4.946-3.092 21.947-6.184 21.947-6.184a46.855 46.855 0 0 0-3.091 14.532c-.31 7.884-4.637 25.197-7.264 29.835z"/></g><g><path fill="#263238" d="M129.352 135.988c-.198.346-.42.68-.656 1.014a15.88 15.88 0 0 1 8.693 3.624 27.316 27.316 0 0 1 2.114 2.046c2.961-3.982 6.293-16.54 10.052-21.71 9.712-13.35 9.162-38.152 9.471-44.181.31-6.03-2.473-6.647-15.919-2.628-13.446 4.02-27.047 15.922-27.047 15.922l1.7 7.73c4.946-3.092 21.947-6.184 21.947-6.184a46.855 46.855 0 0 0-3.091 14.532c-.31 7.884-4.637 25.197-7.264 29.835z"/></g><g><g opacity=".53"><path fill="#fff" d="M129.352 135.988c-.198.346-.42.68-.656 1.014a15.88 15.88 0 0 1 8.693 3.624 27.316 27.316 0 0 1 2.114 2.046c2.961-3.982 6.293-16.54 10.052-21.71 9.712-13.35 9.162-38.152 9.471-44.181.31-6.03-2.473-6.647-15.919-2.628-13.446 4.02-27.047 15.922-27.047 15.922l1.7 7.73c4.946-3.092 21.947-6.184 21.947-6.184a46.855 46.855 0 0 0-3.091 14.532c-.31 7.884-4.637 25.197-7.264 29.835z"/></g><g opacity=".14"><path d="M152.492 75.968c-.241-2.196-24.148 7.927-34.231 12.292-1.397 1.114-2.201 1.818-2.201 1.818l1.7 7.73c4.946-3.092 21.947-6.184 21.947-6.184a46.855 46.855 0 0 0-3.091 14.532c-.31 7.884-4.637 25.197-7.264 29.835-.198.346-.42.68-.656 1.014 1.703.183 3.37.614 4.946 1.28 3.703-7.902 7.69-17.097 9.576-24.289 3.4-12.985 9.583-35.246 9.274-38.028z"/></g><g><path fill="none" stroke="#263238" stroke-linecap="round" stroke-linejoin="round" stroke-miterlimit="20" stroke-width=".5" d="M139.7 91.625s4.637-9.43 8.655-13.295"/></g></g><g><path fill="none" stroke="#263238" stroke-linecap="round" stroke-linejoin="round" stroke-miterlimit="20" stroke-width=".5" d="M129.352 135.988c-.198.346-.42.68-.656 1.014a15.88 15.88 0 0 1 8.693 3.624 27.316 27.316 0 0 1 2.114 2.046c2.961-3.982 6.293-16.54 10.052-21.71 9.712-13.35 9.162-38.152 9.471-44.181.31-6.03-2.473-6.647-15.919-2.628-13.446 4.02-27.047 15.922-27.047 15.922v0l1.7 7.73c4.946-3.092 21.947-6.184 21.947-6.184a46.855 46.855 0 0 0-3.091 14.532c-.31 7.884-4.637 25.197-7.264 29.835z"/></g><g><path fill="#263238" d="M95.676 102.552a53.157 53.157 0 0 0 14.621-2.751c6.992-2.548-5.725-7.21-10.596-4.663a7.241 7.241 0 0 0-4.025 7.414z"/><path fill="none" stroke="#263238" stroke-linecap="round" stroke-linejoin="round" stroke-miterlimit="20" stroke-width=".5" d="M95.676 102.552a53.157 53.157 0 0 0 14.621-2.751c6.992-2.548-5.725-7.21-10.596-4.663a7.241 7.241 0 0 0-4.025 7.414z"/></g><g><path fill="#fff" d="M75.564 92.553s-4.946 2.782-6.646 5.874c-1.7 3.092 5.614 8.243 13.341 7.933 7.728-.309 21.898-8.706 21.898-8.706s.154 13.604 2.782 18.55c2.627 4.947 14.683 17.005 19.474 20.097 4.791 3.092 20.865 14.686 23.338 16.54 2.473 1.856 7.11 5.257 8.191 5.411 1.082.155 12.364-13.603 14.992-18.24 2.627-4.639 4.946-14.378 4.018-16.542-.927-2.164-2.782-.309-4.636 1.237-1.855 1.546-18.856 12.83-20.402 13.604-.844.433-1.723.795-2.627 1.082 0 0-13.91-13.295-21.329-23.498-7.418-10.202-8.037-23.342-10.819-28.29-2.782-4.946-6.8-7.11-12.828-6.492-6.027.618-18.546 3.865-28.747 11.44z"/></g><g><g><path fill="#adc7f7" d="M140.96 146.463c4.13 2.956 7.722 5.565 8.791 6.369 2.473 1.855 7.11 5.256 8.192 5.41.383.056 2.052-1.644 4.16-4.062l-17.7-11.39z"/></g><g opacity=".5"><path fill="#fff" d="M140.96 146.463c4.13 2.956 7.722 5.565 8.791 6.369 2.473 1.855 7.11 5.256 8.192 5.41.383.056 2.052-1.644 4.16-4.062l-17.7-11.39z"/></g></g><g><path fill="none" stroke="#263238" stroke-linecap="round" stroke-linejoin="round" stroke-miterlimit="20" stroke-width=".5" d="M75.564 92.553s-4.946 2.782-6.646 5.874c-1.7 3.092 5.614 8.243 13.341 7.933 7.728-.309 21.898-8.706 21.898-8.706v0s.154 13.604 2.782 18.55c2.627 4.947 14.683 17.005 19.474 20.097 4.791 3.092 20.865 14.686 23.338 16.54 2.473 1.856 7.11 5.257 8.191 5.411 1.082.155 12.364-13.603 14.992-18.24 2.627-4.639 4.946-14.378 4.018-16.542-.927-2.164-2.782-.309-4.636 1.237-1.855 1.546-18.856 12.83-20.402 13.604-.844.433-1.723.795-2.627 1.082 0 0-13.91-13.295-21.329-23.498-7.418-10.202-8.037-23.342-10.819-28.29-2.782-4.946-6.8-7.11-12.828-6.492-6.027.618-18.546 3.865-28.747 11.44z"/></g><g><path fill="#263238" d="M148.323 138.467c-3.27-3.19-15.53-19.645-20.37-29.106-7.091-13.863-7.858-18.588-10.64-23.534-2.782-4.947-6.98-5.33-12.982-4.712-6.003.618-16.816 1.737-30.046 9.244 0 0-5.564 3.018-7.258 6.11-1.694 3.091 4.495 10.876 15.252 9.893 7.703-.705 21.897-8.706 21.897-8.706s.155 13.603 2.782 18.55c2.628 4.947 14.683 17.005 19.474 20.097 3.036 1.96 10.609 7.34 16.377 11.482 1.422-5.175 3.975-8.007 5.514-9.318z"/></g><g><g opacity=".53"><path fill="#fff" d="M148.323 138.467c-3.27-3.19-15.53-19.645-20.37-29.106-7.091-13.863-7.858-18.588-10.64-23.534-2.782-4.947-6.98-5.33-12.982-4.712-6.003.618-16.816 1.737-30.046 9.244 0 0-5.564 3.018-7.258 6.11-1.694 3.091 4.495 10.876 15.252 9.893 7.703-.705 21.897-8.706 21.897-8.706s.155 13.603 2.782 18.55c2.628 4.947 14.683 17.005 19.474 20.097 3.036 1.96 10.609 7.34 16.377 11.482 1.422-5.175 3.975-8.007 5.514-9.318z"/></g><g opacity=".14"><path d="M117.248 116.472c-4.637-11.749-1.855-35.246-14.837-32.154-9.46 2.25-26.8 10.252-35.511 14.426 1.032 3.55 6.72 8.41 15.357 7.618 7.703-.705 21.897-8.706 21.897-8.706s.155 13.603 2.782 18.55c2.627 4.947 14.683 17.005 19.474 20.097 3.035 1.96 10.609 7.34 16.377 11.482a22.102 22.102 0 0 1 2.157-5.175c-11.511-8.515-25.106-19.577-27.696-26.138z"/></g><g><path fill="none" stroke="#263238" stroke-linecap="round" stroke-linejoin="round" stroke-miterlimit="20" stroke-width=".5" d="M104.16 97.649l-.463-8.039"/></g></g><g><path fill="none" stroke="#263238" stroke-linecap="round" stroke-linejoin="round" stroke-miterlimit="20" stroke-width=".5" d="M148.323 138.467c-3.27-3.19-15.53-19.645-20.37-29.106-7.091-13.863-7.858-18.588-10.64-23.534-2.782-4.947-6.98-5.33-12.982-4.712-6.003.618-16.816 1.737-30.046 9.244 0 0-5.564 3.018-7.258 6.11-1.694 3.091 4.495 10.876 15.252 9.893 7.703-.705 21.897-8.706 21.897-8.706v0s.155 13.603 2.782 18.55c2.628 4.947 14.683 17.005 19.474 20.097 3.036 1.96 10.609 7.34 16.377 11.482 1.422-5.175 3.975-8.007 5.514-9.318z"/></g><g><path fill="#263238" d="M149.745 152.837c2.473 1.855 7.11 5.256 8.192 5.41 1.082.155 12.364-13.603 14.992-18.241 2.627-4.638 4.945-14.377 4.018-16.54-.927-2.165-2.782-.31-4.637 1.236-1.854 1.546-18.855 12.83-20.4 13.604-.409.204-.78.37-1.108.513-.445.847-.989 2.158-.618 3.042.618 1.391 3.246 3.246 3.246 3.246l-4.68 7.013z"/><path fill="none" stroke="#263238" stroke-linecap="round" stroke-linejoin="round" stroke-miterlimit="20" stroke-width=".5" d="M149.745 152.837c2.473 1.855 7.11 5.256 8.192 5.41 1.082.155 12.364-13.603 14.992-18.241 2.627-4.638 4.945-14.377 4.018-16.54-.927-2.165-2.782-.31-4.637 1.236-1.854 1.546-18.855 12.83-20.4 13.604-.409.204-.78.37-1.108.513-.445.847-.989 2.158-.618 3.042.618 1.391 3.246 3.246 3.246 3.246v0l-4.68 7.013v0z"/></g><g><path fill="#fff" d="M172.93 140.009c2.627-4.638 4.945-14.377 4.018-16.541-.538-1.237-1.385-1.157-2.368-.55.65 2.887 0 8.458-3.196 14.463-2.85 5.354-11.654 14.84-16.074 19.428a10.373 10.373 0 0 0 2.64 1.44c1.07.156 12.352-13.603 14.98-18.24z"/></g><g><g><path fill="#adc7f7" d="M158.1 158.207l.135-.068.037-.031c.075-.043.145-.092.21-.148l.075-.062.179-.149.099-.092.24-.223.15-.142.203-.198.173-.173.173-.173.44-.464.074-.074.272-.297.11-.118a82.39 82.39 0 0 0 1.027-1.144v-.03l.383-.433-2.701-1.738a255.79 255.79 0 0 1-4.099 4.36l.414.271.062.038.383.24.619.353.173.1.173.092.198.099.13.062c.061.03.125.057.191.08l.093.037a.94.94 0 0 0 .222.062c.039.01.08.01.118 0z"/></g><g opacity=".5"><path fill="#fff" d="M158.1 158.207l.135-.068.037-.031c.075-.043.145-.092.21-.148l.075-.062.179-.149.099-.092.24-.223.15-.142.203-.198.173-.173.173-.173.44-.464.074-.074.272-.297.11-.118a82.39 82.39 0 0 0 1.027-1.144v-.03l.383-.433-2.701-1.738a255.79 255.79 0 0 1-4.099 4.36l.414.271.062.038.383.24.619.353.173.1.173.092.198.099.13.062c.061.03.125.057.191.08l.093.037a.94.94 0 0 0 .222.062c.039.01.08.01.118 0z"/></g></g><g><path fill="none" stroke="#263238" stroke-linecap="round" stroke-linejoin="round" stroke-miterlimit="20" stroke-width=".5" d="M172.93 140.009c2.627-4.638 4.945-14.377 4.018-16.541-.538-1.237-1.385-1.157-2.368-.55.65 2.887 0 8.458-3.196 14.463-2.85 5.354-11.654 14.84-16.074 19.428a10.373 10.373 0 0 0 2.64 1.44c1.07.156 12.352-13.603 14.98-18.24z"/></g><g><path fill="#263238" d="M148.355 161.809c-4.636-2.938-9.891-11.13-10.046-13.913-.007-.305.018-.61.074-.91a4.42 4.42 0 0 0-2.547.91 59.091 59.091 0 0 0-6.027-4.793 12.622 12.622 0 0 0-5.564-1.663c-2.244 1.855-4.328 3.34-4.655 4.6-.619 2.32 3.554 11.595 13.6 18.087 10.046 6.493 13.447 5.41 16.383 4.793 2.937-.619 3.419-4.174-1.218-7.111z"/><path fill="none" stroke="#263238" stroke-linecap="round" stroke-linejoin="round" stroke-miterlimit="20" stroke-width=".5" d="M148.355 161.809c-4.636-2.938-9.891-11.13-10.046-13.913-.007-.305.018-.61.074-.91a4.42 4.42 0 0 0-2.547.91 59.091 59.091 0 0 0-6.027-4.793 12.622 12.622 0 0 0-5.564-1.663c-2.244 1.855-4.328 3.34-4.655 4.6-.619 2.32 3.554 11.595 13.6 18.087 10.046 6.493 13.447 5.41 16.383 4.793 2.937-.619 3.419-4.174-1.218-7.111z"/></g><g><path fill="#fff" d="M148.357 161.807a20.199 20.199 0 0 1-4.118-3.71c-3.19-1.36-7.45-3.092-11.183-5.417-4.019-2.473-3.091-4.02-5.41-6.338-1.78-1.78-5.28-2.01-6.8-2.022a4.273 4.273 0 0 0-1.236 1.713c-.619 2.319 3.554 11.594 13.6 18.087 10.046 6.492 13.447 5.41 16.383 4.792 2.937-.618 3.4-4.168-1.236-7.105z"/></g><g><g><path fill="#adc7f7" d="M148.357 161.807a20.199 20.199 0 0 1-4.118-3.71c-3.19-1.36-7.45-3.092-11.183-5.417-4.019-2.473-3.091-4.02-5.41-6.338-1.78-1.78-5.28-2.01-6.8-2.022a4.273 4.273 0 0 0-1.236 1.713c-.619 2.319 3.554 11.594 13.6 18.087 10.046 6.492 13.447 5.41 16.383 4.792 2.937-.618 3.4-4.168-1.236-7.105z"/></g><g opacity=".5"><path fill="#fff" d="M148.357 161.807a20.199 20.199 0 0 1-4.118-3.71c-3.19-1.36-7.45-3.092-11.183-5.417-4.019-2.473-3.091-4.02-5.41-6.338-1.78-1.78-5.28-2.01-6.8-2.022a4.273 4.273 0 0 0-1.236 1.713c-.619 2.319 3.554 11.594 13.6 18.087 10.046 6.492 13.447 5.41 16.383 4.792 2.937-.618 3.4-4.168-1.236-7.105z"/></g></g><g><path fill="none" stroke="#263238" stroke-linecap="round" stroke-linejoin="round" stroke-miterlimit="20" stroke-width=".5" d="M148.357 161.807a20.199 20.199 0 0 1-4.118-3.71c-3.19-1.36-7.45-3.092-11.183-5.417-4.019-2.473-3.091-4.02-5.41-6.338-1.78-1.78-5.28-2.01-6.8-2.022a4.273 4.273 0 0 0-1.236 1.713c-.619 2.319 3.554 11.594 13.6 18.087 10.046 6.492 13.447 5.41 16.383 4.792 2.937-.618 3.4-4.168-1.236-7.105z"/></g><g><path fill="#263238" d="M149.136 162.893c-4.019-2.32-12.21-3.865-17.465-7.42-5.255-3.556-3.864-6.648-7.728-9.121a3.925 3.925 0 0 0-4.327-.248c-.538 2.412 3.647 11.582 13.6 18.025 9.954 6.443 13.447 5.41 16.383 4.792 1.954-.414 2.801-2.12 1.793-4.08a8.433 8.433 0 0 0-2.256-1.948z"/></g><g opacity=".53"><path fill="#fff" d="M149.136 162.893c-4.019-2.32-12.21-3.865-17.465-7.42-5.255-3.556-3.864-6.648-7.728-9.121a3.925 3.925 0 0 0-4.327-.248c-.538 2.412 3.647 11.582 13.6 18.025 9.954 6.443 13.447 5.41 16.383 4.792 1.954-.414 2.801-2.12 1.793-4.08a8.433 8.433 0 0 0-2.256-1.948z"/></g><g><path fill="none" stroke="#263238" stroke-linecap="round" stroke-linejoin="round" stroke-miterlimit="20" stroke-width=".5" d="M149.136 162.893c-4.019-2.32-12.21-3.865-17.465-7.42-5.255-3.556-3.864-6.648-7.728-9.121a3.925 3.925 0 0 0-4.327-.248c-.538 2.412 3.647 11.582 13.6 18.025 9.954 6.443 13.447 5.41 16.383 4.792 1.954-.414 2.801-2.12 1.793-4.08a8.433 8.433 0 0 0-2.256-1.948z"/></g><g><path fill="#fff" d="M72.11 133.316s2.968-3.605 3.388-.847c.42 2.758-.21 7.84-2.33 9.745-2.12 1.905-3.178-1.057-3.178-1.057l1.274-1.694s1.057 2.12 1.904-1.274c.847-3.395-1.694-2.968-1.694-2.968z"/><path fill="none" stroke="#263238" stroke-linecap="round" stroke-linejoin="round" stroke-miterlimit="20" stroke-width=".5" d="M72.11 133.316v0s2.968-3.605 3.388-.847c.42 2.758-.21 7.84-2.33 9.745-2.12 1.905-3.178-1.057-3.178-1.057v0l1.274-1.694v0s1.057 2.12 1.904-1.274c.847-3.395-1.694-2.968-1.694-2.968v0z"/></g><g><path fill="#fff" d="M69.85 146.886c-1.756 1.299-7.48 1.299-9.23 0-3.71-2.751-3.091-16.046-3.091-16.046h15.369s.667 13.295-3.048 16.046z"/><path fill="none" stroke="#263238" stroke-linecap="round" stroke-linejoin="round" stroke-miterlimit="20" stroke-width=".5" d="M69.85 146.886c-1.756 1.299-7.48 1.299-9.23 0-3.71-2.751-3.091-16.046-3.091-16.046v0h15.369v0s.667 13.295-3.048 16.046z"/></g><g><path fill="none" stroke="#263238" stroke-linecap="round" stroke-linejoin="round" stroke-miterlimit="20" stroke-width=".5" d="M59.21 128.235c0-1.67 1.552-1.67 1.552-3.345 0-1.676-1.552-1.676-1.552-3.346 0-1.67 1.552-1.675 1.552-3.351s-1.552-1.676-1.552-3.352c0-1.675 1.552-1.675 1.552-3.351"/></g><g><path fill="none" stroke="#263238" stroke-linecap="round" stroke-linejoin="round" stroke-miterlimit="20" stroke-width=".5" d="M64.52 128.233c0-1.236 1.552-1.236 1.552-2.541s-1.552-1.268-1.552-2.542c0-1.273 1.552-1.267 1.552-2.541s-1.552-1.274-1.552-2.548c0-1.273 1.552-1.267 1.552-2.541"/></g><g><path fill="none" stroke="#263238" stroke-linecap="round" stroke-linejoin="round" stroke-miterlimit="20" stroke-width=".5" d="M70.36 128.235c0-1.67 1.545-1.67 1.545-3.345 0-1.676-1.545-1.676-1.545-3.346 0-1.67 1.545-1.675 1.545-3.351s-1.545-1.676-1.545-3.352c0-1.675 1.545-1.675 1.545-3.351"/></g><g><path fill="#fff" d="M72.909 130.839c0 .39-3.437.698-7.685.698-4.247 0-7.684-.309-7.684-.698 0-.39 3.437-.699 7.684-.699 4.248 0 7.685.31 7.685.699z"/><path fill="none" stroke="#263238" stroke-linecap="round" stroke-linejoin="round" stroke-miterlimit="20" stroke-width=".5" d="M72.909 130.839c0 .39-3.437.698-7.685.698-4.247 0-7.684-.309-7.684-.698 0-.39 3.437-.699 7.684-.699 4.248 0 7.685.31 7.685.699z"/></g><g><path fill="#fff" d="M87.09 35.156s.723 7.81 1.026 10.277c.303 2.468.99 9.554 1.7 11.897.711 2.344 4.588 6.419 4.946 5.48.359-.94 2.288-7.316 1.52-11.131-.766-3.816-1-7.074-.525-8.039.476-.964 2.189-2.047 2.189-2.047a62.087 62.087 0 0 1-5.805-3.382c-2.733-1.818-4.668-3.877-5.051-3.055z"/></g><g><g><path fill="#adc7f7" d="M97.02 42.017l-.618-1.2a55.269 55.269 0 0 1-4.223-2.54c-2.75-1.856-4.686-3.94-5.069-3.092 0 0 .723 7.81 1.026 10.277.303 2.467.99 9.553 1.7 11.897.243.685.578 1.334.996 1.929-.748-4.663.062-13.084.062-13.084z"/></g><g opacity=".5"><path fill="#fff" d="M97.02 42.017l-.618-1.2a55.269 55.269 0 0 1-4.223-2.54c-2.75-1.856-4.686-3.94-5.069-3.092 0 0 .723 7.81 1.026 10.277.303 2.467.99 9.553 1.7 11.897.243.685.578 1.334.996 1.929-.748-4.663.062-13.084.062-13.084z"/></g></g><g><path fill="none" stroke="#263238" stroke-linecap="round" stroke-linejoin="round" stroke-miterlimit="20" stroke-width=".5" d="M87.09 35.156s.723 7.81 1.026 10.277c.303 2.468.99 9.554 1.7 11.897.711 2.344 4.588 6.419 4.946 5.48.359-.94 2.288-7.316 1.52-11.131-.766-3.816-1-7.074-.525-8.039.476-.964 2.189-2.047 2.189-2.047a62.087 62.087 0 0 1-5.805-3.382c-2.733-1.818-4.668-3.877-5.051-3.055z"/></g><g><path fill="#fff" d="M86.805 36.284s4.45 3.71 7.863 5.07c3.413 1.36 8.655 1.274 9.404-.5.748-1.775-1.299-15.83-3.06-19.528-1.763-3.698-3.642-3.76-6.752-4.044-3.11-.285-9.329 2.25-10.423 5.256-1.094 3.005.155 7.26 1.057 9.782a18.552 18.552 0 0 0 1.91 3.964z"/></g><g><g><path fill="#adc7f7" d="M94.807 36.116c-1.577-4.675-1.972-12.033-1.972-13.993 0-1.515 3.944-3.179 5.743-3.859-1.18-.73-2.553-.822-4.328-.983-3.09-.278-9.329 2.25-10.423 5.256-1.094 3.005.155 7.26 1.057 9.782a18.552 18.552 0 0 0 1.91 3.964s4.452 3.71 7.864 5.07a14.16 14.16 0 0 0 7.419.712c-2.442-.922-6.22-2.826-7.27-5.949z"/></g><g opacity=".5"><path fill="#fff" d="M94.807 36.116c-1.577-4.675-1.972-12.033-1.972-13.993 0-1.515 3.944-3.179 5.743-3.859-1.18-.73-2.553-.822-4.328-.983-3.09-.278-9.329 2.25-10.423 5.256-1.094 3.005.155 7.26 1.057 9.782a18.552 18.552 0 0 0 1.91 3.964s4.452 3.71 7.864 5.07a14.16 14.16 0 0 0 7.419.712c-2.442-.922-6.22-2.826-7.27-5.949z"/></g></g><g><path fill="none" stroke="#263238" stroke-linecap="round" stroke-linejoin="round" stroke-miterlimit="20" stroke-width=".5" d="M86.805 36.284s4.45 3.71 7.863 5.07c3.413 1.36 8.655 1.274 9.404-.5.748-1.775-1.299-15.83-3.06-19.528-1.763-3.698-3.642-3.76-6.752-4.044-3.11-.285-9.329 2.25-10.423 5.256-1.094 3.005.155 7.26 1.057 9.782a18.552 18.552 0 0 0 1.91 3.964z"/></g><g><path fill="none" stroke="#263238" stroke-linecap="round" stroke-linejoin="round" stroke-miterlimit="20" stroke-width=".5" d="M101.35 27.12c.075 1.78-1.044 3.271-2.472 3.327-1.428.055-2.677-1.336-2.745-3.092-.068-1.756 1.045-3.271 2.473-3.333 1.428-.062 2.677 1.299 2.745 3.098z"/></g><g><path fill="none" stroke="#263238" stroke-linecap="round" stroke-linejoin="round" stroke-miterlimit="20" stroke-width=".5" d="M104.845 26.423c.074 1.78-.501 3.246-1.28 3.277-.78.03-1.472-1.385-1.54-3.166-.068-1.78.507-3.253 1.286-3.284.78-.03 1.466 1.392 1.534 3.173z"/></g><g><path fill="#fff" d="M101.53 26.46s5.106.97 4.612 2.201c-.495 1.23-3.944 2.56-3.944 2.56"/><path fill="none" stroke="#263238" stroke-linecap="round" stroke-linejoin="round" stroke-miterlimit="20" stroke-width=".5" d="M101.53 26.46v0s5.106.97 4.612 2.201c-.495 1.23-3.944 2.56-3.944 2.56v0"/></g><g><path fill="none" stroke="#263238" stroke-linecap="round" stroke-linejoin="round" stroke-miterlimit="20" stroke-width=".5" d="M101.22 25.878s.074-.618.86-.229"/></g><g><path fill="none" stroke="#263238" stroke-linecap="round" stroke-linejoin="round" stroke-miterlimit="20" stroke-width=".5" d="M95.976 27.6l-9.286 3.654"/></g><g><path fill="none" stroke="#263238" stroke-linecap="round" stroke-linejoin="round" stroke-miterlimit="20" d="M96.09 24.593a2.355 2.355 0 0 1 2.312-1.398"/></g><g><path fill="none" stroke="#263238" stroke-linecap="round" stroke-linejoin="round" stroke-miterlimit="20" d="M102.278 23.24l-1.428.538"/></g><g><path fill="none" stroke="#263238" stroke-linecap="round" stroke-linejoin="round" stroke-miterlimit="20" stroke-width=".5" d="M97.86 34.118s1.855.482 2.906-.618"/></g><g><path fill="#263238" d="M99.055 27.435c.086.618 0 1.15-.254 1.181-.253.031-.476-.445-.563-1.07-.086-.624.031-1.144.26-1.175.229-.03.476.446.557 1.064z"/></g><g><path fill="#263238" d="M87.546 31.281s-.618 1.237 1.126 1.299c1.743.061 2.93-.786 2.083-1.856s-2.102-2.071-.81-3.468c1.292-1.398 3.802-2.573 2.393-4.131-1.41-1.558-6.597-.142-5.299-1.404 1.299-1.261 7.295-2.578 9.99-2.411 2.696.167 7.729-1.923 8.835-4.656 1.107-2.734-.439-7.786-4.061-7.513-3.623.272-6.325 3.48-7.932 3.71-1.608.228-4.903-1.559-7.666 0-2.764 1.558-2.856 6.035-3.091 6.585-.235.55-3.982 1.367-4.643 5.157a10.105 10.105 0 0 0 2.609 8.54c1.552 1.688 2.25 2.33 2.25 2.33z"/><path fill="none" stroke="#263238" stroke-linecap="round" stroke-linejoin="round" stroke-miterlimit="20" stroke-width=".5" d="M87.546 31.281v0s-.618 1.237 1.126 1.299c1.743.061 2.93-.786 2.083-1.856s-2.102-2.071-.81-3.468c1.292-1.398 3.802-2.573 2.393-4.131-1.41-1.558-6.597-.142-5.299-1.404 1.299-1.261 7.295-2.578 9.99-2.411 2.696.167 7.729-1.923 8.835-4.656 1.107-2.734-.439-7.786-4.061-7.513-3.623.272-6.325 3.48-7.932 3.71-1.608.228-4.903-1.559-7.666 0-2.764 1.558-2.856 6.035-3.091 6.585-.235.55-3.982 1.367-4.643 5.157a10.105 10.105 0 0 0 2.609 8.54c1.552 1.688 2.25 2.33 2.25 2.33v0z"/></g><g><path fill="none" stroke="#fff" stroke-linecap="round" stroke-linejoin="round" stroke-miterlimit="20" stroke-width=".5" d="M79.684 24.43a2.938 2.938 0 0 0 .395 1.645"/></g><g><path fill="none" stroke="#fff" stroke-linecap="round" stroke-linejoin="round" stroke-miterlimit="20" stroke-width=".5" d="M95.443 14.64v0s-1.348-2.95 2.09-2.95c3.436 0 3.931 4.328.37 5.9-3.56 1.57-11.307 1.965-15.486 3.814-.82.321-1.55.837-2.127 1.503"/></g><g><path fill="none" stroke="#fff" stroke-linecap="round" stroke-linejoin="round" stroke-miterlimit="20" stroke-width=".5" d="M89.217 25.11a55.257 55.257 0 0 0-4.463 1.818c-3.444 1.601-2.708 3.197-2.708 3.197v0"/></g><g><path fill="none" stroke="#fff" stroke-linecap="round" stroke-linejoin="round" stroke-miterlimit="20" stroke-width=".5" d="M91.516 24.352s-.303.087-.816.254"/></g><g><path fill="#fff" d="M88.14 32.599s-1.998-2.882-4.1-1.725c-2.101 1.156-.47 5.268.798 6.696 1.267 1.429 3.71-1.236 3.963-1.904"/></g><g><g><path fill="#adc7f7" d="M88.14 32.599s-1.998-2.882-4.1-1.725c-2.101 1.156-.47 5.268.798 6.696 1.267 1.429 3.71-1.236 3.963-1.904"/></g><g opacity=".5"><path fill="#fff" d="M88.14 32.599s-1.998-2.882-4.1-1.725c-2.101 1.156-.47 5.268.798 6.696 1.267 1.429 3.71-1.236 3.963-1.904"/></g></g><g><path fill="none" stroke="#263238" stroke-linecap="round" stroke-linejoin="round" stroke-miterlimit="20" stroke-width=".5" d="M88.14 32.599v0s-1.998-2.882-4.1-1.725c-2.101 1.156-.47 5.268.798 6.696 1.267 1.429 3.71-1.236 3.963-1.904"/></g><g><path fill="#fff" d="M15.44 32.53A2.56 2.56 0 0 1 18 29.97h45.525a2.56 2.56 0 0 1 2.56 2.56v33.614a2.56 2.56 0 0 1-2.56 2.56H18a2.56 2.56 0 0 1-2.56-2.56z"/><path fill="none" stroke="#263238" stroke-linecap="round" stroke-linejoin="round" stroke-miterlimit="20" stroke-width=".5" d="M15.44 32.53A2.56 2.56 0 0 1 18 29.97h45.525a2.56 2.56 0 0 1 2.56 2.56v33.614a2.56 2.56 0 0 1-2.56 2.56H18a2.56 2.56 0 0 1-2.56-2.56z"/></g><g><path fill="#fff" d="M65.12 57.842l29.675 7.73L65.12 51.04"/><path fill="none" stroke="#263238" stroke-linecap="round" stroke-linejoin="round" stroke-miterlimit="20" stroke-width=".5" d="M65.12 57.842v0l29.675 7.73v0L65.12 51.04v0"/></g><g><path fill="#adc7f7" d="M19.53 33.7h11.913v31.289H19.53z"/><path fill="none" stroke="#263238" stroke-linecap="round" stroke-linejoin="round" stroke-miterlimit="20" stroke-width=".5" d="M19.53 33.7v0h11.913v31.289H19.53v0z"/></g><g><path fill="#adc7f7" d="M61.97 33.7h1.49v31.289h-1.49z"/><path fill="none" stroke="#263238" stroke-linecap="round" stroke-linejoin="round" stroke-miterlimit="20" stroke-width=".5" d="M61.97 33.7v0h1.49v31.289h-1.49v0z"/></g><g><path fill="#263238" d="M61.97 48h1.49v2.671h-1.49z"/><path fill="none" stroke="#263238" stroke-linecap="round" stroke-linejoin="round" stroke-miterlimit="20" stroke-width=".5" d="M61.97 48v0h1.49v2.671h-1.49v0z"/></g><g><path fill="#fff" d="M35.18 34.44h23.461"/><path fill="none" stroke="#263238" stroke-linecap="round" stroke-linejoin="round" stroke-miterlimit="20" stroke-width=".5" d="M35.18 34.44h23.461"/></g><g><path fill="#fff" d="M35.18 37.79h23.461"/><path fill="none" stroke="#263238" stroke-linecap="round" stroke-linejoin="round" stroke-miterlimit="20" stroke-width=".5" d="M35.18 37.79h23.461"/></g><g><path fill="#fff" d="M35.18 41.15h23.461"/><path fill="none" stroke="#263238" stroke-linecap="round" stroke-linejoin="round" stroke-miterlimit="20" stroke-width=".5" d="M35.18 41.15h23.461"/></g><g><path fill="#fff" d="M35.18 44.5h23.461"/><path fill="none" stroke="#263238" stroke-linecap="round" stroke-linejoin="round" stroke-miterlimit="20" stroke-width=".5" d="M35.18 44.5h23.461"/></g><g><path fill="#fff" d="M35.18 52.69h23.461"/><path fill="none" stroke="#263238" stroke-linecap="round" stroke-linejoin="round" stroke-miterlimit="20" stroke-width=".5" d="M35.18 52.69h23.461"/></g><g><path fill="#fff" d="M35.18 55.67h23.461"/><path fill="none" stroke="#263238" stroke-linecap="round" stroke-linejoin="round" stroke-miterlimit="20" stroke-width=".5" d="M35.18 55.67h23.461"/></g><g><path fill="#fff" d="M35.18 58.65h23.461"/><path fill="none" stroke="#263238" stroke-linecap="round" stroke-linejoin="round" stroke-miterlimit="20" stroke-width=".5" d="M35.18 58.65h23.461"/></g><g><path fill="#fff" d="M35.18 64.84h23.461"/><path fill="none" stroke="#263238" stroke-linecap="round" stroke-linejoin="round" stroke-miterlimit="20" stroke-width=".5" d="M35.18 64.84h23.461"/></g><g><path fill="none" stroke="#263238" stroke-linecap="round" stroke-linejoin="round" stroke-miterlimit="20" stroke-width=".5" d="M19.53 64.982L31.45 33.7"/></g></g></g></g></svg>