<svg xmlns="http://www.w3.org/2000/svg" width="135" height="140" viewBox="0 0 135 140"><g><g><g><g><path fill="#adc7f7" d="M.154 58.576s-2.585 24.942 15.838 45.622 46.917 27.608 69.901 33.835c22.984 6.226 42.595-3.346 47.995-22.676 5.4-19.33-11.536-28.715-18.058-53.258-6.522-24.543-4.658-31.801-23.109-49.797S41.278-3.54 21.324 16.938C1.37 37.415.154 58.576.154 58.576z"/></g><g opacity=".7"><path fill="#fff" d="M.154 58.576s-2.585 24.942 15.838 45.622 46.917 27.608 69.901 33.835c22.984 6.226 42.595-3.346 47.995-22.676 5.4-19.33-11.536-28.715-18.058-53.258-6.522-24.543-4.658-31.801-23.109-49.797S41.278-3.54 21.324 16.938C1.37 37.415.154 58.576.154 58.576z"/></g></g><g><g><path fill="#263238" d="M37.46 22.124a4.024 4.024 0 0 1 4.024-4.024H92.39a4.024 4.024 0 0 1 4.024 4.024v106.998a4.024 4.024 0 0 1-4.024 4.024H41.484a4.024 4.024 0 0 1-4.024-4.024z"/></g><g><g opacity=".2"><path fill="#fff" d="M42.539 18.1a5.079 5.079 0 0 0-5.079 5.082v104.882a5.066 5.066 0 0 0 1.82 3.897L73.677 18.1z"/></g><g><path fill="none" stroke="#fff" stroke-linecap="round" stroke-linejoin="round" stroke-miterlimit="20" stroke-width=".5" d="M68.93 129.825a2.005 2.005 0 1 0-2.002 2.005 1.999 1.999 0 0 0 2.002-2.005z"/></g></g><g><path fill="none" stroke="#263238" stroke-linecap="round" stroke-linejoin="round" stroke-miterlimit="20" stroke-width=".5" d="M37.46 22.124a4.024 4.024 0 0 1 4.024-4.024H92.39a4.024 4.024 0 0 1 4.024 4.024v106.998a4.024 4.024 0 0 1-4.024 4.024H41.484a4.024 4.024 0 0 1-4.024-4.024z"/></g><g><path fill="#fff" d="M40.08 25.92h53.71v100.405H40.08z"/><path fill="none" stroke="#263238" stroke-linecap="round" stroke-linejoin="round" stroke-miterlimit="20" stroke-width=".5" d="M40.08 25.92v0h53.71v100.405H40.08v0z"/></g><g><path fill="none" stroke="#263238" stroke-linecap="round" stroke-linejoin="round" stroke-miterlimit="20" stroke-width=".5" d="M87.51 26.96v0h4.452v2.441H87.51v0z"/></g><g><path fill="#263238" d="M87.51 26.96h3.473v2.441H87.51z"/><path fill="none" stroke="#263238" stroke-linecap="round" stroke-linejoin="round" stroke-miterlimit="20" stroke-width=".5" d="M87.51 26.96v0h3.473v2.441H87.51v0z"/></g><g><path fill="#263238" d="M91.95 27.64h.627v1.076h-.627z"/><path fill="none" stroke="#263238" stroke-linecap="round" stroke-linejoin="round" stroke-miterlimit="20" stroke-width=".5" d="M91.95 27.64v0h.627v1.076h-.627v0z"/></g><g><path fill="#263238" d="M41.29 27.72h.817v1.4h-.817z"/><path fill="none" stroke="#263238" stroke-linecap="round" stroke-linejoin="round" stroke-miterlimit="20" stroke-width=".5" d="M41.29 27.72v0h.817v1.4h-.817v0z"/></g><g><path fill="#263238" d="M42.57 27.22h.817v1.892h-.817z"/><path fill="none" stroke="#263238" stroke-linecap="round" stroke-linejoin="round" stroke-miterlimit="20" stroke-width=".5" d="M42.57 27.22v0h.817v1.892h-.817v0z"/></g><g><path fill="#263238" d="M43.85 26.64h.817v2.472h-.817z"/><path fill="none" stroke="#263238" stroke-linecap="round" stroke-linejoin="round" stroke-miterlimit="20" stroke-width=".5" d="M43.85 26.64v0h.817v2.472h-.817v0z"/></g><g><path fill="#adc7f7" d="M40.94 30.76h51.574v3.879H40.94z"/></g></g><g><g><path fill="#fff" d="M89.435 85.96H73.584a1.958 1.958 0 0 0-1.958 1.958v1.946l-3.916 1.761 3.916 1.05v1.217c0 1.081.877 1.958 1.958 1.958H89.45a1.958 1.958 0 0 0 1.958-1.958v-5.97a1.958 1.958 0 0 0-1.973-1.962z"/><path fill="none" stroke="#263238" stroke-miterlimit="20" stroke-width=".5" d="M89.435 85.96v0H73.584a1.958 1.958 0 0 0-1.958 1.958v1.946l-3.916 1.761v0l3.916 1.05v1.217c0 1.081.877 1.958 1.958 1.958H89.45a1.958 1.958 0 0 0 1.958-1.958v-5.97a1.958 1.958 0 0 0-1.973-1.962z"/></g><g><path fill="#263238" d="M78.732 91.066a.826.826 0 1 1-1.652 0 .826.826 0 0 1 1.652 0z"/></g><g><path fill="#263238" d="M82.336 91.066a.823.823 0 1 1-1.646-.006.823.823 0 0 1 1.646.006z"/></g><g><path fill="#263238" d="M85.942 91.066a.826.826 0 1 1-1.652 0 .826.826 0 0 1 1.652 0z"/></g><g><path fill="#fff" d="M89.435 39.19H73.584c-1.08 0-1.956.875-1.958 1.955v1.949l-3.916 1.761 3.916 1.05v1.217c0 1.081.877 1.958 1.958 1.958H89.45a1.958 1.958 0 0 0 1.958-1.958v-5.97a1.958 1.958 0 0 0-1.973-1.962z"/><path fill="none" stroke="#263238" stroke-miterlimit="20" stroke-width=".5" d="M89.435 39.19v0H73.584c-1.08 0-1.956.875-1.958 1.955v1.949l-3.916 1.761v0l3.916 1.05v1.217c0 1.081.877 1.958 1.958 1.958H89.45a1.958 1.958 0 0 0 1.958-1.958v-5.97a1.958 1.958 0 0 0-1.973-1.962z"/></g><g><path fill="#263238" d="M78.732 44.296a.826.826 0 1 1-1.652 0 .826.826 0 0 1 1.652 0z"/></g><g><path fill="#263238" d="M82.336 44.296a.823.823 0 1 1-1.646-.006.823.823 0 0 1 1.646.006z"/></g><g><path fill="#263238" d="M85.942 44.296a.826.826 0 1 1-1.652 0 .826.826 0 0 1 1.652 0z"/></g><g><path fill="#fff" d="M44.708 111.3h15.866c1.082 0 1.958.877 1.958 1.958v1.945l3.916 1.762-3.916 1.05v1.217a1.958 1.958 0 0 1-1.958 1.958H44.708a1.958 1.958 0 0 1-1.958-1.958v-5.962a1.958 1.958 0 0 1 1.958-1.97z"/><path fill="none" stroke="#263238" stroke-miterlimit="20" stroke-width=".5" d="M44.708 111.3h15.866c1.082 0 1.958.877 1.958 1.958v1.945l3.916 1.762v0l-3.916 1.05v1.217a1.958 1.958 0 0 1-1.958 1.958H44.708a1.958 1.958 0 0 1-1.958-1.958v-5.962a1.958 1.958 0 0 1 1.958-1.97z"/></g><g><path fill="#263238" d="M55.41 116.423a.826.826 0 1 0 1.652.006.826.826 0 0 0-1.652-.006z"/></g><g><path fill="#263238" d="M51.8 116.423a.823.823 0 1 0 1.646 0 .823.823 0 0 0-1.646 0z"/></g><g><path fill="#263238" d="M48.19 116.423a.826.826 0 1 0 1.652.006.826.826 0 0 0-1.652-.006z"/></g><g><path fill="#fff" d="M44.708 63.91h15.866c1.082 0 1.958.877 1.958 1.958v1.945l3.916 1.762-3.916 1.05v1.217a1.958 1.958 0 0 1-1.958 1.958H44.708a1.958 1.958 0 0 1-1.958-1.958v-5.977a1.958 1.958 0 0 1 1.958-1.955z"/><path fill="none" stroke="#263238" stroke-miterlimit="20" stroke-width=".5" d="M44.708 63.91h15.866c1.082 0 1.958.877 1.958 1.958v1.945l3.916 1.762v0l-3.916 1.05v1.217a1.958 1.958 0 0 1-1.958 1.958H44.708a1.958 1.958 0 0 1-1.958-1.958v-5.977a1.958 1.958 0 0 1 1.958-1.955z"/></g><g><path fill="#263238" d="M55.41 69.016a.826.826 0 1 0 1.652 0 .826.826 0 0 0-1.652 0z"/></g><g><path fill="#263238" d="M51.8 69.016a.823.823 0 1 0 1.646-.006.823.823 0 0 0-1.646.006z"/></g><g><path fill="#263238" d="M48.19 69.016a.826.826 0 1 0 1.652 0 .826.826 0 0 0-1.652 0z"/></g></g><g><g><path fill="#616161" d="M67.798 62.63c-.368-1.624-1.79-7.728-2.678-8.926-1.026-1.384-6.962-4.598-7.81-5.178-.848-.58-2.142-1.026-2.544-1.026 0 0-3.258 1.116-6.47 1.964-3.21.848-4.988 1.428-5.356 2.494-.312.936-1.736 8.799-2.07 10.666z"/><path fill="none" stroke="#263238" stroke-linecap="round" stroke-linejoin="round" stroke-miterlimit="20" stroke-width=".5" d="M67.798 62.63c-.368-1.624-1.79-7.728-2.678-8.926-1.026-1.384-6.962-4.598-7.81-5.178-.848-.58-2.142-1.026-2.544-1.026 0 0-3.258 1.116-6.47 1.964-3.21.848-4.988 1.428-5.356 2.494-.312.936-1.736 8.799-2.07 10.666z"/></g><g><path fill="none" stroke="#263238" stroke-linecap="round" stroke-linejoin="round" stroke-miterlimit="20" stroke-width=".5" d="M48.326 62.074c-.135-2.33-.267-4.658-.396-6.984"/></g><g><path fill="#fff" d="M57.177 54.64c1.519-.222 2.367-2.99 2.591-4.15.031-.168.062-.312.09-.452-1.21-.714-2.232-1.294-2.547-1.512-.848-.58-2.142-1.026-2.544-1.026 0 0-1.188.408-2.837.917.221.505.786 1.752 1.634 3.414 1.116 2.185 2.098 3.04 3.613 2.809z"/><path fill="none" stroke="#263238" stroke-linecap="round" stroke-linejoin="round" stroke-miterlimit="20" stroke-width=".5" d="M57.177 54.64c1.519-.222 2.367-2.99 2.591-4.15.031-.168.062-.312.09-.452-1.21-.714-2.232-1.294-2.547-1.512-.848-.58-2.142-1.026-2.544-1.026 0 0-1.188.408-2.837.917.221.505.786 1.752 1.634 3.414 1.116 2.185 2.098 3.04 3.613 2.809z"/></g><g><path fill="#b2b2b2" d="M53.782 43.44s-.446 4.598-.49 4.866c-.043.269.58 2.052 1.653 3.704 1.072 1.653 2.494 1.519 3.21.088a22.994 22.994 0 0 0 1.295-3.704 4.798 4.798 0 0 1-3.258-2.494c-1.07-2.145-1.965-3.084-2.41-2.46z"/><path fill="none" stroke="#263238" stroke-linecap="round" stroke-linejoin="round" stroke-miterlimit="20" stroke-width=".5" d="M53.782 43.44s-.446 4.598-.49 4.866c-.043.269.58 2.052 1.653 3.704 1.072 1.653 2.494 1.519 3.21.088a22.994 22.994 0 0 0 1.295-3.704 4.798 4.798 0 0 1-3.258-2.494c-1.07-2.145-1.965-3.084-2.41-2.46z"/></g><g><path fill="#b2b2b2" d="M56.866 32.51s-2.856.849-3.882 3.081c-.835 1.815-.358 4.643 0 5.578.359.935.49 2.769 1.16 4.421.67 1.652 2.454 3.741 3.972 4.053 1.519.312 4.509-2.098 5.3-3.211.792-1.113.537-3.037.624-3.349.087-.311 1.247-2.544 1.116-5.3-.13-2.756-3.96-6.03-8.29-5.272z"/><path fill="none" stroke="#263238" stroke-linecap="round" stroke-linejoin="round" stroke-miterlimit="20" stroke-width=".5" d="M56.866 32.51s-2.856.849-3.882 3.081c-.835 1.815-.358 4.643 0 5.578.359.935.49 2.769 1.16 4.421.67 1.652 2.454 3.741 3.972 4.053 1.519.312 4.509-2.098 5.3-3.211.792-1.113.537-3.037.624-3.349.087-.311 1.247-2.544 1.116-5.3-.13-2.756-3.96-6.03-8.29-5.272z"/></g><g><path fill="none" stroke="#263238" stroke-linecap="round" stroke-linejoin="round" stroke-miterlimit="20" stroke-width=".5" d="M62.352 42.77v0s.403 2.588-.224 2.856c-.627.268-1.83-.134-2.008-.493"/></g><g><path fill="#263238" d="M59.764 46.518a4.561 4.561 0 0 1-1.743-1.428s-.982 1.472.09 1.87a1.39 1.39 0 0 0 1.653-.442z"/><path fill="none" stroke="#263238" stroke-linecap="round" stroke-linejoin="round" stroke-miterlimit="20" stroke-width=".5" d="M59.764 46.518a4.561 4.561 0 0 1-1.743-1.428s-.982 1.472.09 1.87a1.39 1.39 0 0 0 1.653-.442z"/></g><g><path fill="#263238" d="M60.287 42.696c-.11.352-.34.596-.518.543-.178-.053-.23-.384-.125-.74.106-.355.34-.595.515-.542.174.053.234.384.128.74z"/></g><g><path fill="#263238" d="M63.417 43.186c-.11.355-.34.599-.518.543-.178-.057-.23-.384-.125-.736.106-.353.34-.599.518-.546.178.053.23.387.125.74z"/></g><g><path fill="#263238" d="M61.193 41.106a.287.287 0 0 1-.2-.078c-.832-.798-1.765-.062-1.805-.03a.287.287 0 0 1-.362-.447 1.924 1.924 0 0 1 2.566.06.29.29 0 0 1 0 .408.284.284 0 0 1-.2.087z"/></g><g><path fill="#263238" d="M64.494 42.092a.293.293 0 0 1-.243-.13.867.867 0 0 0-.577-.456.88.88 0 0 0-.595.2.287.287 0 1 1-.384-.428 1.422 1.422 0 0 1 1.057-.343 1.4 1.4 0 0 1 .985.714.287.287 0 0 1-.243.443z"/></g><g><path fill="#263238" d="M53.055 41.393c.019.056.034.112.05.171v.038c.018.062.034.127.05.193v.019c0 .074.034.15.05.227l1.409-.312s1.294.269 1.474-.177c.181-.446-.67-1.116-.046-1.784.623-.667 2.366-.224 2.544-1.072.178-.848.623-3.882 4.24-2.947.737.24 1.445.565 2.108.967-.88-2.47-4.297-4.889-8.088-4.225 0 0-2.856.848-3.882 3.08-.835 1.815-.358 4.643 0 5.578.022.06.044.125.066.19z"/><path fill="none" stroke="#263238" stroke-linecap="round" stroke-linejoin="round" stroke-miterlimit="20" stroke-width=".5" d="M53.055 41.393c.019.056.034.112.05.171v.038c.018.062.034.127.05.193v.019c0 .074.034.15.05.227l1.409-.312v0s1.294.269 1.474-.177c.181-.446-.67-1.116-.046-1.784.623-.667 2.366-.224 2.544-1.072.178-.848.623-3.882 4.24-2.947.737.24 1.445.565 2.108.967-.88-2.47-4.297-4.889-8.088-4.225 0 0-2.856.848-3.882 3.08-.835 1.815-.358 4.643 0 5.578.022.06.044.125.066.19z"/></g><g><path fill="#b2b2b2" d="M55.262 42.508s-.402-1.74-1.475-1.921c-1.072-.18-1.471 1.116-1.247 2.276.225 1.16 1.381 2.232 2.41 1.92"/><path fill="none" stroke="#263238" stroke-linecap="round" stroke-linejoin="round" stroke-miterlimit="20" stroke-width=".5" d="M55.262 42.508v0s-.402-1.74-1.475-1.921c-1.072-.18-1.471 1.116-1.247 2.276.225 1.16 1.381 2.232 2.41 1.92"/></g><g><path fill="#b2b2b2" d="M58.795 62.63a510.15 510.15 0 0 1 2.847-3.08c.14-.14.446-.178 1.471-.446 1.026-.268 2.722-.848 2.99-1.073a4.789 4.789 0 0 0 1.073-.935c.218-.359.411-.732.58-1.116.134-.225 1.203-.714 1.471-.936.268-.221.537-.667.446-.891-.09-.225-1.65.224-3.077.536-.764.176-1.54.295-2.323.355 0 0 .804-1.16 1.294-1.696s.312-1.696-.044-1.247c-.355.45-2.631 2.769-3.117 2.946-.487.178-1.606 1.83-2.367 2.591-.623.624-5.693 3.907-7.389 4.989z"/><path fill="none" stroke="#263238" stroke-linecap="round" stroke-linejoin="round" stroke-miterlimit="20" stroke-width=".5" d="M58.795 62.63a510.15 510.15 0 0 1 2.847-3.08c.14-.14.446-.178 1.471-.446 1.026-.268 2.722-.848 2.99-1.073a4.789 4.789 0 0 0 1.073-.935c.218-.359.411-.732.58-1.116.134-.225 1.203-.714 1.471-.936.268-.221.537-.667.446-.891-.09-.225-1.65.224-3.077.536-.764.176-1.54.295-2.323.355 0 0 .804-1.16 1.294-1.696s.312-1.696-.044-1.247c-.355.45-2.631 2.769-3.117 2.946-.487.178-1.606 1.83-2.367 2.591-.623.624-5.693 3.907-7.389 4.989z"/></g><g><path fill="none" stroke="#263238" stroke-linecap="round" stroke-linejoin="round" stroke-miterlimit="20" stroke-width=".5" d="M67.758 55.98l-1.518.536"/></g><g><path fill="none" stroke="#263238" stroke-linecap="round" stroke-linejoin="round" stroke-miterlimit="20" stroke-width=".5" d="M92.891 62.636H41.75"/></g></g><g><g><path fill="#fff" d="M92.773 85.355c-.155-1.188-.82-5.843-1.799-7.982a8.066 8.066 0 0 0-4.966-4.383c-1.793-.543-4.131-1.001-5.3-.836 0 0-3.882 1.338-5.55 1.712-1.668.374-3.398 1.543-4.11 2.547-.623.892-3.89 7.498-4.598 8.942z"/><path fill="none" stroke="#263238" stroke-linecap="round" stroke-linejoin="round" stroke-miterlimit="20" stroke-width=".5" d="M92.773 85.355c-.155-1.188-.82-5.843-1.799-7.982a8.066 8.066 0 0 0-4.966-4.383c-1.793-.543-4.131-1.001-5.3-.836 0 0-3.882 1.338-5.55 1.712-1.668.374-3.398 1.543-4.11 2.547-.623.892-3.89 7.498-4.598 8.942z"/></g><g><path fill="#adc7f7" d="M92.773 85.355c-.155-1.188-.82-5.843-1.799-7.982a8.066 8.066 0 0 0-4.966-4.383c-1.793-.543-4.131-1.001-5.3-.836 0 0-2.66.917-4.524 1.444-.583.91-1.893 2.93-3.118 4.651-1.559 2.183-2.183 5.338-1.338 7.106z"/><path fill="none" stroke="#263238" stroke-linecap="round" stroke-linejoin="round" stroke-miterlimit="20" stroke-width=".5" d="M92.773 85.355c-.155-1.188-.82-5.843-1.799-7.982a8.066 8.066 0 0 0-4.966-4.383c-1.793-.543-4.131-1.001-5.3-.836 0 0-2.66.917-4.524 1.444-.583.91-1.893 2.93-3.118 4.651-1.559 2.183-2.183 5.338-1.338 7.106z"/></g><g><path fill="#fff" d="M78.195 69.74a13.84 13.84 0 0 1 .418 4.467c-.168 2.548-1.503 4.175-1 5.469.501 1.294 2.493 1.793 4.255.418s2.086-4.758 2.13-6.26c.043-1.504.75-6.174.75-6.174s-1.87 2.21-4.052 2.295c-2.183.084-2.5-.215-2.5-.215z"/><path fill="none" stroke="#263238" stroke-linecap="round" stroke-linejoin="round" stroke-miterlimit="20" stroke-width=".5" d="M78.195 69.74a13.84 13.84 0 0 1 .418 4.467c-.168 2.548-1.503 4.175-1 5.469.501 1.294 2.493 1.793 4.255.418s2.086-4.758 2.13-6.26c.043-1.504.75-6.174.75-6.174v0s-1.87 2.21-4.052 2.295c-2.183.084-2.5-.215-2.5-.215z"/></g><g><path fill="#263238" d="M78.658 57.8s-2.806.5-4.087 2.963c-1.247 2.36-.655 6.329.577 8.68 1.559 2.968 1.465 3.984 1.48 6.606.03.358-.089.713-.33.98-.642.623-.726-.313-.895.217-.168.53 1.56 1.703 3.34.153 1.153-1.007 1.418-3.822.876-5.453-.543-1.63-3.255-5.007-2.67-7.635.587-2.629 2.63-4.799 2.807-5.802.178-1.004-1.098-.708-1.098-.708z"/></g><g><path fill="none" stroke="#636363" stroke-linecap="round" stroke-linejoin="round" stroke-miterlimit="20" stroke-width=".5" d="M78.774 59.33v0s-4.851 2.909-4.094 7.411c.758 4.502 5.612 5.818 5.154 10.457"/></g><g><path fill="none" stroke="#263238" stroke-linecap="round" stroke-linejoin="round" stroke-miterlimit="20" stroke-width=".5" d="M78.658 57.8v0s-2.806.5-4.087 2.963c-1.247 2.36-.655 6.329.577 8.68 1.559 2.968 1.465 3.984 1.48 6.606.03.358-.089.713-.33.98-.642.623-.726-.313-.895.217-.168.53 1.56 1.703 3.34.153 1.153-1.007 1.418-3.822.876-5.453-.543-1.63-3.255-5.007-2.67-7.635.587-2.629 2.63-4.799 2.807-5.802.178-1.004-1.098-.708-1.098-.708z"/></g><g><path fill="#fff" d="M86.429 85.36h6.341v-.646a.783.783 0 0 0 0-.084v-.022V84.493v-.127-.119l-.018-.113-.019-.112v-.025l-.019-.121c0-.047-.015-.094-.022-.14-.021-.144-.046-.294-.071-.446 0-.047 0-.094-.025-.14v-.016c0-.047-.016-.094-.025-.14v-.022c0-.044-.016-.088-.025-.135v-.034c0-.04 0-.08-.022-.121v-.05l-.019-.11v-.056l-.018-.106v-.053c0-.037-.016-.074-.022-.112v-.053c0-.037-.016-.075-.022-.112v-.056c0-.038 0-.072-.022-.11v-.055c0-.038 0-.075-.022-.113v-.059c0-.034-.015-.072-.021-.109v-.06c0-.037-.016-.07-.025-.108v-.06c0-.037 0-.074-.025-.112a.363.363 0 0 0 0-.056c0-.037-.016-.078-.022-.115v-.056l-.33-.206v-.047c0-.044-.02-.09-.032-.137v-.031l-.037-.162c-.025-.113-.053-.225-.081-.337v-.025c0-.047-.022-.094-.031-.14v-.05l-.029-.113a.563.563 0 0 1-.015-.059l-.028-.106c0-.018 0-.04-.016-.059-.015-.019-.015-.065-.025-.1l-.018-.065c0-.031-.016-.063-.025-.094l-.02-.065-.024-.09-.019-.07c0-.027-.015-.055-.025-.087l-.018-.065a.863.863 0 0 1-.025-.084c0-.025-.016-.047-.022-.069-.006-.022 0-.056-.025-.08-.025-.026 0-.045-.022-.07a.752.752 0 0 0-.025-.077.537.537 0 0 0-.022-.066.804.804 0 0 0-.025-.081c0-.019 0-.04-.021-.062-.022-.022-.016-.053-.025-.078-.01-.025-.016-.04-.022-.063l-.028-.074a.454.454 0 0 0-.022-.06.703.703 0 0 0-.025-.075.417.417 0 0 1-.022-.056l-.028-.074c0-.02 0-.038-.022-.053l-.03-.075-.02-.05c0-.028-.021-.053-.034-.078a.242.242 0 0 1-.015-.044L91 77.372a8.106 8.106 0 0 0-4.637-4.262c-.277.97-.975 3.682-.807 5.924.15 2.132.642 5.038.873 6.326z"/><path fill="none" stroke="#263238" stroke-linecap="round" stroke-linejoin="round" stroke-miterlimit="20" stroke-width=".5" d="M86.429 85.36h6.341v0-.06 0-.046 0-.069 0-.065 0-.028 0-.063 0-.018 0-.081 0-.085 0-.021 0-.075 0-.035a.783.783 0 0 0 0-.084v-.022V84.493v-.127-.119 0l-.018-.113v0l-.019-.112v0-.025 0l-.019-.121v0c0-.047-.015-.094-.022-.14v0c-.021-.144-.046-.294-.071-.446v0c0-.047 0-.094-.025-.14v-.016c0-.047-.016-.094-.025-.14v-.022c0-.044-.016-.088-.025-.135v-.034c0-.04 0-.08-.022-.121v-.05 0l-.019-.11v0-.056 0l-.018-.106v0-.053c0-.037-.016-.074-.022-.112v-.053c0-.037-.016-.075-.022-.112v-.056c0-.038 0-.072-.022-.11v-.055c0-.038 0-.075-.022-.113v-.059c0-.034-.015-.072-.021-.109v-.06c0-.037-.016-.07-.025-.108v-.06c0-.037 0-.074-.025-.112a.363.363 0 0 0 0-.056c0-.037-.016-.078-.022-.115v-.056 0l-.33-.206v0-.047c0-.044-.02-.09-.032-.137v-.031 0l-.037-.162v0c-.025-.113-.053-.225-.081-.337v-.025c0-.047-.022-.094-.031-.14v-.05 0l-.029-.113a.563.563 0 0 1-.015-.059l-.028-.106c0-.018 0-.04-.016-.059-.015-.019-.015-.065-.025-.1l-.018-.065c0-.031-.016-.063-.025-.094l-.02-.065v0l-.024-.09v0l-.019-.07c0-.027-.015-.055-.025-.087l-.018-.065a.863.863 0 0 1-.025-.084c0-.025-.016-.047-.022-.069-.006-.022 0-.056-.025-.08-.025-.026 0-.045-.022-.07a.752.752 0 0 0-.025-.077.537.537 0 0 0-.022-.066.804.804 0 0 0-.025-.081c0-.019 0-.04-.021-.062-.022-.022-.016-.053-.025-.078-.01-.025-.016-.04-.022-.063l-.028-.074a.454.454 0 0 0-.022-.06.703.703 0 0 0-.025-.075.417.417 0 0 1-.022-.056l-.028-.074c0-.02 0-.038-.022-.053l-.03-.075v0l-.02-.05c0-.028-.021-.053-.034-.078a.242.242 0 0 1-.015-.044L91 77.372a8.106 8.106 0 0 0-4.637-4.262c-.277.97-.975 3.682-.807 5.924.15 2.132.642 5.038.873 6.326z"/></g><g><path fill="#fff" d="M79.032 57.97s-1.587 1.21-2.086 2.548c-.499 1.337-.92 4.714-.835 6.051.084 1.338 1.793 3.673 2.494 4.256.702.583 3.741-.084 5.176-1.419.991-.935 1.836-4.13 1.169-7.26-.668-3.131-3.873-4.927-5.918-4.176z"/><path fill="none" stroke="#263238" stroke-linecap="round" stroke-linejoin="round" stroke-miterlimit="20" stroke-width=".5" d="M79.032 57.97s-1.587 1.21-2.086 2.548c-.499 1.337-.92 4.714-.835 6.051.084 1.338 1.793 3.673 2.494 4.256.702.583 3.741-.084 5.176-1.419.991-.935 1.836-4.13 1.169-7.26-.668-3.131-3.873-4.927-5.918-4.176z"/></g><g><path fill="none" stroke="#263238" stroke-linecap="round" stroke-linejoin="round" stroke-miterlimit="20" stroke-width=".5" d="M80.41 64.061s.917-.96 2.46-.168"/></g><g><path fill="none" stroke="#263238" stroke-linecap="round" stroke-linejoin="round" stroke-miterlimit="20" stroke-width=".5" d="M78.16 63.517a1.705 1.705 0 0 0-1.21-1.247"/></g><g><path fill="none" stroke="#263238" stroke-linecap="round" stroke-linejoin="round" stroke-miterlimit="20" stroke-width=".5" d="M78.912 63.1v0s-.084.792-.377 1.085c-.293.293-.917.583-.667 1.17.249.585 1 .707 1.334.373"/></g><g><path fill="none" stroke="#263238" stroke-linecap="round" stroke-linejoin="round" stroke-miterlimit="20" stroke-width=".5" d="M77.03 61.47s.71-.877 1.87 0"/></g><g><path fill="none" stroke="#263238" stroke-linecap="round" stroke-linejoin="round" stroke-miterlimit="20" stroke-width=".5" d="M80.2 61.896s1.375-.836 2.46.708"/></g><g><path fill="none" stroke="#263238" stroke-linecap="round" stroke-linejoin="round" stroke-miterlimit="20" stroke-width=".5" d="M77.78 66.693v0s.586.792 2.182.583c1.597-.209 1.962-.876 1.962-.876v0"/></g><g><path fill="#263238" d="M81.582 64.036a.396.396 0 1 1-.792 0 .396.396 0 0 1 .792 0z"/></g><g><path fill="#263238" d="M77.912 63.116a.396.396 0 1 1-.792 0 .396.396 0 0 1 .792 0z"/></g><g><path fill="#263238" d="M78.7 67.231s.667 1.378 1.836 1.247c1.17-.13 1.085-1.758 1.085-1.758a4.256 4.256 0 0 1-2.921.511z"/><path fill="none" stroke="#263238" stroke-linecap="round" stroke-linejoin="round" stroke-miterlimit="20" stroke-width=".5" d="M78.7 67.231s.667 1.378 1.836 1.247c1.17-.13 1.085-1.758 1.085-1.758a4.256 4.256 0 0 1-2.921.511z"/></g><g><path fill="#263238" d="M82.502 54.384h-.094c-1.497.171-3.46.486-4.661 1.45-1.462 1.165-.96 1.459.374 2.126 1.334.667 5.3 2.88 5.677 6.051.378 3.171-.92 8.138-1.543 10.392-.623 2.254.206 3.797 1.419 4.882a2.6 2.6 0 0 0 2.051.68c.68-.069 1.534-.25 2.074-.692.059-.047.742-.767.623-.864-.598-.508-1.319.222-1.683-.477-.746-1.434.411-3.152 1.194-4.33.639-.964 1.702-1.56 2.35-2.495a7.523 7.523 0 0 0 1.117-3.339c.296-2.538-.181-5.228-1.073-7.607-1.157-3.087-3.551-5.83-7.077-5.821a7.637 7.637 0 0 0-.748.044z"/></g><g><g><path fill="none" stroke="#636363" stroke-linecap="round" stroke-linejoin="round" stroke-miterlimit="20" stroke-width=".5" d="M75.89 55.69v0s4.365.47 7.146 4.246c2.781 3.776 3.573 6.339 3.504 9.843-.068 3.505 2.766 5.126 4.855 4.113"/></g><g><path fill="none" stroke="#636363" stroke-linecap="round" stroke-linejoin="round" stroke-miterlimit="20" stroke-width=".5" d="M79.73 54.61v0s5.665 1.079 7.483 6.74c1.817 5.663 1.082 9.11 3.513 9.575"/></g><g><path fill="none" stroke="#636363" stroke-linecap="round" stroke-linejoin="round" stroke-miterlimit="20" stroke-width=".5" d="M82.56 65.2v0s2.092 5.057 1.559 9.843c-.533 4.786 1.559 5.665 4.923 4.786"/></g></g><g><path fill="none" stroke="#263238" stroke-linecap="round" stroke-linejoin="round" stroke-miterlimit="20" stroke-width=".5" d="M82.502 54.384h-.094c-1.497.171-3.46.486-4.661 1.45-1.462 1.165-.96 1.459.374 2.126 1.334.667 5.3 2.88 5.677 6.051.378 3.171-.92 8.138-1.543 10.392-.623 2.254.206 3.797 1.419 4.882a2.6 2.6 0 0 0 2.051.68c.68-.069 1.534-.25 2.074-.692.059-.047.742-.767.623-.864-.598-.508-1.319.222-1.683-.477-.746-1.434.411-3.152 1.194-4.33.639-.964 1.702-1.56 2.35-2.495a7.523 7.523 0 0 0 1.117-3.339c.296-2.538-.181-5.228-1.073-7.607-1.157-3.087-3.551-5.83-7.077-5.821a7.637 7.637 0 0 0-.748.044z"/></g><g><path fill="#fff" d="M62.177 77.706c.337.305.736.532 1.17.667 0 0 .667 2.045.623 3.673a22.76 22.76 0 0 0 .23 3.308h5.114a32.684 32.684 0 0 1-2.382-5.06c-.792-2.38-.459-3.717-1.001-5.26-.543-1.544-.795-2.295-1.712-3.505-.916-1.21-1.752-.835-1.752-.417 0 .417.499.583.876 1.169.258.434.467.895.624 1.375 0 0-1.756.795-2.254 1.67-.5.877-.078 1.878.464 2.38z"/><path fill="none" stroke="#263238" stroke-linecap="round" stroke-linejoin="round" stroke-miterlimit="20" stroke-width=".5" d="M62.177 77.706c.337.305.736.532 1.17.667 0 0 .667 2.045.623 3.673a22.76 22.76 0 0 0 .23 3.308h5.114a32.684 32.684 0 0 1-2.382-5.06c-.792-2.38-.459-3.717-1.001-5.26-.543-1.544-.795-2.295-1.712-3.505-.916-1.21-1.752-.835-1.752-.417 0 .417.499.583.876 1.169.258.434.467.895.624 1.375 0 0-1.756.795-2.254 1.67-.5.877-.078 1.878.464 2.38z"/></g><g><path fill="#fff" d="M60.967 74.66s-.667.624-.667 1.247c0 .624.499 1.503.751 1.503.253 0 .375-.458.25-.917-.125-.458-.334-1.833-.334-1.833z"/><path fill="none" stroke="#263238" stroke-linecap="round" stroke-linejoin="round" stroke-miterlimit="20" stroke-width=".5" d="M60.967 74.66v0s-.667.624-.667 1.247c0 .624.499 1.503.751 1.503.253 0 .375-.458.25-.917-.125-.458-.334-1.833-.334-1.833z"/></g><g><path fill="#fff" d="M61.758 73.786s-.792.502-1.001 1.128a1.84 1.84 0 0 0 .333 1.587c.25.374 1.001.458 1.21.25.21-.21.04-.668 0-.936s-.458-1.085-.418-1.459c.025-.194.04-.39.044-.586z"/><path fill="none" stroke="#263238" stroke-linecap="round" stroke-linejoin="round" stroke-miterlimit="20" stroke-width=".5" d="M61.758 73.786v0s-.792.502-1.001 1.128a1.84 1.84 0 0 0 .333 1.587c.25.374 1.001.458 1.21.25.21-.21.04-.668 0-.936s-.458-1.085-.418-1.459c.025-.194.04-.39.044-.586z"/></g><g><path fill="#fff" d="M63.972 73.66s-1.088-.668-1.92-.21c-.833.46-.795 1.379-.502 2.046.293.667 1.044 1.045 1.378.751.333-.293-.044-.751.04-1.375.085-.623 1.004-1.212 1.004-1.212z"/><path fill="none" stroke="#263238" stroke-linecap="round" stroke-linejoin="round" stroke-miterlimit="20" stroke-width=".5" d="M63.972 73.66v0s-1.088-.668-1.92-.21c-.833.46-.795 1.379-.502 2.046.293.667 1.044 1.045 1.378.751.333-.293-.044-.751.04-1.375.085-.623 1.004-1.212 1.004-1.212z"/></g><g><path fill="#fff" d="M65.059 74.83s-.88-1.17-1.671-1.086c-.792.085-2.086 1.56-1.837 1.92.25.363 1.743-.211 1.743-.211s-.418 1.378.624 1.668"/><path fill="none" stroke="#263238" stroke-linecap="round" stroke-linejoin="round" stroke-miterlimit="20" stroke-width=".5" d="M65.059 74.83v0s-.88-1.17-1.671-1.086c-.792.085-2.086 1.56-1.837 1.92.25.363 1.743-.211 1.743-.211v0s-.418 1.378.624 1.668"/></g><g><path fill="none" stroke="#263238" stroke-linecap="round" stroke-linejoin="round" stroke-miterlimit="20" stroke-width=".5" d="M92.891 85.356H41.75"/></g></g><g><g><path fill="none" stroke="#263238" stroke-linecap="round" stroke-linejoin="round" stroke-miterlimit="20" stroke-width=".5" d="M92.891 110.016H41.75"/></g><g><path fill="#263238" d="M69.25 109.917s.456-4.035-1.109-5.095c-1.565-1.06-8.368-5.948-10.99-6.547-2.622-.599-4.234-1.16-5.3-.555-1.067.605-5.438 4.546-7.252 5.793-1.815 1.247-2.722 2.572-2.975 3.53a10.47 10.47 0 0 0-.153 2.571v.403s27.883-.203 27.78-.1z"/><path fill="none" stroke="#263238" stroke-linecap="round" stroke-linejoin="round" stroke-miterlimit="20" stroke-width=".5" d="M69.25 109.917s.456-4.035-1.109-5.095c-1.565-1.06-8.368-5.948-10.99-6.547-2.622-.599-4.234-1.16-5.3-.555-1.067.605-5.438 4.546-7.252 5.793-1.815 1.247-2.722 2.572-2.975 3.53a10.47 10.47 0 0 0-.153 2.571v.403s27.883-.203 27.78-.1z"/></g><g><path fill="#fff" d="M51.86 97.711c-.417.27-.818.566-1.2.886a8.044 8.044 0 0 0 .624 3.018c1.303 3.167 4.237 4.963 6.547 4.012 1.97-.81 2.865-3.342 2.295-6.026a13.263 13.263 0 0 0-2.975-1.335c-2.619-.605-4.23-1.16-5.29-.555z"/><path fill="none" stroke="#263238" stroke-linecap="round" stroke-linejoin="round" stroke-miterlimit="20" stroke-width=".5" d="M51.86 97.711c-.417.27-.818.566-1.2.886a8.044 8.044 0 0 0 .624 3.018c1.303 3.167 4.237 4.963 6.547 4.012 1.97-.81 2.865-3.342 2.295-6.026a13.263 13.263 0 0 0-2.975-1.335c-2.619-.605-4.23-1.16-5.29-.555z"/></g><g><path fill="#fff" d="M52.464 92.972s-.1 3.077-.352 4.386c-.253 1.31-.253 3.078 1.01 5.3 1.263 2.224 4.334 2.118 5.3 1.248.967-.87.755-3.277.755-4.184 0-.908.533-3.04.533-3.04s-2.953-1.144-4.465-2.151-2.276-1.862-2.78-1.56z"/><path fill="none" stroke="#263238" stroke-linecap="round" stroke-linejoin="round" stroke-miterlimit="20" stroke-width=".5" d="M52.464 92.972s-.1 3.077-.352 4.386c-.253 1.31-.253 3.078 1.01 5.3 1.263 2.224 4.334 2.118 5.3 1.248.967-.87.755-3.277.755-4.184 0-.908.533-3.04.533-3.04v0s-2.953-1.144-4.465-2.151-2.276-1.862-2.78-1.56z"/></g><g><path fill="#fff" d="M60.488 84.756s1.21 2.067 1.512 2.672a1.709 1.709 0 0 1-.153 1.662c-.274.383 2.183 1.58 2.14 2.21-.045.63-.266.976-.762 1.69-.542.78-.34 2.086-.58 3.002-.202.78-.452.973-1.247 1.266-1.515.555-4.336.353-5.749-.352-1.412-.705-1.914-1.967-2.42-2.875-.504-.907-.554-2.572-.252-4.336.303-1.765 2.672-4.135 4.184-4.79 1.512-.654 3.327-.15 3.327-.15z"/><path fill="none" stroke="#263238" stroke-linecap="round" stroke-linejoin="round" stroke-miterlimit="20" stroke-width=".5" d="M60.488 84.756v0s1.21 2.067 1.512 2.672a1.709 1.709 0 0 1-.153 1.662c-.274.383 2.183 1.58 2.14 2.21-.045.63-.266.976-.762 1.69-.542.78-.34 2.086-.58 3.002-.202.78-.452.973-1.247 1.266-1.515.555-4.336.353-5.749-.352-1.412-.705-1.914-1.967-2.42-2.875-.504-.907-.554-2.572-.252-4.336.303-1.765 2.672-4.135 4.184-4.79 1.512-.654 3.327-.15 3.327-.15z"/></g><g><path fill="#263238" d="M61.94 94.082a3.193 3.193 0 0 1-2.47-.352s0 1.512.758 1.559c.757.047 1.711-1.207 1.711-1.207z"/></g><g><path fill="#263238" d="M60.49 89.997c.077.34 0 .648-.182.689-.18.04-.38-.203-.458-.543-.078-.34 0-.648.181-.689.18-.04.371.203.458.543z"/></g><g><path fill="none" stroke="#263238" stroke-linecap="round" stroke-linejoin="round" stroke-miterlimit="20" stroke-width=".5" d="M58.52 88.987a1.721 1.721 0 0 1 1.612-.758"/></g><g><path fill="none" stroke="#263238" stroke-linecap="round" stroke-linejoin="round" stroke-miterlimit="20" stroke-width=".5" d="M63.354 92.518v0s-.78.842-1.262.905c-.484.062-1.023-.602-.783-1.023"/></g><g><path fill="#263238" d="M54.428 92.972c.24-.077 1.413.103 1.248-.555-.166-.657-.502-.754-.253-1.247.25-.492 2.825-1.714 2.27-2.721-.37-.651-.808-1.26-1.31-1.815 0 0 4.234-.808 5.141-2.067.908-1.26-.1-3.227-1.16-3.227-1.06 0-.554.352-3.376 1.247-2.821.895-4.237-.2-6.354 2.017s-1.462 6.548-.655 7.916c.808 1.37 2.42 2.47 3.227 2.167.808-.302.618-1.512 1.222-1.715z"/><path fill="none" stroke="#263238" stroke-linecap="round" stroke-linejoin="round" stroke-miterlimit="20" stroke-width=".5" d="M54.428 92.972c.24-.077 1.413.103 1.248-.555-.166-.657-.502-.754-.253-1.247.25-.492 2.825-1.714 2.27-2.721-.37-.651-.808-1.26-1.31-1.815 0 0 4.234-.808 5.141-2.067.908-1.26-.1-3.227-1.16-3.227-1.06 0-.554.352-3.376 1.247-2.821.895-4.237-.2-6.354 2.017s-1.462 6.548-.655 7.916c.808 1.37 2.42 2.47 3.227 2.167.808-.302.618-1.512 1.222-1.715z"/></g><g><path fill="#fff" d="M55.187 93.423s-1.87-2.37-3.117-1.615c-1.247.755.605 3.028 1.412 3.28.808.253 1.765-.355 1.765-.355"/><path fill="none" stroke="#263238" stroke-linecap="round" stroke-linejoin="round" stroke-miterlimit="20" stroke-width=".5" d="M55.187 93.423v0s-1.87-2.37-3.117-1.615c-1.247.755.605 3.028 1.412 3.28.808.253 1.765-.355 1.765-.355v0"/></g></g><g><g><path fill="none" stroke="#263238" stroke-linecap="round" stroke-linejoin="round" stroke-miterlimit="20" stroke-width=".5" d="M92.55 124.376H41.36"/></g><g><path fill="#fff" d="M65.702 123.04s-.047-2.775.367-3.192c.415-.418 10.638-6.011 13.507-5.968 2.868.044 6.787 3.95 8.88 4.989 3.329 1.665 3.329 2.587 3.606 3.513.278.926.509 1.99.509 1.99H65.7z"/></g><g><path fill="#adadad" d="M89.718 123.664l-.487-.022.362-2.223.48.015zm-.954-3.265c-1.007-.03-2.02-.053-3.03-.071l.093-.858c1.023.031 2.045.072 3.068.128zm-.522 3.208a199.47 199.47 0 0 0-2.861-.074l.244-2.217c.994.015 1.989.04 2.98.068zm-3.12-.077h-.48l.316-2.214h.399zm.119-4.091h.323l-.094.864h-.351zm.264-1.786h.265l-.171 1.558h-.312zm-1.231 1.515a186.76 186.76 0 0 0-3.208-.038l.14-1.518c1.085 0 2.176 0 3.289.025zm-.146 1.115c-1.064 0-2.124-.018-3.165-.018l.081-.888c1.054 0 2.13.015 3.212.037zm-.475 3.2c-.985 0-1.982-.023-2.983-.026l.202-2.19c1.023-.001 2.058-.001 3.103.015zm-3.385-3.218l.064-.888h.453l-.08.888zm.146 3.19h-.386l.162-2.189h.423zm.055-5.84h.498l-.14 1.508h-.475zm-1.109 1.522l-1.767.015.112-1.521h1.768zm-.087 1.147h-1.765l.066-.895c.58 0 1.169-.006 1.768-.019zm-.237 3.18h-1.765l.163-2.182H79.2zm-2.47-3.151l.029-.899h.707l-.065.905zm.443 3.151h-.53l.07-2.182h.623zm-.348-5.818h.808l-.117 1.525h-.738zm-1.039 1.56c-.885.021-1.737.046-2.547.074l.072-1.559c.81-.019 1.655-.034 2.525-.047zm-.024 1.13c-.89 0-1.75.029-2.576.048l.04-.858c.814-.028 1.672-.053 2.564-.071zm-.107 3.143l-2.613.022.097-2.126 2.582-.05zm-2.666-4.19l-.623.022.062-1.574h.64zm-.05 1.1l-.623.017.034-.845.624-.025zm-.146 3.119h-.595l.084-2.127h.623zm-1.456-3.084l-1.7.047.03-.798a155.01 155.01 0 0 1 1.705-.078zm-.13 3.093l-1.675.024.072-2.079 1.686-.046zm-1.806-3.037l-.465.016.045-.789.449-.022zm-.115 3.074h-.512l.11-2.076.473-.016zm23.32.256c-.773-.053-1.605-.1-2.494-.137l.356-2.226 1.465.062a3.118 3.118 0 0 0-.78-1.026l-.53-.021.06-.362c-.072-.053-.147-.11-.228-.162l-.08.514-.478-.018.125-.78c-.268-.165-.574-.34-.92-.524l-.037.222c-1.02-.056-2.046-.097-3.068-.128l.171-1.559.624.016c-.602-.437-1.247-.936-1.93-1.41l-.056.38a304.011 304.011 0 0 0-3.352-.024l.21-2.276-.241-.1-.218 2.376h-.505l.19-2.563a4.499 4.499 0 0 0-.98-.184l-.205 2.75h-1.768l.187-2.494-.255.078-.181 2.407h-.839l.066-2.093a41.45 41.45 0 0 0-1.001.384l-.053 1.721c-.867 0-1.706.028-2.51.047l.031-.661-.252.118-.028.549h-.646v-.246c-.91.44-1.799.885-2.61 1.31l1.56-.048-.063 1.59-1.652.119.056-1.559-.253.131-.05 1.434-.436.022.065-1.247c-.367.196-.71.38-1.022.552l-.038.739-1.396.084c-.128.072-.25.154-.365.246l-.022.028 1.771-.109-.04.764-1.955.075a10.89 10.89 0 0 0-.094.994c.568-.021 1.247-.05 1.995-.074l-.109 2.06-1.914.038v.246l1.902-.037-.028.548h.991l.028-.567h.515l-.022.574h.25l.018-.58 1.674-.025-.025.605h.992l.025-.624h.592l-.028.624h.25l.028-.624 2.615-.022-.018.649h.988l.022-.652h.52l-.046.655h.246l.05-.655h1.765l-.05.658h.991l.05-.655h.39l-.06.652h.25l.06-.652c.994 0 1.988 0 2.97.025l-.09.624h.998l.09-.624h.48l-.065.602h.25l.065-.599c.972.019 1.923.044 2.843.075l-.084.524h1l.079-.49.49.02-.076.47h.25l.071-.458c.917.04 1.78.087 2.582.14a.75.75 0 0 1-.065-.206z"/></g><g><path fill="none" stroke="#263238" stroke-linecap="round" stroke-linejoin="round" stroke-miterlimit="20" stroke-width=".5" d="M65.702 123.04v0s-.047-2.775.367-3.192c.415-.418 10.638-6.011 13.507-5.968 2.868.044 6.787 3.95 8.88 4.989 3.329 1.665 3.329 2.587 3.606 3.513.278.926.509 1.99.509 1.99v0H65.7v0z"/></g><g><path fill="#263238" d="M78.047 112.763s-1.388.093-1.755.788c-.368.696-.187 1.11-.936 3.19-.748 2.08-1.156 2.684-.739 2.684.418 0 1.56-1.203 1.986-1.387.428-.184 1.39 1.431 1.39 1.431s1.85-.97 2.451-1.016c.602-.047 1.896 2.45 2.127 2.035.23-.414.832-1.942 1.48-3.33.65-1.387.786-2.543.231-3.47-.554-.925-5.77-1.203-6.235-.925z"/><path fill="none" stroke="#263238" stroke-linecap="round" stroke-linejoin="round" stroke-miterlimit="20" stroke-width=".5" d="M78.047 112.763s-1.388.093-1.755.788c-.368.696-.187 1.11-.936 3.19-.748 2.08-1.156 2.684-.739 2.684.418 0 1.56-1.203 1.986-1.387.428-.184 1.39 1.431 1.39 1.431v0s1.85-.97 2.451-1.016c.602-.047 1.896 2.45 2.127 2.035.23-.414.832-1.942 1.48-3.33.65-1.387.786-2.543.231-3.47-.554-.925-5.77-1.203-6.235-.925z"/></g><g><path fill="#fff" d="M77.223 112.31a15.68 15.68 0 0 0-.047 4.303c.312 2.08.789 3.283 1.157 3.005.367-.277 2.637-1.665 3.794-3.099 1.157-1.434 1.34-1.618 1.665-2.404.324-.785.692-1.665.692-1.665s-4.3 1.618-7.261-.14z"/><path fill="none" stroke="#263238" stroke-linecap="round" stroke-linejoin="round" stroke-miterlimit="20" stroke-width=".5" d="M77.223 112.31a15.68 15.68 0 0 0-.047 4.303c.312 2.08.789 3.283 1.157 3.005.367-.277 2.637-1.665 3.794-3.099 1.157-1.434 1.34-1.618 1.665-2.404.324-.785.692-1.665.692-1.665v0s-4.3 1.618-7.261-.14z"/></g><g><path fill="#fff" d="M77.266 104.672s-.833-1.294-1.294.233c-.462 1.528.645 2.357.785 2.264.14-.094.509-2.497.509-2.497z"/><path fill="none" stroke="#263238" stroke-linecap="round" stroke-linejoin="round" stroke-miterlimit="20" stroke-width=".5" d="M77.266 104.672v0s-.833-1.294-1.294.233c-.462 1.528.645 2.357.785 2.264.14-.094.509-2.497.509-2.497z"/></g><g><path fill="#fff" d="M77.685 101.433s-1.527 6.612-1.852 8.511c-.324 1.899 1.759 3.651 4.072 3.975 2.314.324 4.53-.785 5.132-1.942.602-1.157 2.494-8.555 2.775-9.064.28-.508 1.247-2.728.511-3.47-.736-.742-1.942-.184-1.942-.184s-.836-2.129-2.267-2.182c-1.43-.053-1.621.599-1.621.599s-1.247-1.525-2.404-1.2c-1.156.323-1.156 1.062-1.156 1.062s-2.127-.508-2.912 1.017c-.786 1.524 1.387 1.989 1.387 1.989s-.465.658.277.889z"/><path fill="none" stroke="#263238" stroke-linecap="round" stroke-linejoin="round" stroke-miterlimit="20" stroke-width=".5" d="M77.685 101.433s-1.527 6.612-1.852 8.511c-.324 1.899 1.759 3.651 4.072 3.975 2.314.324 4.53-.785 5.132-1.942.602-1.157 2.494-8.555 2.775-9.064.28-.508 1.247-2.728.511-3.47-.736-.742-1.942-.184-1.942-.184v0s-.836-2.129-2.267-2.182c-1.43-.053-1.621.599-1.621.599v0s-1.247-1.525-2.404-1.2c-1.156.323-1.156 1.062-1.156 1.062v0s-2.127-.508-2.912 1.017c-.786 1.524 1.387 1.989 1.387 1.989v0s-.465.658.277.889z"/></g><g><path fill="#fff" d="M86.148 106.845c.14-.047 1.066-1.528 1.942-.935.876.592-.137 2.868-.876 3.236a1.026 1.026 0 0 1-1.434-.508"/><path fill="none" stroke="#263238" stroke-linecap="round" stroke-linejoin="round" stroke-miterlimit="20" stroke-width=".5" d="M86.148 106.845c.14-.047 1.066-1.528 1.942-.935.876.592-.137 2.868-.876 3.236a1.026 1.026 0 0 1-1.434-.508"/></g><g><path fill="#adc7f7" d="M88.32 99.453c-.742-.739-1.942-.184-1.942-.184s-.836-2.129-2.267-2.182c-1.43-.053-1.62.599-1.62.599s-1.248-1.525-2.405-1.2c-1.156.323-1.156 1.062-1.156 1.062s-2.127-.508-2.912 1.017c-.786 1.524 1.387 1.989 1.387 1.989s-.464.648.278.88c.277-.278.832-1.525 3.654-1.56 2.821-.034 5.085 1.99 5.085 1.99s-1.017 1.2-.692 1.708c.324.508.692.465.648.88-.044.414-.935 4.208-1.297 4.81a1.718 1.718 0 0 1-1.849.695c-.648-.187-1.02-.648-2.182-1.247-1.163-.599-2.13-.832-2.962-.508-.833.324-.88.602-1.34.739-.4.121-.525-.14-.64-.45a54.869 54.869 0 0 0-.287 1.47c-.312 1.895 1.759 3.65 4.072 3.974 2.313.325 4.53-.785 5.132-1.942.602-1.157 2.494-8.555 2.775-9.063.28-.508 1.26-2.744.52-3.477z"/><path fill="none" stroke="#263238" stroke-linecap="round" stroke-linejoin="round" stroke-miterlimit="20" stroke-width=".5" d="M88.32 99.453c-.742-.739-1.942-.184-1.942-.184v0s-.836-2.129-2.267-2.182c-1.43-.053-1.62.599-1.62.599v0s-1.248-1.525-2.405-1.2c-1.156.323-1.156 1.062-1.156 1.062v0s-2.127-.508-2.912 1.017c-.786 1.524 1.387 1.989 1.387 1.989v0s-.464.648.278.88c.277-.278.832-1.525 3.654-1.56 2.821-.034 5.085 1.99 5.085 1.99v0s-1.017 1.2-.692 1.708c.324.508.692.465.648.88-.044.414-.935 4.208-1.297 4.81a1.718 1.718 0 0 1-1.849.695c-.648-.187-1.02-.648-2.182-1.247-1.163-.599-2.13-.832-2.962-.508-.833.324-.88.602-1.34.739-.4.121-.525-.14-.64-.45a54.869 54.869 0 0 0-.287 1.47c-.312 1.895 1.759 3.65 4.072 3.974 2.313.325 4.53-.785 5.132-1.942.602-1.157 2.494-8.555 2.775-9.063.28-.508 1.26-2.744.52-3.477z"/></g><g><path fill="#263238" d="M78.28 109.07s1.709 1.063 2.865.415c0 0-1.156 1.387-1.755 1.387s-1.11-1.802-1.11-1.802z"/><path fill="none" stroke="#263238" stroke-linecap="round" stroke-linejoin="round" stroke-miterlimit="20" stroke-width=".5" d="M78.28 109.07v0s1.709 1.063 2.865.415c0 0-1.156 1.387-1.755 1.387s-1.11-1.802-1.11-1.802z"/></g><g><path fill="none" stroke="#263238" stroke-linecap="round" stroke-linejoin="round" stroke-miterlimit="20" stroke-width=".5" d="M79.578 105.159a1.559 1.559 0 1 1-3.118 0 1.559 1.559 0 0 1 3.118 0z"/></g><g><path fill="none" stroke="#263238" stroke-linecap="round" stroke-linejoin="round" stroke-miterlimit="20" stroke-width=".5" d="M84.068 105.949a1.559 1.559 0 1 1-3.118 0 1.559 1.559 0 0 1 3.118 0z"/></g><g><path fill="none" stroke="#263238" stroke-linecap="round" stroke-linejoin="round" stroke-miterlimit="20" stroke-width=".5" d="M79.63 104.998s.645-.312 1.434.312"/></g><g><path fill="none" stroke="#263238" stroke-linecap="round" stroke-linejoin="round" stroke-miterlimit="20" stroke-width=".5" d="M84.06 105.948l3.006.116"/></g><g><path fill="none" stroke="#263238" stroke-linecap="round" stroke-linejoin="round" stroke-miterlimit="20" stroke-width=".5" d="M79.858 105.18c-.381.72-.72 1.461-1.017 2.22-.093.415.415.645 1.063.645.649 0 .936-.277.936-.555"/></g><g><path fill="#adc7f7" d="M79.718 103.428a.39.39 0 0 1-.18-.047 1.593 1.593 0 0 0-1.644-.062.375.375 0 1 1-.418-.624 2.338 2.338 0 0 1 2.426.028.371.371 0 0 1-.184.696z"/></g><g><path fill="#adc7f7" d="M84.253 104.954a.374.374 0 0 1-.311-.156 1.94 1.94 0 0 0-2.083-.832.371.371 0 0 1-.221-.708 2.672 2.672 0 0 1 2.908 1.11.371.371 0 0 1-.311.586z"/></g><g><path fill="#263238" d="M78.21 105.78c.165 0 .299-.249.299-.555 0-.307-.134-.555-.3-.555-.165 0-.299.248-.299.555 0 .306.134.555.3.555z"/><path fill="none" stroke="#263238" stroke-linecap="round" stroke-linejoin="round" stroke-miterlimit="20" stroke-width=".5" d="M78.21 105.78c.165 0 .299-.249.299-.555 0-.307-.134-.555-.3-.555-.165 0-.299.248-.299.555 0 .306.134.555.3.555z"/></g><g><path fill="#263238" d="M82.584 105.925c0 .312-.135.555-.312.555-.178 0-.312-.25-.312-.555 0-.306.134-.555.312-.555.177 0 .312.25.312.555z"/><path fill="none" stroke="#263238" stroke-linecap="round" stroke-linejoin="round" stroke-miterlimit="20" stroke-width=".5" d="M82.584 105.925c0 .312-.135.555-.312.555-.178 0-.312-.25-.312-.555 0-.306.134-.555.312-.555.177 0 .312.25.312.555z"/></g></g></g></g></svg>