<svg xmlns="http://www.w3.org/2000/svg" width="120" height="114" viewBox="0 0 120 114"><g><g><g><g><path fill="#adc7f7" d="M113.512 58.269s-.777 20.293-17.78 33.481c-17.003 13.189-40.427 13.683-59.4 14.581C17.36 107.23 2.862 96.17.773 79.854c-2.089-16.316 12.424-20.798 20.417-39.16 7.993-18.36 7.323-24.466 24.033-35.513 16.71-11.047 42.69-3.534 56.209 16.262 13.519 19.795 12.08 36.826 12.08 36.826z"/></g><g opacity=".7"><path fill="#fff" d="M113.512 58.269s-.777 20.293-17.78 33.481c-17.003 13.189-40.427 13.683-59.4 14.581C17.36 107.23 2.862 96.17.773 79.854c-2.089-16.316 12.424-20.798 20.417-39.16 7.993-18.36 7.323-24.466 24.033-35.513 16.71-11.047 42.69-3.534 56.209 16.262 13.519 19.795 12.08 36.826 12.08 36.826z"/></g></g><g><g><path fill="#adc7f7" d="M59.67 113.931c32.95 0 59.661-5.344 59.661-11.935 0-6.592-26.71-11.936-59.66-11.936C26.72 90.06.01 95.404.01 101.996c0 6.591 26.711 11.935 59.66 11.935z"/></g><g opacity=".5"><path fill="#fff" d="M59.67 113.931c32.95 0 59.661-5.344 59.661-11.935 0-6.592-26.71-11.936-59.66-11.936C26.72 90.06.01 95.404.01 101.996c0 6.591 26.711 11.935 59.66 11.935z"/></g></g><g><g><path fill="none" stroke="#263238" stroke-linecap="round" stroke-linejoin="round" stroke-miterlimit="20" stroke-width=".5" d="M84.34 1.55v0h1.13c8.855 0 16.032 7.2 16.032 16.08v60.43H68.31v0-60.43c0-8.88 7.177-16.08 16.03-16.08z"/></g><g><path fill="none" stroke="#263238" stroke-linecap="round" stroke-linejoin="round" stroke-miterlimit="20" stroke-width=".5" d="M72.06 77.883v0-59.156c0-7.117 5.752-12.887 12.848-12.887v0A12.828 12.828 0 0 1 94 9.61a12.907 12.907 0 0 1 3.766 9.117v59.156"/></g><g><path fill="none" stroke="#263238" stroke-linecap="round" stroke-linejoin="round" stroke-miterlimit="20" stroke-width=".5" d="M84.91 1.55v76.426"/></g><g><path fill="none" stroke="#263238" stroke-linecap="round" stroke-linejoin="round" stroke-miterlimit="20" stroke-width=".5" d="M68.49 16.27h32.788"/></g><g><path fill="none" stroke="#263238" stroke-linecap="round" stroke-linejoin="round" stroke-miterlimit="20" stroke-width=".5" d="M68.49 26.65h32.788"/></g><g><path fill="none" stroke="#263238" stroke-linecap="round" stroke-linejoin="round" stroke-miterlimit="20" stroke-width=".5" d="M68.49 37.03h32.788"/></g><g><path fill="none" stroke="#263238" stroke-linecap="round" stroke-linejoin="round" stroke-miterlimit="20" stroke-width=".5" d="M68.49 47.41h32.788"/></g><g><path fill="none" stroke="#263238" stroke-linecap="round" stroke-linejoin="round" stroke-miterlimit="20" stroke-width=".5" d="M68.49 57.8h32.788"/></g><g><path fill="none" stroke="#263238" stroke-linecap="round" stroke-linejoin="round" stroke-miterlimit="20" stroke-width=".5" d="M68.49 68.18h32.788"/></g><g><path fill="none" stroke="#263238" stroke-linecap="round" stroke-linejoin="round" stroke-miterlimit="20" stroke-width=".5" d="M72.87 6.74l2.973 2.715"/></g><g><path fill="none" stroke="#263238" stroke-linecap="round" stroke-linejoin="round" stroke-miterlimit="20" stroke-width=".5" d="M96.813 6.74L93.84 9.455"/></g><g><path fill="#adc7f7" d="M109.757 91.356s5.929-10.498 7.31-15.34c1.38-4.843-3.814-1.038-3.814-1.038s6.167-10.221 6.645-16.946c.478-6.725-6.596 1.608-6.596 1.608s2.43-8.665 2.96-16.168c.53-7.503-2.844-3.844-2.844-3.844s-.282-14.319-2.197-12.898c-1.916 1.422-2.762 6.046-2.762 6.046s-1.073-14.12-2.637-10.33c-1.565 3.79.91 23.726.91 23.726s-3.67-10.403-4.569-5.006c-.9 5.397 5.807 20.435 5.807 20.435s-3.407.536-3.829 2.852c-.421 2.316 4.996 13.858 4.996 13.858s-4.497-6.04-5.306-1.94c-.81 4.1 3.744 16.648 3.744 16.648z"/></g><g><path fill="none" stroke="#263238" stroke-linecap="round" stroke-linejoin="round" stroke-miterlimit="20" stroke-width=".5" d="M116.42 70.51c-.828-2.918-3.039-.997-3.039-.997v0s4.693-15.006 2.702-16.188c-1.99-1.183-3.664 4.15-3.664 4.15v0s2.408-22.97 1.035-21.768c-1.373 1.2-2.17 8.685-2.17 8.685v0s-1.629-20.906-3.439-17.394c-1.81 3.511.32 24.724.32 24.724v0s-3.391-10.634-3.72-5.986c-.328 4.647 3.248 19.99 3.248 19.99v0s-4.055-1.327-3.961 1.018c.093 2.344 2.435 13.175 2.435 13.175v0s-2.505-1.22-1.898 1.164c.608 2.384 3.468 9.596 3.468 9.596v0l3.04.996v0s4.396-7.225 2.586-7.096a3.707 3.707 0 0 0-2.689 1.367s6.575-12.524 5.745-15.437z"/></g><g><path fill="none" stroke="#263238" stroke-linecap="round" stroke-linejoin="round" stroke-miterlimit="20" stroke-width=".5" d="M109.25 90.405s1.334-23.936.776-39.085"/></g><g><path fill="#263238" d="M111.75 101.44h-5.655l-.665-12.19h6.981l-.662 12.19z"/><path fill="none" stroke="#263238" stroke-linecap="round" stroke-linejoin="round" stroke-miterlimit="20" stroke-width=".5" d="M111.75 101.44v0h-5.655v0l-.665-12.19v0h6.981v0l-.662 12.19v0z"/></g></g><g><g><path fill="none" stroke="#263238" stroke-linecap="round" stroke-linejoin="round" stroke-miterlimit="20" stroke-width=".5" d="M47.9 13.68v0h15.708v21.422H47.9v0z"/></g><g><path fill="none" stroke="#263238" stroke-linecap="round" stroke-linejoin="round" stroke-miterlimit="20" stroke-width=".5" d="M50.24 16.86v0h11.039v15.054H50.24v0z"/></g></g><g><g><path fill="#adc7f7" d="M24.93 35.69a5.611 5.611 0 0 1 2.157.939c.901.698 4.189 6.076 5.406 7.243 1.218 1.166 2.662 2.602 2.16 3.758-.502 1.157-1.287 3.182-3.454 2.328-2.168-.853-2.75-1.958-3.327-2.97-.576-1.01-2.445-2.529-2.445-2.529"/><path fill="none" stroke="#263238" stroke-linecap="round" stroke-linejoin="round" stroke-miterlimit="20" stroke-width=".5" d="M24.93 35.69a5.611 5.611 0 0 1 2.157.939c.901.698 4.189 6.076 5.406 7.243 1.218 1.166 2.662 2.602 2.16 3.758-.502 1.157-1.287 3.182-3.454 2.328-2.168-.853-2.75-1.958-3.327-2.97-.576-1.01-2.445-2.529-2.445-2.529v0"/></g><g><path fill="#fff" d="M33.848 46.764c-1.527-1.66-2.876-.419-3.777 1.009-1.001 1.59-1.892 3.251-2.778 4.915 0 0-1.333 1.272-1.4 1.875-.067.603.999 2.21 1.545 2.144.545-.064 1.6-.403 1.668-.737.067-.333-.466-.258-.466-.258l.399-.603-.258-1.43c1.754-1.5 4.467-3.837 5.226-4.602.698-.717.45-1.648-.16-2.313z"/><path fill="none" stroke="#263238" stroke-linecap="round" stroke-linejoin="round" stroke-miterlimit="20" stroke-width=".5" d="M33.848 46.764c-1.527-1.66-2.876-.419-3.777 1.009-1.001 1.59-1.892 3.251-2.778 4.915 0 0-1.333 1.272-1.4 1.875-.067.603.999 2.21 1.545 2.144.545-.064 1.6-.403 1.668-.737.067-.333-.466-.258-.466-.258v0l.399-.603v0l-.258-1.43c1.754-1.5 4.467-3.837 5.226-4.602.698-.717.45-1.648-.16-2.313z"/></g><g><path fill="#263238" d="M15.339 56.47s-.705 3.035-.404 3.948c.301.913 1.398 3.164 1.398 3.164l2.28 29.157 2.467-.062 1.117-30.689.5-.06.888 30.75 2.54.1 1.712-29.73s.258-3.843.258-4.25c0-.405-.667-4.138-.667-4.138z"/><path fill="none" stroke="#263238" stroke-linecap="round" stroke-linejoin="round" stroke-miterlimit="20" stroke-width=".5" d="M15.339 56.47v0s-.705 3.035-.404 3.948c.301.913 1.398 3.164 1.398 3.164v0l2.28 29.157v0l2.467-.062v0l1.117-30.689v0l.5-.06v0l.888 30.75v0l2.54.1v0l1.712-29.73v0s.258-3.843.258-4.25c0-.405-.667-4.138-.667-4.138v0z"/></g><g><path fill="#fff" d="M18.61 92.74s-2.927 2.434-2.989 3.262c-.062.827 2.353.447 3.37-.776 1.017-1.224 1.99-.895 2.036-1.726l.05-.83z"/><path fill="none" stroke="#263238" stroke-linecap="round" stroke-linejoin="round" stroke-miterlimit="20" stroke-width=".5" d="M18.61 92.74v0s-2.927 2.434-2.989 3.262c-.062.827 2.353.447 3.37-.776 1.017-1.224 1.99-.895 2.036-1.726l.05-.83v0z"/></g><g><path fill="#fff" d="M26.036 92.74s2.927 2.431 2.992 3.262c.064.83-2.356.447-3.373-.776-1.017-1.224-1.987-.895-2.036-1.726l-.049-.83z"/><path fill="none" stroke="#263238" stroke-linecap="round" stroke-linejoin="round" stroke-miterlimit="20" stroke-width=".5" d="M26.036 92.74v0s2.927 2.431 2.992 3.262c.064.83-2.356.447-3.373-.776-1.017-1.224-1.987-.895-2.036-1.726l-.049-.83v0z"/></g><g><path fill="#adc7f7" d="M25.93 39.37l-.288-3.396c-1.871-.796-5.195-.905-6.178-.517 0 0-5.682 2.892-6.259 3.471-.576.58-2.525 9.26-2.525 10.712 0 1.451.793 2.457 2.23 2.747 1.436.29 2.376-1.518 2.376-1.518s-.793 4.397-.65 4.915c.145.517.413 1.254.987 1.327.574.072 11.098-.388 11.53-.606.433-.217.719-.65.719-1.66 0-1.012-1.44-11.276-1.44-11.276"/><path fill="none" stroke="#263238" stroke-linecap="round" stroke-linejoin="round" stroke-miterlimit="20" stroke-width=".5" d="M25.93 39.37v0l-.288-3.396c-1.871-.796-5.195-.905-6.178-.517 0 0-5.682 2.892-6.259 3.471-.576.58-2.525 9.26-2.525 10.712 0 1.451.793 2.457 2.23 2.747 1.436.29 2.376-1.518 2.376-1.518v0s-.793 4.397-.65 4.915c.145.517.413 1.254.987 1.327.574.072 11.098-.388 11.53-.606.433-.217.719-.65.719-1.66 0-1.012-1.44-11.276-1.44-11.276v0"/></g><g><path fill="none" stroke="#263238" stroke-linecap="round" stroke-linejoin="round" stroke-miterlimit="20" stroke-width=".5" d="M15.568 45.338l-.059-2.708"/></g><g><path fill="#fff" d="M20.716 41.184c1.45 0 2.626-1.295 2.626-2.892S22.166 35.4 20.716 35.4s-2.626 1.295-2.626 2.892 1.176 2.892 2.626 2.892z"/><path fill="none" stroke="#263238" stroke-linecap="round" stroke-linejoin="round" stroke-miterlimit="20" stroke-width=".5" d="M20.716 41.184c1.45 0 2.626-1.295 2.626-2.892S22.166 35.4 20.716 35.4s-2.626 1.295-2.626 2.892 1.176 2.892 2.626 2.892z"/></g><g><path fill="#fff" d="M19.03 33.23s0 5.204.515 6.143c.515.94 2.373 1.23 2.518 0 .144-1.228.072-5.708.072-5.708z"/><path fill="none" stroke="#263238" stroke-linecap="round" stroke-linejoin="round" stroke-miterlimit="20" stroke-width=".5" d="M19.03 33.23v0s0 5.204.515 6.143c.515.94 2.373 1.23 2.518 0 .144-1.228.072-5.708.072-5.708v0z"/></g><g><path fill="#263238" d="M22.137 35.744c0-1.138-.018-2.07-.018-2.07l-3.089-.434s0 .828.033 1.883c.867.689 2.01.92 3.074.62z"/><path fill="none" stroke="#263238" stroke-linecap="round" stroke-linejoin="round" stroke-miterlimit="20" stroke-width=".5" d="M22.137 35.744c0-1.138-.018-2.07-.018-2.07v0l-3.089-.434v0s0 .828.033 1.883c.867.689 2.01.92 3.074.62z"/></g><g><path fill="#fff" d="M24.21 23.474s.514 5.277.648 6.795c.134 1.518-.432 3.396-2.373 4.118-1.941.722-3.525-.287-4.534-1.66-1.009-1.374-1.287-1.447-1.287-1.447a1.24 1.24 0 0 1-.95-.152 1.252 1.252 0 0 1-.559-.787c-.36-1.228.647-1.735 1.437-1.952 0 0-1.287-2.962-1.287-3.759 0-.797 1.364-2.457 4.242-3.18 2.878-.72 4.662 2.024 4.662 2.024z"/><path fill="none" stroke="#263238" stroke-linecap="round" stroke-linejoin="round" stroke-miterlimit="20" stroke-width=".5" d="M24.21 23.474v0s.514 5.277.648 6.795c.134 1.518-.432 3.396-2.373 4.118-1.941.722-3.525-.287-4.534-1.66-1.009-1.374-1.287-1.447-1.287-1.447a1.24 1.24 0 0 1-.95-.152 1.252 1.252 0 0 1-.559-.787c-.36-1.228.647-1.735 1.437-1.952 0 0-1.287-2.962-1.287-3.759 0-.797 1.364-2.457 4.242-3.18 2.878-.72 4.662 2.024 4.662 2.024z"/></g><g><path fill="none" stroke="#263238" stroke-linecap="round" stroke-linejoin="round" stroke-miterlimit="20" stroke-width=".5" d="M21.91 26.58v0l.072 1.156v0s1.656.145 1.08.65a4.04 4.04 0 0 1-1.512.724"/></g><g><path fill="none" stroke="#263238" stroke-linecap="round" stroke-linejoin="round" stroke-miterlimit="20" stroke-width=".5" d="M19.24 30.63a2.25 2.25 0 0 0 2.088.58"/></g><g><path fill="#263238" d="M20.11 27.526c0 .338-.161.613-.36.613-.198 0-.36-.274-.36-.613 0-.34.162-.616.36-.616.199 0 .36.277.36.616z"/></g><g><path fill="#263238" d="M22.84 27.491c.2 0 .36-.275.36-.615 0-.34-.16-.616-.36-.616-.199 0-.36.276-.36.616 0 .34.161.615.36.615z"/></g><g><path fill="none" stroke="#263238" stroke-linecap="round" stroke-linejoin="round" stroke-miterlimit="20" stroke-width=".5" d="M18.38 26.441s.646-.87 2.085-.797"/></g><g><path fill="none" stroke="#263238" stroke-linecap="round" stroke-linejoin="round" stroke-miterlimit="20" stroke-width=".5" d="M21.69 24.847a1.287 1.287 0 0 1 1.511-.939"/></g><g><path fill="#263238" d="M15.862 28.391s1.079 1.156 1.439.58c.36-.577 0-1.591.072-2.385.072-.795.934-.725.646-1.374-.288-.65-1.287.072-1.287-.652s1.944-1.878 3.813-1.878c1.869 0 3.884 1.81 5.54 1.012 1.655-.8 1.006-2.53.072-3.324-.935-.794-2.806-.725-2.806-.725s2.301-.721 1.51-1.446c-.79-.724-2.805-.794-3.884-.36-1.079.435-2.237 1.025-2.237 1.025s.934-1.518-.36-.866a4.11 4.11 0 0 0-2.158 2.457c-.36.939-.648 1.588-.648 1.588s-.863-.649-1.51-.36c-.645.29.516.518.516.518s-1.511.87-1.287 2.025c.224 1.157 1.583 2.817 1.943 3.035.36.217.626 1.13.626 1.13z"/><path fill="none" stroke="#263238" stroke-linecap="round" stroke-linejoin="round" stroke-miterlimit="20" stroke-width=".5" d="M15.862 28.391v0s1.079 1.156 1.439.58c.36-.577 0-1.591.072-2.385.072-.795.934-.725.646-1.374-.288-.65-1.287.072-1.287-.652s1.944-1.878 3.813-1.878c1.869 0 3.884 1.81 5.54 1.012 1.655-.8 1.006-2.53.072-3.324-.935-.794-2.806-.725-2.806-.725v0s2.301-.721 1.51-1.446c-.79-.724-2.805-.794-3.884-.36-1.079.435-2.237 1.025-2.237 1.025v0s.934-1.518-.36-.866a4.11 4.11 0 0 0-2.158 2.457c-.36.939-.648 1.588-.648 1.588v0s-.863-.649-1.51-.36c-.645.29.516.518.516.518v0s-1.511.87-1.287 2.025c.224 1.157 1.583 2.817 1.943 3.035.36.217.626 1.13.626 1.13z"/></g><g><path fill="#fff" d="M23.198 40.459v-3.034c0-.29 1.872-.435 1.872-.435l.07.435-.791.432.535 1.2s2.7-1.777 2.99-1.415a.966.966 0 0 1-.073 1.156 1.28 1.28 0 0 0-.286.577s.07 1.953-.432 2.168c-.502.214-3.167.941-3.167.941-2.108 2.51-4.24 5.044-6.775 7.137-1.03.854-2.263 2.294-3.581 1.485-1.267-.776-1.236-2.73-.433-3.78 1.44-1.88 3.347-2.242 5.257-3.308a28.24 28.24 0 0 0 4.814-3.56z"/><path fill="none" stroke="#263238" stroke-linecap="round" stroke-linejoin="round" stroke-miterlimit="20" stroke-width=".5" d="M23.198 40.459v0-3.034c0-.29 1.872-.435 1.872-.435v0l.07.435v0l-.791.432v0l.535 1.2v0s2.7-1.777 2.99-1.415a.966.966 0 0 1-.073 1.156 1.28 1.28 0 0 0-.286.577s.07 1.953-.432 2.168c-.502.214-3.167.941-3.167.941-2.108 2.51-4.24 5.044-6.775 7.137-1.03.854-2.263 2.294-3.581 1.485-1.267-.776-1.236-2.73-.433-3.78 1.44-1.88 3.347-2.242 5.257-3.308a28.24 28.24 0 0 0 4.814-3.56z"/></g><g><path fill="#263238" d="M24.89 39.055l.515-4.733a.56.56 0 0 1 .543-.518l1.72-.124a.56.56 0 0 1 .574.572l-.36 3.399z"/><path fill="none" stroke="#263238" stroke-linecap="round" stroke-linejoin="round" stroke-miterlimit="20" stroke-width=".5" d="M24.89 39.055v0l.515-4.733a.56.56 0 0 1 .543-.518l1.72-.124a.56.56 0 0 1 .574.572l-.36 3.399v0z"/></g></g><g><g><path fill="#999" d="M96.474 77.647s1.452-3.638.519-11.173c-.407-3.31-.117-10.11-4.633-10.33-4.82-.234-6.787.244-11.617.299-17.42.2-30.233 1.94-40.854.914-8.537-.826-15.902-2.182-18.925.86-3.022 3.043-2.77 9.523-2.507 10.78.265 1.258 2.24 9.85 2.24 9.85l75.316-.34z"/><path fill="none" stroke="#263238" stroke-linecap="round" stroke-linejoin="round" stroke-miterlimit="20" stroke-width=".5" d="M96.474 77.647v0s1.452-3.638.519-11.173c-.407-3.31-.117-10.11-4.633-10.33-4.82-.234-6.787.244-11.617.299-17.42.2-30.233 1.94-40.854.914-8.537-.826-15.902-2.182-18.925.86-3.022 3.043-2.77 9.523-2.507 10.78.265 1.258 2.24 9.85 2.24 9.85v0l75.316-.34v0z"/></g><g><path fill="#b2b2b2" d="M21.694 75.48s-1.451-5.82-3.829-7.408c-2.377-1.587-5.475.133-8.036 2.645s-3.3 5.49-2.243 10.45c1.058 4.96 4.148 12.3 5.082 15.607.933 3.308.922 5.028 4.023 6.085 3.1 1.058 6.072 1.125 7.985-1.522 1.913-2.648 1.387-14.81-.132-19.378-1.52-4.567-2.85-6.48-2.85-6.48z"/><path fill="none" stroke="#263238" stroke-linecap="round" stroke-linejoin="round" stroke-miterlimit="20" stroke-width=".5" d="M21.694 75.48v0s-1.451-5.82-3.829-7.408c-2.377-1.587-5.475.133-8.036 2.645s-3.3 5.49-2.243 10.45c1.058 4.96 4.148 12.3 5.082 15.607.933 3.308.922 5.028 4.023 6.085 3.1 1.058 6.072 1.125 7.985-1.522 1.913-2.648 1.387-14.81-.132-19.378-1.52-4.567-2.85-6.48-2.85-6.48z"/></g><g><path fill="#8a8a8a" d="M21.431 101.136c-1.32-2.502-5.278-20.43-5.213-22.882.065-2.453-1.913-6.547-4.355-6.88-2.012-.26-3.63 1.658-4.125 2.338-.778 1.941-.835 4.293-.163 7.447 1.055 4.96.923 12.453 1.846 15.76.923 3.308.915 5.033 4.026 6.09 2.04.697 7.259.808 8.92.156a16.236 16.236 0 0 0-.936-2.029z"/><path fill="none" stroke="#263238" stroke-linecap="round" stroke-linejoin="round" stroke-miterlimit="20" stroke-width=".5" d="M21.431 101.136c-1.32-2.502-5.278-20.43-5.213-22.882.065-2.453-1.913-6.547-4.355-6.88-2.012-.26-3.63 1.658-4.125 2.338-.778 1.941-.835 4.293-.163 7.447 1.055 4.96.923 12.453 1.846 15.76.923 3.308.915 5.033 4.026 6.09 2.04.697 7.259.808 8.92.156a16.236 16.236 0 0 0-.936-2.029z"/></g><g><path fill="#b2b2b2" d="M92.508 75.36s1.535-5.82 4.042-7.408c2.507-1.587 5.786.133 8.503 2.645 2.717 2.512 3.487 5.49 2.372 10.45-1.114 4.96-4.391 12.3-5.369 15.607-.977 3.308-.974 5.028-4.251 6.085-3.277 1.058-6.411 1.125-8.433-1.52-2.023-2.645-1.463-14.81.14-19.38 1.602-4.57 2.996-6.48 2.996-6.48z"/><path fill="none" stroke="#263238" stroke-linecap="round" stroke-linejoin="round" stroke-miterlimit="20" stroke-width=".5" d="M92.508 75.36v0s1.535-5.82 4.042-7.408c2.507-1.587 5.786.133 8.503 2.645 2.717 2.512 3.487 5.49 2.372 10.45-1.114 4.96-4.391 12.3-5.369 15.607-.977 3.308-.974 5.028-4.251 6.085-3.277 1.058-6.411 1.125-8.433-1.52-2.023-2.645-1.463-14.81.14-19.38 1.602-4.57 2.996-6.48 2.996-6.48z"/></g><g><path fill="#8a8a8a" d="M92.79 101.395c1.393-2.546 5.574-20.689 5.507-23.165-.067-2.476 2.02-6.615 4.589-6.963 2.125-.278 3.823 1.676 4.355 2.37.832 1.964.884 4.344.176 7.534-1.117 5.022-2.82 12.453-3.798 15.802-.977 3.35-.974 5.087-4.251 6.16-2.155.705-5.82.975-7.578.312.286-.705.62-1.39 1-2.05z"/><path fill="none" stroke="#263238" stroke-linecap="round" stroke-linejoin="round" stroke-miterlimit="20" stroke-width=".5" d="M92.79 101.395c1.393-2.546 5.574-20.689 5.507-23.165-.067-2.476 2.02-6.615 4.589-6.963 2.125-.278 3.823 1.676 4.355 2.37.832 1.964.884 4.344.176 7.534-1.117 5.022-2.82 12.453-3.798 15.802-.977 3.35-.974 5.087-4.251 6.16-2.155.705-5.82.975-7.578.312.286-.705.62-1.39 1-2.05z"/></g><g><path fill="#999" d="M98.326 86.64s-1.649 10.268-2.706 13.708c-1.058 3.44-.726 3.44-2.507 3.572-1.781.133-69.376-.057-71.49-.387-2.112-.33-3.232-1.92-3.826-4.157-.593-2.237-1.187-12.453-1.187-12.453l78.877-.26z"/><path fill="none" stroke="#263238" stroke-linecap="round" stroke-linejoin="round" stroke-miterlimit="20" stroke-width=".5" d="M98.326 86.64v0s-1.649 10.268-2.706 13.708c-1.058 3.44-.726 3.44-2.507 3.572-1.781.133-69.376-.057-71.49-.387-2.112-.33-3.232-1.92-3.826-4.157-.593-2.237-1.187-12.453-1.187-12.453v0l78.877-.26v0z"/></g><g><path fill="#263238" d="M16.61 88.543a2.29 2.29 0 0 0 1.773 1.396c1.395.26 37.126.636 38.264.636 1.138 0 30.282 0 34.972-.382 4.69-.382 7.075-1.003 6.704-3.549-.37-2.546-.244-.52-.244-.52L15.85 87.146z"/></g><g><path fill="#b2b2b2" d="M21.885 75.144s-5.076 3.44-6.533 5.027c-1.456 1.588-.658 2.842-.518 4.035s.726 3.835 2.44 4.76c1.713.925 23.03.52 35.438.927 12.407.408 39.078-.075 42.389-.873 3.31-.797 4.083-4.894 4.28-7.21.197-2.314-2.17-5.554-3.49-5.95-1.319-.394-12.295-.454-24.503-.189s-17.802 1.33-31.726 1.065c-13.924-.265-14.609-2.187-17.777-1.592z"/></g><g><path fill="#999" d="M14.833 84.203c.13 1.19.726 3.835 2.44 4.76 1.713.925 23.03.52 35.438.927 12.408.408 39.086-.075 42.397-.873 3.31-.797 5.278-3.967 5.475-6.282a3.015 3.015 0 0 0-.114-1.04c-.466.466-1.36-.038-2.421-.19-2.352-.34-27.091 1.204-45.606 1.204-20.107 0-26.658 0-36.608-1.918-1.48-.285-.464-.631-.464-.631-1.462 1.595-.669 2.85-.537 4.043z"/></g><g><path fill="none" stroke="#263238" stroke-linecap="round" stroke-linejoin="round" stroke-miterlimit="20" stroke-width=".5" d="M21.885 75.144s-5.076 3.44-6.533 5.027c-1.456 1.588-.658 2.842-.518 4.035s.726 3.835 2.44 4.76c1.713.925 23.03.52 35.438.927 12.407.408 39.078-.075 42.389-.873 3.31-.797 4.083-4.894 4.28-7.21.197-2.314-2.17-5.554-3.49-5.95-1.319-.394-12.295-.454-24.503-.189s-17.802 1.33-31.726 1.065c-13.924-.265-14.609-2.187-17.777-1.592z"/></g><g><path fill="none" stroke="#263238" stroke-linecap="round" stroke-linejoin="round" stroke-miterlimit="20" stroke-width=".5" d="M57.814 57.62v0l-.104 18.74v0s-.817 5.127-.71 5.836c.106.71.1 7.68.1 7.68v0"/></g></g><g><g><path fill="#fff" d="M91.05 62.425c.796-.122 1.61.02 2.318.405 1.037.638 2.725 2.725 2.725 2.725l1.797-4.987s-.812-1.506-.812-2.028c0-.521-.057-1.037-.057-1.276 0-.238.519-.464.519-.23.036.312.094.621.174.925l.596.7.347-2.896s.288-.348.405-.06c.117.288.067 1.782.067 1.782h.288l.275-2.347s.083-.112.36-.083a.2.2 0 0 1 .192.275l-.192 2.212.166.026.462-2.041s.194-.192.332-.083c.09.098.14.227.137.36l-.295 2.124.656-1.214s.274-.108.274.112c-.199.733-.446 1.452-.739 2.153-.054.083-1.104 2.015-1.104 2.015s-.856 5.111-1.242 6.224c-.386 1.112-1.216 2.098-2.404 2.155-1.187.057-2.54-1.297-2.54-1.297z"/><path fill="none" stroke="#263238" stroke-linecap="round" stroke-linejoin="round" stroke-miterlimit="20" stroke-width=".5" d="M91.05 62.425c.796-.122 1.61.02 2.318.405 1.037.638 2.725 2.725 2.725 2.725v0l1.797-4.987v0s-.812-1.506-.812-2.028c0-.521-.057-1.037-.057-1.276 0-.238.519-.464.519-.23.036.312.094.621.174.925l.596.7v0l.347-2.896v0s.288-.348.405-.06c.117.288.067 1.782.067 1.782v0h.288v0l.275-2.347v0s.083-.112.36-.083a.2.2 0 0 1 .192.275l-.192 2.212v0l.166.026v0l.462-2.041v0s.194-.192.332-.083c.09.098.14.227.137.36l-.295 2.124v0l.656-1.214v0s.274-.108.274.112c-.199.733-.446 1.452-.739 2.153-.054.083-1.104 2.015-1.104 2.015v0s-.856 5.111-1.242 6.224c-.386 1.112-1.216 2.098-2.404 2.155-1.187.057-2.54-1.297-2.54-1.297v0z"/></g><g><path fill="none" stroke="#263238" stroke-linecap="round" stroke-linejoin="round" stroke-miterlimit="20" stroke-width=".5" d="M98.95 60.298v0s.202-.9.449-1.185c.224-.215.488-.382.777-.493"/></g><g><path fill="#adc7f7" d="M87.167 60.446s-.114 1.624-.23 2.075c-.118.451-.812.348-1.45.348-.638 0-.869 1.037-.986 1.97-.116.934-1.506 11.248-1.275 12.708.23 1.46 2.668 3.017 5.333 3.19 2.666.174 6.433-.233 7.942-1.392 1.51-1.16 1.68-2.075 1.333-3.247-.347-1.172-1.276-2.376-1.74-2.897-.464-.521-.928-1.16-.928-1.16s-2.609-8.638-3.246-9.276c-.638-.638-1.911-.348-1.911-.348l-.407-2.147z"/><path fill="none" stroke="#263238" stroke-linecap="round" stroke-linejoin="round" stroke-miterlimit="20" stroke-width=".5" d="M87.167 60.446v0s-.114 1.624-.23 2.075c-.118.451-.812.348-1.45.348-.638 0-.869 1.037-.986 1.97-.116.934-1.506 11.248-1.275 12.708.23 1.46 2.668 3.017 5.333 3.19 2.666.174 6.433-.233 7.942-1.392 1.51-1.16 1.68-2.075 1.333-3.247-.347-1.172-1.276-2.376-1.74-2.897-.464-.521-.928-1.16-.928-1.16v0s-2.609-8.638-3.246-9.276c-.638-.638-1.911-.348-1.911-.348v0l-.407-2.147v0z"/></g><g><path fill="none" stroke="#263238" stroke-linecap="round" stroke-linejoin="round" stroke-miterlimit="20" stroke-width=".5" d="M84.74 76.554s2.74-6.035 9.739-4.15"/></g><g><path fill="none" stroke="#263238" stroke-linecap="round" stroke-linejoin="round" stroke-miterlimit="20" stroke-width=".5" d="M86.52 73.263s1.978-1.624 4.107-1.572"/></g><g><path fill="#fff" d="M90.517 62.355a3.08 3.08 0 0 0-.506.062l-.407-2.147-2.435.174s-.114 1.623-.23 2.075c-.057.23-.26.316-.519.347.194.519.907 2.108 2.549 2.204 1.454.099 1.581-1.75 1.548-2.715z"/><path fill="none" stroke="#263238" stroke-linecap="round" stroke-linejoin="round" stroke-miterlimit="20" stroke-width=".5" d="M90.517 62.355a3.08 3.08 0 0 0-.506.062l-.407-2.147v0l-2.435.174v0s-.114 1.623-.23 2.075c-.057.23-.26.316-.519.347.194.519.907 2.108 2.549 2.204 1.454.099 1.581-1.75 1.548-2.715z"/></g><g><path fill="#263238" d="M87.05 61.772c.438.098.886.152 1.335.16a4.296 4.296 0 0 0 1.489-.23l-.26-1.432-2.434.174s-.063.718-.13 1.328z"/><path fill="none" stroke="#263238" stroke-linecap="round" stroke-linejoin="round" stroke-miterlimit="20" stroke-width=".5" d="M87.05 61.772c.438.098.886.152 1.335.16a4.296 4.296 0 0 0 1.489-.23l-.26-1.432v0l-2.434.174v0s-.063.718-.13 1.328z"/></g><g><path fill="#263238" d="M93.31 50.705s1.914-1.392 4.232-1.037c2.318.355 2.144 4.002 1.275 4.987-.868.986-2.956.348-2.956-.117 0-.464.348-2.028-.518-2.852a1.815 1.815 0 0 0-1.797-.465z"/><path fill="none" stroke="#263238" stroke-linecap="round" stroke-linejoin="round" stroke-miterlimit="20" stroke-width=".5" d="M93.31 50.705v0s1.914-1.392 4.232-1.037c2.318.355 2.144 4.002 1.275 4.987-.868.986-2.956.348-2.956-.117 0-.464.348-2.028-.518-2.852a1.815 1.815 0 0 0-1.797-.465z"/></g><g><path fill="#fff" d="M84.056 54.94a9.365 9.365 0 0 0-.057 1.556c.057.581-.755.986-.234 1.971.522.986 1.74 2.67 4.64 2.726 2.898.057 4.809-2.666 4.809-5.218s-3.195-4.515-4.883-4.515c-1.687 0-3.534 1.45-3.889 2.03a3.839 3.839 0 0 0-.386 1.45z"/><path fill="none" stroke="#263238" stroke-linecap="round" stroke-linejoin="round" stroke-miterlimit="20" stroke-width=".5" d="M84.056 54.94a9.365 9.365 0 0 0-.057 1.556c.057.581-.755.986-.234 1.971.522.986 1.74 2.67 4.64 2.726 2.898.057 4.809-2.666 4.809-5.218s-3.195-4.515-4.883-4.515c-1.687 0-3.534 1.45-3.889 2.03a3.839 3.839 0 0 0-.386 1.45z"/></g><g><path fill="none" stroke="#263238" stroke-linecap="round" stroke-linejoin="round" stroke-miterlimit="20" stroke-width=".5" d="M87.402 57.099a.5.5 0 1 1-.493-.407.456.456 0 0 1 .493.407z"/></g><g><path fill="none" stroke="#263238" stroke-linecap="round" stroke-linejoin="round" stroke-miterlimit="20" stroke-width=".5" d="M86.01 58.02s.697.811 2.087.057"/></g><g><path fill="#263238" d="M85.657 56.512c.192 0 .348-.26.348-.581 0-.32-.156-.581-.348-.581-.191 0-.347.26-.347.58 0 .322.156.582.347.582z"/></g><g><path fill="#263238" d="M88.507 55.988c0 .322-.158.581-.35.581-.191 0-.347-.26-.347-.58 0-.322.156-.579.347-.579.192 0 .35.26.35.578z"/></g><g><path fill="none" stroke="#263238" stroke-linecap="round" stroke-linejoin="round" stroke-miterlimit="20" stroke-width=".5" d="M85.09 54.938a1.226 1.226 0 0 1 1.159-.347"/></g><g><path fill="none" stroke="#263238" stroke-linecap="round" stroke-linejoin="round" stroke-miterlimit="20" stroke-width=".5" d="M87.68 54.533s1.1-.23 1.447.755"/></g><g><path fill="#263238" d="M87.633 51.808s1.623 3.595 3.072 4.52c1.45.926 2.84.291 3.073-.23a5.235 5.235 0 0 0 .347-3.89c-.58-1.971-1.797-3.247-3.71-3.13-1.914.116-4.115 1.68-4.115 1.68z"/><path fill="none" stroke="#263238" stroke-linecap="round" stroke-linejoin="round" stroke-miterlimit="20" stroke-width=".5" d="M87.633 51.808v0s1.623 3.595 3.072 4.52c1.45.926 2.84.291 3.073-.23a5.235 5.235 0 0 0 .347-3.89c-.58-1.971-1.797-3.247-3.71-3.13-1.914.116-4.115 1.68-4.115 1.68v0z"/></g><g><path fill="#263238" d="M88.325 51.981s-3.757 2.84-4.462 3.421c-.706.581-1.623.231-2.261-1.857-.638-2.087.697-3.825 2.494-3.825 1.797 0 3.824 1.151 3.824 1.151"/><path fill="none" stroke="#263238" stroke-linecap="round" stroke-linejoin="round" stroke-miterlimit="20" stroke-width=".5" d="M88.325 51.981v0s-3.757 2.84-4.462 3.421c-.706.581-1.623.231-2.261-1.857-.638-2.087.697-3.825 2.494-3.825 1.797 0 3.824 1.151 3.824 1.151v0"/></g><g><path fill="#fff" d="M91.54 57.025s.926-1.556 1.797-1.45c.871.107.404 2.262-.06 2.783-.464.521-1.333-.057-1.333-.057"/><path fill="none" stroke="#263238" stroke-linecap="round" stroke-linejoin="round" stroke-miterlimit="20" stroke-width=".5" d="M91.54 57.025v0s.926-1.556 1.797-1.45c.871.107.404 2.262-.06 2.783-.464.521-1.333-.057-1.333-.057v0"/></g><g><path fill="#fff" d="M86.297 63.815a1.097 1.097 0 0 0-1.45-.754c-1.158.35-1.555 2.899-1.853 4.522-.298 1.624-2.144 10.844-2.144 10.844s-1.914.287-2.725.518c-.812.231-.174.348.985.465a33.21 33.21 0 0 1 1.854.23s-1.273.638-.114.638c1.159 0 1.854-.754 1.97-1.037.117-.283 3.246-12.002 3.477-13.336.231-1.333 0-2.09 0-2.09z"/><path fill="none" stroke="#263238" stroke-linecap="round" stroke-linejoin="round" stroke-miterlimit="20" stroke-width=".5" d="M86.297 63.815a1.097 1.097 0 0 0-1.45-.754c-1.158.35-1.555 2.899-1.853 4.522-.298 1.624-2.144 10.844-2.144 10.844v0s-1.914.287-2.725.518c-.812.231-.174.348.985.465a33.21 33.21 0 0 1 1.854.23v0s-1.273.638-.114.638c1.159 0 1.854-.754 1.97-1.037.117-.283 3.246-12.002 3.477-13.336.231-1.333 0-2.09 0-2.09z"/></g><g><path fill="#fff" d="M97.314 74.213s-1.672-1.118-3.396.049-.407 4.362-.052 5.48c.355 1.117 1.724 4.31 2.385 5.933.662 1.624 1.216 4.15 1.37 4.617.152.467 1.368.762 1.874.661a19.424 19.424 0 0 0 3.451-1.473c.607-.405.76-1.115.405-1.268-.356-.153-3.856-.101-3.856-.101s-.659-2.075-.76-3.652c-.1-1.577-.71-6.139-.76-7.66-.049-1.523-.445-2.273-.66-2.587z"/><path fill="none" stroke="#263238" stroke-linecap="round" stroke-linejoin="round" stroke-miterlimit="20" stroke-width=".5" d="M97.314 74.213s-1.672-1.118-3.396.049-.407 4.362-.052 5.48c.355 1.117 1.724 4.31 2.385 5.933.662 1.624 1.216 4.15 1.37 4.617.152.467 1.368.762 1.874.661a19.424 19.424 0 0 0 3.451-1.473c.607-.405.76-1.115.405-1.268-.356-.153-3.856-.101-3.856-.101v0s-.659-2.075-.76-3.652c-.1-1.577-.71-6.139-.76-7.66-.049-1.523-.445-2.273-.66-2.587z"/></g><g><path fill="#263238" d="M99.142 88.585c-.005.177-.04.353-.104.519a11.68 11.68 0 0 1-1.698.168c.132.519.228.897.28 1.038.15.456 1.37.762 1.875.66a19.423 19.423 0 0 0 3.45-1.472c.607-.405.76-1.115.405-1.268-.355-.153-3.855-.102-3.855-.102s-.353.205-.353.457z"/><path fill="none" stroke="#263238" stroke-linecap="round" stroke-linejoin="round" stroke-miterlimit="20" stroke-width=".5" d="M99.142 88.585c-.005.177-.04.353-.104.519a11.68 11.68 0 0 1-1.698.168c.132.519.228.897.28 1.038.15.456 1.37.762 1.875.66a19.423 19.423 0 0 0 3.45-1.472c.607-.405.76-1.115.405-1.268-.355-.153-3.855-.102-3.855-.102v0s-.353.205-.353.457z"/></g><g><path fill="#fff" d="M94.63 90.156s-.417 0-1.345-6.364c-.407-2.786-.101-7.335-1.167-8.857-1.066-1.522-4.408-1.063-4.408 2.207 0 3.27 3.041 10.426 3.89 12.48.847 2.054 1.065 3.348 1.814 3.5.75.154 3.729-.609 4.87-1.368 1.14-.76 1.369-1.816.609-1.816s-4.263.218-4.263.218z"/><path fill="none" stroke="#263238" stroke-linecap="round" stroke-linejoin="round" stroke-miterlimit="20" stroke-width=".5" d="M94.63 90.156v0s-.417 0-1.345-6.364c-.407-2.786-.101-7.335-1.167-8.857-1.066-1.522-4.408-1.063-4.408 2.207 0 3.27 3.041 10.426 3.89 12.48.847 2.054 1.065 3.348 1.814 3.5.75.154 3.729-.609 4.87-1.368 1.14-.76 1.369-1.816.609-1.816s-4.263.218-4.263.218z"/></g><g><path fill="#263238" d="M94.117 90.476a.874.874 0 0 0 .078.8c.143.155-.358.233-1.885.259.35.933.62 1.501 1.107 1.6.762.153 3.729-.61 4.87-1.37 1.14-.76 1.369-1.815.609-1.815s-4.26.228-4.26.228a.778.778 0 0 0-.519.298z"/><path fill="none" stroke="#263238" stroke-linecap="round" stroke-linejoin="round" stroke-miterlimit="20" stroke-width=".5" d="M94.117 90.476a.874.874 0 0 0 .078.8c.143.155-.358.233-1.885.259.35.933.62 1.501 1.107 1.6.762.153 3.729-.61 4.87-1.37 1.14-.76 1.369-1.815.609-1.815s-4.26.228-4.26.228a.778.778 0 0 0-.519.298z"/></g></g><g><g><path fill="#263238" d="M68.997 41.539a4.707 4.707 0 0 0-1.37-3.13c-1.37-1.296-4.413-1.602-5.858.382-1.445 1.983-1.445 3.588-.913 3.97l.533.38s-.685 1.297.075 1.909c.76.611 1.37 1.22 1.522.534.153-.687-.99-2.137.76-3.283s5.25-.762 5.25-.762z"/><path fill="none" stroke="#263238" stroke-linecap="round" stroke-linejoin="round" stroke-miterlimit="20" stroke-width=".5" d="M68.997 41.539a4.707 4.707 0 0 0-1.37-3.13c-1.37-1.296-4.413-1.602-5.858.382-1.445 1.983-1.445 3.588-.913 3.97l.533.38v0s-.685 1.297.075 1.909c.76.611 1.37 1.22 1.522.534.153-.687-.99-2.137.76-3.283s5.25-.762 5.25-.762z"/></g><g><path fill="#263238" d="M68.164 39.927s2.282-1.909 3.575-.306c1.292 1.602-1.368 3.663-1.748 3.889-.38.225-1.902-2.899-1.902-2.899s-.38-.303.075-.684z"/><path fill="none" stroke="#263238" stroke-linecap="round" stroke-linejoin="round" stroke-miterlimit="20" stroke-width=".5" d="M68.164 39.927s2.282-1.909 3.575-.306c1.292 1.602-1.368 3.663-1.748 3.889-.38.225-1.902-2.899-1.902-2.899v0s-.38-.303.075-.684z"/></g><g><path fill="#fff" d="M70.238 43.9s.86-1.27 1.315-.204c.455 1.065-.517 2.54-.961 2.852-.445.31-.354-2.647-.354-2.647z"/><path fill="none" stroke="#263238" stroke-linecap="round" stroke-linejoin="round" stroke-miterlimit="20" stroke-width=".5" d="M70.238 43.9v0s.86-1.27 1.315-.204c.455 1.065-.517 2.54-.961 2.852-.445.31-.354-2.647-.354-2.647z"/></g><g><path fill="#fff" d="M62.497 45.17s-.811-1.878-1.367-1.066c-.556.811.052 2.945 1.114 2.945.138-.22.24-.46.303-.71"/><path fill="none" stroke="#263238" stroke-linecap="round" stroke-linejoin="round" stroke-miterlimit="20" stroke-width=".5" d="M62.497 45.17v0s-.811-1.878-1.367-1.066c-.556.811.052 2.945 1.114 2.945.138-.22.24-.46.303-.71"/></g><g><path fill="#adc7f7" d="M74.827 63.57c-.887-2.349.406-8.501-1.613-9.474-2.02-.972-4.842-1.296-4.842-1.296l-2.342.086-2.342-.086s-2.825.324-4.844 1.296c-2.02.973-.727 7.125-1.613 9.474-.887 2.35-1.616 5.422-1.293 7.366.323 1.945 1.453 2.67 2.342 2.914.61.166 5.043.104 7.755.05 2.704.054 7.137.116 7.755-.05.887-.243 2.017-.972 2.34-2.914.323-1.942-.414-5.032-1.303-7.366z"/><path fill="none" stroke="#263238" stroke-linecap="round" stroke-linejoin="round" stroke-miterlimit="20" stroke-width=".5" d="M74.827 63.57c-.887-2.349.406-8.501-1.613-9.474-2.02-.972-4.842-1.296-4.842-1.296v0l-2.342.086v0l-2.342-.086v0s-2.825.324-4.844 1.296c-2.02.973-.727 7.125-1.613 9.474-.887 2.35-1.616 5.422-1.293 7.366.323 1.945 1.453 2.67 2.342 2.914.61.166 5.043.104 7.755.05 2.704.054 7.137.116 7.755-.05.887-.243 2.017-.972 2.34-2.914.323-1.942-.414-5.032-1.303-7.366z"/></g><g><path fill="none" stroke="#263238" stroke-linecap="round" stroke-linejoin="round" stroke-miterlimit="20" stroke-width=".5" d="M60.85 64.377s5.643-2.79 10.126-.778"/></g><g><path fill="none" stroke="#263238" stroke-linecap="round" stroke-linejoin="round" stroke-miterlimit="20" stroke-width=".5" d="M64.49 61.674s2.704-.39 4.56.62"/></g><g><path fill="#fff" d="M64.784 51.31s-1.569.52-1.822 1.222c-.253.703-.76 2.64-.708 3.503.051.863.555 1.32.809.915.253-.405 2.683-1.473 2.988-1.626.305-.153 2.177.407 2.53.812.355.404 1.368 1.524 1.52 1.117.153-.407 0-2.235-.516-3.858-.517-1.623-.962-1.88-1.874-2.134-.913-.254-2.927.05-2.927.05z"/><path fill="none" stroke="#263238" stroke-linecap="round" stroke-linejoin="round" stroke-miterlimit="20" stroke-width=".5" d="M64.784 51.31v0s-1.569.52-1.822 1.222c-.253.703-.76 2.64-.708 3.503.051.863.555 1.32.809.915.253-.405 2.683-1.473 2.988-1.626.305-.153 2.177.407 2.53.812.355.404 1.368 1.524 1.52 1.117.153-.407 0-2.235-.516-3.858-.517-1.623-.962-1.88-1.874-2.134-.913-.254-2.927.05-2.927.05z"/></g><g><path fill="#fff" d="M64.22 51.21s.1 2.54.517 3.86c.416 1.32 1.517 3.099 2.024 2.853.507-.247 1.065-2.593 1.316-3.555.197-.956.332-1.923.406-2.896 0 0-3.606.246-4.263-.262z"/><path fill="none" stroke="#263238" stroke-linecap="round" stroke-linejoin="round" stroke-miterlimit="20" stroke-width=".5" d="M64.22 51.21s.1 2.54.517 3.86c.416 1.32 1.517 3.099 2.024 2.853.507-.247 1.065-2.593 1.316-3.555.197-.956.332-1.923.406-2.896 0 0-3.606.246-4.263-.262z"/></g><g><path fill="#263238" d="M68.472 51.46s-3.595.259-4.252-.26c0 0 .028.692.111 1.543a7.89 7.89 0 0 0 3.733.275c.088-.019.168-.042.258-.063.086-.775.15-1.496.15-1.496z"/><path fill="none" stroke="#263238" stroke-linecap="round" stroke-linejoin="round" stroke-miterlimit="20" stroke-width=".5" d="M68.472 51.46v0s-3.595.259-4.252-.26c0 0 .028.692.111 1.543a7.89 7.89 0 0 0 3.733.275c.088-.019.168-.042.258-.063.086-.775.15-1.496.15-1.496z"/></g><g><path fill="#fff" d="M62.433 42.645s-.861 6.827 0 8.004c.86 1.177 3.83 1.815 5.63 1.41 1.799-.404 2.66-1.555 2.74-3.845.08-2.29-.548-6.04-1.331-6.588-.784-.547-2.738-1.257-4.46-.708-1.721.55-2.347 1.1-2.58 1.727z"/><path fill="none" stroke="#263238" stroke-linecap="round" stroke-linejoin="round" stroke-miterlimit="20" stroke-width=".5" d="M62.433 42.645s-.861 6.827 0 8.004c.86 1.177 3.83 1.815 5.63 1.41 1.799-.404 2.66-1.555 2.74-3.845.08-2.29-.548-6.04-1.331-6.588-.784-.547-2.738-1.257-4.46-.708-1.721.55-2.347 1.1-2.58 1.727z"/></g><g><path fill="#263238" d="M65.007 40.5s-.517 1.965-1.752 2.593c-1.236.627-.928-1.037-.618-1.966"/><path fill="none" stroke="#263238" stroke-linecap="round" stroke-linejoin="round" stroke-miterlimit="20" stroke-width=".5" d="M65.007 40.5v0s-.517 1.965-1.752 2.593c-1.236.627-.928-1.037-.618-1.966"/></g><g><path fill="none" stroke="#263238" stroke-linecap="round" stroke-linejoin="round" stroke-miterlimit="20" stroke-width=".5" d="M64.29 45.089s.881-.778 1.551-.104"/></g><g><path fill="none" stroke="#263238" stroke-linecap="round" stroke-linejoin="round" stroke-miterlimit="20" stroke-width=".5" d="M67.67 44.934s.726-.99 1.507.055"/></g><g><path fill="#fff" d="M67.153 43.64l.303 3.352s-.91.457-1.316-.407"/><path fill="none" stroke="#263238" stroke-linecap="round" stroke-linejoin="round" stroke-miterlimit="20" stroke-width=".5" d="M67.153 43.64v0l.303 3.352v0s-.91.457-1.316-.407"/></g><g><path fill="none" stroke="#263238" stroke-linecap="round" stroke-linejoin="round" stroke-miterlimit="20" stroke-width=".5" d="M64.16 43.646a2.539 2.539 0 0 1 1.81-.406"/></g><g><path fill="none" stroke="#263238" stroke-linecap="round" stroke-linejoin="round" stroke-miterlimit="20" stroke-width=".5" d="M67.25 43.292a1.635 1.635 0 0 1 1.722-.052"/></g><g><path fill="#263238" d="M66.442 46.94s-2.097.4-1.944.754c.152.356.796.778 1.404.732.607-.047 1.047-.778 1.047-.778s.98 1.452 2.28.2c.416-.4-1.776-.859-1.776-.859s-.709.306-1.011-.049z"/></g><g><path fill="#263238" d="M74.69 71.853s-.155-1.366-5.022-2.491c-4.868-1.126-8.425-.083-10.05 1.125-1.627 1.208-2.63 2.01-3.248 4.18-.617 2.17-.775 6.427 4.098 7.552 4.872 1.125 12.597.957 14.838-1.247 3.616-3.552.08-8.323-.615-9.119z"/><path fill="none" stroke="#263238" stroke-linecap="round" stroke-linejoin="round" stroke-miterlimit="20" stroke-width=".5" d="M74.69 71.853s-.155-1.366-5.022-2.491c-4.868-1.126-8.425-.083-10.05 1.125-1.627 1.208-2.63 2.01-3.248 4.18-.617 2.17-.775 6.427 4.098 7.552 4.872 1.125 12.597.957 14.838-1.247 3.616-3.552.08-8.323-.615-9.119z"/></g><g><path fill="#fff" d="M69.382 71.024s-1.504-.14-1.936-.236c-.432-.096-1.92.723-2.737 1.156a3.21 3.21 0 0 0-1.347 1.639c0 .145-.142.866.098.964.24.099 1.44-.194 1.776-.194.336 0 2.21-.578 2.69-.519.482.06 2.216-.928 2.216-.928z"/><path fill="none" stroke="#263238" stroke-linecap="round" stroke-linejoin="round" stroke-miterlimit="20" stroke-width=".5" d="M69.382 71.024v0s-1.504-.14-1.936-.236c-.432-.096-1.92.723-2.737 1.156a3.21 3.21 0 0 0-1.347 1.639c0 .145-.142.866.098.964.24.099 1.44-.194 1.776-.194.336 0 2.21-.578 2.69-.519.482.06 2.216-.928 2.216-.928v0z"/></g><g><path fill="none" stroke="#263238" stroke-linecap="round" stroke-linejoin="round" stroke-miterlimit="20" stroke-width=".5" d="M67.396 73.1v0s-1.347.145-1.683.433c-.365.271-.75.513-1.153.723"/></g><g><path fill="none" stroke="#263238" stroke-linecap="round" stroke-linejoin="round" stroke-miterlimit="20" stroke-width=".5" d="M66.826 72.39a8.866 8.866 0 0 0-1.683.674c-.503.388-.97.822-1.393 1.296"/></g><g><path fill="none" stroke="#263238" stroke-linecap="round" stroke-linejoin="round" stroke-miterlimit="20" stroke-width=".5" d="M66.532 71.75v0s-1.874.674-2.21.915c-.341.283-.663.589-.962.915"/></g><g><path fill="#adc7f7" d="M73.158 53.78s2.342.404 3.471 1.618c1.13 1.213 2.503 7.366 3.149 9.715.646 2.349.97 5.875.646 6.604-.323.728-1.768 1.195-2.97 1.195-1.202 0-7.517.137-7.517.137l-.887-1.944 6.336-2.959-1.592-9.266"/><path fill="none" stroke="#263238" stroke-linecap="round" stroke-linejoin="round" stroke-miterlimit="20" stroke-width=".5" d="M73.158 53.78v0s2.342.404 3.471 1.618c1.13 1.213 2.503 7.366 3.149 9.715.646 2.349.97 5.875.646 6.604-.323.728-1.768 1.195-2.97 1.195-1.202 0-7.517.137-7.517.137v0l-.887-1.944v0l6.336-2.959v0l-1.592-9.266v0"/></g><g><path fill="#adc7f7" d="M59.809 53.78s-2.342.404-3.472 1.618c-1.13 1.213-2.502 7.366-3.146 9.715-.643 2.349-1.016 5.336-.692 6.064.323.729 2.018 1.862 3.228 1.862 1.21 0 7.11-.138 7.11-.138l.76-1.872-5.93-3.25 1.496-8.9"/><path fill="none" stroke="#263238" stroke-linecap="round" stroke-linejoin="round" stroke-miterlimit="20" stroke-width=".5" d="M59.809 53.78v0s-2.342.404-3.472 1.618c-1.13 1.213-2.502 7.366-3.146 9.715-.643 2.349-1.016 5.336-.692 6.064.323.729 2.018 1.862 3.228 1.862 1.21 0 7.11-.138 7.11-.138v0l.76-1.872v0l-5.93-3.25v0l1.496-8.9v0"/></g><g><path fill="#fff" d="M63.6 71.024s1.502-.14 1.934-.236c.431-.096 1.923.723 2.74 1.156a3.2 3.2 0 0 1 1.344 1.639c0 .145.145.866-.096.964-.24.099-1.442-.194-1.778-.194-.336 0-2.21-.578-2.691-.519-.481.06-2.213-.928-2.213-.928z"/><path fill="none" stroke="#263238" stroke-linecap="round" stroke-linejoin="round" stroke-miterlimit="20" stroke-width=".5" d="M63.6 71.024v0s1.502-.14 1.934-.236c.431-.096 1.923.723 2.74 1.156a3.2 3.2 0 0 1 1.344 1.639c0 .145.145.866-.096.964-.24.099-1.442-.194-1.778-.194-.336 0-2.21-.578-2.691-.519-.481.06-2.213-.928-2.213-.928v0z"/></g><g><path fill="none" stroke="#263238" stroke-linecap="round" stroke-linejoin="round" stroke-miterlimit="20" stroke-width=".5" d="M65.58 73.1v0s1.344.145 1.68.433c.365.27.75.512 1.153.723"/></g><g><path fill="none" stroke="#263238" stroke-linecap="round" stroke-linejoin="round" stroke-miterlimit="20" stroke-width=".5" d="M66.16 72.39a8.797 8.797 0 0 1 1.68.674c.504.387.971.821 1.394 1.296"/></g><g><path fill="none" stroke="#263238" stroke-linecap="round" stroke-linejoin="round" stroke-miterlimit="20" stroke-width=".5" d="M66.45 71.75v0s1.874.674 2.21.915c.341.283.662.589.962.915"/></g><g><path fill="#263238" d="M64.642 75.855s-3.865-3.565-7.11-3.643c-3.243-.078-5.17 2.248-5.024 5.813.144 3.565 3.782 27.434 3.782 27.434l3.709-.078.933-27.123"/><path fill="none" stroke="#263238" stroke-linecap="round" stroke-linejoin="round" stroke-miterlimit="20" stroke-width=".5" d="M64.642 75.855v0s-3.865-3.565-7.11-3.643c-3.243-.078-5.17 2.248-5.024 5.813.144 3.565 3.782 27.434 3.782 27.434v0l3.709-.078v0l.933-27.123v0"/></g><g><path fill="#fff" d="M56.284 105.458s-2.011 1.395-2.551 3.023c-.54 1.628 2.551 1.164 3.877-.153a22.379 22.379 0 0 0 2.397-2.948z"/><path fill="none" stroke="#263238" stroke-linecap="round" stroke-linejoin="round" stroke-miterlimit="20" stroke-width=".5" d="M56.284 105.458v0s-2.011 1.395-2.551 3.023c-.54 1.628 2.551 1.164 3.877-.153a22.379 22.379 0 0 0 2.397-2.948z"/></g><g><path fill="#263238" d="M67.8 75.855s3.865-3.565 7.111-3.643c3.247-.078 5.17 2.248 5.023 5.813-.147 3.565-5.185 27.434-5.185 27.434l-3.71-.078.465-27.123"/><path fill="none" stroke="#263238" stroke-linecap="round" stroke-linejoin="round" stroke-miterlimit="20" stroke-width=".5" d="M67.8 75.855v0s3.865-3.565 7.111-3.643c3.247-.078 5.17 2.248 5.023 5.813-.147 3.565-5.185 27.434-5.185 27.434v0l-3.71-.078v0l.465-27.123v0"/></g><g><path fill="#fff" d="M74.75 105.458s2.01 1.395 2.55 3.023c.541 1.628-2.55 1.164-3.864-.153a22.38 22.38 0 0 1-2.396-2.948z"/><path fill="none" stroke="#263238" stroke-linecap="round" stroke-linejoin="round" stroke-miterlimit="20" stroke-width=".5" d="M74.75 105.458v0s2.01 1.395 2.55 3.023c.541 1.628-2.55 1.164-3.864-.153a22.38 22.38 0 0 1-2.396-2.948z"/></g></g><g><g><path fill="#263238" d="M46.016 45.267s2.048-.683 2.362-1.89c.314-1.208-.838-5.257-4.306-6.677s-9.142-.42-11.086 1.79c-1.944 2.209.106 4.255.158 4.728.052.473-1.523.78-1.786 2.786-.262 2.008 2.313 4.046 5.096 4.675 2.782.628 4.153-.159 4.153-1.21 0-1.052-.631-1.997.579-2.784 1.21-.787 2.572-2.26 3.15-2.208.58.052 1.68.79 1.68.79z"/></g><g><g><path fill="none" stroke="#636363" stroke-linecap="round" stroke-linejoin="round" stroke-miterlimit="20" stroke-width=".5" d="M41.594 38.76a11.682 11.682 0 0 1-5.97 4.83c-4.068 1.4-5.464.382-5.464.382v0"/></g><g><path fill="none" stroke="#636363" stroke-linecap="round" stroke-linejoin="round" stroke-miterlimit="20" stroke-width=".5" d="M39.684 37.88s-3.81 5.085-8.514 4.957"/></g><g><path fill="none" stroke="#636363" stroke-linecap="round" stroke-linejoin="round" stroke-miterlimit="20" stroke-width=".5" d="M43.122 38.76s-6.49 9.79-14.232 9.79"/></g><g><path fill="none" stroke="#636363" stroke-linecap="round" stroke-linejoin="round" stroke-miterlimit="20" stroke-width=".5" d="M40.45 37.1s6.453 3.389 7.927 6.271"/></g></g><g><path fill="none" stroke="#263238" stroke-linecap="round" stroke-linejoin="round" stroke-miterlimit="20" stroke-width=".5" d="M46.016 45.267v0s2.048-.683 2.362-1.89c.314-1.208-.838-5.257-4.306-6.677s-9.142-.42-11.086 1.79c-1.944 2.209.106 4.255.158 4.728.052.473-1.523.78-1.786 2.786-.262 2.008 2.313 4.046 5.096 4.675 2.782.628 4.153-.159 4.153-1.21 0-1.052-.631-1.997.579-2.784 1.21-.787 2.572-2.26 3.15-2.208.58.052 1.68.79 1.68.79z"/></g><g><path fill="#fff" d="M44.807 55.42s3.047.841 4.464 2.838c1.417 1.997 2.627 6.78 3.115 8.83.488 2.048-.148 4.297-1.558 5.032-1.409.735-3.743-2.077-4.319-3.14-.576-1.062-.579-4.887-1.038-7.463-.46-2.576-1.417-5.78-1.417-5.78s-.454-.528.753-.317z"/><path fill="none" stroke="#263238" stroke-linecap="round" stroke-linejoin="round" stroke-miterlimit="20" stroke-width=".5" d="M44.807 55.42s3.047.841 4.464 2.838c1.417 1.997 2.627 6.78 3.115 8.83.488 2.048-.148 4.297-1.558 5.032-1.409.735-3.743-2.077-4.319-3.14-.576-1.062-.579-4.887-1.038-7.463-.46-2.576-1.417-5.78-1.417-5.78v0s-.454-.528.753-.317z"/></g><g><path fill="#adc7f7" d="M38.708 48.79s.317 3.155 0 3.838c-.317.683-1.469 1.47-3.413 2.101-1.944.631-3.258 1.158-4.309 2.945-1.051 1.787-2.201 10.858-3.52 13.244-1.344 2.436-1.658 7.417 1.53 9.889 2.595 2.023 11.71 1.779 14.966 1.298 3.255-.48 6.151-.018 7.044-2.277.893-2.26-.95-6.08-1.843-7.235-.893-1.156-2.689-2.298-2.689-2.298s1.122-1.948 1.207-3.574c.159-2.944-2.889-11.301-2.889-11.301s-1.837-.78-2.258-1.787c-.42-1.007-.26-2.418-.26-2.418z"/><path fill="none" stroke="#263238" stroke-linecap="round" stroke-linejoin="round" stroke-miterlimit="20" stroke-width=".5" d="M38.708 48.79v0s.317 3.155 0 3.838c-.317.683-1.469 1.47-3.413 2.101-1.944.631-3.258 1.158-4.309 2.945-1.051 1.787-2.201 10.858-3.52 13.244-1.344 2.436-1.658 7.417 1.53 9.889 2.595 2.023 11.71 1.779 14.966 1.298 3.255-.48 6.151-.018 7.044-2.277.893-2.26-.95-6.08-1.843-7.235-.893-1.156-2.689-2.298-2.689-2.298v0s1.122-1.948 1.207-3.574c.159-2.944-2.889-11.301-2.889-11.301v0s-1.837-.78-2.258-1.787c-.42-1.007-.26-2.418-.26-2.418v0z"/></g><g><path fill="none" stroke="#263238" stroke-linecap="round" stroke-linejoin="round" stroke-miterlimit="20" stroke-width=".5" d="M33.77 73.35s5.357.234 8.27 2.563"/></g><g><path fill="none" stroke="#263238" stroke-linecap="round" stroke-linejoin="round" stroke-miterlimit="20" stroke-width=".5" d="M37.24 68.501s3.151.473 6.092-.631"/></g><g><path fill="none" stroke="#263238" stroke-linecap="round" stroke-linejoin="round" stroke-miterlimit="20" stroke-width=".5" d="M40.87 68.972s2.102-.315 3.31-1.052"/></g><g><path fill="#fff" d="M32.413 64.63c1.155-.684 2.573-3.836 2.837-6.36.208-2.005-.28-3.013-.488-3.34-1.65.56-2.819 1.148-3.769 2.763-.649 1.104-1.497 4.919-2.263 8.282 1.036.005 2.637-.74 3.683-1.346z"/><path fill="none" stroke="#263238" stroke-linecap="round" stroke-linejoin="round" stroke-miterlimit="20" stroke-width=".5" d="M32.413 64.63c1.155-.684 2.573-3.836 2.837-6.36.208-2.005-.28-3.013-.488-3.34-1.65.56-2.819 1.148-3.769 2.763-.649 1.104-1.497 4.919-2.263 8.282 1.036.005 2.637-.74 3.683-1.346z"/></g><g><path fill="#fff" d="M42.543 53.633c-.42-.997-.26-2.418-.26-2.418l-3.576-2.425s.317 3.155 0 3.838c-.244.52-.994 1.122-2.227 1.657.218.963.857 3.433 1.861 4.438 1.259 1.262 3.675 1.524 4.516-.156.841-1.68.421-3.994.421-3.994l.02-.054a2.475 2.475 0 0 1-.755-.886z"/><path fill="none" stroke="#263238" stroke-linecap="round" stroke-linejoin="round" stroke-miterlimit="20" stroke-width=".5" d="M42.543 53.633c-.42-.997-.26-2.418-.26-2.418v0l-3.576-2.425v0s.317 3.155 0 3.838c-.244.52-.994 1.122-2.227 1.657.218.963.857 3.433 1.861 4.438 1.259 1.262 3.675 1.524 4.516-.156.841-1.68.421-3.994.421-3.994v0l.02-.054a2.475 2.475 0 0 1-.755-.886z"/></g><g><path fill="#263238" d="M42.285 51.208l-3.102-2.098-.423.231c.031.397.07.956.086 1.511.687.78 1.684 1.743 2.608 1.92.288.055.582.073.875.054a6.81 6.81 0 0 1-.044-1.618z"/></g><g><path fill="#fff" d="M43.65 41.7s-1.156 1.945-2.996 2.942a14.324 14.324 0 0 1-3.151 1.314s.052.631-.21.631c-.263 0-.842-.945-1.208-.997-.366-.052-1.523 1.47-1.105 2.101.39.567.94 1.006 1.578 1.262.519.21 1.103-.473 1.103-.473s4.044 4.935 6.357 3.68c2.312-1.254 2.152-7.725 2.152-7.725s-.525-1.421-2.52-2.735z"/><path fill="none" stroke="#263238" stroke-linecap="round" stroke-linejoin="round" stroke-miterlimit="20" stroke-width=".5" d="M43.65 41.7s-1.156 1.945-2.996 2.942a14.324 14.324 0 0 1-3.151 1.314s.052.631-.21.631c-.263 0-.842-.945-1.208-.997-.366-.052-1.523 1.47-1.105 2.101.39.567.94 1.006 1.578 1.262.519.21 1.103-.473 1.103-.473v0s4.044 4.935 6.357 3.68c2.312-1.254 2.152-7.725 2.152-7.725v0s-.525-1.421-2.52-2.735z"/></g><g><path fill="#263238" d="M42.103 45.795c0 .332-.153.603-.343.603-.19 0-.34-.26-.34-.603 0-.343.153-.605.34-.605.187 0 .343.27.343.605z"/></g><g><path fill="#263238" d="M45.363 45.482c0 .335-.153.606-.343.606-.19 0-.34-.26-.34-.606 0-.345.15-.602.34-.602.19 0 .343.27.343.602z"/></g><g><path fill="none" stroke="#263238" stroke-linecap="round" stroke-linejoin="round" stroke-miterlimit="20" stroke-width=".5" d="M44.12 44.91v0l-.314.997v0s.839.26.839.738-.779.683-.945.683"/></g><g><path fill="none" stroke="#263238" stroke-linecap="round" stroke-linejoin="round" stroke-miterlimit="20" stroke-width=".5" d="M43.07 48.85c.345.185.758.185 1.103 0"/></g><g><path fill="none" stroke="#263238" stroke-linecap="round" stroke-linejoin="round" stroke-miterlimit="20" stroke-width=".5" d="M41.08 44.535s.472-.842 1.365-.631"/></g><g><path fill="none" stroke="#263238" stroke-linecap="round" stroke-linejoin="round" stroke-miterlimit="20" stroke-width=".5" d="M44.6 44.06a.688.688 0 0 1 .945.314"/></g><g><path fill="#fff" d="M42.91 72.73s1.788.293 1.895.52c.106.225.7 1.51.54 1.887-.161.377-.486-.16-.592-.54-.107-.379-1.298-1.239-1.298-1.239"/><path fill="none" stroke="#263238" stroke-linecap="round" stroke-linejoin="round" stroke-miterlimit="20" stroke-width=".5" d="M42.91 72.73v0s1.788.293 1.895.52c.106.225.7 1.51.54 1.887-.161.377-.486-.16-.592-.54-.107-.379-1.298-1.239-1.298-1.239v0"/></g><g><path fill="#fff" d="M42.6 72.76s1.516.47 1.664.662c.314.408.932 1.42.778 1.797-.153.377-.363.15-1.147-1.075-.21-.27-.46-.507-.74-.704"/><path fill="none" stroke="#263238" stroke-linecap="round" stroke-linejoin="round" stroke-miterlimit="20" stroke-width=".5" d="M42.6 72.76v0s1.516.47 1.664.662c.314.408.932 1.42.778 1.797-.153.377-.363.15-1.147-1.075-.21-.27-.46-.507-.74-.704"/></g><g><path fill="#fff" d="M34.485 54.91s-3.54.678-5.536 2.187c-1.996 1.508-3.237 9.54-3.447 11.483-.21 1.942-.431 3.773.537 4.155.968.382 8.192.701 9.645.701 1.454 0 5.498.535 5.82.535.322 0 2.209 1.187 2.533 1.512.325.324.371-.28.216-.865-.21-.78-1.298-1.995-2.64-2.426-1.342-.43-3.61-.215-5.067-1.023-1.456-.808-4.955-2.651-5.495-2.753a4.594 4.594 0 0 0-.7-.106s2.803-6.253 3.07-7.17"/><path fill="none" stroke="#263238" stroke-linecap="round" stroke-linejoin="round" stroke-miterlimit="20" stroke-width=".5" d="M34.485 54.91v0s-3.54.678-5.536 2.187c-1.996 1.508-3.237 9.54-3.447 11.483-.21 1.942-.431 3.773.537 4.155.968.382 8.192.701 9.645.701 1.454 0 5.498.535 5.82.535.322 0 2.209 1.187 2.533 1.512.325.324.371-.28.216-.865-.21-.78-1.298-1.995-2.64-2.426-1.342-.43-3.61-.215-5.067-1.023-1.456-.808-4.955-2.651-5.495-2.753a4.594 4.594 0 0 0-.7-.106s2.803-6.253 3.07-7.17"/></g><g><path fill="none" stroke="#263238" stroke-linecap="round" stroke-linejoin="round" stroke-miterlimit="20" stroke-width=".5" d="M42.75 73.76s1.298.917 1.298 1.727"/></g><g><path fill="#fff" d="M50.626 68.518a4.62 4.62 0 0 0-3.416.473c-1.68 1-2.627 1.945-3.634 2.207-1.007.262-2.679.106-3.94.63-.876.347-1.77.645-2.679.894-.63.21-.579.683-.106.683.472 0 1.103-.052 1.103-.052s-.839 1.314-.839 1.735c0 .42 1.26.473 1.732.366.472-.106 1.261-1.104 1.523-1.207.263-.104 1.262.052 1.996-.473.735-.525 1.052-.78 1.052-.78s2.995.946 5.191.422c2.196-.525 2.967-1.024 3.598-3.283"/><path fill="none" stroke="#263238" stroke-linecap="round" stroke-linejoin="round" stroke-miterlimit="20" stroke-width=".5" d="M50.626 68.518a4.62 4.62 0 0 0-3.416.473c-1.68 1-2.627 1.945-3.634 2.207-1.007.262-2.679.106-3.94.63-.876.347-1.77.645-2.679.894-.63.21-.579.683-.106.683.472 0 1.103-.052 1.103-.052v0s-.839 1.314-.839 1.735c0 .42 1.26.473 1.732.366.472-.106 1.261-1.104 1.523-1.207.263-.104 1.262.052 1.996-.473.735-.525 1.052-.78 1.052-.78v0s2.995.946 5.191.422c2.196-.525 2.967-1.024 3.598-3.283"/></g><g><path fill="none" stroke="#263238" stroke-linecap="round" stroke-linejoin="round" stroke-miterlimit="20" stroke-width=".5" d="M37.97 73.363a4.198 4.198 0 0 1 1.051-.893"/></g><g><path fill="none" stroke="#263238" stroke-linecap="round" stroke-linejoin="round" stroke-miterlimit="20" stroke-width=".5" d="M37.5 75.252s.947-1.787 2.206-2.522"/></g><g><path fill="none" stroke="#263238" stroke-linecap="round" stroke-linejoin="round" stroke-miterlimit="20" stroke-width=".5" d="M38.23 75.387s.382-1.451 2.105-2.337"/></g><g><path fill="none" stroke="#263238" stroke-linecap="round" stroke-linejoin="round" stroke-miterlimit="20" stroke-width=".5" d="M38.86 75.465a2.82 2.82 0 0 1 1.905-2.005"/></g><g><path fill="#fff" d="M49.397 76.962s-2.336-1.085-4.589 1c-2.253 2.086-2.232 3.116-5.233 7.383-3 4.267-7.34 12.099-8.256 12.683-.917.585-3.837 1.75-4.413 3.504-.576 1.752.26 2.254 1.5 1.752 1.241-.5 3.336-4.09 3.67-4.339.335-.25 7.424-5.923 11.177-8.094 3.754-2.171 5.651-4.21 7.151-7.965s.327-5.674-1.007-5.924z"/><path fill="none" stroke="#263238" stroke-linecap="round" stroke-linejoin="round" stroke-miterlimit="20" stroke-width=".5" d="M49.397 76.962s-2.336-1.085-4.589 1c-2.253 2.086-2.232 3.116-5.233 7.383-3 4.267-7.34 12.099-8.256 12.683-.917.585-3.837 1.75-4.413 3.504-.576 1.752.26 2.254 1.5 1.752 1.241-.5 3.336-4.09 3.67-4.339.335-.25 7.424-5.923 11.177-8.094 3.754-2.171 5.651-4.21 7.151-7.965s.327-5.674-1.007-5.924z"/></g><g><path fill="#263238" d="M32.013 98.999a2.21 2.21 0 0 1-.924-.839c-1.096.618-3.634 1.742-4.19 3.376-.584 1.753.26 2.254 1.5 1.753 1.205-.491 3.146-3.773 3.614-4.29z"/><path fill="none" stroke="#263238" stroke-linecap="round" stroke-linejoin="round" stroke-miterlimit="20" stroke-width=".5" d="M32.013 98.999a2.21 2.21 0 0 1-.924-.839c-1.096.618-3.634 1.742-4.19 3.376-.584 1.753.26 2.254 1.5 1.753 1.205-.491 3.146-3.773 3.614-4.29z"/></g><g><path fill="#fff" d="M32.535 100.877s4.205-6.845 6.873-11.101c2.669-4.257 3.922-6.84 3.922-8.928 0 0 .11-3.072-2.336-3.088-1.503 0-4.337.92-6.421 4.934-2.085 4.015-3.588 17.106-3.837 17.856-.249.75-.26 5.425.415 6.51.675 1.086 1.836.333 1.919-2.004a12.902 12.902 0 0 0-.535-4.179z"/><path fill="none" stroke="#263238" stroke-linecap="round" stroke-linejoin="round" stroke-miterlimit="20" stroke-width=".5" d="M32.535 100.877v0s4.205-6.845 6.873-11.101c2.669-4.257 3.922-6.84 3.922-8.928 0 0 .11-3.072-2.336-3.088-1.503 0-4.337.92-6.421 4.934-2.085 4.015-3.588 17.106-3.837 17.856-.249.75-.26 5.425.415 6.51.675 1.086 1.836.333 1.919-2.004a12.902 12.902 0 0 0-.535-4.179z"/></g><g><path fill="#263238" d="M30.685 100.82c-.187 1.257-.132 5.238.475 6.233.67 1.082 1.835.332 1.918-2.005.05-1.41-.13-2.818-.535-4.168 0 0-.952 1.15-1.858-.06z"/><path fill="none" stroke="#263238" stroke-linecap="round" stroke-linejoin="round" stroke-miterlimit="20" stroke-width=".5" d="M30.685 100.82c-.187 1.257-.132 5.238.475 6.233.67 1.082 1.835.332 1.918-2.005.05-1.41-.13-2.818-.535-4.168 0 0-.952 1.15-1.858-.06z"/></g></g></g></g></svg>