<svg xmlns="http://www.w3.org/2000/svg" width="120" height="110" viewBox="0 0 120 110"><g><g><g><g><path fill="#adc7f7" d="M89.244 5.007S72.431-4.394 53.134 2.75C33.839 9.894 21.545 28.473 11.2 43.274.854 58.074 2.43 75.19 14.567 84.939c12.139 9.749 23.135.29 42.042 2.953 18.906 2.663 23.506 6.21 40.929-1.754 17.422-7.963 24.516-32.56 15.377-53.213-9.138-20.652-23.67-27.918-23.67-27.918z"/></g><g opacity=".8"><path fill="#fff" d="M89.244 5.007S72.431-4.394 53.134 2.75C33.839 9.894 21.545 28.473 11.2 43.274.854 58.074 2.43 75.19 14.567 84.939c12.139 9.749 23.135.29 42.042 2.953 18.906 2.663 23.506 6.21 40.929-1.754 17.422-7.963 24.516-32.56 15.377-53.213-9.138-20.652-23.67-27.918-23.67-27.918z"/></g><g><path fill="#fff" d="M93.693 84.297c-1.071-.883-2.665.361-3.304 1.258-.535.741-1.235 1.898-1.4 2.17a.549.549 0 0 0 0-.072l.036-.025a.126.126 0 0 1-.036.019 13.311 13.311 0 0 0-.87-2.934c.27-.27 1.31-.548 1.541-.625.968-.323 1.888-.574 2.51-1.448.49-.686.765-1.692-.139-2.18-1.222-.644-2.542.871-3 1.874-.358.787-.79 1.963-.929 2.34a18.45 18.45 0 0 0-1.216-2.34 6.955 6.955 0 0 1 1.274-.922c.849-.561 1.678-1.038 2.055-2.038.297-.793.307-1.834-.69-2.072-1.352-.323-2.236 1.492-2.42 2.579-.132.76-.238 1.837-.286 2.347-.349-.571-.697-1.09-1.013-1.564-.317-.474-.646-.941-.862-1.338l.094-.035a.297.297 0 0 1-.11 0v-.02c.216-.322 1.184-.783 1.4-.902.887-.5 1.749-.913 2.197-1.883.355-.77.442-1.805-.536-2.118-1.325-.423-2.338 1.325-2.603 2.392-.206.838-.416 2.073-.48 2.473a4.09 4.09 0 0 1-.107-.2 20.496 20.496 0 0 1-1.068-2.528h.1a.239.239 0 0 1-.11-.022c0-.033-.022-.062-.032-.094.325-.41.695-.78 1.104-1.106.745-.69 1.487-1.29 1.7-2.343.164-.829 0-1.857-1.016-1.935-1.388-.1-1.968 1.835-1.975 2.934 0 .677.046 1.586.084 2.144a23.224 23.224 0 0 1-.406-1.37c-.042-.155-.071-.271-.087-.339.012-.471.062-.941.148-1.405.13-1.01.323-1.935-.203-2.902-.407-.741-1.19-1.428-2.023-.828-1.126.812-.322 2.669.374 3.514.494.596 1.246 1.386 1.597 1.75.08.323.262 1.01.555 1.87a8.707 8.707 0 0 1-1.039-1.022c-.703-.735-1.322-1.464-2.377-1.654-.832-.151-1.858.03-1.913 1.051-.074 1.39 1.871 1.935 2.971 1.915.8 0 1.936-.103 2.406-.145.304.884.667 1.745 1.088 2.58.025.048.051.1.08.148a8.327 8.327 0 0 1-1.274-.742c-.861-.535-1.642-1.09-2.71-1.015-.845.058-1.793.483-1.596 1.489.267 1.364 2.29 1.409 3.351 1.125.771-.206 1.836-.574 2.297-.735.232.406.535.86.877 1.37.342.51.73 1.087 1.11 1.715-.3.103-1.335-.645-1.564-.783-.865-.535-1.642-1.09-2.71-1.016-.845.058-1.797.484-1.597 1.49.268 1.363 2.287 1.409 3.352 1.125.993-.268 2.477-.8 2.52-.816v.049a.106.106 0 0 1 0-.042c.446.731.839 1.494 1.176 2.282-.39.055-1.374-.322-1.612-.38-.968-.294-1.871-.626-2.884-.271-.8.277-1.613.938-1.149 1.857.616 1.244 2.581.758 3.53.206.754-.441 1.803-1.16 2.122-1.383.396.931.684 1.905.858 2.902-.423.016-1.326-.323-1.548-.384-.968-.293-1.871-.625-2.881-.27-.8.276-1.613.937-1.148 1.856.616 1.245 2.58.758 3.529.207.71-.416 1.68-1.077 2.06-1.338a12.317 12.317 0 0 1-.022 4.126l.136.023c.24-1.372.249-2.775.026-4.15.264-.238 1.416-.322 1.67-.344 1.01-.133 1.965-.197 2.743-.932.603-.584 1.067-1.515.274-2.17z"/></g><g><path fill="#fff" d="M102.322 90.01c-1.065.098-1.745.768-2.513 1.436-.174.151-.858.828-1.252.99a13.084 13.084 0 0 1-.41-2.99c.385.072 1.636.294 2.504.384 1.093.113 3.08-.254 3.129-1.64.039-1.026-.968-1.29-1.813-1.22-1.064.094-1.745.768-2.513 1.435-.184.158-.932.897-1.31 1.006-.015-.856.03-1.712.133-2.563l.032.036-.026-.042c.045 0 1.613-.132 2.632-.297 1.087-.18 2.904-1.054 2.581-2.405-.232-1-1.274-.996-2.068-.703-1.003.374-1.484 1.2-2.051 2.044-.149.226-.787 1.329-1.104 1.36.088-.731.2-1.408.304-2.02.103-.613.19-1.142.235-1.612.484-.042 1.613-.149 2.394-.278 1.087-.177 2.903-1.05 2.58-2.405-.235-1-1.29-.993-2.07-.7-1.004.371-1.484 1.197-2.049 2.045-.25.424-.535.825-.855 1.199v-.168c.039-.933.014-1.868-.074-2.798.458-.158 1.523-.535 2.258-.854 1.007-.442 2.558-1.738 1.916-2.97-.47-.912-1.48-.644-2.177-.17-.88.606-1.145 1.525-1.484 2.485-.135.468-.31.923-.523 1.36-.09-.905-.21-1.611-.267-1.934.17-.477.529-1.502.732-2.256.293-1.061.255-3.082-1.107-3.356-1.006-.207-1.435.741-1.5 1.586-.08 1.067.471 1.847 1.004 2.714.27.388.509.797.716 1.222 0 .068.035.184.061.342.055.322.132.815.197 1.415a32.875 32.875 0 0 0-.81-1.986c-.461-1-1.787-2.52-3.006-1.86-.904.493-.623 1.496-.13 2.183.626.867 1.549 1.112 2.517 1.431a7.1 7.1 0 0 1 1.461.555v.1a.297.297 0 0 1-.09.064l.093-.032c.084.912.107 1.828.068 2.743v.226c-.226-.339-.926-1.377-1.458-2.054-.68-.867-2.326-2.037-3.358-1.109-.761.687-.258 1.596.384 2.15.81.7 1.764.723 2.78.81.246.022 1.32.045 1.646.245v.026a.226.226 0 0 1-.107.038h.103c-.045.455-.132.967-.232 1.573-.1.607-.197 1.18-.28 1.841-.255-.441-.797-1.376-1.23-2.018-.612-.912-2.17-2.202-3.267-1.35-.81.644-.371 1.573.225 2.172.759.758 1.71.848 2.713 1.01a6.894 6.894 0 0 1 1.542.322 18.078 18.078 0 0 0-.142 2.637c-.283-.29-1.164-1.183-1.813-1.754-.829-.722-2.664-1.573-3.506-.467-.623.815.042 1.612.774 2.04.926.539 1.868.384 2.88.284.246-.026 1.291-.2 1.665-.061.02 1.022.16 2.038.417 3.027h-.013.038l.02.07c-.262-.18-1.378-.944-2.168-1.402-.968-.55-2.903-1.028-3.53.22-.454.922.356 1.576 1.156 1.853 1.013.349 1.906 0 2.88-.28.246-.074 1.33-.484 1.665-.374.365 1.345.951 2.62 1.735 3.772l.113-.077a12.357 12.357 0 0 1-1.72-3.753c.453.08 1.614.284 2.43.37 1.094.114 3.08-.254 3.132-1.643.032-1.026-.974-1.28-1.82-1.22z"/></g><g><path fill="#fff" d="M117.627 56.569c-.968.48-1.342 1.354-1.813 2.256-.106.207-.493 1.087-.797 1.38a13.15 13.15 0 0 1-1.483-2.627c.383-.074 1.629-.323 2.47-.561 1.059-.3 2.772-1.37 2.307-2.68-.342-.966-1.377-.847-2.132-.467-.968.48-1.345 1.354-1.813 2.257-.11.216-.536 1.177-.845 1.418a18.316 18.316 0 0 1-.82-2.434l.042.023-.038-.029c.038-.02 1.458-.716 2.338-1.244.945-.565 2.316-2.048 1.526-3.189-.587-.841-1.552-.454-2.184.11-.797.715-.939 1.66-1.155 2.653-.058.264-.242 1.525-.525 1.67-.188-.71-.323-1.383-.462-1.99-.138-.605-.242-1.13-.374-1.582a36.651 36.651 0 0 0 2.126-1.135c.945-.564 2.316-2.047 1.526-3.188-.587-.845-1.552-.458-2.184.106-.797.716-.939 1.66-1.155 2.653a8.416 8.416 0 0 1-.352 1.429l-.051-.158a20.424 20.424 0 0 0-1.097-2.58c.368-.322 1.22-1.06 1.78-1.611.778-.78 1.743-2.557.694-3.466-.774-.674-1.613-.061-2.09.645-.594.886-.503 1.837-.465 2.856.04.485.04.972 0 1.457a20.111 20.111 0 0 0-.967-1.699c-.02-.506-.062-1.596-.149-2.366-.12-1.093-.897-2.956-2.258-2.715-1.01.18-1.061 1.222-.81 2.028.323 1.022 1.117 1.548 1.936 2.157.393.262.765.554 1.113.874a22.695 22.695 0 0 1 .887 1.544 31.712 31.712 0 0 0-1.48-1.55c-.797-.762-2.581-1.693-3.481-.626-.646.786-.03 1.612.68 2.073.904.58 1.852.467 2.868.412a6.988 6.988 0 0 1 1.561-.022c.016.029.033.058.045.087a.226.226 0 0 1-.06.093l.077-.064c.414.817.773 1.662 1.074 2.527l.068.213a35.956 35.956 0 0 0-2.11-1.373c-.952-.555-2.903-1.042-3.532.203-.455.919.348 1.58 1.148 1.857 1.01.354 1.91.022 2.884-.268.235-.07 1.242-.441 1.613-.374v.023a.252.252 0 0 1-.084.074l.093-.045c.126.442.236.967.362 1.55.126.584.251 1.17.416 1.816a33.017 33.017 0 0 0-1.884-1.425c-.906-.626-2.829-1.251-3.548-.058-.523.883.232 1.612 1.01 1.934.967.425 1.9.164 2.903-.058a6.94 6.94 0 0 1 1.548-.27c.22.853.5 1.69.839 2.504-.368-.164-1.517-.674-2.333-.967-1.035-.37-3.054-.487-3.432.851-.277.986.645 1.486 1.471 1.612 1.058.158 1.88-.322 2.784-.796.22-.113 1.139-.665 1.526-.671.395.944.898 1.839 1.5 2.666a.09.09 0 0 1-.039 0h.042l.042.058c-.307-.07-1.613-.374-2.532-.506-1.087-.164-3.09.113-3.2 1.5-.084 1.021.91 1.334 1.754 1.289 1.071-.049 1.781-.69 2.581-1.322.2-.158 1.058-.935 1.41-.967a12.558 12.558 0 0 0 3 2.869l.077-.113a12.274 12.274 0 0 1-2.977-2.856c.448-.09 1.613-.323 2.393-.548 1.062-.3 2.775-1.37 2.31-2.68-.323-.947-1.348-.828-2.113-.447z"/></g><g><path fill="#fff" d="M8.631 59.256c-.839-.664-1.797-.645-2.813-.693a6.681 6.681 0 0 1-1.587-.145 13.13 13.13 0 0 1 1.761-2.447c.233.323.984 1.338 1.552 2.002.713.835 2.406 1.934 3.4.967.732-.715.19-1.612-.474-2.13-.839-.665-1.794-.645-2.81-.694-.242 0-1.29 0-1.642-.17a17.81 17.81 0 0 1 1.865-1.767.196.196 0 0 1 0 .045v-.049a43.536 43.536 0 0 0 2.11 1.612c.909.623 2.832 1.242 3.548.046.52-.887-.236-1.612-1.016-1.935-.968-.422-1.9-.155-2.904.068-.264.058-1.487.419-1.735.222.568-.47 1.116-.883 1.613-1.254.497-.37.926-.696 1.29-1.002.38.303 1.268.999 1.936 1.447.91.62 2.832 1.241 3.548.045.52-.886-.239-1.612-1.016-1.934-.968-.422-1.903-.155-2.903.068-.473.135-.956.23-1.446.28l.123-.113a20.544 20.544 0 0 0 1.874-2.08c.445.2 1.474.646 2.226.933 1.032.377 3.052.503 3.436-.829.287-.986-.623-1.493-1.459-1.612-1.058-.167-1.883.323-2.79.777a8.605 8.605 0 0 1-1.32.626c.562-.716.969-1.313 1.143-1.583.451-.23 1.42-.726 2.084-1.126.945-.57 2.31-2.056 1.513-3.194-.588-.842-1.552-.452-2.181.116-.794.715-.936 1.663-1.145 2.656-.072.467-.18.927-.323 1.377-.035.058-.103.158-.19.29-.18.274-.468.683-.836 1.16.22-.515.568-1.357.787-1.995.355-1.041.446-3.06-.896-3.417-.99-.268-1.481.644-1.613 1.489-.145 1.06.355 1.873.832 2.773.278.442.505.915.677 1.408l-.06.078a.261.261 0 0 1-.11-.016l.09.042a20.672 20.672 0 0 1-1.842 2.034l-.168.151c.071-.4.28-1.63.361-2.488.104-1.097-.28-3.08-1.667-3.118-1.026-.029-1.29.967-1.207 1.822.107 1.063.78 1.74 1.455 2.501.165.184.926.942 1.026 1.312l-.02.016a.255.255 0 0 1-.103-.041l.078.064c-.345.3-.775.619-1.255.967-.48.348-.968.72-1.471 1.141.122-.496.374-1.547.503-2.308.184-1.086-.055-3.092-1.435-3.224-1.023-.103-1.355.884-1.336 1.728.026 1.07.645 1.793 1.268 2.602.347.395.65.827.9 1.29a18.753 18.753 0 0 0-1.936 1.811c0-.403-.025-1.657-.106-2.518-.1-1.096-.842-2.975-2.213-2.756-1.013.161-1.084 1.2-.848 2.012.3 1.028 1.09 1.567 1.893 2.192.194.151 1.08.754 1.245 1.1a13.363 13.363 0 0 0-1.787 2.482l-.029-.03.026.036-.035.061c-.065-.322-.346-1.63-.604-2.508-.322-1.057-1.403-2.753-2.706-2.276-.968.358-.832 1.39-.442 2.14.494.949 1.37 1.326 2.28 1.784.23.112 1.29.564 1.465.877a12.513 12.513 0 0 0-1.348 3.926l.135.023a12.32 12.32 0 0 1 1.349-3.924c.27.371.967 1.316 1.503 1.935.716.838 2.406 1.934 3.4.967.739-.71.193-1.6-.468-2.125z"/></g><g><path fill="#fff" d="M18.942 83.152c-1.11-.323-2.055.093-3.084.467-.232.084-1.183.496-1.638.506a14.11 14.11 0 0 1 .745-3.16c.358.22 1.529.93 2.364 1.355 1.058.538 3.197.941 3.787-.435.433-1.016-.474-1.677-1.351-1.935-1.107-.322-2.052.094-3.084.468-.245.087-1.29.541-1.703.506.315-.869.692-1.713 1.129-2.528a.135.135 0 0 1 0 .049v-.052c.045 0 1.677.497 2.761.722 1.161.242 3.33.068 3.548-1.412.152-1.096-.896-1.496-1.81-1.505-1.15-.016-1.957.625-2.85 1.257-.24.168-1.31 1.032-1.64.938.371-.7.746-1.338 1.088-1.912.341-.573.645-1.073.86-1.524.507.145 1.675.473 2.514.644 1.161.242 3.332.068 3.548-1.415.152-1.093-.897-1.493-1.81-1.506-1.151-.016-1.958.63-2.851 1.258-.414.33-.857.624-1.323.877l.074-.165a22.39 22.39 0 0 0 1.013-2.84c.523.02 1.739.052 2.581 0 1.184-.052 3.245-.751 3.08-2.237-.122-1.1-1.235-1.229-2.122-1.016-1.123.268-1.742 1.09-2.458 1.934-.318.418-.67.807-1.055 1.164.265-.944.42-1.702.484-2.047a38.738 38.738 0 0 0 1.613-1.976c.703-.967 1.448-2.998.187-3.804-.932-.593-1.732.19-2.123 1.015-.493 1.042-.245 2.038-.045 3.115.12.494.203.998.245 1.505 0 .074-.038.2-.07.368a26.21 26.21 0 0 1-.355 1.499c0-.603 0-1.583-.042-2.309-.074-1.183-.816-3.223-2.3-3.036-1.097.145-1.204 1.26-.968 2.143.29 1.116 1.126 1.719 1.97 2.415.46.328.88.705 1.256 1.125l-.03.1a.323.323 0 0 1-.115.032h.106a21.686 21.686 0 0 1-.997 2.783 4.45 4.45 0 0 1-.103.222c-.093-.429-.393-1.74-.664-2.627-.349-1.135-1.549-2.95-2.946-2.418-1.032.393-.877 1.505-.448 2.308.542 1.019 1.494 1.412 2.477 1.892.24.116 1.31.558 1.562.887v.022a.297.297 0 0 1-.12 0l.104.033c-.22.438-.513.935-.846 1.492a66.88 66.88 0 0 0-.996 1.741c-.081-.541-.262-1.696-.449-2.505-.264-1.157-1.326-3.053-2.758-2.624-1.061.322-.987 1.438-.616 2.257.465 1.054 1.387 1.515 2.332 2.066.508.251.987.558 1.426.916-.45.831-.84 1.693-1.168 2.579-.17-.397-.706-1.638-1.142-2.46-.548-1.05-2.06-2.614-3.338-1.831-.942.577-.584 1.638 0 2.35.72.9 1.729 1.112 2.784 1.403.254.07 1.387.303 1.696.58a14.322 14.322 0 0 0-.758 3.208l-.038-.017.038.023v.077c-.193-.28-1.016-1.483-1.635-2.256-.745-.922-2.532-2.164-3.632-1.148-.813.748-.255 1.722.442 2.312.883.741 1.912.754 3.006.834.274.02 1.52.03 1.816.268a13.416 13.416 0 0 0 .28 4.465l.143-.032a13.33 13.33 0 0 1-.271-4.44c.422.259 1.506.91 2.296 1.313 1.059.538 3.197.941 3.784-.435.397-.974-.51-1.635-1.387-1.886z"/></g><g><path fill="#fff" d="M31.29 89.116c-.731-.21-1.36.061-2.044.322a4.78 4.78 0 0 1-1.087.323 9.625 9.625 0 0 1 .493-2.096c.239.145 1.016.616 1.571.9.7.357 2.12.622 2.51-.29.29-.674-.323-1.113-.894-1.29-.735-.213-1.361.061-2.045.322-.36.16-.742.269-1.132.323.21-.576.46-1.136.748-1.677a.061.061 0 0 1 0 .032v-.035c.03 0 1.113.322 1.83.48.77.162 2.209.046 2.348-.938.1-.725-.594-.99-1.2-1-.765 0-1.29.417-1.894.836-.158.113-.864.683-1.084.622.245-.464.494-.887.72-1.267.225-.38.422-.712.57-1.012.323.096 1.11.322 1.668.432.771.16 2.21.045 2.345-.938.104-.726-.593-.99-1.196-1-.765 0-1.29.42-1.894.835-.274.22-.568.414-.877.58l.051-.11c.267-.61.491-1.24.671-1.882.345 0 1.152.036 1.723 0 .784-.035 2.151-.5 2.042-1.486-.08-.729-.82-.812-1.407-.674-.745.18-1.158.726-1.629 1.29-.21.276-.445.534-.7.77.174-.625.278-1.128.323-1.357.235-.274.739-.867 1.068-1.312.467-.645.967-1.986.125-2.521-.616-.394-1.148.126-1.406.674-.323.69-.165 1.35-.032 2.066.08.327.136.66.164.996l-.048.245c-.049.23-.123.577-.236.993 0-.4 0-1.05-.025-1.531-.049-.787-.542-2.14-1.526-2.012-.73.094-.8.835-.645 1.419.193.741.748 1.14 1.31 1.612.301.218.58.467.828.744l-.02.068a.145.145 0 0 1-.077.02h.071c-.172.63-.388 1.246-.645 1.847l-.067.145c-.065-.28-.262-1.154-.442-1.741-.233-.751-1.026-1.957-1.955-1.612-.684.261-.58.996-.297 1.531.358.674.99.935 1.645 1.254.158.078.868.368 1.032.587v.016a.168.168 0 0 1-.08 0l.07.02c-.148.293-.341.622-.56.992-.22.371-.436.735-.662 1.155a26.6 26.6 0 0 0-.297-1.664c-.177-.764-.88-2.024-1.832-1.738-.703.21-.645.968-.406 1.506.322.7.919 1.006 1.548 1.37.337.166.654.37.945.606-.3.554-.558 1.13-.774 1.722a27.47 27.47 0 0 0-.758-1.635c-.365-.696-1.368-1.734-2.216-1.215-.626.383-.387 1.09 0 1.56.48.597 1.148.738 1.848.932.168.045.92.2 1.126.384a9.512 9.512 0 0 0-.503 2.127h-.026l.026.016a.322.322 0 0 0 0 .052c-.13-.187-.674-.983-1.084-1.493-.494-.609-1.68-1.434-2.41-.76-.538.496-.17 1.14.294 1.53.584.494 1.268.504 1.993.555.181 0 1.007.023 1.204.18a8.99 8.99 0 0 0 .187 2.96l.093-.022a8.876 8.876 0 0 1-.18-2.944c.28.171 1 .603 1.525.87.7.359 2.12.626 2.51-.286.248-.68-.352-1.103-.932-1.283z"/></g><g><path fill="#fff" d="M28.968 88.733c-.69.322-.968.967-1.32 1.592-.155.345-.352.67-.587.968a9.496 9.496 0 0 1-1.029-1.893c.274-.051 1.168-.216 1.771-.374.758-.203 1.994-.948 1.678-1.889-.236-.693-.968-.619-1.52-.358-.69.323-.968.967-1.32 1.593a4.048 4.048 0 0 1-.619 1.006 13.11 13.11 0 0 1-.558-1.748l.03.016-.03-.022c.03 0 1.049-.497 1.687-.864.64-.368 1.678-1.438 1.123-2.257-.41-.61-1.103-.345-1.561.055-.574.5-.69 1.173-.852 1.883-.045.187-.193 1.086-.397 1.186-.125-.51-.222-.993-.322-1.425-.1-.432-.161-.816-.249-1.138a24.824 24.824 0 0 0 1.533-.787c.68-.393 1.677-1.437 1.122-2.256-.41-.61-1.103-.342-1.561.055-.574.502-.687 1.173-.852 1.882-.06.346-.15.685-.267 1.016 0-.039-.023-.078-.036-.113a14.592 14.592 0 0 0-.755-1.85c.265-.223.88-.745 1.29-1.142.562-.548 1.272-1.805.533-2.47-.549-.49-1.155-.06-1.5.436-.436.629-.38 1.309-.365 2.037.03.347.03.695 0 1.042a17.338 17.338 0 0 0-.664-1.225c0-.361-.03-1.138-.08-1.69-.075-.783-.607-2.124-1.588-1.966-.726.12-.774.86-.603 1.44.216.733.784 1.116 1.358 1.561.278.195.541.41.787.645l.126.216c.116.203.293.513.487.896-.265-.3-.7-.783-1.042-1.122-.561-.551-1.832-1.234-2.48-.483-.478.554-.04 1.154.464 1.49.645.421 1.32.35 2.045.322a4.95 4.95 0 0 1 1.116 0c.01.02.02.041.032.06a.225.225 0 0 1-.045.068l.055-.045c.287.588.534 1.194.739 1.815.016.052.032.104.045.155a30.227 30.227 0 0 0-1.49-1.006c-.675-.406-2.071-.773-2.526.107-.323.644.232 1.134.8 1.34.72.265 1.364.04 2.064-.16.168-.046.89-.303 1.162-.249v.023a.21.21 0 0 1-.058.052l.064-.03c.087.323.161.69.245 1.11.084.419.165.838.278 1.29a25.79 25.79 0 0 0-1.333-1.042c-.645-.455-2.006-.922-2.525-.078-.381.626.148 1.148.7 1.396.696.323 1.358.136 2.07 0 .361-.1.733-.16 1.107-.177.148.611.339 1.211.571 1.796-.261-.12-1.074-.497-1.655-.713-.735-.274-2.174-.38-2.461.57-.21.704.439 1.071 1.035 1.171.755.126 1.345-.216 1.997-.538.158-.078.82-.461 1.097-.461a9.422 9.422 0 0 0 1.042 1.918h-.026.029l.03.042a27.781 27.781 0 0 0-1.804-.39c-.774-.13-2.21.048-2.303 1.035-.071.731.645.967 1.242.947.764-.022 1.29-.47 1.854-.912.146-.113.765-.645 1.017-.67a9.01 9.01 0 0 0 2.112 2.082l.058-.08a8.852 8.852 0 0 1-2.1-2.073c.323-.062 1.149-.216 1.717-.368.76-.2 1.996-.948 1.68-1.886-.226-.703-.967-.629-1.51-.364z"/></g></g><g><g><path fill="#adc7f7" d="M60.356 109.882c22.078 0 39.976-3.11 39.976-6.946S82.434 95.99 60.356 95.99 20.38 99.1 20.38 102.936s17.898 6.946 39.976 6.946z"/></g><g opacity=".5"><path fill="#fff" d="M60.356 109.882c22.078 0 39.976-3.11 39.976-6.946S82.434 95.99 60.356 95.99 20.38 99.1 20.38 102.936s17.898 6.946 39.976 6.946z"/></g></g><g><g><path fill="#fff" d="M63.63 48.11s-3.14 11.502-3.488 16.38c-.349 4.877 0 10.338.464 11.598.464 1.26 4.191 19.634 4.191 19.634s-1.857 2.438-2.557 3.482-3.02 2.79-3.137 3.486c-.116.696 2.79.348 4.301-.116 1.512-.464 3.021-1.975 3.72-2.323.7-.348 2.21-.464 2.21-1.743 0-1.279-.933-3.718-.933-5.345 0-1.627-.238-12.513-.238-14.617 0-2.104-1.744-4.994-1.744-4.994l3.604-12.313s.58 13.824 1.29 16.031c.709 2.207 2.792 16.264 2.792 18.703s-.232 3.135-.232 3.135-2.676 3.602-3.721 4.877c-1.045 1.276-2.208 1.743-1.29 2.558.92.816 6.394.232 7.674-3.254 1.28-3.486 1.744-8.247 2.208-11.034.464-2.787 1.396-6.62.929-10.107-.468-3.486-2.209-5.574-1.858-7.088.352-1.514 3.137-19.282 3.137-22.072 0-2.79-.696-4.063-.696-4.063S71.767 51.6 63.63 48.11z"/><path fill="none" stroke="#263238" stroke-linecap="round" stroke-linejoin="round" stroke-miterlimit="20" stroke-width=".5" d="M63.63 48.11s-3.14 11.502-3.488 16.38c-.349 4.877 0 10.338.464 11.598.464 1.26 4.191 19.634 4.191 19.634v0s-1.857 2.438-2.557 3.482-3.02 2.79-3.137 3.486c-.116.696 2.79.348 4.301-.116 1.512-.464 3.021-1.975 3.72-2.323.7-.348 2.21-.464 2.21-1.743 0-1.279-.933-3.718-.933-5.345 0-1.627-.238-12.513-.238-14.617 0-2.104-1.744-4.994-1.744-4.994v0l3.604-12.313v0s.58 13.824 1.29 16.031c.709 2.207 2.792 16.264 2.792 18.703s-.232 3.135-.232 3.135v0s-2.676 3.602-3.721 4.877c-1.045 1.276-2.208 1.743-1.29 2.558.92.816 6.394.232 7.674-3.254 1.28-3.486 1.744-8.247 2.208-11.034.464-2.787 1.396-6.62.929-10.107-.468-3.486-2.209-5.574-1.858-7.088.352-1.514 3.137-19.282 3.137-22.072 0-2.79-.696-4.063-.696-4.063v0S71.767 51.6 63.63 48.11z"/></g><g><path fill="#263238" d="M80.95 52.998c0-2.787-.697-4.063-.697-4.063s-8.486 2.671-16.623-.815c0 0-3.14 11.502-3.489 16.38-.348 4.877 0 10.338.465 11.598.354.966 2.579 11.724 3.627 16.892a5.584 5.584 0 0 0 4.162.142c0-1.756-.232-12.52-.232-14.595 0-2.075-1.744-4.994-1.744-4.994l3.604-12.314s.58 13.825 1.29 16.032c.709 2.207 2.792 16.264 2.792 18.702v.439a6.255 6.255 0 0 0 3.994.232c.261-1.653.461-3.2.645-4.388.464-2.787 1.396-6.621.928-10.107-.467-3.486-2.208-5.574-1.857-7.088.352-1.514 3.134-19.263 3.134-22.053z"/><path fill="none" stroke="#263238" stroke-linecap="round" stroke-linejoin="round" stroke-miterlimit="20" stroke-width=".5" d="M80.95 52.998c0-2.787-.697-4.063-.697-4.063v0s-8.486 2.671-16.623-.815c0 0-3.14 11.502-3.489 16.38-.348 4.877 0 10.338.465 11.598.354.966 2.579 11.724 3.627 16.892a5.584 5.584 0 0 0 4.162.142c0-1.756-.232-12.52-.232-14.595 0-2.075-1.744-4.994-1.744-4.994v0l3.604-12.314v0s.58 13.825 1.29 16.032c.709 2.207 2.792 16.264 2.792 18.702v.439a6.255 6.255 0 0 0 3.994.232c.261-1.653.461-3.2.645-4.388.464-2.787 1.396-6.621.928-10.107-.467-3.486-2.208-5.574-1.857-7.088.352-1.514 3.134-19.263 3.134-22.053z"/></g><g><path fill="#adc7f7" d="M63.86 45.33s-.58 2.787-.58 3.367c0 .58 2.673 3.022 7.786 3.486 5.113.464 8.486-.464 9.417-.928.932-.464.116-5.23.116-5.23s-7.905 2.44-10.926 1.512a54.348 54.348 0 0 1-5.813-2.207z"/><path fill="none" stroke="#263238" stroke-linecap="round" stroke-linejoin="round" stroke-miterlimit="20" stroke-width=".5" d="M63.86 45.33v0s-.58 2.787-.58 3.367c0 .58 2.673 3.022 7.786 3.486 5.113.464 8.486-.464 9.417-.928.932-.464.116-5.23.116-5.23v0s-7.905 2.44-10.926 1.512a54.348 54.348 0 0 1-5.813-2.207z"/></g><g><path fill="#adc7f7" d="M30.038 41.39s-2.067 3.176-2.299 4.787c-.232 1.61 1.715 3.463 2.879 2.535 1.164-.928 1.86-6.163 1.86-6.859 0-.696-.232-2.094-2.44-.464z"/><path fill="none" stroke="#263238" stroke-linecap="round" stroke-linejoin="round" stroke-miterlimit="20" stroke-width=".5" d="M30.038 41.39s-2.067 3.176-2.299 4.787c-.232 1.61 1.715 3.463 2.879 2.535 1.164-.928 1.86-6.163 1.86-6.859 0-.696-.232-2.094-2.44-.464z"/></g><g><path fill="#adc7f7" d="M33.644 35.23s-2.092.235-2.444 1.163c-.351.928-1.86 4.765-1.976 5.696-.116.931 2.328 1.163 2.328 1.163z"/><path fill="none" stroke="#263238" stroke-linecap="round" stroke-linejoin="round" stroke-miterlimit="20" stroke-width=".5" d="M33.644 35.23v0s-2.092.235-2.444 1.163c-.351.928-1.86 4.765-1.976 5.696-.116.931 2.328 1.163 2.328 1.163v0z"/></g><g><path fill="#adc7f7" d="M41.318 26.169s-5.932 3.953-7.212 6.743c-1.28 2.79-3.953 12.671-4.42 14.646-.468 1.975 1.628 3.486 4.19 4.301 2.564.815 4.77 1.163 7.677-1.289 2.908-2.451 2.792-8.376 2.792-11.276 0-2.9-.58-11.972-.812-12.787-.232-.815-2.215-.338-2.215-.338z"/><path fill="none" stroke="#263238" stroke-linecap="round" stroke-linejoin="round" stroke-miterlimit="20" stroke-width=".5" d="M41.318 26.169v0s-5.932 3.953-7.212 6.743c-1.28 2.79-3.953 12.671-4.42 14.646-.468 1.975 1.628 3.486 4.19 4.301 2.564.815 4.77 1.163 7.677-1.289 2.908-2.451 2.792-8.376 2.792-11.276 0-2.9-.58-11.972-.812-12.787-.232-.815-2.215-.338-2.215-.338z"/></g><g><path fill="#fff" d="M39.379 46.96s-1.238 6.311-.99 11.383a69.71 69.71 0 0 1-.371 11.137c-.248 2.597-1.238 6.186-1.238 10.268 0 4.082 2.105 13.735 2.105 14.972s-1.115 6.186-1.115 8.054c0 1.869.741 5.071 3.224 3.96 2.482-1.112 1.238-6.444 1.238-9.898 0-3.453.741-9.282 1.36-13.612.62-4.33.99-11.875 1.238-12.867.249-.993 1.98-8.412 2.106-9.898.125-1.485 1.857-6.06 1.857-6.06v11.753c0 4.578.619 7.546.619 10.887 0 3.34-.249 6.311 0 9.278.248 2.968-.249 9.898-.249 12.001 0 2.104-.248 2.104 1.487 3.222 1.734 1.118 1.486 2.104 2.598 2.967 1.112.864 3.224 1.486 3.47-.244.244-1.73-2.354-6.312-2.973-7.549-.62-1.237 1.238-10.632 1.857-13.854.619-3.221.99-10.764.619-13.486-.371-2.722 3.466-13.486 3.343-17.32-.003-.02-12.26.103-20.185-5.094z"/><path fill="none" stroke="#263238" stroke-linecap="round" stroke-linejoin="round" stroke-miterlimit="20" stroke-width=".5" d="M39.379 46.96s-1.238 6.311-.99 11.383a69.71 69.71 0 0 1-.371 11.137c-.248 2.597-1.238 6.186-1.238 10.268 0 4.082 2.105 13.735 2.105 14.972s-1.115 6.186-1.115 8.054c0 1.869.741 5.071 3.224 3.96 2.482-1.112 1.238-6.444 1.238-9.898 0-3.453.741-9.282 1.36-13.612.62-4.33.99-11.875 1.238-12.867.249-.993 1.98-8.412 2.106-9.898.125-1.485 1.857-6.06 1.857-6.06v11.753c0 4.578.619 7.546.619 10.887 0 3.34-.249 6.311 0 9.278.248 2.968-.249 9.898-.249 12.001 0 2.104-.248 2.104 1.487 3.222 1.734 1.118 1.486 2.104 2.598 2.967 1.112.864 3.224 1.486 3.47-.244.244-1.73-2.354-6.312-2.973-7.549-.62-1.237 1.238-10.632 1.857-13.854.619-3.221.99-10.764.619-13.486-.371-2.722 3.466-13.486 3.343-17.32-.003-.02-12.26.103-20.185-5.094z"/></g><g><path fill="#263238" d="M59.56 52.034s-12.25.123-20.181-5.074c0 0-1.238 6.311-.99 11.383a69.71 69.71 0 0 1-.371 11.137c-.248 2.597-1.238 6.186-1.238 10.268 0 2.677.903 7.732 1.528 11.276.697.574 1.973 1.031 4.256.393.274-2.738.67-5.712 1.025-8.2.62-4.33.99-11.875 1.238-12.867.248-.992 1.98-8.412 2.105-9.897.126-1.485 1.857-6.06 1.857-6.06v11.76c0 4.577.62 7.545.62 10.886 0 3.34-.249 6.311 0 9.278.067.825.08 1.95.06 3.193a8.081 8.081 0 0 0 4.827.532c.451-2.771 1.022-5.68 1.315-7.201.62-3.222.99-10.764.62-13.486-.371-2.723 3.452-13.487 3.33-17.32z"/><path fill="none" stroke="#263238" stroke-linecap="round" stroke-linejoin="round" stroke-miterlimit="20" stroke-width=".5" d="M59.56 52.034s-12.25.123-20.181-5.074c0 0-1.238 6.311-.99 11.383a69.71 69.71 0 0 1-.371 11.137c-.248 2.597-1.238 6.186-1.238 10.268 0 2.677.903 7.732 1.528 11.276.697.574 1.973 1.031 4.256.393.274-2.738.67-5.712 1.025-8.2.62-4.33.99-11.875 1.238-12.867.248-.992 1.98-8.412 2.105-9.897.126-1.485 1.857-6.06 1.857-6.06v11.76c0 4.577.62 7.545.62 10.886 0 3.34-.249 6.311 0 9.278.067.825.08 1.95.06 3.193a8.081 8.081 0 0 0 4.827.532c.451-2.771 1.022-5.68 1.315-7.201.62-3.222.99-10.764.62-13.486-.371-2.723 3.452-13.487 3.33-17.32z"/></g><g><path fill="#fff" d="M53.578 19.494s-5.651-.112-7.615.809c-1.963.921-3.459 17.291-3.459 17.291l-3.224 9.914s6.922 4.832 10.73 5.19c3.807.358 9.672.113 9.672.113l.46-11.067s4.156-12.565 5.078-15.787c.922-3.222-1.499-4.381-3.923-5.303-2.425-.921-7.719-1.16-7.719-1.16z"/><path fill="none" stroke="#263238" stroke-linecap="round" stroke-linejoin="round" stroke-miterlimit="20" stroke-width=".5" d="M53.578 19.494v0s-5.651-.112-7.615.809c-1.963.921-3.459 17.291-3.459 17.291v0l-3.224 9.914v0s6.922 4.832 10.73 5.19c3.807.358 9.672.113 9.672.113v0l.46-11.067v0s4.156-12.565 5.078-15.787c.922-3.222-1.499-4.381-3.923-5.303-2.425-.921-7.719-1.16-7.719-1.16z"/></g><g><path fill="#adc7f7" d="M47.987 31.22L44.27 46.092l12.196 3.975 3.808-15.216-12.287-3.631z"/><path fill="none" stroke="#263238" stroke-linecap="round" stroke-linejoin="round" stroke-miterlimit="20" stroke-width=".5" d="M47.987 31.22v0L44.27 46.092v0l12.196 3.975v0l3.808-15.216v0L47.987 31.22v0z"/></g><g><path fill="#263238" d="M48.298 19.771L40.97 42.668l9.308-23.248-1.98.351z"/><path fill="none" stroke="#263238" stroke-linecap="round" stroke-linejoin="round" stroke-miterlimit="20" stroke-width=".5" d="M48.298 19.771v0L40.97 42.668v0l9.308-23.248v0l-1.98.351v0z"/></g><g><path fill="#fff" d="M46.778 19.15s-3.346.345-4.152 1.61c-.806 1.267-5.539 12.798-5.655 14.296-.116 1.498 10.42 11.975 10.42 11.975l2.257-1.253s-3.344-5.535-4.037-7.61a15.394 15.394 0 0 0-2.221-4.004l3.26-8.909"/><path fill="none" stroke="#263238" stroke-linecap="round" stroke-linejoin="round" stroke-miterlimit="20" stroke-width=".5" d="M46.778 19.15v0s-3.346.345-4.152 1.61c-.806 1.267-5.539 12.798-5.655 14.296-.116 1.498 10.42 11.975 10.42 11.975v0l2.257-1.253v0s-3.344-5.535-4.037-7.61a15.394 15.394 0 0 0-2.221-4.004l3.26-8.909v0"/></g><g><path fill="#fff" d="M49.656 45.776s2.193-.461 2.654-.232c.46.228 3.001 2.422 3.001 2.422s.23.461-.577.461c-.806 0-2.54-.924-2.54-.924l1.731 3.688c.134.294.134.631 0 .925-.229.46-1.154.229-1.612.229-.458 0-1.612.232-2.537-.229-.926-.46-2.386-5.087-2.386-5.087z"/><path fill="none" stroke="#263238" stroke-linecap="round" stroke-linejoin="round" stroke-miterlimit="20" stroke-width=".5" d="M49.656 45.776v0s2.193-.461 2.654-.232c.46.228 3.001 2.422 3.001 2.422v0s.23.461-.577.461c-.806 0-2.54-.924-2.54-.924v0l1.731 3.688c.134.294.134.631 0 .925-.229.46-1.154.229-1.612.229-.458 0-1.612.232-2.537-.229-.926-.46-2.386-5.087-2.386-5.087v0z"/></g><g><path fill="#fff" d="M65.495 24.65c.113.693-1.499 11.756-1.499 13.918 0 2.162-.606 5.967-2.257 7.784-1.65 1.817-6.467 4.15-6.467 4.15l-.532-2.069s5.803-9.597 5.884-9.858c.08-.261 1.815-10.632 1.815-10.632"/><path fill="none" stroke="#263238" stroke-linecap="round" stroke-linejoin="round" stroke-miterlimit="20" stroke-width=".5" d="M65.495 24.65c.113.693-1.499 11.756-1.499 13.918 0 2.162-.606 5.967-2.257 7.784-1.65 1.817-6.467 4.15-6.467 4.15v0l-.532-2.069v0s5.803-9.597 5.884-9.858c.08-.261 1.815-10.632 1.815-10.632v0"/></g><g><path fill="#fff" d="M51.967 48.257c-.673.308-1.366.569-2.076.78-.519.083-1.557 1.382-2.424 1.814-.868.431-.69 1.124-.258 1.21.432.088 1.557-.347 1.557-.347s-1.125 1.385-1.038 1.73c.087.345.864.519 1.212.432.348-.087 1.557.26 2.766.174 1.21-.087 3.547-3.544 3.547-3.544l-.432-2.336z"/><path fill="none" stroke="#263238" stroke-linecap="round" stroke-linejoin="round" stroke-miterlimit="20" stroke-width=".5" d="M51.967 48.257c-.673.308-1.366.569-2.076.78-.519.083-1.557 1.382-2.424 1.814-.868.431-.69 1.124-.258 1.21.432.088 1.557-.347 1.557-.347v0s-1.125 1.385-1.038 1.73c.087.345.864.519 1.212.432.348-.087 1.557.26 2.766.174 1.21-.087 3.547-3.544 3.547-3.544v0l-.432-2.336v0z"/></g><g><path fill="#adc7f7" d="M69.33 21.283s-3.14-.348-4.768.235c-1.628.583-2.789 8.245-1.976 10.57.812 2.327 1.048 7.089.351 9.988-.696 2.9-.235 4.881 5.462 6.737 5.697 1.856 9.298.815 11.158-.58 1.86-1.395 2.795-19.862 2.795-21.953 0-2.091-6.509-4.414-8.705-4.762a22.906 22.906 0 0 0-4.316-.235z"/><path fill="none" stroke="#263238" stroke-linecap="round" stroke-linejoin="round" stroke-miterlimit="20" stroke-width=".5" d="M69.33 21.283s-3.14-.348-4.768.235c-1.628.583-2.789 8.245-1.976 10.57.812 2.327 1.048 7.089.351 9.988-.696 2.9-.235 4.881 5.462 6.737 5.697 1.856 9.298.815 11.158-.58 1.86-1.395 2.795-19.862 2.795-21.953 0-2.091-6.509-4.414-8.705-4.762a22.906 22.906 0 0 0-4.316-.235z"/></g><g><path fill="#263238" d="M73.64 21.52s-5.48 12.194-5.48 13.242V37.2l7.093 11.966.116-1.61-6.161-10.92v-2.09l5.697-12.887z"/><path fill="none" stroke="#263238" stroke-linecap="round" stroke-linejoin="round" stroke-miterlimit="20" stroke-width=".5" d="M73.64 21.52v0s-5.48 12.194-5.48 13.242V37.2l7.093 11.966v0l.116-1.61v0l-6.161-10.92v0-2.09 0l5.697-12.887v0z"/></g><g><path fill="#fff" d="M79.088 33.825s-3.605 10.338-3.953 13.128c-.348 2.79.7 4.878 3.14 6.154 2.44 1.276 4.417 2.326 8.138 1.047 3.72-1.279 5.229-6.853 4.417-11.276-.813-4.424-2.325-10.555-3.837-13.454-1.512-2.9-3.488-3.6-5.116-2.323-1.629 1.276-2.79 6.724-2.79 6.724z"/><path fill="none" stroke="#263238" stroke-linecap="round" stroke-linejoin="round" stroke-miterlimit="20" stroke-width=".5" d="M79.088 33.825v0s-3.605 10.338-3.953 13.128c-.348 2.79.7 4.878 3.14 6.154 2.44 1.276 4.417 2.326 8.138 1.047 3.72-1.279 5.229-6.853 4.417-11.276-.813-4.424-2.325-10.555-3.837-13.454-1.512-2.9-3.488-3.6-5.116-2.323-1.629 1.276-2.79 6.724-2.79 6.724z"/></g><g><path fill="none" stroke="#263238" stroke-linecap="round" stroke-linejoin="round" stroke-miterlimit="20" stroke-width=".5" d="M82.792 39.28v0s-3.486 9.55-3.992 11.692c-.506 2.142 2.924 3.847 5.081 3.692"/></g><g><path fill="none" stroke="#263238" stroke-linecap="round" stroke-linejoin="round" stroke-miterlimit="20" stroke-width=".5" d="M90.798 47.732a12.253 12.253 0 0 0-4.155-2.307c-2.464-.77-4.772-1.537-5.388-1.076-.615.46-.925 2.462-.925 2.462v0s3.85.615 5.852 1.385a18.198 18.198 0 0 1 3.694 1.997s.616-.473.922-2.46z"/></g><g><path fill="#adc7f7" d="M54.33 14.431s-7.67-.927-9.995.232c-2.324 1.16.348 3.022 2.673 3.834a13.06 13.06 0 0 0 5.58.696c1.277-.116 2.441-2.903 1.742-4.762z"/><path fill="none" stroke="#263238" stroke-linecap="round" stroke-linejoin="round" stroke-miterlimit="20" stroke-width=".5" d="M54.33 14.431s-7.67-.927-9.995.232c-2.324 1.16.348 3.022 2.673 3.834a13.06 13.06 0 0 0 5.58.696c1.277-.116 2.441-2.903 1.742-4.762z"/></g><g><path fill="#fff" d="M53.05 20.47s-.116 3.601 4.069 4.413c4.185.812 4.533-1.627 4.533-1.627l-.464-5.799-3.72-1.627z"/><path fill="none" stroke="#263238" stroke-linecap="round" stroke-linejoin="round" stroke-miterlimit="20" stroke-width=".5" d="M53.05 20.47v0s-.116 3.601 4.069 4.413c4.185.812 4.533-1.627 4.533-1.627v0l-.464-5.799v0l-3.72-1.627v0z"/></g><g><path fill="#263238" d="M64.321 5.585s-1.27-1.379-4.758-1.028c-3.489.351-5.465 6.621-6.161 8.596-.697 1.975-2.673 7.549-2.557 8.377.116.828 2.902.696 4.3-1.395a23.114 23.114 0 0 0 2.325-4.298c.697-1.511 3.373-5.477 3.373-5.477l.696 5.693a19.643 19.643 0 0 0-1.86 6.156c-.349 3.251.348 6.273-.697 8.132-1.044 1.86-1.29 3.019 1.16 2.671 2.451-.348 5.117-5.226 5.35-8.377.232-3.15.464-5.692.58-9.523.116-3.83.116-6.856-.464-7.9a6.36 6.36 0 0 0-1.287-1.627z"/><path fill="none" stroke="#263238" stroke-linecap="round" stroke-linejoin="round" stroke-miterlimit="20" stroke-width=".5" d="M64.321 5.585s-1.27-1.379-4.758-1.028c-3.489.351-5.465 6.621-6.161 8.596-.697 1.975-2.673 7.549-2.557 8.377.116.828 2.902.696 4.3-1.395a23.114 23.114 0 0 0 2.325-4.298c.697-1.511 3.373-5.477 3.373-5.477v0l.696 5.693a19.643 19.643 0 0 0-1.86 6.156c-.349 3.251.348 6.273-.697 8.132-1.044 1.86-1.29 3.019 1.16 2.671 2.451-.348 5.117-5.226 5.35-8.377.232-3.15.464-5.692.58-9.523.116-3.83.116-6.856-.464-7.9a6.36 6.36 0 0 0-1.287-1.627z"/></g><g><path fill="none" stroke="#fff" stroke-linecap="round" stroke-linejoin="round" stroke-miterlimit="20" stroke-width=".5" d="M62.328 29.86a3.65 3.65 0 0 1-1.248.357"/></g><g><path fill="none" stroke="#fff" stroke-linecap="round" stroke-linejoin="round" stroke-miterlimit="20" stroke-width=".5" d="M64.538 16.03v0s.442.512.232 2.996.116 7.378-.81 9.224a3.46 3.46 0 0 1-.76 1.015"/></g><g><path fill="none" stroke="#fff" stroke-linecap="round" stroke-linejoin="round" stroke-miterlimit="20" stroke-width=".5" d="M52.43 17.53s1.383-.229 2.653-1.73"/></g><g><path fill="none" stroke="#fff" stroke-linecap="round" stroke-linejoin="round" stroke-miterlimit="20" stroke-width=".5" d="M61.77 5.43s1.154 1.031.925 1.843"/></g><g><path fill="#263238" d="M69.45 4.439s-2.792-.235-3.953 1.61c-1.16 1.847-.116 4.766-.116 9.064s-.232 8.595-.815 10.335c-.584 1.74 1.396 1.163 2.324-.232.929-1.395 1.744-3.714 2.209-4.414.464-.699 3.14-1.743 3.14-1.743s-.232 4.298.464 5.8c.697 1.501 3.605 1.163 4.533.58.858-.6 1.673-1.26 2.44-1.972 0 0-1.289-.583-1.289-3.95s.58-9.295-1.048-12.662A5.554 5.554 0 0 0 69.45 4.44z"/><path fill="none" stroke="#263238" stroke-linecap="round" stroke-linejoin="round" stroke-miterlimit="20" stroke-width=".5" d="M69.45 4.439s-2.792-.235-3.953 1.61c-1.16 1.847-.116 4.766-.116 9.064s-.232 8.595-.815 10.335c-.584 1.74 1.396 1.163 2.324-.232.929-1.395 1.744-3.714 2.209-4.414.464-.699 3.14-1.743 3.14-1.743v0s-.232 4.298.464 5.8c.697 1.501 3.605 1.163 4.533.58.858-.6 1.673-1.26 2.44-1.972 0 0-1.289-.583-1.289-3.95s.58-9.295-1.048-12.662A5.554 5.554 0 0 0 69.45 4.44z"/></g><g><path fill="none" stroke="#fff" stroke-linecap="round" stroke-linejoin="round" stroke-miterlimit="20" stroke-width=".5" d="M73.16 13.39a7.85 7.85 0 0 1 2.453 4.262c.578 2.768-.345 5.764 1.155 6.225"/></g><g><path fill="none" stroke="#fff" stroke-linecap="round" stroke-linejoin="round" stroke-miterlimit="20" stroke-width=".5" d="M72.23 6.64a10.803 10.803 0 0 1 3.156 3.28c2.077 3.344 1.5 9.343 1.96 11.991.462 2.649 1.96 1.266 1.96 1.266v0"/></g><g><path fill="none" stroke="#fff" stroke-linecap="round" stroke-linejoin="round" stroke-miterlimit="20" stroke-width=".5" d="M70.31 5.66c.354.119.697.269 1.025.448"/></g><g><path fill="none" stroke="#fff" stroke-linecap="round" stroke-linejoin="round" stroke-miterlimit="20" stroke-width=".5" d="M69.384 5.08s-1.177 1.176-1.454 2.03"/></g><g><path fill="#fff" d="M67.82 18.262s.58 2.44.232 4.066c-.348 1.627 1.045 3.019 2.209 1.975 1.163-1.044 1.86-2.9 1.976-4.188.09-.862.244-1.716.464-2.555 0 0-4.3 1.166-4.881.702z"/><path fill="none" stroke="#263238" stroke-linecap="round" stroke-linejoin="round" stroke-miterlimit="20" stroke-width=".5" d="M67.82 18.262s.58 2.44.232 4.066c-.348 1.627 1.045 3.019 2.209 1.975 1.163-1.044 1.86-2.9 1.976-4.188.09-.862.244-1.716.464-2.555 0 0-4.3 1.166-4.881.702z"/></g><g><path fill="#adc7f7" d="M69.327 98.535a8.947 8.947 0 0 0-.297-1.827c-1.37.577-2.843 1.247-2.843 1.247a2.05 2.05 0 0 0-.929-1.163 2.778 2.778 0 0 0-1.073-.242c-.606.805-1.51 2.02-1.935 2.68-.696 1.048-3.02 2.79-3.137 3.486-.116.696 2.79.348 4.301-.115 1.512-.464 3.021-1.975 3.72-2.323.7-.348 2.193-.464 2.193-1.743z"/><path fill="none" stroke="#263238" stroke-linecap="round" stroke-linejoin="round" stroke-miterlimit="20" stroke-width=".5" d="M69.327 98.535a8.947 8.947 0 0 0-.297-1.827c-1.37.577-2.843 1.247-2.843 1.247a2.05 2.05 0 0 0-.929-1.163 2.778 2.778 0 0 0-1.073-.242c-.606.805-1.51 2.02-1.935 2.68-.696 1.048-3.02 2.79-3.137 3.486-.116.696 2.79.348 4.301-.115 1.512-.464 3.021-1.975 3.72-2.323.7-.348 2.193-.464 2.193-1.743z"/></g><g><path fill="#adc7f7" d="M76.55 103.289a25.76 25.76 0 0 0 .912-3.222l-1.612.892s0-.464-.932-1.395a2.138 2.138 0 0 0-1.022-.554.915.915 0 0 1-.023.09s-2.676 3.602-3.72 4.878c-1.045 1.276-2.209 1.743-1.29 2.558.919.815 6.397.238 7.686-3.247z"/><path fill="none" stroke="#263238" stroke-linecap="round" stroke-linejoin="round" stroke-miterlimit="20" stroke-width=".5" d="M76.55 103.289a25.76 25.76 0 0 0 .912-3.222l-1.612.892v0s0-.464-.932-1.395a2.138 2.138 0 0 0-1.022-.554.915.915 0 0 1-.023.09s-2.676 3.602-3.72 4.878c-1.045 1.276-2.209 1.743-1.29 2.558.919.815 6.397.238 7.686-3.247z"/></g><g><path fill="none" stroke="#fff" stroke-linecap="round" stroke-linejoin="round" stroke-miterlimit="20" stroke-width=".5" d="M70.028 61.24L68.4 57.41"/></g><g><path fill="#adc7f7" d="M48.867 15.94s4.3 5.109 4.3 6.156c0 1.047-3.704 1.852-4.88 1.743-1.178-.11-5.001-4.765-5.698-6.273-.696-1.508 1.045-2.439 2.209-2.674a13.55 13.55 0 0 1 2.324-.232"/><path fill="none" stroke="#263238" stroke-linecap="round" stroke-linejoin="round" stroke-miterlimit="20" stroke-width=".5" d="M48.867 15.94v0s4.3 5.109 4.3 6.156c0 1.047-3.704 1.852-4.88 1.743-1.178-.11-5.001-4.765-5.698-6.273-.696-1.508 1.045-2.439 2.209-2.674a13.55 13.55 0 0 1 2.324-.232"/></g><g><path fill="#fff" d="M55.376 25.82s.303.967.387 1.424c.084.458-.042 1.26.126 1.682.167.422-.126 1.343-.797.67-.67-.673-.548-1.595-.38-2.184.186-.545.408-1.077.664-1.592z"/><path fill="none" stroke="#263238" stroke-linecap="round" stroke-linejoin="round" stroke-miterlimit="20" stroke-width=".5" d="M55.376 25.82v0s.303.967.387 1.424c.084.458-.042 1.26.126 1.682.167.422-.126 1.343-.797.67-.67-.673-.548-1.595-.38-2.184.186-.545.408-1.077.664-1.592z"/></g><g><path fill="#fff" d="M52.124 21.52s-2.325 0-3.021.58c-.697.58-.116 1.744-.116 1.744.141.572.329 1.133.56 1.675.604 1.118 1.261 1.22 1.261 1.22s.039 1.982.735 1.982c.697 0 2.44.232 3.024 0 .584-.232.813-2.09.813-2.9 0-.808-2.557-4.536-3.256-4.3z"/><path fill="none" stroke="#263238" stroke-linecap="round" stroke-linejoin="round" stroke-miterlimit="20" stroke-width=".5" d="M52.124 21.52s-2.325 0-3.021.58c-.697.58-.116 1.744-.116 1.744.141.572.329 1.133.56 1.675.604 1.118 1.261 1.22 1.261 1.22v0s.039 1.982.735 1.982c.697 0 2.44.232 3.024 0 .584-.232.813-2.09.813-2.9 0-.808-2.557-4.536-3.256-4.3z"/></g><g><path fill="none" stroke="#263238" stroke-linecap="round" stroke-linejoin="round" stroke-miterlimit="20" stroke-width=".5" d="M52.359 25.93l-.235 2.67"/></g><g><path fill="none" stroke="#263238" stroke-linecap="round" stroke-linejoin="round" stroke-miterlimit="20" stroke-width=".5" d="M53.707 25.98l-.467 2.787"/></g><g><path fill="none" stroke="#263238" stroke-linecap="round" stroke-linejoin="round" stroke-miterlimit="20" stroke-width=".5" d="M54.727 26.15s-.322 1.724-.467 2.516"/></g><g><path fill="#263238" d="M53.248 104.495c-1.112-.863-.867-1.836-2.601-2.954-1.735-1.118-1.487-1.118-1.487-3.222 0-1.012.116-3.164.207-5.419a4.436 4.436 0 0 0 4.459.258c-.22 1.746-.297 3.122-.084 3.544.619 1.237 3.217 5.818 2.972 7.548-.245 1.73-2.353 1.112-3.469.245zm-12.254 2.23c-2.476 1.111-3.224-2.104-3.224-3.96 0-1.856 1.116-6.804 1.116-8.054a7.242 7.242 0 0 0-.081-.767c.703.528 2.028 1.211 3.51.45a39.888 39.888 0 0 0-.086 2.42c.003 3.493 1.241 8.796-1.235 9.91z"/><path fill="none" stroke="#263238" stroke-linecap="round" stroke-linejoin="round" stroke-miterlimit="20" stroke-width=".5" d="M53.248 104.495c-1.112-.863-.867-1.836-2.601-2.954-1.735-1.118-1.487-1.118-1.487-3.222 0-1.012.116-3.164.207-5.419a4.436 4.436 0 0 0 4.459.258c-.22 1.746-.297 3.122-.084 3.544.619 1.237 3.217 5.818 2.972 7.548-.245 1.73-2.353 1.112-3.469.245zm-12.254 2.23c-2.476 1.111-3.224-2.104-3.224-3.96 0-1.856 1.116-6.804 1.116-8.054a7.242 7.242 0 0 0-.081-.767c.703.528 2.028 1.211 3.51.45a39.888 39.888 0 0 0-.086 2.42c.003 3.493 1.241 8.796-1.235 9.91z"/></g><g><path fill="#fff" d="M50.65 101.529c1.735 1.111 1.486 2.103 2.599 2.967 1.112.863 3.224 1.485 3.469-.245v-.129c-1.703.725-2.473.045-3.373-.702-1.038-.867-1.383-2.162-2.766-2.768-1.383-.605-1.418-2.342-1.418-2.342.003 2.104-.245 2.104 1.49 3.219z"/><path fill="none" stroke="#263238" stroke-linecap="round" stroke-linejoin="round" stroke-miterlimit="20" stroke-width=".5" d="M50.65 101.529c1.735 1.111 1.486 2.103 2.599 2.967 1.112.863 3.224 1.485 3.469-.245v-.129c-1.703.725-2.473.045-3.373-.702-1.038-.867-1.383-2.162-2.766-2.768-1.383-.605-1.418-2.342-1.418-2.342.003 2.104-.245 2.104 1.49 3.219z"/></g><g><path fill="#fff" d="M42.538 102.98c-.348.983-.918 2.3-1.905 2.68-1.045.41-2.09-.509-2.663-1.156.355 1.566 1.238 3.019 3.027 2.216 1.164-.525 1.506-1.98 1.541-3.74z"/><path fill="none" stroke="#263238" stroke-linecap="round" stroke-linejoin="round" stroke-miterlimit="20" stroke-width=".5" d="M42.538 102.98c-.348.983-.918 2.3-1.905 2.68-1.045.41-2.09-.509-2.663-1.156.355 1.566 1.238 3.019 3.027 2.216 1.164-.525 1.506-1.98 1.541-3.74z"/></g><g><path fill="#fff" d="M67.932 7.11s-1.976 1.508-2.209 2.439c-.232.931 0 5.577.349 6.737a5.433 5.433 0 0 0 2.52 3.167c1.613.944 4.105-1.888 4.105-1.888l.464-4.189s-5.23-4.639-5.23-6.266z"/><path fill="none" stroke="#263238" stroke-linecap="round" stroke-linejoin="round" stroke-miterlimit="20" stroke-width=".5" d="M67.932 7.11s-1.976 1.508-2.209 2.439c-.232.931 0 5.577.349 6.737a5.433 5.433 0 0 0 2.52 3.167c1.613.944 4.105-1.888 4.105-1.888v0l.464-4.189v0s-5.23-4.639-5.23-6.266z"/></g><g><path fill="#263238" d="M67.585 12.29c0 .323-.142.564-.323.564-.18 0-.322-.25-.322-.563 0-.313.142-.561.322-.561.18 0 .323.251.323.56z"/></g><g><path fill="#263238" d="M70.535 12.29c0 .323-.139.564-.323.564-.183 0-.322-.25-.322-.563 0-.313.142-.561.322-.561.18 0 .323.251.323.56z"/></g><g><path fill="none" stroke="#263238" stroke-linecap="round" stroke-linejoin="round" stroke-miterlimit="20" stroke-width=".5" d="M68.217 12.5a11.975 11.975 0 0 0-.77 1.61c-.071.352.422.703 1.054.645"/></g><g><path fill="none" stroke="#263238" stroke-linecap="round" stroke-linejoin="round" stroke-miterlimit="20" stroke-width=".5" d="M66.55 10.885c.358-.35.91-.409 1.335-.141"/></g><g><path fill="none" stroke="#263238" stroke-linecap="round" stroke-linejoin="round" stroke-miterlimit="20" stroke-width=".5" d="M69 10.815s1.125-.644 1.896.351"/></g><g><path fill="none" stroke="#263238" stroke-linecap="round" stroke-linejoin="round" stroke-miterlimit="20" stroke-width=".5" d="M68.35 16.031s1.335.629 2.58-1.021"/></g><g><path fill="#fff" d="M62.463 8.087s-1.402-.644-2.679.764-1.29 3.437-2.421 4.832c-1.132 1.395-1.783 1.785-1.783 1.785s.255 3.183 2.292 4.585c2.038 1.401 4.333-1.147 6.245-4.585 0 .007-2.037-5.345-1.654-7.38z"/><path fill="none" stroke="#263238" stroke-linecap="round" stroke-linejoin="round" stroke-miterlimit="20" stroke-width=".5" d="M62.463 8.087s-1.402-.644-2.679.764-1.29 3.437-2.421 4.832c-1.132 1.395-1.783 1.785-1.783 1.785v0s.255 3.183 2.292 4.585c2.038 1.401 4.333-1.147 6.245-4.585 0 .007-2.037-5.345-1.654-7.38z"/></g><g><path fill="none" stroke="#263238" stroke-linecap="round" stroke-linejoin="round" stroke-miterlimit="20" stroke-width=".5" d="M62.065 13.91a9.501 9.501 0 0 0-.887 1.885c-.145.644-1.154.431-1.228-.145"/></g><g><path fill="none" stroke="#263238" stroke-linecap="round" stroke-linejoin="round" stroke-miterlimit="20" stroke-width=".5" d="M58.21 15.44s.216 1.012 1.59 1.37"/></g><g><path fill="none" stroke="#263238" stroke-linecap="round" stroke-linejoin="round" stroke-miterlimit="20" stroke-width=".5" d="M59.51 11.543s.867-.644 1.66.361"/></g><g><path fill="none" stroke="#263238" stroke-linecap="round" stroke-linejoin="round" stroke-miterlimit="20" stroke-width=".5" d="M62.47 12.634s1.01-.145 1.586 1.369"/></g><g><path fill="none" stroke="#263238" stroke-linecap="round" stroke-linejoin="round" stroke-miterlimit="20" stroke-width=".5" d="M59.24 13.445s.864-.644 1.57.47"/></g><g><path fill="none" stroke="#263238" stroke-linecap="round" stroke-linejoin="round" stroke-miterlimit="20" stroke-width=".5" d="M62.22 14.698s.783-.393.941.706"/></g><g><path fill="#fff" d="M73.857 36.382s-3.025-1.975-3.72-2.207a8.808 8.808 0 0 0-3.022-.235.696.696 0 0 0-.583.815l.232.464s-.465 1.51.467 2.323c.932.812 3.95.815 3.95.815l1.86.928z"/><path fill="none" stroke="#263238" stroke-linecap="round" stroke-linejoin="round" stroke-miterlimit="20" stroke-width=".5" d="M73.857 36.382v0s-3.025-1.975-3.72-2.207a8.808 8.808 0 0 0-3.022-.235.696.696 0 0 0-.583.815l.232.464v0s-.465 1.51.467 2.323c.932.812 3.95.815 3.95.815v0l1.86.928v0z"/></g><g><path fill="none" stroke="#263238" stroke-linecap="round" stroke-linejoin="round" stroke-miterlimit="20" stroke-width=".5" d="M76.12 33l2.14.67"/></g><g><path fill="#adc7f7" d="M77.232 31.503l2.556 5.577s-3.137-.232-4.533-.812c-1.396-.58-2.44.116-2.556.928-.116.811-.58 3.134.348 3.601.929.468 5.465 1.392 8.834 1.975 3.369.584 5.348-.583 5.58-1.743.233-1.16-3.136-11.034-4.068-13.125-.932-2.091-2.325-3.834-3.837-3.834"/><path fill="none" stroke="#263238" stroke-linecap="round" stroke-linejoin="round" stroke-miterlimit="20" stroke-width=".5" d="M77.232 31.503v0l2.556 5.577v0s-3.137-.232-4.533-.812c-1.396-.58-2.44.116-2.556.928-.116.811-.58 3.134.348 3.601.929.468 5.465 1.392 8.834 1.975 3.369.584 5.348-.583 5.58-1.743.233-1.16-3.136-11.034-4.068-13.125-.932-2.091-2.325-3.834-3.837-3.834"/></g><g><path fill="none" stroke="#263238" stroke-linecap="round" stroke-linejoin="round" stroke-miterlimit="20" stroke-width=".5" d="M79.79 37.084s1.896-.307 4.082 1.288"/></g></g></g></g></svg>