<svg xmlns="http://www.w3.org/2000/svg" width="139" height="114" viewBox="0 0 139 114"><g><g><g><g><path fill="#adc7f7" d="M126.307 43.711c-2.588-9.919-6.906-19.165-11.398-25.508C104.085 2.96 78.926-3.75 61.527 2.636c-14.819 5.452-19.99 21.895-32.948 29.772C16.672 39.677 5.866 45.568 1.7 59.384c-8.796 29.19 25.991 52.459 51.975 45.07 8.207-2.338 15.142-7.252 23.894-7.27 17.755-.062 24.007 2.373 38.37-7.215 14.176-9.479 14.903-28.906 10.367-46.258z"/></g><g opacity=".8"><path fill="#fff" d="M126.307 43.711c-2.588-9.919-6.906-19.165-11.398-25.508C104.085 2.96 78.926-3.75 61.527 2.636c-14.819 5.452-19.99 21.895-32.948 29.772C16.672 39.677 5.866 45.568 1.7 59.384c-8.796 29.19 25.991 52.459 51.975 45.07 8.207-2.338 15.142-7.252 23.894-7.27 17.755-.062 24.007 2.373 38.37-7.215 14.176-9.479 14.903-28.906 10.367-46.258z"/></g><g><path fill="#fff" d="M99.095 12.63c-1.454-.786-2.094-.132-2.617-.786-.524-.654 1.454-2.355-2.49-4.056 0 0-.262-3.664-5.626-3.795-5.365-.13-3.926 3.664-5.365 4.58-1.44.916-1.817-.523-3.271.392-1.454.916-.785 2.748-1.963 3.01-1.178.262-2.748-1.178-4.187-.262-1.44.916-1.454 1.701-2.094 1.701-.64 0-1.962-.523-2.747 0a74.662 74.662 0 0 0-1.705 1.182h33.115s.39-1.182-1.05-1.967z"/></g><g><path fill="#fff" d="M99.338 69.183c-1.453-.785-2.097-.131-2.62-.785-.524-.654 1.454-2.36-2.486-4.06 0 0-.262-3.664-5.627-3.795-5.364-.13-3.914 3.664-5.368 4.58-1.454.916-1.817-.523-3.271.392-1.454.916-.785 2.752-1.963 3.014-1.178.261-2.748-1.178-4.187-.262-1.44.916-1.454 1.7-2.094 1.7-.64 0-1.966-.522-2.751 0-.785.524-1.701 1.179-1.701 1.179h33.115s.393-1.178-1.047-1.963z"/></g><g><path fill="#fff" d="M120.062 46.31c-.992-.542-1.454-.091-1.817-.542-.364-.45.996-1.628-1.72-2.802 0 0-.177-2.544-3.885-2.624-3.707-.08-2.711 2.544-3.707 3.166-.996.621-1.265-.364-2.26.272-.997.636-.542 1.897-1.357 2.08-.814.18-1.897-.815-2.907-.183-1.01.633-.992 1.174-1.454 1.174-.462 0-1.356-.363-1.897 0-.542.364-1.178.815-1.178.815h22.873s.305-.815-.69-1.356z"/></g><g><path fill="#fff" d="M106.39 41.182c-.625-.341-.908-.058-1.137-.341-.229-.284.625-1.022-1.09-1.76 0 0-.113-1.591-2.443-1.65-2.33-.058-1.704 1.592-2.33 1.989-.625.396-.796-.226-1.42.17-.626.397-.342 1.196-.855 1.309-.512.113-1.192-.513-1.817-.113s-.625.727-.909.727c-.283 0-.85-.229-1.192 0a23.87 23.87 0 0 0-.727.513h14.39a.727.727 0 0 0-.47-.844z"/></g><g><path fill="#fff" d="M63.972 48.618c-2.653-1.453-3.856-.24-4.823-1.453-.967-1.214 2.653-4.337-4.58-7.47 0 0-.48-6.75-10.362-6.989-9.883-.24-7.23 6.746-9.883 8.436-2.653 1.69-3.373-.967-6.026.727-2.653 1.694-1.454 5.063-3.617 5.546-2.162.484-5.059-2.18-7.712-.483-2.653 1.697-2.65 3.133-3.857 3.133-1.206 0-3.612-.963-5.059 0s-3.133 2.18-3.133 2.18h60.993s.723-2.18-1.941-3.627z"/></g></g><g><g><path fill="#adc7f7" d="M99.901 75.574s1.949-1.537 2.45-2.526c.425-.843.727-2.032.295-2.93a1.676 1.676 0 0 0-2.374-.76c-1.2.746-1.326 3.294-1.021 4.519.025.105.629 1.722.65 1.697z"/></g><g><path fill="#adc7f7" d="M81.869 88.407c.08.072 1.454 1.09 1.479 1.057.025-.032.774-2.359.647-3.46-.11-.938-.509-2.097-1.37-2.602a1.668 1.668 0 0 0-2.396.672c-.592 1.283.706 3.479 1.64 4.333z"/></g><g><path fill="#adc7f7" d="M122.729 77.91s-7.146 7.367-7.099 16.421c.047 9.054 7.24 16.356 7.24 16.356s7.139-7.367 7.099-16.418c-.04-9.05-7.24-16.359-7.24-16.359z"/></g><g><path fill="#adc7f7" d="M107.262 102.349c.196-.037.396-.077.585-.12a13.811 13.811 0 0 0 2.18 5.23 79.96 79.96 0 0 1-2.071-1.014c-.542-.28-1.102-.582-1.709-.898.113-.244.956-2.134 1.015-3.199zm5.542-2.923c.52-.788.96-1.933.63-2.875a1.672 1.672 0 0 0-2.269-1.028c-.97.458-1.454 2.013-1.548 3.27a18.207 18.207 0 0 0-1.032-.203c-.131-.287-.259-.578-.39-.872-.13-.294-.24-.603-.363-.909-.17-.454-.323-.926-.48-1.399.567-.254 2.21-1.021 2.825-1.701.614-.68 1.243-1.766 1.054-2.744a1.668 1.668 0 0 0-2.083-1.36c-1.356.4-2.155 2.825-2.18 4.086 0 .04.017.309.046.625-.134-.465-.272-.93-.396-1.41-.363-1.356-.661-2.748-.981-4.14-.066-.29-.138-.578-.204-.869.476-.21 2.265-1.028 2.908-1.737.643-.709 1.243-1.767 1.054-2.744a1.672 1.672 0 0 0-2.086-1.36c-1.352.404-2.152 2.824-2.181 4.086 0 .047.025.363.058.727-.185-.756-.363-1.505-.592-2.243a29.824 29.824 0 0 0-1.334-3.722c.17-.073 2.286-.988 2.998-1.777.633-.698 1.243-1.767 1.058-2.744a1.672 1.672 0 0 0-2.086-1.36c-1.356.404-2.152 2.824-2.181 4.086 0 .09.103 1.219.155 1.64-.002-.009-.007-.02-.017-.027a21.847 21.847 0 0 0-1.944-3.358c-.66-.95-1.377-1.86-2.145-2.726a38.244 38.244 0 0 0-2.962-3.02h.029c.025 0-.661-1.578-.727-1.672-.632-1.09-2.497-2.832-3.882-2.544a1.676 1.676 0 0 0-1.17 2.198c.309.95 1.36 1.589 2.25 1.898.89.309 2.907.163 3.405.12a38.868 38.868 0 0 1 2.93 3.111c.182.218.363.462.556.694a34.273 34.273 0 0 0-1-.803c-1.064-.676-3.521-1.36-4.612-.458a1.676 1.676 0 0 0-.025 2.49c.708.701 1.937.785 2.871.647.934-.139 2.712-1.229 3.09-1.472.403.52.806 1.065 1.192 1.653a21.445 21.445 0 0 1 1.846 3.359c.03.065.051.141.08.207a34.82 34.82 0 0 0-1.24-1.258c-.984-.792-3.35-1.74-4.532-.963A1.676 1.676 0 0 0 96.9 81.3c.629.77 1.84.989 2.78.956 1.091-.04 3.228-1.12 3.308-1.16a29.262 29.262 0 0 1 1.207 3.635c.243.913.454 1.843.654 2.785a31.558 31.558 0 0 0-1.221-1.24c-.981-.792-3.351-1.74-4.529-.963a1.672 1.672 0 0 0-.302 2.472c.63.774 1.84.992 2.781.96 1.061-.04 3.115-1.066 3.29-1.153.09.429.185.854.272 1.28.287 1.399.57 2.802.894 4.175.11.477.236.942.363 1.41a32.633 32.633 0 0 0-1.05-1.057c-.985-.792-3.351-1.741-4.532-.963a1.672 1.672 0 0 0-.302 2.471c.632.775 1.843.993 2.784.96.942-.033 2.693-.861 3.18-1.09.215.774.444 1.537.71 2.278.12.317.22.651.363.95l.2.472-.273-.026s-.018.444.022 1.16c-1.04-.727-2.544-1.378-3.511-.93a1.676 1.676 0 0 0-.673 2.398c.065.106.138.207.218.302a6.542 6.542 0 0 0 1.342 2.991c.054.058.763.727 1.13 1.036-.364-.193-.727-.385-1.09-.593-.527-.29-1.09-.621-1.614-.934l-.807-.523c-.284-.17-.53-.364-.803-.556-.393-.284-.782-.596-1.174-.905.334-.524 1.28-2.072 1.417-2.973.138-.902.062-2.16-.632-2.875a1.676 1.676 0 0 0-2.49.018c-.909 1.09-.236 3.544.436 4.612.022.033.186.244.385.495-.363-.317-.745-.63-1.108-.96-1.04-.938-2.068-1.923-3.104-2.908l-.65-.625c.28-.436 1.319-2.104 1.453-3.053.135-.949.062-2.159-.632-2.871a1.672 1.672 0 0 0-2.49 0c-.909 1.09-.236 3.543.436 4.612.022.04.222.29.447.57a57.18 57.18 0 0 0-1.73-1.544 29.859 29.859 0 0 0-3.166-2.366c.102-.157 1.36-2.086 1.52-3.137.141-.934.065-2.159-.633-2.875a1.676 1.676 0 0 0-2.49 0c-.908 1.09-.236 3.544.437 4.612.047.073.77.978 1.043 1.294l-.04-.025a21.743 21.743 0 0 0-3.471-1.73 29.997 29.997 0 0 0-3.293-1.09 39.328 39.328 0 0 0-4.14-.884h.025c.019 0-1.42-.952-1.519-1-1.13-.559-3.635-.98-4.634.03a1.672 1.672 0 0 0 .236 2.479c.782.621 2.01.578 2.908.341.898-.236 2.515-1.454 2.908-1.777.41.073.85.156 1.334.262.85.189 1.817.407 2.827.727.273.083.564.181.847.272a28.363 28.363 0 0 0-1.276-.116c-1.26.022-3.689.807-4.1 2.159a1.676 1.676 0 0 0 1.353 2.093c.977.193 2.05-.414 2.751-1.043.701-.629 1.585-2.522 1.766-2.933.622.21 1.258.444 1.909.727a21.7 21.7 0 0 1 3.39 1.777l.182.135c-.247-.073-1.628-.364-1.726-.364-1.258-.116-3.755.4-4.31 1.701a1.676 1.676 0 0 0 1.112 2.228c.952.295 2.082-.189 2.85-.727.882-.632 2.07-2.711 2.114-2.79a29.524 29.524 0 0 1 3.01 2.358c.705.625 1.396 1.29 2.083 1.963-.324-.088-1.607-.364-1.705-.364-1.254-.116-3.755.4-4.307 1.701a1.676 1.676 0 0 0 1.112 2.228c.952.295 2.083-.189 2.85-.727.861-.618 2.01-2.606 2.104-2.773.313.305.625.607.934.916 1.014 1.007 2.021 2.02 3.05 2.991.363.335.727.655 1.09.974a38.989 38.989 0 0 0-1.454-.305c-1.257-.116-3.754.4-4.31 1.701a1.676 1.676 0 0 0 1.112 2.228c.952.295 2.082-.189 2.85-.727.766-.538 1.773-2.202 2.046-2.671a33.98 33.98 0 0 0 1.85 1.512c.272.2.541.418.817.596l.81.541c.568.364 1.091.68 1.633.993.269.16.527.305.792.458a44.594 44.594 0 0 0-1.312-.487c-1.228-.306-3.773-.175-4.518 1.025a1.672 1.672 0 0 0 .76 2.37c.898.44 2.086.13 2.93-.295.926-.469 2.322-2.199 2.493-2.41.647.364 1.283.727 1.882 1.043a87.506 87.506 0 0 0 4.086 2.05c3.525 3.05 8.487 3.384 8.487 3.384s.261-5.943-3.239-9.853a12.267 12.267 0 0 0-4.358-3.046c.094-.102.18-.21.258-.324z"/></g><g><path fill="#adc7f7" d="M138.553 98.61s-5.946.185-9.588 3.965c-3.642 3.78-3.595 9.734-3.595 9.734s5.946-.182 9.588-3.965c3.642-3.784 3.595-9.734 3.595-9.734z"/></g><g opacity=".5"><g opacity=".5"><path fill="#fff" d="M99.901 75.574s1.949-1.537 2.45-2.526c.425-.843.727-2.032.295-2.93a1.676 1.676 0 0 0-2.374-.76c-1.2.746-1.326 3.294-1.021 4.519.025.105.629 1.722.65 1.697z"/></g><g opacity=".5"><path fill="#fff" d="M81.869 88.407c.08.072 1.454 1.09 1.479 1.057.025-.032.774-2.359.647-3.46-.11-.938-.509-2.097-1.37-2.602a1.668 1.668 0 0 0-2.396.672c-.592 1.283.706 3.479 1.64 4.333z"/></g><g opacity=".5"><path fill="#fff" d="M122.729 77.91s-7.146 7.367-7.099 16.421c.047 9.054 7.24 16.356 7.24 16.356s7.139-7.367 7.099-16.418c-.04-9.05-7.24-16.359-7.24-16.359z"/></g><g opacity=".5"><path fill="#fff" d="M107.262 102.349c.196-.037.396-.077.585-.12a13.811 13.811 0 0 0 2.18 5.23 79.96 79.96 0 0 1-2.071-1.014c-.542-.28-1.102-.582-1.709-.898.113-.244.956-2.134 1.015-3.199zm5.542-2.923c.52-.788.96-1.933.63-2.875a1.672 1.672 0 0 0-2.269-1.028c-.97.458-1.454 2.013-1.548 3.27a18.207 18.207 0 0 0-1.032-.203c-.131-.287-.259-.578-.39-.872-.13-.294-.24-.603-.363-.909-.17-.454-.323-.926-.48-1.399.567-.254 2.21-1.021 2.825-1.701.614-.68 1.243-1.766 1.054-2.744a1.668 1.668 0 0 0-2.083-1.36c-1.356.4-2.155 2.825-2.18 4.086 0 .04.017.309.046.625-.134-.465-.272-.93-.396-1.41-.363-1.356-.661-2.748-.981-4.14-.066-.29-.138-.578-.204-.869.476-.21 2.265-1.028 2.908-1.737.643-.709 1.243-1.767 1.054-2.744a1.672 1.672 0 0 0-2.086-1.36c-1.352.404-2.152 2.824-2.181 4.086 0 .047.025.363.058.727-.185-.756-.363-1.505-.592-2.243a29.824 29.824 0 0 0-1.334-3.722c.17-.073 2.286-.988 2.998-1.777.633-.698 1.243-1.767 1.058-2.744a1.672 1.672 0 0 0-2.086-1.36c-1.356.404-2.152 2.824-2.181 4.086 0 .09.103 1.219.155 1.64-.002-.009-.007-.02-.017-.027a21.847 21.847 0 0 0-1.944-3.358c-.66-.95-1.377-1.86-2.145-2.726a38.244 38.244 0 0 0-2.962-3.02h.029c.025 0-.661-1.578-.727-1.672-.632-1.09-2.497-2.832-3.882-2.544a1.676 1.676 0 0 0-1.17 2.198c.309.95 1.36 1.589 2.25 1.898.89.309 2.907.163 3.405.12a38.868 38.868 0 0 1 2.93 3.111c.182.218.363.462.556.694a34.273 34.273 0 0 0-1-.803c-1.064-.676-3.521-1.36-4.612-.458a1.676 1.676 0 0 0-.025 2.49c.708.701 1.937.785 2.871.647.934-.139 2.712-1.229 3.09-1.472.403.52.806 1.065 1.192 1.653a21.445 21.445 0 0 1 1.846 3.359c.03.065.051.141.08.207a34.82 34.82 0 0 0-1.24-1.258c-.984-.792-3.35-1.74-4.532-.963A1.676 1.676 0 0 0 96.9 81.3c.629.77 1.84.989 2.78.956 1.091-.04 3.228-1.12 3.308-1.16a29.262 29.262 0 0 1 1.207 3.635c.243.913.454 1.843.654 2.785a31.558 31.558 0 0 0-1.221-1.24c-.981-.792-3.351-1.74-4.529-.963a1.672 1.672 0 0 0-.302 2.472c.63.774 1.84.992 2.781.96 1.061-.04 3.115-1.066 3.29-1.153.09.429.185.854.272 1.28.287 1.399.57 2.802.894 4.175.11.477.236.942.363 1.41a32.633 32.633 0 0 0-1.05-1.057c-.985-.792-3.351-1.741-4.532-.963a1.672 1.672 0 0 0-.302 2.471c.632.775 1.843.993 2.784.96.942-.033 2.693-.861 3.18-1.09.215.774.444 1.537.71 2.278.12.317.22.651.363.95l.2.472-.273-.026s-.018.444.022 1.16c-1.04-.727-2.544-1.378-3.511-.93a1.676 1.676 0 0 0-.673 2.398c.065.106.138.207.218.302a6.542 6.542 0 0 0 1.342 2.991c.054.058.763.727 1.13 1.036-.364-.193-.727-.385-1.09-.593-.527-.29-1.09-.621-1.614-.934l-.807-.523c-.284-.17-.53-.364-.803-.556-.393-.284-.782-.596-1.174-.905.334-.524 1.28-2.072 1.417-2.973.138-.902.062-2.16-.632-2.875a1.676 1.676 0 0 0-2.49.018c-.909 1.09-.236 3.544.436 4.612.022.033.186.244.385.495-.363-.317-.745-.63-1.108-.96-1.04-.938-2.068-1.923-3.104-2.908l-.65-.625c.28-.436 1.319-2.104 1.453-3.053.135-.949.062-2.159-.632-2.871a1.672 1.672 0 0 0-2.49 0c-.909 1.09-.236 3.543.436 4.612.022.04.222.29.447.57a57.18 57.18 0 0 0-1.73-1.544 29.859 29.859 0 0 0-3.166-2.366c.102-.157 1.36-2.086 1.52-3.137.141-.934.065-2.159-.633-2.875a1.676 1.676 0 0 0-2.49 0c-.908 1.09-.236 3.544.437 4.612.047.073.77.978 1.043 1.294l-.04-.025a21.743 21.743 0 0 0-3.471-1.73 29.997 29.997 0 0 0-3.293-1.09 39.328 39.328 0 0 0-4.14-.884h.025c.019 0-1.42-.952-1.519-1-1.13-.559-3.635-.98-4.634.03a1.672 1.672 0 0 0 .236 2.479c.782.621 2.01.578 2.908.341.898-.236 2.515-1.454 2.908-1.777.41.073.85.156 1.334.262.85.189 1.817.407 2.827.727.273.083.564.181.847.272a28.363 28.363 0 0 0-1.276-.116c-1.26.022-3.689.807-4.1 2.159a1.676 1.676 0 0 0 1.353 2.093c.977.193 2.05-.414 2.751-1.043.701-.629 1.585-2.522 1.766-2.933.622.21 1.258.444 1.909.727a21.7 21.7 0 0 1 3.39 1.777l.182.135c-.247-.073-1.628-.364-1.726-.364-1.258-.116-3.755.4-4.31 1.701a1.676 1.676 0 0 0 1.112 2.228c.952.295 2.082-.189 2.85-.727.882-.632 2.07-2.711 2.114-2.79a29.524 29.524 0 0 1 3.01 2.358c.705.625 1.396 1.29 2.083 1.963-.324-.088-1.607-.364-1.705-.364-1.254-.116-3.755.4-4.307 1.701a1.676 1.676 0 0 0 1.112 2.228c.952.295 2.083-.189 2.85-.727.861-.618 2.01-2.606 2.104-2.773.313.305.625.607.934.916 1.014 1.007 2.021 2.02 3.05 2.991.363.335.727.655 1.09.974a38.989 38.989 0 0 0-1.454-.305c-1.257-.116-3.754.4-4.31 1.701a1.676 1.676 0 0 0 1.112 2.228c.952.295 2.082-.189 2.85-.727.766-.538 1.773-2.202 2.046-2.671a33.98 33.98 0 0 0 1.85 1.512c.272.2.541.418.817.596l.81.541c.568.364 1.091.68 1.633.993.269.16.527.305.792.458a44.594 44.594 0 0 0-1.312-.487c-1.228-.306-3.773-.175-4.518 1.025a1.672 1.672 0 0 0 .76 2.37c.898.44 2.086.13 2.93-.295.926-.469 2.322-2.199 2.493-2.41.647.364 1.283.727 1.882 1.043a87.506 87.506 0 0 0 4.086 2.05c3.525 3.05 8.487 3.384 8.487 3.384s.261-5.943-3.239-9.853a12.267 12.267 0 0 0-4.358-3.046c.094-.102.18-.21.258-.324z"/></g><g opacity=".5"><path fill="#fff" d="M138.553 98.61s-5.946.185-9.588 3.965c-3.642 3.78-3.595 9.734-3.595 9.734s5.946-.182 9.588-3.965c3.642-3.784 3.595-9.734 3.595-9.734z"/></g></g><g><path fill="#fff" d="M123.02 102.444l5.842-5.249-.251-.28-5.594 5.027-.03-6.88.03.022 4.94-7.222-.31-.211-4.663 6.818-.072-16.559h-.375l.051 11.238-3.718-3.216-.247.283 3.965 3.431.036 8.036-5.637-4.986-.247.28 5.884 5.208.033 7.316-4.234-3.322-.233.295 4.47 3.507.019 4.71.374-.003-.036-8.243h.004z"/></g><g><path fill="#fff" d="M117.64 104.469l-.374-.044-.472 4.158-2.508-2.802h.007l-.636-5.034-.37.047.566 4.504-6.233-6.968-.28.247 4.23 4.729-2.678.033.007.374 3.002-.036 2.966 3.314-4.187.004v.378l4.522-.007 2.697 3.013-2.955.178.025.374 3.25-.196 1.795 2.01.276-.25-3.162-3.537.513-4.49z"/></g><g><path fill="#fff" d="M131.747 105.95l4.972-1.011-.076-.367-4.445.901 6.484-6.735-.273-.258-4.398 4.569-.232-2.668-.371.033.258 2.995-3.082 3.202-.32-4.173-.374.03.345 4.506-2.806 2.915-.396-2.933-.37.05.435 3.225-1.868 1.94.269.262 3.29-3.42 4.517.175.015-.375-4.184-.16 2.61-2.711v.007z"/></g></g><g><g><path fill="#fff" d="M92.432 48.851s4.362-1.726 6.724-3.726c2.363-1.999 3-5.36 1.727-5.633-1.272-.273-6.997 4.27-6.997 4.27s-2.817.546-1.454 5.089z"/><path fill="none" stroke="#263238" stroke-linecap="round" stroke-linejoin="round" stroke-miterlimit="20" stroke-width=".5" d="M92.432 48.851s4.362-1.726 6.724-3.726c2.363-1.999 3-5.36 1.727-5.633-1.272-.273-6.997 4.27-6.997 4.27v0s-2.817.546-1.454 5.089z"/></g><g><path fill="#fff" d="M98.253 31.059c.074-.95.195-1.897.364-2.835.214-.941-1.301-.462-1.534.094-.233.556-1.454.785-1.625 1.182a6.263 6.263 0 0 0-.265 1.752c-.065.814.57 1.708.57 1.708s-3.765 8.647-4.045 11.173c-.4 3.587.313 4.641.666 4.79.352.15 2.507-1.261 3.042-3.006.534-1.744.643-9.708 2.257-12.855.237-.654.427-1.323.57-2.003z"/><path fill="none" stroke="#263238" stroke-linecap="round" stroke-linejoin="round" stroke-miterlimit="20" stroke-width=".5" d="M98.253 31.059c.074-.95.195-1.897.364-2.835.214-.941-1.301-.462-1.534.094-.233.556-1.454.785-1.625 1.182a6.263 6.263 0 0 0-.265 1.752c-.065.814.57 1.708.57 1.708v0s-3.765 8.647-4.045 11.173c-.4 3.587.313 4.641.666 4.79.352.15 2.507-1.261 3.042-3.006.534-1.744.643-9.708 2.257-12.855.237-.654.427-1.323.57-2.003z"/></g><g><path fill="#fff" d="M98.34 27.206a.622.622 0 0 0-.541.458c-.073.414-.13 1.127.338 1.181.469.055.672-.309.647-1.058-.025-.748-.443-.581-.443-.581z"/><path fill="none" stroke="#263238" stroke-linecap="round" stroke-linejoin="round" stroke-miterlimit="20" stroke-width=".5" d="M98.34 27.206a.622.622 0 0 0-.541.458c-.073.414-.13 1.127.338 1.181.469.055.672-.309.647-1.058-.025-.748-.443-.581-.443-.581z"/></g><g><path fill="#fff" d="M97.303 27.506a.622.622 0 0 0-.542.458c-.076.414-.134 1.127.339 1.181.472.055.672-.309.646-1.058-.025-.748-.443-.581-.443-.581z"/><path fill="none" stroke="#263238" stroke-linecap="round" stroke-linejoin="round" stroke-miterlimit="20" stroke-width=".5" d="M97.303 27.506a.622.622 0 0 0-.542.458c-.076.414-.134 1.127.339 1.181.472.055.672-.309.646-1.058-.025-.748-.443-.581-.443-.581z"/></g><g><path fill="#fff" d="M95.715 29.015a.596.596 0 0 0-.516.44c-.073.393-.127 1.072.323 1.123.45.051.64-.29.614-1.007-.025-.716-.421-.556-.421-.556z"/><path fill="none" stroke="#263238" stroke-linecap="round" stroke-linejoin="round" stroke-miterlimit="20" stroke-width=".5" d="M95.715 29.015a.596.596 0 0 0-.516.44c-.073.393-.127 1.072.323 1.123.45.051.64-.29.614-1.007-.025-.716-.421-.556-.421-.556z"/></g><g><path fill="#fff" d="M96.365 28.175a.596.596 0 0 0-.516.44c-.073.393-.127 1.09.323 1.123.45.033.64-.29.615-1.007-.026-.716-.422-.556-.422-.556z"/><path fill="none" stroke="#263238" stroke-linecap="round" stroke-linejoin="round" stroke-miterlimit="20" stroke-width=".5" d="M96.365 28.175a.596.596 0 0 0-.516.44c-.073.393-.127 1.09.323 1.123.45.033.64-.29.615-1.007-.026-.716-.422-.556-.422-.556z"/></g><g><path fill="#fff" d="M97.84 32.596s.858-1.915 1.09-2.468c.233-.552.019-.926.324-1.639.305-.712-.621-.076-.825.396a9.618 9.618 0 0 0-.363 1.065c-.471.093-.86.423-1.029.873a1.552 1.552 0 0 0-.073 1.279"/><path fill="none" stroke="#263238" stroke-linecap="round" stroke-linejoin="round" stroke-miterlimit="20" stroke-width=".5" d="M97.84 32.596v0s.858-1.915 1.09-2.468c.233-.552.019-.926.324-1.639.305-.712-.621-.076-.825.396a9.618 9.618 0 0 0-.363 1.065c-.471.093-.86.423-1.029.873a1.552 1.552 0 0 0-.073 1.279"/></g><g><path fill="#263238" d="M100.28 74.026s.156 10.784.636 11.932c.48 1.149 12.507 23.898 12.507 23.898l1.425-1.058-8.88-24.78 1.436-20.718z"/><path fill="none" stroke="#263238" stroke-linecap="round" stroke-linejoin="round" stroke-miterlimit="20" stroke-width=".5" d="M100.28 74.026v0s.156 10.784.636 11.932c.48 1.149 12.507 23.898 12.507 23.898v0l1.425-1.058v0l-8.88-24.78v0l1.436-20.718v0z"/></g><g><path fill="#263238" d="M97.819 60.044s-3.21 18.878-3.69 22.534c-.48 3.657.775 27.893.775 27.893l1.788-.055 3.271-27.598s5.118-13.56 6.717-15.414c1.839-2.126 2.762-4.667 1.697-6.772-.73-1.424-10.558-.588-10.558-.588z"/><path fill="none" stroke="#263238" stroke-linecap="round" stroke-linejoin="round" stroke-miterlimit="20" stroke-width=".5" d="M97.819 60.044v0s-3.21 18.878-3.69 22.534c-.48 3.657.775 27.893.775 27.893v0l1.788-.055v0l3.271-27.598v0s5.118-13.56 6.717-15.414c1.839-2.126 2.762-4.667 1.697-6.772-.73-1.424-10.558-.588-10.558-.588z"/></g><g><path fill="#fff" d="M94.9 110.455s-4.504 2.06-4.271 2.486c.232.425 5.677.33 6.04.218.364-.113 0-2.759 0-2.759z"/><path fill="none" stroke="#263238" stroke-miterlimit="20" stroke-width=".5" d="M94.9 110.455v0s-4.504 2.06-4.271 2.486c.232.425 5.677.33 6.04.218.364-.113 0-2.759 0-2.759v0z"/></g><g><path fill="#fff" d="M113.424 109.857a5.12 5.12 0 0 1-.727 1.116c-.342.33-1.683 1.09-1.636 1.453.047.364 2.908.204 3.46.037.553-.167 1.069-1.385 1.585-1.836.516-.45-1.268-1.817-1.268-1.817-.453.374-.925.723-1.414 1.047z"/><path fill="none" stroke="#263238" stroke-linecap="round" stroke-linejoin="round" stroke-miterlimit="20" stroke-width=".5" d="M113.424 109.857a5.12 5.12 0 0 1-.727 1.116c-.342.33-1.683 1.09-1.636 1.453.047.364 2.908.204 3.46.037.553-.167 1.069-1.385 1.585-1.836.516-.45-1.268-1.817-1.268-1.817-.453.374-.925.723-1.414 1.047z"/></g><g><path fill="none" stroke="#fff" stroke-linecap="round" stroke-linejoin="round" stroke-miterlimit="20" stroke-width=".5" d="M100.31 80.868l5.088-12.358"/></g><g><path fill="#adc7f7" d="M98.1 40.603c.333-.908.733-1.79 1.196-2.64 1.264-2.402 2.933-4.215 4.87-6.102.363-.363.978-1.126 1.537-1.192.905-.102.19.04.913.782.723.741 3.096 2.998 3.51 7.996.128 1.537-.334 3.162-.566 4.67-.316 2.076-.793 4.13-.956 6.226-.2 2.52.425 5.194.53 7.731.07 1.712.186 3.428.32 5.14 0 0-2.286-1.818-3.427-2.286a6.906 6.906 0 0 0-6.288.865c-1.74 1.159-3.144 2.18-3.333 1.715-.189-.465.244-2.133.57-3.525.382-1.618 1.073-7.063 1.073-7.063.24-1.123.233-7.05-.15-7.996-.533-1.377-.297-2.897.2-4.321z"/><path fill="none" stroke="#263238" stroke-linecap="round" stroke-linejoin="round" stroke-miterlimit="20" stroke-width=".5" d="M98.1 40.603c.333-.908.733-1.79 1.196-2.64 1.264-2.402 2.933-4.215 4.87-6.102.363-.363.978-1.126 1.537-1.192.905-.102.19.04.913.782.723.741 3.096 2.998 3.51 7.996.128 1.537-.334 3.162-.566 4.67-.316 2.076-.793 4.13-.956 6.226-.2 2.52.425 5.194.53 7.731.07 1.712.186 3.428.32 5.14 0 0-2.286-1.818-3.427-2.286a6.906 6.906 0 0 0-6.288.865c-1.74 1.159-3.144 2.18-3.333 1.715-.189-.465.244-2.133.57-3.525.382-1.618 1.073-7.063 1.073-7.063.24-1.123.233-7.05-.15-7.996-.533-1.377-.297-2.897.2-4.321z"/></g><g><path fill="none" stroke="#263238" stroke-linecap="round" stroke-linejoin="round" stroke-miterlimit="20" stroke-width=".5" d="M104.744 51.327s-3.376-1.817-4.474-3.387"/></g><g><path fill="none" stroke="#263238" stroke-linecap="round" stroke-linejoin="round" stroke-miterlimit="20" stroke-width=".5" d="M104.318 52.356l-1.748-.876"/></g><g><path fill="#fff" d="M109.403 27.436c-1.727 1.283-2.493 4.275-1.926 5.452.127.27-2.621 1.189-2.846 1.269-1.309.461-2.13.803-3.192 1.722a.287.287 0 0 1-.363-.432c.465-.396 1.49-1.327 1.726-2.003.306-.88.43-1.37.43-1.37.345-1.4-.364-2.871-.364-2.871.948-1.476 7.262-2.308 6.535-1.767z"/><path fill="none" stroke="#263238" stroke-linecap="round" stroke-linejoin="round" stroke-miterlimit="20" stroke-width=".5" d="M109.403 27.436c-1.727 1.283-2.493 4.275-1.926 5.452.127.27-2.621 1.189-2.846 1.269-1.309.461-2.13.803-3.192 1.722a.287.287 0 0 1-.363-.432c.465-.396 1.49-1.327 1.726-2.003.306-.88.43-1.37.43-1.37.345-1.4-.364-2.871-.364-2.871.948-1.476 7.262-2.308 6.535-1.767z"/></g><g><path fill="#fff" d="M108.27 18.538c-1.486-.291-3.347-.295-4.361 1.003-1.763 2.275-1.534 3.882-1.978 4.452-.443.57-1.784.727-1.719 1.243.066.516.8.924.8.924a25.617 25.617 0 0 0-.316 3.543c.054 1.09 1.817.963 3.634.993 1.818.029 2.955-.291 4.202-1.901 1.247-1.61 2.962-2.181 3.475-4.293a4.907 4.907 0 0 0-3.737-5.964z"/><path fill="none" stroke="#263238" stroke-linecap="round" stroke-linejoin="round" stroke-miterlimit="20" stroke-width=".5" d="M108.27 18.538c-1.486-.291-3.347-.295-4.361 1.003-1.763 2.275-1.534 3.882-1.978 4.452-.443.57-1.784.727-1.719 1.243.066.516.8.924.8.924a25.617 25.617 0 0 0-.316 3.543c.054 1.09 1.817.963 3.634.993 1.818.029 2.955-.291 4.202-1.901 1.247-1.61 2.962-2.181 3.475-4.293a4.907 4.907 0 0 0-3.737-5.964z"/></g><g><path fill="#fff" d="M104.292 24.348s-.229-1.26-.912-1.308"/><path fill="none" stroke="#263238" stroke-linecap="round" stroke-linejoin="round" stroke-miterlimit="20" stroke-width=".5" d="M104.292 24.348s-.229-1.26-.912-1.308"/></g><g><path fill="#263238" d="M103.252 24.393c-.102.214-.28.341-.396.287-.117-.055-.128-.276-.03-.487.099-.21.28-.345.397-.29.116.054.13.275.029.49z"/></g><g><path fill="#fff" d="M101.48 27.223c.593.371 1.35.358 1.93-.032"/><path fill="none" stroke="#263238" stroke-linecap="round" stroke-linejoin="round" stroke-miterlimit="20" stroke-width=".5" d="M101.48 27.223c.593.371 1.35.358 1.93-.032"/></g><g><path fill="#263238" d="M102.029 27.45s-.313 1.09.393 1.09c.705 0 .781-1.25.781-1.25-.35.218-.778.276-1.174.16z"/></g><g><path fill="#263238" d="M114.15 38.63c-.291-1.313-.727-4.595.149-7.706.538-1.997.745-4.068.614-6.132l-.04.077a6.724 6.724 0 0 0-.138-1.73c-.785-3.497-3.555-5.521-6.037-6.36a5.546 5.546 0 0 0-2.802-.252s-3.123.553-5.576 2.007c0 1.04 1.09 2.802 1.999 4.278a8.141 8.141 0 0 1 1.032-2.48 21.725 21.725 0 0 0 2.42 3.948c2.055 2.795 2.545 2.933 2.545 2.933-.214 1.523-3.754 2.515-3.998 3.468 0 .036 0 .072-.018.112 0 .127.018.255.025.364.193.727 1.109 1.29 1.418 1.53.363.29.363 2.18 1.025 2.722.661.542.727-.16 1.163.055.363.189 1.352 2.286 2.046 2.475.36.337.739.654 1.134.949 1.203.945 3.33 1.054 3.039-.258z"/></g><g><path fill="none" stroke="#fff" stroke-linecap="round" stroke-linejoin="round" stroke-miterlimit="20" stroke-width=".5" d="M105.887 17.1c-.804.244-3.013.385-2.966 1.283.051.608.22 1.2.498 1.745"/></g><g><path fill="none" stroke="#fff" stroke-linecap="round" stroke-linejoin="round" stroke-miterlimit="20" stroke-width=".5" d="M105.08 18.94v0s1.418 4.55 2.871 6.037c1.454 1.487 3.846 2.363 3.846 2.363v0"/></g><g><path fill="none" stroke="#fff" stroke-linecap="round" stroke-linejoin="round" stroke-miterlimit="20" stroke-width=".5" d="M107.678 17.5a11.74 11.74 0 0 0 .687 4.852 8.08 8.08 0 0 0 2.545 3.573"/></g><g><path fill="#fff" d="M107.374 27.199s1.927-1.4 2.28-.763c.352.636-.273 1.595-1.091 2.18-.818.586-1.276.095-1.403-.363"/><path fill="none" stroke="#263238" stroke-linecap="round" stroke-linejoin="round" stroke-miterlimit="20" stroke-width=".5" d="M107.374 27.199v0s1.927-1.4 2.28-.763c.352.636-.273 1.595-1.091 2.18-.818.586-1.276.095-1.403-.363"/></g><g><path fill="#fff" d="M104.78 34.66c1.007-.85 2.585-.494 3.272 1.298 1.141 2.907 2.282 5.844 3.453 8.766 1.141 2.857 5.713 16.861 6.095 17.908.382 1.047 1.25 3.715 1.25 3.715s2.755 2.111 2.755 2.399c0 .287-.476 1.334-.857 1.428-.382.095-2.09-.872-2.468-1.16-.378-.287-.575-.857-1.05-2.286 0 0-2.858-7.632-4.762-10.002-1.905-2.37-3.431-8.574-3.795-9.24a60.102 60.102 0 0 1-3.427-6.287c-.64-1.407-1.498-3.097-1.323-4.693a2.908 2.908 0 0 1 .858-1.846z"/><path fill="none" stroke="#263238" stroke-linecap="round" stroke-linejoin="round" stroke-miterlimit="20" stroke-width=".5" d="M104.78 34.66c1.007-.85 2.585-.494 3.272 1.298 1.141 2.907 2.282 5.844 3.453 8.766 1.141 2.857 5.713 16.861 6.095 17.908.382 1.047 1.25 3.715 1.25 3.715v0s2.755 2.111 2.755 2.399c0 .287-.476 1.334-.857 1.428-.382.095-2.09-.872-2.468-1.16-.378-.287-.575-.857-1.05-2.286 0 0-2.858-7.632-4.762-10.002-1.905-2.37-3.431-8.574-3.795-9.24a60.102 60.102 0 0 1-3.427-6.287c-.64-1.407-1.498-3.097-1.323-4.693a2.908 2.908 0 0 1 .858-1.846z"/></g><g><path fill="none" stroke="#263238" stroke-linecap="round" stroke-linejoin="round" stroke-miterlimit="20" stroke-width=".5" d="M119.8 69.132l.389-.632"/></g><g><path fill="none" stroke="#263238" stroke-linecap="round" stroke-linejoin="round" stroke-miterlimit="20" stroke-width=".5" d="M120.24 69.86s1.123-.586 1.367-1.12"/></g><g><path fill="#fff" d="M118.658 67.972s.364.476.953 1.047c.37.429.604.96.668 1.523 0 0-.189.574-.476.287s-.952-1.149-.952-1.149a1.763 1.763 0 0 1-.952-.76c-.476-.668-.669-2.18-.669-2.18"/><path fill="none" stroke="#263238" stroke-linecap="round" stroke-linejoin="round" stroke-miterlimit="20" stroke-width=".5" d="M118.658 67.972v0s.364.476.953 1.047c.37.429.604.96.668 1.523 0 0-.189.574-.476.287s-.952-1.149-.952-1.149a1.763 1.763 0 0 1-.952-.76c-.476-.668-.669-2.18-.669-2.18v0"/></g></g><g><g><path fill="#263238" d="M46.716 63.321s-.56 2.799-.56 3.635c0 .836 4.616 16.792 4.616 19.173 0 2.38 1.96 23.087 1.96 23.087l-3.217.701s-2.661-9.937-3.919-13.575c-1.257-3.638-1.817-9.934-1.817-9.934l-2.937-10.496s-2.38-4.758-3.5-6.575c-1.12-1.818-2.097-3.22-1.959-4.758.138-1.538 1.68-2.519 1.68-2.519z"/></g><g><path fill="#263238" d="M32.998 62.626a13.84 13.84 0 0 0 .28 5.176c.697 2.519 1.817 4.758 1.817 5.18 0 .42-.84 12.593-.978 13.011-.138.418-9.657 21.83-9.515 22.252.141.421 2.239 1.257 2.239 1.257s13.993-19.449 14.69-20.43c.699-.982 3.221-18.471 3.635-19.45.415-.977.84-7.268.84-7.268s-9.512-.288-13.008.272z"/></g><g><path fill="none" stroke="#fff" stroke-linecap="round" stroke-linejoin="round" stroke-miterlimit="20" stroke-width=".5" d="M45.718 67.54L43.37 80.694"/></g><g><path fill="none" stroke="#fff" stroke-linecap="round" stroke-linejoin="round" stroke-miterlimit="20" stroke-width=".5" d="M38.674 86.679v0s-4.464-.585-3.272.116c.931.504 1.916.899 2.937 1.178h-2.722v0"/></g><g><path fill="none" stroke="#fff" stroke-linecap="round" stroke-linejoin="round" stroke-miterlimit="20" stroke-width=".5" d="M41.378 65.79c-.363.67-.797 1.3-1.294 1.88-.32.337-.726.58-1.174.704"/></g><g><path fill="none" stroke="#fff" stroke-linecap="round" stroke-linejoin="round" stroke-miterlimit="20" stroke-width=".5" d="M38.443 65.54v0s.117 3.41.237 4.816c.131 2.351.052 4.71-.237 7.047-.363 3.406-.363 5.053-.363 5.053v0"/></g><g><path fill="#fff" d="M52.734 109.22s5.18.84 5.18 1.4c0 .56-7.996 3.22-8.396 2.518-.4-.701 0-3.217 0-3.217z"/><path fill="none" stroke="#263238" stroke-linecap="round" stroke-linejoin="round" stroke-miterlimit="20" stroke-width=".5" d="M52.734 109.22v0s5.18.84 5.18 1.4c0 .56-7.996 3.22-8.396 2.518-.4-.701 0-3.217 0-3.217v0z"/></g><g><path fill="#fff" d="M24.605 108.25s-1.96 2.239-1.818 2.799c.142.56 2.381 1.679 3.5 1.817 1.12.138 3.635.142 4.337-.28.701-.421-1.538-.978-2.098-1.537-.56-.56-1.679-1.541-1.679-1.541z"/><path fill="none" stroke="#263238" stroke-linecap="round" stroke-linejoin="round" stroke-miterlimit="20" stroke-width=".5" d="M24.605 108.25v0s-1.96 2.239-1.818 2.799c.142.56 2.381 1.679 3.5 1.817 1.12.138 3.635.142 4.337-.28.701-.421-1.538-.978-2.098-1.537-.56-.56-1.679-1.541-1.679-1.541v0z"/></g><g><path fill="#adc7f7" d="M30.626 112.586s-2.987-.062-4.281-.414c-1.294-.353-3.17-1.647-3.17-1.647l-.203-.065a1.036 1.036 0 0 0-.182.589c.142.56 2.38 1.679 3.5 1.817 1.12.138 3.638.142 4.336-.28z"/><path fill="none" stroke="#263238" stroke-linecap="round" stroke-linejoin="round" stroke-miterlimit="20" stroke-width=".5" d="M30.626 112.586s-2.987-.062-4.281-.414c-1.294-.353-3.17-1.647-3.17-1.647v0l-.203-.065a1.036 1.036 0 0 0-.182.589c.142.56 2.38 1.679 3.5 1.817 1.12.138 3.638.142 4.336-.28z"/></g><g><path fill="#adc7f7" d="M53.007 111.95c-1.41.588-3.169.363-3.522.363l-.145.022c-.003.288.058.573.178.835.418.702 8.396-1.959 8.396-2.518 0-.08-.116-.171-.305-.262l-.255.044s-2.936.912-4.347 1.515z"/><path fill="none" stroke="#263238" stroke-linecap="round" stroke-linejoin="round" stroke-miterlimit="20" stroke-width=".5" d="M53.007 111.95c-1.41.588-3.169.363-3.522.363l-.145.022c-.003.288.058.573.178.835.418.702 8.396-1.959 8.396-2.518 0-.08-.116-.171-.305-.262l-.255.044v0s-2.936.912-4.347 1.515z"/></g><g><path fill="#fff" d="M37.614 21.912a31.317 31.317 0 0 0-.687-1.523c-.894-1.839-2.286-3.558-4.47-3.682-2.185-.123-5.42 1.32-6.288 3.457-.727 1.839-.4 3.998.494 5.71.38.761.967 1.4 1.694 1.843.676.465 1.744.821 1.999 1.704.294 1.014-.284 4.115-.284 4.115l3.726 1.494a8.8 8.8 0 0 1 1.014-2.857 5.06 5.06 0 0 1 2.097-2.061c1.323 0 2.599-.487 2.664-1.145.058-.57-.272-2.257-.945-4.318.416-.124.707-.497.727-.93-.029-.633-1.388-1.574-1.74-1.807z"/><path fill="none" stroke="#263238" stroke-linecap="round" stroke-linejoin="round" stroke-miterlimit="20" stroke-width=".5" d="M37.614 21.912a31.317 31.317 0 0 0-.687-1.523c-.894-1.839-2.286-3.558-4.47-3.682-2.185-.123-5.42 1.32-6.288 3.457-.727 1.839-.4 3.998.494 5.71.38.761.967 1.4 1.694 1.843.676.465 1.744.821 1.999 1.704.294 1.014-.284 4.115-.284 4.115v0l3.726 1.494a8.8 8.8 0 0 1 1.014-2.857 5.06 5.06 0 0 1 2.097-2.061c1.323 0 2.599-.487 2.664-1.145.058-.57-.272-2.257-.945-4.318.416-.124.707-.497.727-.93-.029-.633-1.388-1.574-1.74-1.807z"/></g><g><path fill="#263238" d="M31.645 24.753s1.232-.513 1.09-1.134c-.141-.622 0-1.029.524-1.73.523-.702-.684-.825-1.276-1.498-.593-.672 1.843-2.09 3.511-2.544 1.668-.454 3.195-1.341 1.665-3.104-1.53-1.763-2.835-.494-3.595-.05-.76.443-.08-1.89-1.988-1.498-1.908.392-1.683 1.486-1.527 2.108.157.621-.607 1.065-1.29 1.454s-1.86-.044-3.874 2.45c-2.014 2.493-.488 6.178 1.315 7.89 1.803 1.712 2.726 2.512 4.173 2.326 1.446-.185 1.992-3.456 1.639-4.067z"/></g><g><path fill="none" stroke="#fff" stroke-linecap="round" stroke-linejoin="round" stroke-miterlimit="20" stroke-width=".5" d="M31.509 20.415v0s-.131-.465-.727 1.09c-.596 1.556-.465 2.716-2.032 3.759"/></g><g><path fill="none" stroke="#fff" stroke-linecap="round" stroke-linejoin="round" stroke-miterlimit="20" stroke-width=".5" d="M28.04 27.31s1.516-.197 1.934-1.12"/></g><g><path fill="#fff" d="M32.707 24.572s-1.21-1.741-1.723.185c-.512 1.926 1.196 2.77 1.894 2.566a.974.974 0 0 0 .65-.985"/><path fill="none" stroke="#263238" stroke-linecap="round" stroke-linejoin="round" stroke-miterlimit="20" stroke-width=".5" d="M32.707 24.572v0s-1.21-1.741-1.723.185c-.512 1.926 1.196 2.77 1.894 2.566a.974.974 0 0 0 .65-.985"/></g><g><path fill="#fff" d="M38.754 26.635s-1.429.523-1.694.066"/><path fill="none" stroke="#263238" stroke-linecap="round" stroke-linejoin="round" stroke-miterlimit="20" stroke-width=".5" d="M38.754 26.635s-1.429.523-1.694.066"/></g><g><path fill="#fff" d="M34.78 21.201s.32-1.203 1.174-.781"/><path fill="none" stroke="#263238" stroke-linecap="round" stroke-linejoin="round" stroke-miterlimit="20" stroke-width=".5" d="M34.78 21.201s.32-1.203 1.174-.781"/></g><g><path fill="none" stroke="#263238" stroke-linecap="round" stroke-linejoin="round" stroke-miterlimit="20" stroke-width=".5" d="M32.89 27.32s1.029 1.454 2.18 2.028"/></g><g><path fill="#263238" d="M36.372 22.167c.12.287.116.563 0 .618-.116.054-.323-.142-.443-.429-.12-.287-.117-.567 0-.618.116-.05.323.142.443.429z"/></g><g><path fill="#adc7f7" d="M30.12 31.7l5.783 3.635s4.361 10.122 7.883 17.718c3.522 7.597 4.3 10.432 4.3 10.432a50.848 50.848 0 0 1-8.36 2.286 55.974 55.974 0 0 1-8.64.763s-3.834-18.827-4.288-24.214c-.454-5.386 3.322-10.62 3.322-10.62z"/><path fill="none" stroke="#263238" stroke-linecap="round" stroke-linejoin="round" stroke-miterlimit="20" stroke-width=".5" d="M30.12 31.7v0l5.783 3.635v0s4.361 10.122 7.883 17.718c3.522 7.597 4.3 10.432 4.3 10.432a50.848 50.848 0 0 1-8.36 2.286 55.974 55.974 0 0 1-8.64.763s-3.834-18.827-4.288-24.214c-.454-5.386 3.322-10.62 3.322-10.62z"/></g><g><path fill="#adc7f7" d="M28.91 33.631s4.91 4.17 5.427 4.464c.516.294 1.57-2.748 1.57-2.748s-5.034-3.559-5.783-3.635c-.749-.076-1.214 1.92-1.214 1.92z"/><path fill="none" stroke="#263238" stroke-linecap="round" stroke-linejoin="round" stroke-miterlimit="20" stroke-width=".5" d="M28.91 33.631v0s4.91 4.17 5.427 4.464c.516.294 1.57-2.748 1.57-2.748v0s-5.034-3.559-5.783-3.635c-.749-.076-1.214 1.92-1.214 1.92z"/></g><g><path fill="none" stroke="#263238" stroke-linecap="round" stroke-linejoin="round" stroke-miterlimit="20" stroke-width=".5" d="M38.79 42.19l-1.81.494"/></g><g><path fill="none" stroke="#263238" stroke-linecap="round" stroke-linejoin="round" stroke-miterlimit="20" stroke-width=".5" d="M39.86 44.33l-1.81.494"/></g><g><path fill="none" stroke="#263238" stroke-linecap="round" stroke-linejoin="round" stroke-miterlimit="20" stroke-width=".5" d="M31.3 64.698a44.183 44.183 0 0 0 6.906-.55l3.49-.588v0"/></g><g><path fill="none" stroke="#263238" stroke-linecap="round" stroke-linejoin="round" stroke-miterlimit="20" stroke-width=".5" d="M43.07 63.177l3.024-1.167"/></g><g><path fill="none" stroke="#263238" stroke-linecap="round" stroke-linejoin="round" stroke-miterlimit="20" stroke-width=".5" d="M42.86 53.5l2.671 6.212"/></g><g><path fill="none" stroke="#263238" stroke-linecap="round" stroke-linejoin="round" stroke-miterlimit="20" stroke-width=".5" d="M29.45 49l2.631.582"/></g><g><path fill="none" stroke="#263238" stroke-linecap="round" stroke-linejoin="round" stroke-miterlimit="20" stroke-width=".5" d="M29.65 51.508s2.18-.473 2.824-1.258"/></g><g><path fill="none" stroke="#263238" stroke-linecap="round" stroke-linejoin="round" stroke-miterlimit="20" stroke-width=".5" d="M30.222 39.78s-.062-2.908.596-4.06"/></g><g><path fill="none" stroke="#263238" stroke-linecap="round" stroke-linejoin="round" stroke-miterlimit="20" stroke-width=".5" d="M31.829 36.3l-.709 1.41"/></g><g transform="rotate(-3.92 60.5 41)"><path fill="#fff" d="M43.09 19.48h34.892v42.889H43.09z"/></g><g><g/><g><path fill="#adc7f7" d="M78.199 20.574a.694.694 0 0 0-1.32-.302.694.694 0 0 0-1.319.302c0 .44.49.854.829 1.09.188.117.362.255.52.411a1.9 1.9 0 0 1 .548-.465c.403-.202.68-.59.742-1.036z"/></g><g><path fill="#adc7f7" d="M81.859 16.914a.694.694 0 0 0-1.32-.302.694.694 0 0 0-1.319.302c0 .44.49.854.829 1.09.188.117.362.255.52.411a1.9 1.9 0 0 1 .548-.465c.403-.202.68-.59.742-1.036z"/></g><g/><g/><g><path fill="#adc7f7" d="M78.199 27.264a.694.694 0 0 0-1.32-.302.694.694 0 0 0-1.319.302c0 .436.49.85.829 1.072.188.117.362.255.52.411a1.9 1.9 0 0 1 .548-.465c.399-.198.675-.578.742-1.018z"/></g><g><path fill="#adc7f7" d="M81.854 23.624a.694.694 0 0 0-1.32-.302.694.694 0 0 0-1.304.302c0 .436.49.85.829 1.09.188.117.362.255.52.411.151-.188.337-.346.548-.465.398-.205.67-.592.727-1.036z"/></g><g/><g/><g><path fill="#adc7f7" d="M78.199 33.954a.694.694 0 0 0-1.32-.302.694.694 0 0 0-1.319.302c0 .44.49.854.829 1.09.188.117.362.255.52.411.151-.188.337-.346.548-.465.403-.202.68-.59.742-1.036z"/></g><g><path fill="#adc7f7" d="M81.859 30.294a.694.694 0 0 0-1.32-.302.694.694 0 0 0-1.319.302c0 .44.49.854.829 1.09.188.117.362.255.52.411.151-.188.337-.346.548-.465.403-.202.68-.59.742-1.036z"/></g><g/><g/><g><path fill="#adc7f7" d="M78.199 40.654a.694.694 0 0 0-1.32-.302.694.694 0 0 0-1.319.302c0 .436.49.85.829 1.09.188.117.362.255.52.411a1.9 1.9 0 0 1 .548-.465c.404-.201.681-.59.742-1.036z"/></g><g><path fill="#adc7f7" d="M81.859 36.994a.694.694 0 0 0-1.32-.302.694.694 0 0 0-1.319.302c0 .436.49.85.829 1.072.188.117.362.255.52.411a1.9 1.9 0 0 1 .548-.465c.399-.198.675-.578.742-1.018z"/></g><g/><g/><g><path fill="#adc7f7" d="M78.199 47.344a.694.694 0 0 0-1.32-.302.694.694 0 0 0-1.319.302c0 .44.49.854.829 1.09.188.117.362.255.52.411.151-.188.337-.346.548-.465.403-.202.68-.59.742-1.036z"/></g><g><path fill="#adc7f7" d="M81.859 43.684a.694.694 0 0 0-1.32-.302.694.694 0 0 0-1.319.302c0 .44.49.854.829 1.09.188.117.362.255.52.411.151-.188.337-.346.548-.465.403-.202.68-.59.742-1.036z"/></g><g/><g/><g><path fill="#adc7f7" d="M78.199 54.044a.694.694 0 0 0-1.32-.302.694.694 0 0 0-1.319.302c0 .436.49.85.829 1.072.188.117.362.255.52.411a1.9 1.9 0 0 1 .548-.465c.399-.198.675-.578.742-1.018z"/></g><g><path fill="#adc7f7" d="M81.859 50.384a.694.694 0 0 0-1.32-.302.694.694 0 0 0-1.319.302c0 .436.49.85.829 1.072.188.117.362.255.52.411a1.9 1.9 0 0 1 .548-.465c.399-.198.675-.578.742-1.018z"/></g><g/><g/><g><path fill="#adc7f7" d="M78.199 60.734a.694.694 0 0 0-1.32-.302.694.694 0 0 0-1.319.302c0 .44.49.854.829 1.09.188.117.362.255.52.411a1.9 1.9 0 0 1 .548-.465c.403-.202.68-.59.742-1.036z"/></g><g><path fill="#adc7f7" d="M81.854 57.064a.694.694 0 0 0-1.32-.302.694.694 0 0 0-1.304.302c0 .44.49.854.829 1.09.188.117.362.255.52.411.151-.188.337-.346.548-.465a1.37 1.37 0 0 0 .727-1.036z"/></g><g/><g/><g><path fill="#adc7f7" d="M78.199 67.424a.694.694 0 0 0-1.32-.302.694.694 0 0 0-1.319.302c0 .436.49.85.829 1.072.188.117.362.255.52.411a1.9 1.9 0 0 1 .548-.465c.399-.198.675-.578.742-1.018z"/></g><g><path fill="#adc7f7" d="M81.859 63.764a.694.694 0 0 0-1.32-.302.694.694 0 0 0-1.319.302c0 .436.49.85.829 1.072.188.117.362.255.52.411a1.9 1.9 0 0 1 .548-.465c.399-.198.675-.578.742-1.018z"/></g><g/><g/><g><path fill="#adc7f7" d="M70.919 20.574a.694.694 0 0 0-1.32-.302.694.694 0 0 0-1.319.302c0 .44.49.854.829 1.09.188.117.362.255.52.411a1.9 1.9 0 0 1 .548-.465c.403-.202.68-.59.742-1.036z"/></g><g><path fill="#adc7f7" d="M74.579 16.914a.694.694 0 0 0-1.32-.302.694.694 0 0 0-1.319.302c0 .44.49.854.829 1.09.188.117.362.255.52.411a1.9 1.9 0 0 1 .548-.465c.403-.202.68-.59.742-1.036z"/></g><g/><g/><g><path fill="#adc7f7" d="M70.919 27.264a.694.694 0 0 0-1.32-.302.694.694 0 0 0-1.319.302c0 .436.49.85.829 1.072.188.117.362.255.52.411a1.9 1.9 0 0 1 .548-.465c.399-.198.675-.578.742-1.018z"/></g><g><path fill="#adc7f7" d="M74.579 23.624a.694.694 0 0 0-1.32-.302.694.694 0 0 0-1.319.302c0 .436.49.85.829 1.09.188.117.362.255.52.411.151-.188.337-.346.548-.465.404-.201.681-.59.742-1.036z"/></g><g/><g/><g><path fill="#adc7f7" d="M70.919 33.954a.694.694 0 0 0-1.32-.302.694.694 0 0 0-1.319.302c0 .44.49.854.829 1.09.188.117.362.255.52.411.151-.188.337-.346.548-.465.403-.202.68-.59.742-1.036z"/></g><g><path fill="#adc7f7" d="M74.579 30.294a.694.694 0 0 0-1.32-.302.694.694 0 0 0-1.319.302c0 .44.49.854.829 1.09.188.117.362.255.52.411.151-.188.337-.346.548-.465.403-.202.68-.59.742-1.036z"/></g><g/><g/><g><path fill="#adc7f7" d="M70.919 40.654a.694.694 0 0 0-1.32-.302.694.694 0 0 0-1.319.302c0 .436.49.85.829 1.09.188.117.362.255.52.411a1.9 1.9 0 0 1 .548-.465c.404-.201.681-.59.742-1.036z"/></g><g><path fill="#adc7f7" d="M74.579 36.994a.694.694 0 0 0-1.32-.302.694.694 0 0 0-1.319.302c0 .436.49.85.829 1.072.188.117.362.255.52.411a1.9 1.9 0 0 1 .548-.465c.399-.198.675-.578.742-1.018z"/></g><g/><g/><g><path fill="#adc7f7" d="M70.919 47.344a.694.694 0 0 0-1.32-.302.694.694 0 0 0-1.319.302c0 .44.49.854.829 1.09.188.117.362.255.52.411.151-.188.337-.346.548-.465.403-.202.68-.59.742-1.036z"/></g><g><path fill="#adc7f7" d="M74.579 43.684a.694.694 0 0 0-1.32-.302.694.694 0 0 0-1.319.302c0 .44.49.854.829 1.09.188.117.362.255.52.411.151-.188.337-.346.548-.465.403-.202.68-.59.742-1.036z"/></g><g/><g/><g><path fill="#adc7f7" d="M70.919 54.044a.694.694 0 0 0-1.32-.302.694.694 0 0 0-1.319.302c0 .436.49.85.829 1.072.188.117.362.255.52.411a1.9 1.9 0 0 1 .548-.465c.399-.198.675-.578.742-1.018z"/></g><g><path fill="#adc7f7" d="M74.579 50.384a.694.694 0 0 0-1.32-.302.694.694 0 0 0-1.319.302c0 .436.49.85.829 1.072.188.117.362.255.52.411a1.9 1.9 0 0 1 .548-.465c.399-.198.675-.578.742-1.018z"/></g><g/><g/><g><path fill="#adc7f7" d="M70.919 60.734a.694.694 0 0 0-1.32-.302.694.694 0 0 0-1.319.302c0 .44.49.854.829 1.09.188.117.362.255.52.411a1.9 1.9 0 0 1 .548-.465c.403-.202.68-.59.742-1.036z"/></g><g><path fill="#adc7f7" d="M74.579 57.064a.694.694 0 0 0-1.32-.302.694.694 0 0 0-1.319.302c0 .44.49.854.829 1.09.188.117.362.255.52.411a1.9 1.9 0 0 1 .548-.465c.403-.202.68-.59.742-1.036z"/></g><g/><g/><g><path fill="#adc7f7" d="M70.919 67.424a.694.694 0 0 0-1.32-.302.694.694 0 0 0-1.319.302c0 .436.49.85.829 1.072.188.117.362.255.52.411a1.9 1.9 0 0 1 .548-.465c.399-.198.675-.578.742-1.018z"/></g><g><path fill="#adc7f7" d="M74.579 63.764a.694.694 0 0 0-1.32-.302.694.694 0 0 0-1.319.302c0 .436.49.85.829 1.072.188.117.362.255.52.411a1.9 1.9 0 0 1 .548-.465c.399-.198.675-.578.742-1.018z"/></g><g/><g/><g><path fill="#adc7f7" d="M63.639 20.574a.694.694 0 0 0-1.32-.302.694.694 0 0 0-1.319.302c0 .44.49.854.829 1.09.188.117.362.255.52.411a1.9 1.9 0 0 1 .548-.465c.403-.202.68-.59.742-1.036z"/></g><g><path fill="#adc7f7" d="M67.299 16.914a.694.694 0 0 0-1.32-.302.694.694 0 0 0-1.319.302c0 .44.49.854.829 1.09.188.117.362.255.52.411a1.9 1.9 0 0 1 .548-.465c.403-.202.68-.59.742-1.036z"/></g><g/><g/><g><path fill="#adc7f7" d="M63.639 27.264a.694.694 0 0 0-1.32-.302.694.694 0 0 0-1.319.302c0 .436.49.85.829 1.072.188.117.362.255.52.411a1.9 1.9 0 0 1 .548-.465c.399-.198.675-.578.742-1.018z"/></g><g><path fill="#adc7f7" d="M67.299 23.624a.694.694 0 0 0-1.32-.302.694.694 0 0 0-1.319.302c0 .436.49.85.829 1.09.188.117.362.255.52.411.151-.188.337-.346.548-.465.404-.201.681-.59.742-1.036z"/></g><g/><g/><g><path fill="#adc7f7" d="M63.639 33.954a.694.694 0 0 0-1.32-.302.694.694 0 0 0-1.319.302c0 .44.49.854.829 1.09.188.117.362.255.52.411.151-.188.337-.346.548-.465.403-.202.68-.59.742-1.036z"/></g><g><path fill="#adc7f7" d="M67.299 30.294a.694.694 0 0 0-1.32-.302.694.694 0 0 0-1.319.302c0 .44.49.854.829 1.09.188.117.362.255.52.411.151-.188.337-.346.548-.465.403-.202.68-.59.742-1.036z"/></g><g/><g/><g><path fill="#adc7f7" d="M63.639 40.654a.694.694 0 0 0-1.32-.302.694.694 0 0 0-1.319.302c0 .436.49.85.829 1.09.188.117.362.255.52.411a1.9 1.9 0 0 1 .548-.465c.404-.201.681-.59.742-1.036z"/></g><g><path fill="#adc7f7" d="M67.299 36.994a.694.694 0 0 0-1.32-.302.694.694 0 0 0-1.319.302c0 .436.49.85.829 1.072.188.117.362.255.52.411a1.9 1.9 0 0 1 .548-.465c.399-.198.675-.578.742-1.018z"/></g><g/><g/><g><path fill="#adc7f7" d="M63.639 47.344a.694.694 0 0 0-1.32-.302.694.694 0 0 0-1.319.302c0 .44.49.854.829 1.09.188.117.362.255.52.411.151-.188.337-.346.548-.465.403-.202.68-.59.742-1.036z"/></g><g><path fill="#adc7f7" d="M67.299 43.684a.694.694 0 0 0-1.32-.302.694.694 0 0 0-1.319.302c0 .44.49.854.829 1.09.188.117.362.255.52.411.151-.188.337-.346.548-.465.403-.202.68-.59.742-1.036z"/></g><g/><g/><g><path fill="#adc7f7" d="M63.639 54.044a.694.694 0 0 0-1.32-.302.694.694 0 0 0-1.319.302c0 .436.49.85.829 1.072.188.117.362.255.52.411a1.9 1.9 0 0 1 .548-.465c.399-.198.675-.578.742-1.018z"/></g><g><path fill="#adc7f7" d="M67.299 50.384a.694.694 0 0 0-1.32-.302.694.694 0 0 0-1.319.302c0 .436.49.85.829 1.072.188.117.362.255.52.411a1.9 1.9 0 0 1 .548-.465c.399-.198.675-.578.742-1.018z"/></g><g/><g/><g><path fill="#adc7f7" d="M63.639 60.734a.694.694 0 0 0-1.32-.302.694.694 0 0 0-1.319.302c0 .44.49.854.829 1.09.188.117.362.255.52.411a1.9 1.9 0 0 1 .548-.465c.403-.202.68-.59.742-1.036z"/></g><g><path fill="#adc7f7" d="M67.299 57.064a.694.694 0 0 0-1.32-.302.694.694 0 0 0-1.319.302c0 .44.49.854.829 1.09.188.117.362.255.52.411a1.9 1.9 0 0 1 .548-.465c.403-.202.68-.59.742-1.036z"/></g><g/><g/><g><path fill="#adc7f7" d="M63.639 67.424a.694.694 0 0 0-1.32-.302.694.694 0 0 0-1.319.302c0 .436.49.85.829 1.072.188.117.362.255.52.411a1.9 1.9 0 0 1 .548-.465c.399-.198.675-.578.742-1.018z"/></g><g><path fill="#adc7f7" d="M67.299 63.764a.694.694 0 0 0-1.32-.302.694.694 0 0 0-1.319.302c0 .436.49.85.829 1.072.188.117.362.255.52.411a1.9 1.9 0 0 1 .548-.465c.399-.198.675-.578.742-1.018z"/></g><g/><g/><g><path fill="#adc7f7" d="M56.359 20.574a.694.694 0 0 0-1.32-.302.694.694 0 0 0-1.319.302c0 .44.49.854.829 1.09.188.117.362.255.52.411a1.9 1.9 0 0 1 .548-.465c.403-.202.68-.59.742-1.036z"/></g><g><path fill="#adc7f7" d="M60.019 16.914a.694.694 0 0 0-1.32-.302.694.694 0 0 0-1.319.302c0 .44.49.854.829 1.09.188.117.362.255.52.411a1.9 1.9 0 0 1 .548-.465c.403-.202.68-.59.742-1.036z"/></g><g/><g/><g><path fill="#adc7f7" d="M56.359 27.264a.694.694 0 0 0-1.32-.302.694.694 0 0 0-1.319.302c0 .436.49.85.829 1.072.188.117.362.255.52.411a1.9 1.9 0 0 1 .548-.465c.399-.198.675-.578.742-1.018z"/></g><g><path fill="#adc7f7" d="M60.019 23.624a.694.694 0 0 0-1.32-.302.694.694 0 0 0-1.319.302c0 .436.49.85.829 1.09.188.117.362.255.52.411.151-.188.337-.346.548-.465.404-.201.681-.59.742-1.036z"/></g><g/><g/><g><path fill="#adc7f7" d="M56.359 33.954a.694.694 0 0 0-1.32-.302.694.694 0 0 0-1.319.302c0 .44.49.854.829 1.09.188.117.362.255.52.411.151-.188.337-.346.548-.465.403-.202.68-.59.742-1.036z"/></g><g><path fill="#adc7f7" d="M60.019 30.294a.694.694 0 0 0-1.32-.302.694.694 0 0 0-1.319.302c0 .44.49.854.829 1.09.188.117.362.255.52.411.151-.188.337-.346.548-.465.403-.202.68-.59.742-1.036z"/></g><g/><g/><g><path fill="#adc7f7" d="M56.359 40.654a.694.694 0 0 0-1.32-.302.694.694 0 0 0-1.319.302c0 .436.49.85.829 1.09.188.117.362.255.52.411a1.9 1.9 0 0 1 .548-.465c.404-.201.681-.59.742-1.036z"/></g><g><path fill="#adc7f7" d="M60.019 36.994a.694.694 0 0 0-1.32-.302.694.694 0 0 0-1.319.302c0 .436.49.85.829 1.072.188.117.362.255.52.411a1.9 1.9 0 0 1 .548-.465c.399-.198.675-.578.742-1.018z"/></g><g/><g/><g><path fill="#adc7f7" d="M56.359 47.344a.694.694 0 0 0-1.32-.302.694.694 0 0 0-1.319.302c0 .44.49.854.829 1.09.188.117.362.255.52.411.151-.188.337-.346.548-.465.403-.202.68-.59.742-1.036z"/></g><g><path fill="#adc7f7" d="M60.019 43.684a.694.694 0 0 0-1.32-.302.694.694 0 0 0-1.319.302c0 .44.49.854.829 1.09.188.117.362.255.52.411.151-.188.337-.346.548-.465.403-.202.68-.59.742-1.036z"/></g><g/><g/><g><path fill="#adc7f7" d="M56.359 54.044a.694.694 0 0 0-1.32-.302.694.694 0 0 0-1.319.302c0 .436.49.85.829 1.072.188.117.362.255.52.411a1.9 1.9 0 0 1 .548-.465c.399-.198.675-.578.742-1.018z"/></g><g><path fill="#adc7f7" d="M60.019 50.384a.694.694 0 0 0-1.32-.302.694.694 0 0 0-1.319.302c0 .436.49.85.829 1.072.188.117.362.255.52.411a1.9 1.9 0 0 1 .548-.465c.399-.198.675-.578.742-1.018z"/></g><g/><g/><g><path fill="#adc7f7" d="M56.359 60.734a.694.694 0 0 0-1.32-.302.694.694 0 0 0-1.319.302c0 .44.49.854.829 1.09.188.117.362.255.52.411a1.9 1.9 0 0 1 .541-.48 1.37 1.37 0 0 0 .749-1.02z"/></g><g><path fill="#adc7f7" d="M60.019 57.064a.694.694 0 0 0-1.32-.302.694.694 0 0 0-1.319.302c0 .44.49.854.829 1.09.188.117.362.255.52.411a1.9 1.9 0 0 1 .548-.465c.403-.202.68-.59.742-1.036z"/></g><g/><g/><g><path fill="#adc7f7" d="M56.359 67.424a.694.694 0 0 0-1.32-.302.694.694 0 0 0-1.319.302c0 .436.49.85.829 1.072.188.117.362.255.52.411a1.9 1.9 0 0 1 .548-.465c.399-.198.675-.578.742-1.018z"/></g><g><path fill="#adc7f7" d="M60.019 63.764a.694.694 0 0 0-1.32-.302.694.694 0 0 0-1.319.302c0 .436.49.85.829 1.072.188.117.362.255.52.411a1.9 1.9 0 0 1 .548-.465c.399-.198.675-.578.742-1.018z"/></g><g/><g/><g><path fill="#adc7f7" d="M49.069 20.574a.694.694 0 0 0-1.32-.302.694.694 0 0 0-1.319.302c0 .44.49.854.829 1.09.188.117.362.255.52.411a1.9 1.9 0 0 1 .548-.465c.403-.202.68-.59.742-1.036z"/></g><g><path fill="#adc7f7" d="M52.739 16.914a.694.694 0 0 0-1.32-.302.694.694 0 0 0-1.319.302c0 .44.49.854.829 1.09.188.117.362.255.52.411a1.9 1.9 0 0 1 .548-.465c.402-.203.679-.59.742-1.036z"/></g><g/><g/><g><path fill="#adc7f7" d="M49.069 27.264a.694.694 0 0 0-1.32-.302.694.694 0 0 0-1.319.302c0 .436.49.85.829 1.072.188.117.362.255.52.411a1.9 1.9 0 0 1 .548-.465c.399-.198.675-.578.742-1.018z"/></g><g><path fill="#adc7f7" d="M52.739 23.624a.694.694 0 0 0-1.32-.302.694.694 0 0 0-1.319.302c0 .436.49.85.829 1.09.188.117.362.255.52.411.151-.188.337-.346.548-.465.403-.202.68-.59.742-1.036z"/></g><g/><g/><g><path fill="#adc7f7" d="M49.069 33.954a.694.694 0 0 0-1.32-.302.694.694 0 0 0-1.319.302c0 .44.49.854.829 1.09.188.117.362.255.52.411.151-.188.337-.346.548-.465.403-.202.68-.59.742-1.036z"/></g><g><path fill="#adc7f7" d="M52.739 30.294a.694.694 0 0 0-1.32-.302.694.694 0 0 0-1.319.302c0 .44.49.854.829 1.09.188.117.362.255.52.411.151-.188.337-.346.548-.465.402-.203.679-.59.742-1.036z"/></g><g/><g/><g><path fill="#adc7f7" d="M49.069 40.654a.694.694 0 0 0-1.32-.302.694.694 0 0 0-1.319.302c0 .436.49.85.829 1.09.188.117.362.255.52.411a1.9 1.9 0 0 1 .548-.465c.404-.201.681-.59.742-1.036z"/></g><g><path fill="#adc7f7" d="M52.739 36.994a.694.694 0 0 0-1.32-.302.694.694 0 0 0-1.319.302c0 .436.49.85.829 1.072.188.117.362.255.52.411a1.9 1.9 0 0 1 .548-.465 1.37 1.37 0 0 0 .742-1.018z"/></g><g/><g/><g><path fill="#adc7f7" d="M49.069 47.344a.694.694 0 0 0-1.32-.302.694.694 0 0 0-1.319.302c0 .44.49.854.829 1.09.188.117.362.255.52.411.151-.188.337-.346.548-.465.403-.202.68-.59.742-1.036z"/></g><g><path fill="#adc7f7" d="M52.739 43.684a.694.694 0 0 0-1.32-.302.694.694 0 0 0-1.319.302c0 .44.49.854.829 1.09.188.117.362.255.52.411.151-.188.337-.346.548-.465.402-.203.679-.59.742-1.036z"/></g><g/><g/><g><path fill="#adc7f7" d="M49.069 54.044a.694.694 0 0 0-1.32-.302.694.694 0 0 0-1.319.302c0 .436.49.85.829 1.072.188.117.362.255.52.411a1.9 1.9 0 0 1 .548-.465c.399-.198.675-.578.742-1.018z"/></g><g><path fill="#adc7f7" d="M52.739 50.384a.694.694 0 0 0-1.32-.302.694.694 0 0 0-1.319.302c0 .436.49.85.829 1.072.188.117.362.255.52.411a1.9 1.9 0 0 1 .548-.465 1.37 1.37 0 0 0 .742-1.018z"/></g><g/><g/><g><path fill="#adc7f7" d="M49.069 60.734a.694.694 0 0 0-1.32-.302.694.694 0 0 0-1.319.302c0 .44.49.854.829 1.09.188.117.362.255.52.411a1.9 1.9 0 0 1 .563-.48 1.37 1.37 0 0 0 .727-1.02z"/></g><g><path fill="#adc7f7" d="M52.739 57.064a.694.694 0 0 0-1.32-.302.694.694 0 0 0-1.319.302c0 .44.49.854.829 1.09.188.117.362.255.52.411a1.9 1.9 0 0 1 .548-.465c.402-.203.679-.59.742-1.036z"/></g><g/><g/><g><path fill="#adc7f7" d="M49.069 67.424a.694.694 0 0 0-1.32-.302.694.694 0 0 0-1.319.302c0 .436.49.85.829 1.072.188.117.362.255.52.411a1.9 1.9 0 0 1 .548-.465c.399-.198.675-.578.742-1.018z"/></g><g><path fill="#adc7f7" d="M52.739 63.764a.694.694 0 0 0-1.32-.302.694.694 0 0 0-1.319.302c0 .436.49.85.829 1.072.188.117.362.255.52.411a1.9 1.9 0 0 1 .548-.465 1.37 1.37 0 0 0 .742-1.018z"/></g><g/><g/><g><path fill="#adc7f7" d="M41.799 20.574a.694.694 0 0 0-1.32-.302.694.694 0 0 0-1.319.302c0 .44.49.854.829 1.09.188.117.362.255.52.411a1.9 1.9 0 0 1 .548-.465c.402-.203.679-.59.742-1.036z"/></g><g><path fill="#adc7f7" d="M45.459 16.914a.694.694 0 0 0-1.32-.302.694.694 0 0 0-1.319.302c0 .44.49.854.829 1.09.188.117.362.255.52.411a1.9 1.9 0 0 1 .548-.465c.402-.203.679-.59.742-1.036z"/></g><g/><g/><g><path fill="#adc7f7" d="M41.799 27.264a.694.694 0 0 0-1.32-.302.694.694 0 0 0-1.319.302c0 .436.49.85.829 1.072.188.117.362.255.52.411a1.9 1.9 0 0 1 .548-.465 1.37 1.37 0 0 0 .742-1.018z"/></g><g><path fill="#adc7f7" d="M45.459 23.624a.694.694 0 0 0-1.32-.302.694.694 0 0 0-1.319.302c0 .436.49.85.829 1.09.188.117.362.255.52.411.151-.188.337-.346.548-.465.403-.202.68-.59.742-1.036z"/></g><g/><g/><g><path fill="#adc7f7" d="M41.799 33.954a.694.694 0 0 0-1.32-.302.694.694 0 0 0-1.319.302c0 .44.49.854.829 1.09.188.117.362.255.52.411.151-.188.337-.346.548-.465.402-.203.679-.59.742-1.036z"/></g><g><path fill="#adc7f7" d="M45.459 30.294a.694.694 0 0 0-1.32-.302.694.694 0 0 0-1.319.302c0 .44.49.854.829 1.09.188.117.362.255.52.411.151-.188.337-.346.548-.465.402-.203.679-.59.742-1.036z"/></g><g/><g/><g><path fill="#adc7f7" d="M41.799 40.654a.694.694 0 0 0-1.32-.302.694.694 0 0 0-1.319.302c0 .436.49.85.829 1.09.188.117.362.255.52.411a1.9 1.9 0 0 1 .548-.465c.403-.202.68-.59.742-1.036z"/></g><g><path fill="#adc7f7" d="M45.459 36.994a.694.694 0 0 0-1.32-.302.694.694 0 0 0-1.319.302c0 .436.49.85.829 1.072.188.117.362.255.52.411a1.9 1.9 0 0 1 .548-.465 1.37 1.37 0 0 0 .742-1.018z"/></g><g/><g/><g><path fill="#adc7f7" d="M41.799 47.344a.694.694 0 0 0-1.32-.302.694.694 0 0 0-1.319.302c0 .44.49.854.829 1.09.188.117.362.255.52.411.151-.188.337-.346.548-.465.402-.203.679-.59.742-1.036z"/></g><g><path fill="#adc7f7" d="M45.459 43.684a.694.694 0 0 0-1.32-.302.694.694 0 0 0-1.319.302c0 .44.49.854.829 1.09.188.117.362.255.52.411a1.9 1.9 0 0 1 .537-.48c.402-.197.683-.578.753-1.02z"/></g><g/><g/><g><path fill="#adc7f7" d="M41.799 54.044a.694.694 0 0 0-1.32-.302.694.694 0 0 0-1.319.302c0 .436.49.85.829 1.072.188.117.362.255.52.411a1.9 1.9 0 0 1 .548-.465 1.37 1.37 0 0 0 .742-1.018z"/></g><g><path fill="#adc7f7" d="M45.459 50.384a.694.694 0 0 0-1.32-.302.694.694 0 0 0-1.319.302c0 .436.49.85.829 1.072.188.117.362.255.52.411a1.9 1.9 0 0 1 .548-.465 1.37 1.37 0 0 0 .742-1.018z"/></g><g/><g/><g><path fill="#adc7f7" d="M41.799 60.734a.694.694 0 0 0-1.32-.302.694.694 0 0 0-1.319.302c0 .44.49.854.829 1.09.188.117.362.255.52.411a1.9 1.9 0 0 1 .563-.48c.392-.204.662-.584.727-1.02z"/></g><g><path fill="#adc7f7" d="M45.459 57.064a.694.694 0 0 0-1.32-.302.694.694 0 0 0-1.319.302c0 .44.49.854.829 1.09.188.117.362.255.52.411a1.9 1.9 0 0 1 .548-.465c.402-.203.679-.59.742-1.036z"/></g><g/><g/><g><path fill="#adc7f7" d="M41.799 67.424a.694.694 0 0 0-1.32-.302.694.694 0 0 0-1.319.302c0 .436.49.85.829 1.072.188.117.362.255.52.411a1.9 1.9 0 0 1 .548-.465 1.37 1.37 0 0 0 .742-1.018z"/></g><g><path fill="#adc7f7" d="M45.459 63.764a.694.694 0 0 0-1.32-.302.694.694 0 0 0-1.319.302c0 .436.49.85.829 1.072.188.117.362.255.52.411a1.9 1.9 0 0 1 .548-.465 1.37 1.37 0 0 0 .742-1.018z"/></g><g/></g><g transform="rotate(-3.92 60.5 41)"><path fill="none" stroke="#263238" stroke-linecap="round" stroke-linejoin="round" stroke-miterlimit="20" stroke-width=".5" d="M43.09 19.48v0h34.892v42.889H43.09v0z"/></g><g transform="rotate(-3.92 59 22.5)"><path fill="#263238" d="M41.85 19.52h34.892v6.259H41.85z"/><path fill="none" stroke="#263238" stroke-linecap="round" stroke-linejoin="round" stroke-miterlimit="20" stroke-width=".5" d="M41.85 19.52v0h34.892v6.259H41.85v0z"/></g><g transform="rotate(-3.92 59 20.5)"><path fill="#fff" d="M39.99 16.37h38.284v7.996H39.99z"/></g><g><g/><g><path fill="#adc7f7" d="M78.199 13.884a.694.694 0 0 0-1.32-.302.694.694 0 0 0-1.319.302c0 .436.49.85.829 1.072.188.117.362.255.52.411a1.9 1.9 0 0 1 .548-.465 1.37 1.37 0 0 0 .742-1.018z"/></g><g><path fill="#adc7f7" d="M81.859 10.224a.694.694 0 0 0-1.32-.302.694.694 0 0 0-1.319.302c0 .436.49.85.829 1.072.188.117.362.255.52.411a1.9 1.9 0 0 1 .548-.465c.399-.198.675-.578.742-1.018z"/></g><g/><g/><g><path fill="#adc7f7" d="M78.199 20.574a.694.694 0 0 0-1.32-.302.694.694 0 0 0-1.319.302c0 .44.49.854.829 1.09.188.117.362.255.52.411a1.9 1.9 0 0 1 .548-.465c.403-.202.68-.59.742-1.036z"/></g><g><path fill="#adc7f7" d="M81.859 16.914a.694.694 0 0 0-1.32-.302.694.694 0 0 0-1.319.302c0 .44.49.854.829 1.09.188.117.362.255.52.411a1.9 1.9 0 0 1 .548-.465c.403-.202.68-.59.742-1.036z"/></g><g/><g/><g><path fill="#adc7f7" d="M78.199 27.264a.694.694 0 0 0-1.32-.302.694.694 0 0 0-1.319.302c0 .436.49.85.829 1.072.188.117.362.255.52.411a1.9 1.9 0 0 1 .548-.465c.399-.198.675-.578.742-1.018z"/></g><g><path fill="#adc7f7" d="M81.854 23.624a.694.694 0 0 0-1.32-.302.694.694 0 0 0-1.304.302c0 .436.49.85.829 1.09.188.117.362.255.52.411.151-.188.337-.346.548-.465.398-.205.67-.592.727-1.036z"/></g><g/><g/><g><path fill="#adc7f7" d="M70.919 13.884a.694.694 0 0 0-1.32-.302.694.694 0 0 0-1.319.302c0 .436.49.85.829 1.072.188.117.362.255.52.411a1.9 1.9 0 0 1 .548-.465 1.37 1.37 0 0 0 .742-1.018z"/></g><g><path fill="#adc7f7" d="M74.579 10.224a.694.694 0 0 0-1.32-.302.694.694 0 0 0-1.319.302c0 .436.49.85.829 1.072.188.117.362.255.52.411a1.9 1.9 0 0 1 .548-.465c.399-.198.675-.578.742-1.018z"/></g><g/><g/><g><path fill="#adc7f7" d="M70.919 20.574a.694.694 0 0 0-1.32-.302.694.694 0 0 0-1.319.302c0 .44.49.854.829 1.09.188.117.362.255.52.411a1.9 1.9 0 0 1 .548-.465c.403-.202.68-.59.742-1.036z"/></g><g><path fill="#adc7f7" d="M74.579 16.914a.694.694 0 0 0-1.32-.302.694.694 0 0 0-1.319.302c0 .44.49.854.829 1.09.188.117.362.255.52.411a1.9 1.9 0 0 1 .548-.465c.403-.202.68-.59.742-1.036z"/></g><g/><g/><g><path fill="#adc7f7" d="M70.919 27.264a.694.694 0 0 0-1.32-.302.694.694 0 0 0-1.319.302c0 .436.49.85.829 1.072.188.117.362.255.52.411a1.9 1.9 0 0 1 .548-.465c.399-.198.675-.578.742-1.018z"/></g><g><path fill="#adc7f7" d="M74.579 23.624a.694.694 0 0 0-1.32-.302.694.694 0 0 0-1.319.302c0 .436.49.85.829 1.09.188.117.362.255.52.411.151-.188.337-.346.548-.465.404-.201.681-.59.742-1.036z"/></g><g/><g/><g><path fill="#adc7f7" d="M63.639 13.884a.694.694 0 0 0-1.32-.302.694.694 0 0 0-1.319.302c0 .436.49.85.829 1.072.188.117.362.255.52.411a1.9 1.9 0 0 1 .548-.465 1.37 1.37 0 0 0 .742-1.018z"/></g><g><path fill="#adc7f7" d="M67.299 10.224a.694.694 0 0 0-1.32-.302.694.694 0 0 0-1.319.302c0 .436.49.85.829 1.072.188.117.362.255.52.411a1.9 1.9 0 0 1 .548-.465c.399-.198.675-.578.742-1.018z"/></g><g/><g/><g><path fill="#adc7f7" d="M63.639 20.574a.694.694 0 0 0-1.32-.302.694.694 0 0 0-1.319.302c0 .44.49.854.829 1.09.188.117.362.255.52.411a1.9 1.9 0 0 1 .548-.465c.403-.202.68-.59.742-1.036z"/></g><g><path fill="#adc7f7" d="M67.299 16.914a.694.694 0 0 0-1.32-.302.694.694 0 0 0-1.319.302c0 .44.49.854.829 1.09.188.117.362.255.52.411a1.9 1.9 0 0 1 .548-.465c.403-.202.68-.59.742-1.036z"/></g><g/><g/><g><path fill="#adc7f7" d="M63.639 27.264a.694.694 0 0 0-1.32-.302.694.694 0 0 0-1.319.302c0 .436.49.85.829 1.072.188.117.362.255.52.411a1.9 1.9 0 0 1 .548-.465c.399-.198.675-.578.742-1.018z"/></g><g><path fill="#adc7f7" d="M67.299 23.624a.694.694 0 0 0-1.32-.302.694.694 0 0 0-1.319.302c0 .436.49.85.829 1.09.188.117.362.255.52.411.151-.188.337-.346.548-.465.404-.201.681-.59.742-1.036z"/></g><g/><g/><g><path fill="#adc7f7" d="M56.359 13.884a.694.694 0 0 0-1.32-.302.694.694 0 0 0-1.319.302c0 .436.49.85.829 1.072.188.117.362.255.52.411a1.9 1.9 0 0 1 .541-.462 1.37 1.37 0 0 0 .749-1.02z"/></g><g><path fill="#adc7f7" d="M60.019 10.224a.694.694 0 0 0-1.32-.302.694.694 0 0 0-1.319.302c0 .436.49.85.829 1.072.188.117.362.255.52.411a1.9 1.9 0 0 1 .548-.465c.399-.198.675-.578.742-1.018z"/></g><g/><g/><g><path fill="#adc7f7" d="M56.359 20.574a.694.694 0 0 0-1.32-.302.694.694 0 0 0-1.319.302c0 .44.49.854.829 1.09.188.117.362.255.52.411a1.9 1.9 0 0 1 .548-.465c.403-.202.68-.59.742-1.036z"/></g><g><path fill="#adc7f7" d="M60.019 16.914a.694.694 0 0 0-1.32-.302.694.694 0 0 0-1.319.302c0 .44.49.854.829 1.09.188.117.362.255.52.411a1.9 1.9 0 0 1 .548-.465c.403-.202.68-.59.742-1.036z"/></g><g/><g/><g><path fill="#adc7f7" d="M56.359 27.264a.694.694 0 0 0-1.32-.302.694.694 0 0 0-1.319.302c0 .436.49.85.829 1.072.188.117.362.255.52.411a1.9 1.9 0 0 1 .548-.465c.399-.198.675-.578.742-1.018z"/></g><g><path fill="#adc7f7" d="M60.019 23.624a.694.694 0 0 0-1.32-.302.694.694 0 0 0-1.319.302c0 .436.49.85.829 1.09.188.117.362.255.52.411.151-.188.337-.346.548-.465.404-.201.681-.59.742-1.036z"/></g><g/><g/><g><path fill="#adc7f7" d="M49.069 13.884a.694.694 0 0 0-1.32-.302.694.694 0 0 0-1.319.302c0 .436.49.85.829 1.072.188.117.362.255.52.411a1.9 1.9 0 0 1 .563-.462 1.37 1.37 0 0 0 .727-1.02z"/></g><g><path fill="#adc7f7" d="M52.739 10.224a.694.694 0 0 0-1.32-.302.694.694 0 0 0-1.319.302c0 .436.49.85.829 1.072.188.117.362.255.52.411a1.9 1.9 0 0 1 .548-.465 1.37 1.37 0 0 0 .742-1.018z"/></g><g/><g/><g><path fill="#adc7f7" d="M49.069 20.574a.694.694 0 0 0-1.32-.302.694.694 0 0 0-1.319.302c0 .44.49.854.829 1.09.188.117.362.255.52.411a1.9 1.9 0 0 1 .548-.465c.403-.202.68-.59.742-1.036z"/></g><g><path fill="#adc7f7" d="M52.739 16.914a.694.694 0 0 0-1.32-.302.694.694 0 0 0-1.319.302c0 .44.49.854.829 1.09.188.117.362.255.52.411a1.9 1.9 0 0 1 .548-.465c.402-.203.679-.59.742-1.036z"/></g><g/><g/><g><path fill="#adc7f7" d="M49.069 27.264a.694.694 0 0 0-1.32-.302.694.694 0 0 0-1.319.302c0 .436.49.85.829 1.072.188.117.362.255.52.411a1.9 1.9 0 0 1 .548-.465c.399-.198.675-.578.742-1.018z"/></g><g><path fill="#adc7f7" d="M52.739 23.624a.694.694 0 0 0-1.32-.302.694.694 0 0 0-1.319.302c0 .436.49.85.829 1.09.188.117.362.255.52.411.151-.188.337-.346.548-.465.403-.202.68-.59.742-1.036z"/></g><g/><g/><g><path fill="#adc7f7" d="M41.799 13.884a.694.694 0 0 0-1.32-.302.694.694 0 0 0-1.319.302c0 .436.49.85.829 1.072.188.117.362.255.52.411a1.9 1.9 0 0 1 .563-.462c.392-.204.662-.584.727-1.02z"/></g><g><path fill="#adc7f7" d="M45.459 10.224a.694.694 0 0 0-1.32-.302.694.694 0 0 0-1.319.302c0 .436.49.85.829 1.072.188.117.362.255.52.411a1.9 1.9 0 0 1 .548-.465 1.37 1.37 0 0 0 .742-1.018z"/></g><g/><g/><g><path fill="#adc7f7" d="M41.799 20.574a.694.694 0 0 0-1.32-.302.694.694 0 0 0-1.319.302c0 .44.49.854.829 1.09.188.117.362.255.52.411a1.9 1.9 0 0 1 .548-.465c.402-.203.679-.59.742-1.036z"/></g><g><path fill="#adc7f7" d="M45.459 16.914a.694.694 0 0 0-1.32-.302.694.694 0 0 0-1.319.302c0 .44.49.854.829 1.09.188.117.362.255.52.411a1.9 1.9 0 0 1 .548-.465c.402-.203.679-.59.742-1.036z"/></g><g/><g/><g><path fill="#adc7f7" d="M41.799 27.264a.694.694 0 0 0-1.32-.302.694.694 0 0 0-1.319.302c0 .436.49.85.829 1.072.188.117.362.255.52.411a1.9 1.9 0 0 1 .548-.465 1.37 1.37 0 0 0 .742-1.018z"/></g><g><path fill="#adc7f7" d="M45.459 23.624a.694.694 0 0 0-1.32-.302.694.694 0 0 0-1.319.302c0 .436.49.85.829 1.09.188.117.362.255.52.411.151-.188.337-.346.548-.465.403-.202.68-.59.742-1.036z"/></g><g/></g><g transform="rotate(-3.92 59 20.5)"><path fill="none" stroke="#263238" stroke-linecap="round" stroke-linejoin="round" stroke-miterlimit="20" stroke-width=".5" d="M39.99 16.37v0h38.284v7.996H39.99v0z"/></g><g transform="rotate(-4.004 61 39.5)"><path fill="#adc7f7" d="M56.86 16.31h7.772v46.153H56.86z"/><path fill="none" stroke="#263238" stroke-linecap="round" stroke-linejoin="round" stroke-miterlimit="20" stroke-width=".5" d="M56.86 16.31v0h7.772v46.153H56.86v0z"/></g><g><path fill="#adc7f7" d="M57.746 33.137l-4.17-3.533-3.568 4.063-1.138-16.606 7.735-.531 1.14 16.607z"/><path fill="none" stroke="#263238" stroke-linecap="round" stroke-linejoin="round" stroke-miterlimit="20" stroke-width=".5" d="M57.746 33.137v0l-4.17-3.533v0l-3.568 4.063v0L48.87 17.061v0l7.735-.531v0l1.14 16.607v0z"/></g><g><path fill="#adc7f7" d="M48.176 15.845c-1.472-.193-2.18-3.576-.334-4.881 1.846-1.305 9.17 4.361 9.17 4.361s-7.364.713-8.836.52zM46.42 8.957c-2.442 2.123-1.42 7.76.557 8.124 1.977.363 11.852-.65 11.852-.65s-9.948-9.6-12.409-7.474z"/><path fill="none" stroke="#263238" stroke-linecap="round" stroke-linejoin="round" stroke-miterlimit="20" stroke-width=".5" d="M48.176 15.845c-1.472-.193-2.18-3.576-.334-4.881 1.846-1.305 9.17 4.361 9.17 4.361s-7.364.713-8.836.52zM46.42 8.957c-2.442 2.123-1.42 7.76.557 8.124 1.977.363 11.852-.65 11.852-.65s-9.948-9.6-12.409-7.474z"/></g><g><path fill="#adc7f7" d="M69.374 14.39c-1.432.393-8.819.702-8.819.702s6.468-6.623 8.485-5.583c2.016 1.04 1.766 4.489.334 4.881zM58.9 16.411s9.919-.353 11.83-.974c1.913-.622 2.174-6.343-.555-8.113-2.73-1.766-11.275 9.087-11.275 9.087z"/><path fill="none" stroke="#263238" stroke-linecap="round" stroke-linejoin="round" stroke-miterlimit="20" stroke-width=".5" d="M69.374 14.39c-1.432.393-8.819.702-8.819.702s6.468-6.623 8.485-5.583c2.016 1.04 1.766 4.489.334 4.881zM58.9 16.411s9.919-.353 11.83-.974c1.913-.622 2.174-6.343-.555-8.113-2.73-1.766-11.275 9.087-11.275 9.087z"/></g><g transform="rotate(-4.004 59 15)"><path fill="#adc7f7" d="M56.62 14.851c0-.503.408-.911.911-.911h2.87c.504 0 .912.408.912.911v.758a.911.911 0 0 1-.911.91H57.53a.911.911 0 0 1-.911-.91z"/><path fill="none" stroke="#263238" stroke-linecap="round" stroke-linejoin="round" stroke-miterlimit="20" stroke-width=".5" d="M56.62 14.851c0-.503.408-.911.911-.911h2.87c.504 0 .912.408.912.911v.758a.911.911 0 0 1-.911.91H57.53a.911.911 0 0 1-.911-.91z"/></g><g><path fill="#fff" d="M53.811 58.99s1.843.309 2.545.207c.701-.102 1.948-.727 2.46 0a8.45 8.45 0 0 0 1.741 1.537s.204.513-.727.513a3.068 3.068 0 0 1-1.744-.727l2.562 2.05s-.41.618-.727.727c-.316.109-1.435-.207-1.435-.207a2.78 2.78 0 0 1-1.127.512c-.618.105-1.13.41-1.538.207-.407-.203-2.871-2.46-2.871-2.46z"/><path fill="none" stroke="#263238" stroke-linecap="round" stroke-linejoin="round" stroke-miterlimit="20" stroke-width=".5" d="M53.811 58.99v0s1.843.309 2.545.207c.701-.102 1.948-.727 2.46 0a8.45 8.45 0 0 0 1.741 1.537s.204.513-.727.513a3.068 3.068 0 0 1-1.744-.727l2.562 2.05v0s-.41.618-.727.727c-.316.109-1.435-.207-1.435-.207a2.78 2.78 0 0 1-1.127.512c-.618.105-1.13.41-1.538.207-.407-.203-2.871-2.46-2.871-2.46v0z"/></g><g><path fill="#adc7f7" d="M32.713 39.29s-2.991 1.454-3.111 4.783c-.12 3.33 5.383 12.198 6.699 13.154 1.315.956 16.86 6.699 16.86 6.699l1.436-5.62-14.476-8.148-4.188-9.567"/><path fill="none" stroke="#263238" stroke-linecap="round" stroke-linejoin="round" stroke-miterlimit="20" stroke-width=".5" d="M32.713 39.29v0s-2.991 1.454-3.111 4.783c-.12 3.33 5.383 12.198 6.699 13.154 1.315.956 16.86 6.699 16.86 6.699v0l1.436-5.62v0l-14.476-8.148v0l-4.188-9.567v0"/></g><g><path fill="none" stroke="#263238" stroke-linecap="round" stroke-linejoin="round" stroke-miterlimit="20" stroke-width=".5" d="M51.506 57.05l-1.766 5.183"/></g><g><path fill="none" stroke="#263238" stroke-linecap="round" stroke-linejoin="round" stroke-miterlimit="20" stroke-width=".5" d="M50.404 58.15l-1.214 3.86"/></g><g><path fill="none" stroke="#263238" stroke-linecap="round" stroke-linejoin="round" stroke-miterlimit="20" stroke-width=".5" d="M52.008 63.236a.498.498 0 1 0 0-.996.498.498 0 0 0 0 .996z"/></g></g></g></g></svg>