<svg xmlns="http://www.w3.org/2000/svg" width="247" height="225" viewBox="0 0 247 225"><g><g><g><g><path fill="#adc7f7" d="M229.933 172.337c14.105-28.74 15.07-67.035 5.32-97.735-8.385-26.43-27.045-46.6-48.595-58.6-25.005-13.925-54.805-18.07-81.655-9.28-7.055 2.31-13.93 4.43-20.585 8.23-27.28 15.57-22 53.94-31.585 67.29-8.055 11.23-23.45 7.92-33.16 16.525-26.17 23.235-11.02 83.08 17.07 104.56 32.705 25.01 158.26 40.175 193.19-30.99z"/></g><g opacity=".8"><path fill="#fff" d="M229.933 172.337c14.105-28.74 15.07-67.035 5.32-97.735-8.385-26.43-27.045-46.6-48.595-58.6-25.005-13.925-54.805-18.07-81.655-9.28-7.055 2.31-13.93 4.43-20.585 8.23-27.28 15.57-22 53.94-31.585 67.29-8.055 11.23-23.45 7.92-33.16 16.525-26.17 23.235-11.02 83.08 17.07 104.56 32.705 25.01 158.26 40.175 193.19-30.99z"/></g></g><g><g><path fill="none" stroke="#263238" stroke-linecap="round" stroke-linejoin="round" stroke-miterlimit="20" stroke-width=".5" d="M183.33 32.67v0h30.11v41.26h-30.11v0z"/></g><g><path fill="none" stroke="#263238" stroke-linecap="round" stroke-linejoin="round" stroke-miterlimit="20" stroke-width=".5" d="M187.8 38.8v0h21.16v28.995H187.8v0z"/></g></g><g><g><path fill="none" stroke="#263238" stroke-linecap="round" stroke-linejoin="round" stroke-miterlimit="20" stroke-width=".5" d="M1 223.62h245"/></g></g><g><g><path fill="none" stroke="#263238" stroke-linecap="round" stroke-linejoin="round" stroke-miterlimit="20" stroke-width=".5" d="M126.46 1v0c21.07 0 38.15 17.08 38.15 38.15v137.225h-76.3v0V39.15C88.31 18.08 105.39 1 126.46 1z"/></g><g><path fill="none" stroke="#263238" stroke-linecap="round" stroke-linejoin="round" stroke-miterlimit="20" stroke-width=".5" d="M96.93 175.955v0-135.58c0-16.312 13.223-29.535 29.535-29.535v0a29.535 29.535 0 0 1 29.54 29.535v135.58"/></g><g><path fill="none" stroke="#263238" stroke-linecap="round" stroke-linejoin="round" stroke-miterlimit="20" stroke-width=".5" d="M126.46 1v175.175"/></g><g><path fill="none" stroke="#263238" stroke-linecap="round" stroke-linejoin="round" stroke-miterlimit="20" stroke-width=".5" d="M88.72 34.74h75.38"/></g><g><path fill="none" stroke="#263238" stroke-linecap="round" stroke-linejoin="round" stroke-miterlimit="20" stroke-width=".5" d="M88.72 58.54h75.38"/></g><g><path fill="none" stroke="#263238" stroke-linecap="round" stroke-linejoin="round" stroke-miterlimit="20" stroke-width=".5" d="M88.72 82.33h75.38"/></g><g><path fill="none" stroke="#263238" stroke-linecap="round" stroke-linejoin="round" stroke-miterlimit="20" stroke-width=".5" d="M88.72 106.12h75.38"/></g><g><path fill="none" stroke="#263238" stroke-linecap="round" stroke-linejoin="round" stroke-miterlimit="20" stroke-width=".5" d="M88.72 129.92h75.38"/></g><g><path fill="none" stroke="#263238" stroke-linecap="round" stroke-linejoin="round" stroke-miterlimit="20" stroke-width=".5" d="M88.72 153.71h75.38"/></g><g><path fill="none" stroke="#263238" stroke-linecap="round" stroke-linejoin="round" stroke-miterlimit="20" stroke-width=".5" d="M98.8 12.91l6.835 6.225"/></g><g><path fill="none" stroke="#263238" stroke-linecap="round" stroke-linejoin="round" stroke-miterlimit="20" stroke-width=".5" d="M153.835 12.91L147 19.135"/></g></g><g><g><path fill="none" stroke="#adc7f7" stroke-linecap="round" stroke-linejoin="round" stroke-miterlimit="20" stroke-width=".5" d="M26.01 175.91v-60.97"/></g><g><path fill="#adc7f7" d="M25.555 170.41s-3.21-4.585-7.335-6.875-11-2.295-11-2.295 3.665 13.295 18.335 9.17z"/></g><g><path fill="#adc7f7" d="M26 170.41s3.21-4.585 7.335-6.875 11-2.295 11-2.295S40.68 174.535 26 170.41z"/></g><g><path fill="#adc7f7" d="M25.555 153.905s-3.21-4.585-7.335-6.875-11-2.29-11-2.29 3.665 13.29 18.335 9.165z"/></g><g><path fill="#adc7f7" d="M26 153.905s3.21-4.585 7.335-6.875 11-2.29 11-2.29S40.68 158.03 26 153.905z"/></g><g><path fill="#adc7f7" d="M25.555 137.4s-3.21-4.585-7.335-6.9c-4.125-2.315-11-2.29-11-2.29s3.665 13.315 18.335 9.19z"/></g><g><path fill="#adc7f7" d="M26 137.4s3.21-4.585 7.335-6.88 11-2.29 11-2.29S40.68 141.525 26 137.4z"/></g><g><path fill="#adc7f7" d="M25.555 120.895s-3.21-4.585-7.335-6.895c-4.125-2.31-11-2.29-11-2.29s3.665 13.29 18.335 9.185z"/></g><g><path fill="#adc7f7" d="M26 120.89s3.21-4.585 7.335-6.88 11-2.29 11-2.29S40.68 124.995 26 120.89z"/></g><g><path fill="#adc7f7" d="M25.998 114.945s-3.665-4.937-3.85-9.66c-.185-4.722 2.915-10.855 2.915-10.855s11.245 9.275.935 20.515z"/></g><g><path fill="#adc7f7" d="M16.83 174.77h17.79l-4.45 48.655h-8.895L16.83 174.77z"/></g></g><g><g><path fill="#fff" d="M94.895 97.38s-3.605-2.28-4.801-1.68c-1.197.6-3.004 2.4-3.004 3.36s1.322 1.08 2.043.72c.72-.36 5.762-2.4 5.762-2.4z"/><path fill="none" stroke="#263238" stroke-linecap="round" stroke-linejoin="round" stroke-miterlimit="20" stroke-width=".5" d="M94.895 97.38v0s-3.605-2.28-4.801-1.68c-1.197.6-3.004 2.4-3.004 3.36s1.322 1.08 2.043.72c.72-.36 5.762-2.4 5.762-2.4z"/></g><g><path fill="#fff" d="M97.05 97.14s-3.6-2.28-4.8-1.68c-1.2.6-3 2.4-3 3.36s1.315 1.08 2.035.72c.72-.36 5.765-2.4 5.765-2.4z"/><path fill="none" stroke="#263238" stroke-linecap="round" stroke-linejoin="round" stroke-miterlimit="20" stroke-width=".5" d="M97.05 97.14v0s-3.6-2.28-4.8-1.68c-1.2.6-3 2.4-3 3.36s1.315 1.08 2.035.72c.72-.36 5.765-2.4 5.765-2.4z"/></g><g><path fill="#fff" d="M117.207 107.816s-10.44-1.68-11.64-2.4a17.345 17.345 0 0 1-3.84-3.6c-1.32-1.56-2.88-4.92-4.44-5.28-1.56-.36-7.675 2.04-7.555 3.12.12 1.08 9 8.4 10.675 9.36 1.675.96 5.4 1.56 5.88 2.04.48.48 9.12 5.64 9.12 5.64z"/><path fill="none" stroke="#263238" stroke-linecap="round" stroke-linejoin="round" stroke-miterlimit="20" stroke-width=".5" d="M117.207 107.816v0s-10.44-1.68-11.64-2.4a17.345 17.345 0 0 1-3.84-3.6c-1.32-1.56-2.88-4.92-4.44-5.28-1.56-.36-7.675 2.04-7.555 3.12.12 1.08 9 8.4 10.675 9.36 1.675.96 5.4 1.56 5.88 2.04.48.48 9.12 5.64 9.12 5.64v0z"/></g><g><path fill="#263238" d="M131.219 199.334s-8.76 11.315-17.19 15.845c-8.43 4.53-21.5 4.665-30.415 2.26-8.915-2.405-21-13.155-22-16.55-1-3.395 6.28-7.64 8.595-8.63 2.315-.99 25.125.14 31.575-1.135 6.45-1.275 11.735.425 17.5-.42 5.765-.845 14.415.565 11.935 8.63z"/><path fill="none" stroke="#263238" stroke-linecap="round" stroke-linejoin="round" stroke-miterlimit="20" stroke-width=".5" d="M131.219 199.334s-8.76 11.315-17.19 15.845c-8.43 4.53-21.5 4.665-30.415 2.26-8.915-2.405-21-13.155-22-16.55-1-3.395 6.28-7.64 8.595-8.63 2.315-.99 25.125.14 31.575-1.135 6.45-1.275 11.735.425 17.5-.42 5.765-.845 14.415.565 11.935 8.63z"/></g><g><path fill="#adc7f7" d="M70.137 193.97s15.66 7.21 24.61 7.21 20.885-9.18 21.63-10.18c.745-1 0-2.5-7.955-1.5s-24.61 2-31.325.745-10.44-1.245-6.96 3.725z"/><path fill="none" stroke="#263238" stroke-linecap="round" stroke-linejoin="round" stroke-miterlimit="20" stroke-width=".5" d="M70.137 193.97s15.66 7.21 24.61 7.21 20.885-9.18 21.63-10.18c.745-1 0-2.5-7.955-1.5s-24.61 2-31.325.745-10.44-1.245-6.96 3.725z"/></g><g><path fill="none" stroke="#263238" stroke-linecap="round" stroke-linejoin="round" stroke-miterlimit="20" stroke-width=".5" d="M80.57 194.25s.655 1.63-.5 2.77"/></g><g><path fill="none" stroke="#263238" stroke-linecap="round" stroke-linejoin="round" stroke-miterlimit="20" stroke-width=".5" d="M84.32 195.39c-.5 0-1.14 3.26-1.14 3.26"/></g><g><path fill="none" stroke="#263238" stroke-linecap="round" stroke-linejoin="round" stroke-miterlimit="20" stroke-width=".5" d="M86.763 195.88l-.486 1.79"/></g><g><path fill="none" stroke="#263238" stroke-linecap="round" stroke-linejoin="round" stroke-miterlimit="20" stroke-width=".5" d="M91.49 200.76l-.16-4.07"/></g><g><path fill="none" stroke="#263238" stroke-linecap="round" stroke-linejoin="round" stroke-miterlimit="20" stroke-width=".5" d="M95.81 196.73l.24 2.085"/></g><g><path fill="#9e9e9e" d="M77.247 138.18s-7.04 0-9.6-.5c-2.56-.5-7.2-1.6-7.2-1.6l-3.835-8.64s-11.36 7.68-14.88 10.24c-3.52 2.56-2.56 9.44-1.28 12.64 1.28 3.2 6.88 3.685 13.28 3.685 6.4 0 14.875 2.235 14.875 2.235s.32 19.5-.32 25.12c-.64 5.62-2.24 7.835 2.4 9.755 4.64 1.92 20.315 6.08 25.115 5.6 4.8-.48 17.76-6.56 19.84-7.84 2.08-1.28.5-5.115-.64-7.675-1.14-2.56-5.6-28.475-5.6-28.475s22.875-24.16 25.275-28.795c2.4-4.635-1.6-10.24-3.5-12.32s-8.64-3.2-8.64-3.2l-8.475 12.16 2.9 2.58s-9 7-11.06 8.455c-2.06 1.455-8.96 4.5-12.16 4.96-3.2.46-16.495 1.615-16.495 1.615z"/><path fill="none" stroke="#263238" stroke-linecap="round" stroke-linejoin="round" stroke-miterlimit="20" stroke-width=".5" d="M77.247 138.18v0s-7.04 0-9.6-.5c-2.56-.5-7.2-1.6-7.2-1.6v0l-3.835-8.64v0s-11.36 7.68-14.88 10.24c-3.52 2.56-2.56 9.44-1.28 12.64 1.28 3.2 6.88 3.685 13.28 3.685 6.4 0 14.875 2.235 14.875 2.235v0s.32 19.5-.32 25.12c-.64 5.62-2.24 7.835 2.4 9.755 4.64 1.92 20.315 6.08 25.115 5.6 4.8-.48 17.76-6.56 19.84-7.84 2.08-1.28.5-5.115-.64-7.675-1.14-2.56-5.6-28.475-5.6-28.475v0s22.875-24.16 25.275-28.795c2.4-4.635-1.6-10.24-3.5-12.32s-8.64-3.2-8.64-3.2v0l-8.475 12.16v0l2.9 2.58v0s-9 7-11.06 8.455c-2.06 1.455-8.96 4.5-12.16 4.96-3.2.46-16.495 1.615-16.495 1.615z"/></g><g><path fill="#adc7f7" d="M90.715 153.85a16.87 16.87 0 0 1-3.81 7.075c-3 3.265-2.72 4.9-1.09 4.9 1.63 0 9.8-3 9.8-4.9 0-1.9-4.9-7.075-4.9-7.075z"/></g><g><path fill="#adc7f7" d="M85.814 165.82a17.88 17.88 0 0 1-2.45 4.9c-1.63 2.175-4.355 4.355 1.905 3.81 6.26-.545 13.065-6.26 12-8.71-1.065-2.45-1.63-3.54-1.63-3.54z"/></g><g><path fill="#fff" d="M95.611 159.293s-4.9 4.08-8.71 4.895c-3.81.815-5.445 2.18-3.81 3.54 1.635 1.36 9.795-2.175 13.065-4.355 3.27-2.18 2.99-5.445-.545-4.08z"/></g><g><path fill="#adc7f7" d="M82.819 174.803a8.507 8.507 0 0 1-3 5.449c-2.725 2.176-4.085 5.173 2.175 5.173s15.24-1.09 18.235-6.264c2.995-5.173-2.73-9.531-2.73-9.531s-10.595 4.628-14.68 5.173z"/></g><g><path fill="#fff" d="M98.61 166.64a46.96 46.96 0 0 1-8.436 5.445c-4.9 2.45-10.615 1.36-9.795 3 .82 1.64.815 2.175 8.705-.545 7.89-2.72 9.525-3.81 10.615-5.715 1.09-1.905-1.09-2.185-1.09-2.185z"/></g><g><path fill="#fff" d="M101.876 174.798s-1.09 3.265-7.895 5.445-13.605 3-15.5 3c-1.895 0-3.27 1.905.54 3s15.245-.815 21.5-4.08c6.255-3.265 4.345-8.455 1.355-7.365z"/></g><g><path fill="#263238" d="M84.46 178.5a1.77 1.77 0 1 1-3.54 0 1.77 1.77 0 0 1 3.54 0z"/></g><g><path fill="#263238" d="M91.13 175.89a1.77 1.77 0 1 0 0-3.54 1.77 1.77 0 0 0 0 3.54z"/></g><g><path fill="#263238" d="M84.73 170.58a1.77 1.77 0 1 0 0-3.54 1.77 1.77 0 0 0 0 3.54z"/></g><g><path fill="#263238" d="M97.79 163.23a1.77 1.77 0 1 0 0-3.54 1.77 1.77 0 0 0 0 3.54z"/></g><g><path fill="#263238" d="M92.21 151.94a1.77 1.77 0 1 1-3.54 0 1.77 1.77 0 0 1 3.54 0z"/></g><g><path fill="#263238" d="M102 169.77a1.77 1.77 0 1 1-3.54 0 1.77 1.77 0 0 1 3.54 0z"/></g><g><path fill="#263238" d="M102.42 182.56a1.77 1.77 0 1 0 0-3.54 1.77 1.77 0 0 0 0 3.54z"/></g><g><path fill="#263238" d="M93.44 186.92a1.77 1.77 0 1 0 0-3.54 1.77 1.77 0 0 0 0 3.54z"/></g><g><path fill="#263238" d="M84.59 186.5a1.77 1.77 0 1 1-3.54 0 1.77 1.77 0 0 1 3.54 0z"/></g><g><path fill="none" stroke="#263238" stroke-linecap="round" stroke-linejoin="round" stroke-miterlimit="20" stroke-width=".5" d="M60.305 138.33l-7.935 8.76"/></g><g><path fill="none" stroke="#263238" stroke-linecap="round" stroke-linejoin="round" stroke-miterlimit="20" stroke-width=".5" d="M58.995 139.98l-3.645 8.6"/></g><g><path fill="#263238" d="M68.625 156.265l-5.175-6.855 1.773 5.859 3.402.996z"/><path fill="none" stroke="#263238" stroke-linecap="round" stroke-linejoin="round" stroke-miterlimit="20" stroke-width=".5" d="M68.625 156.265v0l-5.175-6.855v0l1.773 5.859v0l3.402.996v0z"/></g><g><path fill="#263238" d="M109.406 152.73l-.176-10.44 1.705 8.745-1.529 1.695z"/><path fill="none" stroke="#263238" stroke-linecap="round" stroke-linejoin="round" stroke-miterlimit="20" stroke-width=".5" d="M109.406 152.73v0l-.176-10.44v0l1.705 8.745v0l-1.529 1.695v0z"/></g><g><path fill="none" stroke="#263238" stroke-linecap="round" stroke-linejoin="round" stroke-miterlimit="20" stroke-width=".5" d="M117.25 123.78v0s2.73 3.31 5.045 4.465c2.315 1.155 7.11-1.5 7.77-3.305"/></g><g><path fill="none" stroke="#263238" stroke-linecap="round" stroke-linejoin="round" stroke-miterlimit="20" stroke-width=".5" d="M118 126.27s3.31 5.285 5.795 5.12"/></g><g><path fill="#adc7f7" d="M97.403 101.458s-14.405-7.8-17.155-8.04c-2.75-.24-9.5 5.16-13.32 8.64-3.82 3.48-5.28 7.92-4.8 10.8.48 2.88 2.16 13.795 2.16 13.795s1.56.5 2.4.12c.84-.38 1.8-6.955 2.28-8.155.48-1.2 3.36-3.12 3.36-3.12z"/><path fill="none" stroke="#263238" stroke-linecap="round" stroke-linejoin="round" stroke-miterlimit="20" stroke-width=".5" d="M97.403 101.458v0s-14.405-7.8-17.155-8.04c-2.75-.24-9.5 5.16-13.32 8.64-3.82 3.48-5.28 7.92-4.8 10.8.48 2.88 2.16 13.795 2.16 13.795v0s1.56.5 2.4.12c.84-.38 1.8-6.955 2.28-8.155.48-1.2 3.36-3.12 3.36-3.12v0z"/></g><g><path fill="#adc7f7" d="M80.13 131.095s-2.88-.12-2.88.72-.6 6-.6 7.32c0 1.32 2.76 6.36 9.5 6.6 6.74.24 10.075-2.64 10.915-4.68.84-2.04.36-4.44.12-5.5l-.24-1.08s-9.715-1.44-12.115-2.5a10.045 10.045 0 0 0-4.7-.88z"/><path fill="none" stroke="#263238" stroke-linecap="round" stroke-linejoin="round" stroke-miterlimit="20" stroke-width=".5" d="M80.13 131.095s-2.88-.12-2.88.72-.6 6-.6 7.32c0 1.32 2.76 6.36 9.5 6.6 6.74.24 10.075-2.64 10.915-4.68.84-2.04.36-4.44.12-5.5l-.24-1.08v0s-9.715-1.44-12.115-2.5a10.045 10.045 0 0 0-4.7-.88z"/></g><g><path fill="#fff" d="M79.65 127.38v7.68s3.84 3.96 9.36 3.5c5.52-.46 7.075-2.76 7.075-2.76l.12-1.92z"/><path fill="none" stroke="#263238" stroke-linecap="round" stroke-linejoin="round" stroke-miterlimit="20" stroke-width=".5" d="M79.65 127.38v7.68s3.84 3.96 9.36 3.5c5.52-.46 7.075-2.76 7.075-2.76v0l.12-1.92v0z"/></g><g><path fill="#263238" d="M96.215 133.86l-16.565-6.5v5.21c4.418 4.11 10.186 6.61 15.64 2.63l.885-.66z"/><path fill="none" stroke="#263238" stroke-linecap="round" stroke-linejoin="round" stroke-miterlimit="20" stroke-width=".5" d="M96.215 133.86v0l-16.565-6.5v5.21c4.418 4.11 10.186 6.61 15.64 2.63l.885-.66v0z"/></g><g><path fill="none" stroke="#263238" stroke-linecap="round" stroke-linejoin="round" stroke-miterlimit="20" stroke-width=".5" d="M79.76 136.09a7 7 0 0 0-.5 2.445v3.255"/></g><g><path fill="none" stroke="#263238" stroke-linecap="round" stroke-linejoin="round" stroke-miterlimit="20" stroke-width=".5" d="M80.74 138.7v4.235"/></g><g><path fill="none" stroke="#263238" stroke-linecap="round" stroke-linejoin="round" stroke-miterlimit="20" stroke-width=".5" d="M82.53 138.54v5.05"/></g><g><path fill="none" stroke="#263238" stroke-linecap="round" stroke-linejoin="round" stroke-miterlimit="20" stroke-width=".5" d="M84.16 141.31v2.93"/></g><g><path fill="none" stroke="#263238" stroke-linecap="round" stroke-linejoin="round" stroke-miterlimit="20" stroke-width=".5" d="M78.955 133.81v0s-1.155.975-1.155 1.465v2.935"/></g><g><path fill="#fff" d="M101.245 111.175c.45 4.165 2 8.385 2.875 12.5 1.075 5.075-2.44 8.38-6.235 11.15-8.06 5.89-16.82-2.415-20.875-9.12-.865-1.43-1.68-3.835-1.68-4.555 0-.72.24-6.5 7.2-9.84s10.075-4.2 13.435-4.32c3.36-.12 4.8-.255 5.28 4.185z"/><path fill="none" stroke="#263238" stroke-linecap="round" stroke-linejoin="round" stroke-miterlimit="20" stroke-width=".5" d="M101.245 111.175c.45 4.165 2 8.385 2.875 12.5 1.075 5.075-2.44 8.38-6.235 11.15-8.06 5.89-16.82-2.415-20.875-9.12-.865-1.43-1.68-3.835-1.68-4.555 0-.72.24-6.5 7.2-9.84s10.075-4.2 13.435-4.32c3.36-.12 4.8-.255 5.28 4.185z"/></g><g><path fill="#fff" d="M78.77 123.212s-3.155-1.655-4.5-.15c-1.345 1.505-.605 4.96 1.95 6.31a4.33 4.33 0 0 0 5.11-.75"/><path fill="none" stroke="#263238" stroke-linecap="round" stroke-linejoin="round" stroke-miterlimit="20" stroke-width=".5" d="M78.77 123.212v0s-3.155-1.655-4.5-.15c-1.345 1.505-.605 4.96 1.95 6.31a4.33 4.33 0 0 0 5.11-.75"/></g><g><path fill="#263238" d="M82.415 114.9s-.84 3.6.12 5.64a6.375 6.375 0 0 0 2.76 2.88s-2.28.715-2.76.36c-.337-.26-.657-.54-.96-.84.144.767.573 1.45 1.2 1.915.611.48 1.252.921 1.92 1.32 0 0-1.56.6-2.76-.12a17.95 17.95 0 0 1-1.8-1.2l1.32 2.04a17.5 17.5 0 0 1-2.64-1.08 8.406 8.406 0 0 1-1.08-1.08v1.8c0 .36-.84-3.835-1.2-4.555-.36-.72 5.88-7.08 5.88-7.08z"/><path fill="none" stroke="#263238" stroke-linecap="round" stroke-linejoin="round" stroke-miterlimit="20" stroke-width=".5" d="M82.415 114.9v0s-.84 3.6.12 5.64a6.375 6.375 0 0 0 2.76 2.88s-2.28.715-2.76.36c-.337-.26-.657-.54-.96-.84.144.767.573 1.45 1.2 1.915.611.48 1.252.921 1.92 1.32 0 0-1.56.6-2.76-.12a17.95 17.95 0 0 1-1.8-1.2l1.32 2.04a17.5 17.5 0 0 1-2.64-1.08 8.406 8.406 0 0 1-1.08-1.08v1.8c0 .36-.84-3.835-1.2-4.555-.36-.72 5.88-7.08 5.88-7.08z"/></g><g><path fill="none" stroke="#263238" stroke-linecap="round" stroke-linejoin="round" stroke-miterlimit="20" stroke-width=".5" d="M96.21 115.38v0s.36 2.4.84 2.64c.48.24 3.6-.12 3.6 1.44s-2.28 2.16-2.28 2.16v0"/></g><g><path fill="none" stroke="#263238" stroke-linecap="round" stroke-linejoin="round" stroke-miterlimit="20" stroke-width=".5" d="M99.455 124.005v0s-3.003 2.28-6.606 1.56c-3.604-.72-4.079-2.275-4.079-2.275v0"/></g><g><path fill="none" stroke="#263238" stroke-linecap="round" stroke-linejoin="round" stroke-miterlimit="20" stroke-width=".5" d="M89.61 122.58l-1.68 1.435"/></g><g><path fill="#263238" d="M89.64 124.36a49.499 49.499 0 0 0 2.97 5.055c1.44 2.04 2.76 1.68 3.24.36.48-1.32.04-4.16.04-4.16s-2.885.785-6.25-1.255z"/><path fill="none" stroke="#263238" stroke-linecap="round" stroke-linejoin="round" stroke-miterlimit="20" stroke-width=".5" d="M89.64 124.36a49.499 49.499 0 0 0 2.97 5.055c1.44 2.04 2.76 1.68 3.24.36.48-1.32.04-4.16.04-4.16v0s-2.885.785-6.25-1.255z"/></g><g><path fill="#263238" d="M92.95 117.135c.22.765.14 1.46-.18 1.55-.32.09-.756-.45-.976-1.215-.22-.765-.14-1.46.18-1.55.32-.09.755.455.975 1.215z"/><path fill="none" stroke="#263238" stroke-linecap="round" stroke-linejoin="round" stroke-miterlimit="20" stroke-width=".5" d="M92.95 117.135c.22.765.14 1.46-.18 1.55-.32.09-.756-.45-.976-1.215-.22-.765-.14-1.46.18-1.55.32-.09.755.455.975 1.215z"/></g><g><path fill="#263238" d="M98.83 115.22c.22.76.14 1.455-.18 1.545-.32.09-.756-.45-.976-1.215-.22-.765-.14-1.46.18-1.55.32-.09.75.455.975 1.22z"/><path fill="none" stroke="#263238" stroke-linecap="round" stroke-linejoin="round" stroke-miterlimit="20" stroke-width=".5" d="M98.83 115.22c.22.76.14 1.455-.18 1.545-.32.09-.756-.45-.976-1.215-.22-.765-.14-1.46.18-1.55.32-.09.75.455.975 1.22z"/></g><g><path fill="none" stroke="#263238" stroke-linecap="round" stroke-linejoin="round" stroke-miterlimit="20" stroke-width=".5" d="M87.93 115.5s.72-2.88 4.675-3.12"/></g><g><path fill="none" stroke="#263238" stroke-linecap="round" stroke-linejoin="round" stroke-miterlimit="20" stroke-width=".5" d="M96.09 112.14s1.56-1.92 4.08-.24"/></g><g><path fill="#fff" d="M74.498 124.002l8.88-8.635c4.44-4.32 9.355-5.28 13.195-6.12 3.84-.84 3.84-.24 3.84-.24l.84 2.16a6.685 6.685 0 0 0 1.68-.96c.72-.6-.24-3-.84-4.32-.6-1.32-2.76-4.68-3.6-5.4-.84-.72-4.56-.12-10.075 1.68-5.515 1.8-11.42 7.935-13.69 9.975-2.27 2.04-4.32 4.2-4.44 5.76-.12 1.56 1.2 3.6 1.8 5.04.6 1.44.72 1.56 2.41 1.06z"/><path fill="none" stroke="#263238" stroke-linecap="round" stroke-linejoin="round" stroke-miterlimit="20" stroke-width=".5" d="M74.498 124.002l8.88-8.635c4.44-4.32 9.355-5.28 13.195-6.12 3.84-.84 3.84-.24 3.84-.24v0l.84 2.16a6.685 6.685 0 0 0 1.68-.96c.72-.6-.24-3-.84-4.32-.6-1.32-2.76-4.68-3.6-5.4-.84-.72-4.56-.12-10.075 1.68-5.515 1.8-11.42 7.935-13.69 9.975-2.27 2.04-4.32 4.2-4.44 5.76-.12 1.56 1.2 3.6 1.8 5.04.6 1.44.72 1.56 2.41 1.06z"/></g><g><path fill="#fff" d="M62.95 124.967l8.915-8.395s.5-7.155.725-8.295c.225-1.14 1.66-1.97 1.97-3.11.31-1.14.83-1.45 1.245-1.555.415-.105.5.935.5.935s4.355-3.32 5.705-4.25c1.35-.93 1.97-.725 2.28-.5.31.225.105.83.105.83s3-2.28 3.935-1.555c.935.725.5 1.555-1.035 2.5-1.535.945-4.665 3.73-5.08 4.35a5.85 5.85 0 0 0-.62 1.245s5.18-2.07 6.53-2.695c1.35-.625 2.695-.93 2.9-.31.205.62-.1 1.345-1.24 1.97s-4.875 2.385-5.185 2.59c-.234.152-.476.291-.725.415 0 0 3.625-.105 4.455 0 .83.105 2.905-.31 2.595.5-.31.81-.315.83-1.66 1.14-1.345.31-5.39.62-5.39.62s-2.5 4.46-3.63 5.805c-1.13 1.345-3.625 2.695-3.94 3-.315.305-10.26 12.025-10.26 12.025z"/><path fill="none" stroke="#263238" stroke-linecap="round" stroke-linejoin="round" stroke-miterlimit="20" stroke-width=".5" d="M62.95 124.967v0l8.915-8.395v0s.5-7.155.725-8.295c.225-1.14 1.66-1.97 1.97-3.11.31-1.14.83-1.45 1.245-1.555.415-.105.5.935.5.935v0s4.355-3.32 5.705-4.25c1.35-.93 1.97-.725 2.28-.5.31.225.105.83.105.83v0s3-2.28 3.935-1.555c.935.725.5 1.555-1.035 2.5-1.535.945-4.665 3.73-5.08 4.35a5.85 5.85 0 0 0-.62 1.245s5.18-2.07 6.53-2.695c1.35-.625 2.695-.93 2.9-.31.205.62-.1 1.345-1.24 1.97s-4.875 2.385-5.185 2.59c-.234.152-.476.291-.725.415 0 0 3.625-.105 4.455 0 .83.105 2.905-.31 2.595.5-.31.81-.315.83-1.66 1.14-1.345.31-5.39.62-5.39.62v0s-2.5 4.46-3.63 5.805c-1.13 1.345-3.625 2.695-3.94 3-.315.305-10.26 12.025-10.26 12.025v0z"/></g><g><path fill="none" stroke="#263238" stroke-linecap="round" stroke-linejoin="round" stroke-miterlimit="20" stroke-width=".5" d="M84.41 100.61s-4.665 2.8-5.5 4.355"/></g><g><path fill="none" stroke="#263238" stroke-linecap="round" stroke-linejoin="round" stroke-miterlimit="20" stroke-width=".5" d="M76.32 104.55s-1.45 2.385-1.76 3.73"/></g><g><path fill="#263238" d="M118.905 188.434l-.905.57c-4.18 2.62-21.745 13.59-25.915 15.335-4.735 2-7.635 3.125-7.635 3.125l7.94 10.715s.9-.34 10.32-1.29 25.135-10.5 31.125-15.6c5.99-5.1 7.595-10.195 5.23-14.665-2.365-4.47-11.54-4-14-2.585a64.528 64.528 0 0 0-6.16 4.395z"/><path fill="none" stroke="#263238" stroke-linecap="round" stroke-linejoin="round" stroke-miterlimit="20" stroke-width=".5" d="M118.905 188.434v0l-.905.57c-4.18 2.62-21.745 13.59-25.915 15.335-4.735 2-7.635 3.125-7.635 3.125v0l7.94 10.715v0s.9-.34 10.32-1.29 25.135-10.5 31.125-15.6c5.99-5.1 7.595-10.195 5.23-14.665-2.365-4.47-11.54-4-14-2.585a64.528 64.528 0 0 0-6.16 4.395z"/></g><g><path fill="#adc7f7" d="M69.413 208.876s-6.37-1-8.635-.585c-2.265.415-.78 4.225.085 7.745.865 3.52 4.475 6.71 7.725 7.31 3.25.6 8.285-1.16 10.665-2.23 2.38-1.07-9.84-12.24-9.84-12.24z"/><path fill="none" stroke="#263238" stroke-linecap="round" stroke-linejoin="round" stroke-miterlimit="20" stroke-width=".5" d="M69.413 208.876v0s-6.37-1-8.635-.585c-2.265.415-.78 4.225.085 7.745.865 3.52 4.475 6.71 7.725 7.31 3.25.6 8.285-1.16 10.665-2.23 2.38-1.07-9.84-12.24-9.84-12.24z"/></g><g><path fill="#fff" d="M68.586 223.34a11.86 11.86 0 0 0 4.18-.16c-2.2-.715-4.94-2.08-6.81-4.695-2.605-3.63-3.565-8.095-3.9-10.305a8.15 8.15 0 0 0-1.28.105c-2.26.42-.78 4.225.085 7.745.865 3.52 4.475 6.71 7.725 7.31z"/><path fill="none" stroke="#263238" stroke-linecap="round" stroke-linejoin="round" stroke-miterlimit="20" stroke-width=".5" d="M68.586 223.34a11.86 11.86 0 0 0 4.18-.16c-2.2-.715-4.94-2.08-6.81-4.695-2.605-3.63-3.565-8.095-3.9-10.305a8.15 8.15 0 0 0-1.28.105c-2.26.42-.78 4.225.085 7.745.865 3.52 4.475 6.71 7.725 7.31z"/></g><g><path fill="#fff" d="M98.185 222.293s17.5 1.965 22.725 1.205c5.225-.76 11.385.185 14-1.365s.89-10-1.08-12.035c-1.97-2.035-7.665.11-11.145 1.45-3.48 1.34-13.67 2.5-17.18 2.5a34.245 34.245 0 0 1-5.565-.36l-3.34 9.175z"/><path fill="none" stroke="#263238" stroke-linecap="round" stroke-linejoin="round" stroke-miterlimit="20" stroke-width=".5" d="M98.185 222.293v0s17.5 1.965 22.725 1.205c5.225-.76 11.385.185 14-1.365s.89-10-1.08-12.035c-1.97-2.035-7.665.11-11.145 1.45-3.48 1.34-13.67 2.5-17.18 2.5a34.245 34.245 0 0 1-5.565-.36l-3.34 9.175v0z"/></g><g><path fill="#adc7f7" d="M122.68 211.546c-1.68.56-3.405.971-5.155 1.23a8.025 8.025 0 0 0-.605 6.29 7.5 7.5 0 0 0 3.555 4.5l.43-.055c5.235-.76 11.385.185 14-1.365s.89-10-1.08-12.035c-1.97-2.035-7.665.095-11.145 1.435z"/><path fill="none" stroke="#263238" stroke-linecap="round" stroke-linejoin="round" stroke-miterlimit="20" stroke-width=".5" d="M122.68 211.546c-1.68.56-3.405.971-5.155 1.23a8.025 8.025 0 0 0-.605 6.29 7.5 7.5 0 0 0 3.555 4.5l.43-.055c5.235-.76 11.385.185 14-1.365s.89-10-1.08-12.035c-1.97-2.035-7.665.095-11.145 1.435z"/></g><g><path fill="#fff" d="M133.83 210.1c-1.055-1.105-3.19-1-5.5-.435.95.26 4.205 1.5 5.33 6.3.81 3.46-.555 5.73-1.735 6.975a7.665 7.665 0 0 0 2.965-.805c2.615-1.55.91-9.985-1.06-12.035z"/><path fill="none" stroke="#263238" stroke-linecap="round" stroke-linejoin="round" stroke-miterlimit="20" stroke-width=".5" d="M133.83 210.1c-1.055-1.105-3.19-1-5.5-.435.95.26 4.205 1.5 5.33 6.3.81 3.46-.555 5.73-1.735 6.975a7.665 7.665 0 0 0 2.965-.805c2.615-1.55.91-9.985-1.06-12.035z"/></g><g><path fill="#263238" d="M51.462 207.702c5.685 2.35 21.225 10.445 28.155 14.45.906.523 1.8 1.023 2.68 1.5h15.625a30.57 30.57 0 0 0 2.89-3.9c2.425-4.03.935-9.66.935-9.66s-17.875-6.92-26.795-12c-8.92-5.08-13.23-9.435-19.45-10.87-6.22-1.435-10.67 4.725-12.155 9.45-1.485 4.725 2.425 8.685 8.115 11.03z"/><path fill="none" stroke="#263238" stroke-linecap="round" stroke-linejoin="round" stroke-miterlimit="20" stroke-width=".5" d="M51.462 207.702c5.685 2.35 21.225 10.445 28.155 14.45.906.523 1.8 1.023 2.68 1.5h15.625a30.57 30.57 0 0 0 2.89-3.9c2.425-4.03.935-9.66.935-9.66v0s-17.875-6.92-26.795-12c-8.92-5.08-13.23-9.435-19.45-10.87-6.22-1.435-10.67 4.725-12.155 9.45-1.485 4.725 2.425 8.685 8.115 11.03z"/></g><g><path fill="#adc7f7" d="M63.889 121.97s6.32 8.5 6.53 9.224c.307.721.041 1.558-.625 1.97-.825.62-7.255 5.7-8.395 5.7-1.14 0-7.775-9.33-8.085-10.16-.31-.83.31-1.45.725-1.865.415-.415 8.085-5.08 8.605-5.39.52-.31 1.245.52 1.245.52z"/><path fill="none" stroke="#263238" stroke-linecap="round" stroke-linejoin="round" stroke-miterlimit="20" stroke-width=".5" d="M63.889 121.97v0s6.32 8.5 6.53 9.224c.307.721.041 1.558-.625 1.97-.825.62-7.255 5.7-8.395 5.7-1.14 0-7.775-9.33-8.085-10.16-.31-.83.31-1.45.725-1.865.415-.415 8.085-5.08 8.605-5.39.52-.31 1.245.52 1.245.52z"/></g><g><path fill="none" stroke="#263238" stroke-linecap="round" stroke-linejoin="round" stroke-miterlimit="20" stroke-width=".5" d="M63.885 121.97l-8.235 5.49"/></g><g><path fill="none" stroke="#263238" stroke-linecap="round" stroke-linejoin="round" stroke-miterlimit="20" stroke-width=".5" d="M62.95 124.97l-6.16 3.955"/></g><g><path fill="none" stroke="#263238" stroke-linecap="round" stroke-linejoin="round" stroke-miterlimit="20" stroke-width=".5" d="M57.12 132.02l7.82-5.05"/></g><g><path fill="none" stroke="#263238" stroke-linecap="round" stroke-linejoin="round" stroke-miterlimit="20" stroke-width=".5" d="M58.09 135.28l3.585-2.28"/></g><g><path fill="#adc7f7" d="M116.505 106.525a.425.425 0 0 0-.19.225c-.955 1.69-.055 3.39-2.13 6.41-3.27 4.76-2.595 6.175-2 6.935.595.76 3.5 2.775 4.88 2.775s4.59-2.275 6.44-6.675c1.85-4.4 1.825-7.135.915-7.89-.62-.5-3.42-1.38-5.15-1.885a4.375 4.375 0 0 0-2.735.105z"/><path fill="none" stroke="#263238" stroke-linecap="round" stroke-linejoin="round" stroke-miterlimit="20" stroke-width=".5" d="M116.505 106.525a.425.425 0 0 0-.19.225c-.955 1.69-.055 3.39-2.13 6.41-3.27 4.76-2.595 6.175-2 6.935.595.76 3.5 2.775 4.88 2.775s4.59-2.275 6.44-6.675c1.85-4.4 1.825-7.135.915-7.89-.62-.5-3.42-1.38-5.15-1.885a4.375 4.375 0 0 0-2.735.105z"/></g><g><path fill="none" stroke="#263238" stroke-linecap="round" stroke-linejoin="round" stroke-miterlimit="20" stroke-width=".5" d="M112.34 118.5l6.03 2.935"/></g><g><path fill="none" stroke="#263238" stroke-linecap="round" stroke-linejoin="round" stroke-miterlimit="20" stroke-width=".5" d="M115.11 117.52l4.575 2.455"/></g><g><path fill="none" stroke="#263238" stroke-linecap="round" stroke-linejoin="round" stroke-miterlimit="20" stroke-width=".5" d="M114.46 115.57l6.84 2.93"/></g><g><path fill="none" stroke="#263238" stroke-linecap="round" stroke-linejoin="round" stroke-miterlimit="20" stroke-width=".5" d="M119.02 115.89l3.42.98"/></g></g><g><g><path fill="#fff" d="M141.02 112.82h89.695v110.8H141.02z"/><path fill="none" stroke="#263238" stroke-linecap="round" stroke-linejoin="round" stroke-miterlimit="20" stroke-width=".5" d="M141.02 112.82v0h89.695v110.8H141.02v0z"/></g><g><path fill="#263238" d="M221.793 112.935l.152-.11h-.785v.11h.633z"/></g><g><path fill="#263238" d="M228.266 119.02l-.351-1.07-.346 1.07h-1.129l.913.66-.351 1.07.913-.66.918.66-.351-1.07.913-.66h-1.129z"/></g><g><path fill="#263238" d="M221.16 126.39h.625l.825-.6h-1.125l-.325-1v1.6z"/></g><g><path fill="#263238" d="M221.16 112.93v.485l.89.645-.35-1.07.085-.06h-.625z"/></g><g><path fill="#263238" d="M228.266 132.48l-.351-1.07-.346 1.07h-1.129l.913.66-.351 1.075.913-.665.918.665-.351-1.075.913-.66h-1.129z"/></g><g><path fill="#263238" d="M221.16 139.845h.625l.825-.6h-1.125l-.325-1.005v1.605z"/></g><g><path fill="#263238" d="M221.16 126.39v.494l.89.651-.35-1.084.085-.061h-.625z"/></g><g><path fill="#263238" d="M228.266 145.94l-.351-1.07-.346 1.07h-1.129l.913.66-.351 1.07.913-.66.918.66-.351-1.07.913-.66h-1.129z"/></g><g><path fill="#263238" d="M221.16 153.3h.625l.825-.6h-1.125l-.325-1v1.6z"/></g><g><path fill="#263238" d="M221.16 139.85v.485l.89.645-.35-1.07.085-.06h-.625z"/></g><g><path fill="#263238" d="M228.266 159.394l-.351-1.074-.346 1.074h-1.129l.913.667-.351 1.074.913-.667.918.667-.351-1.074.913-.667h-1.129z"/></g><g><path fill="#263238" d="M221.16 166.765h.625l.825-.6h-1.125l-.325-1.005v1.605z"/></g><g><path fill="#263238" d="M221.16 153.3v.494l.89.651-.35-1.08.085-.065h-.625z"/></g><g><path fill="#263238" d="M228.266 172.85l-.351-1.07-.346 1.07h-1.129l.913.66-.351 1.07.913-.66.918.66-.351-1.07.913-.66h-1.129z"/></g><g><path fill="#263238" d="M221.16 180.22h.625l.825-.6h-1.125l-.325-1v1.6z"/></g><g><path fill="#263238" d="M221.16 166.76v.485l.89.645-.35-1.07.085-.06h-.625z"/></g><g><path fill="#263238" d="M228.266 186.31l-.351-1.07-.346 1.07h-1.129l.913.665-.351 1.07.913-.665.918.665-.351-1.07.913-.665h-1.129z"/></g><g><path fill="#263238" d="M221.16 193.675h.625l.825-.6h-1.125l-.325-1.005v1.605z"/></g><g><path fill="#263238" d="M221.16 180.22v.494l.89.651-.35-1.08.085-.065h-.625z"/></g><g><path fill="#263238" d="M228.266 199.76l-.351-1.07-.346 1.07h-1.129l.913.66-.351 1.07.913-.66.918.66-.351-1.07.913-.66h-1.129z"/></g><g><path fill="#263238" d="M221.16 207.13h.625l.825-.6h-1.125l-.325-1v1.6z"/></g><g><path fill="#263238" d="M221.16 193.67v.485l.89.645-.35-1.07.085-.06h-.625z"/></g><g><path fill="#263238" d="M228.266 213.22l-.351-1.07-.346 1.07h-1.129l.913.665-.351 1.07.913-.66.918.66-.351-1.07.913-.665h-1.129z"/></g><g><path fill="#263238" d="M222.61 219.99h-1.125l-.325-1v1.6h.625l.825-.6z"/></g><g><path fill="#263238" d="M221.16 207.13v.494l.89.651-.35-1.08.085-.065h-.625z"/></g><g><path fill="#263238" d="M221.16 220.59v.485l.89.645-.35-1.07.085-.06h-.625z"/></g><g><path fill="#263238" d="M221.175 112.935v-.11h-.825l.147.11h.678z"/></g><g><path fill="#263238" d="M208.33 112.935l.15-.11h-.77v.11h.62z"/></g><g><path fill="#263238" d="M214.805 119.02l-.35-1.07-.35 1.07h-1.125l.91.66-.345 1.07.91-.66.91.66-.345-1.07.91-.66h-1.125z"/></g><g><path fill="#263238" d="M219.67 125.79l.825.6h.67v-1.6l-.02-.07-.35 1.07h-1.125z"/></g><g><path fill="#263238" d="M221.175 112.93h-.677l.086.06-.354 1.07.925-.66.02.015v-.485z"/></g><g><path fill="#263238" d="M207.71 126.39h.62l.83-.6h-1.125l-.325-1v1.6z"/></g><g><path fill="#263238" d="M207.71 112.93v.485l.895.645-.349-1.07.081-.06h-.627z"/></g><g><path fill="#263238" d="M214.805 132.48l-.35-1.07-.35 1.07h-1.125l.91.66-.345 1.075.91-.665.91.665-.345-1.075.91-.66h-1.125z"/></g><g><path fill="#263238" d="M219.67 139.25l.825.6h.67v-1.605l-.02-.065-.35 1.07h-1.125z"/></g><g><path fill="#263238" d="M221.175 126.39h-.677l.086.06-.354 1.085.925-.67.02.02v-.495z"/></g><g><path fill="#263238" d="M207.71 139.845h.62l.83-.6h-1.125l-.325-1.005v1.605z"/></g><g><path fill="#263238" d="M207.71 126.39v.494l.895.651-.349-1.084.081-.061h-.627z"/></g><g><path fill="#263238" d="M214.805 145.94l-.35-1.07-.35 1.07h-1.125l.91.66-.345 1.07.91-.66.91.66-.345-1.07.91-.66h-1.125z"/></g><g><path fill="#263238" d="M219.67 152.7l.825.6h.67v-1.6l-.02-.07-.35 1.07h-1.125z"/></g><g><path fill="#263238" d="M221.175 139.85h-.677l.086.06-.354 1.07.925-.66.02.015v-.485z"/></g><g><path fill="#263238" d="M207.71 153.3h.62l.83-.6h-1.125l-.325-1v1.6z"/></g><g><path fill="#263238" d="M207.71 139.85v.485l.895.645-.349-1.07.081-.06h-.627z"/></g><g><path fill="#263238" d="M214.805 159.394l-.35-1.074-.35 1.074h-1.125l.91.667-.345 1.074.91-.667.91.667-.345-1.074.91-.667h-1.125z"/></g><g><path fill="#263238" d="M219.67 166.16l.825.6h.67v-1.605l-.02-.065-.35 1.07h-1.125z"/></g><g><path fill="#263238" d="M221.175 153.3h-.677l.086.066-.354 1.08.925-.672.02.02v-.494z"/></g><g><path fill="#263238" d="M207.71 166.765h.62l.83-.6h-1.125l-.325-1.005v1.605z"/></g><g><path fill="#263238" d="M207.71 153.3v.494l.895.651-.349-1.08.081-.065h-.627z"/></g><g><path fill="#263238" d="M214.805 172.85l-.35-1.07-.35 1.07h-1.125l.91.66-.345 1.07.91-.66.91.66-.345-1.07.91-.66h-1.125z"/></g><g><path fill="#263238" d="M219.67 179.61l.825.6h.67v-1.6l-.02-.07-.35 1.07h-1.125z"/></g><g><path fill="#263238" d="M221.175 166.76h-.677l.086.06-.354 1.07.925-.66.02.015v-.485z"/></g><g><path fill="#263238" d="M207.71 180.22h.62l.83-.6h-1.125l-.325-1v1.6z"/></g><g><path fill="#263238" d="M207.71 166.76v.485l.895.645-.349-1.07.081-.06h-.627z"/></g><g><path fill="#263238" d="M214.805 186.31l-.35-1.07-.35 1.07h-1.125l.91.665-.345 1.07.91-.665.91.665-.345-1.07.91-.665h-1.125z"/></g><g><path fill="#263238" d="M219.67 193.08l.825.6h.67v-1.6l-.02-.07-.35 1.07h-1.125z"/></g><g><path fill="#263238" d="M221.175 180.22h-.677l.086.066-.354 1.08v-.001l.925-.666.02.015v-.494z"/></g><g><path fill="#263238" d="M207.71 193.675h.62l.83-.6h-1.125l-.325-1.005v1.605z"/></g><g><path fill="#263238" d="M207.71 180.22v.494l.895.651-.349-1.08.081-.065h-.627z"/></g><g><path fill="#263238" d="M214.805 199.76l-.35-1.07-.35 1.07h-1.125l.91.66-.345 1.07.91-.66.91.66-.345-1.07.91-.66h-1.125z"/></g><g><path fill="#263238" d="M221.165 207.13v-1.6l-.02-.07-.35 1.07h-1.125l.825.6h.67z"/></g><g><path fill="#263238" d="M221.175 193.67h-.677l.086.06-.354 1.07.925-.66.02.015v-.485z"/></g><g><path fill="#263238" d="M209.16 206.53h-1.125l-.325-1v1.6h.62l.83-.6z"/></g><g><path fill="#263238" d="M207.71 193.67v.485l.895.645-.349-1.07.081-.06h-.627z"/></g><g><path fill="#263238" d="M214.805 213.22l-.35-1.07-.35 1.07h-1.125l.91.665-.345 1.07.91-.66.91.66-.345-1.07.91-.665h-1.125z"/></g><g><path fill="#263238" d="M221.165 218.99l-.02-.07-.35 1.07h-1.125l.825.6h.67v-1.6z"/></g><g><path fill="#263238" d="M221.175 207.13h-.677l.086.066-.354 1.08v-.001l.925-.666.02.015v-.494z"/></g><g><path fill="#263238" d="M207.71 220.59h.62l.83-.6h-1.125l-.325-1v1.6z"/></g><g><path fill="#263238" d="M207.71 207.13v.494l.895.651-.349-1.08.081-.065h-.627z"/></g><g><path fill="#263238" d="M221.175 220.59h-.677l.086.06-.354 1.07.925-.66.02.015v-.485z"/></g><g><path fill="#263238" d="M207.71 220.59v.485l.895.645-.349-1.07.081-.06h-.627z"/></g><g><path fill="#263238" d="M207.71 112.935v-.11h-.82l.15.11h.67z"/></g><g><path fill="#263238" d="M194.883 112.935l.152-.11h-.785v.11h.633z"/></g><g><path fill="#263238" d="M201.34 119.02l-.35-1.07-.345 1.07h-1.125l.91.66-.35 1.07.91-.66.915.66-.35-1.07.91-.66h-1.125z"/></g><g><path fill="#263238" d="M206.21 125.79l.83.6h.67v-1.6l-.025-.07-.345 1.07h-1.13z"/></g><g><path fill="#263238" d="M207.715 112.93h-.677l.08.06-.348 1.07.92-.66.025.015v-.485z"/></g><g><path fill="#263238" d="M194.25 126.39h.625l.825-.6h-1.125l-.325-1v1.6z"/></g><g><path fill="#263238" d="M194.25 113.415l.89.645-.35-1.07.085-.06h-.625v.485z"/></g><g><path fill="#263238" d="M201.34 132.48l-.35-1.07-.345 1.07h-1.125l.91.66-.35 1.075.91-.665.915.665-.35-1.075.91-.66h-1.125z"/></g><g><path fill="#263238" d="M206.21 139.25l.83.6h.67v-1.605l-.025-.065-.345 1.07h-1.13z"/></g><g><path fill="#263238" d="M207.715 126.39h-.677l.08.06-.348 1.085.92-.67.025.02v-.495z"/></g><g><path fill="#263238" d="M194.25 139.845h.625l.825-.6h-1.125l-.325-1.005v1.605z"/></g><g><path fill="#263238" d="M194.25 126.39v.494l.89.651-.35-1.084.085-.061h-.625z"/></g><g><path fill="#263238" d="M201.34 145.94l-.35-1.07-.345 1.07h-1.125l.91.66-.35 1.07.91-.66.915.66-.35-1.07.91-.66h-1.125z"/></g><g><path fill="#263238" d="M206.21 152.7l.83.6h.67v-1.6l-.025-.07-.345 1.07h-1.13z"/></g><g><path fill="#263238" d="M207.715 139.85h-.677l.08.06-.348 1.07.92-.66.025.015v-.485z"/></g><g><path fill="#263238" d="M195.7 152.7h-1.125l-.325-1v1.6h.625l.825-.6z"/></g><g><path fill="#263238" d="M194.25 139.85v.485l.89.645-.35-1.07.085-.06h-.625z"/></g><g><path fill="#263238" d="M201.34 159.394l-.35-1.074-.345 1.074h-1.125l.91.667-.35 1.074.91-.667.915.667-.35-1.074.91-.667h-1.125z"/></g><g><path fill="#263238" d="M206.21 166.16l.83.6h.67v-1.605l-.025-.065-.345 1.07h-1.13z"/></g><g><path fill="#263238" d="M207.715 153.3h-.677l.08.066-.348 1.08.92-.672.025.02v-.494z"/></g><g><path fill="#263238" d="M195.7 166.165h-1.125l-.325-1.005v1.605h.625l.825-.6z"/></g><g><path fill="#263238" d="M194.25 153.3v.494l.89.651-.35-1.08.085-.065h-.625z"/></g><g><path fill="#263238" d="M201.34 172.85l-.35-1.07-.345 1.07h-1.125l.91.66-.35 1.07.91-.66.915.66-.35-1.07.91-.66h-1.125z"/></g><g><path fill="#263238" d="M206.21 179.61l.83.6h.67v-1.6l-.025-.07-.345 1.07h-1.13z"/></g><g><path fill="#263238" d="M207.715 166.76h-.677l.08.06-.348 1.07.92-.66.025.015v-.485z"/></g><g><path fill="#263238" d="M195.7 179.62h-1.125l-.325-1v1.6h.625l.825-.6z"/></g><g><path fill="#263238" d="M194.25 166.76v.485l.89.645-.35-1.07.085-.06h-.625z"/></g><g><path fill="#263238" d="M201.34 186.31l-.35-1.07-.345 1.07h-1.125l.91.665-.35 1.07.91-.665.915.665-.35-1.07.91-.665h-1.125z"/></g><g><path fill="#263238" d="M207.71 193.68v-1.6l-.025-.07-.345 1.07h-1.13l.83.6h.67z"/></g><g><path fill="#263238" d="M207.715 180.22h-.677l.08.066-.348 1.08v-.001l.92-.666.025.015v-.494z"/></g><g><path fill="#263238" d="M195.7 193.075h-1.125l-.325-1.005v1.605h.625l.825-.6z"/></g><g><path fill="#263238" d="M194.25 180.22v.494l.89.651-.35-1.08.085-.065h-.625z"/></g><g><path fill="#263238" d="M201.34 199.76l-.35-1.07-.345 1.07h-1.125l.91.66-.35 1.07.91-.66.915.66-.35-1.07.91-.66h-1.125z"/></g><g><path fill="#263238" d="M207.71 205.53l-.025-.07-.345 1.07h-1.13l.83.6h.67v-1.6z"/></g><g><path fill="#263238" d="M207.715 193.67h-.677l.08.06-.348 1.07.92-.66.025.015v-.485z"/></g><g><path fill="#263238" d="M194.875 207.13l.825-.6h-1.125l-.325-1v1.6h.625z"/></g><g><path fill="#263238" d="M194.25 193.67v.485l.89.645-.35-1.07.085-.06h-.625z"/></g><g><path fill="#263238" d="M201.34 213.22l-.35-1.07-.345 1.07h-1.125l.91.665-.35 1.07.91-.66.915.66-.35-1.07.91-.665h-1.125z"/></g><g><path fill="#263238" d="M207.71 220.59v-1.6l-.025-.07-.345 1.07h-1.13l.83.6h.67z"/></g><g><path fill="#263238" d="M207.715 207.13h-.677l.08.066-.348 1.08v-.001l.92-.666.025.015v-.494z"/></g><g><path fill="#263238" d="M194.875 220.59l.825-.6h-1.125l-.325-1v1.6h.625z"/></g><g><path fill="#263238" d="M194.25 207.13v.494l.89.651-.35-1.08.085-.065h-.625z"/></g><g><path fill="#263238" d="M207.715 220.59h-.677l.08.06-.348 1.07.92-.66.025.015v-.485z"/></g><g><path fill="#263238" d="M194.25 220.59v.485l.89.645-.35-1.07.085-.06h-.625z"/></g><g><path fill="#263238" d="M194.25 112.935v-.11h-.82l.15.11h.67z"/></g><g><path fill="#263238" d="M181.423 112.935l.152-.11h-.785v.11h.633z"/></g><g><path fill="#263238" d="M187.88 119.02l-.345-1.07-.35 1.07h-1.125l.91.66-.345 1.07.91-.66.91.66-.35-1.07.915-.66h-1.13z"/></g><g><path fill="#263238" d="M192.75 125.79l.825.6h.67v-1.6l-.025-.07-.345 1.07h-1.125z"/></g><g><path fill="#263238" d="M193.575 112.93l.085.06-.35 1.07.91-.66.025.015v-.485h-.67z"/></g><g><path fill="#263238" d="M180.79 126.39h.625l.83-.6h-1.125l-.33-1v1.6z"/></g><g><path fill="#263238" d="M180.79 112.93v.485l.89.645-.345-1.07.08-.06h-.625z"/></g><g><path fill="#263238" d="M187.88 132.48l-.345-1.07-.35 1.07h-1.125l.91.66-.345 1.075.91-.665.91.665-.35-1.075.915-.66h-1.13z"/></g><g><path fill="#263238" d="M192.75 139.25l.825.6h.67v-1.605l-.025-.065-.345 1.07h-1.125z"/></g><g><path fill="#263238" d="M193.575 126.39l.085.06-.35 1.085.91-.67.025.02v-.495h-.67z"/></g><g><path fill="#263238" d="M180.79 139.845h.625l.83-.6h-1.125l-.33-1.005v1.605z"/></g><g><path fill="#263238" d="M180.79 126.39v.494l.89.651-.345-1.084.08-.061h-.625z"/></g><g><path fill="#263238" d="M187.88 145.94l-.345-1.07-.35 1.07h-1.125l.91.66-.345 1.07.91-.66.91.66-.35-1.07.915-.66h-1.13z"/></g><g><path fill="#263238" d="M194.245 153.3v-1.6l-.025-.07-.345 1.07h-1.125l.825.6h.67z"/></g><g><path fill="#263238" d="M193.575 139.85l.085.06-.35 1.07.91-.66.025.015v-.485h-.67z"/></g><g><path fill="#263238" d="M180.79 153.3h.625l.83-.6h-1.125l-.33-1v1.6z"/></g><g><path fill="#263238" d="M180.79 140.335l.89.645-.345-1.07.08-.06h-.625v.485z"/></g><g><path fill="#263238" d="M187.88 159.394l-.345-1.074-.35 1.074h-1.125l.91.667-.345 1.074.91-.667.91.667-.35-1.074.915-.667h-1.13z"/></g><g><path fill="#263238" d="M194.245 166.76v-1.605l-.025-.065-.345 1.07h-1.125l.825.6h.67z"/></g><g><path fill="#263238" d="M193.66 153.366l-.35 1.079.91-.67.025.02v-.495h-.67l.085.066z"/></g><g><path fill="#263238" d="M180.79 166.765h.625l.83-.6h-1.125l-.33-1.005v1.605z"/></g><g><path fill="#263238" d="M180.79 153.794l.89.651-.345-1.08.08-.065h-.625v.494z"/></g><g><path fill="#263238" d="M187.88 172.85l-.345-1.07-.35 1.07h-1.125l.91.66-.345 1.07.91-.66.91.66-.35-1.07.915-.66h-1.13z"/></g><g><path fill="#263238" d="M194.245 180.21v-1.6l-.025-.07-.345 1.07h-1.125l.825.6h.67z"/></g><g><path fill="#263238" d="M193.66 166.82l-.35 1.07.91-.66.025.015v-.485h-.67l.085.06z"/></g><g><path fill="#263238" d="M180.79 180.22h.625l.83-.6h-1.125l-.33-1v1.6z"/></g><g><path fill="#263238" d="M180.79 167.245l.89.645-.345-1.07.08-.06h-.625v.485z"/></g><g><path fill="#263238" d="M187.88 186.31l-.345-1.07-.35 1.07h-1.125l.91.665-.345 1.07.91-.665.91.665-.35-1.07.915-.665h-1.13z"/></g><g><path fill="#263238" d="M194.245 193.68v-1.6l-.025-.07-.345 1.07h-1.125l.825.6h.67z"/></g><g><path fill="#263238" d="M193.66 180.286l-.35 1.08v-.001l.91-.666.025.015v-.494h-.67l.085.066z"/></g><g><path fill="#263238" d="M180.79 193.675h.625l.83-.6h-1.125l-.33-1.005v1.605z"/></g><g><path fill="#263238" d="M180.79 180.714l.89.651-.345-1.08.08-.065h-.625v.494z"/></g><g><path fill="#263238" d="M187.88 199.76l-.345-1.07-.35 1.07h-1.125l.91.66-.345 1.07.91-.66.91.66-.35-1.07.915-.66h-1.13z"/></g><g><path fill="#263238" d="M194.245 207.13v-1.6l-.025-.07-.345 1.07h-1.125l.825.6h.67z"/></g><g><path fill="#263238" d="M194.245 193.67h-.67l.085.06-.35 1.07.91-.66.025.015v-.485z"/></g><g><path fill="#263238" d="M180.79 207.13h.625l.83-.6h-1.125l-.33-1v1.6z"/></g><g><path fill="#263238" d="M180.79 193.67v.485l.89.645-.345-1.07.08-.06h-.625z"/></g><g><path fill="#263238" d="M187.88 213.22l-.345-1.07-.35 1.07h-1.125l.91.665-.345 1.07.91-.66.91.66-.35-1.07.915-.665h-1.13z"/></g><g><path fill="#263238" d="M194.245 220.59v-1.6l-.025-.07-.345 1.07h-1.125l.825.6h.67z"/></g><g><path fill="#263238" d="M194.245 207.13h-.67l.085.066-.35 1.08v-.001l.91-.666.025.015v-.494z"/></g><g><path fill="#263238" d="M180.79 220.59h.625l.83-.6h-1.125l-.33-1v1.6z"/></g><g><path fill="#263238" d="M180.79 207.13v.494l.89.651-.345-1.08.08-.065h-.625z"/></g><g><path fill="#263238" d="M194.245 220.59h-.67l.085.06-.35 1.07.91-.66.025.015v-.485z"/></g><g><path fill="#263238" d="M180.79 220.59v.485l.89.645-.345-1.07.08-.06h-.625z"/></g><g><path fill="#263238" d="M180.785 112.935v-.11h-.815l.15.11h.665z"/></g><g><path fill="#263238" d="M167.955 112.935l.145-.11h-.77v.11h.625z"/></g><g><path fill="#263238" d="M174.43 119.02l-.35-1.07-.345 1.07h-1.125l.91.66-.35 1.07.91-.66.915.66-.35-1.07.91-.66h-1.125z"/></g><g><path fill="#263238" d="M179.29 125.79l.83.6h.665v-1.6l-.02-.07-.35 1.07h-1.125z"/></g><g><path fill="#263238" d="M180.79 112.93h-.665l.08.06-.345 1.07.91-.66.02.015v-.485z"/></g><g><path fill="#263238" d="M167.33 126.39h.625l.825-.6h-1.125l-.325-1v1.6z"/></g><g><path fill="#263238" d="M167.33 112.93v.485l.89.645-.35-1.07.085-.06h-.625z"/></g><g><path fill="#263238" d="M174.43 132.48l-.35-1.07-.345 1.07h-1.125l.91.66-.35 1.075.91-.665.915.665-.35-1.075.91-.66h-1.125z"/></g><g><path fill="#263238" d="M179.29 139.25l.83.6h.665v-1.605l-.02-.065-.35 1.07h-1.125z"/></g><g><path fill="#263238" d="M180.79 126.39h-.665l.08.06-.345 1.085.91-.67.02.02v-.495z"/></g><g><path fill="#263238" d="M167.33 139.845h.625l.825-.6h-1.125l-.325-1.005v1.605z"/></g><g><path fill="#263238" d="M167.33 126.39v.494l.89.651-.35-1.084.085-.061h-.625z"/></g><g><path fill="#263238" d="M174.43 145.94l-.35-1.07-.345 1.07h-1.125l.91.66-.35 1.07.91-.66.915.66-.35-1.07.91-.66h-1.125z"/></g><g><path fill="#263238" d="M180.785 153.3v-1.6l-.02-.07-.35 1.07h-1.125l.83.6h.665z"/></g><g><path fill="#263238" d="M180.205 139.91l-.345 1.07.91-.66.02.015v-.485h-.665l.08.06z"/></g><g><path fill="#263238" d="M167.33 153.3h.625l.825-.6h-1.125l-.325-1v1.6z"/></g><g><path fill="#263238" d="M167.33 140.335l.89.645-.35-1.07.085-.06h-.625v.485z"/></g><g><path fill="#263238" d="M174.43 159.394l-.35-1.074-.345 1.074h-1.125l.91.667-.35 1.074.91-.667.915.667-.35-1.074.91-.667h-1.125z"/></g><g><path fill="#263238" d="M180.785 166.76v-1.605l-.02-.065-.35 1.07h-1.125l.83.6h.665z"/></g><g><path fill="#263238" d="M180.205 153.366l-.345 1.079.91-.67.02.02v-.495h-.665l.08.066z"/></g><g><path fill="#263238" d="M167.33 166.765h.625l.825-.6h-1.125l-.325-1.005v1.605z"/></g><g><path fill="#263238" d="M167.33 153.794l.89.651-.35-1.08.085-.065h-.625v.494z"/></g><g><path fill="#263238" d="M174.43 172.85l-.35-1.07-.345 1.07h-1.125l.91.66-.35 1.07.91-.66.915.66-.35-1.07.91-.66h-1.125z"/></g><g><path fill="#263238" d="M180.785 180.21v-1.6l-.02-.07-.35 1.07h-1.125l.83.6h.665z"/></g><g><path fill="#263238" d="M180.205 166.82l-.345 1.07.91-.66.02.015v-.485h-.665l.08.06z"/></g><g><path fill="#263238" d="M167.33 180.22h.625l.825-.6h-1.125l-.325-1v1.6z"/></g><g><path fill="#263238" d="M167.33 167.245l.89.645-.35-1.07.085-.06h-.625v.485z"/></g><g><path fill="#263238" d="M174.43 186.31l-.35-1.07-.345 1.07h-1.125l.91.665-.35 1.07.91-.665.915.665-.35-1.07.91-.665h-1.125z"/></g><g><path fill="#263238" d="M180.785 193.68v-1.6l-.02-.07-.35 1.07h-1.125l.83.6h.665z"/></g><g><path fill="#263238" d="M180.205 180.286l-.345 1.08v-.001l.91-.666.02.015v-.494h-.665l.08.066z"/></g><g><path fill="#263238" d="M167.33 193.675h.625l.825-.6h-1.125l-.325-1.005v1.605z"/></g><g><path fill="#263238" d="M167.33 180.714l.89.651-.35-1.08.085-.065h-.625v.494z"/></g><g><path fill="#263238" d="M174.43 199.76l-.35-1.07-.345 1.07h-1.125l.91.66-.35 1.07.91-.66.915.66-.35-1.07.91-.66h-1.125z"/></g><g><path fill="#263238" d="M180.785 207.13v-1.6l-.02-.07-.35 1.07h-1.125l.83.6h.665z"/></g><g><path fill="#263238" d="M180.79 193.67h-.665l.08.06-.345 1.07.91-.66.02.015v-.485z"/></g><g><path fill="#263238" d="M167.33 207.13h.625l.825-.6h-1.125l-.325-1v1.6z"/></g><g><path fill="#263238" d="M167.33 194.155l.89.645-.35-1.07.085-.06h-.625v.485z"/></g><g><path fill="#263238" d="M174.43 213.22l-.35-1.07-.345 1.07h-1.125l.91.665-.35 1.07.91-.66.915.66-.35-1.07.91-.665h-1.125z"/></g><g><path fill="#263238" d="M180.785 220.59v-1.6l-.02-.07-.35 1.07h-1.125l.83.6h.665z"/></g><g><path fill="#263238" d="M180.79 207.13h-.665l.08.066-.345 1.08v-.001l.91-.666.02.015v-.494z"/></g><g><path fill="#263238" d="M167.33 220.59h.625l.825-.6h-1.125l-.325-1v1.6z"/></g><g><path fill="#263238" d="M167.33 207.13v.494l.89.651-.35-1.08.085-.065h-.625z"/></g><g><path fill="#263238" d="M180.79 220.59h-.665l.08.06-.345 1.07.91-.66.02.015v-.485z"/></g><g><path fill="#263238" d="M167.33 220.59v.485l.89.645-.35-1.07.085-.06h-.625z"/></g><g><path fill="#263238" d="M167.33 112.935v-.11h-.82l.15.11h.67z"/></g><g><path fill="#263238" d="M154.503 112.935l.152-.11h-.785v.11h.633z"/></g><g><path fill="#263238" d="M160.97 119.02l-.345-1.07-.35 1.07h-1.125l.91.66-.345 1.07.91-.66.91.66-.35-1.07.915-.66h-1.13z"/></g><g><path fill="#263238" d="M165.84 125.79l.825.6h.67v-1.6l-.025-.07-.345 1.07h-1.125z"/></g><g><path fill="#263238" d="M167.335 112.93h-.67l.085.06-.35 1.07.91-.66.025.015v-.485z"/></g><g><path fill="#263238" d="M154.495 126.39l.83-.6h-1.13l-.325-1v1.6h.625z"/></g><g><path fill="#263238" d="M153.87 113.415l.89.645-.35-1.07.085-.06h-.625v.485z"/></g><g><path fill="#263238" d="M159.715 134.215l.91-.665.91.665-.35-1.075.915-.66h-1.13l-.345-1.07-.35 1.07h-1.125l.91.66-.345 1.075z"/></g><g><path fill="#263238" d="M167.335 139.85v-1.605l-.025-.065-.345 1.07h-1.125l.825.6h.67z"/></g><g><path fill="#263238" d="M167.335 126.39h-.67l.085.06-.35 1.085.91-.67.025.02v-.495z"/></g><g><path fill="#263238" d="M154.495 139.845l.83-.6h-1.13l-.325-1.005v1.605h.625z"/></g><g><path fill="#263238" d="M153.87 126.884l.89.651-.35-1.084.085-.061h-.625v.494z"/></g><g><path fill="#263238" d="M159.715 147.67l.91-.66.91.66-.35-1.07.915-.66h-1.13l-.345-1.07-.35 1.07h-1.125l.91.66-.345 1.07z"/></g><g><path fill="#263238" d="M167.335 153.3v-1.6l-.025-.07-.345 1.07h-1.125l.825.6h.67z"/></g><g><path fill="#263238" d="M166.75 139.91l-.35 1.07.91-.66.025.015v-.485h-.67l.085.06z"/></g><g><path fill="#263238" d="M154.495 153.3l.83-.6h-1.13l-.325-1v1.6h.625z"/></g><g><path fill="#263238" d="M153.87 140.335l.89.645-.35-1.07.085-.06h-.625v.485z"/></g><g><path fill="#263238" d="M159.715 161.135l.91-.667.91.667-.35-1.074.915-.667h-1.13l-.345-1.074-.35 1.074h-1.125l.91.667-.345 1.074z"/></g><g><path fill="#263238" d="M167.335 166.76v-1.605l-.025-.065-.345 1.07h-1.125l.825.6h.67z"/></g><g><path fill="#263238" d="M166.75 153.366l-.35 1.079.91-.67.025.02v-.495h-.67l.085.066z"/></g><g><path fill="#263238" d="M154.495 166.765l.83-.6h-1.13l-.325-1.005v1.605h.625z"/></g><g><path fill="#263238" d="M153.87 153.794l.89.651-.35-1.08.085-.065h-.625v.494z"/></g><g><path fill="#263238" d="M159.715 174.58l.91-.66.91.66-.35-1.07.915-.66h-1.13l-.345-1.07-.35 1.07h-1.125l.91.66-.345 1.07z"/></g><g><path fill="#263238" d="M167.335 180.21v-1.6l-.025-.07-.345 1.07h-1.125l.825.6h.67z"/></g><g><path fill="#263238" d="M166.75 166.82l-.35 1.07.91-.66.025.015v-.485h-.67l.085.06z"/></g><g><path fill="#263238" d="M154.495 180.22l.83-.6h-1.13l-.325-1v1.6h.625z"/></g><g><path fill="#263238" d="M153.87 167.245l.89.645-.35-1.07.085-.06h-.625v.485z"/></g><g><path fill="#263238" d="M159.715 188.045l.91-.665.91.665-.35-1.07.915-.665h-1.13l-.345-1.07-.35 1.07h-1.125l.91.665-.345 1.07z"/></g><g><path fill="#263238" d="M167.335 193.68v-1.6l-.025-.07-.345 1.07h-1.125l.825.6h.67z"/></g><g><path fill="#263238" d="M166.75 180.286l-.35 1.08v-.001l.91-.666.025.015v-.494h-.67l.085.066z"/></g><g><path fill="#263238" d="M154.495 193.675l.83-.6h-1.13l-.325-1.005v1.605h.625z"/></g><g><path fill="#263238" d="M153.87 180.714l.89.651-.35-1.08.085-.065h-.625v.494z"/></g><g><path fill="#263238" d="M159.715 201.49l.91-.66.91.66-.35-1.07.915-.66h-1.13l-.345-1.07-.35 1.07h-1.125l.91.66-.345 1.07z"/></g><g><path fill="#263238" d="M167.335 207.13v-1.6l-.025-.07-.345 1.07h-1.125l.825.6h.67z"/></g><g><path fill="#263238" d="M166.75 193.73l-.35 1.07.91-.66.025.015v-.485h-.67l.085.06z"/></g><g><path fill="#263238" d="M154.495 207.13l.83-.6h-1.13l-.325-1v1.6h.625z"/></g><g><path fill="#263238" d="M153.87 194.155l.89.645-.35-1.07.085-.06h-.625v.485z"/></g><g><path fill="#263238" d="M160.97 213.22l-.345-1.07-.35 1.07h-1.125l.91.665-.345 1.07.91-.66.91.66-.35-1.07.915-.665h-1.13z"/></g><g><path fill="#263238" d="M167.335 220.59v-1.6l-.025-.07-.345 1.07h-1.125l.825.6h.67z"/></g><g><path fill="#263238" d="M167.335 207.13h-.67l.085.066-.35 1.08v-.001l.91-.666.025.015v-.494z"/></g><g><path fill="#263238" d="M154.495 220.59l.83-.6h-1.13l-.325-1v1.6h.625z"/></g><g><path fill="#263238" d="M153.87 207.13v.494l.89.651-.35-1.08.085-.065h-.625z"/></g><g><path fill="#263238" d="M167.335 220.59h-.67l.085.06-.35 1.07.91-.66.025.015v-.485z"/></g><g><path fill="#263238" d="M153.87 220.59v.485l.89.645-.35-1.07.085-.06h-.625z"/></g><g><path fill="#263238" d="M153.875 112.935v-.11h-.815l.145.11h.67z"/></g><g><path fill="#263238" d="M141.015 112.825v.11h.025l.145-.11h-.17z"/></g><g><path fill="#263238" d="M146.252 120.75l.913-.66.913.66-.346-1.07.913-.66h-1.129l-.351-1.07-.346 1.07h-1.129l.913.66-.351 1.07z"/></g><g><path fill="#263238" d="M153.875 126.39v-1.6l-.02-.07-.35 1.07h-1.125l.825.6h.67z"/></g><g><path fill="#263238" d="M153.2 112.93l.085.06-.345 1.07.91-.66.02.015v-.485h-.67z"/></g><g><path fill="#263238" d="M141.87 125.79h-.85v.6h.025l.825-.6z"/></g><g><path fill="#263238" d="M141.018 112.95l.025-.02h-.025v.02z"/></g><g><path fill="#263238" d="M141.305 114.06l-.29-.89v.68l.29.21z"/></g><g><path fill="#263238" d="M146.252 134.215l.913-.665.913.665-.346-1.075.913-.66h-1.129l-.351-1.07-.346 1.07h-1.129l.913.66-.351 1.075z"/></g><g><path fill="#263238" d="M153.875 139.85v-1.605l-.02-.065-.35 1.07h-1.125l.825.6h.67z"/></g><g><path fill="#263238" d="M153.285 126.45l-.345 1.085.91-.67.02.02v-.495h-.67l.085.06z"/></g><g><path fill="#263238" d="M141.87 139.25h-.85v.6h.025l.825-.6z"/></g><g><path fill="#263238" d="M141.305 127.535l-.29-.905v.693l.29.212z"/></g><g><path fill="#263238" d="M141.018 126.41l.025-.02h-.025v.02z"/></g><g><path fill="#263238" d="M146.252 147.67l.913-.66.913.66-.346-1.07.913-.66h-1.129l-.351-1.07-.346 1.07h-1.129l.913.66-.351 1.07z"/></g><g><path fill="#263238" d="M153.875 153.3v-1.6l-.02-.07-.35 1.07h-1.125l.825.6h.67z"/></g><g><path fill="#263238" d="M153.285 139.91l-.345 1.07.91-.66.02.015v-.485h-.67l.085.06z"/></g><g><path fill="#263238" d="M141.87 152.7h-.85v.6h.025l.825-.6z"/></g><g><path fill="#263238" d="M141.018 139.87l.025-.02h-.025v.02z"/></g><g><path fill="#263238" d="M141.305 140.98l-.29-.89v.68l.29.21z"/></g><g><path fill="#263238" d="M146.252 161.135l.913-.667.913.667-.346-1.074.913-.667h-1.129l-.351-1.074-.346 1.074h-1.129l.913.667-.351 1.074z"/></g><g><path fill="#263238" d="M153.875 166.76v-1.605l-.02-.065-.35 1.07h-1.125l.825.6h.67z"/></g><g><path fill="#263238" d="M153.285 153.366l-.345 1.079.91-.67.02.02v-.495h-.67l.085.066z"/></g><g><path fill="#263238" d="M141.87 166.16h-.85v.6h.025l.825-.6z"/></g><g><path fill="#263238" d="M141.305 154.435l-.29-.895v.685l.29.21z"/></g><g><path fill="#263238" d="M141.018 153.32l.025-.02h-.025v.02z"/></g><g><path fill="#263238" d="M146.252 174.58l.913-.66.913.66-.346-1.07.913-.66h-1.129l-.351-1.07-.346 1.07h-1.129l.913.66-.351 1.07z"/></g><g><path fill="#263238" d="M153.875 180.21v-1.6l-.02-.07-.35 1.07h-1.125l.825.6h.67z"/></g><g><path fill="#263238" d="M153.285 166.82l-.345 1.07.91-.66.02.015v-.485h-.67l.085.06z"/></g><g><path fill="#263238" d="M141.87 179.62h-.85v.6h.025l.825-.6z"/></g><g><path fill="#263238" d="M141.305 167.89l-.29-.89v.68l.29.21z"/></g><g><path fill="#263238" d="M141.018 166.78l.025-.02h-.025v.02z"/></g><g><path fill="#263238" d="M146.252 188.045l.913-.665.913.665-.346-1.07.913-.665h-1.129l-.351-1.07-.346 1.07h-1.129l.913.665-.351 1.07z"/></g><g><path fill="#263238" d="M153.875 193.68v-1.6l-.02-.07-.35 1.07h-1.125l.825.6h.67z"/></g><g><path fill="#263238" d="M153.285 180.286l-.345 1.08v-.001l.91-.666.02.015v-.494h-.67l.085.066z"/></g><g><path fill="#263238" d="M141.87 193.08h-.85v.6h.025l.825-.6z"/></g><g><path fill="#263238" d="M141.305 181.365l-.29-.905v.693l.29.212z"/></g><g><path fill="#263238" d="M141.018 180.24l.025-.02h-.025v.02z"/></g><g><path fill="#263238" d="M146.252 201.49l.913-.66.913.66-.346-1.07.913-.66h-1.129l-.351-1.07-.346 1.07h-1.129l.913.66-.351 1.07z"/></g><g><path fill="#263238" d="M153.875 207.13v-1.6l-.02-.07-.35 1.07h-1.125l.825.6h.67z"/></g><g><path fill="#263238" d="M153.285 193.73l-.345 1.07.91-.66.02.015v-.485h-.67l.085.06z"/></g><g><path fill="#263238" d="M141.87 206.53h-.85v.6h.025l.825-.6z"/></g><g><path fill="#263238" d="M141.018 193.69l.025-.02h-.025v.02z"/></g><g><path fill="#263238" d="M141.305 194.81l-.29-.89v.68l.29.21z"/></g><g><path fill="#263238" d="M146.252 214.955l.913-.66.913.66-.346-1.07.913-.665h-1.129l-.351-1.07-.346 1.07h-1.129l.913.665-.351 1.07z"/></g><g><path fill="#263238" d="M153.875 220.59v-1.6l-.02-.07-.35 1.07h-1.125l.825.6h.67z"/></g><g><path fill="#263238" d="M153.285 207.196l-.345 1.08v-.001l.91-.666.02.015v-.494h-.67l.085.066z"/></g><g><path fill="#263238" d="M141.87 219.99h-.85v.6h.025l.825-.6z"/></g><g><path fill="#263238" d="M141.305 208.27l-.29-.89v.68l.29.21z"/></g><g><path fill="#263238" d="M141.018 207.15l.025-.02h-.025v.02z"/></g><g><path fill="#263238" d="M153.87 220.59h-.67l.085.06-.345 1.07.91-.66.02.015v-.485z"/></g><g><path fill="#263238" d="M141.015 220.83v.68l.29.21-.29-.89z"/></g><g><path fill="#263238" d="M141.018 220.59v.02l.025-.02h-.025z"/></g><g><path fill="none" stroke="#263238" stroke-linecap="round" stroke-linejoin="round" stroke-miterlimit="20" stroke-width=".5" d="M199.81 112.82v0h30.905v110.8H199.81v0z"/></g><g><path fill="#adc7f7" d="M185.502 102.767s-9.045-4.895-12.815-8.665c-3.77-3.77-4.145 2.635-4.145 6.03 0 3.395-1.885 6.03 1.13 6.405 3.015.375 15.83-1.13 15.83-1.13z"/><path fill="none" stroke="#263238" stroke-linecap="round" stroke-linejoin="round" stroke-miterlimit="20" stroke-width=".5" d="M185.502 102.767v0s-9.045-4.895-12.815-8.665c-3.77-3.77-4.145 2.635-4.145 6.03 0 3.395-1.885 6.03 1.13 6.405 3.015.375 15.83-1.13 15.83-1.13v0z"/></g><g><path fill="#adc7f7" d="M188.6 102.767s9.045-4.895 12.815-8.665c3.77-3.77 4.145 2.635 4.145 6.03 0 3.395 1.885 6.03-1.13 6.405-3.015.375-15.83-1.13-15.83-1.13z"/><path fill="none" stroke="#263238" stroke-linecap="round" stroke-linejoin="round" stroke-miterlimit="20" stroke-width=".5" d="M188.6 102.767v0s9.045-4.895 12.815-8.665c3.77-3.77 4.145 2.635 4.145 6.03 0 3.395 1.885 6.03-1.13 6.405-3.015.375-15.83-1.13-15.83-1.13v0z"/></g><g><path fill="#adc7f7" d="M185.24 102.12h3.565v3.575h-3.565z"/><path fill="none" stroke="#263238" stroke-linecap="round" stroke-linejoin="round" stroke-miterlimit="20" stroke-width=".5" d="M185.24 102.12v0h3.565v3.575h-3.565v0z"/></g><g><path fill="#263238" d="M138.38 105.29h94.97v9.42h-94.97z"/><path fill="none" stroke="#263238" stroke-linecap="round" stroke-linejoin="round" stroke-miterlimit="20" stroke-width=".5" d="M138.38 105.29v0h94.97v9.42h-94.97v0z"/></g><g><path fill="#adc7f7" d="M158.84 105.23h11.5v118.325h-11.5z"/><path fill="none" stroke="#263238" stroke-linecap="round" stroke-linejoin="round" stroke-miterlimit="20" stroke-width=".5" d="M158.84 105.23v0h11.5v118.325h-11.5v0z"/></g><g transform="rotate(-12.19 184 145.5)"><path fill="#adc7f7" d="M174.39 139.91h18.82v11.055h-18.82z"/><path fill="none" stroke="#263238" stroke-linecap="round" stroke-linejoin="round" stroke-miterlimit="20" stroke-width=".5" d="M174.39 139.91v0h18.82v11.055h-18.82v0z"/></g><g transform="rotate(180 217.5 164.5)"><path fill="#adc7f7" d="M211.59 105.24h11.5v118.325h-11.5z"/><path fill="none" stroke="#263238" stroke-linecap="round" stroke-linejoin="round" stroke-miterlimit="20" stroke-width=".5" d="M211.59 105.24v0h11.5v118.325h-11.5v0z"/></g><g><path fill="#adc7f7" d="M170.34 105.23a17.58 17.58 0 0 0-2.875 3.245c-1.5 2.125-.875 5.875-.875 8.25s-.75 10.25-.75 10.25l4.625-5.25s4.25 6.125 4.25 5.625V112a8.83 8.83 0 0 1 1.375-5c.75-1.125 2.625-1.75 2.625-1.75z"/><path fill="none" stroke="#263238" stroke-linecap="round" stroke-linejoin="round" stroke-miterlimit="20" stroke-width=".5" d="M170.34 105.23a17.58 17.58 0 0 0-2.875 3.245c-1.5 2.125-.875 5.875-.875 8.25s-.75 10.25-.75 10.25v0l4.625-5.25v0s4.25 6.125 4.25 5.625V112a8.83 8.83 0 0 1 1.375-5c.75-1.125 2.625-1.75 2.625-1.75v0z"/></g><g><path fill="#adc7f7" d="M180.67 105.23a17.58 17.58 0 0 0-2.875 3.245c-1.5 2.125-.875 5.875-.875 8.25s-.75 10.25-.75 10.25l4.625-5.25s4.25 6.125 4.25 5.625V112a8.83 8.83 0 0 1 1.375-5c.75-1.125 2.625-1.75 2.625-1.75z"/><path fill="none" stroke="#263238" stroke-linecap="round" stroke-linejoin="round" stroke-miterlimit="20" stroke-width=".5" d="M180.67 105.23a17.58 17.58 0 0 0-2.875 3.245c-1.5 2.125-.875 5.875-.875 8.25s-.75 10.25-.75 10.25v0l4.625-5.25v0s4.25 6.125 4.25 5.625V112a8.83 8.83 0 0 1 1.375-5c.75-1.125 2.625-1.75 2.625-1.75v0z"/></g><g><path fill="#fff" d="M10.16 202.56h41.325v21.065H10.16z"/><path fill="none" stroke="#263238" stroke-linecap="round" stroke-linejoin="round" stroke-miterlimit="20" stroke-width=".5" d="M10.16 202.56v0h41.325v21.065H10.16v0z"/></g><g><path fill="#adc7f7" d="M20.94 202.56h4.875v21.065H20.94z"/><path fill="none" stroke="#263238" stroke-linecap="round" stroke-linejoin="round" stroke-miterlimit="20" stroke-width=".5" d="M20.94 202.56v0h4.875v21.065H20.94v0z"/></g><g><path fill="#fff" d="M37.25 202.56h14.24v21.065H37.25z"/><path fill="none" stroke="#263238" stroke-linecap="round" stroke-linejoin="round" stroke-miterlimit="20" stroke-width=".5" d="M37.25 202.56v0h14.24v21.065H37.25v0z"/></g><g><path fill="#fff" d="M41.17 202.56h4.875v21.065H41.17z"/><path fill="none" stroke="#263238" stroke-linecap="round" stroke-linejoin="round" stroke-miterlimit="20" stroke-width=".5" d="M41.17 202.56v0h4.875v21.065H41.17v0z"/></g><g><path fill="#fff" d="M39.53 202.56h41.325v21.065H39.53z"/></g><g><path fill="#adc7f7" d="M80.85 213.94v-1.87l-15.53 11.555h2.515l13.015-9.685z"/></g><g><path fill="#adc7f7" d="M39.53 206.415v1.87l7.695-5.725h-2.51l-5.185 3.855z"/></g><g><path fill="#adc7f7" d="M57.01 202.56h-2.515L39.53 213.695v1.87l17.48-13.005z"/></g><g><path fill="#adc7f7" d="M66.79 202.56h-2.51l-24.75 18.415v1.87l27.26-20.285z"/></g><g><path fill="#adc7f7" d="M55.54 223.625h2.51l22.8-16.965v-1.87l-25.31 18.835z"/></g><g><path fill="#adc7f7" d="M45.75 223.62h2.515l28.3-21.06h-2.51L45.75 223.62z"/></g><g><path fill="#adc7f7" d="M80.85 221.224v-1.874l-5.75 4.285h2.515l3.235-2.41z"/></g><g><path fill="#263238" d="M50.3 202.56h4.875v21.065H50.3z"/><path fill="none" stroke="#263238" stroke-linecap="round" stroke-linejoin="round" stroke-miterlimit="20" stroke-width=".5" d="M50.3 202.56v0h4.875v21.065H50.3v0z"/></g><g><path fill="none" stroke="#263238" stroke-linecap="round" stroke-linejoin="round" stroke-miterlimit="20" stroke-width=".5" d="M66.61 202.56v0h14.24v21.065H66.61v0z"/></g><g><path fill="#263238" d="M70.53 202.56h4.875v21.065H70.53z"/><path fill="none" stroke="#263238" stroke-linecap="round" stroke-linejoin="round" stroke-miterlimit="20" stroke-width=".5" d="M70.53 202.56v0h4.875v21.065H70.53v0z"/></g><g><path fill="none" stroke="#263238" stroke-linecap="round" stroke-linejoin="round" stroke-miterlimit="20" stroke-width=".5" d="M39.53 202.56v0h41.325v21.065H39.53v0z"/></g><g><path fill="#adc7f7" d="M67.53 216.91h41.325v6.715H67.53z"/><path fill="none" stroke="#263238" stroke-linecap="round" stroke-linejoin="round" stroke-miterlimit="20" stroke-width=".5" d="M67.53 216.91v0h41.325v6.715H67.53v0z"/></g><g><path fill="#fff" d="M78.3 216.91h4.875v6.715H78.3z"/><path fill="none" stroke="#263238" stroke-linecap="round" stroke-linejoin="round" stroke-miterlimit="20" stroke-width=".5" d="M78.3 216.91v0h4.875v6.715H78.3v0z"/></g><g><path fill="#adc7f7" d="M94.62 216.91h14.24v6.715H94.62z"/><path fill="none" stroke="#263238" stroke-linecap="round" stroke-linejoin="round" stroke-miterlimit="20" stroke-width=".5" d="M94.62 216.91v0h14.24v6.715H94.62v0z"/></g><g><path fill="#fff" d="M98.54 216.91h4.875v6.715H98.54z"/><path fill="none" stroke="#263238" stroke-linecap="round" stroke-linejoin="round" stroke-miterlimit="20" stroke-width=".5" d="M98.54 216.91v0h4.875v6.715H98.54v0z"/></g><g><path fill="none" stroke="#fff" stroke-linecap="round" stroke-linejoin="round" stroke-miterlimit="20" stroke-width=".5" d="M84.25 210.864s-2.88-7.5-7.5-6.33"/></g><g><path fill="none" stroke="#fff" stroke-linecap="round" stroke-linejoin="round" stroke-miterlimit="20" stroke-width=".5" d="M84.26 210.86s3.455-9.785 8.345-6.62"/></g><g><path fill="#adc7f7" d="M65.84 210.29h41.325v6.715H65.84z"/><path fill="none" stroke="#263238" stroke-linecap="round" stroke-linejoin="round" stroke-miterlimit="20" stroke-width=".5" d="M65.84 210.29v0h41.325v6.715H65.84v0z"/></g><g><path fill="#fff" d="M76.61 210.29h4.875v6.715H76.61z"/><path fill="none" stroke="#263238" stroke-linecap="round" stroke-linejoin="round" stroke-miterlimit="20" stroke-width=".5" d="M76.61 210.29v0h4.875v6.715H76.61v0z"/></g><g><path fill="#adc7f7" d="M92.93 210.29h14.24v6.715H92.93z"/><path fill="none" stroke="#263238" stroke-linecap="round" stroke-linejoin="round" stroke-miterlimit="20" stroke-width=".5" d="M92.93 210.29v0h14.24v6.715H92.93v0z"/></g><g><path fill="#fff" d="M96.85 210.29h4.875v6.715H96.85z"/><path fill="none" stroke="#263238" stroke-linecap="round" stroke-linejoin="round" stroke-miterlimit="20" stroke-width=".5" d="M96.85 210.29v0h4.875v6.715H96.85v0z"/></g><g><path fill="#adc7f7" d="M22.94 183.6h6.15v4.065h-6.15z"/><path fill="none" stroke="#263238" stroke-linecap="round" stroke-linejoin="round" stroke-miterlimit="20" stroke-width=".5" d="M22.94 183.6v0h6.15v4.065h-6.15v0z"/></g><g><path fill="#fff" d="M25.615 188.395l-3.39-2.465-1.955 2.65 1.695 1.235 3.65-1.42z"/><path fill="none" stroke="#263238" stroke-linecap="round" stroke-linejoin="round" stroke-miterlimit="20" stroke-width=".5" d="M25.615 188.395v0l-3.39-2.465v0l-1.955 2.65v0l1.695 1.235v0l3.65-1.42v0z"/></g><g><path fill="#fff" d="M30.01 185.76l-3.39 2.471 3.65 1.424 1.695-1.233-1.955-2.662z"/><path fill="none" stroke="#263238" stroke-linecap="round" stroke-linejoin="round" stroke-miterlimit="20" stroke-width=".5" d="M30.01 185.76v0l-3.39 2.471v0l3.65 1.424v0l1.695-1.233v0l-1.955-2.662v0z"/></g><g><path fill="#fff" d="M28.465 187.07H23.67l1.2 2.895h2.4l1.195-2.895z"/><path fill="none" stroke="#263238" stroke-linecap="round" stroke-linejoin="round" stroke-miterlimit="20" stroke-width=".5" d="M28.465 187.07v0H23.67v0l1.2 2.895v0h2.4v0l1.195-2.895v0z"/></g><g><path fill="#adc7f7" d="M25.615 182.704l-3.39 2.471-1.955-2.662 1.695-1.233 3.65 1.424z"/><path fill="none" stroke="#263238" stroke-linecap="round" stroke-linejoin="round" stroke-miterlimit="20" stroke-width=".5" d="M25.615 182.704v0l-3.39 2.471v0l-1.955-2.662v0l1.695-1.233v0l3.65 1.424v0z"/></g><g><path fill="#adc7f7" d="M30.175 185.445l-3.385-2.465 3.645-1.42 1.695 1.235-1.955 2.65z"/><path fill="none" stroke="#263238" stroke-linecap="round" stroke-linejoin="round" stroke-miterlimit="20" stroke-width=".5" d="M30.175 185.445v0l-3.385-2.465v0l3.645-1.42v0l1.695 1.235v0l-1.955 2.65v0z"/></g><g><path fill="#adc7f7" d="M28.465 183.995H23.67l1.2-2.895h2.4l1.195 2.895z"/><path fill="none" stroke="#263238" stroke-linecap="round" stroke-linejoin="round" stroke-miterlimit="20" stroke-width=".5" d="M28.465 183.995v0H23.67v0l1.2-2.895v0h2.4v0l1.195 2.895v0z"/></g><g><path fill="#adc7f7" d="M23.78 183.79v3.485l-3.96-.87v-1.745l3.96-.87z"/><path fill="none" stroke="#263238" stroke-linecap="round" stroke-linejoin="round" stroke-miterlimit="20" stroke-width=".5" d="M23.78 183.79v3.485l-3.96-.87v0-1.745 0l3.96-.87v0z"/></g><g><path fill="#adc7f7" d="M28.25 183.79v3.485l3.96-.87v-1.745l-3.96-.87z"/><path fill="none" stroke="#263238" stroke-linecap="round" stroke-linejoin="round" stroke-miterlimit="20" stroke-width=".5" d="M28.25 183.79v3.485l3.96-.87v0-1.745 0l-3.96-.87v0z"/></g><g><path fill="#263238" d="M10.77 186.28h31.495v16.055H10.77z"/><path fill="none" stroke="#263238" stroke-linecap="round" stroke-linejoin="round" stroke-miterlimit="20" stroke-width=".5" d="M10.77 186.28v0h31.495v16.055H10.77v0z"/></g><g><path fill="#adc7f7" d="M18.98 186.28h3.715v16.055H18.98z"/><path fill="none" stroke="#263238" stroke-linecap="round" stroke-linejoin="round" stroke-miterlimit="20" stroke-width=".5" d="M18.98 186.28v0h3.715v16.055H18.98v0z"/></g><g><path fill="#263238" d="M31.42 186.28h10.85v16.055H31.42z"/><path fill="none" stroke="#263238" stroke-linecap="round" stroke-linejoin="round" stroke-miterlimit="20" stroke-width=".5" d="M31.42 186.28v0h10.85v16.055H31.42v0z"/></g><g><path fill="#adc7f7" d="M34.4 186.28h3.715v16.055H34.4z"/><path fill="none" stroke="#263238" stroke-linecap="round" stroke-linejoin="round" stroke-miterlimit="20" stroke-width=".5" d="M34.4 186.28v0h3.715v16.055H34.4v0z"/></g><g><path fill="#fff" d="M163.18 196.89h8.78v5.8h-8.78z"/><path fill="none" stroke="#263238" stroke-linecap="round" stroke-linejoin="round" stroke-miterlimit="20" stroke-width=".5" d="M163.18 196.89v0h8.78v5.8h-8.78v0z"/></g><g><path fill="#fff" d="M167.005 203.74l-4.84-3.52-2.785 3.785 2.415 1.765 5.21-2.03z"/><path fill="none" stroke="#263238" stroke-linecap="round" stroke-linejoin="round" stroke-miterlimit="20" stroke-width=".5" d="M167.005 203.74v0l-4.84-3.52v0l-2.785 3.785v0l2.415 1.765v0l5.21-2.03v0z"/></g><g><path fill="#fff" d="M173.28 199.97l-4.84 3.52 5.205 2.03 2.42-1.76-2.785-3.79z"/><path fill="none" stroke="#263238" stroke-linecap="round" stroke-linejoin="round" stroke-miterlimit="20" stroke-width=".5" d="M173.28 199.97v0l-4.84 3.52v0l5.205 2.03v0l2.42-1.76v0l-2.785-3.79v0z"/></g><g><path fill="#fff" d="M171.08 201.85h-6.84l1.71 4.115h3.42l1.71-4.115z"/><path fill="none" stroke="#263238" stroke-linecap="round" stroke-linejoin="round" stroke-miterlimit="20" stroke-width=".5" d="M171.08 201.85v0h-6.84v0l1.71 4.115v0h3.42v0l1.71-4.115v0z"/></g><g><path fill="#fff" d="M167.005 195.609l-4.84 3.526-2.785-3.792 2.415-1.763 5.21 2.029z"/><path fill="none" stroke="#263238" stroke-linecap="round" stroke-linejoin="round" stroke-miterlimit="20" stroke-width=".5" d="M167.005 195.609v0l-4.84 3.526v0l-2.785-3.792v0l2.415-1.763v0l5.21 2.029v0z"/></g><g><path fill="#fff" d="M173.52 199.525l-4.84-3.52 5.205-2.025 2.42 1.76-2.785 3.785z"/><path fill="none" stroke="#263238" stroke-linecap="round" stroke-linejoin="round" stroke-miterlimit="20" stroke-width=".5" d="M173.52 199.525v0l-4.84-3.52v0l5.205-2.025v0l2.42 1.76v0l-2.785 3.785v0z"/></g><g><path fill="#fff" d="M171.08 197.44h-6.84l1.71-4.11h3.42l1.71 4.11z"/><path fill="none" stroke="#263238" stroke-linecap="round" stroke-linejoin="round" stroke-miterlimit="20" stroke-width=".5" d="M171.08 197.44v0h-6.84v0l1.71-4.11v0h3.42v0l1.71 4.11v0z"/></g><g><path fill="#fff" d="M164.38 197.16v4.975l-5.65-1.245v-2.485l5.65-1.245z"/><path fill="none" stroke="#263238" stroke-linecap="round" stroke-linejoin="round" stroke-miterlimit="20" stroke-width=".5" d="M164.38 197.16v4.975l-5.65-1.245v0-2.485 0l5.65-1.245v0z"/></g><g><path fill="#fff" d="M170.77 197.16v4.975l5.65-1.245v-2.485l-5.65-1.245z"/><path fill="none" stroke="#263238" stroke-linecap="round" stroke-linejoin="round" stroke-miterlimit="20" stroke-width=".5" d="M170.77 197.16v4.975l5.65-1.245v0-2.485 0l-5.65-1.245v0z"/></g><g><path fill="#adc7f7" d="M145.83 200.72h44.94v22.91h-44.94z"/><path fill="none" stroke="#263238" stroke-linecap="round" stroke-linejoin="round" stroke-miterlimit="20" stroke-width=".5" d="M145.83 200.72v0h44.94v22.91h-44.94v0z"/></g><g><path fill="#fff" d="M157.54 200.72h5.3v22.91h-5.3z"/><path fill="none" stroke="#263238" stroke-linecap="round" stroke-linejoin="round" stroke-miterlimit="20" stroke-width=".5" d="M157.54 200.72v0h5.3v22.91h-5.3v0z"/></g><g><path fill="#adc7f7" d="M175.29 200.72h15.485v22.91H175.29z"/><path fill="none" stroke="#263238" stroke-linecap="round" stroke-linejoin="round" stroke-miterlimit="20" stroke-width=".5" d="M175.29 200.72v0h15.485v22.91H175.29v0z"/></g><g><path fill="#fff" d="M179.55 200.72h5.3v22.91h-5.3z"/><path fill="none" stroke="#263238" stroke-linecap="round" stroke-linejoin="round" stroke-miterlimit="20" stroke-width=".5" d="M179.55 200.72v0h5.3v22.91h-5.3v0z"/></g><g><path fill="none" stroke="#263238" stroke-linecap="round" stroke-linejoin="round" stroke-miterlimit="20" stroke-width="1.5" d="M218.656 189.727v0s-4.5-10.75-9.25-10.25-6 6.5-2.25 8.25 11.5 2 11.5 2z"/></g><g><path fill="none" stroke="#263238" stroke-linecap="round" stroke-linejoin="round" stroke-miterlimit="20" stroke-width="1.5" d="M218.66 189.727v0s2.75-10.75 8.25-10 3.68 9.25.93 9.75-9.18.25-9.18.25z"/></g><g><path fill="#fff" d="M196.84 189.48h41.325v34.15H196.84z"/></g><g><path fill="#adc7f7" d="M226.74 217.335a139.71 139.71 0 0 0 11.42-9.13v-2.055c-3.9 3.74-8.375 7.06-12.315 10-4.04 3-7.295 5.415-8.875 7.5h1.975c1.72-1.805 4.7-4.015 7.795-6.315z"/></g><g><path fill="#adc7f7" d="M207.97 198.53c-4.66 3.9-8.5 7.19-11.13 9.915v2.22c2.9-3.29 8-7.555 12.095-11 4.45-3.72 8.65-7.24 10.33-9.5.17-.218.318-.45.445-.695h-4.5c-1.665.935-4 2.345-7.29 4.375-3.575 2.2-7.65 4.7-11.06 6.56v1.7c3.545-1.88 7.85-4.525 11.845-7 3.29-2.025 6.915-4.255 8.885-5.24-1.855 2.17-5.635 5.335-9.62 8.665z"/></g><g><path fill="#adc7f7" d="M238.155 211.31c-1.91 1.675-4 3.765-6.215 5.97-2.13 2.12-4.47 4.455-6.65 6.345h2.265c1.745-1.595 3.58-3.425 5.44-5.28 1.65-1.645 3.45-3.435 5.16-5z"/></g><g><path fill="#adc7f7" d="M196.84 195.94c2.035-2 4.42-4.21 6.935-6.46h-2.22c-1.055.95-2.155 1.96-3.245 3l-1.47 1.395z"/></g><g><path fill="#adc7f7" d="M238.16 199.696v-1.856c-2.65 1.92-6 4.452-10.145 7.653-8.625 6.623-19.665 15.09-26.245 18.142h3.265c5.92-3.301 14.105-9.439 23.89-16.952 2.995-2.3 6.29-4.826 9.235-6.987z"/></g><g><path fill="#adc7f7" d="M226.745 189.5h-2.5c-3 2.315-7.36 6.14-13.705 11.855-4.55 4.105-10.33 9.315-13.71 11.79v1.795c2.775-1.805 7.35-5.83 14.715-12.47 5.065-4.58 11.5-10.38 15.2-12.97z"/></g><g><path fill="#adc7f7" d="M229.735 191.325a15.73 15.73 0 0 0 .77-1.825h-1.6c-.13.33-.3.725-.525 1.205-3.96 8.295-14.345 16.07-22.685 22.295-4.025 3-7 5.27-8.855 7.105v2.2c1.63-2.035 5.74-5.105 9.75-8.1 8.475-6.33 19.025-14.205 23.145-22.88z"/></g><g><path fill="none" stroke="#263238" stroke-linecap="round" stroke-linejoin="round" stroke-miterlimit="20" stroke-width=".5" d="M196.84 189.48v0h41.325v34.15H196.84v0z"/></g><g><path fill="#263238" d="M207.61 189.48h4.875v34.15h-4.875z"/><path fill="none" stroke="#263238" stroke-linecap="round" stroke-linejoin="round" stroke-miterlimit="20" stroke-width=".5" d="M207.61 189.48v0h4.875v34.15h-4.875v0z"/></g><g><path fill="none" stroke="#263238" stroke-linecap="round" stroke-linejoin="round" stroke-miterlimit="20" stroke-width=".5" d="M223.92 189.48v0h14.24v34.15h-14.24v0z"/></g><g><path fill="#263238" d="M227.84 189.48h4.875v34.15h-4.875z"/><path fill="none" stroke="#263238" stroke-linecap="round" stroke-linejoin="round" stroke-miterlimit="20" stroke-width=".5" d="M227.84 189.48v0h4.875v34.15h-4.875v0z"/></g><g><path fill="none" stroke="#263238" stroke-linecap="round" stroke-linejoin="round" stroke-miterlimit="20" stroke-width="1.5" d="M216.67 211.229v0-15c0-5 2-6.5 2-6.5v0s1.615-.385 2.5 2.35c.885 2.735 0 13.455 0 13.455v0"/></g></g></g></g></svg>