<svg xmlns="http://www.w3.org/2000/svg" width="120" height="92" viewBox="0 0 120 92"><g><g><g><g><path fill="#adc7f7" d="M90.532 12.46S78.865-.362 60.392.25C41.92.865 26.165 13.288 13.138 23.01.11 32.729-3.382 47.827 4.19 59.614c7.572 11.787 19.64 6.825 35.002 14.475 15.363 7.651 18.281 11.997 35.394 10.136 17.113-1.86 30.14-20.888 28.198-41.157C100.844 22.8 90.532 12.46 90.532 12.46z"/></g><g opacity=".7"><path fill="#fff" d="M90.532 12.46S78.865-.362 60.392.25C41.92.865 26.165 13.288 13.138 23.01.11 32.729-3.382 47.827 4.19 59.614c7.572 11.787 19.64 6.825 35.002 14.475 15.363 7.651 18.281 11.997 35.394 10.136 17.113-1.86 30.14-20.888 28.198-41.157C100.844 22.8 90.532 12.46 90.532 12.46z"/></g></g><g><g><path fill="#adc7f7" d="M62.085 91.606c31.848 0 57.666-1.465 57.666-3.273S93.933 85.06 62.085 85.06c-31.847 0-57.665 1.465-57.665 3.273s25.818 3.273 57.665 3.273z"/></g><g opacity=".3"><path fill="#fff" d="M62.085 91.606c31.848 0 57.666-1.465 57.666-3.273S93.933 85.06 62.085 85.06c-31.847 0-57.665 1.465-57.665 3.273s25.818 3.273 57.665 3.273z"/></g></g><g><g><path fill="#adc7f7" d="M95.801 41.272c-.018 0 .202-1.084.225-1.163.251-.773 1.198-2.122 2.112-2.119.308.009.597.147.796.38.2.234.29.54.247.844-.067.642-.645 1.186-1.168 1.503-.614.38-2.212.555-2.212.555z"/></g><g><path fill="#adc7f7" d="M94.028 33.972c.862.308 1.292 1.895 1.262 2.71 0 .069-.163 1.162-.178 1.162h-.017c.067.25.14.52.213.814.128.547.269 1.163.377 1.849.125.736.207 1.478.245 2.224.047.834.018 1.67-.085 2.5a.087.087 0 0 0 0 .029c.114-.241.45-.91.483-.96.45-.68 1.718-1.744 2.603-1.488.293.09.535.3.664.577.129.277.134.596.014.877-.234.599-.935.974-1.523 1.14-.663.188-2.141-.036-2.258-.053-.125.84-.306 1.672-.544 2.488-.136.477-.284.954-.444 1.43.103-.206.199-.389.214-.415.45-.68 1.718-1.744 2.603-1.491a1.07 1.07 0 0 1 .678 1.454c-.234.601-.935.973-1.522 1.142-.588.168-1.862 0-2.195-.044-.061.18-.122.363-.187.544-.292.872-.607 1.744-.876 2.599-.097.29-.181.604-.266.907.093-.184.172-.338.187-.358.447-.68 1.718-1.744 2.6-1.491a1.076 1.076 0 0 1 .68 1.454c-.233.598-.937.973-1.524 1.139-.587.166-1.736.02-2.133-.035-.079.314-.155.625-.216.93-.038.21-.088.41-.114.622-.026.213-.059.419-.088.622-.04.399-.087.811-.117 1.201-.023.27-.04.53-.058.788.09-.29.292-.89.307-.94a4.222 4.222 0 0 1 1.402-1.586c.033-.073.073-.142.12-.207a1.084 1.084 0 0 1 1.592-.25c.696.582.52 2.233.202 2.983-.018.043-.278.5-.444.785.125-.151.242-.291.374-.46.254-.308.517-.61.797-.936l.43-.462c.14-.16.31-.308.464-.462.366-.352.754-.692 1.155-1.026-.275-.221-1.23-1.026-1.505-1.573-.275-.547-.47-1.311-.184-1.887a1.089 1.089 0 0 1 1.54-.485c.774.482.853 2.125.651 2.907 0 .05-.222.599-.342.898.243-.197.482-.398.734-.581.724-.558 1.475-1.1 2.22-1.643l.68-.503c-.096-.078-1.253-1.008-1.562-1.619-.272-.543-.47-1.31-.184-1.89a1.092 1.092 0 0 1 1.54-.485c.774.486.853 2.128.651 2.907-.015.061-.316.852-.403 1.05.5-.373.993-.745 1.46-1.131.64-.52 1.246-1.082 1.812-1.68-.044-.035-1.256-1-1.572-1.628-.274-.544-.47-1.312-.184-1.887a1.086 1.086 0 0 1 1.537-.485c.777.482.856 2.124.654 2.906-.014.05-.242.654-.359.94l.047.026a13.925 13.925 0 0 0 1.487-1.989c.243-.384.456-.764.654-1.142-.245-.157-1.352-.872-1.7-1.419-.348-.547-.61-1.25-.391-1.855a1.089 1.089 0 0 1 1.46-.651c.827.395 1.084 2.02.97 2.826 0 .043-.116.482-.201.802.085-.171.178-.346.257-.512.292-.622.54-1.209.745-1.744.117-.29.213-.581.292-.822-.16-.291-.786-1.41-.847-2.035-.062-.625.038-1.393.514-1.829a1.087 1.087 0 0 1 1.61.102c.55.73.026 2.288-.447 2.953-.041.056-.786.873-.795.873v-.018c-.082.247-.17.512-.274.797-.193.526-.421 1.122-.708 1.744-.305.682-.649 1.346-1.03 1.988-.426.72-.915 1.401-1.462 2.035l-.02.023c.228-.142.876-.511.932-.534.754-.32 2.396-.503 2.998.186a1.078 1.078 0 0 1-.24 1.587c-.529.372-1.324.29-1.905.113-.657-.206-1.753-1.203-1.855-1.282a18.906 18.906 0 0 1-1.832 1.776c-.38.326-.769.64-1.169.948.202-.113.383-.215.41-.227.75-.32 2.392-.503 2.994.186a1.075 1.075 0 0 1-.24 1.588c-.526.372-1.32.29-1.902.113-.581-.177-1.554-1.014-1.805-1.238l-.46.351c-.735.561-1.46 1.117-2.176 1.684-.248.2-.485.407-.724.61.18-.102.33-.186.356-.195.75-.322 2.393-.503 2.995.183a1.072 1.072 0 0 1-.24 1.588c-.529.372-1.32.29-1.902.116-.581-.174-1.46-.936-1.753-1.2-.237.217-.476.433-.695.656-.15.154-.292.291-.439.457-.146.165-.292.314-.42.47-.254.309-.52.629-.763.937-.17.212-.327.418-.485.625.243-.2.734-.582.777-.614.693-.43 2.288-.857 2.99-.27a1.079 1.079 0 0 1 0 1.608c-.465.444-1.26.494-1.862.4-.666-.104-1.87-.871-2.019-.982a55.074 55.074 0 0 0-2.62 3.75l-.044.067-.561-.27c.029-.044.058-.084.087-.131a57.586 57.586 0 0 1 2.811-3.831 11.64 11.64 0 0 1-.877-1.07c-.645.25-1.986.261-2.159.261a54.369 54.369 0 0 0-.105 4.564v.096l-.616-.29c0-.794.032-1.872.114-3.143.026-.439.064-.907.108-1.384-.173-.043-1.566-.4-2.092-.82-.477-.377-.98-.994-.962-1.636-.003-.307.125-.6.353-.806.228-.207.533-.307.84-.275.908.116 1.668 1.575 1.82 2.375 0 .046.047.581.064.9.02-.197.035-.386.056-.58.04-.399.093-.797.149-1.225.032-.203.067-.41.099-.619.032-.209.088-.424.131-.64.111-.493.246-.99.395-1.488-.35-.037-1.593-.183-2.127-.485-.535-.302-1.12-.837-1.198-1.474-.05-.303.031-.612.225-.851s.48-.384.789-.4c.914-.022 1.89 1.306 2.159 2.074.017.05.149.622.213.939.094-.291.181-.6.292-.896.293-.872.623-1.727.944-2.59.1-.264.193-.529.292-.79-.125 0-1.607-.155-2.203-.495-.529-.29-1.119-.837-1.2-1.474a1.078 1.078 0 0 1 .227-.85c.193-.237.479-.383.786-.4.918-.023 1.894 1.306 2.162 2.073.02.058.208.872.246 1.096.21-.581.418-1.163.584-1.744.247-.785.442-1.585.584-2.396-.058 0-1.606-.145-2.214-.494-.532-.29-1.122-.837-1.201-1.474a1.077 1.077 0 0 1 .227-.85c.194-.237.48-.383.787-.4.914-.02 1.89 1.305 2.159 2.073.018.052.16.68.222.98h.053c.12-.82.167-1.647.14-2.474 0-.457-.044-.89-.088-1.314-.292 0-1.618 0-2.203-.25-.584-.25-1.206-.71-1.358-1.335a1.074 1.074 0 0 1 .134-.87c.167-.259.437-.434.742-.481.909-.123 2.025 1.09 2.378 1.825.018.04.17.468.272.78-.02-.19-.04-.387-.067-.568a23.434 23.434 0 0 0-.54-2.703c-.293-.145-1.438-.744-1.833-1.23-.394-.485-.739-1.18-.584-1.805a1.08 1.08 0 0 1 .533-.71c.272-.149.595-.175.887-.072z"/></g><g><path fill="#adc7f7" d="M110.587 48.025c-.715-.029-2.147-.758-2.147-.761 0-.003.768-.791.824-.835.64-.508 2.177-1.113 2.94-.61a1.08 1.08 0 0 1 .19 1.596c-.41.488-1.196.634-1.807.61z"/></g><g opacity=".5"><g opacity=".5"><path fill="#fff" d="M95.801 41.272c-.018 0 .202-1.084.225-1.163.251-.773 1.198-2.122 2.112-2.119.308.009.597.147.796.38.2.234.29.54.247.844-.067.642-.645 1.186-1.168 1.503-.614.38-2.212.555-2.212.555z"/></g><g opacity=".5"><path fill="#fff" d="M94.028 33.972c.862.308 1.292 1.895 1.262 2.71 0 .069-.163 1.162-.178 1.162h-.017c.067.25.14.52.213.814.128.547.269 1.163.377 1.849.125.736.207 1.478.245 2.224.047.834.018 1.67-.085 2.5a.087.087 0 0 0 0 .029c.114-.241.45-.91.483-.96.45-.68 1.718-1.744 2.603-1.488.293.09.535.3.664.577.129.277.134.596.014.877-.234.599-.935.974-1.523 1.14-.663.188-2.141-.036-2.258-.053-.125.84-.306 1.672-.544 2.488-.136.477-.284.954-.444 1.43.103-.206.199-.389.214-.415.45-.68 1.718-1.744 2.603-1.491a1.07 1.07 0 0 1 .678 1.454c-.234.601-.935.973-1.522 1.142-.588.168-1.862 0-2.195-.044-.061.18-.122.363-.187.544-.292.872-.607 1.744-.876 2.599-.097.29-.181.604-.266.907.093-.184.172-.338.187-.358.447-.68 1.718-1.744 2.6-1.491a1.076 1.076 0 0 1 .68 1.454c-.233.598-.937.973-1.524 1.139-.587.166-1.736.02-2.133-.035-.079.314-.155.625-.216.93-.038.21-.088.41-.114.622-.026.213-.059.419-.088.622-.04.399-.087.811-.117 1.201-.023.27-.04.53-.058.788.09-.29.292-.89.307-.94a4.222 4.222 0 0 1 1.402-1.586c.033-.073.073-.142.12-.207a1.084 1.084 0 0 1 1.592-.25c.696.582.52 2.233.202 2.983-.018.043-.278.5-.444.785.125-.151.242-.291.374-.46.254-.308.517-.61.797-.936l.43-.462c.14-.16.31-.308.464-.462.366-.352.754-.692 1.155-1.026-.275-.221-1.23-1.026-1.505-1.573-.275-.547-.47-1.311-.184-1.887a1.089 1.089 0 0 1 1.54-.485c.774.482.853 2.125.651 2.907 0 .05-.222.599-.342.898.243-.197.482-.398.734-.581.724-.558 1.475-1.1 2.22-1.643l.68-.503c-.096-.078-1.253-1.008-1.562-1.619-.272-.543-.47-1.31-.184-1.89a1.092 1.092 0 0 1 1.54-.485c.774.486.853 2.128.651 2.907-.015.061-.316.852-.403 1.05.5-.373.993-.745 1.46-1.131.64-.52 1.246-1.082 1.812-1.68-.044-.035-1.256-1-1.572-1.628-.274-.544-.47-1.312-.184-1.887a1.086 1.086 0 0 1 1.537-.485c.777.482.856 2.124.654 2.906-.014.05-.242.654-.359.94l.047.026a13.925 13.925 0 0 0 1.487-1.989c.243-.384.456-.764.654-1.142-.245-.157-1.352-.872-1.7-1.419-.348-.547-.61-1.25-.391-1.855a1.089 1.089 0 0 1 1.46-.651c.827.395 1.084 2.02.97 2.826 0 .043-.116.482-.201.802.085-.171.178-.346.257-.512.292-.622.54-1.209.745-1.744.117-.29.213-.581.292-.822-.16-.291-.786-1.41-.847-2.035-.062-.625.038-1.393.514-1.829a1.087 1.087 0 0 1 1.61.102c.55.73.026 2.288-.447 2.953-.041.056-.786.873-.795.873v-.018c-.082.247-.17.512-.274.797-.193.526-.421 1.122-.708 1.744-.305.682-.649 1.346-1.03 1.988-.426.72-.915 1.401-1.462 2.035l-.02.023c.228-.142.876-.511.932-.534.754-.32 2.396-.503 2.998.186a1.078 1.078 0 0 1-.24 1.587c-.529.372-1.324.29-1.905.113-.657-.206-1.753-1.203-1.855-1.282a18.906 18.906 0 0 1-1.832 1.776c-.38.326-.769.64-1.169.948.202-.113.383-.215.41-.227.75-.32 2.392-.503 2.994.186a1.075 1.075 0 0 1-.24 1.588c-.526.372-1.32.29-1.902.113-.581-.177-1.554-1.014-1.805-1.238l-.46.351c-.735.561-1.46 1.117-2.176 1.684-.248.2-.485.407-.724.61.18-.102.33-.186.356-.195.75-.322 2.393-.503 2.995.183a1.072 1.072 0 0 1-.24 1.588c-.529.372-1.32.29-1.902.116-.581-.174-1.46-.936-1.753-1.2-.237.217-.476.433-.695.656-.15.154-.292.291-.439.457-.146.165-.292.314-.42.47-.254.309-.52.629-.763.937-.17.212-.327.418-.485.625.243-.2.734-.582.777-.614.693-.43 2.288-.857 2.99-.27a1.079 1.079 0 0 1 0 1.608c-.465.444-1.26.494-1.862.4-.666-.104-1.87-.871-2.019-.982a55.074 55.074 0 0 0-2.62 3.75l-.044.067-.561-.27c.029-.044.058-.084.087-.131a57.586 57.586 0 0 1 2.811-3.831 11.64 11.64 0 0 1-.877-1.07c-.645.25-1.986.261-2.159.261a54.369 54.369 0 0 0-.105 4.564v.096l-.616-.29c0-.794.032-1.872.114-3.143.026-.439.064-.907.108-1.384-.173-.043-1.566-.4-2.092-.82-.477-.377-.98-.994-.962-1.636-.003-.307.125-.6.353-.806.228-.207.533-.307.84-.275.908.116 1.668 1.575 1.82 2.375 0 .046.047.581.064.9.02-.197.035-.386.056-.58.04-.399.093-.797.149-1.225.032-.203.067-.41.099-.619.032-.209.088-.424.131-.64.111-.493.246-.99.395-1.488-.35-.037-1.593-.183-2.127-.485-.535-.302-1.12-.837-1.198-1.474-.05-.303.031-.612.225-.851s.48-.384.789-.4c.914-.022 1.89 1.306 2.159 2.074.017.05.149.622.213.939.094-.291.181-.6.292-.896.293-.872.623-1.727.944-2.59.1-.264.193-.529.292-.79-.125 0-1.607-.155-2.203-.495-.529-.29-1.119-.837-1.2-1.474a1.078 1.078 0 0 1 .227-.85c.193-.237.479-.383.786-.4.918-.023 1.894 1.306 2.162 2.073.02.058.208.872.246 1.096.21-.581.418-1.163.584-1.744.247-.785.442-1.585.584-2.396-.058 0-1.606-.145-2.214-.494-.532-.29-1.122-.837-1.201-1.474a1.077 1.077 0 0 1 .227-.85c.194-.237.48-.383.787-.4.914-.02 1.89 1.305 2.159 2.073.018.052.16.68.222.98h.053c.12-.82.167-1.647.14-2.474 0-.457-.044-.89-.088-1.314-.292 0-1.618 0-2.203-.25-.584-.25-1.206-.71-1.358-1.335a1.074 1.074 0 0 1 .134-.87c.167-.259.437-.434.742-.481.909-.123 2.025 1.09 2.378 1.825.018.04.17.468.272.78-.02-.19-.04-.387-.067-.568a23.434 23.434 0 0 0-.54-2.703c-.293-.145-1.438-.744-1.833-1.23-.394-.485-.739-1.18-.584-1.805a1.08 1.08 0 0 1 .533-.71c.272-.149.595-.175.887-.072z"/></g><g opacity=".5"><path fill="#fff" d="M110.587 48.025c-.715-.029-2.147-.758-2.147-.761 0-.003.768-.791.824-.835.64-.508 2.177-1.113 2.94-.61a1.08 1.08 0 0 1 .19 1.596c-.41.488-1.196.634-1.807.61z"/></g></g><g><path fill="#adc7f7" d="M102.222 65.863s-4.344-10.422-6.775-9.969c-2.431.454 4.163 16.611 4.163 16.611S91.967 58.16 86.755 58.16c-5.213 0 1.91 15.858 8.51 21.143 0 0-10.421-11.175-16.501-8.759-6.08 2.416 12.16 13.742 12.16 13.742s-10.597-3.323-9.382-.756c1.216 2.567 4.517 3.02 4.517 3.02l-11.979.605h41.693l-9.381-.907s9.729-4.832 7.123-6.794c-2.606-1.962-8.339 2.265-8.339 2.265s9.902-10.873 7.991-14.951c-1.91-4.079-10.425 7.401-10.425 7.401s6.951-14.649 5.552-17.215c-1.4-2.567-6.072 8.91-6.072 8.91z"/></g><g opacity=".4"><path fill="#fff" d="M102.222 65.863s-4.344-10.422-6.775-9.969c-2.431.454 4.163 16.611 4.163 16.611S91.967 58.16 86.755 58.16c-5.213 0 1.91 15.858 8.51 21.143 0 0-10.421-11.175-16.501-8.759-6.08 2.416 12.16 13.742 12.16 13.742s-10.597-3.323-9.382-.756c1.216 2.567 4.517 3.02 4.517 3.02l-11.979.605h41.693l-9.381-.907s9.729-4.832 7.123-6.794c-2.606-1.962-8.339 2.265-8.339 2.265s9.902-10.873 7.991-14.951c-1.91-4.079-10.425 7.401-10.425 7.401s6.951-14.649 5.552-17.215c-1.4-2.567-6.072 8.91-6.072 8.91z"/></g><g><path fill="none" stroke="#263238" stroke-linecap="round" stroke-linejoin="round" stroke-miterlimit="20" stroke-width=".5" d="M103.615 66.41C99.79 77.646 99.79 85.597 99.79 85.597v0s4.517.171 9.21-3.285"/></g><g><path fill="none" stroke="#263238" stroke-linecap="round" stroke-linejoin="round" stroke-miterlimit="20" stroke-width=".5" d="M101.71 72.465a67.345 67.345 0 0 0-3.13-9.855"/></g><g><path fill="none" stroke="#263238" stroke-linecap="round" stroke-linejoin="round" stroke-miterlimit="20" stroke-width=".5" d="M90.41 65.89v0l9.726 14.346v0s6.604-5.523 8.862-8.642"/></g><g><path fill="none" stroke="#263238" stroke-linecap="round" stroke-linejoin="round" stroke-miterlimit="20" stroke-width=".5" d="M99.969 83.696s-10.25-4.84-14.419-7.596"/></g></g><g><g><path fill="#fff" d="M57.75 8.748c0-1.6 1.297-2.898 2.898-2.898h29.638c1.6 0 2.898 1.297 2.898 2.898v74.774c0 1.6-1.297 2.898-2.898 2.898H60.648a2.898 2.898 0 0 1-2.898-2.898z"/><path fill="none" stroke="#263238" stroke-linecap="round" stroke-linejoin="round" stroke-miterlimit="20" stroke-width=".5" d="M57.75 8.748c0-1.6 1.297-2.898 2.898-2.898h29.638c1.6 0 2.898 1.297 2.898 2.898v74.774c0 1.6-1.297 2.898-2.898 2.898H60.648a2.898 2.898 0 0 1-2.898-2.898z"/></g><g><path fill="#263238" d="M92 19.963a.472.472 0 0 1-.47-.473v-6.332a.474.474 0 0 1 .944 0v6.32a.476.476 0 0 1-.473.485z"/></g><g><path fill="#263238" d="M92 25.819a.472.472 0 0 1-.47-.472v-3.539a.474.474 0 0 1 .944 0v3.539a.474.474 0 0 1-.473.472z"/></g><g><path fill="#263238" d="M55.08 8.748c0-1.6 1.297-2.898 2.898-2.898h29.638c1.6 0 2.898 1.297 2.898 2.898v74.774c0 1.6-1.297 2.898-2.898 2.898H57.978a2.898 2.898 0 0 1-2.898-2.898z"/><path fill="none" stroke="#263238" stroke-linecap="round" stroke-linejoin="round" stroke-miterlimit="20" stroke-width=".5" d="M55.08 8.748c0-1.6 1.297-2.898 2.898-2.898h29.638c1.6 0 2.898 1.297 2.898 2.898v74.774c0 1.6-1.297 2.898-2.898 2.898H57.978a2.898 2.898 0 0 1-2.898-2.898z"/></g><g><path fill="#adc7f7" d="M57.44 11.22h30.714v69.105H57.44z"/></g><g><path fill="none" stroke="#fff" stroke-linecap="round" stroke-linejoin="round" stroke-miterlimit="20" stroke-width="1.1" d="M68.24 9.005h8.177"/></g><g><path fill="#fff" d="M71.704 82.766c0 .565-.352 1.023-.788 1.023-.437 0-.786-.458-.786-1.023s.352-1.026.786-1.026c.433 0 .788.458.788 1.026z"/></g><g><path fill="#fff" d="M72.796 28.411c2.942 0 5.326-2.79 5.326-6.23 0-3.441-2.384-6.231-5.326-6.231-2.941 0-5.326 2.79-5.326 6.23 0 3.442 2.385 6.231 5.326 6.231z"/></g><g><path fill="#263238" d="M72.802 22.105c1.116 0 2.022-1.06 2.022-2.367 0-1.308-.906-2.368-2.022-2.368-1.117 0-2.022 1.06-2.022 2.368 0 1.307.905 2.367 2.022 2.367z"/><path fill="none" stroke="#263238" stroke-linecap="round" stroke-linejoin="round" stroke-miterlimit="20" stroke-width=".5" d="M72.802 22.105c1.116 0 2.022-1.06 2.022-2.367 0-1.308-.906-2.368-2.022-2.368-1.117 0-2.022 1.06-2.022 2.368 0 1.307.905 2.367 2.022 2.367z"/></g><g><path fill="#263238" d="M72.797 22.73c-2.022 0-3.677 1.556-3.677 3.478.002.178.018.357.05.533a4.77 4.77 0 0 0 3.627 1.674 4.77 4.77 0 0 0 3.628-1.674c.028-.177.044-.355.046-.533 0-1.922-1.647-3.478-3.674-3.478z"/><path fill="none" stroke="#263238" stroke-linecap="round" stroke-linejoin="round" stroke-miterlimit="20" stroke-width=".5" d="M72.797 22.73c-2.022 0-3.677 1.556-3.677 3.478.002.178.018.357.05.533a4.77 4.77 0 0 0 3.627 1.674 4.77 4.77 0 0 0 3.628-1.674c.028-.177.044-.355.046-.533 0-1.922-1.647-3.478-3.674-3.478z"/></g><g><path fill="#263238" d="M67.564 39.967c0-3.138 2.35-5.693 5.235-5.693 2.884 0 5.232 2.555 5.232 5.693v6.67H67.564zm11.71 9.356a1.3 1.3 0 0 0 1.24-1.353v-8.016c0-4.617-3.464-8.384-7.715-8.384-4.252 0-7.718 3.762-7.718 8.384v8.021a1.297 1.297 0 0 0 1.242 1.348z"/></g><g><path fill="#fff" d="M63.81 43.85h17.983v17.07H63.81z"/></g><g><path fill="#263238" d="M75.423 55.596l-1.334-3.22a2.376 2.376 0 0 0 .939-1.918c0-1.283-.957-2.318-2.138-2.318s-2.134 1.037-2.134 2.318c-.01.753.338 1.465.936 1.919l-1.332 3.22z"/><path fill="none" stroke="#263238" stroke-linecap="round" stroke-linejoin="round" stroke-miterlimit="20" stroke-width=".5" d="M75.423 55.596v0l-1.334-3.22a2.376 2.376 0 0 0 .939-1.918c0-1.283-.957-2.318-2.138-2.318s-2.134 1.037-2.134 2.318c-.01.753.338 1.465.936 1.919l-1.332 3.22v0z"/></g><g><path fill="#fff" d="M67.318 76.254c.028.02.06.032.095.032a.15.15 0 0 0 .124-.066l20.617-28.137v-.533l-20.86 28.484a.157.157 0 0 0 .024.22z"/></g><g><path fill="#fff" d="M84.01 21.358a.157.157 0 0 0 .035.22c.07.05.168.035.22-.034l3.893-5.312v-.522z"/></g><g><path fill="#fff" d="M57.44 58.147L82.892 23.42a.158.158 0 0 0-.035-.22.157.157 0 0 0-.22.035L57.453 57.614z"/></g><g><path fill="#fff" d="M64.929 79.683c.05-.001.096-.025.127-.064l1.444-1.96a.157.157 0 0 0-.035-.22.159.159 0 0 0-.22.035l-1.443 1.956a.157.157 0 0 0 .031.22c.027.022.061.033.096.033z"/></g><g><path fill="#fff" d="M88.156 53.72L71.23 76.82a.157.157 0 0 0 .127.249.153.153 0 0 0 .128-.064l16.67-22.755z"/></g></g><g><g><path fill="#263238" d="M28.44 21.61c.29-.64.43-1.337.409-2.04 0-1.303-1.579-2.058-3.434-2.265-1.856-.207-2.679.548-2.405 1.03.285.396.633.743 1.03 1.028 0 0-1.855-1.029-3.093-.204-1.237.825.552.481.208 1.303-.345.822-2.268.481-2.749 2.676-.481 2.196.893 4.394-.344 5.356-1.237.962-4.96-.344-6.046 2.058-1.086 2.402.455 3.469-2.153 4.979-2.609 1.51-4.511 2.985-3.756 6.69.756 3.705 3.23 5.003 8.109 3.694 4.879-1.31 4.534-4.257 6.127-7.288 1.594-3.032 4.056-2.402 4.812-4.12.756-1.717-.207-3.775-.137-5.355.07-1.58 1.648-1.92 2.267-3.79.619-1.868 1.155-3.751 1.155-3.751z"/><path fill="none" stroke="#263238" stroke-linecap="round" stroke-linejoin="round" stroke-miterlimit="20" stroke-width=".5" d="M28.44 21.61c.29-.64.43-1.337.409-2.04 0-1.303-1.579-2.058-3.434-2.265-1.856-.207-2.679.548-2.405 1.03.285.396.633.743 1.03 1.028 0 0-1.855-1.029-3.093-.204-1.237.825.552.481.208 1.303-.345.822-2.268.481-2.749 2.676-.481 2.196.893 4.394-.344 5.356-1.237.962-4.96-.344-6.046 2.058-1.086 2.402.455 3.469-2.153 4.979-2.609 1.51-4.511 2.985-3.756 6.69.756 3.705 3.23 5.003 8.109 3.694 4.879-1.31 4.534-4.257 6.127-7.288 1.594-3.032 4.056-2.402 4.812-4.12.756-1.717-.207-3.775-.137-5.355.07-1.58 1.648-1.92 2.267-3.79.619-1.868 1.155-3.751 1.155-3.751z"/></g><g><path fill="none" stroke="#fff" stroke-linecap="round" stroke-linejoin="round" stroke-miterlimit="20" stroke-width=".5" d="M6.68 42.15a1.824 1.824 0 0 0-.189.83"/></g><g><path fill="none" stroke="#fff" stroke-linecap="round" stroke-linejoin="round" stroke-miterlimit="20" stroke-width=".5" d="M25.801 20.243v0s-.858-.992.794-.53c2.08.582-.362 2.987-1.301 3.471-1.885.965-4.377.656-5.836 2.41-1.325 1.587.464 3.24-.33 4.496-.793 1.257-3.971.528-5.027 2.04-1.057 1.514 1.917 4.761-1.127 6.545-2.2 1.292-4.61 1.787-5.774 2.81"/></g><g><path fill="none" stroke="#fff" stroke-linecap="round" stroke-linejoin="round" stroke-miterlimit="20" stroke-width=".5" d="M20.866 26.11a2.38 2.38 0 0 0-.158 1.338c.263 1.122 1.786 3.239.397 4.428-1.389 1.19-3.773 1.123-4.167 2.516-.394 1.393.397 5.221-.925 6.996-1.322 1.776-3.904 1.653-5.293 2.843-1.389 1.19-1.19 1.85-1.19 1.85v0"/></g><g><path fill="none" stroke="#fff" stroke-linecap="round" stroke-linejoin="round" stroke-miterlimit="20" stroke-width=".5" d="M21.573 24.81c-.12.17-.232.346-.333.527"/></g><g><path fill="#fff" d="M29.332 42.044l.335 2.623s1.75 1.75 3.038 2.83c1.286 1.082 4.584 3.37 4.584 3.37l-1.672.476s-5.465-3.236-6.545-3.498c-1.08-.263-1.888-1.82-2.223-2.292-.336-.472 1.604-3.982 2.483-3.51z"/><path fill="none" stroke="#263238" stroke-linecap="round" stroke-linejoin="round" stroke-miterlimit="20" stroke-width=".5" d="M29.332 42.044l.335 2.623v0s1.75 1.75 3.038 2.83c1.286 1.082 4.584 3.37 4.584 3.37v0l-1.672.476v0s-5.465-3.236-6.545-3.498c-1.08-.263-1.888-1.82-2.223-2.292-.336-.472 1.604-3.982 2.483-3.51z"/></g><g><path fill="#fff" d="M32.671 84.727s1.652 1.393 2.335 1.86c.682.466 1.479.676 1.353.93-.125.253-.466.507-2.074.29-1.608-.215-2.072-.76-2.37-.845-.297-.084-1.015.129-1.563-.21-.549-.338.32-2.352.32-2.352a1.57 1.57 0 0 0 2 .327z"/><path fill="none" stroke="#263238" stroke-linecap="round" stroke-linejoin="round" stroke-miterlimit="20" stroke-width=".5" d="M32.671 84.727v0s1.652 1.393 2.335 1.86c.682.466 1.479.676 1.353.93-.125.253-.466.507-2.074.29-1.608-.215-2.072-.76-2.37-.845-.297-.084-1.015.129-1.563-.21-.549-.338.32-2.352.32-2.352a1.57 1.57 0 0 0 2 .327z"/></g><g><path fill="#fff" d="M36.349 87.523a.216.216 0 0 0 0-.041 7.526 7.526 0 0 1-2.76-.26c-1.039-.244-1.345-.795-2.335-.795a3.394 3.394 0 0 1-1.14-.187.6.6 0 0 0 .207.522c.548.338 1.269.125 1.564.21.294.084.761.635 2.369.845 1.608.21 1.967-.04 2.095-.294z"/><path fill="none" stroke="#263238" stroke-linecap="round" stroke-linejoin="round" stroke-miterlimit="20" stroke-width=".5" d="M36.349 87.523a.216.216 0 0 0 0-.041 7.526 7.526 0 0 1-2.76-.26c-1.039-.244-1.345-.795-2.335-.795a3.394 3.394 0 0 1-1.14-.187.6.6 0 0 0 .207.522c.548.338 1.269.125 1.564.21.294.084.761.635 2.369.845 1.608.21 1.967-.04 2.095-.294z"/></g><g><path fill="#fff" d="M24.026 28.39s.318 2.14-.09 3.003c-.41.863-1.687.956-2.779 1.14-1.09.183-3.597 1.136-3.326 3.594.271 2.457 3.417 7.78 3.417 9.282 0 1.501-.957 2.274-2.005 5.186-1.047 2.912-.91 8.328-.583 11.833.24 2.312.697 4.597 1.365 6.824 0 0-2.626 4.233-3.793 6.052-1.167 1.819-5.252 9.74-5.252 9.74s0 .27.636.454c.448.109.91.14 1.369.09 0 0 7.831-9.418 9.29-11.01 1.459-1.592 2.824-4.373 3.005-5.644.181-1.27-.043-9.054-.043-9.054s1.637 3.912 2.917 5.915a42.034 42.034 0 0 1 2.136 3.79 22.886 22.886 0 0 0 0 4.955c.318 2.274.05 9.58.368 10.171.318.592 1.552.344 1.827.073.274-.271.402-2.04.402-2.04s.546-5.54.876-8.146c.33-2.606.875-4.824.685-5.416-.19-.592-1.322-6.918-2.188-9.912-.867-2.994-3.502-8.6-4.085-10.054-.584-1.455-.913-2.778-.82-3.233.093-.455 1.867-3.183 2.334-3.912.54-1.002.573-2.2.09-3.23-.545-1.184 0-2.778-.09-3.732-.09-.953-1.502-1.367-2.232-1.728-.73-.362-1.004-1.184-1.004-1.866a5.243 5.243 0 0 1 .412-1.667s-2.247-1.458-2.84-1.458z"/><path fill="none" stroke="#263238" stroke-linecap="round" stroke-linejoin="round" stroke-miterlimit="20" stroke-width=".5" d="M24.026 28.39s.318 2.14-.09 3.003c-.41.863-1.687.956-2.779 1.14-1.09.183-3.597 1.136-3.326 3.594.271 2.457 3.417 7.78 3.417 9.282 0 1.501-.957 2.274-2.005 5.186-1.047 2.912-.91 8.328-.583 11.833.24 2.312.697 4.597 1.365 6.824 0 0-2.626 4.233-3.793 6.052-1.167 1.819-5.252 9.74-5.252 9.74v0s0 .27.636.454c.448.109.91.14 1.369.09 0 0 7.831-9.418 9.29-11.01 1.459-1.592 2.824-4.373 3.005-5.644.181-1.27-.043-9.054-.043-9.054v0s1.637 3.912 2.917 5.915a42.034 42.034 0 0 1 2.136 3.79 22.886 22.886 0 0 0 0 4.955c.318 2.274.05 9.58.368 10.171.318.592 1.552.344 1.827.073.274-.271.402-2.04.402-2.04v0s.546-5.54.876-8.146c.33-2.606.875-4.824.685-5.416-.19-.592-1.322-6.918-2.188-9.912-.867-2.994-3.502-8.6-4.085-10.054-.584-1.455-.913-2.778-.82-3.233.093-.455 1.867-3.183 2.334-3.912.54-1.002.573-2.2.09-3.23-.545-1.184 0-2.778-.09-3.732-.09-.953-1.502-1.367-2.232-1.728-.73-.362-1.004-1.184-1.004-1.866a5.243 5.243 0 0 1 .412-1.667s-2.247-1.458-2.84-1.458z"/></g><g><path fill="none" stroke="#263238" stroke-linecap="round" stroke-linejoin="round" stroke-miterlimit="20" stroke-width=".5" d="M29.548 38.119c-.24-.61-.44-1.234-.598-1.869"/></g><g><path fill="none" stroke="#263238" stroke-linecap="round" stroke-linejoin="round" stroke-miterlimit="20" stroke-width=".5" d="M23.63 43.191s.823.181 2.471-.641"/></g><g><path fill="#263238" d="M32.269 59.236c-.826-2.868-3.274-8.107-4.007-9.835-3.501 1.311-6.775.192-8.313-.531a22.27 22.27 0 0 0-.706 1.72c-1.047 2.915-.91 8.329-.583 11.833.24 2.312.697 4.597 1.365 6.824 0 0-2.626 4.233-3.793 6.052-1.167 1.819-5.252 9.74-5.252 9.74s0 .27.636.454c.448.109.91.14 1.369.09 0 0 7.831-9.418 9.29-11.01 1.459-1.592 2.824-4.373 3.005-5.644.181-1.27-.043-9.054-.043-9.054s1.637 3.912 2.917 5.915a42.034 42.034 0 0 1 2.136 3.79 22.886 22.886 0 0 0 0 4.955c.318 2.274.05 9.58.368 10.171.318.592 1.552.344 1.827.073.274-.271.402-2.04.402-2.04s.546-5.54.876-8.146c.33-2.606.875-4.824.685-5.416-.19-.592-1.313-6.938-2.18-9.94z"/><path fill="none" stroke="#263238" stroke-linecap="round" stroke-linejoin="round" stroke-miterlimit="20" stroke-width=".5" d="M32.269 59.236c-.826-2.868-3.274-8.107-4.007-9.835-3.501 1.311-6.775.192-8.313-.531a22.27 22.27 0 0 0-.706 1.72c-1.047 2.915-.91 8.329-.583 11.833.24 2.312.697 4.597 1.365 6.824 0 0-2.626 4.233-3.793 6.052-1.167 1.819-5.252 9.74-5.252 9.74v0s0 .27.636.454c.448.109.91.14 1.369.09 0 0 7.831-9.418 9.29-11.01 1.459-1.592 2.824-4.373 3.005-5.644.181-1.27-.043-9.054-.043-9.054v0s1.637 3.912 2.917 5.915a42.034 42.034 0 0 1 2.136 3.79 22.886 22.886 0 0 0 0 4.955c.318 2.274.05 9.58.368 10.171.318.592 1.552.344 1.827.073.274-.271.402-2.04.402-2.04v0s.546-5.54.876-8.146c.33-2.606.875-4.824.685-5.416-.19-.592-1.313-6.938-2.18-9.94z"/></g><g><path fill="#adc7f7" d="M50.107 56.355v-.595h.5v-4.67h-5.925v4.67h.5v.595h-.502v1.084h1.923v-.364h2.083v.364h1.923v-1.084h-.502z"/><path fill="none" stroke="#263238" stroke-linecap="round" stroke-linejoin="round" stroke-miterlimit="20" stroke-width=".5" d="M50.107 56.355v0-.595 0h.5v0-4.67 0h-.5v0h-4.925v0h-.5v4.67h.5v.595h-.502v1.084h1.923v0-.364 0h2.083v.364h1.923v0-1.084 0h-.502v0z"/></g><g><path fill="#adc7f7" d="M18.27 49.693h34.36a.52.52 0 0 1 .52.519v1.043a.52.52 0 0 1-.52.52H18.27V49.69z"/><path fill="none" stroke="#263238" stroke-linecap="round" stroke-linejoin="round" stroke-miterlimit="20" stroke-width=".5" d="M18.27 49.693v0h34.36a.52.52 0 0 1 .52.519v1.043a.52.52 0 0 1-.52.52H18.27v0-2.085 0z"/></g><g><path fill="#adc7f7" d="M40.55 49.742c0-.2.162-.362.362-.362h1.946c.2 0 .362.162.362.362v1.984c0 .2-.162.362-.362.362h-1.946a.362.362 0 0 1-.362-.362z"/><path fill="none" stroke="#263238" stroke-linecap="round" stroke-linejoin="round" stroke-miterlimit="20" stroke-width=".5" d="M40.55 49.742c0-.2.162-.362.362-.362h1.946c.2 0 .362.162.362.362v1.984c0 .2-.162.362-.362.362h-1.946a.362.362 0 0 1-.362-.362z"/></g><g transform="rotate(-80.7 14 51)"><path fill="#adc7f7" d="M13.99 56.158a5.42 5.42 0 0 0 5.419-5.423 5.42 5.42 0 0 0-10.839-.002 5.424 5.424 0 0 0 5.42 5.425z"/><path fill="none" stroke="#263238" stroke-linecap="round" stroke-linejoin="round" stroke-miterlimit="20" stroke-width=".5" d="M13.99 56.158a5.42 5.42 0 0 0 5.419-5.423 5.42 5.42 0 0 0-10.839-.002 5.424 5.424 0 0 0 5.42 5.425z"/></g><g><path fill="#fff" d="M15.106 50.723a1.895 1.895 0 0 0 1.077-1.656c0-1.064-.98-1.927-2.192-1.927-1.21 0-2.191.875-2.191 1.927.019.71.435 1.35 1.077 1.656A1.898 1.898 0 0 0 11.8 52.38c0 1.065.98 1.927 2.191 1.927 1.211 0 2.192-.874 2.192-1.927a1.904 1.904 0 0 0-1.077-1.658z"/><path fill="none" stroke="#263238" stroke-linecap="round" stroke-linejoin="round" stroke-miterlimit="20" stroke-width=".5" d="M15.106 50.723a1.895 1.895 0 0 0 1.077-1.656c0-1.064-.98-1.927-2.192-1.927-1.21 0-2.191.875-2.191 1.927.019.71.435 1.35 1.077 1.656A1.898 1.898 0 0 0 11.8 52.38c0 1.065.98 1.927 2.191 1.927 1.211 0 2.192-.874 2.192-1.927a1.904 1.904 0 0 0-1.077-1.658z"/></g><g><path fill="#fff" d="M36.22 51.816s1.698.717 2.223.717c.526 0 1.133-.527 1.433-1.166.3-.638.292-.941.114-.79l-.377.292s.292-.639-.037-.563a.922.922 0 0 0-.529.452s-.038-.565-.338-.291c-.199.18-.376.382-.528.603 0 0-.038-.714-.228-.528-.19.187-.901 1.204-.901 1.204z"/><path fill="none" stroke="#263238" stroke-linecap="round" stroke-linejoin="round" stroke-miterlimit="20" stroke-width=".5" d="M36.22 51.816v0s1.698.717 2.223.717c.526 0 1.133-.527 1.433-1.166.3-.638.292-.941.114-.79l-.377.292v0s.292-.639-.037-.563a.922.922 0 0 0-.529.452s-.038-.565-.338-.291c-.199.18-.376.382-.528.603 0 0-.038-.714-.228-.528-.19.187-.901 1.204-.901 1.204v0z"/></g><g><path fill="#fff" d="M38.177 51.07s-.114.904-.677 1.055"/><path fill="none" stroke="#263238" stroke-linecap="round" stroke-linejoin="round" stroke-miterlimit="20" stroke-width=".5" d="M38.177 51.07s-.114.904-.677 1.055"/></g><g><path fill="#fff" d="M39.043 50.77s-.292 1.428-.753 1.656"/><path fill="none" stroke="#263238" stroke-linecap="round" stroke-linejoin="round" stroke-miterlimit="20" stroke-width=".5" d="M39.043 50.77s-.292 1.428-.753 1.656"/></g><g><path fill="#fff" d="M39.614 50.88a8.12 8.12 0 0 1-.604 1.507"/><path fill="none" stroke="#263238" stroke-linecap="round" stroke-linejoin="round" stroke-miterlimit="20" stroke-width=".5" d="M39.614 50.88a8.12 8.12 0 0 1-.604 1.507"/></g><g><path fill="#fff" d="M27.35 33.293a2.07 2.07 0 0 1-.91-1.807 5.243 5.243 0 0 1 .426-1.638s-2.232-1.458-2.824-1.458c0 0 .318 2.14-.09 3.003a1.37 1.37 0 0 1-.622.618 17.375 17.375 0 0 0 2.174 4.08c.82 1.03 1.22-1.139 1.847-2.798z"/><path fill="none" stroke="#263238" stroke-linecap="round" stroke-linejoin="round" stroke-miterlimit="20" stroke-width=".5" d="M27.35 33.293a2.07 2.07 0 0 1-.91-1.807 5.243 5.243 0 0 1 .426-1.638s-2.232-1.458-2.824-1.458c0 0 .318 2.14-.09 3.003a1.37 1.37 0 0 1-.622.618 17.375 17.375 0 0 0 2.174 4.08c.82 1.03 1.22-1.139 1.847-2.798z"/></g><g><path fill="#fff" d="M20.457 32.83a3.644 3.644 0 0 0-2.626 1.921c-.899 1.732-4.826 9.591-4.49 10.06 1.908 2.682 8.85 4.612 9.555 5.318.706.737 1.481 1.406 2.314 1.997.706.448 2.116.256 2.372.128.257-.128.45-.706 0-.706a.75.75 0 0 1-.74-.583c-.065-.256.705.257 1.09.064.386-.192-.86-.895-1.245-1.215-.386-.32-.707-.767-1.22-.767h-1.48s-2.363-1.711-3.793-2.985a21.7 21.7 0 0 0-3.62-2.641l4.332-7.122"/><path fill="none" stroke="#263238" stroke-linecap="round" stroke-linejoin="round" stroke-miterlimit="20" stroke-width=".5" d="M20.457 32.83a3.644 3.644 0 0 0-2.626 1.921c-.899 1.732-4.826 9.591-4.49 10.06 1.908 2.682 8.85 4.612 9.555 5.318.706.737 1.481 1.406 2.314 1.997.706.448 2.116.256 2.372.128.257-.128.45-.706 0-.706a.75.75 0 0 1-.74-.583c-.065-.256.705.257 1.09.064.386-.192-.86-.895-1.245-1.215-.386-.32-.707-.767-1.22-.767h-1.48v0s-2.363-1.711-3.793-2.985a21.7 21.7 0 0 0-3.62-2.641l4.332-7.122v0"/></g><g><path fill="#fff" d="M26.687 49.81c-.386-.32-.707-.766-1.22-.766h-1.48s-2.363-1.711-3.793-2.985a21.698 21.698 0 0 0-3.62-2.641l1.732-2.851a5.802 5.802 0 0 0-2.935-.837c-1.167 2.431-2.215 4.833-2.042 5.087 1.908 2.682 8.85 4.612 9.556 5.317.706.738 1.48 1.407 2.313 1.997.707.45 2.116.257 2.373.128.256-.128.449-.705 0-.705a.75.75 0 0 1-.741-.583c-.065-.257.706.256 1.09.064.386-.192-.848-.9-1.233-1.224z"/><path fill="none" stroke="#263238" stroke-linecap="round" stroke-linejoin="round" stroke-miterlimit="20" stroke-width=".5" d="M26.687 49.81c-.386-.32-.707-.766-1.22-.766h-1.48v0s-2.363-1.711-3.793-2.985a21.698 21.698 0 0 0-3.62-2.641l1.732-2.851a5.802 5.802 0 0 0-2.935-.837c-1.167 2.431-2.215 4.833-2.042 5.087 1.908 2.682 8.85 4.612 9.556 5.317.706.738 1.48 1.407 2.313 1.997.707.45 2.116.257 2.373.128.256-.128.449-.705 0-.705a.75.75 0 0 1-.741-.583c-.065-.257.706.256 1.09.064.386-.192-.848-.9-1.233-1.224z"/></g><g><path fill="#fff" d="M29.032 25.254c-.228-.455-.228-.82-.137-1.458.09-.638-.456-2.186-.456-2.186-.557.962-2.168 1.533-2.88 1.75-.784.238.362.78.24 1.506-.123.726-1.69 1.146-1.69 1.146s-.458-.942-1.094-.942c-.636 0-1.088 1.458-.726 2.23.194.441.667.69 1.14.598 0 0-.043 1.367.82 1.775.922.44 1.883.79 2.872 1.047.545.09 1.09-.18 1.318-1a18.7 18.7 0 0 0 .365-2.504c.382-.25.734-.543 1.048-.875.219-.315-.593-.632-.82-1.087z"/><path fill="none" stroke="#263238" stroke-linecap="round" stroke-linejoin="round" stroke-miterlimit="20" stroke-width=".5" d="M29.032 25.254c-.228-.455-.228-.82-.137-1.458.09-.638-.456-2.186-.456-2.186v0c-.557.962-2.168 1.533-2.88 1.75-.784.238.362.78.24 1.506-.123.726-1.69 1.146-1.69 1.146v0s-.458-.942-1.094-.942c-.636 0-1.088 1.458-.726 2.23.194.441.667.69 1.14.598 0 0-.043 1.367.82 1.775.922.44 1.883.79 2.872 1.047.545.09 1.09-.18 1.318-1a18.7 18.7 0 0 0 .365-2.504c.382-.25.734-.543 1.048-.875.219-.315-.593-.632-.82-1.087z"/></g><g><path fill="#263238" d="M28.142 25.272c0 .25-.082.452-.181.452-.1 0-.181-.201-.181-.452 0-.25.082-.452.18-.452.1 0 .182.201.182.452z"/></g><g><path fill="none" stroke="#263238" stroke-linecap="round" stroke-linejoin="round" stroke-miterlimit="20" stroke-width=".5" d="M27.36 24.52s.484-.545.846-.422"/></g><g><path fill="none" stroke="#263238" stroke-linecap="round" stroke-linejoin="round" stroke-miterlimit="20" stroke-width=".5" d="M28.21 28.252a1.314 1.314 0 0 1-1.27-.292"/></g><g><path fill="#fff" d="M10.999 85.04S9.91 87.22 9.95 87.518c.041.297 2.2 1.86 3.21 2.408 1.01.548 2.836.635 2.708-.126-.129-.76-1.862-1.268-2.285-2.41A18.466 18.466 0 0 1 13 85.585c-.705.01-1.399-.178-2.001-.545z"/><path fill="none" stroke="#263238" stroke-linecap="round" stroke-linejoin="round" stroke-miterlimit="20" stroke-width=".5" d="M10.999 85.04v0S9.91 87.22 9.95 87.518c.041.297 2.2 1.86 3.21 2.408 1.01.548 2.836.635 2.708-.126-.129-.76-1.862-1.268-2.285-2.41A18.466 18.466 0 0 1 13 85.585c-.705.01-1.399-.178-2.001-.545z"/></g><g><path fill="#fff" d="M15.876 89.814a4.267 4.267 0 0 1-2.285-.324c-1.566-.679-3.084-2.066-3.5-2.46a1.561 1.561 0 0 0-.141.498c.044.292 2.2 1.86 3.21 2.408 1.01.548 2.821.624 2.716-.122z"/><path fill="none" stroke="#263238" stroke-linecap="round" stroke-linejoin="round" stroke-miterlimit="20" stroke-width=".5" d="M15.876 89.814a4.267 4.267 0 0 1-2.285-.324c-1.566-.679-3.084-2.066-3.5-2.46a1.561 1.561 0 0 0-.141.498c.044.292 2.2 1.86 3.21 2.408 1.01.548 2.821.624 2.716-.122z"/></g></g></g></g></svg>