<svg xmlns="http://www.w3.org/2000/svg" width="130" height="129" viewBox="0 0 130 129"><g><g><g><g><path fill="#adc7f7" d="M129.704 39.751c.016-15.88-10.96-29.658-26.442-33.194-15.482-3.535-31.35 4.113-38.23 18.426-6.88-14.313-22.746-21.96-38.228-18.426C11.322 10.09.346 23.867.36 39.747c0 21.472 24.052 41.772 40.667 52.629 17.45 11.411 25.504 20.136 25.504 20.136S77.942 97.748 93.382 89.69c16.678-8.702 36.322-30.044 36.322-49.939z"/></g><g opacity=".7"><path fill="#fff" d="M129.704 39.751c.016-15.88-10.96-29.658-26.442-33.194-15.482-3.535-31.35 4.113-38.23 18.426-6.88-14.313-22.746-21.96-38.228-18.426C11.322 10.09.346 23.867.36 39.747c0 21.472 24.052 41.772 40.667 52.629 17.45 11.411 25.504 20.136 25.504 20.136S77.942 97.748 93.382 89.69c16.678-8.702 36.322-30.044 36.322-49.939z"/></g><g><path fill="#fff" d="M120.96 27.027c-1.452-.78-2.112-.132-2.639-.78-.527-.648 1.453-2.374-2.506-4.088 0 0-.261-3.693-5.672-3.826-5.411-.132-3.959 3.693-5.407 4.615-1.449.921-1.847-.527-3.299.39-1.452.918-.78 2.772-1.98 3.034-1.198.261-2.771-1.172-4.22-.262-1.448.91-1.452 1.714-2.111 1.714-.66 0-1.98-.527-2.772 0-.793.527-1.714 1.17-1.714 1.17h33.378s.395-1.174-1.058-1.967z"/></g><g><path fill="#fff" d="M37.75 51.477c-1.452-.78-2.112-.132-2.639-.78-.527-.648 1.453-2.374-2.506-4.088 0 0-.261-3.693-5.672-3.826-5.411-.132-3.959 3.693-5.407 4.615-1.449.921-1.847-.527-3.299.39-1.452.918-.78 2.772-1.98 3.034-1.198.261-2.771-1.172-4.22-.262-1.448.91-1.452 1.714-2.111 1.714-.66 0-1.98-.527-2.772 0-.793.527-1.714 1.17-1.714 1.17h33.374s.399-1.174-1.054-1.967z"/></g><g><path fill="#fff" d="M20.323 42.161c-.847-.46-1.23-.074-1.534-.46-.305-.387.843-1.378-1.46-2.378 0 0-.153-2.147-3.3-2.221-3.146-.074-2.299 2.147-3.142 2.682-.843.535-1.073-.305-1.917.23-.843.535-.46 1.612-1.17 1.765-.711.152-1.613-.691-2.456-.153-.844.54-.844.996-1.226.996-.383 0-1.171-.305-1.612 0-.442.304-.996.69-.996.69h19.406s.25-.702-.593-1.15z"/></g></g><g><g><path fill="#adc7f7" d="M76.694 7.38a1.515 1.515 0 0 0-2.885-.66 1.519 1.519 0 0 0-2.889.66c0 .956 1.074 1.861 1.815 2.342.413.257.795.56 1.14.901a4.165 4.165 0 0 1 1.199-1.019c.741-.386 1.62-1.339 1.62-2.225z"/></g><g opacity=".4"><path fill="#fff" d="M76.694 7.38a1.515 1.515 0 0 0-2.885-.66 1.519 1.519 0 0 0-2.889.66c0 .956 1.074 1.861 1.815 2.342.413.257.795.56 1.14.901a4.165 4.165 0 0 1 1.199-1.019c.741-.386 1.62-1.339 1.62-2.225z"/></g><g><path fill="#adc7f7" d="M67.429 1.108A.843.843 0 0 0 65.825.74a.843.843 0 0 0-1.605.367c0 .53.597 1.034 1.007 1.304.23.144.443.313.637.503.183-.23.408-.423.663-.57.484-.241.82-.703.902-1.237z"/></g><g opacity=".4"><path fill="#fff" d="M67.429 1.108A.843.843 0 0 0 65.825.74a.843.843 0 0 0-1.605.367c0 .53.597 1.034 1.007 1.304.23.144.443.313.637.503.183-.23.408-.423.663-.57.484-.241.82-.703.902-1.237z"/></g><g><path fill="#adc7f7" d="M60.593 6.128a.847.847 0 0 0-1.608-.367.843.843 0 0 0-1.605.367c0 .534.597 1.038 1.011 1.307.23.142.442.31.633.5.185-.229.411-.42.667-.566a1.67 1.67 0 0 0 .902-1.241z"/></g><g opacity=".4"><path fill="#fff" d="M60.593 6.128a.847.847 0 0 0-1.608-.367.843.843 0 0 0-1.605.367c0 .534.597 1.038 1.011 1.307.23.142.442.31.633.5.185-.229.411-.42.667-.566a1.67 1.67 0 0 0 .902-1.241z"/></g></g><g><g><path fill="#adc7f7" d="M63.692 128.559c27.279 0 49.392-2.393 49.392-5.345 0-2.951-22.113-5.344-49.392-5.344-27.278 0-49.392 2.393-49.392 5.344 0 2.952 22.114 5.345 49.392 5.345z"/></g><g opacity=".5"><path fill="#fff" d="M63.692 128.559c27.279 0 49.392-2.393 49.392-5.345 0-2.951-22.113-5.344-49.392-5.344-27.278 0-49.392 2.393-49.392 5.344 0 2.952 22.114 5.345 49.392 5.345z"/></g></g><g><g><path fill="#adc7f7" d="M20.003 115.64H34.03c-.27-1.713-1.374-1.412-1.519-4.071-.074-1.34 1.171-2.994 1.058-4.755-.09-1.448-1.518-2.936-1.628-4.591-.101-1.495 1.12-3.154 1-4.767-.11-1.526-1.562-2.986-1.687-4.571-.125-1.585 1.07-3.22.93-4.782-.141-1.562-1.617-2.999-1.773-4.54-.156-1.543.995-3.288.82-4.802-.188-1.609-1.706-2.999-1.913-4.478-.23-1.652.847-3.412.593-4.837-.308-1.745-1.932-3.01-2.272-4.294-.636-2.401-.558-4.712-1.312-4.865-.753-.152-.983 2.108-1.592 4.642-.305 1.273-1.894 2.561-2.155 4.294-.211 1.417.913 3.123.726 4.779-.164 1.471-1.644 2.885-1.788 4.485-.133 1.503 1.066 3.162.948 4.736-.117 1.573-1.561 2.986-1.647 4.54-.086 1.554 1.136 3.182 1.054 4.712-.082 1.53-1.5 3.057-1.562 4.568-.078 1.6 1.172 3.212 1.125 4.684-.067 1.644-1.46 3.15-1.511 4.587-.059 1.745 1.222 3.358 1.171 4.685-.086 2.881-1.41 2.284-1.456 4.607z"/></g><g><path fill="none" stroke="#263238" stroke-miterlimit="20" stroke-width=".5" d="M26.025 64.9v50.095"/></g><g><path fill="none" stroke="#263238" stroke-miterlimit="20" stroke-width=".5" d="M28.214 70.155v0l-2.284 1.976v0l-1.87-2.491v0"/></g><g><path fill="none" stroke="#263238" stroke-miterlimit="20" stroke-width=".5" d="M28.214 78.88v0l-2.284 1.97v0l-1.87-2.49v0"/></g><g><path fill="none" stroke="#263238" stroke-miterlimit="20" stroke-width=".5" d="M28.214 87.08v0l-2.284 1.97v0l-1.87-2.49v0"/></g><g><path fill="none" stroke="#263238" stroke-miterlimit="20" stroke-width=".5" d="M28.214 96.83v0L25.93 98.8v0l-1.87-2.49v0"/></g><g><path fill="none" stroke="#263238" stroke-miterlimit="20" stroke-width=".5" d="M28.214 106.69v0l-2.284 1.97v0l-1.87-2.49v0"/></g><g><path fill="#adc7f7" d="M10.453 115.644h10.83c-.211-1.324-1.062-1.09-1.171-3.143-.059-1.034.897-2.311.815-3.67-.07-1.12-1.17-2.264-1.257-3.544-.078-1.171.863-2.436.781-3.682-.086-1.17-1.206-2.303-1.304-3.513-.097-1.21.824-2.487.719-3.693-.106-1.207-1.25-2.315-1.37-3.514-.122-1.198.78-2.537.632-3.708-.145-1.242-1.316-2.315-1.476-3.46-.176-1.272.656-2.63.46-3.731-.237-1.347-1.49-2.323-1.756-3.315-.492-1.854-.43-3.638-1.011-3.755-.582-.118-.78 1.628-1.23 3.583-.234.98-1.46 1.976-1.663 3.326-.164 1.09.703 2.417.562 3.686-.129 1.136-1.269 2.229-1.382 3.463-.101 1.17.824 2.44.734 3.654-.09 1.214-1.198 2.307-1.276 3.513-.078 1.206.882 2.456.816 3.639-.067 1.182-1.172 2.342-1.21 3.513-.06 1.234.913 2.479.866 3.627-.05 1.269-1.124 2.432-1.171 3.54-.047 1.347.94 2.589.91 3.616-.067 2.225-1.086 1.764-1.121 3.552z"/></g><g><path fill="none" stroke="#263238" stroke-miterlimit="20" stroke-width=".5" d="M15.105 76.48v38.668"/></g><g><path fill="none" stroke="#263238" stroke-miterlimit="20" stroke-width=".5" d="M16.795 80.528v0l-1.764 1.523v0L13.59 80.13v0"/></g><g><path fill="none" stroke="#263238" stroke-miterlimit="20" stroke-width=".5" d="M16.795 87.258v0l-1.764 1.523v0L13.59 86.86v0"/></g><g><path fill="none" stroke="#263238" stroke-miterlimit="20" stroke-width=".5" d="M16.795 93.592v0l-1.764 1.523v0L13.59 93.19v0"/></g><g><path fill="none" stroke="#263238" stroke-miterlimit="20" stroke-width=".5" d="M16.795 101.118v0l-1.764 1.523v0l-1.441-1.921v0"/></g><g><path fill="none" stroke="#263238" stroke-miterlimit="20" stroke-width=".5" d="M16.795 108.732v0l-1.764 1.523v0l-1.441-1.925v0"/></g><g><path fill="#adc7f7" d="M101.785 115.645h13.586c-.262-1.663-1.327-1.37-1.472-3.943-.07-1.296 1.132-2.904 1.027-4.606-.086-1.402-1.468-2.842-1.562-4.447-.097-1.448 1.086-3.057.968-4.618-.105-1.476-1.51-2.893-1.631-4.427-.121-1.534 1.034-3.123.897-4.634-.136-1.511-1.561-2.905-1.713-4.396-.153-1.491.96-3.182.78-4.65-.18-1.561-1.65-2.904-1.85-4.337-.223-1.6.82-3.306.578-4.684-.3-1.69-1.874-2.913-2.202-4.158-.617-2.323-.543-4.564-1.269-4.708-.726-.145-.956 2.038-1.561 4.493-.297 1.23-1.835 2.48-2.089 4.173-.203 1.367.886 3.034.707 4.627-.16 1.425-1.593 2.795-1.734 4.345-.129 1.456 1.035 3.06.918 4.587-.117 1.526-1.5 2.893-1.597 4.396-.098 1.503 1.105 3.08 1.023 4.567-.082 1.487-1.448 2.96-1.519 4.423-.074 1.562 1.148 3.123 1.09 4.548-.067 1.593-1.414 3.053-1.465 4.443-.058 1.69 1.172 3.252 1.144 4.536-.082 2.792-1.362 2.214-1.409 4.462z"/></g><g><path fill="none" stroke="#263238" stroke-miterlimit="20" stroke-width=".5" d="M107.615 66.5v48.518"/></g><g><path fill="none" stroke="#263238" stroke-miterlimit="20" stroke-width=".5" d="M109.741 71.584v0l-2.21 1.909v0l-1.811-2.413v0"/></g><g><path fill="none" stroke="#263238" stroke-miterlimit="20" stroke-width=".5" d="M109.741 80.034v0l-2.21 1.909v0l-1.811-2.413v0"/></g><g><path fill="none" stroke="#263238" stroke-miterlimit="20" stroke-width=".5" d="M109.741 87.97v0l-2.21 1.913v0l-1.811-2.413v0"/></g><g><path fill="none" stroke="#263238" stroke-miterlimit="20" stroke-width=".5" d="M109.741 97.42v0l-2.21 1.913v0l-1.811-2.413v0"/></g><g><path fill="none" stroke="#263238" stroke-miterlimit="20" stroke-width=".5" d="M109.741 106.974v0l-2.21 1.909v0l-1.811-2.413v0"/></g><g><path fill="#adc7f7" d="M92.525 115.641h10.49c-.203-1.284-1.027-1.058-1.136-3.045-.055-.999.87-2.24.78-3.552-.066-1.085-1.136-2.194-1.218-3.436-.074-1.116.836-2.342.75-3.564-.086-1.14-1.171-2.233-1.265-3.416-.094-1.183.8-2.408.695-3.576-.105-1.167-1.206-2.24-1.323-3.392-.117-1.152.741-2.46.609-3.592-.137-1.202-1.273-2.24-1.425-3.35-.172-1.233.628-2.549.44-3.614-.23-1.308-1.444-2.249-1.697-3.213-.477-1.792-.418-3.514-.98-3.635-.562-.12-.738 1.562-1.19 3.47-.231.95-1.418 1.914-1.613 3.221-.16 1.058.683 2.343.542 3.573-.12 1.097-1.23 2.154-1.335 3.353-.101 1.124.781 2.342.707 3.54-.074 1.2-1.171 2.234-1.234 3.393-.062 1.16.851 2.378.781 3.514-.07 1.136-1.116 2.284-1.171 3.416-.059 1.194.886 2.4.84 3.513-.052 1.23-1.09 2.343-1.129 3.432-.047 1.304.914 2.506.882 3.513-.062 2.16-1.05 1.71-1.085 3.447z"/></g><g><path fill="none" stroke="#263238" stroke-miterlimit="20" stroke-width=".5" d="M97.035 77.71v37.454"/></g><g><path fill="none" stroke="#263238" stroke-miterlimit="20" stroke-width=".5" d="M98.674 81.63v0l-1.71 1.472v0L95.57 81.24v0"/></g><g><path fill="none" stroke="#263238" stroke-miterlimit="20" stroke-width=".5" d="M98.674 88.15v0l-1.71 1.472v0L95.57 87.76v0"/></g><g><path fill="none" stroke="#263238" stroke-miterlimit="20" stroke-width=".5" d="M98.674 94.286v0l-1.71 1.476v0L95.57 93.9v0"/></g><g><path fill="none" stroke="#263238" stroke-miterlimit="20" stroke-width=".5" d="M98.674 101.576v0l-1.71 1.476v0l-1.394-1.862v0"/></g><g><path fill="none" stroke="#263238" stroke-miterlimit="20" stroke-width=".5" d="M98.674 108.95v0l-1.71 1.472v0l-1.394-1.862v0"/></g></g><g><g><path fill="#fff" d="M54.655 61.78s.488 6.93.78 10.053c.293 3.123.684 5.855.781 7.807a14.405 14.405 0 0 1-1.659 7.027c-1.269 2.44-2.05 5.856-1.464 8.882.586 3.025.781 6.832.39 8.1-.39 1.27-3.318 3.221-2.927 4.685.39 1.464 1.952 1.464 2.732 3.22.781 1.758 3.807 4.49 4.588 3.905.78-.586-.488-2.538-.976-4.978s-.586-7.417-.196-9.272c.39-1.854 3.514-13.468 4.1-15.518.585-2.05 2.537-6.246 2.732-13.078.195-6.832.195-10.54.195-10.54z"/><path fill="none" stroke="#263238" stroke-linecap="round" stroke-linejoin="round" stroke-miterlimit="20" stroke-width=".5" d="M54.655 61.78v0s.488 6.93.78 10.053c.293 3.123.684 5.855.781 7.807a14.405 14.405 0 0 1-1.659 7.027c-1.269 2.44-2.05 5.856-1.464 8.882.586 3.025.781 6.832.39 8.1-.39 1.27-3.318 3.221-2.927 4.685.39 1.464 1.952 1.464 2.732 3.22.781 1.758 3.807 4.49 4.588 3.905.78-.586-.488-2.538-.976-4.978s-.586-7.417-.196-9.272c.39-1.854 3.514-13.468 4.1-15.518.585-2.05 2.537-6.246 2.732-13.078.195-6.832.195-10.54.195-10.54v0z"/></g><g><path fill="#adc7f7" d="M71.39 17.076a1.765 1.765 0 0 0 1.363-1.359c.176-1.124-1.007-4.142-2.732-5.976-1.726-1.835-5.563-2.073-8.523-.71-2.959 1.362-3.314 3.49-4.376 5.504-1.062 2.014-5.711 18.145-7.663 21.471-1.952 3.326-7.808 8.503-5.856 14.347 1.561 4.685 5.282 5.075 7.886 5.075s4.142-2.783 4.91-4.614c.77-1.831 2.367-7.87 2.367-10.83 0-2.959.53-8.936 1.834-11.477 1.304-2.542 4.912-8.936 5.68-9.76.77-.824 4.201-2.37 4.201-2.37z"/><path fill="none" stroke="#263238" stroke-linecap="round" stroke-linejoin="round" stroke-miterlimit="20" stroke-width=".5" d="M71.39 17.076a1.765 1.765 0 0 0 1.363-1.359c.176-1.124-1.007-4.142-2.732-5.976-1.726-1.835-5.563-2.073-8.523-.71-2.959 1.362-3.314 3.49-4.376 5.504-1.062 2.014-5.711 18.145-7.663 21.471-1.952 3.326-7.808 8.503-5.856 14.347 1.561 4.685 5.282 5.075 7.886 5.075s4.142-2.783 4.91-4.614c.77-1.831 2.367-7.87 2.367-10.83 0-2.959.53-8.936 1.834-11.477 1.304-2.542 4.912-8.936 5.68-9.76.77-.824 4.201-2.37 4.201-2.37v0z"/></g><g><path fill="none" stroke="#263238" stroke-linecap="round" stroke-linejoin="round" stroke-miterlimit="20" stroke-width=".5" d="M64.946 18.26v0s-7.808 3.35-11.434 10.092c-3.627 6.742-7.418 21.881-6.965 25.86"/></g><g><path fill="none" stroke="#263238" stroke-linecap="round" stroke-linejoin="round" stroke-miterlimit="20" stroke-width=".5" d="M57.928 22.94s-9.947 19.45-7.847 32.266"/></g><g><path fill="none" stroke="#263238" stroke-linecap="round" stroke-linejoin="round" stroke-miterlimit="20" stroke-width=".5" d="M53.95 23.816a13.874 13.874 0 0 1 6.52-6.078c4.75-2.21 9.947-3.87 9.947-6.188"/></g><g><path fill="#fff" d="M62.402 22.94l-1.952 3.607 4.497.594 1.007-2.721-3.552-1.48z"/><path fill="none" stroke="#263238" stroke-linecap="round" stroke-linejoin="round" stroke-miterlimit="20" stroke-width=".5" d="M62.402 22.94v0l-1.952 3.607v0l4.497.594v0l1.007-2.721v0l-3.552-1.48v0z"/></g><g><path fill="#fff" d="M71.098 14.42s.535 1.893.355 3.076c-.18 1.183-.414 2.073-.355 2.429.058.355.71.827.297 1.17a4.216 4.216 0 0 1-1.004.594s-1.007 2.07-1.538 2.897a2.889 2.889 0 0 1-2.487 1.245c-1.007 0-3.966-2.9-3.966-2.9l2.545-4.685s4.911-2.108 6.153-3.826z"/><path fill="none" stroke="#263238" stroke-linecap="round" stroke-linejoin="round" stroke-miterlimit="20" stroke-width=".5" d="M71.098 14.42s.535 1.893.355 3.076c-.18 1.183-.414 2.073-.355 2.429.058.355.71.827.297 1.17a4.216 4.216 0 0 1-1.004.594s-1.007 2.07-1.538 2.897a2.889 2.889 0 0 1-2.487 1.245c-1.007 0-3.966-2.9-3.966-2.9v0l2.545-4.685v0s4.911-2.108 6.153-3.826z"/></g><g><path fill="none" stroke="#263238" stroke-linecap="round" stroke-linejoin="round" stroke-miterlimit="20" stroke-width=".5" d="M70.268 18.86v0l-.117.828a.882.882 0 0 1-.781-.297"/></g><g><path fill="none" stroke="#263238" stroke-linecap="round" stroke-linejoin="round" stroke-miterlimit="20" stroke-width=".5" d="M68.794 22.406a1.71 1.71 0 0 1-1.124-.886"/></g><g><path fill="none" stroke="#263238" stroke-linecap="round" stroke-linejoin="round" stroke-miterlimit="20" stroke-width=".5" d="M69.27 18.033s.53-.949 1.124-.593"/></g><g><path fill="#fff" d="M57.139 37.2s-1.718.59-3.08 3.123c-1.363 2.534.83 3.728 2.307 3.194 1.475-.535 3.966-4.9.773-6.317z"/><path fill="none" stroke="#263238" stroke-linecap="round" stroke-linejoin="round" stroke-miterlimit="20" stroke-width=".5" d="M57.139 37.2s-1.718.59-3.08 3.123c-1.363 2.534.83 3.728 2.307 3.194 1.475-.535 3.966-4.9.773-6.317z"/></g><g><path fill="#fff" d="M54.168 61.62s.616 6.332 1.6 10.33a52.417 52.417 0 0 0 2.136 6.785s-5.333-1.952-10.19-2.663c-3.93-.578-10.15-3.443-10.825-3.568-.675-.125-1.597-3.26-2.151-3.627-.554-.367-2.951-.308-5.103.246-2.15.555-4.86 1.043-5.66 1.597-.8.554-.43 1.046.39 1.171 1.871.289 3.704.785 5.466 1.48 2.213.921 9.53 3.564 11.005 4.18 1.475.618 10.58 4.92 13.343 6.212 2.764 1.292 6.703 3.564 8.425 3.256 1.722-.309 2.647-3.514 2.522-5.165-.125-1.651-.492-18.817-.43-19.367.063-.55-10.528-.867-10.528-.867z"/><path fill="none" stroke="#263238" stroke-linecap="round" stroke-linejoin="round" stroke-miterlimit="20" stroke-width=".5" d="M54.168 61.62v0s.616 6.332 1.6 10.33a52.417 52.417 0 0 0 2.136 6.785s-5.333-1.952-10.19-2.663c-3.93-.578-10.15-3.443-10.825-3.568-.675-.125-1.597-3.26-2.151-3.627-.554-.367-2.951-.308-5.103.246-2.15.555-4.86 1.043-5.66 1.597-.8.554-.43 1.046.39 1.171 1.871.289 3.704.785 5.466 1.48 2.213.921 9.53 3.564 11.005 4.18 1.475.618 10.58 4.92 13.343 6.212 2.764 1.292 6.703 3.564 8.425 3.256 1.722-.309 2.647-3.514 2.522-5.165-.125-1.651-.492-18.817-.43-19.367.063-.55-10.528-.867-10.528-.867z"/></g><g><path fill="none" stroke="#263238" stroke-linecap="round" stroke-linejoin="round" stroke-miterlimit="20" stroke-width=".5" d="M57.91 78.73s1.952.52 2.475 2.342"/></g><g><path fill="#fff" d="M58.137 26.9s-1.597 3.018-1.421 6.094c.175 3.076.534 8.936.12 11.126-.413 2.19-1.776 4.794-2.072 5.384-.297.59-2.733 2.545-2.839 5.446-.105 2.9 1.359 6.21 1.359 6.21v1.363c1.768.524 3.602.787 5.446.781a30.782 30.782 0 0 0 5.68-.546l2.07-13.727 1.053-8.522s2.307-5.68 2.01-7.632c-.296-1.952-1.416-4.911-3.122-5.977-1.706-1.066-6.27-2.483-8.284 0z"/><path fill="none" stroke="#263238" stroke-linecap="round" stroke-linejoin="round" stroke-miterlimit="20" stroke-width=".5" d="M58.137 26.9s-1.597 3.018-1.421 6.094c.175 3.076.534 8.936.12 11.126-.413 2.19-1.776 4.794-2.072 5.384-.297.59-2.733 2.545-2.839 5.446-.105 2.9 1.359 6.21 1.359 6.21v1.363c1.768.524 3.602.787 5.446.781a30.782 30.782 0 0 0 5.68-.546l2.07-13.727v0l1.053-8.522v0s2.307-5.68 2.01-7.632c-.296-1.952-1.416-4.911-3.122-5.977-1.706-1.066-6.27-2.483-8.284 0z"/></g><g><path fill="#fff" d="M58.145 26.898s-1.597 3.018-1.422 6.094c.079 1.347.192 3.22.258 5.075 2.42-.632 5.356-1.995 5.977-4.919.484-2.546.26-5.176-.644-7.605-1.577-.14-3.182.137-4.17 1.355z"/><path fill="none" stroke="#263238" stroke-linecap="round" stroke-linejoin="round" stroke-miterlimit="20" stroke-width=".5" d="M58.145 26.898s-1.597 3.018-1.422 6.094c.079 1.347.192 3.22.258 5.075 2.42-.632 5.356-1.995 5.977-4.919.484-2.546.26-5.176-.644-7.605-1.577-.14-3.182.137-4.17 1.355z"/></g><g><path fill="#263238" d="M58.73 63.292a30.783 30.783 0 0 0 5.68-.535l1.671-11.067c-5.856.87-9.76-1.472-11.146-2.53-.07.148-.132.265-.171.344-.297.593-2.733 2.545-2.839 5.445-.105 2.901 1.359 6.212 1.359 6.212v1.362c1.768.52 3.603.779 5.446.77z"/><path fill="none" stroke="#263238" stroke-linecap="round" stroke-linejoin="round" stroke-miterlimit="20" stroke-width=".5" d="M58.73 63.292a30.783 30.783 0 0 0 5.68-.535l1.671-11.067c-5.856.87-9.76-1.472-11.146-2.53-.07.148-.132.265-.171.344-.297.593-2.733 2.545-2.839 5.445-.105 2.901 1.359 6.212 1.359 6.212v1.362c1.768.52 3.603.779 5.446.77z"/></g><g><path fill="#fff" d="M83.35 26.49a3.033 3.033 0 0 1 2.307 1.17c.828 1.172.78 3.124-.472 3.553-1.254.43-2.19.473-3.432-.71-1.241-1.183-.39-3.338.293-3.728.394-.228.85-.328 1.304-.285z"/><path fill="none" stroke="#263238" stroke-linecap="round" stroke-linejoin="round" stroke-miterlimit="20" stroke-width=".5" d="M83.35 26.49a3.033 3.033 0 0 1 2.307 1.17c.828 1.172.78 3.124-.472 3.553-1.254.43-2.19.473-3.432-.71-1.241-1.183-.39-3.338.293-3.728.394-.228.85-.328 1.304-.285z"/></g><g><path fill="#263238" d="M78.203 15.893s-1.003-1.3-.355-2.19c.648-.89 3.256-1.831 4.618-1.476 1.363.355 4.79 3.49 5.618 6.742.828 3.252-.886 4.618-2.424 5.387a39.87 39.87 0 0 1-4.26 1.831c-.179 0-1.951-1.062-2.545-2.244-.593-1.183-.827-3.256-.472-3.612.355-.355 1.241-.827.78-1.596-.46-.77-1.17-1.304-.89-1.835a.964.964 0 0 0-.07-1.007z"/><path fill="none" stroke="#263238" stroke-linecap="round" stroke-linejoin="round" stroke-miterlimit="20" stroke-width=".5" d="M78.203 15.893s-1.003-1.3-.355-2.19c.648-.89 3.256-1.831 4.618-1.476 1.363.355 4.79 3.49 5.618 6.742.828 3.252-.886 4.618-2.424 5.387a39.87 39.87 0 0 1-4.26 1.831c-.179 0-1.951-1.062-2.545-2.244-.593-1.183-.827-3.256-.472-3.612.355-.355 1.241-.827.78-1.596-.46-.77-1.17-1.304-.89-1.835a.964.964 0 0 0-.07-1.007z"/></g><g><path fill="#fff" d="M70.86 110.22s-1.104 6.898-1.627 7.613c-.523.714-5.723 2.28-6.637 2.732-.913.453-.78 1.304.195 1.367.976.062 6.832.328 8.527.328 1.694 0 4.032.78 4.552.257.519-.523-.324-3.447-.52-5.984a43.135 43.135 0 0 1 .196-6.247z"/><path fill="none" stroke="#263238" stroke-linecap="round" stroke-linejoin="round" stroke-miterlimit="20" stroke-width=".5" d="M70.86 110.22v0s-1.104 6.898-1.627 7.613c-.523.714-5.723 2.28-6.637 2.732-.913.453-.78 1.304.195 1.367.976.062 6.832.328 8.527.328 1.694 0 4.032.78 4.552.257.519-.523-.324-3.447-.52-5.984a43.135 43.135 0 0 1 .196-6.247z"/></g><g><path fill="#263238" d="M70.209 118.682a1.562 1.562 0 0 0-.957-.882.102.102 0 0 1-.02.035c-.518.718-5.722 2.28-6.636 2.733-.913.453-.78 1.304.195 1.366.976.063 6.832.328 8.527.328 1.694 0 4.032.78 4.552.258.316-.316.128-1.519-.11-2.983-1.003.281-2.073.64-2.818.64-1.757 0-2.148-.324-2.733-1.495z"/><path fill="none" stroke="#263238" stroke-linecap="round" stroke-linejoin="round" stroke-miterlimit="20" stroke-width=".5" d="M70.209 118.682a1.562 1.562 0 0 0-.957-.882.102.102 0 0 1-.02.035c-.518.718-5.722 2.28-6.636 2.733-.913.453-.78 1.304.195 1.366.976.063 6.832.328 8.527.328 1.694 0 4.032.78 4.552.258.316-.316.128-1.519-.11-2.983-1.003.281-2.073.64-2.818.64-1.757 0-2.148-.324-2.733-1.495z"/></g><g><path fill="#fff" d="M62.094 120.97c-.285.433-.028.91.695.956.976.067 6.831.328 8.526.328 1.694 0 4.032.781 4.552.258.145-.226.203-.496.164-.761-2.378 0-6.137-.106-8.753-.149a20.94 20.94 0 0 1-5.184-.632z"/><path fill="none" stroke="#263238" stroke-linecap="round" stroke-linejoin="round" stroke-miterlimit="20" stroke-width=".5" d="M62.094 120.97c-.285.433-.028.91.695.956.976.067 6.831.328 8.526.328 1.694 0 4.032.781 4.552.258.145-.226.203-.496.164-.761-2.378 0-6.137-.106-8.753-.149a20.94 20.94 0 0 1-5.184-.632z"/></g><g><path fill="#fff" d="M66.778 83.998s1.597 7.281 2.249 9.823c.652 2.541 1.17 11.953 1.362 14.674.191 2.721-.18 8.226-.414 9.053-.234.828-4.497 3.432-5.918 4.025-1.421.594-2.428 1.066-2.307 1.714.12.648 4.852 1.66 7.69 1.538 2.839-.12 4.44-1.003 5.798-1.124 1.358-.121 1.835-.53 1.835-2.186 0-1.655-1.242-2.733-1.359-6.746a86.337 86.337 0 0 1 .472-10.709c.239-2.248 1.422-4.38.176-8.818-1.245-4.44-2.248-5.267-2.366-6.637-.117-1.37-.53-5.325-.53-5.325z"/><path fill="none" stroke="#263238" stroke-linecap="round" stroke-linejoin="round" stroke-miterlimit="20" stroke-width=".5" d="M66.778 83.998v0s1.597 7.281 2.249 9.823c.652 2.541 1.17 11.953 1.362 14.674.191 2.721-.18 8.226-.414 9.053-.234.828-4.497 3.432-5.918 4.025-1.421.594-2.428 1.066-2.307 1.714.12.648 4.852 1.66 7.69 1.538 2.839-.12 4.44-1.003 5.798-1.124 1.358-.121 1.835-.53 1.835-2.186 0-1.655-1.242-2.733-1.359-6.746a86.337 86.337 0 0 1 .472-10.709c.239-2.248 1.422-4.38.176-8.818-1.245-4.44-2.248-5.267-2.366-6.637-.117-1.37-.53-5.325-.53-5.325v0z"/></g><g><path fill="#263238" d="M64.53 63.533s-.356 8.698-.118 12.012c.238 3.315 1.538 7.87 1.538 7.87s4.2.414 6.45-.238c2.248-.651 2.838-1.241 2.838-1.241l-.117-12.07s2.01-2.663 2.78-4.557a7.835 7.835 0 0 0 .593-3.49 11.415 11.415 0 0 0-5.208-4.427c-3.549-1.491-7.336 2.475-8.757 6.141z"/><path fill="none" stroke="#263238" stroke-linecap="round" stroke-linejoin="round" stroke-miterlimit="20" stroke-width=".5" d="M64.53 63.533s-.356 8.698-.118 12.012c.238 3.315 1.538 7.87 1.538 7.87v0s4.2.414 6.45-.238c2.248-.651 2.838-1.241 2.838-1.241v0l-.117-12.07v0s2.01-2.663 2.78-4.557a7.835 7.835 0 0 0 .593-3.49 11.415 11.415 0 0 0-5.208-4.427c-3.549-1.491-7.336 2.475-8.757 6.141z"/></g><g><path fill="none" stroke="#fff" stroke-linecap="round" stroke-linejoin="round" stroke-miterlimit="20" stroke-width=".5" d="M69.853 62.82s-1.066 8.05-.71 13.433"/></g><g><path fill="#fff" d="M64.94 59.802l-.71 5.075 8.108-4.142 8.933 4.615s-2.011-6.27-2.187-6.746c-.175-.477-2.182-3.475-5.305-3.592-3.123-.117-8.838 4.79-8.838 4.79z"/><path fill="none" stroke="#263238" stroke-linecap="round" stroke-linejoin="round" stroke-miterlimit="20" stroke-width=".5" d="M64.94 59.802v0l-.71 5.075v0l8.108-4.142v0l8.933 4.615v0s-2.011-6.27-2.187-6.746c-.175-.477-2.182-3.475-5.305-3.592-3.123-.117-8.838 4.79-8.838 4.79z"/></g><g><path fill="#adc7f7" d="M70.979 32.054s-13.312 6.211-15.206 7.93c-1.893 1.717-3.017 5.148-2.248 6.331.769 1.183 2.01.886 3.845.473 1.835-.414 6.332-3.018 8.226-3.611 1.893-.594 1.241-.531 1.241-.531s-1.714 12.84-1.893 16.271c-.18 3.432-.235 2.78-.235 2.78s6.34-4.306 8.222-4.615c1.882-.308 7.28 3.787 7.28 3.787s-.651-3.314-1.065-5.266a19.36 19.36 0 0 1-.414-3.787c0-.176 3.432-9.526 3.432-9.526s-.238 3.315.648 3.018c.886-.297 4.38-7.515 4.56-9.112.18-1.596-4.685-5.149-4.685-5.149a1.655 1.655 0 0 0-1.124-.78c-.754-.106-9.694 1.135-10.584 1.787z"/><path fill="none" stroke="#263238" stroke-linecap="round" stroke-linejoin="round" stroke-miterlimit="20" stroke-width=".5" d="M70.979 32.054s-13.312 6.211-15.206 7.93c-1.893 1.717-3.017 5.148-2.248 6.331.769 1.183 2.01.886 3.845.473 1.835-.414 6.332-3.018 8.226-3.611 1.893-.594 1.241-.531 1.241-.531v0s-1.714 12.84-1.893 16.271c-.18 3.432-.235 2.78-.235 2.78v0s6.34-4.306 8.222-4.615c1.882-.308 7.28 3.787 7.28 3.787v0s-.651-3.314-1.065-5.266a19.36 19.36 0 0 1-.414-3.787c0-.176 3.432-9.526 3.432-9.526v0s-.238 3.315.648 3.018c.886-.297 4.38-7.515 4.56-9.112.18-1.596-4.685-5.149-4.685-5.149a1.655 1.655 0 0 0-1.124-.78c-.754-.106-9.694 1.135-10.584 1.787z"/></g><g><path fill="none" stroke="#263238" stroke-linecap="round" stroke-linejoin="round" stroke-miterlimit="20" stroke-width=".5" d="M82.161 42.291S81.747 35.604 80.74 33"/></g><g><path fill="none" stroke="#263238" stroke-linecap="round" stroke-linejoin="round" stroke-miterlimit="20" stroke-width=".5" d="M66.84 42.64l11.895-4.38"/></g><g><path fill="none" stroke="#263238" stroke-linecap="round" stroke-linejoin="round" stroke-miterlimit="20" stroke-width=".5" d="M72.11 40.87a9.069 9.069 0 0 0 3.197 3.123"/></g><g><path fill="none" stroke="#263238" stroke-linecap="round" stroke-linejoin="round" stroke-miterlimit="20" stroke-width=".5" d="M71.63 40.99s2.545 9.584 5.208 11.712"/></g><g><path fill="none" stroke="#263238" stroke-linecap="round" stroke-linejoin="round" stroke-miterlimit="20" stroke-width=".5" d="M70.92 41.22s.593 7.277 1.952 10.177"/></g><g><path fill="#fff" d="M79.38 14.89s-3.077 1.538-3.608 2.186c-.53.648-.71 1.363-1.48 1.894-.769.53-1.834.652-1.596 1.065.315.426.672.818 1.066 1.172 0 0-.781 2.486-1.172 3.431-.39.945-.292 1.718.356 1.835.648.117 3.552 0 3.552 0l-.71 4.322 5.368-1.52.433-3.513-1.733-2.342s1.83-.472 2.186-1.3a.886.886 0 0 0-.945-1.304c-.652.121-2.01.89-2.01.71 0-.179 1.24-1.834 1.24-2.307 0-.472-1.42-1.596-1.065-1.834.355-.239 2.073-.71 2.132-1.48.058-.77-2.015-1.015-2.015-1.015z"/><path fill="none" stroke="#263238" stroke-linecap="round" stroke-linejoin="round" stroke-miterlimit="20" stroke-width=".5" d="M79.38 14.89v0s-3.077 1.538-3.608 2.186c-.53.648-.71 1.363-1.48 1.894-.769.53-1.834.652-1.596 1.065.315.426.672.818 1.066 1.172 0 0-.781 2.486-1.172 3.431-.39.945-.292 1.718.356 1.835.648.117 3.552 0 3.552 0v0l-.71 4.322v0l5.368-1.52v0l.433-3.513v0l-1.733-2.342v0s1.83-.472 2.186-1.3a.886.886 0 0 0-.945-1.304c-.652.121-2.01.89-2.01.71 0-.179 1.24-1.834 1.24-2.307 0-.472-1.42-1.596-1.065-1.834.355-.239 2.073-.71 2.132-1.48.058-.77-2.015-1.015-2.015-1.015z"/></g><g><path fill="#263238" d="M76.236 18.907c-.117.285-.3.484-.39.441-.09-.043-.094-.312.023-.6.118-.29.3-.485.39-.442.09.043.094.312-.023.601z"/></g><g><path fill="none" stroke="#263238" stroke-linecap="round" stroke-linejoin="round" stroke-miterlimit="20" stroke-width=".5" d="M76.36 17.202s.832-.594 1.066.648"/></g><g><path fill="none" stroke="#263238" stroke-linecap="round" stroke-linejoin="round" stroke-miterlimit="20" stroke-width=".5" d="M74.3 22.47a1.83 1.83 0 0 0 1.776 0"/></g><g><path fill="#fff" d="M57.348 30.062s-.562-3.677 2.159-4.626c2.72-.948 6.922-.414 11.122.781s7.34.297 9.112.355c1.772.059 4.439.535 4.439 1.777a3.33 3.33 0 0 1-1.3 2.428c-.297.176-1.066-.476-1.066-.476s-7.714 1.588-12.012 2.014c-5.75.566-8.257 1.21-10.584-.059"/><path fill="none" stroke="#263238" stroke-linecap="round" stroke-linejoin="round" stroke-miterlimit="20" stroke-width=".5" d="M57.348 30.062v0s-.562-3.677 2.159-4.626c2.72-.948 6.922-.414 11.122.781s7.34.297 9.112.355c1.772.059 4.439.535 4.439 1.777a3.33 3.33 0 0 1-1.3 2.428c-.297.176-1.066-.476-1.066-.476v0s-7.714 1.588-12.012 2.014c-5.75.566-8.257 1.21-10.584-.059"/></g><g><path fill="#fff" d="M79.321 24.833S77.9 26.668 77.9 27.316c0 .648.652.355 1.007.121.355-.234 1.835-2.073 1.597-2.428s-.648-.71-1.183-.176z"/><path fill="none" stroke="#263238" stroke-linecap="round" stroke-linejoin="round" stroke-miterlimit="20" stroke-width=".5" d="M79.321 24.833S77.9 26.668 77.9 27.316c0 .648.652.355 1.007.121.355-.234 1.835-2.073 1.597-2.428s-.648-.71-1.183-.176z"/></g><g><path fill="#fff" d="M81.627 25.543s-1.417 1.835-1.417 2.483c0 .648.648.355 1.003.121.356-.234 1.835-2.073 1.597-2.428s-.648-.71-1.183-.176z"/><path fill="none" stroke="#263238" stroke-linecap="round" stroke-linejoin="round" stroke-miterlimit="20" stroke-width=".5" d="M81.627 25.543s-1.417 1.835-1.417 2.483c0 .648.648.355 1.003.121.356-.234 1.835-2.073 1.597-2.428s-.648-.71-1.183-.176z"/></g><g><path fill="#fff" d="M82.72 26.397s-1.09 1.406-1.09 1.905c0 .5.5.27.78.09.282-.18 1.402-1.585 1.223-1.858-.18-.273-.508-.543-.914-.137z"/><path fill="none" stroke="#263238" stroke-linecap="round" stroke-linejoin="round" stroke-miterlimit="20" stroke-width=".5" d="M82.72 26.397s-1.09 1.406-1.09 1.905c0 .5.5.27.78.09.282-.18 1.402-1.585 1.223-1.858-.18-.273-.508-.543-.914-.137z"/></g><g><path fill="#fff" d="M80.502 25.007s-1.713 2.546-1.596 2.96c.117.413.886-.117 1.835-1.066.948-.949 1.182-2.838-.239-1.894z"/><path fill="none" stroke="#263238" stroke-linecap="round" stroke-linejoin="round" stroke-miterlimit="20" stroke-width=".5" d="M80.502 25.007s-1.713 2.546-1.596 2.96c.117.413.886-.117 1.835-1.066.948-.949 1.182-2.838-.239-1.894z"/></g><g><path fill="#fff" d="M58.348 36.443s1.714 1.562 1.827 2.206c.113.644-.582.46-.972.289-.39-.172-2.163-1.726-1.991-2.116.171-.39.519-.812 1.136-.379z"/><path fill="none" stroke="#263238" stroke-linecap="round" stroke-linejoin="round" stroke-miterlimit="20" stroke-width=".5" d="M58.348 36.443s1.714 1.562 1.827 2.206c.113.644-.582.46-.972.289-.39-.172-2.163-1.726-1.991-2.116.171-.39.519-.812 1.136-.379z"/></g><g><path fill="#fff" d="M56.218 37.543s1.714 1.562 1.827 2.202c.113.64-.582.464-.972.293-.39-.172-2.163-1.726-1.991-2.116.171-.39.503-.812 1.136-.379z"/><path fill="none" stroke="#263238" stroke-linecap="round" stroke-linejoin="round" stroke-miterlimit="20" stroke-width=".5" d="M56.218 37.543s1.714 1.562 1.827 2.202c.113.64-.582.464-.972.293-.39-.172-2.163-1.726-1.991-2.116.171-.39.503-.812 1.136-.379z"/></g><g><path fill="#fff" d="M55.276 38.57s1.311 1.195 1.397 1.687c.086.492-.44.355-.741.223-.301-.133-1.656-1.32-1.523-1.62.133-.301.398-.621.867-.29z"/><path fill="none" stroke="#263238" stroke-linecap="round" stroke-linejoin="round" stroke-miterlimit="20" stroke-width=".5" d="M55.276 38.57s1.311 1.195 1.397 1.687c.086.492-.44.355-.741.223-.301-.133-1.656-1.32-1.523-1.62.133-.301.398-.621.867-.29z"/></g><g><path fill="#fff" d="M57.213 36.823s2.128 2.21 2.085 2.64c-.043.429-.898.034-1.99-.735-1.094-.769-1.656-2.596-.095-1.905z"/><path fill="none" stroke="#263238" stroke-linecap="round" stroke-linejoin="round" stroke-miterlimit="20" stroke-width=".5" d="M57.213 36.823s2.128 2.21 2.085 2.64c-.043.429-.898.034-1.99-.735-1.094-.769-1.656-2.596-.095-1.905z"/></g><g><path fill="#fff" d="M65 80.689s.059 2.838.476 3.373c.418.534 3.018.53 5.325.472 2.307-.059 4.26-.297 4.556-.89.297-.594.414-3.49.059-3.666-.356-.176-3.967.531-6.567.531s-3.849-.53-3.849.18z"/><path fill="none" stroke="#263238" stroke-linecap="round" stroke-linejoin="round" stroke-miterlimit="20" stroke-width=".5" d="M65 80.689s.059 2.838.476 3.373c.418.534 3.018.53 5.325.472 2.307-.059 4.26-.297 4.556-.89.297-.594.414-3.49.059-3.666-.356-.176-3.967.531-6.567.531s-3.849-.53-3.849.18z"/></g><g><path fill="#263238" d="M69.44 124.83c2.843-.117 4.44-1.003 5.798-1.124 1.358-.122 1.835-.531 1.835-2.187 0-.78-.262-1.405-.559-2.26-1.877.804-4.528.898-4.528.898a4.044 4.044 0 0 0-.414-2.132c-.535-.886-1.538-.234-1.538-.234l-.172-.031c-.722.984-4.485 3.267-5.805 3.818-1.421.59-2.428 1.066-2.307 1.714.12.648 4.852 1.659 7.69 1.538z"/><path fill="none" stroke="#263238" stroke-linecap="round" stroke-linejoin="round" stroke-miterlimit="20" stroke-width=".5" d="M69.44 124.83c2.843-.117 4.44-1.003 5.798-1.124 1.358-.122 1.835-.531 1.835-2.187 0-.78-.262-1.405-.559-2.26-1.877.804-4.528.898-4.528.898a4.044 4.044 0 0 0-.414-2.132c-.535-.886-1.538-.234-1.538-.234v0l-.172-.031c-.722.984-4.485 3.267-5.805 3.818-1.421.59-2.428 1.066-2.307 1.714.12.648 4.852 1.659 7.69 1.538z"/></g><g><path fill="#fff" d="M77.038 122.19c-1.628.39-5.669 1.999-9.666 1.628-3.256-.305-4.853-.8-5.466-1.042a.613.613 0 0 0-.148.507c.117.652 4.853 1.66 7.69 1.538 2.839-.12 4.44-1.003 5.798-1.124 1.144-.094 1.66-.41 1.792-1.507z"/><path fill="none" stroke="#263238" stroke-linecap="round" stroke-linejoin="round" stroke-miterlimit="20" stroke-width=".5" d="M77.038 122.19c-1.628.39-5.669 1.999-9.666 1.628-3.256-.305-4.853-.8-5.466-1.042a.613.613 0 0 0-.148.507c.117.652 4.853 1.66 7.69 1.538 2.839-.12 4.44-1.003 5.798-1.124 1.144-.094 1.66-.41 1.792-1.507z"/></g><g><path fill="#263238" d="M32.356 74.35c.112-.298.17-.613.168-.93 0-.738 3.198-1.413 3.569-1.413h.3c-.582-.925-1.23-2.85-1.655-3.123-.554-.371-2.951-.309-5.103.246-2.15.554-4.86 1.042-5.66 1.596-.8.555-.43 1.047.39 1.171 1.871.289 3.704.785 5.466 1.48.558.219 1.468.57 2.525.972z"/><path fill="none" stroke="#263238" stroke-linecap="round" stroke-linejoin="round" stroke-miterlimit="20" stroke-width=".5" d="M32.356 74.35c.112-.298.17-.613.168-.93 0-.738 3.198-1.413 3.569-1.413h.3c-.582-.925-1.23-2.85-1.655-3.123-.554-.371-2.951-.309-5.103.246-2.15.554-4.86 1.042-5.66 1.596-.8.555-.43 1.047.39 1.171 1.871.289 3.704.785 5.466 1.48.558.219 1.468.57 2.525.972z"/></g><g><path fill="#fff" d="M35.318 69.795a2.772 2.772 0 0 0-.582-.921c-.554-.371-2.951-.309-5.102.246-2.151.554-4.86 1.042-5.661 1.596-.675.473-.511.894.043 1.09.226-.27.734-.64 1.866-1.09 2.186-.862 7.296-1.186 9.436-.921z"/><path fill="none" stroke="#263238" stroke-linecap="round" stroke-linejoin="round" stroke-miterlimit="20" stroke-width=".5" d="M35.318 69.795a2.772 2.772 0 0 0-.582-.921c-.554-.371-2.951-.309-5.102.246-2.151.554-4.86 1.042-5.661 1.596-.675.473-.511.894.043 1.09.226-.27.734-.64 1.866-1.09 2.186-.862 7.296-1.186 9.436-.921z"/></g><g><path fill="#263238" d="M56.9 110.484a28.404 28.404 0 0 1-.41-4.274.207.207 0 0 0-.078-.02c-.976 0-1.562.976-1.562.976l-1.929-2.596c-.952 1.171-2.67 2.623-2.365 3.767.39 1.464 1.952 1.464 2.732 3.221.781 1.757 3.807 4.49 4.588 3.904.78-.586-.488-2.538-.976-4.978z"/><path fill="none" stroke="#263238" stroke-linecap="round" stroke-linejoin="round" stroke-miterlimit="20" stroke-width=".5" d="M56.9 110.484a28.404 28.404 0 0 1-.41-4.274.207.207 0 0 0-.078-.02c-.976 0-1.562.976-1.562.976v0l-1.929-2.596c-.952 1.171-2.67 2.623-2.365 3.767.39 1.464 1.952 1.464 2.732 3.221.781 1.757 3.807 4.49 4.588 3.904.78-.586-.488-2.538-.976-4.978z"/></g><g><path fill="#fff" d="M57.878 115.458a.562.562 0 0 0 .171-.222c-3.513-2-3.821-4.513-4.368-5.243-.41-.547-2.003-1.952-2.932-2.733-.195.325-.263.71-.191 1.081.39 1.464 1.952 1.464 2.733 3.221.78 1.757 3.806 4.482 4.587 3.896z"/><path fill="none" stroke="#263238" stroke-linecap="round" stroke-linejoin="round" stroke-miterlimit="20" stroke-width=".5" d="M57.878 115.458a.562.562 0 0 0 .171-.222c-3.513-2-3.821-4.513-4.368-5.243-.41-.547-2.003-1.952-2.932-2.733-.195.325-.263.71-.191 1.081.39 1.464 1.952 1.464 2.733 3.221.78 1.757 3.806 4.482 4.587 3.896z"/></g></g></g></g></svg>