<svg xmlns="http://www.w3.org/2000/svg" width="245" height="183" viewBox="0 0 245 183"><g><g><g><g><path fill="#adc7f7" d="M216.727 165.283s34.267-39.757 25.465-90.601C233.389 23.838 187.988-2.782 157.535.23 127.08 3.243 96.759 33.12 67.003 36.812 37.246 40.503-7.608 66.783 1.458 116.784c9.066 50.002 36.617 54.894 81.214 56.73 44.597 1.837 107.704 24.734 134.055-8.231z"/></g><g><path fill="#eef3fd" d="M216.727 165.283s34.267-39.757 25.465-90.601C233.389 23.838 187.988-2.782 157.535.23 127.08 3.243 96.759 33.12 67.003 36.812 37.246 40.503-7.608 66.783 1.458 116.784c9.066 50.002 36.617 54.894 81.214 56.73 44.597 1.837 107.704 24.734 134.055-8.231z"/></g></g><g><g><path fill="none" stroke="#263238" stroke-linecap="round" stroke-linejoin="round" stroke-miterlimit="20" d="M6.28 121.033h238.126"/></g></g><g><g><path fill="#263238" d="M35.921 143.01c11.174 0 20.232-3.365 20.232-7.515 0-4.15-9.058-7.515-20.232-7.515-11.173 0-20.231 3.365-20.231 7.515 0 4.15 9.058 7.515 20.231 7.515z"/></g><g><path fill="#fff" d="M24.11 111.82l2.821 22.916c0 3.672 6.849 6.653 15.3 6.653 8.45 0 15.298-2.98 15.298-6.653l2.821-22.916z"/></g><g><g><path fill="#adc7f7" d="M39.579 111.82H24.11l2.821 22.916c0 3.672 6.849 6.653 15.3 6.653.548 0 1.088-.012 1.62-.037-4.819-8.553-4.9-21.105-4.272-29.532z"/></g><g opacity=".4"><path fill="#fff" d="M39.579 111.82H24.11l2.821 22.916c0 3.672 6.849 6.653 15.3 6.653.548 0 1.088-.012 1.62-.037-4.819-8.553-4.9-21.105-4.272-29.532z"/></g></g><g><path fill="none" stroke="#263238" stroke-linecap="round" stroke-linejoin="round" stroke-miterlimit="20" d="M24.11 111.82v0l2.821 22.916c0 3.672 6.849 6.653 15.3 6.653 8.45 0 15.298-2.98 15.298-6.653l2.821-22.916v0z"/></g><g><path fill="#fff" d="M42.23 119.7c10.008 0 18.12-3.528 18.12-7.88s-8.112-7.88-18.12-7.88c-10.007 0-18.12 3.528-18.12 7.88s8.113 7.88 18.12 7.88z"/><path fill="none" stroke="#263238" stroke-linecap="round" stroke-linejoin="round" stroke-miterlimit="20" d="M42.23 119.7c10.008 0 18.12-3.528 18.12-7.88s-8.112-7.88-18.12-7.88c-10.007 0-18.12 3.528-18.12 7.88s8.113 7.88 18.12 7.88z"/></g><g><path fill="#263238" d="M42.231 118.47c8.943 0 16.192-3.07 16.192-6.855 0-3.786-7.25-6.855-16.192-6.855s-16.191 3.069-16.191 6.855c0 3.785 7.25 6.854 16.191 6.854z"/><path fill="none" stroke="#263238" stroke-linecap="round" stroke-linejoin="round" stroke-miterlimit="20" d="M42.231 118.47c8.943 0 16.192-3.07 16.192-6.855 0-3.786-7.25-6.855-16.192-6.855s-16.191 3.069-16.191 6.855c0 3.785 7.25 6.854 16.191 6.854z"/></g><g><path fill="none" stroke="#263238" stroke-linecap="round" stroke-linejoin="round" stroke-miterlimit="20" d="M43.465 112.323v0S42.02 98.978 33.017 88.879c-9.004-10.1-6.799-8.86-6.799-8.86v0"/></g><g><path fill="none" stroke="#263238" stroke-linecap="round" stroke-linejoin="round" stroke-miterlimit="20" d="M59.684 72.65v0s-10.806 10.823-12.61 23.086c-1.803 12.263-.628 14.243-.628 14.243v0"/></g><g><path fill="none" stroke="#263238" stroke-linecap="round" stroke-linejoin="round" stroke-miterlimit="20" d="M45.233 111.588v0s-2.11-7.547-4.272-22.709C38.799 73.717 39.88 65.8 39.88 65.8v0"/></g><g><path fill="#adc7f7" d="M27.152 84.137s-3.022 3.283-7.672-3.144-3.104-13.923-3.104-13.923 2.37 3.616 5.957 5.138c3.587 1.522 8.827 10.169 4.819 11.93z"/></g><g><path fill="#adc7f7" d="M39.858 69.403s-4.323 1.082-4.68-6.848c-.359-7.93 5.026-13.345 5.026-13.345s0 4.327 2.16 7.546c2.162 3.22 1.823 13.37-2.506 12.647z"/></g><g><path fill="#adc7f7" d="M57.692 76.656s-4.21-1.465-.17-8.294c4.04-6.83 11.524-8.402 11.524-8.402s-2.37 3.622-2.338 7.546c.032 3.925-5.767 12.125-9.016 9.15z"/></g><g><path fill="#adc7f7" d="M44.902 110.514s2.884-12.986 9.01-19.111a19.657 19.657 0 0 1 13.691-5.773s-7.207 2.886-9.368 8.653c-2.161 5.767-5.78 18.395-5.78 18.395H34.46s-2.168-4.686-8.294-10.1C20.041 97.163 9.95 93.566 9.95 93.566s11.171-3.968 19.1-.723c7.93 3.245 13.691 16.98 13.691 16.98z"/></g><g><path fill="#adc7f7" d="M47.68 110.486s-7.15-4.912-14.953-4.094c-7.804.817-8.451 7.163-8.797 9.005a21.249 21.249 0 0 0-.32 3.277s10.053-3.07 16.248-4.094c6.195-1.025 8.796 1.842 7.822-4.094z"/></g><g><path fill="#adc7f7" d="M45.015 110.486s4.499-4.912 9.425-4.094c4.926.817 5.315 7.163 5.516 9.005.124 1.088.193 2.182.208 3.277 0 0-6.34-3.07-10.223-4.094-3.883-1.025-5.542 1.842-4.926-4.094z"/></g></g><g><g><path fill="#263238" d="M72.014 31.52h136.003a5.117 5.117 0 0 1 5.114 5.119v95.16H66.9V36.633a5.117 5.117 0 0 1 5.114-5.113z"/><path fill="none" stroke="#263238" stroke-linecap="round" stroke-linejoin="round" stroke-miterlimit="20" d="M72.014 31.52h136.003a5.117 5.117 0 0 1 5.114 5.119v95.16H66.9v0-95.166a5.117 5.117 0 0 1 5.114-5.113z"/></g><g><path fill="#fff" d="M235.053 176.129H44.96L66.894 131.8h146.225l21.934 44.329z"/><path fill="none" stroke="#263238" stroke-linecap="round" stroke-linejoin="round" stroke-miterlimit="20" d="M235.053 176.129v0H44.96v0L66.894 131.8v0h146.225v0l21.934 44.329v0z"/></g><g><path fill="#adc7f7" d="M75.75 39.46h128.513v84.4H75.75z"/><path fill="none" stroke="#263238" stroke-linecap="round" stroke-linejoin="round" stroke-miterlimit="20" d="M75.75 39.46v0h128.513v84.4H75.75v0z"/></g><g transform="rotate(-45 98.5 86.5)"><path fill="#263238" d="M98.604 104.485c10.037-.005 18.176-8.144 18.18-18.18.005-10.037-8.127-18.17-18.163-18.165-10.037.005-18.176 8.144-18.181 18.18-.004 10.037 8.128 18.17 18.164 18.165z"/></g><g transform="rotate(-45 140.5 86.5)"><path fill="#263238" d="M140.584 104.485c10.037-.005 18.176-8.144 18.18-18.18.005-10.037-8.127-18.17-18.163-18.165-10.037.005-18.176 8.144-18.181 18.18-.004 10.037 8.128 18.17 18.164 18.165z"/></g><g transform="rotate(-13.12 182.5 86.5)"><path fill="#263238" d="M182.571 104.48c10.033-.003 18.167-8.144 18.17-18.184.001-10.04-8.13-18.178-18.162-18.176-10.033.002-18.167 8.143-18.169 18.183-.002 10.04 8.13 18.178 18.161 18.176z"/></g><g><path fill="#fff" d="M86.13 81.675S94.135 59.79 98.84 59.79c4.707 0 12.994 21.627 12.994 21.627l-1.401.125s-8.137-18.954-10.55-20.123c-2.412-1.17-6.867 5.722-12.333 20.23z"/><path fill="none" stroke="#263238" stroke-linecap="round" stroke-linejoin="round" stroke-miterlimit="20" d="M86.13 81.675v0S94.135 59.79 98.84 59.79c4.707 0 12.994 21.627 12.994 21.627v0l-1.401.125v0s-8.137-18.954-10.55-20.123c-2.412-1.17-6.867 5.722-12.333 20.23z"/></g><g><path fill="#fff" d="M86.948 80.4h24.058a2.715 2.715 0 0 1 2.714 2.717v12.917a2.177 2.177 0 0 1-2.174 2.175H86.414c-1.2 0-2.174-.974-2.174-2.175V83.123a2.718 2.718 0 0 1 2.708-2.723z"/><path fill="none" stroke="#263238" stroke-linecap="round" stroke-linejoin="round" stroke-miterlimit="20" d="M86.948 80.4v0h24.058a2.715 2.715 0 0 1 2.714 2.717v12.917a2.177 2.177 0 0 1-2.174 2.175H86.414c-1.2 0-2.174-.974-2.174-2.175V83.123a2.718 2.718 0 0 1 2.708-2.723z"/></g><g><path fill="#fff" d="M84.48 89.944h26.69"/><path fill="none" stroke="#263238" stroke-linecap="round" stroke-linejoin="round" stroke-miterlimit="20" d="M84.48 89.944h26.69"/></g><g><path fill="#fff" d="M112.322 81.04s-.628.767-.628 2.93c0 2.164-.76 13.615-.629 14.119.132.503.893.132.893.132"/><path fill="none" stroke="#263238" stroke-linecap="round" stroke-linejoin="round" stroke-miterlimit="20" d="M112.322 81.04v0s-.628.767-.628 2.93c0 2.164-.76 13.615-.629 14.119.132.503.893.132.893.132v0"/></g><g><path fill="#fff" d="M96.81 87.4h2.036v4.578H96.81z"/><path fill="none" stroke="#263238" stroke-linecap="round" stroke-linejoin="round" stroke-miterlimit="20" d="M96.81 87.4v0h2.036v4.578H96.81v0z"/></g><g><path fill="#fff" d="M124.7 75.682s8.488-.742 18.453-.742 14.646.629 14.765 1.258c.12.629-1.35 8.621-1.35 9.357 0 .736 0 11.087-.246 11.703-.245.617-1.357 1.107-1.847 1.227-.49.12-26.332.37-27.067.37a1.477 1.477 0 0 1-1.357-1.477c0-.736.37-8.867-.245-11.823-.616-2.955-1.106-9.873-1.106-9.873z"/><path fill="none" stroke="#263238" stroke-linecap="round" stroke-linejoin="round" stroke-miterlimit="20" d="M124.7 75.682v0s8.488-.742 18.453-.742 14.646.629 14.765 1.258c.12.629-1.35 8.621-1.35 9.357 0 .736 0 11.087-.246 11.703-.245.617-1.357 1.107-1.847 1.227-.49.12-26.332.37-27.067.37a1.477 1.477 0 0 1-1.357-1.477c0-.736.37-8.867-.245-11.823-.616-2.955-1.106-9.873-1.106-9.873z"/></g><g><path fill="#fff" d="M133.825 79.74s-.125-9.73.861-13.056a6.912 6.912 0 0 1 6.522-4.924 9.138 9.138 0 0 1 8.218 6.785c1.257 4.799.245 10.836.126 11.452-.12.616-1.477 2.34-1.728-.987-.252-3.327.251-11.08-.735-13.3a5.86 5.86 0 0 0-6.396-3.202c-2.59.63-3.94 1.723-4.43 4.924-.49 3.201.49 10.597-.126 12.194-.615 1.597-2.092 2.327-2.312.113z"/><path fill="none" stroke="#263238" stroke-linecap="round" stroke-linejoin="round" stroke-miterlimit="20" d="M133.825 79.74s-.125-9.73.861-13.056a6.912 6.912 0 0 1 6.522-4.924 9.138 9.138 0 0 1 8.218 6.785c1.257 4.799.245 10.836.126 11.452-.12.616-1.477 2.34-1.728-.987-.252-3.327.251-11.08-.735-13.3a5.86 5.86 0 0 0-6.396-3.202c-2.59.63-3.94 1.723-4.43 4.924-.49 3.201.49 10.597-.126 12.194-.615 1.597-2.092 2.327-2.312.113z"/></g><g><path fill="#fff" d="M127.034 75.8s-.628 6.528-.628 8.993c0 2.465-.126 4.062-.126 4.062"/><path fill="none" stroke="#263238" stroke-linecap="round" stroke-linejoin="round" stroke-miterlimit="20" d="M127.034 75.8v0s-.628 6.528-.628 8.993c0 2.465-.126 4.062-.126 4.062v0"/></g><g><path fill="none" stroke="#263238" stroke-linecap="round" stroke-linejoin="round" stroke-miterlimit="20" d="M155.818 75.92s.252 6.528.252 10.345"/></g><g><path fill="#fff" d="M187.548 74.668a.628.628 0 0 1-.628-.541c-1.213-7.59-2.733-15.96-3.512-18.678-1.15 2.566-3.676 10.735-5.768 18.162a.652.652 0 1 1-1.257-.346c0-.05 1.345-4.785 2.803-9.508 3.034-9.848 3.606-10.062 4.059-10.207a.747.747 0 0 1 .678.1c.333.246.792.58 2.601 10.591.874 4.83 1.64 9.634 1.646 9.685a.63.63 0 0 1-.622.742z"/><path fill="none" stroke="#263238" stroke-linecap="round" stroke-linejoin="round" stroke-miterlimit="20" d="M187.548 74.668a.628.628 0 0 1-.628-.541c-1.213-7.59-2.733-15.96-3.512-18.678-1.15 2.566-3.676 10.735-5.768 18.162a.652.652 0 1 1-1.257-.346c0-.05 1.345-4.785 2.803-9.508 3.034-9.848 3.606-10.062 4.059-10.207a.747.747 0 0 1 .678.1c.333.246.792.58 2.601 10.591.874 4.83 1.64 9.634 1.646 9.685a.63.63 0 0 1-.622.742z"/></g><g><path fill="#fff" d="M167.16 72.562s12.51-.767 16.82-.597c4.31.17 11.969.628 11.937 1.125-.031.497-.182 16.35-.628 19.495-.446 3.144-2.69 7.094-4.637 7.817-1.948.723-8.494.459-11.85.32-3.355-.138-6.377-.578-7.885-2.722-1.508-2.145-2.588-11.15-2.588-11.15z"/><path fill="none" stroke="#263238" stroke-linecap="round" stroke-linejoin="round" stroke-miterlimit="20" d="M167.16 72.562v0s12.51-.767 16.82-.597c4.31.17 11.969.628 11.937 1.125-.031.497-.182 16.35-.628 19.495-.446 3.144-2.69 7.094-4.637 7.817-1.948.723-8.494.459-11.85.32-3.355-.138-6.377-.578-7.885-2.722-1.508-2.145-2.588-11.15-2.588-11.15v0z"/></g><g><path fill="#fff" d="M177.103 76.007a1.257 1.257 0 1 0-2.514-.06 1.257 1.257 0 0 0 2.514.06z"/><path fill="none" stroke="#263238" stroke-linecap="round" stroke-linejoin="round" stroke-miterlimit="20" d="M177.103 76.007a1.257 1.257 0 1 0-2.514-.06 1.257 1.257 0 0 0 2.514.06z"/></g><g transform="rotate(-80.56 188 76.5)"><path fill="#fff" d="M187.786 77.871a1.276 1.276 0 1 0 0-2.553 1.276 1.276 0 0 0 0 2.553z"/><path fill="none" stroke="#263238" stroke-linecap="round" stroke-linejoin="round" stroke-miterlimit="20" d="M187.786 77.871a1.276 1.276 0 1 0 0-2.553 1.276 1.276 0 0 0 0 2.553z"/></g><g><path fill="#fff" d="M169.35 93.63s8.985-.762 25.427.068"/><path fill="none" stroke="#263238" stroke-linecap="round" stroke-linejoin="round" stroke-miterlimit="20" d="M169.35 93.63s8.985-.762 25.427.068"/></g><g><path fill="#263238" d="M77.75 41.95h124.096v10.1H77.75z"/></g><g><path fill="none" stroke="#fff" stroke-miterlimit="20" stroke-width="2" d="M137.93 47.704h12.302"/></g><g><path fill="none" stroke="#fff" stroke-miterlimit="20" stroke-width="2" d="M164.46 47.704h12.302"/></g><g><path fill="#fff" d="M197.05 46.321v-1.327h.352zm-5.875-1.327h.857v2.262h-.118zm2.373 2.262h-.984v-2.262h.965zm.511-2.262h.974v2.262h-.974zm2.463 2.262h-.967v-2.262h.967zm-1.056 2.537a.388.388 0 0 1 .078-.42.375.375 0 0 1 .413-.087c.142.06.235.2.235.355a.38.38 0 0 1-.107.271.378.378 0 0 1-.62-.12zm-2.77 0a.384.384 0 1 1 .705-.303.384.384 0 0 1-.706.303zm5.259-5.22a.251.251 0 0 0-.208-.107h-6.741l-.258-.78a.264.264 0 0 0-.251-.176h-1.71a.258.258 0 0 0-.257.258.258.258 0 0 0 .258.264h1.52l1.646 4.95a.264.264 0 0 0 .252.175h.094a.931.931 0 0 0-.145.484.906.906 0 1 0 1.804 0c0-.172-.05-.34-.145-.484h1.257a.925.925 0 0 0-.138.484.906.906 0 1 0 1.803 0 .931.931 0 0 0-.145-.484h.201a.264.264 0 0 0 .264-.264.258.258 0 0 0-.264-.258h-4.398l-.289-.868h4.9a.258.258 0 0 0 .252-.188l.748-2.78a.264.264 0 0 0-.05-.226z"/></g><g><path fill="#fff" d="M199.982 44.41a1.918 1.918 0 0 0-3.26-1.4 1.92 1.92 0 0 0 1.344 3.286 1.923 1.923 0 0 0 1.916-1.886z"/></g><g><path fill="#263238" d="M197.287 45.59a.233.233 0 0 1-.088-.145.39.39 0 0 1 .1-.352l.88-.862a.44.44 0 0 0 .176-.32.245.245 0 0 0-.1-.202.377.377 0 0 0-.24-.075H197.802l-.088.038-.094.056-.082.044a.157.157 0 0 1-.107 0 .188.188 0 0 1-.107-.069.434.434 0 0 1-.063-.12.189.189 0 0 1 0-.132.214.214 0 0 1 .101-.113 1.4 1.4 0 0 1 .78-.207.823.823 0 0 1 .577.22.667.667 0 0 1 .22.503c0 .136-.035.27-.1.39a1.22 1.22 0 0 1-.315.37l-.672.535h.88a.132.132 0 0 1 .119.07.308.308 0 0 1 .044.157.378.378 0 0 1-.044.17.144.144 0 0 1-.12.069h-1.256a.226.226 0 0 1-.188-.025z"/></g><g><path fill="#fff" d="M127.798 50.026H82.372a3.02 3.02 0 0 1-3.022-3.031 3.023 3.023 0 0 1 3.022-3.025h45.426a3.023 3.023 0 0 1 3.022 3.025 3.026 3.026 0 0 1-3.022 3.031z"/></g><g><path fill="none" stroke="#263238" stroke-linecap="round" stroke-linejoin="round" stroke-miterlimit="20" stroke-width="2" d="M89.29 110.154h18.598"/></g><g><path fill="none" stroke="#263238" stroke-linecap="round" stroke-linejoin="round" stroke-miterlimit="20" stroke-width="2" d="M89.29 113.684h18.598"/></g><g><path fill="none" stroke="#263238" stroke-linecap="round" stroke-linejoin="round" stroke-miterlimit="20" stroke-width="2" d="M131.29 110.154h18.604"/></g><g><path fill="none" stroke="#263238" stroke-linecap="round" stroke-linejoin="round" stroke-miterlimit="20" stroke-width="2" d="M131.29 113.684h18.604"/></g><g><path fill="none" stroke="#263238" stroke-linecap="round" stroke-linejoin="round" stroke-miterlimit="20" stroke-width="2" d="M173.3 110.154h18.598"/></g><g><path fill="none" stroke="#263238" stroke-linecap="round" stroke-linejoin="round" stroke-miterlimit="20" stroke-width="2" d="M173.3 113.684h18.598"/></g><g><path fill="#263238" d="M133.906 145.832l.251-5.402h-7.722l-.515 5.402h7.986z"/><path fill="none" stroke="#fff" stroke-linecap="round" stroke-linejoin="round" stroke-miterlimit="20" d="M133.906 145.832v0l.251-5.402v0h-7.722v0l-.515 5.402v0h7.986v0z"/></g><g><path fill="#263238" d="M149.882 145.832l-.264-5.402h-7.728l.006 5.402h7.986z"/><path fill="none" stroke="#fff" stroke-linecap="round" stroke-linejoin="round" stroke-miterlimit="20" d="M149.882 145.832v0l-.264-5.402v0h-7.728v0l.006 5.402v0h7.986v0z"/></g><g><path fill="#263238" d="M191.465 151.603h8.256l-1.935-5.773H189.8l1.665 5.773z"/><path fill="none" stroke="#fff" stroke-linecap="round" stroke-linejoin="round" stroke-miterlimit="20" d="M191.465 151.603v0h8.256v0l-1.935-5.773v0H189.8v0l1.665 5.773v0z"/></g><g><path fill="#263238" d="M125.92 145.832l.515-5.402h-7.728l-.767 5.402h7.98z"/><path fill="none" stroke="#fff" stroke-linecap="round" stroke-linejoin="round" stroke-miterlimit="20" d="M125.92 145.832v0l.515-5.402v0h-7.728v0l-.767 5.402v0h7.98v0z"/></g><g><path fill="#263238" d="M109.956 145.832l1.024-5.402h-7.722l-1.288 5.402h7.986z"/><path fill="none" stroke="#fff" stroke-linecap="round" stroke-linejoin="round" stroke-miterlimit="20" d="M109.956 145.832v0l1.024-5.402v0h-7.722v0l-1.288 5.402v0h7.986v0z"/></g><g><path fill="#263238" d="M181.822 145.832l-1.294-5.402H172.8l1.037 5.402h7.985z"/><path fill="none" stroke="#fff" stroke-linecap="round" stroke-linejoin="round" stroke-miterlimit="20" d="M181.822 145.832v0l-1.294-5.402v0H172.8v0l1.037 5.402v0h7.985v0z"/></g><g><path fill="#263238" d="M189.8 145.832l-1.558-5.402h-7.722l1.294 5.402h7.986z"/><path fill="none" stroke="#fff" stroke-linecap="round" stroke-linejoin="round" stroke-miterlimit="20" d="M189.8 145.832v0l-1.558-5.402v0h-7.722v0l1.294 5.402v0h7.986v0z"/></g><g><path fill="#263238" d="M101.976 145.832l1.288-5.402h-7.728l-1.546 5.402h7.986z"/><path fill="none" stroke="#fff" stroke-linecap="round" stroke-linejoin="round" stroke-miterlimit="20" d="M101.976 145.832v0l1.288-5.402v0h-7.728v0l-1.546 5.402v0h7.986v0z"/></g><g><path fill="#263238" d="M157.87 145.832l-.522-5.402h-7.728l.264 5.402h7.986z"/><path fill="none" stroke="#fff" stroke-linecap="round" stroke-linejoin="round" stroke-miterlimit="20" d="M157.87 145.832v0l-.522-5.402v0h-7.728v0l.264 5.402v0h7.986v0z"/></g><g><path fill="#263238" d="M197.794 145.832l-1.816-5.402h-7.728l1.558 5.402h7.986z"/><path fill="none" stroke="#fff" stroke-linecap="round" stroke-linejoin="round" stroke-miterlimit="20" d="M197.794 145.832v0l-1.816-5.402v0h-7.728v0l1.558 5.402v0h7.986v0z"/></g><g><path fill="#263238" d="M173.835 145.832l-1.037-5.402h-7.728l.78 5.402h7.985z"/><path fill="none" stroke="#fff" stroke-linecap="round" stroke-linejoin="round" stroke-miterlimit="20" d="M173.835 145.832v0l-1.037-5.402v0h-7.728v0l.78 5.402v0h7.985v0z"/></g><g><path fill="#263238" d="M165.85 145.832l-.778-5.402h-7.722l.521 5.402h7.98z"/><path fill="none" stroke="#fff" stroke-linecap="round" stroke-linejoin="round" stroke-miterlimit="20" d="M165.85 145.832v0l-.778-5.402v0h-7.722v0l.521 5.402v0h7.98v0z"/></g><g><path fill="#263238" d="M141.896 145.832l-.007-5.402h-7.728l-.251 5.402h7.986z"/><path fill="none" stroke="#fff" stroke-linecap="round" stroke-linejoin="round" stroke-miterlimit="20" d="M141.896 145.832v0l-.007-5.402v0h-7.728v0l-.251 5.402v0h7.986v0z"/></g><g><path fill="#263238" d="M86.001 145.83h-7.986l-2.205 5.773h8.262l1.93-5.773z"/><path fill="none" stroke="#fff" stroke-linecap="round" stroke-linejoin="round" stroke-miterlimit="20" d="M86.001 145.83v0h-7.986v0l-2.205 5.773v0h8.262v0l1.93-5.773v0z"/></g><g><path fill="#263238" d="M87.809 140.43h-7.722l-2.067 5.402h7.986l1.803-5.402z"/><path fill="none" stroke="#fff" stroke-linecap="round" stroke-linejoin="round" stroke-miterlimit="20" d="M87.809 140.43v0h-7.722v0l-2.067 5.402v0h7.986v0l1.803-5.402v0z"/></g><g><path fill="#263238" d="M93.986 145.832l1.545-5.402h-7.728L86 145.832h7.986z"/><path fill="none" stroke="#fff" stroke-linecap="round" stroke-linejoin="round" stroke-miterlimit="20" d="M93.986 145.832v0l1.545-5.402v0h-7.728v0L86 145.832v0h7.986v0z"/></g><g><path fill="#263238" d="M73.448 157.8l-2.538 6.653h8.878l2.218-6.653h-8.558z"/><path fill="none" stroke="#fff" stroke-linecap="round" stroke-linejoin="round" stroke-miterlimit="20" d="M73.448 157.8v0l-2.538 6.653v0h8.878v0l2.218-6.653v0h-8.558v0z"/></g><g><path fill="#263238" d="M84.075 151.61h-8.263l-2.362 6.188h8.557l2.068-6.188z"/><path fill="none" stroke="#fff" stroke-linecap="round" stroke-linejoin="round" stroke-miterlimit="20" d="M84.075 151.61v0h-8.263v0l-2.362 6.188v0h8.557v0l2.068-6.188v0z"/></g><g><path fill="#263238" d="M82.008 157.8l-2.218 6.653h8.878l1.897-6.653h-8.557z"/><path fill="none" stroke="#fff" stroke-linecap="round" stroke-linejoin="round" stroke-miterlimit="20" d="M82.008 157.8v0l-2.218 6.653v0h8.878v0l1.897-6.653v0h-8.557v0z"/></g><g><path fill="#263238" d="M117.946 145.832l.766-5.402h-7.728l-1.024 5.402h7.986z"/><path fill="none" stroke="#fff" stroke-linecap="round" stroke-linejoin="round" stroke-miterlimit="20" d="M117.946 145.832v0l.766-5.402v0h-7.728v0l-1.024 5.402v0h7.986v0z"/></g><g><path fill="#263238" d="M117.116 151.603l.83-5.773h-7.986l-1.1 5.773h8.256z"/><path fill="none" stroke="#fff" stroke-linecap="round" stroke-linejoin="round" stroke-miterlimit="20" d="M117.116 151.603v0l.83-5.773v0h-7.986v0l-1.1 5.773v0h8.256v0z"/></g><g><path fill="#263238" d="M108.862 151.603l1.1-5.773h-7.986l-1.376 5.773h8.262z"/><path fill="none" stroke="#fff" stroke-linecap="round" stroke-linejoin="round" stroke-miterlimit="20" d="M108.862 151.603v0l1.1-5.773v0h-7.986v0l-1.376 5.773v0h8.262v0z"/></g><g><path fill="#263238" d="M125.382 151.603l.547-5.773h-7.98l-.829 5.773h8.262z"/><path fill="none" stroke="#fff" stroke-linecap="round" stroke-linejoin="round" stroke-miterlimit="20" d="M125.382 151.603v0l.547-5.773v0h-7.98v0l-.829 5.773v0h8.262v0z"/></g><g><path fill="#263238" d="M93.985 145.83h-7.986l-1.929 5.773h8.262l1.653-5.773z"/><path fill="none" stroke="#fff" stroke-linecap="round" stroke-linejoin="round" stroke-miterlimit="20" d="M93.985 145.83v0h-7.986v0l-1.929 5.773v0h8.262v0l1.653-5.773v0z"/></g><g><path fill="#263238" d="M193.248 157.798h8.558l-2.08-6.188h-8.256l1.778 6.188z"/><path fill="none" stroke="#fff" stroke-linecap="round" stroke-linejoin="round" stroke-miterlimit="20" d="M193.248 157.798v0h8.558v0l-2.08-6.188v0h-8.256v0l1.778 6.188v0z"/></g><g><path fill="#263238" d="M100.602 151.603l1.376-5.773h-7.986l-1.652 5.773h8.262z"/><path fill="none" stroke="#fff" stroke-linecap="round" stroke-linejoin="round" stroke-miterlimit="20" d="M100.602 151.603v0l1.376-5.773v0h-7.986v0l-1.652 5.773v0h8.262v0z"/></g><g><path fill="#263238" d="M84.077 151.61l-2.067 6.188h8.557l1.772-6.188h-8.262z"/><path fill="none" stroke="#fff" stroke-linecap="round" stroke-linejoin="round" stroke-miterlimit="20" d="M84.077 151.61v0l-2.067 6.188v0h8.557v0l1.772-6.188v0h-8.262v0z"/></g><g><path fill="#263238" d="M174.948 151.603l-1.112-5.773h-7.986l.836 5.773h8.262z"/><path fill="none" stroke="#fff" stroke-linecap="round" stroke-linejoin="round" stroke-miterlimit="20" d="M174.948 151.603v0l-1.112-5.773v0h-7.986v0l.836 5.773v0h8.262v0z"/></g><g><path fill="#263238" d="M166.685 151.603l-.836-5.773h-7.979l.553 5.773h8.262z"/><path fill="none" stroke="#fff" stroke-linecap="round" stroke-linejoin="round" stroke-miterlimit="20" d="M166.685 151.603v0l-.836-5.773v0h-7.979v0l.553 5.773v0h8.262v0z"/></g><g><path fill="#263238" d="M191.47 151.603l-1.664-5.773h-7.986l1.389 5.773h8.262z"/><path fill="none" stroke="#fff" stroke-linecap="round" stroke-linejoin="round" stroke-miterlimit="20" d="M191.47 151.603v0l-1.664-5.773v0h-7.986v0l1.389 5.773v0h8.262v0z"/></g><g><path fill="#263238" d="M141.902 151.603l-.006-5.773h-7.986l-.27 5.773h8.262z"/><path fill="none" stroke="#fff" stroke-linecap="round" stroke-linejoin="round" stroke-miterlimit="20" d="M141.902 151.603v0l-.006-5.773v0h-7.986v0l-.27 5.773v0h8.262v0z"/></g><g><path fill="#263238" d="M158.419 151.603l-.553-5.773h-7.986l.283 5.773h8.256z"/><path fill="none" stroke="#fff" stroke-linecap="round" stroke-linejoin="round" stroke-miterlimit="20" d="M158.419 151.603v0l-.553-5.773v0h-7.986v0l.283 5.773v0h8.256v0z"/></g><g><path fill="#263238" d="M150.168 151.603l-.282-5.773H141.9l.006 5.773h8.262z"/><path fill="none" stroke="#fff" stroke-linecap="round" stroke-linejoin="round" stroke-miterlimit="20" d="M150.168 151.603v0l-.282-5.773v0H141.9v0l.006 5.773v0h8.262v0z"/></g><g><path fill="#263238" d="M133.642 151.603l.27-5.773h-7.985l-.547 5.773h8.262z"/><path fill="none" stroke="#fff" stroke-linecap="round" stroke-linejoin="round" stroke-miterlimit="20" d="M133.642 151.603v0l.27-5.773v0h-7.985v0l-.547 5.773v0h8.262v0z"/></g><g><path fill="#263238" d="M158.42 151.61l.603 6.188h8.551l-.892-6.188h-8.262z"/><path fill="none" stroke="#fff" stroke-linecap="round" stroke-linejoin="round" stroke-miterlimit="20" d="M158.42 151.61v0l.603 6.188v0h8.551v0l-.892-6.188v0h-8.262v0z"/></g><g><path fill="#263238" d="M166.68 151.61l.892 6.188h8.558l-1.188-6.188h-8.262z"/><path fill="none" stroke="#fff" stroke-linecap="round" stroke-linejoin="round" stroke-miterlimit="20" d="M166.68 151.61v0l.892 6.188v0h8.558v0l-1.188-6.188v0h-8.262v0z"/></g><g><path fill="#263238" d="M92.332 151.61l-1.772 6.188h8.557l1.477-6.188h-8.262z"/><path fill="none" stroke="#fff" stroke-linecap="round" stroke-linejoin="round" stroke-miterlimit="20" d="M92.332 151.61v0l-1.772 6.188v0h8.557v0l1.477-6.188v0h-8.262v0z"/></g><g><path fill="#263238" d="M174.94 151.61l1.187 6.188h8.558l-1.483-6.188h-8.262z"/><path fill="none" stroke="#fff" stroke-linecap="round" stroke-linejoin="round" stroke-miterlimit="20" d="M174.94 151.61v0l1.187 6.188v0h8.558v0l-1.483-6.188v0h-8.262v0z"/></g><g><path fill="#263238" d="M141.9 151.61l.006 6.188h8.558l-.302-6.188H141.9z"/><path fill="none" stroke="#fff" stroke-linecap="round" stroke-linejoin="round" stroke-miterlimit="20" d="M141.9 151.61v0l.006 6.188v0h8.558v0l-.302-6.188v0H141.9v0z"/></g><g><path fill="#263238" d="M183.21 151.61l1.483 6.188h8.557l-1.778-6.188h-8.262z"/><path fill="none" stroke="#fff" stroke-linecap="round" stroke-linejoin="round" stroke-miterlimit="20" d="M183.21 151.61v0l1.483 6.188v0h8.557v0l-1.778-6.188v0h-8.262v0z"/></g><g><path fill="#263238" d="M150.16 151.61l.302 6.188h8.557l-.603-6.188h-8.256z"/><path fill="none" stroke="#fff" stroke-linecap="round" stroke-linejoin="round" stroke-miterlimit="20" d="M150.16 151.61v0l.302 6.188v0h8.557v0l-.603-6.188v0h-8.256v0z"/></g><g><path fill="#263238" d="M108.861 151.61l-1.181 6.188h8.557l.88-6.188h-8.256z"/><path fill="none" stroke="#fff" stroke-linecap="round" stroke-linejoin="round" stroke-miterlimit="20" d="M108.861 151.61v0l-1.181 6.188v0h8.557v0l.88-6.188v0h-8.256v0z"/></g><g><path fill="#263238" d="M100.597 151.61l-1.477 6.188h8.557l1.182-6.188h-8.262z"/><path fill="none" stroke="#fff" stroke-linecap="round" stroke-linejoin="round" stroke-miterlimit="20" d="M100.597 151.61v0l-1.477 6.188v0h8.557v0l1.182-6.188v0h-8.262v0z"/></g><g><path fill="#263238" d="M133.639 151.61l-.289 6.188h8.557l-.006-6.188h-8.262z"/><path fill="none" stroke="#fff" stroke-linecap="round" stroke-linejoin="round" stroke-miterlimit="20" d="M133.639 151.61v0l-.289 6.188v0h8.557v0l-.006-6.188v0h-8.262v0z"/></g><g><path fill="#263238" d="M125.374 151.61l-.584 6.188h8.557l.29-6.188h-8.263z"/><path fill="none" stroke="#fff" stroke-linecap="round" stroke-linejoin="round" stroke-miterlimit="20" d="M125.374 151.61v0l-.584 6.188v0h8.557v0l.29-6.188v0h-8.263v0z"/></g><g><path fill="#263238" d="M117.12 151.61l-.88 6.188h8.557l.585-6.188h-8.262z"/><path fill="none" stroke="#fff" stroke-linecap="round" stroke-linejoin="round" stroke-miterlimit="20" d="M117.12 151.61v0l-.88 6.188v0h8.557v0l.585-6.188v0h-8.262v0z"/></g><g><path fill="#263238" d="M183.204 151.603l-1.388-5.773h-7.986l1.112 5.773h8.262z"/><path fill="none" stroke="#fff" stroke-linecap="round" stroke-linejoin="round" stroke-miterlimit="20" d="M183.204 151.603v0l-1.388-5.773v0h-7.986v0l1.112 5.773v0h8.262v0z"/></g><g><path fill="#263238" d="M87.802 140.434l1.847-5.534h-7.464l-2.105 5.534h7.722z"/><path fill="none" stroke="#fff" stroke-linecap="round" stroke-linejoin="round" stroke-miterlimit="20" d="M87.802 140.434v0l1.847-5.534v0h-7.464v0l-2.105 5.534v0h7.722v0z"/></g><g><path fill="#263238" d="M80.087 140.43H72.95l-2.3 5.402h7.37l2.067-5.402z"/><path fill="none" stroke="#fff" stroke-linecap="round" stroke-linejoin="round" stroke-miterlimit="20" d="M80.087 140.43v0H72.95v0l-2.3 5.402v0h7.37v0l2.067-5.402v0z"/></g><g><path fill="#263238" d="M82.192 134.9h-6.886l-2.356 5.534h7.138l2.104-5.534z"/><path fill="none" stroke="#fff" stroke-linecap="round" stroke-linejoin="round" stroke-miterlimit="20" d="M82.192 134.9v0h-6.886v0l-2.356 5.534v0h7.138v0l2.104-5.534v0z"/></g><g><path fill="#263238" d="M78.017 145.83h-7.37l-2.457 5.773h7.621l2.206-5.773z"/><path fill="none" stroke="#fff" stroke-linecap="round" stroke-linejoin="round" stroke-miterlimit="20" d="M78.017 145.83v0h-7.37v0l-2.457 5.773v0h7.621v0l2.206-5.773v0z"/></g><g><path fill="#263238" d="M75.81 151.61H68.19l-2.639 6.188h7.898l2.362-6.188z"/><path fill="none" stroke="#fff" stroke-linecap="round" stroke-linejoin="round" stroke-miterlimit="20" d="M75.81 151.61v0H68.19v0l-2.639 6.188v0h7.898v0l2.362-6.188v0z"/></g><g><path fill="#263238" d="M73.451 157.8h-7.897l-2.834 6.653h8.193l2.538-6.653z"/><path fill="none" stroke="#fff" stroke-linecap="round" stroke-linejoin="round" stroke-miterlimit="20" d="M73.451 157.8v0h-7.897v0l-2.834 6.653v0h8.193v0l2.538-6.653v0z"/></g><g><path fill="#263238" d="M205.77 145.83l2.218 5.773h7.307l-2.457-5.773h-7.068z"/><path fill="none" stroke="#fff" stroke-linecap="round" stroke-linejoin="round" stroke-miterlimit="20" d="M205.77 145.83v0l2.218 5.773v0h7.307v0l-2.457-5.773v0h-7.068v0z"/></g><g><path fill="#263238" d="M210.365 157.798h7.571l-2.639-6.188h-7.307l2.375 6.188z"/><path fill="none" stroke="#fff" stroke-linecap="round" stroke-linejoin="round" stroke-miterlimit="20" d="M210.365 157.798v0h7.571v0l-2.639-6.188v0h-7.307v0l2.375 6.188v0z"/></g><g><path fill="#263238" d="M212.91 164.453h7.855l-2.834-6.653h-7.571l2.55 6.653z"/><path fill="none" stroke="#fff" stroke-linecap="round" stroke-linejoin="round" stroke-miterlimit="20" d="M212.91 164.453v0h7.855v0l-2.834-6.653v0h-7.571v0l2.55 6.653v0z"/></g><g><path fill="#263238" d="M149.614 140.434l-.27-5.534h-7.464l.006 5.534h7.728z"/><path fill="none" stroke="#fff" stroke-linecap="round" stroke-linejoin="round" stroke-miterlimit="20" d="M149.614 140.434v0l-.27-5.534v0h-7.464v0l.006 5.534v0h7.728v0z"/></g><g><path fill="#263238" d="M205.767 145.832h7.069l-2.3-5.402H203.7l2.067 5.402z"/><path fill="none" stroke="#fff" stroke-linecap="round" stroke-linejoin="round" stroke-miterlimit="20" d="M205.767 145.832v0h7.069v0l-2.3-5.402v0H203.7v0l2.067 5.402v0z"/></g><g><path fill="#263238" d="M201.8 157.798h8.557l-2.375-6.188h-8.262l2.08 6.188z"/><path fill="none" stroke="#fff" stroke-linecap="round" stroke-linejoin="round" stroke-miterlimit="20" d="M201.8 157.798v0h8.557v0l-2.375-6.188v0h-8.262v0l2.08 6.188v0z"/></g><g><path fill="#263238" d="M95.538 140.434l1.583-5.534h-7.464l-1.847 5.534h7.728z"/><path fill="none" stroke="#fff" stroke-linecap="round" stroke-linejoin="round" stroke-miterlimit="20" d="M95.538 140.434v0l1.583-5.534v0h-7.464v0l-1.847 5.534v0h7.728v0z"/></g><g><path fill="#263238" d="M195.97 140.43l1.816 5.402h7.98l-2.068-5.402h-7.728z"/><path fill="none" stroke="#fff" stroke-linecap="round" stroke-linejoin="round" stroke-miterlimit="20" d="M195.97 140.43v0l1.816 5.402v0h7.98v0l-2.068-5.402v0h-7.728v0z"/></g><g><path fill="#263238" d="M210.54 140.434l-2.357-5.534h-6.603l2.124 5.534h6.836z"/><path fill="none" stroke="#fff" stroke-linecap="round" stroke-linejoin="round" stroke-miterlimit="20" d="M210.54 140.434v0l-2.357-5.534v0h-6.603v0l2.124 5.534v0h6.836v0z"/></g><g><path fill="#263238" d="M203.702 140.434l-2.124-5.534h-7.458l1.853 5.534h7.729z"/><path fill="none" stroke="#fff" stroke-linecap="round" stroke-linejoin="round" stroke-miterlimit="20" d="M203.702 140.434v0l-2.124-5.534v0h-7.458v0l1.853 5.534v0h7.729v0z"/></g><g><path fill="#263238" d="M176.13 157.8l1.282 6.653h8.871l-1.596-6.653h-8.557z"/><path fill="none" stroke="#fff" stroke-linecap="round" stroke-linejoin="round" stroke-miterlimit="20" d="M176.13 157.8v0l1.282 6.653v0h8.871v0l-1.596-6.653v0h-8.557v0z"/></g><g><path fill="#263238" d="M204.03 164.453h8.878l-2.55-6.653H201.8l2.23 6.653z"/><path fill="none" stroke="#fff" stroke-linecap="round" stroke-linejoin="round" stroke-miterlimit="20" d="M204.03 164.453v0h8.878v0l-2.55-6.653v0H201.8v0l2.23 6.653v0z"/></g><g><path fill="#263238" d="M195.978 140.434l-1.854-5.534h-7.464l1.59 5.534h7.728z"/><path fill="none" stroke="#fff" stroke-linecap="round" stroke-linejoin="round" stroke-miterlimit="20" d="M195.978 140.434v0l-1.854-5.534v0h-7.464v0l1.59 5.534v0h7.728v0z"/></g><g><path fill="#263238" d="M193.25 157.8l1.916 6.653h8.872l-2.23-6.653h-8.558z"/><path fill="none" stroke="#fff" stroke-linecap="round" stroke-linejoin="round" stroke-miterlimit="20" d="M193.25 157.8v0l1.916 6.653v0h8.872v0l-2.23-6.653v0h-8.558v0z"/></g><g><path fill="#263238" d="M184.69 157.8l1.596 6.653h8.878l-1.917-6.653h-8.557z"/><path fill="none" stroke="#fff" stroke-linecap="round" stroke-linejoin="round" stroke-miterlimit="20" d="M184.69 157.8v0l1.596 6.653v0h8.878v0l-1.917-6.653v0h-8.557v0z"/></g><g><path fill="#263238" d="M199.725 151.603h8.262l-2.218-5.773h-7.979l1.935 5.773z"/><path fill="none" stroke="#fff" stroke-linecap="round" stroke-linejoin="round" stroke-miterlimit="20" d="M199.725 151.603v0h8.262v0l-2.218-5.773v0h-7.979v0l1.935 5.773v0z"/></g><g><path fill="#263238" d="M126.438 140.434l.522-5.534h-7.465l-.785 5.534h7.728z"/><path fill="none" stroke="#fff" stroke-linecap="round" stroke-linejoin="round" stroke-miterlimit="20" d="M126.438 140.434v0l.522-5.534v0h-7.465v0l-.785 5.534v0h7.728v0z"/></g><g><path fill="#263238" d="M188.244 140.434l-1.59-5.534h-7.464l1.332 5.534h7.722z"/><path fill="none" stroke="#fff" stroke-linecap="round" stroke-linejoin="round" stroke-miterlimit="20" d="M188.244 140.434v0l-1.59-5.534v0h-7.464v0l1.332 5.534v0h7.722v0z"/></g><g><path fill="#263238" d="M118.708 140.434l.785-5.534h-7.457l-1.056 5.534h7.728z"/><path fill="none" stroke="#fff" stroke-linecap="round" stroke-linejoin="round" stroke-miterlimit="20" d="M118.708 140.434v0l.785-5.534v0h-7.457v0l-1.056 5.534v0h7.728v0z"/></g><g><path fill="#263238" d="M141.888 140.434l-.006-5.534h-7.458l-.264 5.534h7.728z"/><path fill="none" stroke="#fff" stroke-linecap="round" stroke-linejoin="round" stroke-miterlimit="20" d="M141.888 140.434v0l-.006-5.534v0h-7.458v0l-.264 5.534v0h7.728v0z"/></g><g><path fill="#263238" d="M110.982 140.434l1.055-5.534h-7.464l-1.313 5.534h7.722z"/><path fill="none" stroke="#fff" stroke-linecap="round" stroke-linejoin="round" stroke-miterlimit="20" d="M110.982 140.434v0l1.055-5.534v0h-7.464v0l-1.313 5.534v0h7.722v0z"/></g><g><path fill="#263238" d="M103.258 140.434l1.313-5.534h-7.458l-1.583 5.534h7.728z"/><path fill="none" stroke="#fff" stroke-linecap="round" stroke-linejoin="round" stroke-miterlimit="20" d="M103.258 140.434v0l1.313-5.534v0h-7.458v0l-1.583 5.534v0h7.728v0z"/></g><g><path fill="#263238" d="M134.162 140.434l.264-5.534h-7.465l-.521 5.534h7.722z"/><path fill="none" stroke="#fff" stroke-linecap="round" stroke-linejoin="round" stroke-miterlimit="20" d="M134.162 140.434v0l.264-5.534v0h-7.465v0l-.521 5.534v0h7.722v0z"/></g><g><path fill="#263238" d="M180.52 140.434l-1.332-5.534h-7.458l1.062 5.534h7.728z"/><path fill="none" stroke="#fff" stroke-linecap="round" stroke-linejoin="round" stroke-miterlimit="20" d="M180.52 140.434v0l-1.332-5.534v0h-7.458v0l1.062 5.534v0h7.728v0z"/></g><g><path fill="#263238" d="M172.796 140.434l-1.062-5.534h-7.464l.798 5.534h7.728z"/><path fill="none" stroke="#fff" stroke-linecap="round" stroke-linejoin="round" stroke-miterlimit="20" d="M172.796 140.434v0l-1.062-5.534v0h-7.464v0l.798 5.534v0h7.728v0z"/></g><g><path fill="#263238" d="M157.348 140.434l-.54-5.534h-7.458l.27 5.534h7.728z"/><path fill="none" stroke="#fff" stroke-linecap="round" stroke-linejoin="round" stroke-miterlimit="20" d="M157.348 140.434v0l-.54-5.534v0h-7.458v0l.27 5.534v0h7.728v0z"/></g><g><path fill="#263238" d="M176.136 157.8H90.567l-1.897 6.653h88.748l-1.282-6.653z"/><path fill="none" stroke="#fff" stroke-linecap="round" stroke-linejoin="round" stroke-miterlimit="20" d="M176.136 157.8v0h-8.558v0h-8.55v0h-8.558v0h-8.558v0h-8.557v0h-8.558v0h-8.557v0h-8.558v0h-8.557v0h-8.558v0l-1.897 6.653v0h8.872v0h8.878v0h8.871v0h8.878v0h8.872v0h8.878v0h8.871v0h8.878v0h8.872v0h8.878v0l-1.282-6.653v0z"/></g><g><path fill="#263238" d="M165.072 140.434l-.798-5.534h-7.464l.54 5.534h7.722z"/><path fill="none" stroke="#fff" stroke-linecap="round" stroke-linejoin="round" stroke-miterlimit="20" d="M165.072 140.434v0l-.798-5.534v0h-7.464v0l.54 5.534v0h7.722v0z"/></g><g><path fill="#263238" d="M44.96 176.13h190.18v2.704H44.96z"/><path fill="none" stroke="#263238" stroke-linecap="round" stroke-linejoin="round" stroke-miterlimit="20" d="M44.96 176.13v0h190.18v2.704H44.96v0z"/></g></g></g></g></svg>