<svg xmlns="http://www.w3.org/2000/svg" width="121" height="110" viewBox="0 0 121 110"><g><g><g><g><path fill="#adc7f7" d="M114.743 68.35a65.709 65.709 0 0 0-2.518-11.31c-1.25-4.082-2.706-8.195-2.554-12.452.107-3 1.013-5.91 1.456-8.881.725-4.75.276-9.64-.973-14.287-.9-3.338-2.234-6.61-4.368-9.33-1.91-2.434-4.41-4.373-7.1-5.883C91.575 2.18 83.252.912 75.098.376c-7.828-.525-15.816-.43-23.35 1.749a35.648 35.648 0 0 0-21.88 18.03c-4.844 9.493-7.645 20.161-14.43 28.573-3.582 4.44-8.253 8.216-10.303 13.54-2.933 7.613.71 16.785 7.356 21.508 4.19 2.98 9.266 4.403 13.82 6.79 4.203 2.202 7.936 5.211 12.074 7.532 15.201 8.522 34.069 6.86 50.851 2.265 8.393-2.288 17.182-5.68 21.998-12.933 3.693-5.572 4.32-12.322 3.51-19.08z"/></g><g opacity=".8"><path fill="#fff" d="M114.743 68.35a65.709 65.709 0 0 0-2.518-11.31c-1.25-4.082-2.706-8.195-2.554-12.452.107-3 1.013-5.91 1.456-8.881.725-4.75.276-9.64-.973-14.287-.9-3.338-2.234-6.61-4.368-9.33-1.91-2.434-4.41-4.373-7.1-5.883C91.575 2.18 83.252.912 75.098.376c-7.828-.525-15.816-.43-23.35 1.749a35.648 35.648 0 0 0-21.88 18.03c-4.844 9.493-7.645 20.161-14.43 28.573-3.582 4.44-8.253 8.216-10.303 13.54-2.933 7.613.71 16.785 7.356 21.508 4.19 2.98 9.266 4.403 13.82 6.79 4.203 2.202 7.936 5.211 12.074 7.532 15.201 8.522 34.069 6.86 50.851 2.265 8.393-2.288 17.182-5.68 21.998-12.933 3.693-5.572 4.32-12.322 3.51-19.08z"/></g></g><g><g><path fill="#263238" d="M64.432 109.546c27.141 0 49.143-1.54 49.143-3.438 0-1.899-22.002-3.438-49.143-3.438-27.14 0-49.142 1.54-49.142 3.438 0 1.899 22.002 3.438 49.142 3.438z"/></g></g><g><g><path fill="#adc7f7" d="M34.937 80.745a69.435 69.435 0 0 1-.93-5.666c.222-.04 1.982-.385 2.666-.875.624-.44 1.294-1.167 1.32-1.984a1.355 1.355 0 0 0-1.407-1.458c-1.142.079-2.197 1.852-2.445 2.847-.014.064-.116.834-.16 1.231-.038-.327-.076-.65-.11-.989-.053-.49-.094-1.006-.135-1.508 0-.263-.026-.525-.038-.79-.011-.266 0-.526 0-.794 0-.391.03-.797.05-1.2.5-.022 1.967-.119 2.622-.451.656-.333 1.457-.966 1.606-1.75a1.36 1.36 0 0 0-1.166-1.643c-1.14-.093-2.453 1.5-2.844 2.445-.014.029-.076.239-.148.487.035-.394.067-.788.116-1.185.134-1.123.31-2.266.478-3.413l.102-.715c.42-.02 2.01-.108 2.701-.455.69-.347 1.457-.968 1.606-1.75a1.358 1.358 0 0 0-1.166-1.643c-1.142-.093-2.453 1.5-2.847 2.445 0 .032-.087.292-.169.56.085-.621.158-1.245.213-1.864.103-1.066.133-2.138.09-3.209.15 0 2.014-.073 2.783-.458.685-.341 1.457-.966 1.606-1.75a1.355 1.355 0 0 0-1.166-1.64c-1.142-.096-2.453 1.5-2.847 2.442-.029.067-.291.971-.37 1.295a.167.167 0 0 1 0-.038 17.815 17.815 0 0 0-.478-3.107c-.22-.911-.492-1.81-.816-2.69a31.333 31.333 0 0 0-1.346-3.15h.024c.02 0-.035-1.386-.047-1.459-.157-1.01-1.052-2.87-2.183-3.051a1.351 1.351 0 0 0-1.53 1.313c-.046.808.557 1.598 1.137 2.094.58.496 2.148.98 2.532 1.091.143.31.292.64.452 1.007.27.65.583 1.385.842 2.208.073.219.143.458.216.686a22.136 22.136 0 0 0-.519-.899c-.603-.825-2.255-2.065-3.34-1.704a1.353 1.353 0 0 0-.754 1.87c.33.739 1.23 1.167 1.975 1.334.746.166 2.407-.129 2.763-.199.151.51.291 1.039.414 1.599.22 1.006.35 2.03.39 3.06v.184a32.387 32.387 0 0 0-.562-1.316c-.51-.875-2.017-2.301-3.136-2.062a1.355 1.355 0 0 0-.955 1.78c.247.767 1.098 1.289 1.818 1.54.83.291 2.762.105 2.832.099a23.736 23.736 0 0 1-.154 3.092 45.316 45.316 0 0 1-.327 2.296 28.707 28.707 0 0 0-.556-1.295c-.507-.875-2.014-2.299-3.133-2.06a1.355 1.355 0 0 0-.955 1.777c.247.77 1.095 1.29 1.818 1.543.81.292 2.66.114 2.818.1-.059.346-.114.696-.172 1.047-.195 1.137-.394 2.28-.554 3.413-.058.394-.099.782-.14 1.167a30.17 30.17 0 0 0-.48-1.109c-.51-.875-2.017-2.302-3.136-2.06a1.355 1.355 0 0 0-.956 1.777c.248.77 1.096 1.29 1.819 1.543.722.254 2.281.143 2.721.108a27.281 27.281 0 0 0-.137 1.929c0 .274-.026.557 0 .82.026.262 0 .53.018.79.035.54.061 1.042.105 1.543.02.254.043.493.067.738a25.52 25.52 0 0 0-.292-1.097c-.37-.953-1.643-2.578-2.788-2.511a1.358 1.358 0 0 0-1.213 1.613c.129.796.875 1.441 1.562 1.8.746.394 2.538.51 2.757.525.058.601.122 1.187.19 1.733.215 1.733.457 3.165.64 4.169.184 1.003.315 1.572.315 1.572a.402.402 0 1 0 .778-.192s-.151-.534-.355-1.523z"/></g><g><path fill="#adc7f7" d="M33.95 52.4s1.923-.584 2.59-1.188c.583-.507 1.165-1.315 1.081-2.123a1.354 1.354 0 0 0-1.562-1.272c-1.125.21-1.973 2.094-2.1 3.11-.013.087-.03 1.479-.01 1.473z"/></g><g><path fill="#adc7f7" d="M17.38 58.595s1.275-1.555 1.502-2.422c.192-.738.232-1.75-.264-2.369a1.349 1.349 0 0 0-2.001-.198c-.819.796-.488 2.836-.038 3.755.026.078.787 1.248.802 1.234zm16.44 23.11a71.387 71.387 0 0 1-3.9-4.212c.167-.158 1.458-1.415 1.75-2.2.267-.712.422-1.698 0-2.386a1.355 1.355 0 0 0-1.97-.426c-.91.697-.814 2.76-.47 3.725.02.062.362.762.545 1.115-.213-.251-.422-.5-.638-.765-.315-.376-.632-.787-.944-1.181l-.466-.639c-.152-.213-.292-.438-.443-.66-.213-.329-.414-.679-.618-1.026.405-.298 1.562-1.164 1.944-1.826.381-.663.681-1.614.367-2.358a1.356 1.356 0 0 0-1.883-.72c-1.002.551-1.22 2.605-1.028 3.609.008.035.07.242.145.487-.186-.347-.376-.692-.553-1.048-.507-1.015-.991-2.065-1.484-3.112-.101-.22-.206-.435-.308-.654.34-.248 1.637-1.21 2.004-1.873.368-.662.682-1.61.368-2.354a1.356 1.356 0 0 0-1.883-.723c-1.005.55-1.22 2.608-1.028 3.611.005.035.081.283.169.56a40.95 40.95 0 0 0-.851-1.674 24.374 24.374 0 0 0-1.688-2.72c.12-.084 1.638-1.172 2.07-1.919.367-.662.681-1.61.367-2.357a1.356 1.356 0 0 0-1.883-.72c-1.002.55-1.22 2.608-1.028 3.611.014.07.294.969.405 1.284a.12.12 0 0 1-.02-.032 18.17 18.17 0 0 0-2.11-2.334 24.932 24.932 0 0 0-2.163-1.791c-.696-.523-1.375-.957-1.958-1.337-.32-.204-.612-.385-.903-.548h.023c.023-.006-.792-1.135-.85-1.202-.683-.758-2.454-1.815-3.497-1.342a1.36 1.36 0 0 0-.554 1.94c.408.7 1.332 1.024 2.107 1.12.775.097 2.328-.367 2.713-.487.288.172.594.365.93.584.582.39 1.238.84 1.92 1.377.18.14.37.3.556.452-.367-.19-.874-.444-.927-.464-.958-.356-3.019-.476-3.727.426a1.355 1.355 0 0 0 .402 1.975c.685.435 1.647.303 2.384.023.737-.28 1.935-1.438 2.194-1.695.408.344.82.706 1.227 1.109.747.716 1.43 1.497 2.04 2.334.035.05.064.102.099.151a27.796 27.796 0 0 0-1.195-.784c-.912-.47-2.946-.817-3.747 0a1.355 1.355 0 0 0 .18 2.01c.618.513 1.627.478 2.367.291.853-.216 2.36-1.438 2.418-1.485a24.108 24.108 0 0 1 1.574 2.667c.35.682.673 1.386.993 2.094a24.454 24.454 0 0 0-1.165-.773c-.915-.47-2.95-.816-3.75 0a1.357 1.357 0 0 0 .183 2.01c.618.514 1.626.482 2.366.292.83-.21 2.282-1.374 2.404-1.473.143.324.292.645.434.968.467 1.06.93 2.121 1.42 3.154.169.359.35.706.527 1.056-.335-.227-.953-.63-1.011-.66-.912-.469-2.946-.816-3.75 0a1.358 1.358 0 0 0 .183 2.01c.618.514 1.623.482 2.366.293.743-.19 1.985-1.141 2.331-1.412.3.577.612 1.143.948 1.686.151.23.285.475.442.688l.452.648c.324.435.624.837.935 1.231.172.207.31.39.464.583-.303-.28-.796-.717-.845-.752-.834-.592-2.792-1.246-3.71-.557a1.357 1.357 0 0 0-.122 2.013c.548.595 1.536.711 2.296.638.84-.081 2.398-.974 2.588-1.082.381.467.754.922 1.113 1.342a74.109 74.109 0 0 0 2.832 3.122c.702.732 1.128 1.14 1.128 1.14a.402.402 0 1 0 .542-.583s-.431-.37-1.145-1.083z"/></g><g opacity=".1"><path d="M17.38 58.595s1.275-1.555 1.502-2.422c.192-.738.232-1.75-.264-2.369a1.349 1.349 0 0 0-2.001-.198c-.819.796-.488 2.836-.038 3.755.026.078.787 1.248.802 1.234zm16.44 23.11a71.387 71.387 0 0 1-3.9-4.212c.167-.158 1.458-1.415 1.75-2.2.267-.712.422-1.698 0-2.386a1.355 1.355 0 0 0-1.97-.426c-.91.697-.814 2.76-.47 3.725.02.062.362.762.545 1.115-.213-.251-.422-.5-.638-.765-.315-.376-.632-.787-.944-1.181l-.466-.639c-.152-.213-.292-.438-.443-.66-.213-.329-.414-.679-.618-1.026.405-.298 1.562-1.164 1.944-1.826.381-.663.681-1.614.367-2.358a1.356 1.356 0 0 0-1.883-.72c-1.002.551-1.22 2.605-1.028 3.609.008.035.07.242.145.487-.186-.347-.376-.692-.553-1.048-.507-1.015-.991-2.065-1.484-3.112-.101-.22-.206-.435-.308-.654.34-.248 1.637-1.21 2.004-1.873.368-.662.682-1.61.368-2.354a1.356 1.356 0 0 0-1.883-.723c-1.005.55-1.22 2.608-1.028 3.611.005.035.081.283.169.56a40.95 40.95 0 0 0-.851-1.674 24.374 24.374 0 0 0-1.688-2.72c.12-.084 1.638-1.172 2.07-1.919.367-.662.681-1.61.367-2.357a1.356 1.356 0 0 0-1.883-.72c-1.002.55-1.22 2.608-1.028 3.611.014.07.294.969.405 1.284a.12.12 0 0 1-.02-.032 18.17 18.17 0 0 0-2.11-2.334 24.932 24.932 0 0 0-2.163-1.791c-.696-.523-1.375-.957-1.958-1.337-.32-.204-.612-.385-.903-.548h.023c.023-.006-.792-1.135-.85-1.202-.683-.758-2.454-1.815-3.497-1.342a1.36 1.36 0 0 0-.554 1.94c.408.7 1.332 1.024 2.107 1.12.775.097 2.328-.367 2.713-.487.288.172.594.365.93.584.582.39 1.238.84 1.92 1.377.18.14.37.3.556.452-.367-.19-.874-.444-.927-.464-.958-.356-3.019-.476-3.727.426a1.355 1.355 0 0 0 .402 1.975c.685.435 1.647.303 2.384.023.737-.28 1.935-1.438 2.194-1.695.408.344.82.706 1.227 1.109.747.716 1.43 1.497 2.04 2.334.035.05.064.102.099.151a27.796 27.796 0 0 0-1.195-.784c-.912-.47-2.946-.817-3.747 0a1.355 1.355 0 0 0 .18 2.01c.618.513 1.627.478 2.367.291.853-.216 2.36-1.438 2.418-1.485a24.108 24.108 0 0 1 1.574 2.667c.35.682.673 1.386.993 2.094a24.454 24.454 0 0 0-1.165-.773c-.915-.47-2.95-.816-3.75 0a1.357 1.357 0 0 0 .183 2.01c.618.514 1.626.482 2.366.292.83-.21 2.282-1.374 2.404-1.473.143.324.292.645.434.968.467 1.06.93 2.121 1.42 3.154.169.359.35.706.527 1.056-.335-.227-.953-.63-1.011-.66-.912-.469-2.946-.816-3.75 0a1.358 1.358 0 0 0 .183 2.01c.618.514 1.623.482 2.366.293.743-.19 1.985-1.141 2.331-1.412.3.577.612 1.143.948 1.686.151.23.285.475.442.688l.452.648c.324.435.624.837.935 1.231.172.207.31.39.464.583-.303-.28-.796-.717-.845-.752-.834-.592-2.792-1.246-3.71-.557a1.357 1.357 0 0 0-.122 2.013c.548.595 1.536.711 2.296.638.84-.081 2.398-.974 2.588-1.082.381.467.754.922 1.113 1.342a74.109 74.109 0 0 0 2.832 3.122c.702.732 1.128 1.14 1.128 1.14a.402.402 0 1 0 .542-.583s-.431-.37-1.145-1.083z"/></g><g><path fill="#adc7f7" d="M27.5 102.03a66.394 66.394 0 0 1-1.178-5.627c.216-.053 1.961-.473 2.623-.99.603-.47 1.241-1.233 1.233-2.042a1.354 1.354 0 0 0-1.457-1.38c-1.14.129-2.116 1.95-2.332 2.953 0 .064-.081.84-.105 1.237a40.989 40.989 0 0 1-.157-.983c-.073-.485-.137-1.001-.2-1.5l-.07-.787c-.033-.269-.027-.529-.042-.794v-1.199c.499-.047 1.959-.207 2.605-.569.647-.362 1.414-1.03 1.524-1.829a1.355 1.355 0 0 0-1.244-1.587c-1.142-.047-2.383 1.604-2.736 2.567 0 .03-.064.24-.122.49 0-.394.032-.784.06-1.184.088-1.132.21-2.279.33-3.43.023-.243.044-.482.07-.721.42-.038 2.002-.199 2.678-.584.676-.385 1.413-1.03 1.527-1.832a1.358 1.358 0 0 0-1.244-1.587c-1.143-.044-2.387 1.607-2.737 2.567 0 .035-.075.292-.142.57a45.62 45.62 0 0 0 .13-1.874c.055-1.07.038-2.142-.052-3.209.149 0 2.008-.163 2.763-.583.664-.37 1.413-1.03 1.524-1.832a1.355 1.355 0 0 0-1.245-1.587c-1.142-.044-2.383 1.607-2.736 2.567-.023.067-.245.98-.312 1.31v-.038a17.612 17.612 0 0 0-.612-3.084c-.26-.9-.573-1.784-.935-2.649a32.253 32.253 0 0 0-1.483-3.092h.023c.02 0-.093-1.38-.11-1.459-.202-1.003-1.166-2.824-2.332-2.955a1.351 1.351 0 0 0-1.457 1.38c0 .808.627 1.572 1.23 2.042.603.47 2.185.875 2.576.98.157.292.32.625.495.983.292.64.63 1.36.939 2.17.084.217.163.45.244.678a22.195 22.195 0 0 0-.556-.875c-.638-.797-2.331-1.96-3.412-1.552a1.356 1.356 0 0 0-.67 1.902c.36.723 1.279 1.105 2.04 1.245.76.14 2.397-.236 2.75-.324.175.505.34 1.027.484 1.582.271 1 .452 2.024.539 3.057v.18a38.967 38.967 0 0 0-.618-1.289c-.548-.875-2.116-2.208-3.223-1.92a1.352 1.352 0 0 0-.874 1.818c.291.759 1.166 1.243 1.882 1.459.842.254 2.763-.018 2.836-.026a24.437 24.437 0 0 1-.02 3.095 48.622 48.622 0 0 1-.225 2.308c-.105-.248-.583-1.205-.612-1.27-.548-.875-2.116-2.208-3.223-1.92a1.352 1.352 0 0 0-.874 1.818c.291.759 1.165 1.24 1.882 1.46.822.244 2.664 0 2.821-.027-.044.35-.082.703-.125 1.053-.143 1.146-.292 2.299-.405 3.437-.038.393-.061.784-.088 1.166a30.36 30.36 0 0 0-.53-1.085c-.548-.875-2.113-2.208-3.205-1.92a1.355 1.355 0 0 0-.875 1.818c.292.759 1.166 1.24 1.883 1.459.717.219 2.287.044 2.724-.015-.038.65-.06 1.298-.052 1.934 0 .277 0 .558.026.82l.053.79c.058.537.107 1.036.172 1.538.032.251.067.487.101.732a40.663 40.663 0 0 0-.338-1.082c-.413-.936-1.748-2.503-2.896-2.386a1.355 1.355 0 0 0-1.14 1.663c.164.793.95 1.403 1.641 1.73.76.361 2.556.4 2.777.402.085.601.172 1.182.265 1.727a64.59 64.59 0 0 0 .822 4.134c.24.992.385 1.558.385 1.558a.402.402 0 0 0 .769-.228s-.178-.493-.425-1.473z"/></g><g><path fill="#adc7f7" d="M25.267 73.758s1.896-.671 2.535-1.298c.545-.537 1.092-1.368.99-2.17a1.357 1.357 0 0 0-1.62-1.203c-1.113.26-1.876 2.18-1.96 3.21-.01.084.034 1.47.055 1.461z"/></g><g><path fill="#adc7f7" d="M26.404 102.442a70.81 70.81 0 0 1-2.998-2.9 61.202 61.202 0 0 1-1.078-1.135c.151-.163 1.372-1.479 1.643-2.275.245-.724.356-1.713-.099-2.384a1.352 1.352 0 0 0-1.984-.338c-.875.735-.69 2.795-.306 3.74.023.061.396.747.582 1.091a34.24 34.24 0 0 1-.673-.735c-.329-.362-.664-.759-.993-1.138l-.496-.618c-.172-.208-.309-.426-.469-.64-.227-.317-.446-.659-.664-1 .39-.312 1.52-1.254 1.862-1.91.34-.657.612-1.64.262-2.37a1.353 1.353 0 0 0-1.911-.636c-.98.584-1.105 2.655-.875 3.65 0 .035.082.24.17.481-.205-.338-.409-.674-.604-1.024-.55-.992-1.08-2.016-1.617-3.042-.11-.213-.224-.426-.338-.64.33-.262 1.562-1.271 1.92-1.96.359-.688.61-1.64.262-2.369a1.353 1.353 0 0 0-1.911-.636c-.98.584-1.104 2.655-.874 3.65 0 .038.096.292.195.554-.291-.554-.606-1.1-.924-1.636-.544-.92-1.149-1.801-1.81-2.64.12-.094 1.589-1.246 1.985-2.01.353-.677.612-1.64.262-2.37a1.353 1.353 0 0 0-1.911-.638c-.98.583-1.105 2.657-.874 3.652.017.07.338.954.46 1.266l-.02-.032a17.996 17.996 0 0 0-2.212-2.231 24.459 24.459 0 0 0-2.209-1.695 31.264 31.264 0 0 0-2.94-1.757h.02c.02 0-.839-1.1-.903-1.167-.72-.726-2.535-1.703-3.555-1.184a1.353 1.353 0 0 0-.47 1.96c.438.683 1.39.969 2.154 1.027.764.059 2.311-.472 2.687-.606.291.163.612.34.956.548a30.1 30.1 0 0 1 1.978 1.29c.19.134.385.291.583.428a25.533 25.533 0 0 0-.947-.423c-.973-.312-3.036-.344-3.704.584a1.36 1.36 0 0 0 .49 1.957c.702.4 1.678.216 2.38-.084.703-.3 1.871-1.523 2.12-1.789.422.324.847.668 1.272 1.05.777.686 1.491 1.44 2.134 2.253.037.046.07.099.107.148-.172-.12-1.165-.7-1.23-.732-.932-.417-2.98-.677-3.744.178a1.358 1.358 0 0 0 .271 1.999c.653.475 1.647.4 2.375.178.842-.254 2.296-1.54 2.352-1.588.619.827 1.183 1.694 1.69 2.594.379.665.734 1.354 1.084 2.042a30.858 30.858 0 0 0-1.21-.72c-.932-.418-2.98-.674-3.747.177a1.355 1.355 0 0 0 .274 1.999c.653.478 1.643.4 2.375.18.822-.25 2.22-1.475 2.331-1.578.16.315.32.63.478.946.513 1.038 1.02 2.077 1.556 3.089.184.35.379.691.583 1.03a38.731 38.731 0 0 0-1.04-.613c-.933-.417-2.982-.674-3.745.178a1.358 1.358 0 0 0 .271 1.999c.653.478 1.644.4 2.375.18.731-.218 1.932-1.228 2.267-1.517a26.38 26.38 0 0 0 1.02 1.643c.16.224.309.464.472.67l.48.628c.345.417.662.808.991 1.187l.487.558a35.148 35.148 0 0 0-.874-.715c-.874-.554-2.844-1.12-3.73-.394a1.357 1.357 0 0 0-.035 2.019c.583.569 1.568.644 2.331.537.834-.12 2.352-1.08 2.538-1.2.4.453.796.876 1.166 1.293a69.52 69.52 0 0 0 2.966 2.993 89.33 89.33 0 0 0 1.166 1.091.402.402 0 0 0 .516-.615s-.429-.353-1.175-1.033z"/></g><g><path fill="#adc7f7" d="M8.972 80.087s1.209-1.608 1.398-2.486c.16-.747.158-1.75-.37-2.357a1.357 1.357 0 0 0-2.013-.108c-.787.832-.364 2.856.125 3.752.05.079.845 1.213.86 1.199z"/></g><g opacity=".1"><g opacity=".1"><path d="M27.5 102.03a66.394 66.394 0 0 1-1.178-5.627c.216-.053 1.961-.473 2.623-.99.603-.47 1.241-1.233 1.233-2.042a1.354 1.354 0 0 0-1.457-1.38c-1.14.129-2.116 1.95-2.332 2.953 0 .064-.081.84-.105 1.237a40.989 40.989 0 0 1-.157-.983c-.073-.485-.137-1.001-.2-1.5l-.07-.787c-.033-.269-.027-.529-.042-.794v-1.199c.499-.047 1.959-.207 2.605-.569.647-.362 1.414-1.03 1.524-1.829a1.355 1.355 0 0 0-1.244-1.587c-1.142-.047-2.383 1.604-2.736 2.567 0 .03-.064.24-.122.49 0-.394.032-.784.06-1.184.088-1.132.21-2.279.33-3.43.023-.243.044-.482.07-.721.42-.038 2.002-.199 2.678-.584.676-.385 1.413-1.03 1.527-1.832a1.358 1.358 0 0 0-1.244-1.587c-1.143-.044-2.387 1.607-2.737 2.567 0 .035-.075.292-.142.57a45.62 45.62 0 0 0 .13-1.874c.055-1.07.038-2.142-.052-3.209.149 0 2.008-.163 2.763-.583.664-.37 1.413-1.03 1.524-1.832a1.355 1.355 0 0 0-1.245-1.587c-1.142-.044-2.383 1.607-2.736 2.567-.023.067-.245.98-.312 1.31v-.038a17.612 17.612 0 0 0-.612-3.084c-.26-.9-.573-1.784-.935-2.649a32.253 32.253 0 0 0-1.483-3.092h.023c.02 0-.093-1.38-.11-1.459-.202-1.003-1.166-2.824-2.332-2.955a1.351 1.351 0 0 0-1.457 1.38c0 .808.627 1.572 1.23 2.042.603.47 2.185.875 2.576.98.157.292.32.625.495.983.292.64.63 1.36.939 2.17.084.217.163.45.244.678a22.195 22.195 0 0 0-.556-.875c-.638-.797-2.331-1.96-3.412-1.552a1.356 1.356 0 0 0-.67 1.902c.36.723 1.279 1.105 2.04 1.245.76.14 2.397-.236 2.75-.324.175.505.34 1.027.484 1.582.271 1 .452 2.024.539 3.057v.18a38.967 38.967 0 0 0-.618-1.289c-.548-.875-2.116-2.208-3.223-1.92a1.352 1.352 0 0 0-.874 1.818c.291.759 1.166 1.243 1.882 1.459.842.254 2.763-.018 2.836-.026a24.437 24.437 0 0 1-.02 3.095 48.622 48.622 0 0 1-.225 2.308c-.105-.248-.583-1.205-.612-1.27-.548-.875-2.116-2.208-3.223-1.92a1.352 1.352 0 0 0-.874 1.818c.291.759 1.165 1.24 1.882 1.46.822.244 2.664 0 2.821-.027-.044.35-.082.703-.125 1.053-.143 1.146-.292 2.299-.405 3.437-.038.393-.061.784-.088 1.166a30.36 30.36 0 0 0-.53-1.085c-.548-.875-2.113-2.208-3.205-1.92a1.355 1.355 0 0 0-.875 1.818c.292.759 1.166 1.24 1.883 1.459.717.219 2.287.044 2.724-.015-.038.65-.06 1.298-.052 1.934 0 .277 0 .558.026.82l.053.79c.058.537.107 1.036.172 1.538.032.251.067.487.101.732a40.663 40.663 0 0 0-.338-1.082c-.413-.936-1.748-2.503-2.896-2.386a1.355 1.355 0 0 0-1.14 1.663c.164.793.95 1.403 1.641 1.73.76.361 2.556.4 2.777.402.085.601.172 1.182.265 1.727a64.59 64.59 0 0 0 .822 4.134c.24.992.385 1.558.385 1.558a.402.402 0 0 0 .769-.228s-.178-.493-.425-1.473z"/></g><g opacity=".1"><path d="M25.267 73.758s1.896-.671 2.535-1.298c.545-.537 1.092-1.368.99-2.17a1.357 1.357 0 0 0-1.62-1.203c-1.113.26-1.876 2.18-1.96 3.21-.01.084.034 1.47.055 1.461z"/></g><g opacity=".1"><path d="M26.404 102.442a70.81 70.81 0 0 1-2.998-2.9 61.202 61.202 0 0 1-1.078-1.135c.151-.163 1.372-1.479 1.643-2.275.245-.724.356-1.713-.099-2.384a1.352 1.352 0 0 0-1.984-.338c-.875.735-.69 2.795-.306 3.74.023.061.396.747.582 1.091a34.24 34.24 0 0 1-.673-.735c-.329-.362-.664-.759-.993-1.138l-.496-.618c-.172-.208-.309-.426-.469-.64-.227-.317-.446-.659-.664-1 .39-.312 1.52-1.254 1.862-1.91.34-.657.612-1.64.262-2.37a1.353 1.353 0 0 0-1.911-.636c-.98.584-1.105 2.655-.875 3.65 0 .035.082.24.17.481-.205-.338-.409-.674-.604-1.024-.55-.992-1.08-2.016-1.617-3.042-.11-.213-.224-.426-.338-.64.33-.262 1.562-1.271 1.92-1.96.359-.688.61-1.64.262-2.369a1.353 1.353 0 0 0-1.911-.636c-.98.584-1.104 2.655-.874 3.65 0 .038.096.292.195.554-.291-.554-.606-1.1-.924-1.636-.544-.92-1.149-1.801-1.81-2.64.12-.094 1.589-1.246 1.985-2.01.353-.677.612-1.64.262-2.37a1.353 1.353 0 0 0-1.911-.638c-.98.583-1.105 2.657-.874 3.652.017.07.338.954.46 1.266l-.02-.032a17.996 17.996 0 0 0-2.212-2.231 24.459 24.459 0 0 0-2.209-1.695 31.264 31.264 0 0 0-2.94-1.757h.02c.02 0-.839-1.1-.903-1.167-.72-.726-2.535-1.703-3.555-1.184a1.353 1.353 0 0 0-.47 1.96c.438.683 1.39.969 2.154 1.027.764.059 2.311-.472 2.687-.606.291.163.612.34.956.548a30.1 30.1 0 0 1 1.978 1.29c.19.134.385.291.583.428a25.533 25.533 0 0 0-.947-.423c-.973-.312-3.036-.344-3.704.584a1.36 1.36 0 0 0 .49 1.957c.702.4 1.678.216 2.38-.084.703-.3 1.871-1.523 2.12-1.789.422.324.847.668 1.272 1.05.777.686 1.491 1.44 2.134 2.253.037.046.07.099.107.148-.172-.12-1.165-.7-1.23-.732-.932-.417-2.98-.677-3.744.178a1.358 1.358 0 0 0 .271 1.999c.653.475 1.647.4 2.375.178.842-.254 2.296-1.54 2.352-1.588.619.827 1.183 1.694 1.69 2.594.379.665.734 1.354 1.084 2.042a30.858 30.858 0 0 0-1.21-.72c-.932-.418-2.98-.674-3.747.177a1.355 1.355 0 0 0 .274 1.999c.653.478 1.643.4 2.375.18.822-.25 2.22-1.475 2.331-1.578.16.315.32.63.478.946.513 1.038 1.02 2.077 1.556 3.089.184.35.379.691.583 1.03a38.731 38.731 0 0 0-1.04-.613c-.933-.417-2.982-.674-3.745.178a1.358 1.358 0 0 0 .271 1.999c.653.478 1.644.4 2.375.18.731-.218 1.932-1.228 2.267-1.517a26.38 26.38 0 0 0 1.02 1.643c.16.224.309.464.472.67l.48.628c.345.417.662.808.991 1.187l.487.558a35.148 35.148 0 0 0-.874-.715c-.874-.554-2.844-1.12-3.73-.394a1.357 1.357 0 0 0-.035 2.019c.583.569 1.568.644 2.331.537.834-.12 2.352-1.08 2.538-1.2.4.453.796.876 1.166 1.293a69.52 69.52 0 0 0 2.966 2.993 89.33 89.33 0 0 0 1.166 1.091.402.402 0 0 0 .516-.615s-.429-.353-1.175-1.033z"/></g><g opacity=".1"><path d="M8.972 80.087s1.209-1.608 1.398-2.486c.16-.747.158-1.75-.37-2.357a1.357 1.357 0 0 0-2.013-.108c-.787.832-.364 2.856.125 3.752.05.079.845 1.213.86 1.199z"/></g></g><g opacity=".1"><g opacity=".1"><path d="M34.937 80.745a69.435 69.435 0 0 1-.93-5.666c.222-.04 1.982-.385 2.666-.875.624-.44 1.294-1.167 1.32-1.984a1.355 1.355 0 0 0-1.407-1.458c-1.142.079-2.197 1.852-2.445 2.847-.014.064-.116.834-.16 1.231-.038-.327-.076-.65-.11-.989-.053-.49-.094-1.006-.135-1.508 0-.263-.026-.525-.038-.79-.011-.266 0-.526 0-.794 0-.391.03-.797.05-1.2.5-.022 1.967-.119 2.622-.451.656-.333 1.457-.966 1.606-1.75a1.36 1.36 0 0 0-1.166-1.643c-1.14-.093-2.453 1.5-2.844 2.445-.014.029-.076.239-.148.487.035-.394.067-.788.116-1.185.134-1.123.31-2.266.478-3.413l.102-.715c.42-.02 2.01-.108 2.701-.455.69-.347 1.457-.968 1.606-1.75a1.358 1.358 0 0 0-1.166-1.643c-1.142-.093-2.453 1.5-2.847 2.445 0 .032-.087.292-.169.56.085-.621.158-1.245.213-1.864.103-1.066.133-2.138.09-3.209.15 0 2.014-.073 2.783-.458.685-.341 1.457-.966 1.606-1.75a1.355 1.355 0 0 0-1.166-1.64c-1.142-.096-2.453 1.5-2.847 2.442-.029.067-.291.971-.37 1.295a.167.167 0 0 1 0-.038 17.815 17.815 0 0 0-.478-3.107c-.22-.911-.492-1.81-.816-2.69a31.333 31.333 0 0 0-1.346-3.15h.024c.02 0-.035-1.386-.047-1.459-.157-1.01-1.052-2.87-2.183-3.051a1.351 1.351 0 0 0-1.53 1.313c-.046.808.557 1.598 1.137 2.094.58.496 2.148.98 2.532 1.091.143.31.292.64.452 1.007.27.65.583 1.385.842 2.208.073.219.143.458.216.686a22.136 22.136 0 0 0-.519-.899c-.603-.825-2.255-2.065-3.34-1.704a1.353 1.353 0 0 0-.754 1.87c.33.739 1.23 1.167 1.975 1.334.746.166 2.407-.129 2.763-.199.151.51.291 1.039.414 1.599.22 1.006.35 2.03.39 3.06v.184a32.387 32.387 0 0 0-.562-1.316c-.51-.875-2.017-2.301-3.136-2.062a1.355 1.355 0 0 0-.955 1.78c.247.767 1.098 1.289 1.818 1.54.83.291 2.762.105 2.832.099a23.736 23.736 0 0 1-.154 3.092 45.316 45.316 0 0 1-.327 2.296 28.707 28.707 0 0 0-.556-1.295c-.507-.875-2.014-2.299-3.133-2.06a1.355 1.355 0 0 0-.955 1.777c.247.77 1.095 1.29 1.818 1.543.81.292 2.66.114 2.818.1-.059.346-.114.696-.172 1.047-.195 1.137-.394 2.28-.554 3.413-.058.394-.099.782-.14 1.167a30.17 30.17 0 0 0-.48-1.109c-.51-.875-2.017-2.302-3.136-2.06a1.355 1.355 0 0 0-.956 1.777c.248.77 1.096 1.29 1.819 1.543.722.254 2.281.143 2.721.108a27.281 27.281 0 0 0-.137 1.929c0 .274-.026.557 0 .82.026.262 0 .53.018.79.035.54.061 1.042.105 1.543.02.254.043.493.067.738a25.52 25.52 0 0 0-.292-1.097c-.37-.953-1.643-2.578-2.788-2.511a1.358 1.358 0 0 0-1.213 1.613c.129.796.875 1.441 1.562 1.8.746.394 2.538.51 2.757.525.058.601.122 1.187.19 1.733.215 1.733.457 3.165.64 4.169.184 1.003.315 1.572.315 1.572a.402.402 0 1 0 .778-.192s-.151-.534-.355-1.523z"/></g><g opacity=".1"><path d="M33.95 52.4s1.923-.584 2.59-1.188c.583-.507 1.165-1.315 1.081-2.123a1.354 1.354 0 0 0-1.562-1.272c-1.125.21-1.973 2.094-2.1 3.11-.013.087-.03 1.479-.01 1.473z"/></g></g><g><path fill="#adc7f7" d="M96.56 88.022c.038 9.14 7.303 16.52 7.303 16.52s7.203-7.441 7.162-16.581c-.04-9.14-7.288-16.521-7.288-16.521s-7.218 7.442-7.177 16.582z"/></g><g><path fill="#adc7f7" d="M103.866 104.543l-.14-33.103"/><path fill="none" stroke="#fff" stroke-miterlimit="20" stroke-width=".5" d="M103.866 104.543l-.14-33.103"/></g><g><path fill="#adc7f7" d="M103.775 83.211L99.71 79.69"/><path fill="none" stroke="#fff" stroke-miterlimit="20" stroke-width=".5" d="M103.775 83.211L99.71 79.69"/></g><g><path fill="#adc7f7" d="M103.86 88.683l4.983-7.293"/><path fill="none" stroke="#fff" stroke-miterlimit="20" stroke-width=".5" d="M103.86 88.683l4.983-7.293"/></g><g><path fill="#adc7f7" d="M103.813 91.835L97.81 86.52"/><path fill="none" stroke="#fff" stroke-miterlimit="20" stroke-width=".5" d="M103.813 91.835L97.81 86.52"/></g><g><path fill="#adc7f7" d="M103.89 96.084l5.892-5.304"/><path fill="none" stroke="#fff" stroke-miterlimit="20" stroke-width=".5" d="M103.89 96.084l5.892-5.304"/></g><g><path fill="#adc7f7" d="M103.902 99.747L99.26 96.1"/><path fill="none" stroke="#fff" stroke-miterlimit="20" stroke-width=".5" d="M103.902 99.747L99.26 96.1"/></g><g><path fill="#adc7f7" d="M91.61 102.138c3.528 3.961 9.505 4.376 9.505 4.376s.265-6.001-3.264-9.951-9.517-4.353-9.517-4.353-.254 5.99 3.275 9.928z"/></g><g><path fill="#adc7f7" d="M101.13 106.493L88.35 92.19"/><path fill="none" stroke="#fff" stroke-miterlimit="20" stroke-width=".5" d="M101.13 106.493L88.35 92.19"/></g><g><path fill="#adc7f7" d="M92.888 97.277l-3.118.038"/><path fill="none" stroke="#fff" stroke-miterlimit="20" stroke-width=".5" d="M92.888 97.277l-3.118.038"/></g><g><path fill="#adc7f7" d="M95.031 99.612l-.641-5.082"/><path fill="none" stroke="#fff" stroke-miterlimit="20" stroke-width=".5" d="M95.031 99.612l-.641-5.082"/></g><g><path fill="#adc7f7" d="M96.215 101.003l-4.645.006"/><path fill="none" stroke="#fff" stroke-miterlimit="20" stroke-width=".5" d="M96.215 101.003l-4.645.006"/></g><g><path fill="#adc7f7" d="M97.89 102.808l.518-4.568"/><path fill="none" stroke="#fff" stroke-miterlimit="20" stroke-width=".5" d="M97.89 102.808l.518-4.568"/></g><g><path fill="#adc7f7" d="M99.305 104.404l-3.415.204"/><path fill="none" stroke="#fff" stroke-miterlimit="20" stroke-width=".5" d="M99.305 104.404l-3.415.204"/></g><g><path fill="#adc7f7" d="M110.015 96.353c-3.672 3.818-3.625 9.825-3.625 9.825s5.997-.184 9.669-4.003c3.671-3.818 3.624-9.825 3.624-9.825s-5.996.184-9.668 4.003z"/></g><g><path fill="#adc7f7" d="M106.39 106.178l13.293-13.828"/><path fill="none" stroke="#fff" stroke-miterlimit="20" stroke-width=".5" d="M106.39 106.178l13.293-13.828"/></g><g><path fill="#adc7f7" d="M114.961 97.27l-.27-3.11"/><path fill="none" stroke="#fff" stroke-miterlimit="20" stroke-width=".5" d="M114.961 97.27l-.27-3.11"/></g><g><path fill="#adc7f7" d="M112.79 99.578l5.015-1.018"/><path fill="none" stroke="#fff" stroke-miterlimit="20" stroke-width=".5" d="M112.79 99.578l5.015-1.018"/></g><g><path fill="#adc7f7" d="M111.493 100.868l-.353-4.638"/><path fill="none" stroke="#fff" stroke-miterlimit="20" stroke-width=".5" d="M111.493 100.868l-.353-4.638"/></g><g><path fill="#adc7f7" d="M109.82 102.668l4.59.175"/><path fill="none" stroke="#fff" stroke-miterlimit="20" stroke-width=".5" d="M109.82 102.668l4.59.175"/></g><g><path fill="#adc7f7" d="M108.34 104.206l-.46-3.396"/><path fill="none" stroke="#fff" stroke-miterlimit="20" stroke-width=".5" d="M108.34 104.206l-.46-3.396"/></g><g opacity=".1"><g opacity=".1"><path d="M96.56 88.022c.038 9.14 7.303 16.52 7.303 16.52s7.203-7.441 7.162-16.581c-.04-9.14-7.288-16.521-7.288-16.521s-7.218 7.442-7.177 16.582z"/></g><g opacity=".1"><path d="M103.866 104.543l-.14-33.103"/></g><g opacity=".1"><path d="M103.775 83.211L99.71 79.69"/></g><g opacity=".1"><path d="M103.86 88.683l4.983-7.293"/></g><g opacity=".1"><path d="M103.813 91.835L97.81 86.52"/></g><g opacity=".1"><path d="M103.89 96.084l5.892-5.304"/></g><g opacity=".1"><path d="M103.902 99.747L99.26 96.1"/></g><g opacity=".1"><path d="M91.61 102.138c3.528 3.961 9.505 4.376 9.505 4.376s.265-6.001-3.264-9.951-9.517-4.353-9.517-4.353-.254 5.99 3.275 9.928z"/></g><g opacity=".1"><path d="M101.13 106.493L88.35 92.19"/></g><g opacity=".1"><path d="M92.888 97.277l-3.118.038"/></g><g opacity=".1"><path d="M95.031 99.612l-.641-5.082"/></g><g opacity=".1"><path d="M96.215 101.003l-4.645.006"/></g><g opacity=".1"><path d="M97.89 102.808l.518-4.568"/></g><g opacity=".1"><path d="M99.305 104.404l-3.415.204"/></g><g opacity=".1"><path d="M110.015 96.353c-3.672 3.818-3.625 9.825-3.625 9.825s5.997-.184 9.669-4.003c3.671-3.818 3.624-9.825 3.624-9.825s-5.996.184-9.668 4.003z"/></g><g opacity=".1"><path d="M106.39 106.178l13.293-13.828"/></g><g opacity=".1"><path d="M114.961 97.27l-.27-3.11"/></g><g opacity=".1"><path d="M112.79 99.578l5.015-1.018"/></g><g opacity=".1"><path d="M111.493 100.868l-.353-4.638"/></g><g opacity=".1"><path d="M109.82 102.668l4.59.175"/></g><g opacity=".1"><path d="M108.34 104.206l-.46-3.396"/></g></g></g><g><g><path fill="#fff" d="M26.74 13.25h71.805v92.583H26.74z"/><path fill="none" stroke="#263238" stroke-linecap="round" stroke-linejoin="round" stroke-miterlimit="20" stroke-width=".5" d="M26.74 13.25v0h71.805v92.583H26.74v0z"/></g><g><path fill="#adc7f7" d="M26.74 13.25h11.454v92.583H26.74z"/></g><g><path fill="#adc7f7" d="M60.57 26.92h22.02v2.595H60.57z"/><path fill="none" stroke="#263238" stroke-linecap="round" stroke-linejoin="round" stroke-miterlimit="20" stroke-width=".5" d="M60.57 26.92v0h22.02v2.595H60.57v0z"/></g><g><path fill="#adc7f7" d="M35.77 49.04h60.363v2.595H35.77z"/></g><g><path fill="#adc7f7" d="M35.77 84.7h60.363v2.595H35.77z"/></g><g><path fill="#adc7f7" d="M60.57 31.39h13.879v2.595H60.57z"/><path fill="none" stroke="#263238" stroke-linecap="round" stroke-linejoin="round" stroke-miterlimit="20" stroke-width=".5" d="M60.57 31.39v0h13.879v2.595H60.57v0z"/></g><g><path fill="#adc7f7" d="M60.57 35.77h13.879v2.595H60.57z"/><path fill="none" stroke="#263238" stroke-linecap="round" stroke-linejoin="round" stroke-miterlimit="20" stroke-width=".5" d="M60.57 35.77v0h13.879v2.595H60.57v0z"/></g><g><path fill="#adc7f7" d="M57.23 54.49h1.43v1.432h-1.43z"/><path fill="none" stroke="#263238" stroke-linecap="round" stroke-linejoin="round" stroke-miterlimit="20" stroke-width=".5" d="M57.23 54.49v0h1.43v1.432h-1.43v0z"/></g><g><path fill="#adc7f7" d="M57.23 72.9h1.43v1.432h-1.43z"/><path fill="none" stroke="#263238" stroke-linecap="round" stroke-linejoin="round" stroke-miterlimit="20" stroke-width=".5" d="M57.23 72.9v0h1.43v1.432h-1.43v0z"/></g><g><path fill="#adc7f7" d="M77.4 54.49h1.43v1.432H77.4z"/><path fill="none" stroke="#263238" stroke-linecap="round" stroke-linejoin="round" stroke-miterlimit="20" stroke-width=".5" d="M77.4 54.49v0h1.43v1.432H77.4v0z"/></g><g><path fill="#adc7f7" d="M77.4 72.9h1.43v1.432H77.4z"/><path fill="none" stroke="#263238" stroke-linecap="round" stroke-linejoin="round" stroke-miterlimit="20" stroke-width=".5" d="M77.4 72.9v0h1.43v1.432H77.4v0z"/></g><g><path fill="#263238" d="M26.74 13.25h71.805v4.71H26.74z"/><path fill="none" stroke="#263238" stroke-linecap="round" stroke-linejoin="round" stroke-miterlimit="20" stroke-width=".5" d="M26.74 13.25v0h71.805v4.71H26.74v0z"/></g><g><path fill="#263238" d="M73.616 55.486H60.978a.408.408 0 1 1 0-.816h12.638a.408.408 0 1 1 0 .816z"/></g><g><path fill="#263238" d="M73.616 57.53H60.978a.41.41 0 0 1-.408-.412c0-.225.182-.408.408-.408h12.638c.226 0 .408.183.408.408a.41.41 0 0 1-.408.411z"/></g><g><path fill="#263238" d="M73.616 59.566H60.978a.408.408 0 1 1 0-.816h12.638a.408.408 0 1 1 0 .816z"/></g><g><path fill="#263238" d="M73.616 61.606H60.978a.408.408 0 1 1 0-.816h12.638a.408.408 0 1 1 0 .816z"/></g><g><path fill="#263238" d="M73.616 63.646H60.978a.408.408 0 1 1 0-.816h12.638a.408.408 0 1 1 0 .816z"/></g><g><path fill="#263238" d="M92.736 55.486H80.098a.408.408 0 1 1 0-.816h12.638a.408.408 0 1 1 0 .816z"/></g><g><path fill="#263238" d="M92.736 57.53H80.098a.41.41 0 0 1-.408-.412c0-.225.182-.408.408-.408h12.638c.226 0 .408.183.408.408a.41.41 0 0 1-.408.411z"/></g><g><path fill="#263238" d="M92.736 59.566H80.098a.408.408 0 1 1 0-.816h12.638a.408.408 0 1 1 0 .816z"/></g><g><path fill="#263238" d="M92.736 61.606H80.098a.408.408 0 1 1 0-.816h12.638a.408.408 0 1 1 0 .816z"/></g><g><path fill="#263238" d="M92.736 63.646H80.098a.408.408 0 1 1 0-.816h12.638a.408.408 0 1 1 0 .816z"/></g><g><path fill="#263238" d="M73.616 73.59H60.978a.41.41 0 0 1-.408-.412c0-.225.182-.408.408-.408h12.638c.226 0 .408.183.408.408a.41.41 0 0 1-.408.411z"/></g><g><path fill="#263238" d="M73.616 75.626H60.978a.408.408 0 1 1 0-.816h12.638a.408.408 0 1 1 0 .816z"/></g><g><path fill="#263238" d="M73.616 77.676H60.978a.408.408 0 1 1 0-.816h12.638a.408.408 0 1 1 0 .816z"/></g><g><path fill="#263238" d="M73.616 79.716H60.978a.408.408 0 1 1 0-.816h12.638a.408.408 0 1 1 0 .816z"/></g><g><path fill="#263238" d="M73.616 81.756H60.978a.408.408 0 1 1 0-.816h12.638a.409.409 0 1 1 0 .816z"/></g><g><path fill="#263238" d="M92.736 73.59H80.098a.41.41 0 0 1-.408-.412c0-.225.182-.408.408-.408h12.638c.226 0 .408.183.408.408a.41.41 0 0 1-.408.411z"/></g><g><path fill="#263238" d="M92.736 75.626H80.098a.408.408 0 1 1 0-.816h12.638a.408.408 0 1 1 0 .816z"/></g><g><path fill="#263238" d="M92.736 77.676H80.098a.408.408 0 1 1 0-.816h12.638a.408.408 0 1 1 0 .816z"/></g><g><path fill="#263238" d="M92.736 79.716H80.098a.408.408 0 1 1 0-.816h12.638a.408.408 0 1 1 0 .816z"/></g><g><path fill="#263238" d="M92.736 81.756H80.098a.408.408 0 1 1 0-.816h12.638a.408.408 0 1 1 0 .816z"/></g><g><path fill="#263238" d="M92.736 91.076H80.098a.408.408 0 1 1 0-.816h12.638a.408.408 0 1 1 0 .816z"/></g><g><path fill="#263238" d="M92.736 93.116H80.098a.408.408 0 1 1 0-.816h12.638a.408.408 0 1 1 0 .816z"/></g><g><path fill="#263238" d="M92.736 95.166H80.098a.408.408 0 1 1 0-.816h12.638a.408.408 0 1 1 0 .816z"/></g><g><path fill="#263238" d="M79.69 96.39h13.454v.816H79.69z"/></g><g><path fill="#263238" d="M92.736 99.246H80.098a.408.408 0 1 1 0-.816h12.638a.408.408 0 1 1 0 .816z"/></g><g><path fill="#263238" d="M91.51 67.33a1.63 1.63 0 0 0-1.606 1.362h-1.95a1.63 1.63 0 0 0-3.203 0h-1.95a1.63 1.63 0 0 0-3.202 0h-1.976a1.628 1.628 0 0 0-3.202 0h-1.953a1.628 1.628 0 0 0-3.202 0h-1.954a1.628 1.628 0 0 0-3.202 0h-1.953a1.63 1.63 0 0 0-3.237.272 1.63 1.63 0 0 0 3.237.273h1.953a1.628 1.628 0 0 0 3.202 0h1.954a1.628 1.628 0 0 0 3.202 0h1.953a1.628 1.628 0 0 0 3.202 0h1.953a1.63 1.63 0 0 0 3.202 0h1.95a1.63 1.63 0 0 0 3.202 0h1.95a1.63 1.63 0 0 0 3.235-.366 1.631 1.631 0 0 0-1.628-1.541z"/></g><g><path fill="#adc7f7" d="M52.22 93.68a1.365 1.365 0 0 1 .297-1.493 1.377 1.377 0 0 1 1.498-.296 1.368 1.368 0 0 1-.524 2.632 1.374 1.374 0 0 1-1.271-.843zm1.27-3.27a2.748 2.748 0 0 0-2.54 1.697 2.756 2.756 0 0 0 .594 3.001 2.744 2.744 0 0 0 2.995.598 2.753 2.753 0 0 0 1.697-2.543c0-.73-.288-1.43-.803-1.947a2.743 2.743 0 0 0-1.942-.806z"/><path fill="none" stroke="#263238" stroke-linecap="round" stroke-linejoin="round" stroke-miterlimit="20" stroke-width=".5" d="M52.22 93.68a1.365 1.365 0 0 1 .297-1.493 1.377 1.377 0 0 1 1.498-.296 1.368 1.368 0 0 1-.524 2.632 1.374 1.374 0 0 1-1.271-.843zm1.27-3.27a2.748 2.748 0 0 0-2.54 1.697 2.756 2.756 0 0 0 .594 3.001 2.744 2.744 0 0 0 2.995.598 2.753 2.753 0 0 0 1.697-2.543c0-.73-.288-1.43-.803-1.947a2.743 2.743 0 0 0-1.942-.806z"/></g><g><path fill="#263238" d="M54.31 94.256l1.31.639a2.754 2.754 0 0 0 .35-2.912 2.745 2.745 0 0 0-2.47-1.573v1.38a1.372 1.372 0 0 1 .806 2.467z"/><path fill="none" stroke="#263238" stroke-linecap="round" stroke-linejoin="round" stroke-miterlimit="20" stroke-width=".5" d="M54.31 94.256v0l1.31.639a2.754 2.754 0 0 0 .35-2.912 2.745 2.745 0 0 0-2.47-1.573v1.38a1.372 1.372 0 0 1 .806 2.467z"/></g><g><path fill="#adc7f7" d="M54.815 99.33h-2.62a.651.651 0 0 1-.655-.654c0-.362.293-.656.655-.656h2.62a.654.654 0 1 1 0 1.31z"/><path fill="none" stroke="#263238" stroke-linecap="round" stroke-linejoin="round" stroke-miterlimit="20" stroke-width=".5" d="M54.815 99.33v0h-2.62a.651.651 0 0 1-.655-.654v0c0-.362.293-.656.655-.656h2.62c.361 0 .655.294.655.656v0a.654.654 0 0 1-.655.653z"/></g><g><path fill="#adc7f7" d="M61.678 94.523a1.367 1.367 0 1 1-.968-2.337 1.373 1.373 0 0 1 2.339.972 1.364 1.364 0 0 1-1.371 1.365zm0-4.113a2.75 2.75 0 0 0-2.748 2.753 2.75 2.75 0 0 0 2.748 2.752 2.75 2.75 0 0 0 2.748-2.752c0-.73-.289-1.431-.804-1.948a2.743 2.743 0 0 0-1.944-.805z"/><path fill="none" stroke="#263238" stroke-linecap="round" stroke-linejoin="round" stroke-miterlimit="20" stroke-width=".5" d="M61.678 94.523a1.367 1.367 0 1 1-.968-2.337 1.373 1.373 0 0 1 2.339.972 1.364 1.364 0 0 1-1.371 1.365zm0-4.113a2.75 2.75 0 0 0-2.748 2.753 2.75 2.75 0 0 0 2.748 2.752 2.75 2.75 0 0 0 2.748-2.752c0-.73-.289-1.431-.804-1.948a2.743 2.743 0 0 0-1.944-.805z"/></g><g><path fill="#263238" d="M64.409 92.874a2.755 2.755 0 0 0-2.719-2.464v1.38c.751.007 1.357.62 1.356 1.373a1.463 1.463 0 0 1-.017.157z"/><path fill="none" stroke="#263238" stroke-linecap="round" stroke-linejoin="round" stroke-miterlimit="20" stroke-width=".5" d="M64.409 92.874a2.755 2.755 0 0 0-2.719-2.464v1.38c.751.007 1.357.62 1.356 1.373a1.463 1.463 0 0 1-.017.157z"/></g><g><path fill="#adc7f7" d="M62.985 99.33h-2.62a.651.651 0 0 1-.655-.654c0-.362.293-.656.655-.656h2.62a.654.654 0 1 1 0 1.31z"/><path fill="none" stroke="#263238" stroke-linecap="round" stroke-linejoin="round" stroke-miterlimit="20" stroke-width=".5" d="M62.985 99.33v0h-2.62a.651.651 0 0 1-.655-.654v0c0-.362.293-.656.655-.656h2.62c.361 0 .655.294.655.656v0a.654.654 0 0 1-.655.653z"/></g><g><path fill="#adc7f7" d="M69.918 94.523a1.374 1.374 0 0 1-1.27-.845 1.365 1.365 0 0 1 .3-1.492 1.377 1.377 0 0 1 1.497-.295 1.368 1.368 0 0 1-.527 2.632zm0-4.113a2.75 2.75 0 0 0-2.748 2.753 2.75 2.75 0 0 0 2.748 2.752 2.75 2.75 0 0 0 2.748-2.752c0-.73-.289-1.431-.804-1.948a2.743 2.743 0 0 0-1.944-.805z"/><path fill="none" stroke="#263238" stroke-linecap="round" stroke-linejoin="round" stroke-miterlimit="20" stroke-width=".5" d="M69.918 94.523a1.374 1.374 0 0 1-1.27-.845 1.365 1.365 0 0 1 .3-1.492 1.377 1.377 0 0 1 1.497-.295 1.368 1.368 0 0 1-.527 2.632zm0-4.113a2.75 2.75 0 0 0-2.748 2.753 2.75 2.75 0 0 0 2.748 2.752 2.75 2.75 0 0 0 2.748-2.752c0-.73-.289-1.431-.804-1.948a2.743 2.743 0 0 0-1.944-.805z"/></g><g><path fill="#263238" d="M69.925 90.41v1.38a1.374 1.374 0 0 1 .609 2.603 1.37 1.37 0 0 1-1.665-.353l-1.089.852a2.742 2.742 0 0 0 3.332.74 2.751 2.751 0 0 0-1.187-5.222z"/><path fill="none" stroke="#263238" stroke-linecap="round" stroke-linejoin="round" stroke-miterlimit="20" stroke-width=".5" d="M69.925 90.41v1.38a1.374 1.374 0 0 1 .609 2.603 1.37 1.37 0 0 1-1.665-.353l-1.089.852a2.742 2.742 0 0 0 3.332.74 2.751 2.751 0 0 0-1.187-5.222z"/></g><g><path fill="#adc7f7" d="M71.225 99.33h-2.62a.651.651 0 0 1-.655-.654.654.654 0 0 1 .655-.656h2.62a.654.654 0 1 1 0 1.31z"/><path fill="none" stroke="#263238" stroke-linecap="round" stroke-linejoin="round" stroke-miterlimit="20" stroke-width=".5" d="M71.225 99.33v0h-2.62a.651.651 0 0 1-.655-.654v0a.654.654 0 0 1 .655-.656h2.62c.361 0 .655.294.655.656v0a.654.654 0 0 1-.655.653z"/></g></g><g><g><path fill="#fff" d="M41.665 47.962c6.807 0 12.324-5.516 12.324-12.321S48.472 23.32 41.665 23.32c-6.807 0-12.325 5.516-12.325 12.321s5.518 12.32 12.325 12.32z"/></g><g><path fill="#fff" d="M45.401 104.196s1.78 2.675 1.535 3.734c-.245 1.059-1.81.732-2.55-.409-.742-1.14-2.626-2.844-2.285-3.576.341-.732 2.635-.4 3.3.251z"/><path fill="none" stroke="#263238" stroke-linecap="round" stroke-linejoin="round" stroke-miterlimit="20" stroke-width=".5" d="M45.401 104.196s1.78 2.675 1.535 3.734c-.245 1.059-1.81.732-2.55-.409-.742-1.14-2.626-2.844-2.285-3.576.341-.732 2.635-.4 3.3.251z"/></g><g><path fill="#fff" d="M37.753 104.042s-2.15 3.191-1.806 4.064c.345.872 1.46.612 2.311-.175.852-.788 2.553-2.999 2.553-2.999s-1.43-1.762-3.058-.89z"/><path fill="none" stroke="#263238" stroke-linecap="round" stroke-linejoin="round" stroke-miterlimit="20" stroke-width=".5" d="M37.753 104.042s-2.15 3.191-1.806 4.064c.345.872 1.46.612 2.311-.175.852-.788 2.553-2.999 2.553-2.999v0s-1.43-1.762-3.058-.89z"/></g><g><path fill="none" stroke="#263238" stroke-linecap="round" stroke-linejoin="round" stroke-miterlimit="20" stroke-width=".5" d="M35.95 108.103a2.653 2.653 0 0 0 1.686-.33c.98-.496 2.69-2.733 2.69-2.733v0"/></g><g><path fill="none" stroke="#263238" stroke-linecap="round" stroke-linejoin="round" stroke-miterlimit="20" stroke-width=".5" d="M42.7 104.47v0s.93 1.75 1.978 2.742 1.561 1.275 2.25.709"/></g><g><path fill="#263238" d="M34.74 64.22s-1.882 3.839-1.797 5.408c.084 1.57.429 9.509.942 12.125.514 2.617 1.019 9.133 1.369 11.738.35 2.605 2.594 8.707 2.594 8.707s-.345 1.397-.088 1.832c.257.434 2.973 1.152 3.058.89.085-.263.513-1.048.583-1.832.07-.785-1.196-9.16-.682-10.991.513-1.832.612-14.147.682-15.416.07-1.269-.02-3.5-.02-3.5a.803.803 0 0 0 .858-.26c.341-.437 1.473 11.42 1.818 14.211.344 2.792-.43 3.576-.686 5.32-.257 1.745-.855 7.412-.855 8.113 0 .7-.77 2.963-.429 3.4.342.438 1.068.365 1.366.447.892.248 1.59-.14 1.931-.228.342-.087.63-1.35.63-1.35s2.749-7.765 3.263-10.994c.513-3.229 1.368-9.22 1.199-12.884-.17-3.663-1.2-11.084-1.2-11.084l-.256-2.182z"/><path fill="none" stroke="#263238" stroke-linecap="round" stroke-linejoin="round" stroke-miterlimit="20" stroke-width=".5" d="M34.74 64.22v0s-1.882 3.839-1.797 5.408c.084 1.57.429 9.509.942 12.125.514 2.617 1.019 9.133 1.369 11.738.35 2.605 2.594 8.707 2.594 8.707v0s-.345 1.397-.088 1.832c.257.434 2.973 1.152 3.058.89.085-.263.513-1.048.583-1.832.07-.785-1.196-9.16-.682-10.991.513-1.832.612-14.147.682-15.416.07-1.269-.02-3.5-.02-3.5a.803.803 0 0 0 .858-.26c.341-.437 1.473 11.42 1.818 14.211.344 2.792-.43 3.576-.686 5.32-.257 1.745-.855 7.412-.855 8.113 0 .7-.77 2.963-.429 3.4.342.438 1.068.365 1.366.447.892.248 1.59-.14 1.931-.228.342-.087.63-1.35.63-1.35v0s2.749-7.765 3.263-10.994c.513-3.229 1.368-9.22 1.199-12.884-.17-3.663-1.2-11.084-1.2-11.084v0l-.256-2.182v0z"/></g><g><path fill="none" stroke="#fff" stroke-linecap="round" stroke-linejoin="round" stroke-miterlimit="20" stroke-width=".5" d="M33.536 68.66s-.166 2.153 1.243 3.559"/></g><g><path fill="none" stroke="#fff" stroke-linecap="round" stroke-linejoin="round" stroke-miterlimit="20" stroke-width=".5" d="M33.62 71.72s.829 1.409 1.824 1.572"/></g><g><path fill="none" stroke="#fff" stroke-linecap="round" stroke-linejoin="round" stroke-miterlimit="20" stroke-width=".5" d="M40.236 95.28v0s-1.167 2.783-1.324 4.302c-.158 1.52 1.324.928 1.657 1.94.333 1.012-1.987.93-1.573 1.181.415.251 1.655.423 1.655.423v0"/></g><g><path fill="none" stroke="#fff" stroke-linecap="round" stroke-linejoin="round" stroke-miterlimit="20" stroke-width=".5" d="M42.49 102.202c.248-.085 3.064-.584 2.731-2.11-.333-1.525-1.987-1.604-1.75-3.374.236-1.77 2.812-5.656 2.812-6.753 0-1.097-1.82-5.183-1.987-7.715"/></g><g><path fill="none" stroke="#fff" stroke-linecap="round" stroke-linejoin="round" stroke-miterlimit="20" stroke-width=".5" d="M46.53 68.5v0s-1.905 2.73-2.153 3.144c-.248.415 2.235-1.82 2.235-1.82v0"/></g><g><path fill="none" stroke="#fff" stroke-linecap="round" stroke-linejoin="round" stroke-miterlimit="20" stroke-width=".5" d="M41.552 67.53v0s.207 1.995.207 2.406v2.273"/></g><g><path fill="none" stroke="#fff" stroke-linecap="round" stroke-linejoin="round" stroke-miterlimit="20" stroke-width=".5" d="M41.76 70.97v0s.896-.136 1.1-.825c.204-.688.14-2.065.14-2.065v0"/></g><g><path fill="#adc7f7" d="M31.14 58.063c-.343-1.368-.511-1.88-.511-1.88s2.182-2.364 3.232-3.624c.142 3.381.232 7.08.134 7.622-.078.91-.057 1.825.06 2.73-.568-.784-2.626-3.67-2.916-4.848zm27.9-14.202c-1.027-2.996-1.199-4.62-1.283-5.475-.085-.855-1.027-.6-1.027-.6s-2.043 1.198-2.043 1.458.943 6.589 1.112 7.7c.103.652.16 1.31.172 1.97 0 0-3.595-3.851-4.537-4.793-.718-.72-1.287-1.336-1.897-1.704-.33-.291-.901-.4-1.783-.691-1.54-.513-3.165-1.712-5.05-1.628a11.207 11.207 0 0 0-3.595.858s-2.737 1.283-4.622 2.138c-.22.098-.428.22-.621.362-.31-.038-.954.128-1.69 1.776-1.024 2.31-5.646 8.386-6.419 10.524-.773 2.138.855 4.28 2.653 5.989a51.372 51.372 0 0 1 3.679 4.022l2.042-2.514c.058.56.156 1.114.292 1.66.257.854 1.112 1.796 4.537 2.041 3.426.245 11.12.718 10.869-1.027-.353-2.479-.172-10.44-.341-12.577a36.047 36.047 0 0 1 .084-4.113c.394.499 1.167 1.423 1.707 1.788.77.513 4.027 2.917 5.31 3.436 1.284.52 3.082-.341 3.852-2.042.77-1.7-.373-5.562-1.4-8.558z"/><path fill="none" stroke="#263238" stroke-linecap="round" stroke-linejoin="round" stroke-miterlimit="20" stroke-width=".5" d="M31.14 58.063c-.343-1.368-.511-1.88-.511-1.88s2.182-2.364 3.232-3.624c.142 3.381.232 7.08.134 7.622-.078.91-.057 1.825.06 2.73-.568-.784-2.626-3.67-2.916-4.848zm27.9-14.202c-1.027-2.996-1.199-4.62-1.283-5.475-.085-.855-1.027-.6-1.027-.6s-2.043 1.198-2.043 1.458.943 6.589 1.112 7.7c.103.652.16 1.31.172 1.97 0 0-3.595-3.851-4.537-4.793-.718-.72-1.287-1.336-1.897-1.704-.33-.291-.901-.4-1.783-.691-1.54-.513-3.165-1.712-5.05-1.628a11.207 11.207 0 0 0-3.595.858s-2.737 1.283-4.622 2.138c-.22.098-.428.22-.621.362-.31-.038-.954.128-1.69 1.776-1.024 2.31-5.646 8.386-6.419 10.524-.773 2.138.855 4.28 2.653 5.989a51.372 51.372 0 0 1 3.679 4.022l2.042-2.514c.058.56.156 1.114.292 1.66.257.854 1.112 1.796 4.537 2.041 3.426.245 11.12.718 10.869-1.027-.353-2.479-.172-10.44-.341-12.577a36.047 36.047 0 0 1 .084-4.113c.394.499 1.167 1.423 1.707 1.788.77.513 4.027 2.917 5.31 3.436 1.284.52 3.082-.341 3.852-2.042.77-1.7-.373-5.562-1.4-8.558z"/></g><g opacity=".1"><path d="M31.14 58.063c-.343-1.368-.511-1.88-.511-1.88s2.182-2.364 3.232-3.624c.142 3.381.232 7.08.134 7.622-.078.91-.057 1.825.06 2.73-.568-.784-2.626-3.67-2.916-4.848zm27.9-14.202c-1.027-2.996-1.199-4.62-1.283-5.475-.085-.855-1.027-.6-1.027-.6s-2.043 1.198-2.043 1.458.943 6.589 1.112 7.7c.103.652.16 1.31.172 1.97 0 0-3.595-3.851-4.537-4.793-.718-.72-1.287-1.336-1.897-1.704-.33-.291-.901-.4-1.783-.691-1.54-.513-3.165-1.712-5.05-1.628a11.207 11.207 0 0 0-3.595.858s-2.737 1.283-4.622 2.138c-.22.098-.428.22-.621.362-.31-.038-.954.128-1.69 1.776-1.024 2.31-5.646 8.386-6.419 10.524-.773 2.138.855 4.28 2.653 5.989a51.372 51.372 0 0 1 3.679 4.022l2.042-2.514c.058.56.156 1.114.292 1.66.257.854 1.112 1.796 4.537 2.041 3.426.245 11.12.718 10.869-1.027-.353-2.479-.172-10.44-.341-12.577a36.047 36.047 0 0 1 .084-4.113c.394.499 1.167 1.423 1.707 1.788.77.513 4.027 2.917 5.31 3.436 1.284.52 3.082-.341 3.852-2.042.77-1.7-.373-5.562-1.4-8.558z"/></g><g><path fill="none" stroke="#263238" stroke-linecap="round" stroke-linejoin="round" stroke-miterlimit="20" stroke-width=".5" d="M34.94 52.194a17.181 17.181 0 0 0 1.41-2.564"/></g><g><path fill="none" stroke="#263238" stroke-linecap="round" stroke-linejoin="round" stroke-miterlimit="20" stroke-width=".5" d="M37.089 49.87c-.198.413-.48.78-.829 1.076"/></g><g><path fill="none" stroke="#263238" stroke-linecap="round" stroke-linejoin="round" stroke-miterlimit="20" stroke-width=".5" d="M55.96 48.91c.023.996.443 1.94 1.167 2.625"/></g><g><path fill="none" stroke="#263238" stroke-linecap="round" stroke-linejoin="round" stroke-miterlimit="20" stroke-width=".5" d="M56.305 50.29c-.07.778.105 1.56.499 2.234"/></g><g><path fill="none" stroke="#263238" stroke-linecap="round" stroke-linejoin="round" stroke-miterlimit="20" stroke-width=".5" d="M30.625 56.184s-.63-.598-2.185-.339"/></g><g><path fill="none" stroke="#263238" stroke-linecap="round" stroke-linejoin="round" stroke-miterlimit="20" stroke-width=".5" d="M27.58 55.496s.432-.69 2.069-.175"/></g><g><path fill="none" stroke="#263238" stroke-linecap="round" stroke-linejoin="round" stroke-miterlimit="20" stroke-width=".5" d="M51.392 46.61c-.344.085-1.812 2.587-1.812 2.587v0l3.54-.948v0"/></g><g><path fill="#fff" d="M41.233 44.91s.663.91 2.154.498c1.49-.411 1.987-1.986 1.75-2.98-.236-.996-5.228-.167-3.904 2.481z"/><path fill="none" stroke="#263238" stroke-linecap="round" stroke-linejoin="round" stroke-miterlimit="20" stroke-width=".5" d="M41.233 44.91s.663.91 2.154.498c1.49-.411 1.987-1.986 1.75-2.98-.236-.996-5.228-.167-3.904 2.481z"/></g><g><path fill="#fff" d="M39.812 39.24s-1 .664-1.132 1.265c-.132.601.198 2.53.464 3.194.265.665 1.135 2.197 1.135 2.197s2.996-1.73 3.21-1.864c.212-.134 2.334 1.065 2.797.875.464-.19-1.132-4.262-1.864-5.125-.732-.863-3.545-1.345-4.61-.543z"/><path fill="none" stroke="#263238" stroke-linecap="round" stroke-linejoin="round" stroke-miterlimit="20" stroke-width=".5" d="M39.812 39.24s-1 .664-1.132 1.265c-.132.601.198 2.53.464 3.194.265.665 1.135 2.197 1.135 2.197v0s2.996-1.73 3.21-1.864c.212-.134 2.334 1.065 2.797.875.464-.19-1.132-4.262-1.864-5.125-.732-.863-3.545-1.345-4.61-.543z"/></g><g><path fill="#fff" d="M39.28 37.04s.067 1.065.201 2.663c.135 1.599.674 2.862 1.55 3.594.875.732 2.13 1.132 2.462.732.333-.4.733-2.062.584-3.063-.149-1-.333-3.127-.333-3.127z"/><path fill="none" stroke="#263238" stroke-linecap="round" stroke-linejoin="round" stroke-miterlimit="20" stroke-width=".5" d="M39.28 37.04v0s.067 1.065.201 2.663c.135 1.599.674 2.862 1.55 3.594.875.732 2.13 1.132 2.462.732.333-.4.733-2.062.584-3.063-.149-1-.333-3.127-.333-3.127v0z"/></g><g opacity=".5"><path fill="#adc7f7" d="M43.948 39.72c-.099-.93-.19-1.88-.19-1.88l-4.478-.8s.067 1.065.201 2.663c.051.74.222 1.465.505 2.15z"/></g><g><path fill="#fff" d="M37.82 35.446s-.998-.998-1.199-.134c-.201.863.601 2.2 1.733 1.864v-.797z"/><path fill="none" stroke="#263238" stroke-linecap="round" stroke-linejoin="round" stroke-miterlimit="20" stroke-width=".5" d="M37.82 35.446v0s-.998-.998-1.199-.134c-.201.863.601 2.2 1.733 1.864v-.797 0z"/></g><g opacity=".5"><path fill="#adc7f7" d="M37.82 35.446s-.998-.998-1.199-.134c-.201.863.601 2.2 1.733 1.864v-.797z"/><path fill="none" stroke="#263238" stroke-linecap="round" stroke-linejoin="round" stroke-miterlimit="20" stroke-width=".5" d="M37.82 35.446v0s-.998-.998-1.199-.134c-.201.863.601 2.2 1.733 1.864v-.797 0z"/></g><g><path fill="#fff" d="M36.943 33.643s1.666 4.46 3.13 5.326c1.465.866 4.395 1.662 5.194-1.459.8-3.12-1.33-7.656-2.063-8.99-.732-1.333-3.463-1.73-5.193-.4-1.73 1.331-2.125 2.591-1.068 5.523z"/><path fill="none" stroke="#263238" stroke-linecap="round" stroke-linejoin="round" stroke-miterlimit="20" stroke-width=".5" d="M36.943 33.643s1.666 4.46 3.13 5.326c1.465.866 4.395 1.662 5.194-1.459.8-3.12-1.33-7.656-2.063-8.99-.732-1.333-3.463-1.73-5.193-.4-1.73 1.331-2.125 2.591-1.068 5.523z"/></g><g opacity=".5"><path fill="#adc7f7" d="M38.785 29.87a5.706 5.706 0 0 1 2.253-.526l1.66-1.397c-1.091-.84-3.236-.942-4.683.172-1.733 1.333-2.133 2.596-1.068 5.528 0 0 1.666 4.46 3.131 5.326.52.305 1.082.53 1.669.668-.706-.91-1.792-2.357-2.136-3.095-.525-1.126-.75-3.45-1.427-4.801-.677-1.35-.449-1.35.601-1.876z"/></g><g><path fill="none" stroke="#263238" stroke-linecap="round" stroke-linejoin="round" stroke-miterlimit="20" stroke-width=".5" d="M39.21 32.11s.134-.8 1.132-.8"/></g><g><path fill="none" stroke="#263238" stroke-linecap="round" stroke-linejoin="round" stroke-miterlimit="20" stroke-width=".5" d="M39.82 32.91s.732.332.998-.4"/></g><g><path fill="none" stroke="#263238" stroke-linecap="round" stroke-linejoin="round" stroke-miterlimit="20" stroke-width=".5" d="M43.01 32.38s.732.332 1-.4"/></g><g><path fill="none" stroke="#263238" stroke-linecap="round" stroke-linejoin="round" stroke-miterlimit="20" stroke-width=".5" d="M42.4 30.849a.998.998 0 0 1 1.366-.056"/></g><g><path fill="#263238" d="M45.405 34.946c-.776-.339-2.626-1.085-3.245-.773-.8.4-2.865 1.8-2.865 2.864 0 0-1.33-1.797-1.33-2.465 0-.668.53-.875.067-1.73-.464-.854-1.135-.933-.934-1.93.184-.925 2.025-1.905 2.918-2.042a3.012 3.012 0 0 0 1.998.712c1.46 0 2.664-.937 2.664-2.098 0-1.16-1.193-2.094-2.664-2.094a3.234 3.234 0 0 0-.965.143c-1.395-.102-1.66.93-2.626 1.496s-1.573 2.235-1.573 2.235h.04c-.705 1.032-.702 2.278.065 4.375 0 0 1.666 4.46 3.13 5.326 1.465.867 4.395 1.663 5.194-1.458.195-.84.237-1.707.126-2.561z"/><path fill="none" stroke="#263238" stroke-linecap="round" stroke-linejoin="round" stroke-miterlimit="20" stroke-width=".5" d="M45.405 34.946c-.776-.339-2.626-1.085-3.245-.773-.8.4-2.865 1.8-2.865 2.864 0 0-1.33-1.797-1.33-2.465 0-.668.53-.875.067-1.73-.464-.854-1.135-.933-.934-1.93.184-.925 2.025-1.905 2.918-2.042a3.012 3.012 0 0 0 1.998.712c1.46 0 2.664-.937 2.664-2.098 0-1.16-1.193-2.094-2.664-2.094a3.234 3.234 0 0 0-.965.143c-1.395-.102-1.66.93-2.626 1.496s-1.573 2.235-1.573 2.235v0h.04c-.705 1.032-.702 2.278.065 4.375 0 0 1.666 4.46 3.13 5.326 1.465.867 4.395 1.663 5.194-1.458.195-.84.237-1.707.126-2.561z"/></g><g><path fill="none" stroke="#fff" stroke-linecap="round" stroke-linejoin="round" stroke-miterlimit="20" stroke-width=".5" d="M43.81 34.88s-.998 1.397-2.13.467"/></g><g><path fill="#fff" d="M34.219 63.11c.395.25.743.568 1.027.94.347.475.72.933 1.114 1.37 0 0 .94.085.855.514-.084.428-.256.682-.685.682-.43 0-1.369-.855-1.369-.855L33.793 67.9s-1.284-.94-1.713-2.139z"/><path fill="none" stroke="#263238" stroke-linecap="round" stroke-linejoin="round" stroke-miterlimit="20" stroke-width=".5" d="M34.219 63.11c.395.25.743.568 1.027.94.347.475.72.933 1.114 1.37 0 0 .94.085.855.514-.084.428-.256.682-.685.682-.43 0-1.369-.855-1.369-.855v0L33.793 67.9v0s-1.284-.94-1.713-2.139z"/></g><g><path fill="none" stroke="#263238" stroke-linecap="round" stroke-linejoin="round" stroke-miterlimit="20" stroke-width=".5" d="M41.665 47.962c6.807 0 12.324-5.516 12.324-12.321S48.472 23.32 41.665 23.32c-6.807 0-12.325 5.516-12.325 12.321s5.518 12.32 12.325 12.32z"/></g><g><path fill="#fff" d="M52.796 33.246s-.858-.088-1.027.426c-.17.513-.429 1.026-.429 1.37 0 .345.085.598.514.683.428.085.685-.513.685-.513z"/><path fill="none" stroke="#263238" stroke-linecap="round" stroke-linejoin="round" stroke-miterlimit="20" stroke-width=".5" d="M52.796 33.246v0s-.858-.088-1.027.426c-.17.513-.429 1.026-.429 1.37 0 .345.085.598.514.683.428.085.685-.513.685-.513v0z"/></g><g><path fill="#fff" d="M52.966 32.645s-.426 2.31-.426 2.995a2.59 2.59 0 0 0 .514 1.459c.156.177.366.297.598.341l.429-.513s-.514.685.169 1.54c.683.854 1.199.77 1.797.513.598-.257.77-.598.514-1.54-.257-.942-.426-2.482-.598-3.422-.173-.939-.77-1.283-1.112-1.283-.341 0-1.278-.347-1.885-.09z"/><path fill="none" stroke="#263238" stroke-linecap="round" stroke-linejoin="round" stroke-miterlimit="20" stroke-width=".5" d="M52.966 32.645s-.426 2.31-.426 2.995a2.59 2.59 0 0 0 .514 1.459c.156.177.366.297.598.341l.429-.513v0s-.514.685.169 1.54c.683.854 1.199.77 1.797.513.598-.257.77-.598.514-1.54-.257-.942-.426-2.482-.598-3.422-.173-.939-.77-1.283-1.112-1.283-.341 0-1.278-.347-1.885-.09z"/></g><g><path fill="none" stroke="#263238" stroke-linecap="round" stroke-linejoin="round" stroke-miterlimit="20" stroke-width=".5" d="M52.656 36.126v0s-.152-.53.493-.606c.644-.076 1.71-.19 1.71-.19v0"/></g><g><path fill="none" stroke="#263238" stroke-linecap="round" stroke-linejoin="round" stroke-miterlimit="20" stroke-width=".5" d="M52.73 34.756s1.48-.382 2.013-.306"/></g><g><path fill="none" stroke="#263238" stroke-linecap="round" stroke-linejoin="round" stroke-miterlimit="20" stroke-width=".5" d="M52.84 33.691a9.862 9.862 0 0 1 1.672-.151"/></g><g><path fill="none" stroke="#263238" stroke-linecap="round" stroke-linejoin="round" stroke-miterlimit="20" stroke-width=".5" d="M53.34 36.539a.99.99 0 0 0 .875.23"/></g></g></g></g></svg>