<svg xmlns="http://www.w3.org/2000/svg" width="243" height="205" viewBox="0 0 243 205"><g><g><g><g><path fill="#adc7f7" d="M215.966 164.481s34.184-39.563 25.401-90.16C232.585 23.722 187.287-2.77 156.902.23 126.518 3.229 96.285 32.95 66.58 36.63 36.875 40.308-7.858 66.455 1.185 116.216c9.044 49.762 36.54 54.61 81.03 56.458 44.49 1.848 107.457 24.614 133.751-8.193z"/></g><g opacity=".7"><path fill="#fff" d="M215.966 164.481s34.184-39.563 25.401-90.16C232.585 23.722 187.287-2.77 156.902.23 126.518 3.229 96.285 32.95 66.58 36.63 36.875 40.308-7.858 66.455 1.185 116.216c9.044 49.762 36.54 54.61 81.03 56.458 44.49 1.848 107.457 24.614 133.751-8.193z"/></g></g><g><g><path fill="#adc7f7" d="M159.317 204.98c17.196 0 31.136-4.43 31.136-9.895s-13.94-9.895-31.136-9.895c-17.197 0-31.137 4.43-31.137 9.895 0 5.464 13.94 9.894 31.137 9.894z"/></g><g opacity=".5"><path fill="#fff" d="M159.317 204.98c17.196 0 31.136-4.43 31.136-9.895s-13.94-9.895-31.136-9.895c-17.197 0-31.137 4.43-31.137 9.895 0 5.464 13.94 9.894 31.137 9.894z"/></g></g><g><g><path fill="#263238" d="M25.53 41.59h132.387v141.902H25.53z"/></g><g><path fill="#263238" d="M25.834 41.885h131.779v141.287H25.833zm132.387 141.6V41.582a.303.303 0 0 0-.304-.303H25.554a.303.303 0 0 0-.304.303v141.901c0 .167.136.303.304.303h132.363a.303.303 0 0 0 .304-.303z"/></g><g><path fill="#fff" d="M30.43 49.26h113.506v130.417H30.43z"/></g><g><g><path fill="#263238" d="M30.43 49.26h113.506v130.417H30.43z"/></g><g opacity=".6"><path fill="#fff" d="M30.43 49.26h113.506v130.417H30.43z"/></g><g><path fill="#263238" d="M26.23 162.24h124.716v12.803H26.23z"/></g><g><path fill="#fff" d="M26.528 162.545h124.114v12.189H26.528zm124.722 12.5v-12.802a.303.303 0 0 0-.304-.303H26.224a.303.303 0 0 0-.304.303v12.803c0 .167.136.302.304.302h124.722a.303.303 0 0 0 .304-.302z"/></g><g><path fill="#263238" d="M100.183 120.142a8.054 8.054 0 0 0 2.377.26s-.365-1.095-.395-1.161c-.371-.769-1.538-2.04-2.493-1.912a1.137 1.137 0 0 0-.772.506c-.174.27-.225.6-.14.91.247.65.766 1.16 1.423 1.397z"/></g><g><path fill="#263238" d="M111.683 139.952a51.424 51.424 0 0 1-1.49 3.153c-.079.151-.146.284-.212.405h-.061c0-.145-.043-.302-.067-.484a45.009 45.009 0 0 0-.608-3.467 78.801 78.801 0 0 0-.304-1.428c.45-.175.888-.377 1.313-.605a8.43 8.43 0 0 0 1.915 1.21zm8.133-23.543c0 .067-.377 1.174-.358 1.174-.177.2-.371.423-.578.672-.37.453-.79.974-1.216 1.567a19.35 19.35 0 0 0-1.252 1.984 14.62 14.62 0 0 0-1.07 2.42v-1.089c-.11-.847-.82-2.42-1.769-2.59a1.135 1.135 0 0 0-.891.24c-.25.202-.4.5-.416.82.027.696.36 1.344.912 1.773a7.872 7.872 0 0 0 2.152.98c-.262.85-.465 1.718-.608 2.596-.091.508-.17 1.028-.237 1.548v-.49c-.11-.847-.827-2.42-1.769-2.59a1.134 1.134 0 0 0-.893.241c-.25.204-.4.504-.414.825.026.694.36 1.34.912 1.766a7.627 7.627 0 0 0 2.085.962c0 .2-.049.394-.073.606-.115.956-.225 1.912-.365 2.85-.048.326-.109.653-.17.974v-.424c-.115-.847-.827-2.42-1.769-2.59a1.14 1.14 0 0 0-.895.24 1.13 1.13 0 0 0-.418.825c.03.694.363 1.34.912 1.767a7.39 7.39 0 0 0 2.03.944c-.073.327-.14.66-.225.974-.06.212-.103.424-.176.635-.073.212-.14.424-.207.606-.14.393-.291.804-.437 1.21-.104.266-.207.514-.31.768.054-.327.14-.968.14-1.022a4.39 4.39 0 0 0-.608-2.136 1.119 1.119 0 0 0-.476-1.043 1.129 1.129 0 0 0-.91-.167c-.93.242-1.52 1.863-1.563 2.716 0 .049 0 .605.061.944-.048-.2-.091-.393-.14-.605a32.152 32.152 0 0 0-.328-1.252c-.06-.206-.121-.418-.188-.605-.067-.188-.152-.43-.225-.648-.183-.502-.395-.998-.608-1.494a7.365 7.365 0 0 0 2.14-.8c.579-.385.959-1.004 1.04-1.693a1.135 1.135 0 0 0-.352-.847 1.146 1.146 0 0 0-.865-.315c-.954.109-1.78 1.622-1.957 2.457 0 .048-.067.665-.091 1.004-.134-.303-.268-.605-.42-.896-.425-.853-.881-1.706-1.337-2.559l-.413-.78a7.926 7.926 0 0 0 2.218-.817 2.352 2.352 0 0 0 1.046-1.7 1.129 1.129 0 0 0-.351-.846 1.14 1.14 0 0 0-.865-.31c-.954.103-1.781 1.615-1.957 2.45 0 .067-.091.95-.104 1.174-.297-.575-.608-1.156-.857-1.736a20.327 20.327 0 0 1-.942-2.42 7.999 7.999 0 0 0 2.237-.818 2.364 2.364 0 0 0 1.04-1.7 1.129 1.129 0 0 0-.352-.845 1.14 1.14 0 0 0-.864-.31c-.955.102-1.781 1.615-1.958 2.45 0 .067-.097 1.017-.097 1.21l-.055-.145a14.01 14.01 0 0 1-.48-2.541 18.614 18.614 0 0 1-.097-1.38 7.634 7.634 0 0 0 2.255-.563 2.35 2.35 0 0 0 1.216-1.573 1.122 1.122 0 0 0-.256-.884 1.133 1.133 0 0 0-.832-.399c-.96 0-1.952 1.41-2.219 2.221 0 .048-.11.508-.17.847v-.605c0-.72.048-1.386.091-1.966.03-.333.06-.636.097-.914a7.777 7.777 0 0 0 1.63-1.555 2.345 2.345 0 0 0 .358-1.955 1.142 1.142 0 0 0-1.562-.641c-.857.436-1.076 2.148-.936 2.99 0 .072.334 1.21.346 1.179a25.688 25.688 0 0 0-.243 2.85c-.026.78-.008 1.563.055 2.342.066.874.213 1.741.437 2.59-.152-.237-.608-.878-.608-.926-.565-.648-2.03-1.562-2.911-1.21a1.133 1.133 0 0 0-.505 1.61 2.38 2.38 0 0 0 1.745.973 8.114 8.114 0 0 0 2.334-.363c.25.855.554 1.694.912 2.511.207.478.432.95.663 1.422-.14-.2-.262-.381-.28-.4-.565-.647-2.03-1.567-2.912-1.21a1.127 1.127 0 0 0-.505 1.603 2.434 2.434 0 0 0 1.745.981c.772 0 1.538-.12 2.274-.35.085.18.176.362.267.544.438.859.876 1.718 1.277 2.577.146.303.273.605.401.908a11.633 11.633 0 0 0-.243-.351c-.56-.641-2.024-1.561-2.912-1.21a1.127 1.127 0 0 0-.498 1.61 2.355 2.355 0 0 0 1.738.974 7.326 7.326 0 0 0 2.213-.327c.121.308.25.605.352.932.067.211.152.417.207.605.055.187.116.43.176.641l.292 1.21c.061.279.116.545.17.811-.14-.303-.425-.89-.456-.932-.455-.726-1.762-1.851-2.693-1.615a1.127 1.127 0 0 0-.742 1.513 2.387 2.387 0 0 0 1.575 1.21 8 8 0 0 0 2.353 0 60.036 60.036 0 0 1 .748 4.732c0 .15.03.284.042.405h-2.85l1.057 20.493h4.918l1.057-20.493h-2.693l.061-.121c.371-.769.882-1.87 1.435-3.213.176-.43.352-.884.535-1.356.769.176 1.56.237 2.346.182a2.377 2.377 0 0 0 1.66-1.108 1.12 1.12 0 0 0-.608-1.56c-.912-.31-2.298.72-2.809 1.41-.03.035-.303.513-.474.816.073-.194.146-.381.22-.605.139-.393.273-.787.419-1.21.066-.212.127-.418.188-.636.06-.217.116-.435.176-.659.122-.514.22-1.047.31-1.585.711.283 1.462.457 2.225.514.704 0 1.372-.31 1.824-.847a1.121 1.121 0 0 0-.383-1.64c-.851-.436-2.383.37-2.99.974-.037.037-.426.515-.609.787.055-.327.104-.648.146-.974.122-.95.207-1.912.304-2.874 0-.29.06-.605.091-.878a7.86 7.86 0 0 0 2.304.539 2.345 2.345 0 0 0 1.824-.847 1.115 1.115 0 0 0-.377-1.634c-.857-.442-2.383.37-2.99.968-.05.049-.609.738-.736.92.066-.642.14-1.289.243-1.918.128-.853.312-1.696.553-2.523.74.296 1.52.48 2.316.544a2.375 2.375 0 0 0 1.824-.847 1.127 1.127 0 0 0-.377-1.64c-.857-.435-2.39.37-2.991.974-.049.049-.65.793-.748.932l.037-.145c.266-.824.604-1.624 1.009-2.39.219-.424.45-.817.68-1.21a7.494 7.494 0 0 0 2.195.768 2.365 2.365 0 0 0 1.89-.641 1.122 1.122 0 0 0-.194-1.67c-.802-.526-2.431.109-3.082.641l-.608.605c.104-.169.213-.344.322-.508.402-.605.809-1.125 1.168-1.591.212-.26.407-.496.608-.708a7.589 7.589 0 0 0 2.285-.327 2.365 2.365 0 0 0 1.386-1.434 1.134 1.134 0 0 0-.27-.876 1.145 1.145 0 0 0-.83-.395c-.954-.096-2.085 1.21-2.432 1.985z"/></g><g><path fill="#263238" d="M117.226 120.505s.304-1.113.316-1.21c.122-.847-.152-2.547-1.015-2.965a1.135 1.135 0 0 0-1.544.684c-.16.676-.011 1.387.407 1.942a8.094 8.094 0 0 0 1.836 1.55z"/></g><g><path fill="#263238" d="M20.181 100.391c.997.436 3.44.382 3.44.382s-.522-1.592-.57-1.688c-.536-1.114-2.232-2.96-3.612-2.772-.46.074-.868.34-1.12.732a1.627 1.627 0 0 0-.199 1.32c.225.95 1.21 1.657 2.061 2.026z"/></g><g><path fill="#263238" d="M36.86 129.105a86.837 86.837 0 0 1-2.16 4.573l-.304.606h-.09c-.033-.21-.064-.447-.092-.71a88.769 88.769 0 0 0-.85-5.032c-.127-.655-.278-1.351-.442-2.066.651-.26 1.287-.558 1.905-.89a11.974 11.974 0 0 0 2.767 1.78 49.056 49.056 0 0 1-.734 1.739zM48.65 94.98c-.043.103-.547 1.706-.523 1.706h.03c-.26.297-.54.605-.838.975a39.846 39.846 0 0 0-1.751 2.275 30.403 30.403 0 0 0-1.824 2.88 20.609 20.609 0 0 0-1.55 3.473v-1.58c-.158-1.21-1.216-3.509-2.565-3.757a1.653 1.653 0 0 0-1.306.337c-.367.292-.59.727-.615 1.194-.08.974.608 1.948 1.319 2.565.711.618 2.948 1.368 3.124 1.416a28.462 28.462 0 0 0-.917 3.77 52.432 52.432 0 0 0-.347 2.245v-.708c-.158-1.21-1.216-3.51-2.56-3.758a1.653 1.653 0 0 0-1.297.349 1.637 1.637 0 0 0-.605 1.194c-.079.974.608 1.949 1.325 2.566.718.617 2.541 1.21 3.04 1.391l-.11.866c-.17 1.391-.328 2.783-.528 4.138-.067.478-.159.944-.244 1.416v-.605c-.164-1.21-1.215-3.503-2.565-3.757a1.653 1.653 0 0 0-1.294.35c-.361.295-.58.728-.603 1.193-.085.974.608 1.954 1.32 2.565a10.508 10.508 0 0 0 2.942 1.368c-.104.472-.2.956-.322 1.41-.092.314-.152.605-.262.925-.11.32-.2.605-.298.914-.206.569-.42 1.162-.608 1.712-.145.387-.297.757-.443 1.12.073-.472.2-1.41.2-1.489a6.319 6.319 0 0 0-.857-3.098c.012-.12.012-.242 0-.363a1.639 1.639 0 0 0-.698-1.14 1.654 1.654 0 0 0-1.32-.246c-1.344.351-2.2 2.705-2.261 3.94 0 .072.042.87.085 1.373-.073-.296-.134-.605-.207-.877-.14-.605-.298-1.18-.468-1.816-.091-.302-.182-.605-.28-.92-.097-.314-.213-.604-.322-.931a34.619 34.619 0 0 0-.894-2.166c.517-.127 2.365-.605 3.1-1.156.736-.55 1.423-1.482 1.423-2.444a1.636 1.636 0 0 0-.513-1.238 1.652 1.652 0 0 0-1.268-.445c-1.386.152-2.583 2.348-2.839 3.558 0 .079-.097.968-.127 1.459-.201-.436-.396-.866-.608-1.295-.608-1.24-1.29-2.475-1.946-3.715l-.608-1.132c.189-.042 2.39-.557 3.216-1.21.827-.654 1.52-1.483 1.514-2.463a1.636 1.636 0 0 0-.515-1.233c-.34-.32-.8-.48-1.266-.443-1.38.145-2.584 2.342-2.833 3.552 0 .09-.14 1.373-.152 1.7-.438-.835-.863-1.67-1.216-2.51a29.22 29.22 0 0 1-1.361-3.498c.085 0 2.389-.539 3.24-1.21.735-.563 1.513-1.483 1.507-2.463a1.636 1.636 0 0 0-.515-1.233c-.34-.32-.8-.48-1.266-.443-1.38.145-2.583 2.342-2.833 3.552 0 .097-.146 1.476-.152 1.724 0-.066-.048-.139-.067-.205a20.723 20.723 0 0 1-.705-3.691 22.955 22.955 0 0 1-.133-1.991c.437-.055 2.431-.32 3.27-.823.839-.502 1.672-1.307 1.769-2.281a1.634 1.634 0 0 0-.373-1.283 1.65 1.65 0 0 0-1.208-.58c-1.392 0-2.826 2.05-3.215 3.224 0 .067-.158.738-.256 1.21v-.87c0-1.048.073-2.01.134-2.857.043-.484.091-.92.14-1.325.401-.278 2.012-1.41 2.51-2.214.499-.805.876-1.93.517-2.844a1.643 1.643 0 0 0-.926-.966 1.654 1.654 0 0 0-1.341.04c-1.216.605-1.562 3.116-1.362 4.338 0 .103.486 1.719.51 1.707-.054.393-.109.81-.157 1.27a36.912 36.912 0 0 0-.2 2.862 29.681 29.681 0 0 0 .084 3.4c.088 1.267.291 2.523.608 3.752a.15.15 0 0 0 0 .043 32.49 32.49 0 0 0-.924-1.35c-.814-.932-2.936-2.263-4.219-1.724a1.633 1.633 0 0 0-.73 2.33c.475.859 1.606 1.282 2.53 1.415 1.033.151 3.215-.478 3.386-.532.359 1.238.802 2.451 1.325 3.63.298.696.608 1.38.954 2.063-.194-.29-.377-.544-.407-.605-.815-.931-2.936-2.269-4.219-1.724a1.633 1.633 0 0 0-.73 2.33c.475.859 1.606 1.282 2.53 1.415.924.133 2.802-.363 3.294-.502.128.26.256.52.39.78.607 1.253 1.264 2.5 1.823 3.74.207.442.39.877.608 1.313-.182-.254-.328-.472-.359-.502-.814-.932-2.936-2.27-4.218-1.725a1.633 1.633 0 0 0-.73 2.33c.474.86 1.605 1.283 2.529 1.416a10.745 10.745 0 0 0 3.203-.478c.183.454.36.907.517 1.355.097.309.213.605.292.914.079.308.176.605.261.92.14.605.292 1.21.42 1.784.085.406.164.793.243 1.18-.2-.435-.608-1.288-.65-1.355-.663-1.047-2.56-2.687-3.91-2.342-.448.128-.822.44-1.027.857a1.633 1.633 0 0 0-.048 1.334c.334.92 1.392 1.512 2.28 1.779.978.302 3.142.03 3.416 0 .127.641.249 1.27.352 1.863.365 2.057.608 3.788.73 4.992 0 .218.042.412.067.605h-4.195l1.532 29.715h7.18l1.525-29.715h-3.903l.086-.181a83.818 83.818 0 0 0 2.085-4.66c.255-.605.51-1.282.772-1.966.261.055 2.431.49 3.404.266.906-.205 2.006-.714 2.431-1.603.209-.417.23-.903.056-1.336a1.644 1.644 0 0 0-.961-.933c-1.32-.442-3.338 1.053-4.073 2.045-.043.06-.444.75-.693 1.21.103-.278.213-.55.316-.835.213-.575.401-1.15.608-1.773l.273-.913c.104-.303.165-.642.25-.962.182-.75.322-1.52.456-2.294.504.182 2.297.805 3.227.739.93-.067 2.092-.406 2.627-1.21a1.64 1.64 0 0 0-.554-2.379c-1.215-.605-3.459.533-4.34 1.404-.055.055-.608.757-.918 1.144.08-.466.152-.938.213-1.41.17-1.374.298-2.771.438-4.163.042-.43.085-.853.133-1.277.177.067 2.298.854 3.338.78.924-.066 2.09-.404 2.626-1.21a1.64 1.64 0 0 0-.553-2.377c-1.216-.635-3.46.532-4.34 1.404-.068.066-.87 1.07-1.065 1.337.098-.938.207-1.87.353-2.784.186-1.236.454-2.459.802-3.66.08.036 2.292.865 3.356.786.93-.06 2.091-.399 2.626-1.21a1.634 1.634 0 0 0-.553-2.378c-1.216-.635-3.46.539-4.34 1.41-.067.067-.937 1.15-1.076 1.355l.054-.211c.382-1.195.87-2.353 1.46-3.461.315-.605.65-1.21.99-1.737.395.194 2.213 1.071 3.18 1.107.966.037 2.12-.169 2.747-.925a1.64 1.64 0 0 0-.292-2.42c-1.155-.763-3.49.157-4.462.925-.054.042-.547.533-.9.89.159-.248.317-.503.475-.733a47.106 47.106 0 0 1 1.696-2.31c.304-.382.608-.721.85-1.03.487 0 2.432-.072 3.32-.472.887-.399 1.824-1.125 2.006-2.081a1.64 1.64 0 0 0-.242-1.326 1.655 1.655 0 0 0-1.156-.701c-1.386-.145-3.04 1.743-3.538 2.868z"/></g><g><path fill="#263238" d="M44.897 100.925s.444-1.615.462-1.724c.17-1.21-.225-3.691-1.477-4.296a1.654 1.654 0 0 0-1.343-.005 1.643 1.643 0 0 0-.9.991c-.335.92.09 2.051.608 2.826.577.907 2.65 2.208 2.65 2.208z"/></g><g><path fill="#fff" d="M78.12 121.99v43.02c0 1.78 5.088 3.22 11.362 3.22 6.273 0 11.367-1.44 11.367-3.22v-43.02z"/></g><g><path fill="#263238" d="M100.557 122.295v42.703c0 1.379-4.547 2.916-11.063 2.916-6.517 0-11.058-1.537-11.058-2.916v-42.703zm.59 42.712v-43.014a.303.303 0 0 0-.304-.303h-22.73a.303.303 0 0 0-.303.303v43.014c0 2.312 6.012 3.522 11.665 3.522 5.66 0 11.672-1.235 11.672-3.522z"/></g><g><path fill="#fff" d="M89.478 123.477c6.278 0 11.367-.666 11.367-1.489 0-.822-5.09-1.488-11.367-1.488-6.279 0-11.368.666-11.368 1.488 0 .823 5.09 1.489 11.368 1.489z"/></g><g><path fill="#263238" d="M89.47 120.785c6.502 0 10.567.708 11.035 1.21-.468.496-4.539 1.18-11.034 1.18-6.496 0-10.567-.684-11.035-1.18.468-.502 4.533-1.21 11.034-1.21zm11.677 1.21c0-1.815-11.197-1.815-11.672-1.815-.474 0-11.665.03-11.665 1.815s11.191 1.785 11.665 1.785c.511 0 11.672.03 11.672-1.785z"/></g><g><path fill="#adc7f7" d="M81.18 111.558s5.197-14.128 8.255-14.128c3.058 0 8.413 13.959 8.413 13.959l-.905.085s-5.283-12.24-6.851-12.98c-1.569-.737-4.456 3.71-8.006 13.064z"/></g><g><path fill="#263238" d="M89.44 97.769c2.036 0 5.83 7.872 7.987 13.397h-.291c-.827-1.948-5.35-12.199-6.906-12.931a1.22 1.22 0 0 0-1.021 0c-1.806.726-4.402 5.349-7.326 13.034h-.26c2.09-5.591 5.78-13.5 7.817-13.5zm-7.028 13.887c4.055-10.692 6.286-12.568 7.058-12.876a.61.61 0 0 1 .535 0c1.052.502 4.663 8.132 6.687 12.827a.31.31 0 0 0 .304.182l.912-.085a.316.316 0 0 0 .23-.14.295.295 0 0 0 0-.265c-.559-1.452-5.52-14.159-8.698-14.159-3.18 0-8 12.858-8.541 14.322a.301.301 0 0 0 .036.278.298.298 0 0 0 .25.134h.905a.304.304 0 0 0 .322-.218z"/></g><g><path fill="#adc7f7" d="M81.713 110.75H97.33c.973 0 1.763.786 1.763 1.755v8.338c0 .775-.632 1.403-1.41 1.403H81.36c-.779 0-1.41-.628-1.41-1.403v-8.338c0-.97.79-1.755 1.763-1.755z"/></g><g><path fill="#263238" d="M97.33 111.046a1.462 1.462 0 0 1 1.459 1.452v8.337c0 .608-.495 1.1-1.106 1.1H81.354a1.104 1.104 0 0 1-1.106-1.1v-8.337a1.462 1.462 0 0 1 1.465-1.452zm2.067 9.79v-8.339a2.062 2.062 0 0 0-2.067-2.057H81.713c-1.143 0-2.07.92-2.073 2.057v8.338a1.71 1.71 0 0 0 1.714 1.706h16.328a1.71 1.71 0 0 0 1.715-1.706z"/></g><g><path fill="#263238" d="M97.439 117.205H80.114a.303.303 0 1 1 0-.605h17.325a.303.303 0 1 1 0 .605z"/></g><g><path fill="#adc7f7" d="M98.186 111.16s-.413.49-.413 1.888-.498 8.792-.413 9.118c.085.327.577.079.577.079"/></g><g><path fill="#263238" d="M97.592 122.64a.52.52 0 0 1-.535-.4c-.048-.193 0-1.21.195-4.665.103-1.906.213-3.884.213-4.526 0-1.464.431-2.027.48-2.081.11-.126.3-.144.432-.042a.302.302 0 0 1 .042.423 2.96 2.96 0 0 0-.346 1.7c0 .66-.11 2.645-.22 4.557-.096 1.766-.212 3.927-.206 4.423l.146-.049a.305.305 0 0 1 .46.284.303.303 0 0 1-.186.255 1.086 1.086 0 0 1-.475.12z"/></g><g><path fill="#fff" d="M88.11 115.26h1.32v2.959h-1.32z"/></g><g><path fill="#263238" d="M88.418 115.565h.717v2.338h-.717zm1.238 2.862a.302.302 0 0 0 .087-.218v-2.946a.303.303 0 0 0-.304-.303h-1.325a.303.303 0 0 0-.304.303v2.952c0 .167.136.303.304.303h1.325c.082 0 .16-.033.217-.09z"/></g><g><path fill="#263238" d="M54.6 100.223a36.959 36.959 0 0 0-2.475 10.68c-.577 6.407 2.31 17.825 3.648 21.685 1.337 3.86 2.644 9.118 2.887 9.941.243.823 1.49 6.898 2.231 10.432.742 3.533.742 8.955.164 10.347-.577 1.391-3.793 3.781-4.127 4.193-.335.411.498.653 2.146.49 1.647-.164 3.221-1.561 4.212-1.973a2.661 2.661 0 0 0 1.648-2.626c0-1.313-.657-2.462 0-6.734.656-4.272.662-12.568.662-12.568s1.733 6.487 2.724 11.745c.99 5.258 2.389 11.254 2.638 12.567a2.246 2.246 0 0 0 2.23 1.888 1.95 1.95 0 0 0 1.477-.622c.38-.409.564-.96.506-1.514 0-1.56-3.04-4.925-3.55-7.472-.511-2.548.99-10.843 1.319-15.03.328-4.188-.845-9.119-1.192-12.919-.346-3.8.669-5.445 2.56-13.39a36.876 36.876 0 0 0-.414-17.166c-1.216-4.108-1.483-4.187-1.483-4.187a23.329 23.329 0 0 1-17.811 2.233z"/></g><g><path fill="#263238" d="M65.519 143.782a.303.303 0 0 0-.261.303c0 .078-.013 8.32-.657 12.519a16.919 16.919 0 0 0-.115 5.693c.064.36.1.724.109 1.09a2.359 2.359 0 0 1-1.465 2.347c-.41.193-.807.416-1.185.666a7.53 7.53 0 0 1-2.936 1.289 4.726 4.726 0 0 1-1.824-.06c.115-.104.413-.346.723-.606 1.174-.998 2.949-2.499 3.392-3.582.645-1.543.566-7.152-.146-10.522-.17-.908-.383-1.948-.607-3.026-.7-3.358-1.423-6.855-1.611-7.46a27.027 27.027 0 0 1-.335-1.21c-.54-2.009-1.544-5.754-2.553-8.713-1.49-4.345-4.164-15.508-3.617-21.559a38.091 38.091 0 0 1 2.353-10.322c8.778 2.432 16.06-1.325 17.543-2.167a35.237 35.237 0 0 1 1.708 20.87c-.553 2.341-1.04 4.15-1.422 5.602-.948 3.528-1.38 5.15-1.143 7.866.11 1.229.298 2.566.505 3.982.425 2.977.869 6.062.65 8.864-.115 1.398-.352 3.255-.608 5.216-.516 4.011-1.051 8.156-.711 9.899.237 1.355 1.216 2.928 2.06 4.308.76 1.252 1.484 2.432 1.484 3.104.05.47-.104.938-.426 1.286-.32.348-.777.54-1.252.529a1.943 1.943 0 0 1-1.933-1.64c-.079-.442-.286-1.38-.571-2.68-.566-2.548-1.41-6.39-2.067-9.887-.979-5.21-2.73-11.702-2.73-11.769a.304.304 0 0 0-.291-.224zm7.653 26.811a2.248 2.248 0 0 0 1.738-.717c.446-.481.657-1.132.579-1.782 0-.841-.748-2.081-1.569-3.419-.82-1.337-1.745-2.856-1.988-4.108-.322-1.622.231-5.906.718-9.681.255-1.973.498-3.836.608-5.246.224-2.868-.244-6.13-.657-8.998-.2-1.41-.395-2.74-.498-3.95-.231-2.615.194-4.2 1.118-7.673.39-1.458.875-3.267 1.429-5.621a36.984 36.984 0 0 0-.414-17.323c-1.282-4.26-1.532-4.345-1.684-4.393a.336.336 0 0 0-.261.036c-.073.049-7.927 4.98-17.574 2.178a.317.317 0 0 0-.365.17 37.808 37.808 0 0 0-2.498 10.776c-.554 6.13 2.145 17.396 3.647 21.783 1.003 2.94 2.006 6.674 2.54 8.676.165.618.287 1.06.341 1.253.183.605.937 4.217 1.6 7.412l.607 2.995c.736 3.516.723 8.865.182 10.171-.389.932-2.237 2.512-3.228 3.353a7.623 7.623 0 0 0-.857.768.5.5 0 0 0-.079.605c.225.4 1.064.545 2.493.4a7.83 7.83 0 0 0 3.197-1.374c.35-.23.718-.433 1.1-.605a2.982 2.982 0 0 0 1.824-2.91 8.148 8.148 0 0 0-.115-1.174 16.22 16.22 0 0 1 .115-5.519c.4-3.414.614-6.848.638-10.286.59 2.354 1.538 6.19 2.146 9.5.657 3.51 1.508 7.357 2.067 9.905.274 1.246.493 2.233.572 2.662a2.562 2.562 0 0 0 2.528 2.136z"/></g><g><path fill="#fff" d="M54.524 74.927s-3.04.738-4.127.987a2.038 2.038 0 0 0-1.416.848 2.02 2.02 0 0 0-.317 1.614c.164 1.561-.334 10.105-.498 12.325-.164 2.221 3.222 2.463 4.127.817a26.427 26.427 0 0 0 1.654-4.023s.407 4.108.407 6.244-.492 5.446-.164 6.571c.328 1.125 7.015 2.136 11.805 2.215 4.79.078 7.508-2.626 7.508-3.776s.164-6.492.492-8.132c.228-1.33.366-2.675.414-4.024 0 0 .747 7.061 1.325 8.374.577 1.313 3.38.987 4.292-.653.911-1.64-.335-6.16-.499-9.203-.164-3.044-.328-3.94-.328-6.051 0-2.112 1.155-3.025-.414-3.697-1.568-.672-4.79-.823-4.79-.823s-8 .411-11.55.085a38.975 38.975 0 0 0-7.92.302z"/></g><g><path fill="#263238" d="M53.952 87.191a.304.304 0 0 0-.28.212 26.113 26.113 0 0 1-1.628 3.97 2.206 2.206 0 0 1-2.48.816 1.386 1.386 0 0 1-1.077-1.47c.152-2.051.67-10.74.493-12.374-.122-1.198.352-1.876 1.501-2.136l4.11-1.01a39.281 39.281 0 0 1 7.836-.321c3.513.32 11.52-.085 11.55-.085.03 0 3.185.194 4.687.799.772.296.71.599.492 1.507a7.68 7.68 0 0 0-.267 1.912c0 1.33.06 2.184.152 3.364.048.726.115 1.573.176 2.729.055 1.022.23 2.22.407 3.382.334 2.287.681 4.647.128 5.657a2.904 2.904 0 0 1-2.553 1.307 1.272 1.272 0 0 1-1.216-.605c-.438-1.022-1.04-5.863-1.295-8.283a.297.297 0 0 0-.31-.272.303.303 0 0 0-.298.29 30.281 30.281 0 0 1-.407 3.975c-.335 1.695-.499 7.068-.499 8.193-.106.51-.387.969-.796 1.295-.541.526-2.602 2.245-6.401 2.178-5.563-.09-11.295-1.222-11.52-1.997-.188-.683-.073-2.208.036-3.709.073-.962.14-1.954.14-2.777 0-2.13-.413-6.232-.413-6.275a.303.303 0 0 0-.268-.272zm18.84 13.275a2.75 2.75 0 0 0 .978-1.724c0-1.077.164-6.45.492-8.072.061-.326.116-.671.164-1.028.274 2.117.65 4.683.991 5.445.326.64 1 1.03 1.72.993a3.488 3.488 0 0 0 3.113-1.622c.657-1.21.31-3.552-.06-6.05-.165-1.144-.341-2.33-.396-3.322-.06-1.168-.127-2.015-.182-2.741-.085-1.168-.146-2.015-.146-3.322a7.435 7.435 0 0 1 .25-1.773c.218-.902.4-1.676-.852-2.203-1.599-.671-4.839-.853-4.918-.847-.079.006-8.024.406-11.507.085a39.518 39.518 0 0 0-8 .333s-3.052.738-4.122.986c-.642.09-1.219.441-1.592.97a2.327 2.327 0 0 0-.377 1.82c.158 1.494-.31 9.79-.499 12.27a1.955 1.955 0 0 0 1.514 2.094 2.81 2.81 0 0 0 3.185-1.107c.47-.882.876-1.796 1.216-2.735.122 1.416.28 3.521.28 4.84 0 .799-.067 1.785-.14 2.735-.103 1.622-.219 3.153 0 3.921.45 1.549 8.225 2.354 12.091 2.42h.219c3.909 0 6.048-1.797 6.577-2.366z"/></g><g><path fill="#263238" d="M64.605 102.655a.293.293 0 0 1-.158-.043c-.073-.048-1.86-1.21-1.416-4.738.42-3.333.845-12.997.85-13.093a.302.302 0 0 1 .317-.29.31.31 0 0 1 .292.314c0 .097-.432 9.784-.857 13.142-.39 3.128 1.075 4.108 1.136 4.15a.302.302 0 0 1-.164.558z"/></g><g><path fill="#263238" d="M58.653 88.904a.33.33 0 0 1-.17-.048l-2.766-1.906a.308.308 0 0 1-.073-.424.305.305 0 0 1 .42-.073l2.62 1.816 3.24-1.61a.31.31 0 0 1 .407.133.301.301 0 0 1-.14.406l-3.398 1.694a.28.28 0 0 1-.14.012z"/></g><g><path fill="#263238" d="M69.284 88.278a.28.28 0 0 1-.121-.03l-3.404-1.476a.302.302 0 0 1-.152-.4.297.297 0 0 1 .395-.157l3.3 1.434 4.147-1.21a.304.304 0 0 1 .376.2.308.308 0 0 1-.2.38l-4.255 1.265a.195.195 0 0 1-.086-.006z"/></g><g><path fill="#fff" d="M50.89 101.619l2.56 3.122 2.06-2.136-1.483-3.945-3.137 2.959z"/></g><g><path fill="#263238" d="M53.905 99.2l1.258 3.332-1.696 1.754-2.164-2.637zm-.25 5.752l2.068-2.136a.307.307 0 0 0 .06-.32l-1.483-3.94a.304.304 0 0 0-.492-.114L50.67 101.4a.302.302 0 0 0 0 .412l2.553 3.122a.323.323 0 0 0 .225.109.31.31 0 0 0 .207-.09z"/></g><g><path fill="#fff" d="M48.5 87.574s-1.733 4.599-1.569 7.146c.164 2.547 2.225 6.05 2.474 6.323.25.272 4.37-2.71 4.456-3.025.085-.315-1.483-4.52-1.483-4.52L54.2 87.09"/></g><g><path fill="#263238" d="M49.453 101.358a.33.33 0 0 1-.256-.103c-.31-.303-2.395-3.885-2.565-6.517-.17-2.632 1.514-7.08 1.587-7.26a.303.303 0 1 1 .565.211c0 .049-1.708 4.568-1.544 7.025.146 2.281 1.872 5.373 2.31 6.05a24.159 24.159 0 0 0 4.018-2.813c-.048-.35-.772-2.42-1.471-4.314a.283.283 0 0 1 0-.188l1.824-6.407a.314.314 0 0 1 .527-.14c.08.08.11.195.08.303l-1.787 6.311c1.569 4.187 1.49 4.502 1.465 4.605-.127.502-3.841 3.061-4.547 3.26z"/></g><g><path fill="#fff" d="M53.367 97.186s-4.462 2.384-4.863 2.874c-.401.49.243 1.21.906 2.057.662.847 4.206-1.73 4.784-2.469.577-.738.492-4.023-.827-2.462z"/></g><g><path fill="#263238" d="M53.984 97.081c.006 0 .012 0 .012.007.335.266.304 1.936-.042 2.384-.48.605-3.106 2.505-4.128 2.505a.232.232 0 0 1-.182-.049l-.14-.175c-.492-.6-.997-1.229-.772-1.495a45.352 45.352 0 0 1 4.778-2.801.267.267 0 0 0 .091-.073c.195-.224.329-.303.383-.303zm-4.14 5.5c1.301-.005 4.122-2.13 4.602-2.74.48-.611.626-2.68-.054-3.225-.213-.164-.608-.327-1.216.332-.857.46-4.493 2.42-4.912 2.923-.541.647.091 1.434.766 2.263l.14.175a.792.792 0 0 0 .65.273z"/></g><g><path fill="#fff" d="M73.83 99.57l-1.07 2.378 1.07 2.71 3.471-2.952-3.471-2.136z"/></g><g><path fill="#263238" d="M73.966 99.978l2.807 1.737-2.819 2.42-.867-2.196zm.082 4.895l3.465-2.953a.296.296 0 0 0 .103-.254.314.314 0 0 0-.14-.236l-3.465-2.136a.33.33 0 0 0-.25 0 .297.297 0 0 0-.188.164l-1.1 2.378a.313.313 0 0 0 0 .236l1.076 2.71a.31.31 0 0 0 .207.182h.073a.305.305 0 0 0 .219-.09z"/></g><g><path fill="#fff" d="M76.227 93.494s-2.56 5.173-2.31 5.585c.25.411 3.55 3.207 4.128 2.632.577-.575 2.802-4.435 2.887-5.918.085-1.482-.668-4.683-.668-4.683"/></g><g><path fill="#263238" d="M77.828 102.078h-.115c-1.1-.133-3.781-2.42-4.043-2.843-.091-.152-.334-.551 2.298-5.876a.305.305 0 0 1 .407-.139.302.302 0 0 1 .14.406c-1.118 2.263-2.261 4.84-2.298 5.336.42.55 3.15 2.675 3.648 2.517.492-.496 2.699-4.296 2.778-5.705.079-1.41-.645-4.563-.657-4.593a.301.301 0 0 1 .231-.363.304.304 0 0 1 .365.224c.03.133.754 3.261.669 4.768-.092 1.597-2.432 5.542-2.979 6.111a.61.61 0 0 1-.444.157z"/></g><g><path fill="#fff" d="M73.831 97.271s-1.155 1.64-.906 2.136c.25.496 3.714 3.939 4.292 3.939.5-.09.93-.409 1.157-.861a1.597 1.597 0 0 0-.002-1.438c-.578-1.398-3.3-4.187-4.541-3.776z"/></g><g><path fill="#263238" d="M74.024 97.537c1.04-.163 3.532 2.324 4.079 3.625.21.431.178.941-.085 1.343a1.18 1.18 0 0 1-.772.538c-.56-.139-3.824-3.346-4.037-3.77.129-.636.41-1.232.82-1.736zm3.203 6.111a1.746 1.746 0 0 0 1.295-.78 1.983 1.983 0 0 0 .14-1.912c-.565-1.374-3.404-4.453-4.912-3.951a.334.334 0 0 0-.158.115c-.377.514-1.228 1.815-.93 2.42.213.424 3.763 4.108 4.565 4.108z"/></g><g><path fill="#adc7f7" d="M59.967 67.04a7.1 7.1 0 0 0-5.532 3.86c-1.981 3.697.329 10.431 7.842 12.319 7.514 1.888 11.386-5.174 11.386-8.955 0-3.782-4.784-6.983-6.352-7.388-1.569-.406-7.344.163-7.344.163z"/></g><g><path fill="#263238" d="M65.4 67.029a8.385 8.385 0 0 1 1.861.115c1.526.4 6.128 3.552 6.128 7.097a10.084 10.084 0 0 1-3.8 7.303 8.127 8.127 0 0 1-7.21 1.362c-3.531-.89-6.291-3.044-7.568-5.912-.93-2.093-.96-4.332-.079-5.978a6.728 6.728 0 0 1 5.27-3.679c.043 0 3.168-.308 5.399-.308zm-.692 16.809a8.396 8.396 0 0 0 5.222-1.791 10.76 10.76 0 0 0 4.042-7.782c0-3.908-4.887-7.242-6.577-7.684-1.593-.448-7.119.121-7.447.157a7.349 7.349 0 0 0-5.775 4.018c-.973 1.81-.948 4.242.06 6.505 1.35 3.043 4.256 5.318 7.97 6.256.82.208 1.66.315 2.505.32z"/></g><g><path fill="#263238" d="M60.806 78.925a.263.263 0 0 1-.115 0 7.368 7.368 0 0 1-4.48-6.862c.09-2.904 2.814-4.913 2.936-4.997a.305.305 0 0 1 .477.292.296.296 0 0 1-.125.198s-2.602 1.918-2.68 4.526a6.854 6.854 0 0 0 4.109 6.286.297.297 0 0 1 .158.394.304.304 0 0 1-.28.163z"/></g><g><path fill="#263238" d="M66.164 76.71a.303.303 0 1 1 0-.605c.687 0 2.37-.932 3.35-3.183.978-2.25-.146-4.737-.159-4.762a.295.295 0 0 1 .14-.399.305.305 0 0 1 .407.14 6.838 6.838 0 0 1 .17 5.263c-1.166 2.699-3.136 3.546-3.908 3.546z"/></g><g><path fill="#263238" d="M63.095 81.36a8.593 8.593 0 0 1-3.842-.834.302.302 0 0 1-.107-.4.305.305 0 0 1 .392-.133 9.017 9.017 0 0 0 7.089.073c4.437-1.767 6.534-4.375 6.249-7.745a.305.305 0 1 1 .608-.054c.31 3.672-1.921 6.48-6.633 8.356a10.083 10.083 0 0 1-3.756.738z"/></g><g><path fill="#fff" d="M59.452 64.848s-.145 5.803.104 6.541c.249.738.328 2.547 3.793 3.025 3.465.478 4.213-1.972 4.213-3.207 0-1.234-.274-6.377-.274-6.377z"/></g><g><path fill="#263238" d="M67 65.181c.061 1.076.262 5.005.262 6.044a3.128 3.128 0 0 1-.979 2.297 3.536 3.536 0 0 1-2.887.605c-2.894-.411-3.253-1.747-3.465-2.539-.03-.109-.055-.212-.085-.296-.158-.478-.14-3.892-.092-6.135zm-2.778 9.621c.886.03 1.751-.265 2.432-.829a3.713 3.713 0 0 0 1.216-2.753c0-1.228-.274-6.184-.274-6.396a.31.31 0 0 0-.304-.284h-7.835a.31.31 0 0 0-.304.296c-.013.606-.14 5.888.115 6.656.024.073.073.164.073.254.237.884.68 2.524 3.97 2.99.301.045.606.067.911.066z"/></g><g><path fill="#fff" d="M67.296 64.853c0 .853-1.757 1.543-3.915 1.543-2.158 0-3.921-.69-3.921-1.543s1.757-1.543 3.92-1.543c2.165 0 3.916.69 3.916 1.543z"/></g><g><path fill="#263238" d="M63.375 63.615c2.237 0 3.61.72 3.61 1.24s-1.367 1.24-3.61 1.24-3.617-.72-3.617-1.24 1.374-1.24 3.617-1.24zm4.219 1.24c0-1.198-2.17-1.845-4.22-1.845-2.048 0-4.224.647-4.224 1.845 0 1.199 2.176 1.846 4.225 1.846 2.042 0 4.219-.647 4.219-1.846z"/></g><g><path fill="#fff" d="M64.594 141.52a.31.31 0 0 1-.298-.242c-.091-.424-2.152-10.413-2.237-13.445v-.605c-.121-3.86-.444-14.098 2.875-19.362a.305.305 0 0 1 .411-.078c.136.087.18.265.1.404-3.216 5.107-2.894 15.212-2.778 19.024v.605c.085 2.983 2.2 13.233 2.225 13.342a.303.303 0 0 1-.237.35z"/></g><g><path fill="#fff" d="M65.58 144.089s1.732 6.486 2.723 11.744c.991 5.258 2.39 11.254 2.639 12.567a2.246 2.246 0 0 0 2.23 1.888 1.95 1.95 0 0 0 1.477-.622c.379-.409.563-.96.505-1.514 0-1.56-3.04-4.925-3.55-7.472-.51-2.548.991-10.843 1.32-15.03.048-.605.06-1.21.054-1.87-4.705 1.343-7.398.309-7.398.309z"/></g><g><path fill="#263238" d="M72.695 144.199c0 .52-.018.998-.055 1.446-.115 1.397-.353 3.255-.608 5.215-.518 4.012-1.053 8.157-.712 9.9.237 1.354 1.217 2.928 2.063 4.307.76 1.253 1.485 2.433 1.485 3.104.051.47-.104.939-.426 1.286-.322.348-.779.54-1.254.53a1.944 1.944 0 0 1-1.935-1.64c-.08-.442-.286-1.38-.572-2.68-.567-2.548-1.413-6.39-2.07-9.888-.822-4.356-2.167-9.608-2.599-11.254.992.236 3.317.551 6.683-.326zm.485 26.393a2.248 2.248 0 0 0 1.702-.717c.437-.472.65-1.108.583-1.746 0-.841-.747-2.081-1.568-3.419-.82-1.337-1.745-2.856-1.988-4.108-.322-1.622.231-5.906.718-9.681.255-1.973.498-3.836.608-5.246.054-.581.054-1.198.054-1.894a.314.314 0 0 0-.121-.242.323.323 0 0 0-.268-.049c-4.535 1.295-7.203.315-7.203.315a.308.308 0 1 0-.407.363c.018.06 1.744 6.535 2.723 11.72.656 3.51 1.507 7.358 2.067 9.905.273 1.247.492 2.233.571 2.663a2.562 2.562 0 0 0 2.529 2.136z"/></g><g><path fill="#fff" d="M58.907 143.63c.468 2.094 1.374 6.54 1.97 9.36.741 3.534.741 8.956.164 10.347-.578 1.392-3.794 3.782-4.128 4.193-.334.412.498.654 2.146.49 1.647-.163 3.222-1.56 4.212-1.972a2.661 2.661 0 0 0 1.648-2.626c0-1.313-.657-2.463 0-6.735.656-4.271.662-12.567.662-12.567a25.648 25.648 0 0 1-6.674-.49z"/></g><g><path fill="#263238" d="M57.88 166.998c1.174-.998 2.949-2.499 3.392-3.582.645-1.543.566-7.152-.146-10.522-.164-.884-.383-1.937-.607-3.026a293.412 293.412 0 0 0-1.216-5.887c1.967.38 3.973.527 5.975.436-.012 1.579-.085 8.47-.656 12.192a16.919 16.919 0 0 0-.116 5.694c.064.36.1.723.11 1.089a2.359 2.359 0 0 1-1.465 2.347c-.411.193-.807.416-1.186.666a7.531 7.531 0 0 1-2.936 1.289 4.726 4.726 0 0 1-1.823-.06c.121-.128.413-.37.674-.636zm1.246 1.265a7.83 7.83 0 0 0 3.198-1.374c.35-.23.718-.433 1.1-.605a2.982 2.982 0 0 0 1.824-2.91 8.148 8.148 0 0 0-.116-1.174 16.22 16.22 0 0 1 .116-5.519c.663-4.241.663-12.525.663-12.61a.308.308 0 0 0-.335-.302 24.909 24.909 0 0 1-6.59-.484.305.305 0 0 0-.352.363c.322 1.434.839 3.903 1.337 6.323.201 1.083.42 2.136.608 3.026.736 3.515.724 8.864.183 10.17-.39.933-2.237 2.512-3.228 3.353a7.623 7.623 0 0 0-.857.768.5.5 0 0 0-.08.605c.165.303.67.454 1.502.454.28 0 .62-.018 1.027-.084z"/></g><g><path fill="#fff" d="M58.073 141.708s.827.823 2.894.66a16.014 16.014 0 0 0 3.957-.908l.663 2.632s-.474 1.404-2.62 1.482c-2.146.08-3.647.243-4.316-.992a6.394 6.394 0 0 1-.578-2.874z"/></g><g><path fill="#263238" d="M58.381 142.274a4.961 4.961 0 0 0 2.603.405c1.268-.12 2.517-.39 3.72-.805l.554 2.21c-.128.273-.675 1.15-2.31 1.211h-.444c-2.013.085-3.089.085-3.588-.848a5.432 5.432 0 0 1-.535-2.173zm4.171 3.613h.432c2.334-.085 2.9-1.622 2.9-1.688a.271.271 0 0 0 0-.17l-.657-2.632a.303.303 0 0 0-.407-.205 15.703 15.703 0 0 1-3.873.883c-1.86.145-2.656-.575-2.656-.575a.305.305 0 0 0-.517.2 6.66 6.66 0 0 0 .608 3.025c.541 1.017 1.568 1.21 2.894 1.21.395 0 .814-.018 1.276-.048z"/></g><g><path fill="#fff" d="M64.67 141.813s.413 4.102 1.076 4.435c1.417.541 2.935.77 4.45.672 1.647-.17 3.222-1.331 3.392-2.154.17-.823.243-3.776-.335-3.776-.577 0-1.155 1.15-4.121 1.15-2.967 0-3.885-1.168-4.462-.327z"/></g><g><path fill="#263238" d="M64.99 141.882c.152-.145.365-.073 1.003.103 1.012.305 2.063.46 3.12.46a6.255 6.255 0 0 0 3.684-.938c.12-.082.248-.15.383-.206.237.387.267 2.517.09 3.413-.133.641-1.531 1.748-3.124 1.906-1.449.092-2.9-.127-4.256-.642-.292-.211-.705-2.257-.9-4.072zm4.517 5.373c.254.001.508-.01.76-.036 1.781-.176 3.46-1.452 3.648-2.39.121-.63.285-3.304-.237-3.945a.511.511 0 0 0-.396-.194 1.463 1.463 0 0 0-.753.303 5.65 5.65 0 0 1-3.368.847c-1.001 0-1.997-.147-2.954-.436-.748-.206-1.332-.37-1.757.236a.344.344 0 0 0-.049.206c.103 1.282.48 4.308 1.216 4.67 1.239.487 2.559.737 3.89.739z"/></g><g><path fill="#263238" d="M26.23 171.13h124.716v8.895H26.23z"/></g><g><path fill="#fff" d="M26.528 171.455h124.114v8.25H26.528zm124.722 8.562v-8.894a.31.31 0 0 0-.304-.303H26.224a.31.31 0 0 0-.304.303v8.894c0 .167.136.303.304.303h124.722a.303.303 0 0 0 .304-.303z"/></g><g opacity=".3"><path fill="#fff" d="M28.33 170.793v8.356L144.991 47.86h-7.586L28.33 170.793z"/></g><g opacity=".3"><path fill="#fff" d="M97.143 184.557l86.917-97.81-6.657-1.047-87.713 98.857h7.453z"/></g><g opacity=".3"><path fill="#fff" d="M28.33 145.918v8.392l94.588-106.45h-7.586L28.33 145.918z"/></g></g><g><path fill="none" stroke="#263238" stroke-linecap="round" stroke-linejoin="round" stroke-miterlimit="20" stroke-width=".5" d="M30.43 49.26v0h113.506v130.417H30.43v0z"/></g><g><path fill="#263238" d="M150.24 41.59h66.212v141.902H150.24z"/></g><g><path fill="#263238" d="M150.548 41.885h65.604v141.287h-65.628zm66.187 141.6V41.582a.303.303 0 0 0-.303-.303h-66.188a.303.303 0 0 0-.304.303v141.901a.31.31 0 0 0 .304.303h66.188a.303.303 0 0 0 .303-.303z"/></g><g><g><path fill="#263238" d="M164.26 49.26h45.19v124.137h-45.19z"/></g><g opacity=".6"><path fill="#fff" d="M164.26 49.26h45.19v124.137h-45.19z"/></g><g opacity=".3"><path fill="#fff" d="M159 113.282v8.435l55.701-62.685V50.5L159 113.282z"/></g><g opacity=".3"><path fill="#fff" d="M159 128.972v8.435l55.701-62.685V66.19L159 128.972z"/></g><g opacity=".3"><path fill="#fff" d="M159 187.212v8.405l55.701-62.686v-8.501L159 187.212z"/></g></g><g><path fill="none" stroke="#263238" stroke-linecap="round" stroke-linejoin="round" stroke-miterlimit="20" stroke-width=".5" d="M164.26 49.26v0h45.19v124.137h-45.19v0z"/></g><g><path fill="#fff" d="M147.97 41.59h12.261v129.37H147.97z"/></g><g><path fill="#263238" d="M148.278 41.885h11.653v128.756h-11.653zm12.261 129.068V41.583a.303.303 0 0 0-.304-.303h-12.261a.303.303 0 0 0-.304.303v129.37c0 .167.136.303.304.303h12.261a.31.31 0 0 0 .304-.303z"/></g><g><path fill="#263238" d="M146.66 158.4h14.887v10.813H146.66z"/></g><g><path fill="#263238" d="M146.958 158.705h14.273v10.202h-14.28zm14.887 10.504v-10.806a.303.303 0 0 0-.304-.303h-14.887a.303.303 0 0 0-.304.303v10.806c0 .167.136.303.304.303h14.887a.303.303 0 0 0 .304-.303z"/></g><g><path fill="#fff" d="M145.34 166.07h17.513v17.432H145.34z"/></g><g><path fill="#263238" d="M145.638 166.375h16.912v16.817h-16.912zm17.52 17.13v-17.432a.303.303 0 0 0-.305-.303h-17.519a.303.303 0 0 0-.304.303v17.432c0 .167.136.302.304.302h17.52a.303.303 0 0 0 .303-.302z"/></g><g><path fill="#fff" d="M19.77 41.59h12.261v129.37H19.77z"/></g><g><path fill="#263238" d="M20.08 41.885h11.641v128.756H20.068zm12.25 129.068V41.583a.303.303 0 0 0-.305-.303H19.764a.303.303 0 0 0-.304.303v129.37c0 .167.136.303.304.303h12.261a.31.31 0 0 0 .304-.303z"/></g><g><path fill="#263238" d="M18.45 158.4h14.887v10.813H18.45z"/></g><g><path fill="#263238" d="M18.758 158.705h14.274v10.202h-14.28zm14.887 10.504v-10.806a.303.303 0 0 0-.304-.303H18.454a.303.303 0 0 0-.304.303v10.806c0 .167.136.303.304.303H33.34a.303.303 0 0 0 .304-.303z"/></g><g><path fill="#fff" d="M17.13 166.07h17.513v17.432H17.13z"/></g><g><path fill="#263238" d="M17.438 166.375h16.93v16.817H17.456zm17.538 17.13v-17.432a.303.303 0 0 0-.304-.303H17.134a.303.303 0 0 0-.304.303v17.432c0 .167.136.302.304.302h17.538a.303.303 0 0 0 .304-.302z"/></g><g><path fill="#fff" d="M215.58 41.59h12.261v129.37H215.58z"/></g><g><path fill="#263238" d="M215.888 41.885h11.653v128.756h-11.653zm12.261 129.068V41.583a.303.303 0 0 0-.304-.303h-12.261a.303.303 0 0 0-.304.303v129.37c0 .167.136.303.304.303h12.261a.31.31 0 0 0 .304-.303z"/></g><g><path fill="#fff" d="M15.83 30.48h215.195v13.312H15.83z"/></g><g><path fill="#263238" d="M16.128 30.785h214.577v12.697H16.128zm215.195 13.01V30.482a.303.303 0 0 0-.304-.303H15.824a.303.303 0 0 0-.304.303v13.311c0 .167.136.303.304.303h215.195a.303.303 0 0 0 .304-.303z"/></g><g><path fill="#263238" d="M214.27 158.4h14.887v10.813H214.27z"/></g><g><path fill="#263238" d="M214.568 158.705h14.273v10.202h-14.28zm14.887 10.504v-10.806a.303.303 0 0 0-.304-.303h-14.887a.303.303 0 0 0-.304.303v10.806c0 .167.136.303.304.303h14.887a.303.303 0 0 0 .304-.303z"/></g><g><path fill="#fff" d="M212.95 166.07h17.513v17.432H212.95z"/></g><g><path fill="#263238" d="M213.258 166.375h16.895v16.817h-16.895zm17.513 17.13v-17.432a.303.303 0 0 0-.304-.303h-17.513a.303.303 0 0 0-.304.303v17.432c0 .167.136.302.304.302h17.513a.303.303 0 0 0 .304-.302z"/></g><g><path fill="#263238" d="M234.671 183.795H5.574a.303.303 0 1 1 0-.605h229.097c.168 0 .304.135.304.302a.31.31 0 0 1-.304.303z"/></g></g><g><g><path fill="#fff" d="M160.578 183.68a24.656 24.656 0 0 1-4.52 1.984c-2.416.756-3.667 1.378-2.283 1.923 1.384.544 4.598.647 5.758.417 1.16-.23 5.093.726 5.848-.073.755-.798 0-4.003 0-4.003s-3.818.115-4.803-.248z"/></g><g><path fill="#263238" d="M160.024 187.655a2.843 2.843 0 0 0-.52.043c-1.148.199-4.284.114-5.595-.405a1.21 1.21 0 0 1-.38-.199c.048-.114.417-.452 2.64-1.146 1.55-.5 3.048-1.15 4.47-1.942 1.022.283 3.638.23 4.508.23.278 1.26.399 3.088.036 3.474-.362.386-2.139.199-3.347.078-.713-.072-1.33-.133-1.812-.133zm3.963.905c.57.084 1.148-.06 1.613-.4.828-.876.193-3.719.054-4.275a.314.314 0 0 0-.302-.236c-1.045.03-3.903.048-4.67-.23a.29.29 0 0 0-.254 0 24.638 24.638 0 0 1-4.458 1.954c-2.248.701-3.051 1.227-3.07 1.705-.018.478.568.714.762.786 1.444.569 4.724.672 5.933.436a10.26 10.26 0 0 1 2.156.096c.876.091 1.632.164 2.236.164z"/></g><g><path fill="#fff" d="M165.386 187.925c.089-.107.156-.23.199-.363-2.242 0-4.682-.217-7.607-.217a16.708 16.708 0 0 1-4.53-.605c-.381.302-.327.605.331.84 1.378.545 4.598.648 5.758.418 1.16-.23 5.093.726 5.848-.073z"/></g><g><path fill="#263238" d="M153.527 187.106c1.453.379 2.95.567 4.453.56h1.68l-.175.03c-1.148.196-4.284.113-5.595-.4a1.56 1.56 0 0 1-.375-.19zm8.541.665c.958.042 1.88.097 2.766.097a11.406 11.406 0 0 1-3.043-.073l-.603-.067zm3.537.375c.12-.135.21-.294.266-.466a.303.303 0 0 0-.043-.278.266.266 0 0 0-.247-.127c-1.094.018-2.163-.036-3.462-.097a86.115 86.115 0 0 0-4.139-.12c-1.505.003-3.003-.2-4.453-.606a.284.284 0 0 0-.265.055.738.738 0 0 0-.35.671c.054.369.458.569.754.683 1.444.569 4.725.672 5.933.436a10.26 10.26 0 0 1 2.157.097c.876.09 1.631.163 2.236.163.57.08 1.15-.067 1.613-.411z"/></g><g><path fill="#263238" d="M160.458 135.887s-3.86 14.64-3.975 17.477c-.115 2.837 3.238 20.78 3.329 23.991.083 2.124.34 4.238.767 6.32.925.271 1.878.44 2.84.502.654-.03 1.305-.115 1.945-.254 0 0 .332-5.274.864-10.36.532-5.086-1.45-18.88-1.45-20.344 0-1.463 5.057-17.12 5.305-18.784.247-1.663-2.127-2.673-4.072-2.612-1.946.06-5.553 4.064-5.553 4.064z"/></g><g><path fill="#263238" d="M160.84 183.437a39.517 39.517 0 0 1-.738-6.084c-.042-1.506-.78-6.126-1.559-11.013-.9-5.642-1.83-11.472-1.77-12.96.109-2.667 3.655-16.237 3.945-17.344 1.04-1.125 3.807-3.865 5.269-3.907a4.65 4.65 0 0 1 3.42 1.167c.283.292.415.699.356 1.101-.097.677-1.094 3.967-2.145 7.445-1.867 6.144-3.16 10.559-3.16 11.387.012.381.145 1.53.326 3.127.544 4.68 1.541 13.401 1.148 17.175-.47 4.439-.785 9.078-.858 10.148-.547.11-1.103.177-1.661.2-.872-.053-1.735-.201-2.574-.442zm2.591 1.052a11.42 11.42 0 0 0 2-.26.308.308 0 0 0 .235-.272c0-.072.339-5.334.864-10.353.405-3.847-.604-12.604-1.141-17.315-.182-1.578-.327-2.715-.327-3.072-.018-.792 1.728-6.562 3.13-11.194 1.105-3.653 2.066-6.81 2.169-7.535a1.924 1.924 0 0 0-.508-1.59 5.247 5.247 0 0 0-3.872-1.368c-2.049.06-5.595 3.998-5.746 4.161a.26.26 0 0 0-.066.127c-.164.605-3.873 14.702-3.988 17.538-.036 1.548.876 7.409 1.776 13.081.78 4.887 1.51 9.465 1.553 10.934.086 2.142.345 4.274.773 6.375.026.109.11.195.218.223a13.6 13.6 0 0 0 2.845.514z"/></g><g><path fill="#263238" d="M159.122 133.399s.767 12.948 1.92 19.062c1.155 6.114 3.052 17.762 3.36 21.771.308 4.01 1.124 11.872 1.124 11.872s2.247.223 2.737.211a6.393 6.393 0 0 0 2.03-.453c.29-.2 1.643-10.578 1.879-15.851.235-5.274-2.187-18.18-2.115-19.056.073-.877 3.595-13.764 4.417-15.833.418-.942.717-1.934.888-2.951 0 0 1.299-2.19-3.51-3.41-4.81-1.222-9.94.09-11.48 1.209-1.54 1.118-1.25 3.429-1.25 3.429z"/></g><g><path fill="#263238" d="M165.801 185.797c-.139-1.367-.82-8.067-1.11-11.617-.315-4.022-2.229-15.754-3.364-21.772-1.135-6.017-1.914-18.892-1.914-19.02 0-.018-.23-2.17 1.141-3.174 1.462-1.065 6.455-2.371 11.207-1.162 2.324.593 3.097 1.391 3.333 1.954.147.32.147.69 0 1.01a.315.315 0 0 0-.043.127 12.11 12.11 0 0 1-.87 2.866c-.832 2.123-4.352 14.974-4.425 15.924.098 1.247.262 2.489.49 3.719.67 4.385 1.78 11.714 1.617 15.343-.235 5.177-1.479 14.665-1.811 15.657a7.235 7.235 0 0 1-1.811.363c-.332.012-1.71-.115-2.446-.188zm2.47.78a6.532 6.532 0 0 0 2.199-.508c.543-.362 1.83-12.24 2.005-16.086.188-3.683-.954-11.055-1.625-15.464-.272-1.766-.49-3.344-.49-3.58.073-.829 3.583-13.674 4.393-15.724.413-.948.716-1.94.9-2.957.217-.464.228-.998.03-1.47-.422-1.01-1.685-1.79-3.757-2.322-4.936-1.258-10.096.084-11.715 1.264-1.62 1.18-1.39 3.532-1.39 3.72.024.344.798 13.098 1.928 19.091 1.13 5.994 3.045 17.768 3.353 21.717.308 3.95 1.123 11.8 1.123 11.878.017.142.13.253.272.266.09.012 2.115.218 2.719.218z"/></g><g><path fill="#adc7f7" d="M165.55 92.921s-5.438 6.888-6.35 9.55c-.913 2.66-.212 19.606-.604 23.422-.393 3.816-.816 8.11-.816 8.11s2.06.526 3.818.768a78.44 78.44 0 0 0 3.426.387l2.06-2.698.187 3.024a19.624 19.624 0 0 0 5.921-.859 43.112 43.112 0 0 0 5.589-2.207l-3.97-15.88s2.073-9.133 3.021-16.577c.949-7.445-2.175-11.43-3.383-12.18-1.208-.75-4.18.417-5.975 2.225s-2.924 2.915-2.924 2.915z"/></g><g><path fill="#263238" d="M167.078 132.186a.284.284 0 0 0-.235.096l-1.964 2.565c-.465-.049-1.879-.188-3.244-.375-1.366-.188-2.93-.55-3.535-.696.103-.992.484-4.602.81-7.862.151-1.524.109-5.02.109-9.071-.03-5.673-.067-12.724.459-14.278.852-2.522 6-9.084 6.29-9.447.138-.133 1.226-1.197 2.923-2.903 1.698-1.705 4.67-2.757 5.6-2.177.931.58 4.212 4.306 3.239 11.896-.943 7.342-3.02 16.45-3.02 16.546a.272.272 0 0 0 0 .14l3.908 15.638a42.87 42.87 0 0 1-5.323 2.087 19.478 19.478 0 0 1-5.546.846l-.169-2.74a.296.296 0 0 0-.211-.265zm.495 3.628a20.016 20.016 0 0 0 5.674-.84 43.838 43.838 0 0 0 5.63-2.232.296.296 0 0 0 .158-.344l-3.952-15.809c.2-.87 2.12-9.5 3.021-16.528.925-7.197-1.97-11.52-3.516-12.488-1.42-.895-4.556.465-6.35 2.267a301.81 301.81 0 0 1-2.93 2.91c-.23.278-5.498 6.96-6.398 9.64-.562 1.65-.526 8.46-.496 14.471.025 3.865.043 7.517-.108 9.017-.375 3.816-.834 8.122-.834 8.122a.296.296 0 0 0 .223.32c.025.007 2.103.533 3.855.775 1.752.242 3.438.393 3.438.393a.302.302 0 0 0 .266-.121l1.576-2.05.133 2.213a.308.308 0 0 0 .29.284z"/></g><g><path fill="#fff" d="M162.078 74.195s-1.063 3.628-1.812 4.535c-.75.907-2.29 1.724-1.891 2.008l1.595 1.125s.078 6.144.761 6.12c.683-.024 4.265-.804 4.265-.804l.423 4.572 6.205-4.475-.604-3.296s4.18-3.629 3.994-6.75c-.188-3.12-2.514-6.047-6.338-6.84-3.825-.792-6.15 2.529-6.598 3.805z"/></g><g><path fill="#263238" d="M164.928 86.886c-.943.188-3.44.732-4.13.793-.29-.496-.501-3.35-.531-5.818a.32.32 0 0 0-.133-.242l-1.47-1.04a6.93 6.93 0 0 1 .653-.575c.425-.32.818-.68 1.173-1.076.78-.92 1.808-4.397 1.874-4.639.327-.913 2.449-4.366 6.276-3.598 3.451.69 5.9 3.326 6.093 6.562.182 2.927-3.85 6.465-3.893 6.5a.296.296 0 0 0-.097.279l.55 3.115-5.622 4.051-.38-4.045a.296.296 0 0 0-.122-.218.314.314 0 0 0-.175-.055zm.485 5.171a.272.272 0 0 0 .17-.018l6.204-4.47a.303.303 0 0 0 .12-.295l-.555-3.14c.731-.658 4.15-3.93 3.97-6.875-.212-3.49-2.852-6.375-6.58-7.118-3.879-.78-6.404 2.419-6.954 3.997-.29.992-1.154 3.731-1.758 4.427a8.727 8.727 0 0 1-1.094.998c-.586.502-.936.762-.936 1.107.008.138.08.265.193.344l1.468 1.034c.025 1.476.145 5.534.75 6.139a.459.459 0 0 0 .32.127c.586-.018 3.075-.545 3.987-.738l.393 4.233c.01.108.077.202.175.248a.326.326 0 0 0 .127 0z"/></g><g><path fill="#263238" d="M165.077 73.325s-2.06 2.891-1.075 3.35c.984.46 1.377.351 1.486.738.109.388-1.209 1.694-.333 1.96.877.266 1.426-1.119 1.898-1.718.47-.598 1.97.726 2.017 2.383.049 1.657.2 3.629 2.35 3.738 2.152.108 5.19-5.715 5.734-7.191.544-1.476-2.23-6.374-5.105-7.947a4.866 4.866 0 0 0-5.25.345s.73-1.681-1.015-1.336c-1.746.344-2.46 2.51-2.46 2.51s-1.207-2.008-3.11.187c-1.904 2.195-.87 3.538.301 3.798 1.173.26 4.562-.817 4.562-.817z"/></g><g><path fill="#263238" d="M167.36 77.203a.665.665 0 0 0-.55.247 5.88 5.88 0 0 0-.362.538c-.423.683-.786 1.197-1.209 1.07-.054-.048-.084-.048-.084-.048-.055-.127.2-.574.32-.792.211-.363.374-.653.302-.913-.115-.398-.405-.49-.78-.604a7.092 7.092 0 0 1-.87-.332c-.036-.012-.078-.037-.078-.103-.133-.508.665-1.94 1.269-2.792a.29.29 0 0 0 0-.35.308.308 0 0 0-.339-.116c-.918.296-3.498 1.01-4.398.81a1.353 1.353 0 0 1-1.045-.864c-.218-.604.109-1.487.906-2.418.556-.646 1.088-.96 1.577-.918.433.072.815.325 1.051.695a.302.302 0 0 0 .544-.067c.006-.018.683-2 2.23-2.308.374-.073.585-.11.737.078.15.187.024.647-.06.84a.308.308 0 0 0 .47.363 4.584 4.584 0 0 1 4.912-.32c2.773 1.535 5.432 6.31 4.966 7.578-.646 1.76-3.564 6.987-5.377 6.987h-.054c-1.819-.115-2.018-1.692-2.066-3.445-.036-1.311-.93-2.508-1.71-2.762a.912.912 0 0 0-.302-.054zm10.102-.527c.616-1.663-2.26-6.682-5.245-8.315a5.1 5.1 0 0 0-4.942 0 1.04 1.04 0 0 0-.2-.708 1.286 1.286 0 0 0-1.322-.29c-1.378.272-2.157 1.53-2.49 2.232a1.933 1.933 0 0 0-1.165-.563c-.701-.078-1.402.327-2.09 1.131-1.21 1.41-1.221 2.42-1.022 3.024a1.97 1.97 0 0 0 1.492 1.264c.889.175 2.804-.29 3.91-.605-.472.786-1.076 1.923-.9 2.6.053.22.204.403.41.497.308.14.625.259.949.356.338.11.368.152.368.152a2.1 2.1 0 0 1-.242.49c-.241.429-.52.913-.356 1.312a.677.677 0 0 0 .471.405c.9.272 1.48-.66 1.903-1.33.099-.17.206-.333.32-.49.013 0 .043-.049.188 0a2.57 2.57 0 0 1 1.293 2.207c.042 1.451.115 3.876 2.634 4.034h.066c2.55 0 5.62-6.501 5.97-7.403z"/></g><g><path fill="#fff" d="M166.04 79.575s.7-2.558 2.272-2.213c1.57.345.99 3.967-.151 4.88-1.142.914-1.873-.822-1.873-.822"/></g><g><path fill="#263238" d="M167.503 82.78a1.207 1.207 0 0 1-.272-.036c-.761-.193-1.178-1.13-1.208-1.24a.303.303 0 0 1 .157-.393.308.308 0 0 1 .399.158c.09.217.41.786.815.889a.67.67 0 0 0 .604-.182c.701-.556 1.209-2.419.925-3.526-.109-.477-.333-.756-.653-.822-1.269-.284-1.909 1.971-1.915 1.996a.313.313 0 1 1-.604-.164c.036-.115.803-2.824 2.634-2.419a1.53 1.53 0 0 1 1.106 1.276c.32 1.38-.242 3.43-1.136 4.137-.238.204-.539.32-.852.326z"/></g><g><path fill="#adc7f7" d="M172.035 85.417s-6.785 4.584-7.432 5.678c-.646 1.095-.773 3.629-.773 3.629s6.47-5.358 8.102-6.284c1.631-.925 2.012-1.13 2.012-1.13s-1.015-2.117-1.91-1.893z"/></g><g><path fill="#263238" d="M172.17 85.703c.387-.012.992.768 1.384 1.488l-1.758.992c-1.371.774-5.981 4.537-7.594 5.861.057-.964.286-1.91.676-2.794.448-.75 4.586-3.732 7.293-5.547zm-8.325 9.326a.326.326 0 0 0 .224-.085c.066-.054 6.434-5.334 8.053-6.253 1.62-.919 2.012-1.13 2.012-1.13a.303.303 0 0 0 .127-.4c-.193-.387-1.196-2.322-2.253-2.056l-.097.042c-.695.478-6.84 4.633-7.522 5.776-.683 1.143-.816 3.665-.816 3.774a.302.302 0 0 0 .14.302c.041.02.086.03.132.03z"/></g><g><path fill="#adc7f7" d="M167.045 97.363s1.33 8.938 1.59 11.073.483 3.302.483 3.302-1.922 7.572-3.492 10.54c-1.571 2.97-4.133 8.703-4.23 9.193-.096.49-.217 5.957-.193 6.653.024.695 1.486.931 2.072.913.586-.018 1.571.441 1.952.139.38-.302 1.335-1.016.743-1.288a2.415 2.415 0 0 0-.985-.266 14.94 14.94 0 0 0-.29-3.308c-.32-.962-.954-2.704-.954-2.704s8.633-11.49 9.848-13.256c1.214-1.766 1.752-10.003 1.812-11.563.042-1.397.254-7.91.181-10.541"/></g><g><path fill="#263238" d="M164.85 139.564a4.412 4.412 0 0 1-.847-.127 2.97 2.97 0 0 0-.713-.115 4.328 4.328 0 0 1-1.353-.206c-.834-.278-1.021-.695-1.027-1.004 0-.677.109-6.18.2-6.695.09-.514 2.779-6.513 4.229-9.283 1.45-2.77 3.256-9.676 3.45-10.408-.055-.284-.254-1.42-.478-3.26-.254-2.104-1.57-10.97-1.589-11.06a.306.306 0 1 1 .604-.091c0 .09 1.335 8.962 1.59 11.085.253 2.123.483 3.266.483 3.278.009.044.009.09 0 .133-.079.308-1.952 7.632-3.523 10.602-1.57 2.969-4.096 8.636-4.187 9.107-.09.472-.211 5.794-.187 6.58 0 .145.236.315.604.435.37.12.754.18 1.142.182.292.012.581.054.864.127.314.072.792.175.912.079l.067-.055c.483-.38.737-.635.749-.756a2.475 2.475 0 0 0-.864-.205.266.266 0 0 1-.217-.091.309.309 0 0 1-.091-.212 15.05 15.05 0 0 0-.272-3.211c-.32-.95-.949-2.68-.955-2.697a.303.303 0 0 1 .043-.285c.084-.115 8.64-11.49 9.836-13.244 1.105-1.627 1.691-9.362 1.758-11.406.06-1.814.253-7.983.181-10.517a.303.303 0 0 1 .29-.314c.167 0 .305.13.314.296.073 2.552-.12 8.727-.181 10.56 0 .09-.453 9.645-1.861 11.72-1.148 1.693-8.748 11.799-9.757 13.141.163.448.64 1.766.9 2.558.23 1.026.334 2.076.308 3.127.28.054.552.143.81.266a.55.55 0 0 1 .356.454c.054.441-.429.864-.973 1.294l-.066.048a.888.888 0 0 1-.55.17z"/></g><g><path fill="#fff" d="M168.254 105.627c.169 1.21.314 2.25.38 2.806.254 2.141.484 3.302.484 3.302s-1.922 7.572-3.492 10.541c-1.571 2.97-4.133 8.703-4.23 9.193-.096.49-.217 5.957-.193 6.652.024.696 1.486.932 2.072.913.586-.018 1.571.442 1.952.14.38-.303 1.335-1.016.743-1.289a2.415 2.415 0 0 0-.985-.266 14.94 14.94 0 0 0-.29-3.308c-.32-.961-.954-2.703-.954-2.703s8.633-11.49 9.848-13.256c1.214-1.766 1.752-10.003 1.812-11.563 0-.418.042-1.307.073-2.42-3.172-1.663-5.855 0-7.22 1.258z"/></g><g><path fill="#263238" d="M163.26 138.748a3.754 3.754 0 0 1-1.142-.181c-.368-.121-.604-.29-.604-.436-.024-.786.097-6.11.187-6.582.091-.472 2.616-6.14 4.187-9.11 1.571-2.97 3.444-10.296 3.523-10.604a.327.327 0 0 0 0-.134c0-.012-.23-1.18-.484-3.278-.06-.545-.193-1.513-.356-2.656 1.275-1.131 3.715-2.62 6.597-1.21-.03.998-.066 1.815-.066 2.208-.067 2.045-.653 9.782-1.758 11.41-1.197 1.754-9.752 13.132-9.836 13.247a.303.303 0 0 0-.042.285c.006.018.634 1.748.954 2.698.206 1.058.297 2.134.272 3.212.002.08.034.155.09.212a.266.266 0 0 0 .218.09c.298.016.59.086.864.206-.012.121-.266.375-.749.756l-.066.055c-.121.096-.599-.006-.913-.079a4.183 4.183 0 0 0-.821-.127zm2.145.661l.066-.048c.544-.43 1.028-.853.973-1.294a.55.55 0 0 0-.356-.454 3.321 3.321 0 0 0-.81-.266 12.936 12.936 0 0 0-.308-3.132 112.48 112.48 0 0 0-.9-2.553c1.009-1.342 8.61-11.448 9.757-13.141 1.408-2.074 1.86-11.63 1.86-11.72.013-.436.043-1.319.073-2.42a.302.302 0 0 0-.163-.278c-3.377-1.765-6.192.055-7.57 1.3a.309.309 0 0 0-.097.267c.176 1.21.315 2.243.381 2.8.224 1.838.423 2.975.477 3.26-.193.731-2 7.638-3.45 10.407-1.45 2.77-4.138 8.77-4.229 9.284-.09.514-.199 6.017-.199 6.694.006.309.193.726 1.027 1.004.437.14.894.21 1.353.206.242.009.481.047.713.115.278.07.56.112.846.127a.888.888 0 0 0 .556-.158z"/></g><g><path fill="#263238" d="M169.344 147.302a.302.302 0 0 1-.272-.176l-4.362-9.331a.303.303 0 0 1 .375-.417.296.296 0 0 1 .169.157l4.356 9.331a.309.309 0 0 1-.278.43z"/></g><g><path fill="#fff" d="M159.229 143.97l10.12 3.024-1.535 17.598-11.854-5.503 3.269-15.119z"/></g><g><path fill="#263238" d="M159.464 144.355l9.576 2.853-1.474 16.925-11.244-5.222zM167.8 164.9c.051.007.103 0 .151-.018a.302.302 0 0 0 .151-.236l1.535-17.605a.308.308 0 0 0-.212-.314l-10.125-3.024a.308.308 0 0 0-.242.03.296.296 0 0 0-.14.2l-3.262 15.119a.302.302 0 0 0 .164.339l11.853 5.51a.314.314 0 0 0 .127 0z"/></g><g><path fill="#fff" d="M169.345 147l2.7 15.82-4.235 1.779L169.345 147z"/></g><g><path fill="#263238" d="M171.7 162.63l-3.553 1.493 1.287-14.762zm-3.897 2.268c.041.008.084.01.127.006l4.229-1.784a.308.308 0 0 0 .181-.333l-2.7-15.815a.302.302 0 1 0-.605 0l-1.534 17.599a.315.315 0 0 0 .126.272.302.302 0 0 0 .176.055z"/></g><g><path fill="#adc7f7" d="M156.859 142.92l9.69 4.21-3.612 17.29-11.117-6.877 5.039-14.623z"/></g><g><path fill="#263238" d="M157.034 143.332l9.172 3.975-3.482 16.64-10.55-6.53zm5.893 21.39a.26.26 0 0 0 .079 0 .302.302 0 0 0 .181-.211l3.625-17.296a.296.296 0 0 0-.175-.339l-9.667-4.233a.332.332 0 0 0-.241 0 .302.302 0 0 0-.163.181l-5.04 14.617a.303.303 0 0 0 .128.357l11.11 6.882c.05.03.106.044.163.043z"/></g><g><path fill="#adc7f7" d="M166.543 147.13l.803 16.026-4.416 1.264 3.613-17.29z"/></g><g><path fill="#263238" d="M167.057 162.95l-3.713 1.066 3.029-14.526zm-4.027 1.769l4.422-1.27a.302.302 0 0 0 .218-.302l-.804-16.033a.303.303 0 1 0-.604-.042l-3.625 17.29a.297.297 0 0 0 .09.284c.056.053.13.081.206.079z"/></g><g><path fill="#263238" d="M161.19 144.807h-.036a.302.302 0 0 1-.266-.333l.538-4.97-4.38 3.658a.302.302 0 1 1-.387-.466l4.954-4.136a.314.314 0 0 1 .339-.037c.107.058.169.175.157.297l-.604 5.72a.296.296 0 0 1-.315.267z"/></g><g><path fill="#263238" d="M166.549 147.433a.302.302 0 0 1-.296-.26l-1.39-9.132a.306.306 0 0 1 .605-.09l1.39 9.131a.303.303 0 0 1-.255.345z"/></g><g><path fill="#fff" d="M165.524 186.072s-4.09 3.332-5.625 4.16c-1.534.83-3.262 1.851-2.76 2.323.5.472 7.406.079 9.062-.363 1.655-.441 3.492-.605 3.836-2.062a22.33 22.33 0 0 0 .266-4.3s-3.492.883-4.779.242z"/></g><g><path fill="#263238" d="M165.582 186.415c1.204.442 3.501.006 4.426-.2a19.794 19.794 0 0 1-.26 3.858c-.248 1.03-1.42 1.32-2.787 1.636l-.84.206c-1.706.46-8.193.763-8.768.46.012-.103.236-.545 2.69-1.866 1.404-.75 4.79-3.483 5.54-4.088zm-6.283 6.658a42.65 42.65 0 0 0 6.99-.587c.272-.072.55-.139.821-.2 1.42-.332 2.9-.677 3.233-2.086.233-1.447.324-2.914.272-4.378a.309.309 0 0 0-.375-.285c-.93.26-3.589.75-4.555.26a.29.29 0 0 0-.327.037c-.042.03-4.09 3.326-5.582 4.13-2.109 1.107-2.949 1.772-3.021 2.316a.557.557 0 0 0 .181.49c.224.218 1.154.303 2.363.303z"/></g><g><path fill="#fff" d="M164.207 191.761c-2.234.29-4.496.29-6.73 0-.375.327-.544.605-.339.804.502.472 7.407.079 9.063-.362 1.655-.442 3.492-.605 3.836-2.063 0-.09.043-.187.06-.29a17.122 17.122 0 0 1-5.89 1.911z"/></g><g><path fill="#263238" d="M157.572 192.057c2.213.274 4.451.274 6.664 0a16.452 16.452 0 0 0 5.36-1.645c-.412.75-1.439.997-2.647 1.27l-.84.205c-1.704.466-8.186.762-8.76.466.006-.006.012-.09.223-.296zm1.722 1.016a42.649 42.649 0 0 0 6.966-.617c.272-.073.55-.14.822-.2 1.42-.333 2.9-.677 3.232-2.086.024-.097.066-.2.066-.309a.296.296 0 0 0-.12-.296.308.308 0 0 0-.32 0c-1.793.98-3.751 1.62-5.776 1.887-2.207.28-4.44.28-6.646 0a.296.296 0 0 0-.242.072 1.21 1.21 0 0 0-.526.829.52.52 0 0 0 .182.417c.223.218 1.154.303 2.362.303z"/></g></g><g><g><path fill="#fff" d="M111.028 99.825s-1.933 1.13-2.299 2.121c-.365.991-.134 2.164.354 1.952.488-.213.561-.997.561-.997l.573-.608s-.347 1.477.232 1.264c.58-.213.854-1.1.854-1.1s2.243-.754 2.219-1.434c-.024-.681-1.226-1.532-2.494-1.198z"/></g><g><path fill="#263238" d="M111.157 100.115a2 2 0 0 1 1.677.31c.218.136.37.358.414.61.006.208-.89.77-2.012 1.148a.305.305 0 0 0-.195.2 1.647 1.647 0 0 1-.61.867 2.922 2.922 0 0 1 .092-.878.305.305 0 0 0-.153-.336.299.299 0 0 0-.366.061l-.573.61a.342.342 0 0 0-.085.177c-.012.152-.116.64-.33.762a1.97 1.97 0 0 1 0-1.58c.263-.731 1.592-1.628 2.135-1.951zm-2.183 4.122a.562.562 0 0 0 .244-.073c.301-.159.523-.437.61-.766a.638.638 0 0 0 .188.359c.146.13.354.16.53.079a1.953 1.953 0 0 0 1-1.13c.8-.274 2.288-.913 2.288-1.685a1.452 1.452 0 0 0-.659-1.057 2.629 2.629 0 0 0-2.213-.432.317.317 0 0 0-.08.037c-.213.121-2.042 1.215-2.439 2.28-.305.844-.244 1.86.147 2.224.1.104.239.163.384.164z"/></g><g><path fill="#fff" d="M135.445 83.916s-.988 3.264-2.043 4.182c-1.055.917-.756.996.244 1.556 0 0 .39 3.422.61 4.692a1.698 1.698 0 0 0 1.518 1.623c.695.17 3.396-1.574 3.396-1.574s3.42-.784 5.409-3.392c1.988-2.608.963-7.476-1.067-9.768-2.03-2.292-6.8-.881-8.067 2.68z"/></g><g><path fill="#263238" d="M139.888 80.52a3.506 3.506 0 0 1 3.39.924c2 2.257 2.958 6.904 1.062 9.392-1.897 2.487-5.208 3.284-5.238 3.284a.269.269 0 0 0-.098.037c-1.25.809-2.817 1.618-3.152 1.532-.634-.164-1.098-.28-1.299-1.38-.213-1.247-.61-4.641-.61-4.672a.31.31 0 0 0-.152-.23l-.14-.08a2.983 2.983 0 0 1-.61-.383c.006-.043.073-.182.56-.608 1.092-.943 2.062-4.094 2.129-4.313a5.594 5.594 0 0 1 4.158-3.503zm-.579 14.205a10.724 10.724 0 0 0 5.53-3.489c2.062-2.705 1.11-7.683-1.085-10.157a4.082 4.082 0 0 0-3.963-1.118 6.208 6.208 0 0 0-4.634 3.902c-.269.881-1.14 3.331-1.952 4.036-.524.45-.798.748-.762 1.119.037.37.384.565.915.857.08.686.408 3.428.61 4.552a1.99 1.99 0 0 0 1.75 1.86c.054.007.11.007.164 0 .878 0 2.769-1.173 3.427-1.562z"/></g><g><path fill="#fff" d="M139.77 100.754s-6.787 0-8.952-.036c-2.165-.037-5.134-.73-8.28-.84-3.147-.109-5.72-.419-8.58-.607-2.86-.188-6.707-.298-6.585.091.122.39.994.365 1.982.438a15.42 15.42 0 0 1 3.176.985v.486a2.83 2.83 0 0 1-1.22 1.216c-.871.419-1.347 1.02-.853 1.1.494.079 2.147-.65 3.049-.87.902-.218 2.512-1.543 2.512-1.543s8.25 2.899 10.018 2.948c1.769.048 3.94.079 5.909.316l3.854.474z"/></g><g><path fill="#263238" d="M115.98 100.853a.311.311 0 0 0-.2.037 9.66 9.66 0 0 1-2.397 1.492c-.342.085-.769.231-1.22.395-.493.188-.998.34-1.512.457.225-.214.485-.39.768-.517a3.096 3.096 0 0 0 1.384-1.359.292.292 0 0 0 .031-.14v-.493a.305.305 0 0 0-.19-.268 15.702 15.702 0 0 0-3.273-1.01l-.476-.031-.567-.037a48.779 48.779 0 0 1 5.61.146c.95.073 1.865.153 2.78.238 1.817.158 3.695.329 5.805.396 1.578.078 3.151.237 4.713.475 1.185.193 2.38.315 3.58.365 1.72.037 6.402.037 8.231.037l-3.402 3.52-3.701-.463c-1.787-.213-3.738-.262-5.445-.305h-.488c-1.708-.048-9.848-2.905-9.927-2.935a.311.311 0 0 0-.104 0zm19.78 4.343a.312.312 0 0 0 .22-.06l4.006-4.134a.303.303 0 0 0-.22-.517c-.072 0-6.804 0-8.944-.036a30.544 30.544 0 0 1-3.5-.359c-1.458-.194-3.104-.42-4.78-.48-2.11-.067-3.94-.23-5.769-.395-.92-.085-1.841-.164-2.793-.237-1.055-.08-6.347-.456-6.829.152a.418.418 0 0 0-.073.328c.152.517.872.56 1.78.608l.47.03c.998.185 1.972.483 2.902.888v.213c-.25.432-.62.782-1.067 1.009-.61.291-1.286.796-1.22 1.27a.5.5 0 0 0 .452.407 5.318 5.318 0 0 0 1.982-.498c.439-.152.853-.304 1.164-.383a9.274 9.274 0 0 0 2.5-1.495c1.19.419 8.269 2.862 9.952 2.911h.487c1.695.043 3.61.085 5.39.304 1.976.237 3.848.474 3.848.474z"/></g><g><path fill="#fff" d="M139.362 164.924s-1.787 13.98-2.378 17.341c-.592 3.362-1.903 6.158-2.348 6.632-.445.474-4.22 1.963-5.805 2.462-1.585.498-3.2 1.124-1.914 1.665 1.286.541 3.048.608 4.878.663 1.829.054 3.817.237 5.091.2 1.275-.036 1.683-1.544 1.659-2.468a31.11 31.11 0 0 1 1.628-7.53c.963-2.566 3.512-6.438 4.445-9.92.933-3.484.451-12.334.439-12.796-.012-.462-2.701-4.632-5.695 3.75z"/></g><g><path fill="#263238" d="M126.746 192.613c.061-.11.403-.396 2.153-.955 1.299-.407 5.427-2.012 5.951-2.553.524-.54 1.83-3.422 2.439-6.783.549-3.252 2.28-16.57 2.378-17.33 1.585-4.419 2.97-4.996 3.659-4.948a1.962 1.962 0 0 1 1.408 1.155v.25c.268 5.987.11 10.412-.439 12.454a34.305 34.305 0 0 1-2.756 6.352 38.242 38.242 0 0 0-1.683 3.538 31.026 31.026 0 0 0-1.646 7.652c.024.815-.323 2.122-1.366 2.152-.774.025-1.83-.036-2.945-.097-.695-.037-1.421-.103-2.122-.103-1.714-.03-3.512-.116-4.762-.639a1.917 1.917 0 0 1-.28-.145zm10.11 1.592c1.482-.042 1.988-1.726 1.957-2.778.23-2.53.77-5.023 1.61-7.422a37.516 37.516 0 0 1 1.653-3.476 34.894 34.894 0 0 0 2.804-6.468c.763-2.832.61-9.136.452-12.637v-.243a2.478 2.478 0 0 0-1.83-1.726c-1.591-.262-3.073 1.556-4.432 5.367a.218.218 0 0 0 0 .06c-.019.14-1.787 14.018-2.379 17.33-.591 3.313-1.926 6.11-2.274 6.48-.347.37-3.799 1.793-5.689 2.389-1.89.595-2.58 1.063-2.598 1.507-.018.444.488.657.659.73 1.36.571 3.195.632 4.976.686.7.025 1.42.067 2.11.104.957.048 1.871.103 2.615.103z"/></g><g><path fill="#fff" d="M145.047 99.722a8.121 8.121 0 0 0-5.792.262c-2.909 1.361-7.817 8.467-7.775 10.029.043 1.562 1.378 3.294 1.708 4.559.329 1.264.524 14.588.61 21.554.085 6.966 2.762 16.977 3.469 21.171.707 4.194 4.384 18.795 4.988 22.6.58 3.755.954 7.54 1.122 11.336-.067 1.18-1.787 2.9-3.817 4.036-2.03 1.137-4.58 1.605-4.159 2.571.42.967 4.463 1.216 6.018.608 1.555-.608 6.238-1.945 6.622-2.346.384-.401-.195-3.234-.524-4.498-.33-1.265-1.116-11.142-.61-13.513.506-2.37.207-9.61-.36-12.242-.567-2.632-1.5-7.604-1.5-7.604a79.579 79.579 0 0 1 2.336-7.713c1.189-3.076 4.603-7.386 4.445-12.68-.159-5.294-2.092-7.78-3.75-10.674a15.936 15.936 0 0 1-1.415-11.33c1.073-3.756 5.043-9.263 3.58-12.157-1.464-2.893-5.196-3.969-5.196-3.969z"/></g><g><path fill="#263238" d="M144.964 100.036c.037.006 3.657 1.064 5.034 3.811.914 1.805-.5 4.826-1.87 7.75a30.601 30.601 0 0 0-1.726 4.188 16.234 16.234 0 0 0 1.439 11.55c.22.382.445.753.67 1.13 1.438 2.4 2.92 4.887 3.047 9.403.092 3.738-1.651 7.039-3.047 9.683a28.25 28.25 0 0 0-1.395 2.875 78.263 78.263 0 0 0-2.402 7.708.303.303 0 0 0 0 .127c.006.055.927 4.984 1.5 7.616.572 2.632.865 9.744.36 12.115-.507 2.37.261 12.32.609 13.652.487 1.83.78 3.914.609 4.206-1.146.5-2.325.923-3.529 1.265-1.206.407-2.34.753-2.986 1.015-1.578.644-5.32.224-5.62-.45a.176.176 0 0 1 0-.146c.135-.328 1.03-.7 1.896-1.058.731-.283 1.444-.612 2.133-.984 1.86-1.016 3.895-2.797 3.968-4.255.073-1.24-.506-7.69-1.115-11.403-.311-1.946-1.433-6.76-2.511-11.416-1.049-4.498-2.127-9.136-2.475-11.184-.195-1.137-.524-2.65-.908-4.474-1.048-4.893-2.48-11.591-2.56-16.655v-.468c-.121-9.604-.304-19.98-.609-21.153a9.76 9.76 0 0 0-.731-1.708 7.397 7.397 0 0 1-.97-2.784c-.036-1.282 4.687-8.37 7.594-9.725a7.134 7.134 0 0 1 3.048-.65 8.058 8.058 0 0 1 2.547.419zm-3.396 98.69c.622-.256 1.8-.639 2.94-1.004 2.438-.784 3.536-1.155 3.786-1.422.61-.644-.341-4.358-.451-4.778-.36-1.282-1.104-11.135-.61-13.372.53-2.407.25-9.647-.36-12.37-.524-2.437-1.372-6.923-1.488-7.531.147-.571 1.214-4.79 2.305-7.616.403-.96.86-1.898 1.366-2.808 1.433-2.693 3.22-6.085 3.104-9.987-.134-4.675-1.659-7.228-3.134-9.695a92.17 92.17 0 0 1-.659-1.125 15.566 15.566 0 0 1-1.384-11.093 29.24 29.24 0 0 1 1.695-4.097c1.433-3.057 2.909-6.212 1.866-8.285-1.482-2.905-5.128-4.036-5.409-4.121a8.335 8.335 0 0 0-6.018.28c-2.975 1.422-7.975 8.625-7.927 10.333a7.849 7.849 0 0 0 1.037 3.04c.275.509.504 1.042.683 1.592.317 1.203.506 14.09.61 21.013v.462c.079 5.124 1.524 11.859 2.573 16.776.384 1.781.713 3.325.902 4.444.354 2.072 1.433 6.722 2.482 11.22 1.08 4.65 2.201 9.452 2.506 11.38.575 3.735.948 7.499 1.116 11.275-.049 1.003-1.659 2.662-3.659 3.78-.669.36-1.359.679-2.067.955-1.164.48-2 .826-2.231 1.386a.782.782 0 0 0 0 .607c.329.76 2.182 1.125 3.902 1.125a7.436 7.436 0 0 0 2.524-.365z"/></g><g><path fill="#adc7f7" d="M133.816 136.13c.11 6.954 2.762 16.977 3.47 21.171.146.839.408 2.097.737 3.598a6.724 6.724 0 0 0 7.415-.784l-.354-1.866a79.582 79.582 0 0 1 2.335-7.713c1.19-3.076 4.604-7.386 4.445-12.68-.158-5.294-2.091-7.78-3.75-10.674a15.936 15.936 0 0 1-1.414-11.33c1.073-3.756 5.042-9.263 3.58-12.157-1.464-2.893-5.233-3.963-5.233-3.963a8.121 8.121 0 0 0-5.792.262c-2.909 1.361-7.817 8.467-7.775 10.029.043 1.562 1.378 3.294 1.708 4.559.329 1.264.524 14.588.628 21.548z"/></g><g><path fill="#263238" d="M138.29 160.694c-.347-1.544-.573-2.699-.72-3.44-.195-1.137-.524-2.65-.908-4.474-1.049-4.893-2.482-11.592-2.56-16.655v-.468c-.123-9.604-.306-19.98-.61-21.153a9.758 9.758 0 0 0-.732-1.708 7.394 7.394 0 0 1-.97-2.784c-.036-1.283 4.69-8.37 7.598-9.726a7.877 7.877 0 0 1 5.585-.249c.037.006 3.659 1.064 5.037 3.811.914 1.806-.5 4.827-1.872 7.75a30.594 30.594 0 0 0-1.726 4.189 16.227 16.227 0 0 0 1.44 11.549c.219.383.444.753.67 1.13 1.439 2.401 2.92 4.887 3.049 9.404.091 3.738-1.653 7.038-3.05 9.682-.519.932-.985 1.892-1.396 2.876a78.227 78.227 0 0 0-2.341 7.75.303.303 0 0 0 0 .127s.128.687.317 1.684a6.4 6.4 0 0 1-6.81.705zm7.317-.34a.285.285 0 0 0 .11-.292c-.17-.936-.299-1.617-.342-1.824.147-.571 1.214-4.79 2.305-7.616.403-.96.86-1.898 1.366-2.808 1.433-2.693 3.22-6.085 3.104-9.987-.134-4.674-1.659-7.227-3.134-9.695-.22-.37-.44-.742-.659-1.125a15.566 15.566 0 0 1-1.384-11.093 29.24 29.24 0 0 1 1.695-4.097c1.433-3.057 2.909-6.212 1.866-8.285-1.506-2.984-5.262-4.078-5.396-4.115a8.33 8.33 0 0 0-6.03.274c-2.976 1.422-7.976 8.625-7.928 10.333a7.849 7.849 0 0 0 1.037 3.04c.275.509.504 1.042.683 1.592.317 1.204.506 14.09.61 21.013v.462c.079 5.124 1.524 11.86 2.573 16.777.384 1.78.713 3.324.902 4.443.128.778.378 1.963.738 3.617.022.09.082.165.165.206a7.77 7.77 0 0 0 3.341.803 6.903 6.903 0 0 0 4.378-1.623z"/></g><g><path fill="#263238" d="M132.208 80.784s1.152 2.51 2.11 4.936c.957 2.425 3.048 3.343 2.646 6.492-.403 3.148-.836 5.027.902 7.324 1.738 2.298 5.018 3.386 5.183 5.635.165 2.25-2.037 4.377-.384 7.07 1.652 2.692 5.488 3.373 10.213-.39 4.726-3.762-3.085-18.053-3.433-23.238-.347-5.184-.262-9.117-4.841-11.032-4.58-1.915-13.067.474-12.396 3.203z"/></g><g><path fill="#263238" d="M132.494 80.682a1.506 1.506 0 0 1 .683-1.417c2.14-1.818 7.878-2.84 11.286-1.404 4.092 1.72 4.305 5.083 4.592 9.728l.067 1.052c.122 1.739 1.018 4.371 2.055 7.411 2 5.843 4.493 13.17 1.493 15.572-2.433 1.94-4.853 2.82-6.823 2.48a4.226 4.226 0 0 1-2.945-2.012c-.963-1.569-.524-2.9-.067-4.317.333-.832.5-1.72.494-2.615-.104-1.483-1.39-2.468-2.75-3.508a12.724 12.724 0 0 1-2.488-2.292c-1.518-2.007-1.299-3.636-.945-6.336l.104-.772c.274-2.158-.555-3.332-1.433-4.548a9.576 9.576 0 0 1-1.22-2.091c-.884-2.268-1.975-4.645-2.103-4.931zm20.591 31.406c3.335-2.668.878-9.877-1.293-16.235-.981-2.881-1.914-5.599-2.024-7.258l-.067-1.045c-.293-4.68-.524-8.383-4.964-10.249-3.591-1.537-9.658-.42-11.92 1.502-.951.839-1.012 1.562-.89 2.054v.049c.012.06 1.164 2.54 2.103 4.923.34.794.778 1.541 1.305 2.225.842 1.18 1.573 2.194 1.323 4.121l-.097.766c-.366 2.754-.604 4.571 1.06 6.784.757.912 1.633 1.72 2.604 2.4 1.3.998 2.427 1.855 2.519 3.07a6.468 6.468 0 0 1-.47 2.39c-.482 1.41-.982 2.99.128 4.813a4.799 4.799 0 0 0 3.354 2.292c.328.058.66.087.994.085 1.524 0 3.664-.565 6.335-2.687z"/></g><g><path fill="#fff" d="M144.843 110.924a.152.152 0 0 1-.152-.122.152.152 0 0 1 .122-.176c1.829-.34 3.597-3.44 3.341-7.865-.195-3.453-3.591-6.56-7.183-9.854-.805-.735-1.64-1.5-2.439-2.26-4.207-4.08-3.659-11.033-3.659-11.106a.146.146 0 0 1 .165-.14c.085.01.147.085.14.17 0 .067-.56 6.881 3.543 10.856a86.18 86.18 0 0 0 2.44 2.256c3.658 3.337 7.072 6.485 7.28 10.06.262 4.589-1.659 7.816-3.592 8.18z"/></g><g><path fill="#fff" d="M152.395 104.01a.152.152 0 0 1-.153-.14c-.28-4.68-3.018-6.686-5.908-8.85-1.976-1.458-4.019-2.972-5.336-5.403a16.871 16.871 0 0 1-1.896-9.586.146.146 0 0 1 .164-.14c.082.01.142.082.135.164a16.629 16.629 0 0 0 1.865 9.422c1.287 2.37 3.3 3.86 5.25 5.3 2.952 2.188 5.738 4.255 6.031 9.075a.152.152 0 0 1-.14.158z"/></g><g><path fill="#fff" d="M139.422 78.869a.152.152 0 0 1-.128-.176c.057-.348.132-.693.225-1.034a.152.152 0 0 1 .293.086c-.09.33-.161.664-.213 1.002a.152.152 0 0 1-.177.122z"/></g><g><path fill="#fff" d="M140.627 99.66l8.17 6.607-.756 1.66-8.195-7.738s-.56-.456.78-.529z"/></g><g><path fill="#263238" d="M140.12 100.026c.127-.033.258-.054.39-.06l7.896 6.343-.488 1.062-7.81-7.345zm7.975 8.164a.286.286 0 0 0 .214-.17l.762-1.666a.31.31 0 0 0-.086-.358l-8.17-6.577a.275.275 0 0 0-.214-.067c-.506.024-1.042.11-1.164.486a.546.546 0 0 0 .195.565l8.195 7.714c.056.053.13.081.207.079z"/></g><g><path fill="#fff" d="M138.32 113.95l5.159 6.048-.604 1.21-4.555-7.258z"/></g><g><path fill="#263238" d="M143.103 120.04l-.274.54-2.055-3.271zm-.232 1.464a.293.293 0 0 0 .256-.164l.61-1.215a.303.303 0 0 0-.042-.335l-5.159-6.078a.306.306 0 0 0-.409-.043.291.291 0 0 0-.079.401l4.549 7.295c.058.087.157.14.262.14z"/></g><g><path fill="#fff" d="M147.77 105.234s-2.518 8.011-3.811 10.892c-1.293 2.881-2.695 5.47.213 7.35 2.909 1.877 6.025.905 8.323-1.125 2.3-2.03 3.885-11.975 3.007-14.99-.878-3.015-5.708-6.796-7.732-2.127z"/></g><g><path fill="#263238" d="M148.06 105.331c.61-1.392 1.512-2.054 2.664-1.975 1.909.121 3.994 2.304 4.512 4.097.89 3.07-.786 12.8-2.914 14.68-1.25 1.093-4.458 3.348-7.958 1.093-2.524-1.617-1.542-3.768-.323-6.48l.22-.486c1.268-2.857 3.664-10.436 3.823-10.94zm-.586 19.44a7.995 7.995 0 0 0 5.22-2.165c2.445-2.164 3.957-12.32 3.091-15.305-.585-2.024-2.878-4.395-5.061-4.535-.988-.06-2.341.298-3.244 2.37-.024.08-2.53 8.03-3.799 10.863l-.22.486c-1.243 2.735-2.414 5.325.55 7.24a6.307 6.307 0 0 0 3.463 1.045z"/></g><g><path fill="#fff" d="M154.976 106.101s-2.976-.699-4.39 1.405c-1.415 2.103-4.415 10.333-4.842 12.685-.427 2.353.226 4.213 2.287 4.152"/></g><g><path fill="#263238" d="M147.93 124.642a2.394 2.394 0 0 1-1.896-.79c-.671-.778-.879-2.097-.61-3.72.414-2.304 3.408-10.601 4.878-12.801 1.47-2.2 4.58-1.563 4.707-1.532.163.039.264.202.226.365a.311.311 0 0 1-.366.23s-2.787-.607-4.061 1.271c-1.415 2.103-4.403 10.364-4.793 12.576-.262 1.435-.097 2.577.451 3.21.384.431.949.656 1.525.607a.31.31 0 0 1 .31.292.303.303 0 0 1-.292.316z"/></g><g><path fill="#fff" d="M153.44 104.19a2.675 2.675 0 0 0-3.409.98c-1.42 2.005-3.158 6.467-3.341 6.959-.183.492.518.87.896.267.378-.601 1.89-6.035 3.622-7.16 1.732-1.124 3.659.383 3.659.383a5.48 5.48 0 0 0-1.427-1.428z"/></g><g><path fill="#263238" d="M152.25 104.225c.374-.005.745.071 1.086.225.101.05.196.113.28.188a2.988 2.988 0 0 0-2.548.329c-1.371.893-2.548 4.12-3.243 6.047-.136.413-.294.819-.475 1.215-.104.152-.22.183-.293.152a.121.121 0 0 1-.054-.158c.018-.042 1.822-4.795 3.297-6.886a2.373 2.373 0 0 1 1.981-1.112zm-5.126 8.777a.878.878 0 0 0 .744-.468c.208-.429.385-.872.53-1.325.628-1.733 1.787-4.966 3.006-5.745 1.525-.996 3.22.31 3.293.365a.306.306 0 0 0 .396 0 .297.297 0 0 0 .043-.395 5.741 5.741 0 0 0-1.537-1.526 2.993 2.993 0 0 0-3.792 1.076c-1.55 2.17-3.378 6.984-3.378 7.033a.716.716 0 0 0 .36.906.776.776 0 0 0 .335.079z"/></g><g><path fill="#263238" d="M138.594 190.72c-1.384.56-3.481 1.307-5.487 1.216-2.006-.091-2.702-.657-2.927-1.046-.525.195-1 .365-1.366.48-1.604.505-3.201 1.125-1.915 1.666 1.287.54 3.05.608 4.878.662 1.83.055 3.817.237 5.092.201 1.274-.036 1.683-1.544 1.658-2.468.006-.238.029-.476.067-.711z"/></g><g><path fill="#263238" d="M126.746 192.621c.06-.11.402-.396 2.122-.958.317-.098.72-.238 1.165-.403.402.446 1.22.904 3.049.989a13.156 13.156 0 0 0 5.128-1.068v.268c.025.818-.323 2.13-1.366 2.161-.774.025-1.83-.037-2.945-.098-.695-.036-1.42-.103-2.122-.103-1.714-.03-3.513-.116-4.763-.641a1.913 1.913 0 0 1-.28-.147zm10.128 1.575c1.482-.043 1.988-1.726 1.958-2.778 0-.228.015-.455.042-.68a.304.304 0 0 0-.414-.317 13.621 13.621 0 0 1-5.336 1.216c-1.994-.091-2.536-.657-2.676-.894a.305.305 0 0 0-.372-.127c-.513.188-.988.352-1.348.468-1.89.595-2.58 1.063-2.598 1.507-.018.444.488.657.659.73 1.36.57 3.195.632 4.976.686.7.025 1.42.067 2.11.104.957.048 1.871.103 2.615.103z"/></g><g><path fill="#263238" d="M141.443 198.447c1.555-.608 6.238-1.945 6.622-2.346.208-.225.128-1.216-.042-2.231-2.153 1.337-5.372 2.51-7.153 2.565-1.78.055-2.116-.401-2.207-.705-1.799.82-3.592 1.283-3.238 2.11.427.966 4.463 1.24 6.018.607z"/></g><g><path fill="#263238" d="M140.865 196.733c1.709-.049 4.717-1.086 6.92-2.366a3.62 3.62 0 0 1 .055 1.522c-1.148.5-2.328.922-3.533 1.262-1.208.407-2.343.753-2.99 1.014-1.58.643-5.327.224-5.626-.45a.175.175 0 0 1 0-.145c.134-.328 1.031-.698 1.897-1.056l.934-.394c.348.443 1.135.65 2.343.613zm.703 2.017c.622-.255 1.8-.638 2.94-1.002 2.438-.785 3.597-1.222 3.786-1.423.189-.2.341-.662.037-2.486a.304.304 0 0 0-.464-.213c-2.122 1.344-5.28 2.468-7 2.517-1.299.042-1.83-.225-1.908-.486a.298.298 0 0 0-.165-.189.324.324 0 0 0-.25 0c-.396.182-.799.347-1.17.505-1.165.48-2 .826-2.233 1.386a.782.782 0 0 0 0 .607c.33.76 2.183 1.125 3.903 1.125a7.436 7.436 0 0 0 2.524-.34z"/></g><g><path fill="#fff" d="M143.03 104.587s-.207-3.72-2.409-4.93c-2.2-1.209-5.134 2.596-4.817 6.802.317 4.207 0 17.549-.237 18.734-.238 1.185-1.83 4.954-4.61 10.625-2.78 5.671-2.567 6.249-2.817 7.823-.116.705-.61 5.805-.61 6.59 0 .783 1.415 1.215 2.396 1.3a1.585 1.585 0 0 0 1.64-1.216c0-.395-.896-.267-.896-.267a9.29 9.29 0 0 0 .134-2.261c-.048-1.569-.798-3.8-.823-4.583-.024-.785 9.622-14.102 10.153-16.078.53-1.975.494-6.686.676-7.179.183-.492 1.171-10.424 1.446-11.02.274-.595.518-2.863.774-4.34z"/></g><g><path fill="#263238" d="M139.746 99.732c.254.017.5.099.714.237 1.92 1.058 2.243 4.291 2.243 4.65-.073.468-.152 1.009-.231 1.55a16.038 16.038 0 0 1-.494 2.674c-.153.329-.39 2.225-.903 6.638-.225 1.976-.481 4.176-.555 4.407-.122.68-.18 1.37-.17 2.06a30.79 30.79 0 0 1-.512 5.143c-.28 1.027-3.415 5.677-5.933 9.415-3.342 4.954-4.232 6.352-4.232 6.747.058.551.162 1.096.31 1.63.26.967.431 1.956.513 2.954a9.332 9.332 0 0 1-.122 2.176.303.303 0 0 0 .336.377 1.51 1.51 0 0 1 .542 0c-.061.19-.173.36-.323.492-.258.26-.615.397-.982.377-.987-.067-2.116-.499-2.116-1.01 0-.765.5-5.835.61-6.528.03-.2.08-.382.08-.565.158-1.21.274-2.261 2.713-7.172 2.506-5.106 4.323-9.3 4.634-10.692.244-1.216.567-14.625.244-18.843-.22-2.918 1.146-5.447 2.543-6.34.323-.224.704-.351 1.097-.365zm-8.39 51.581c.295-.253.48-.61.518-.996a.534.534 0 0 0-.189-.39 1.124 1.124 0 0 0-.646-.194 12.64 12.64 0 0 0 .073-1.939 16.898 16.898 0 0 0-.53-3.082c-.133-.483-.23-.974-.293-1.47.091-.438 2.238-3.623 4.128-6.432 2.805-4.157 5.707-8.467 6.012-9.591.327-1.739.507-3.502.537-5.27.008-.63.053-1.26.134-1.885.103-.225.256-1.507.61-4.546.298-2.572.707-6.097.853-6.45a14.73 14.73 0 0 0 .543-2.844c.08-.547.158-1.1.238-1.569a.249.249 0 0 0 0-.066c-.013-.158-.244-3.903-2.567-5.18a2.323 2.323 0 0 0-2.44.19c-1.548.99-3.06 3.75-2.823 6.904.311 4.055.013 17.537-.231 18.643-.244 1.106-1.756 4.802-4.586 10.558-2.457 5.003-2.603 6.097-2.768 7.361-.024.176-.049.353-.08.547-.115.65-.609 5.799-.609 6.644.03 1.033 1.622 1.525 2.683 1.598h.128c.488-.007.955-.2 1.305-.54z"/></g><g><path fill="#fff" d="M130.68 150.04l2.22 8.656"/></g><g><path fill="#263238" d="M132.902 158.996a.305.305 0 0 1-.293-.225l-2.22-8.662a.303.303 0 0 1 .22-.37.311.311 0 0 1 .372.218l2.22 8.662a.303.303 0 0 1-.22.37z"/></g><g><path fill="#fff" d="M127.856 151l-1.006 5.914"/></g><g><path fill="#263238" d="M126.854 157.224h-.048a.299.299 0 0 1-.25-.353l1.006-5.908a.31.31 0 0 1 .353-.25.31.31 0 0 1 .25.353l-1.012 5.909a.299.299 0 0 1-.299.249z"/></g><g><path fill="#fff" d="M135.089 159.42l2.725 15.901-4.274 1.793 1.549-17.694z"/></g><g><path fill="#263238" d="M137.48 175.137l-3.586 1.501 1.299-14.837zm-3.933 2.285a.398.398 0 0 0 .122-.024l4.268-1.793a.304.304 0 0 0 .183-.328l-2.726-15.902a.31.31 0 0 0-.31-.255.31.31 0 0 0-.293.28l-1.55 17.688a.297.297 0 0 0 .123.273.33.33 0 0 0 .183.061z"/></g><g><path fill="#fff" d="M124.873 156.38l10.22 3.04-1.55 17.694-11.963-5.538 3.293-15.196z"/></g><g><path fill="#263238" d="M125.095 156.763l9.665 2.869-1.488 17.02-11.348-5.252zm8.445 20.654a.36.36 0 0 0 .153-.018.298.298 0 0 0 .146-.237l1.549-17.694a.298.298 0 0 0-.214-.316l-10.22-3.04a.342.342 0 0 0-.243 0 .322.322 0 0 0-.14.201l-3.293 15.196a.298.298 0 0 0 .17.34l11.958 5.538a.33.33 0 0 0 .134.03z"/></g></g></g></g></svg>