<svg xmlns="http://www.w3.org/2000/svg" width="135" height="100" viewBox="0 0 135 100"><g><g><g><g><path fill="#adc7f7" d="M118.539 90.318s18.742-21.725 13.927-49.508C127.652 13.026 102.82-1.52 86.164.126c-16.656 1.646-33.24 17.972-49.515 19.99C20.374 22.133-4.16 36.494.799 63.816c4.96 27.324 20.028 29.997 44.42 31 24.392 1.004 58.907 13.516 73.32-4.498z"/></g><g><path fill="#fdf2eb" d="M118.539 90.318s18.742-21.725 13.927-49.508C127.652 13.026 102.82-1.52 86.164.126c-16.656 1.646-33.24 17.972-49.515 19.99C20.374 22.133-4.16 36.494.799 63.816c4.96 27.324 20.028 29.997 44.42 31 24.392 1.004 58.907 13.516 73.32-4.498z"/></g></g><g><g><path fill="none" stroke="#263238" stroke-linecap="round" stroke-linejoin="round" stroke-miterlimit="20" d="M3.44 66.14h130.24"/></g></g><g><g><path fill="#263238" d="M19.645 78.143c6.111 0 11.066-1.839 11.066-4.106 0-2.268-4.955-4.107-11.066-4.107-6.11 0-11.065 1.839-11.065 4.107 0 2.267 4.954 4.106 11.065 4.106z"/></g><g><path fill="#fff" d="M13.19 61.1l1.543 12.522c0 2.007 3.746 3.636 8.368 3.636s8.367-1.629 8.367-3.636L33.011 61.1z"/></g><g><g><path fill="#adc7f7" d="M21.65 61.1h-8.46l1.543 12.522c0 2.007 3.746 3.636 8.368 3.636.3 0 .595-.007.886-.02-2.635-4.674-2.68-11.533-2.337-16.138z"/></g><g opacity=".4"><path fill="#fff" d="M21.65 61.1h-8.46l1.543 12.522c0 2.007 3.746 3.636 8.368 3.636.3 0 .595-.007.886-.02-2.635-4.674-2.68-11.533-2.337-16.138z"/></g></g><g><path fill="none" stroke="#263238" stroke-linecap="round" stroke-linejoin="round" stroke-miterlimit="20" d="M13.19 61.1v0l1.543 12.522c0 2.007 3.746 3.636 8.368 3.636s8.367-1.629 8.367-3.636L33.011 61.1v0z"/></g><g><path fill="#fff" d="M23.1 65.412c5.474 0 9.911-1.928 9.911-4.306s-4.437-4.306-9.91-4.306c-5.474 0-9.911 1.928-9.911 4.306s4.437 4.306 9.91 4.306z"/><path fill="none" stroke="#263238" stroke-linecap="round" stroke-linejoin="round" stroke-miterlimit="20" d="M23.1 65.412c5.474 0 9.911-1.928 9.911-4.306s-4.437-4.306-9.91-4.306c-5.474 0-9.911 1.928-9.911 4.306s4.437 4.306 9.91 4.306z"/></g><g><path fill="#263238" d="M23.096 64.731c4.89 0 8.855-1.677 8.855-3.745 0-2.069-3.964-3.746-8.855-3.746s-8.856 1.677-8.856 3.746c0 2.068 3.965 3.745 8.856 3.745z"/><path fill="none" stroke="#263238" stroke-linecap="round" stroke-linejoin="round" stroke-miterlimit="20" d="M23.096 64.731c4.89 0 8.855-1.677 8.855-3.745 0-2.069-3.964-3.746-8.855-3.746s-8.856 1.677-8.856 3.746c0 2.068 3.965 3.745 8.856 3.745z"/></g><g><path fill="none" stroke="#263238" stroke-linecap="round" stroke-linejoin="round" stroke-miterlimit="20" d="M23.773 61.38v0s-.79-7.293-5.714-12.812c-4.925-5.519-3.719-4.842-3.719-4.842v0"/></g><g><path fill="none" stroke="#263238" stroke-linecap="round" stroke-linejoin="round" stroke-miterlimit="20" d="M32.646 39.7v0s-5.91 5.914-6.897 12.615c-.986 6.701-.343 7.784-.343 7.784v0"/></g><g><path fill="none" stroke="#263238" stroke-linecap="round" stroke-linejoin="round" stroke-miterlimit="20" d="M24.746 60.98v0s-1.155-4.123-2.337-12.408c-1.182-8.286-.591-12.612-.591-12.612v0"/></g><g><path fill="#adc7f7" d="M14.848 45.976s-1.653 1.794-4.196-1.718C8.11 40.746 8.955 36.65 8.955 36.65s1.295 1.976 3.258 2.808c1.962.831 4.828 5.556 2.635 6.518z"/></g><g><path fill="#adc7f7" d="M21.8 37.924s-2.365.591-2.56-3.742c-.197-4.333 2.748-7.292 2.748-7.292s0 2.364 1.183 4.124c1.182 1.76.996 7.306-1.372 6.91z"/></g><g><path fill="#adc7f7" d="M31.561 41.884s-2.302-.801-.092-4.533 6.302-4.591 6.302-4.591-1.296 1.98-1.278 4.124c.017 2.144-3.155 6.625-4.932 5z"/></g><g><path fill="#adc7f7" d="M24.557 60.388s1.577-7.096 4.928-10.443a10.756 10.756 0 0 1 7.488-3.155s-3.942 1.577-5.124 4.729c-1.182 3.15-3.162 10.051-3.162 10.051h-9.841s-1.186-2.56-4.537-5.519c-3.35-2.959-8.869-4.924-8.869-4.924s6.11-2.169 10.447-.395c4.337 1.773 7.488 9.278 7.488 9.278z"/></g><g><path fill="#adc7f7" d="M26.075 60.377s-3.91-2.684-8.179-2.237c-4.268.447-4.622 3.914-4.81 4.921-.105.591-.164 1.19-.176 1.79 0 0 5.498-1.676 8.887-2.237 3.388-.56 4.81 1.007 4.278-2.237z"/></g><g><path fill="#adc7f7" d="M24.618 60.377s2.46-2.684 5.155-2.237c2.694.447 2.907 3.914 3.017 4.921.068.595.106 1.192.114 1.79 0 0-3.468-1.676-5.591-2.237-2.124-.56-3.031 1.007-2.695-2.237z"/></g></g><g><g><path fill="#263238" d="M39.387 17.22h74.385a2.797 2.797 0 0 1 2.797 2.797v52H36.59V20.014a2.797 2.797 0 0 1 2.797-2.794z"/><path fill="none" stroke="#263238" stroke-linecap="round" stroke-linejoin="round" stroke-miterlimit="20" d="M39.387 17.22h74.385a2.797 2.797 0 0 1 2.797 2.797v52H36.59v0-52.003a2.797 2.797 0 0 1 2.797-2.794z"/></g><g><path fill="#fff" d="M128.56 96.243H24.59L36.587 72.02h79.976l11.996 24.223z"/><path fill="none" stroke="#263238" stroke-linecap="round" stroke-linejoin="round" stroke-miterlimit="20" d="M128.56 96.243v0H24.59v0L36.587 72.02v0h79.976v0l11.996 24.223v0z"/></g><g><path fill="#adc7f7" d="M41.43 21.56h70.289v46.12H41.43z"/><path fill="none" stroke="#263238" stroke-linecap="round" stroke-linejoin="round" stroke-miterlimit="20" d="M41.43 21.56v0h70.289v46.12H41.43v0z"/></g><g transform="rotate(-45 53.5 47.5)"><path fill="#263238" d="M53.935 57.1c5.487 0 9.934-4.448 9.934-9.935s-4.447-9.935-9.934-9.935c-5.487 0-9.935 4.448-9.935 9.935s4.448 9.934 9.935 9.934z"/></g><g transform="rotate(-45 76.5 47.5)"><path fill="#263238" d="M76.895 57.1c5.487 0 9.934-4.448 9.934-9.935s-4.447-9.935-9.934-9.935c-5.487 0-9.935 4.448-9.935 9.935s4.448 9.934 9.935 9.934z"/></g><g transform="rotate(-13.12 99.5 47)"><path fill="#263238" d="M99.855 57.1c5.486 0 9.934-4.449 9.934-9.935 0-5.487-4.448-9.935-9.934-9.935-5.487 0-9.935 4.448-9.935 9.935 0 5.486 4.448 9.934 9.935 9.934z"/></g><g><path fill="#fff" d="M47.11 44.629s4.378-11.959 6.952-11.959 7.106 11.818 7.106 11.818l-.766.069s-4.45-10.358-5.77-10.997c-1.32-.64-3.756 3.127-6.745 11.055z"/><path fill="none" stroke="#263238" stroke-linecap="round" stroke-linejoin="round" stroke-miterlimit="20" d="M47.11 44.629v0s4.378-11.959 6.952-11.959 7.106 11.818 7.106 11.818v0l-.766.069v0s-4.45-10.358-5.77-10.997c-1.32-.64-3.756 3.127-6.745 11.055z"/></g><g><path fill="#fff" d="M47.551 43.93H60.71c.82 0 1.485.665 1.485 1.485v7.058a1.189 1.189 0 0 1-1.19 1.189H47.26a1.189 1.189 0 0 1-1.189-1.189v-7.055a1.485 1.485 0 0 1 1.481-1.488z"/><path fill="none" stroke="#263238" stroke-linecap="round" stroke-linejoin="round" stroke-miterlimit="20" d="M47.551 43.93v0H60.71c.82 0 1.485.665 1.485 1.485v7.058a1.189 1.189 0 0 1-1.19 1.189H47.26a1.189 1.189 0 0 1-1.189-1.189v-7.055a1.485 1.485 0 0 1 1.481-1.488z"/></g><g><path fill="#fff" d="M46.21 49.152h14.598"/><path fill="none" stroke="#263238" stroke-linecap="round" stroke-linejoin="round" stroke-miterlimit="20" d="M46.21 49.152h14.598"/></g><g><path fill="#fff" d="M61.436 44.28s-.344.42-.344 1.601c0 1.183-.416 7.44-.344 7.715.073.275.488.072.488.072"/><path fill="none" stroke="#263238" stroke-linecap="round" stroke-linejoin="round" stroke-miterlimit="20" d="M61.436 44.28v0s-.344.42-.344 1.601c0 1.183-.416 7.44-.344 7.715.073.275.488.072.488.072v0"/></g><g><path fill="#fff" d="M52.95 47.76h1.113v2.502H52.95z"/><path fill="none" stroke="#263238" stroke-linecap="round" stroke-linejoin="round" stroke-miterlimit="20" d="M52.95 47.76v0h1.113v2.502H52.95v0z"/></g><g><path fill="#fff" d="M68.2 41.355s4.643-.405 10.093-.405 8.01.344 8.075.687c.066.344-.738 4.712-.738 5.114 0 .402 0 6.058-.134 6.395-.134.337-.743.605-1.01.67-.269.065-14.403.203-14.805.203a.808.808 0 0 1-.742-.808c0-.402.203-4.845-.134-6.46-.337-1.615-.605-5.396-.605-5.396z"/><path fill="none" stroke="#263238" stroke-linecap="round" stroke-linejoin="round" stroke-miterlimit="20" d="M68.2 41.355v0s4.643-.405 10.093-.405 8.01.344 8.075.687c.066.344-.738 4.712-.738 5.114 0 .402 0 6.058-.134 6.395-.134.337-.743.605-1.01.67-.269.065-14.403.203-14.805.203a.808.808 0 0 1-.742-.808c0-.402.203-4.845-.134-6.46-.337-1.615-.605-5.396-.605-5.396z"/></g><g><path fill="#fff" d="M73.193 43.575s-.069-5.316.47-7.134a3.78 3.78 0 0 1 3.568-2.691 4.997 4.997 0 0 1 4.494 3.708c.688 2.622.134 5.92.07 6.258-.066.336-.808 1.278-.946-.54-.137-1.818.138-6.055-.402-7.268a3.206 3.206 0 0 0-3.498-1.75c-1.416.345-2.155.943-2.423 2.692-.268 1.749.268 5.79-.069 6.663-.336.873-1.144 1.271-1.264.062z"/><path fill="none" stroke="#263238" stroke-linecap="round" stroke-linejoin="round" stroke-miterlimit="20" d="M73.193 43.575s-.069-5.316.47-7.134a3.78 3.78 0 0 1 3.568-2.691 4.997 4.997 0 0 1 4.494 3.708c.688 2.622.134 5.92.07 6.258-.066.336-.808 1.278-.946-.54-.137-1.818.138-6.055-.402-7.268a3.206 3.206 0 0 0-3.498-1.75c-1.416.345-2.155.943-2.423 2.692-.268 1.749.268 5.79-.069 6.663-.336.873-1.144 1.271-1.264.062z"/></g><g><path fill="#fff" d="M69.482 41.42s-.343 3.567-.343 4.914c0 1.347-.069 2.22-.069 2.22"/><path fill="none" stroke="#263238" stroke-linecap="round" stroke-linejoin="round" stroke-miterlimit="20" d="M69.482 41.42v0s-.343 3.567-.343 4.914c0 1.347-.069 2.22-.069 2.22v0"/></g><g><path fill="none" stroke="#263238" stroke-linecap="round" stroke-linejoin="round" stroke-miterlimit="20" d="M85.223 41.49s.138 3.567.138 5.653"/></g><g><path fill="#fff" d="M102.58 40.802a.344.344 0 0 1-.344-.296c-.664-4.148-1.495-8.722-1.921-10.206-.63 1.402-2.01 5.866-3.155 9.924a.356.356 0 1 1-.687-.189c0-.027.735-2.615 1.532-5.196 1.66-5.381 1.973-5.498 2.22-5.577a.409.409 0 0 1 .372.055c.182.134.433.316 1.422 5.787.478 2.64.897 5.265.9 5.292a.344.344 0 0 1-.34.406z"/><path fill="none" stroke="#263238" stroke-linecap="round" stroke-linejoin="round" stroke-miterlimit="20" d="M102.58 40.802a.344.344 0 0 1-.344-.296c-.664-4.148-1.495-8.722-1.921-10.206-.63 1.402-2.01 5.866-3.155 9.924a.356.356 0 1 1-.687-.189c0-.027.735-2.615 1.532-5.196 1.66-5.381 1.973-5.498 2.22-5.577a.409.409 0 0 1 .372.055c.182.134.433.316 1.422 5.787.478 2.64.897 5.265.9 5.292a.344.344 0 0 1-.34.406z"/></g><g><path fill="#fff" d="M91.43 39.65s6.842-.42 9.2-.327c2.357.093 6.546.344 6.529.616-.018.271-.1 8.934-.344 10.652-.244 1.719-1.47 3.877-2.536 4.272-1.065.395-4.646.25-6.481.175-1.835-.075-3.488-.316-4.313-1.488-.825-1.172-1.416-6.093-1.416-6.093z"/><path fill="none" stroke="#263238" stroke-linecap="round" stroke-linejoin="round" stroke-miterlimit="20" d="M91.43 39.65v0s6.842-.42 9.2-.327c2.357.093 6.546.344 6.529.616-.018.271-.1 8.934-.344 10.652-.244 1.719-1.47 3.877-2.536 4.272-1.065.395-4.646.25-6.481.175-1.835-.075-3.488-.316-4.313-1.488-.825-1.172-1.416-6.093-1.416-6.093v0z"/></g><g><path fill="#fff" d="M96.864 41.533a.687.687 0 1 0-1.374-.032.687.687 0 0 0 1.374.032z"/><path fill="none" stroke="#263238" stroke-linecap="round" stroke-linejoin="round" stroke-miterlimit="20" d="M96.864 41.533a.687.687 0 1 0-1.374-.032.687.687 0 0 0 1.374.032z"/></g><g transform="rotate(-80.56 103 42)"><path fill="#fff" d="M102.708 42.555a.698.698 0 1 0 0-1.395.698.698 0 0 0 0 1.395z"/><path fill="none" stroke="#263238" stroke-linecap="round" stroke-linejoin="round" stroke-miterlimit="20" d="M102.708 42.555a.698.698 0 1 0 0-1.395.698.698 0 0 0 0 1.395z"/></g><g><path fill="#fff" d="M92.62 51.16s4.914-.416 13.907.038"/><path fill="none" stroke="#263238" stroke-linecap="round" stroke-linejoin="round" stroke-miterlimit="20" d="M92.62 51.16s4.914-.416 13.907.038"/></g><g><path fill="#263238" d="M42.52 22.92h67.873v5.519H42.52z"/></g><g><path fill="none" stroke="#fff" stroke-miterlimit="20" stroke-width="2" d="M75.44 26.062h6.729"/></g><g><path fill="none" stroke="#fff" stroke-miterlimit="20" stroke-width="2" d="M89.95 26.062h6.729"/></g><g><path fill="#fff" d="M107.772 25.322v-.733h.198zm-3.215-.733h.474v1.237h-.065zm1.292 1.237h-.533v-1.237h.523zm.285-1.237h.543v1.237h-.543zm1.347 1.237h-.529v-1.237h.53zm-.577 1.385a.217.217 0 0 1 .043-.234c.06-.062.15-.081.229-.048.078.033.13.111.13.198 0 .056-.02.11-.06.151a.21.21 0 0 1-.343-.067zm-1.516 0a.217.217 0 0 1 .043-.234c.06-.062.15-.081.23-.048.078.033.13.111.13.198a.212.212 0 0 1-.207.214.21.21 0 0 1-.196-.13zm2.877-2.85a.137.137 0 0 0-.114-.059h-3.687l-.14-.426a.144.144 0 0 0-.138-.096h-.935a.14.14 0 0 0-.14.14.14.14 0 0 0 .14.145h.832l.9 2.705c.02.058.076.096.137.096h.052a.509.509 0 0 0-.08.265.495.495 0 1 0 .987 0 .478.478 0 0 0-.079-.265h.687a.505.505 0 0 0-.075.265.495.495 0 1 0 .986 0 .509.509 0 0 0-.079-.265h.11c.08 0 .144-.065.144-.144a.14.14 0 0 0-.144-.141h-2.406l-.158-.475h2.68a.14.14 0 0 0 .138-.103l.41-1.519a.144.144 0 0 0-.028-.123z"/></g><g><path fill="#fff" d="M109.376 24.265a1.048 1.048 0 1 0-2.096-.034 1.048 1.048 0 0 0 2.096.034z"/></g><g><path fill="#263238" d="M107.903 24.914a.127.127 0 0 1-.048-.079.213.213 0 0 1 .055-.192l.48-.471a.24.24 0 0 0 .097-.176.134.134 0 0 0-.055-.11.206.206 0 0 0-.13-.04H108.184l-.048.02-.052.03-.045.025a.086.086 0 0 1-.058 0 .103.103 0 0 1-.059-.038.237.237 0 0 1-.034-.065.103.103 0 0 1 0-.072.117.117 0 0 1 .055-.062.766.766 0 0 1 .426-.114.45.45 0 0 1 .316.12c.078.07.122.17.12.276 0 .074-.019.147-.054.213a.667.667 0 0 1-.172.202l-.368.292h.481c.027 0 .053.014.065.038a.168.168 0 0 1 .025.086.206.206 0 0 1-.025.093.079.079 0 0 1-.065.038h-.687a.124.124 0 0 1-.103-.014z"/></g><g><path fill="#fff" d="M69.898 27.34H45.053a1.653 1.653 0 0 1-1.653-1.657c0-.913.74-1.653 1.653-1.653h24.845c.913 0 1.653.74 1.653 1.653a1.653 1.653 0 0 1-1.653 1.656z"/></g><g><path fill="none" stroke="#263238" stroke-linecap="round" stroke-linejoin="round" stroke-miterlimit="20" stroke-width="2" d="M48.84 60.192h10.172"/></g><g><path fill="none" stroke="#263238" stroke-linecap="round" stroke-linejoin="round" stroke-miterlimit="20" stroke-width="2" d="M48.84 62.122h10.172"/></g><g><path fill="none" stroke="#263238" stroke-linecap="round" stroke-linejoin="round" stroke-miterlimit="20" stroke-width="2" d="M71.81 60.192h10.175"/></g><g><path fill="none" stroke="#263238" stroke-linecap="round" stroke-linejoin="round" stroke-miterlimit="20" stroke-width="2" d="M71.81 62.122h10.175"/></g><g><path fill="none" stroke="#263238" stroke-linecap="round" stroke-linejoin="round" stroke-miterlimit="20" stroke-width="2" d="M94.78 60.192h10.172"/></g><g><path fill="none" stroke="#263238" stroke-linecap="round" stroke-linejoin="round" stroke-miterlimit="20" stroke-width="2" d="M94.78 62.122h10.172"/></g><g><path fill="#263238" d="M73.238 79.692l.137-2.952h-4.223l-.282 2.952h4.368z"/><path fill="none" stroke="#fff" stroke-linecap="round" stroke-linejoin="round" stroke-miterlimit="20" d="M73.238 79.692v0l.137-2.952v0h-4.223v0l-.282 2.952v0h4.368v0z"/></g><g><path fill="#263238" d="M81.971 79.692l-.144-2.952H77.6l.003 2.952h4.368z"/><path fill="none" stroke="#fff" stroke-linecap="round" stroke-linejoin="round" stroke-miterlimit="20" d="M81.971 79.692v0l-.144-2.952v0H77.6v0l.003 2.952v0h4.368v0z"/></g><g><path fill="#263238" d="M104.72 82.845h4.516l-1.058-3.155h-4.368l.91 3.155z"/><path fill="none" stroke="#fff" stroke-linecap="round" stroke-linejoin="round" stroke-miterlimit="20" d="M104.72 82.845v0h4.516v0l-1.058-3.155v0h-4.368v0l.91 3.155v0z"/></g><g><path fill="#263238" d="M68.874 79.692l.282-2.952h-4.227l-.419 2.952h4.364z"/><path fill="none" stroke="#fff" stroke-linecap="round" stroke-linejoin="round" stroke-miterlimit="20" d="M68.874 79.692v0l.282-2.952v0h-4.227v0l-.419 2.952v0h4.364v0z"/></g><g><path fill="#263238" d="M60.138 79.692l.56-2.952h-4.224l-.704 2.952h4.368z"/><path fill="none" stroke="#fff" stroke-linecap="round" stroke-linejoin="round" stroke-miterlimit="20" d="M60.138 79.692v0l.56-2.952v0h-4.224v0l-.704 2.952v0h4.368v0z"/></g><g><path fill="#263238" d="M99.445 79.692l-.708-2.952H94.51l.567 2.952h4.368z"/><path fill="none" stroke="#fff" stroke-linecap="round" stroke-linejoin="round" stroke-miterlimit="20" d="M99.445 79.692v0l-.708-2.952v0H94.51v0l.567 2.952v0h4.368v0z"/></g><g><path fill="#263238" d="M103.816 79.692l-.853-2.952H98.74l.708 2.952h4.368z"/><path fill="none" stroke="#fff" stroke-linecap="round" stroke-linejoin="round" stroke-miterlimit="20" d="M103.816 79.692v0l-.853-2.952v0H98.74v0l.708 2.952v0h4.368v0z"/></g><g><path fill="#263238" d="M55.778 79.692l.704-2.952h-4.227l-.845 2.952h4.368z"/><path fill="none" stroke="#fff" stroke-linecap="round" stroke-linejoin="round" stroke-miterlimit="20" d="M55.778 79.692v0l.704-2.952v0h-4.227v0l-.845 2.952v0h4.368v0z"/></g><g><path fill="#263238" d="M86.342 79.692l-.285-2.952H81.83l.144 2.952h4.368z"/><path fill="none" stroke="#fff" stroke-linecap="round" stroke-linejoin="round" stroke-miterlimit="20" d="M86.342 79.692v0l-.285-2.952v0H81.83v0l.144 2.952v0h4.368v0z"/></g><g><path fill="#263238" d="M108.18 79.692l-.993-2.952h-4.227l.852 2.952h4.368z"/><path fill="none" stroke="#fff" stroke-linecap="round" stroke-linejoin="round" stroke-miterlimit="20" d="M108.18 79.692v0l-.993-2.952v0h-4.227v0l.852 2.952v0h4.368v0z"/></g><g><path fill="#263238" d="M95.074 79.692l-.567-2.952H90.28l.426 2.952h4.368z"/><path fill="none" stroke="#fff" stroke-linecap="round" stroke-linejoin="round" stroke-miterlimit="20" d="M95.074 79.692v0l-.567-2.952v0H90.28v0l.426 2.952v0h4.368v0z"/></g><g><path fill="#263238" d="M90.71 79.692l-.427-2.952H86.06l.285 2.952h4.364z"/><path fill="none" stroke="#fff" stroke-linecap="round" stroke-linejoin="round" stroke-miterlimit="20" d="M90.71 79.692v0l-.427-2.952v0H86.06v0l.285 2.952v0h4.364v0z"/></g><g><path fill="#263238" d="M77.608 79.692l-.004-2.952h-4.227l-.137 2.952h4.368z"/><path fill="none" stroke="#fff" stroke-linecap="round" stroke-linejoin="round" stroke-miterlimit="20" d="M77.608 79.692v0l-.004-2.952v0h-4.227v0l-.137 2.952v0h4.368v0z"/></g><g><path fill="#263238" d="M47.034 79.69h-4.368l-1.206 3.155h4.519l1.055-3.155z"/><path fill="none" stroke="#fff" stroke-linecap="round" stroke-linejoin="round" stroke-miterlimit="20" d="M47.034 79.69v0h-4.368v0l-1.206 3.155v0h4.519v0l1.055-3.155v0z"/></g><g><path fill="#263238" d="M48.024 76.74h-4.223l-1.131 2.952h4.368l.986-2.952z"/><path fill="none" stroke="#fff" stroke-linecap="round" stroke-linejoin="round" stroke-miterlimit="20" d="M48.024 76.74v0h-4.223v0l-1.131 2.952v0h4.368v0l.986-2.952v0z"/></g><g><path fill="#263238" d="M51.408 79.692l.845-2.952h-4.227l-.986 2.952h4.368z"/><path fill="none" stroke="#fff" stroke-linecap="round" stroke-linejoin="round" stroke-miterlimit="20" d="M51.408 79.692v0l.845-2.952v0h-4.227v0l-.986 2.952v0h4.368v0z"/></g><g><path fill="#263238" d="M40.168 86.23l-1.388 3.636h4.856l1.213-3.636h-4.68z"/><path fill="none" stroke="#fff" stroke-linecap="round" stroke-linejoin="round" stroke-miterlimit="20" d="M40.168 86.23v0l-1.388 3.636v0h4.856v0l1.213-3.636v0h-4.68v0z"/></g><g><path fill="#263238" d="M45.981 82.85h-4.519l-1.292 3.381h4.68l1.131-3.381z"/><path fill="none" stroke="#fff" stroke-linecap="round" stroke-linejoin="round" stroke-miterlimit="20" d="M45.981 82.85v0h-4.519v0l-1.292 3.381v0h4.68v0l1.131-3.381v0z"/></g><g><path fill="#263238" d="M44.853 86.23l-1.213 3.636h4.856l1.037-3.636h-4.68z"/><path fill="none" stroke="#fff" stroke-linecap="round" stroke-linejoin="round" stroke-miterlimit="20" d="M44.853 86.23v0l-1.213 3.636v0h4.856v0l1.037-3.636v0h-4.68v0z"/></g><g><path fill="#263238" d="M64.508 79.692l.419-2.952H60.7l-.56 2.952h4.368z"/><path fill="none" stroke="#fff" stroke-linecap="round" stroke-linejoin="round" stroke-miterlimit="20" d="M64.508 79.692v0l.419-2.952v0H60.7v0l-.56 2.952v0h4.368v0z"/></g><g><path fill="#263238" d="M64.055 82.845l.454-3.155h-4.368l-.601 3.155h4.515z"/><path fill="none" stroke="#fff" stroke-linecap="round" stroke-linejoin="round" stroke-miterlimit="20" d="M64.055 82.845v0l.454-3.155v0h-4.368v0l-.601 3.155v0h4.515v0z"/></g><g><path fill="#263238" d="M59.539 82.845l.601-3.155h-4.367l-.753 3.155h4.519z"/><path fill="none" stroke="#fff" stroke-linecap="round" stroke-linejoin="round" stroke-miterlimit="20" d="M59.539 82.845v0l.601-3.155v0h-4.367v0l-.753 3.155v0h4.519v0z"/></g><g><path fill="#263238" d="M68.569 82.845l.299-3.155h-4.364l-.454 3.155h4.519z"/><path fill="none" stroke="#fff" stroke-linecap="round" stroke-linejoin="round" stroke-miterlimit="20" d="M68.569 82.845v0l.299-3.155v0h-4.364v0l-.454 3.155v0h4.519v0z"/></g><g><path fill="#263238" d="M51.403 79.69h-4.368l-1.055 3.155h4.519l.904-3.155z"/><path fill="none" stroke="#fff" stroke-linecap="round" stroke-linejoin="round" stroke-miterlimit="20" d="M51.403 79.69v0h-4.368v0l-1.055 3.155v0h4.519v0l.904-3.155v0z"/></g><g><path fill="#263238" d="M105.693 86.231h4.68l-1.138-3.381h-4.515l.973 3.381z"/><path fill="none" stroke="#fff" stroke-linecap="round" stroke-linejoin="round" stroke-miterlimit="20" d="M105.693 86.231v0h4.68v0l-1.138-3.381v0h-4.515v0l.973 3.381v0z"/></g><g><path fill="#263238" d="M55.019 82.845l.752-3.155h-4.367l-.904 3.155h4.519z"/><path fill="none" stroke="#fff" stroke-linecap="round" stroke-linejoin="round" stroke-miterlimit="20" d="M55.019 82.845v0l.752-3.155v0h-4.367v0l-.904 3.155v0h4.519v0z"/></g><g><path fill="#263238" d="M45.98 82.85l-1.13 3.381h4.68l.97-3.381h-4.52z"/><path fill="none" stroke="#fff" stroke-linecap="round" stroke-linejoin="round" stroke-miterlimit="20" d="M45.98 82.85v0l-1.13 3.381v0h4.68v0l.97-3.381v0h-4.52v0z"/></g><g><path fill="#263238" d="M95.686 82.845l-.608-3.155H90.71l.457 3.155h4.519z"/><path fill="none" stroke="#fff" stroke-linecap="round" stroke-linejoin="round" stroke-miterlimit="20" d="M95.686 82.845v0l-.608-3.155v0H90.71v0l.457 3.155v0h4.519v0z"/></g><g><path fill="#263238" d="M91.161 82.845l-.457-3.155H86.34l.302 3.155h4.52z"/><path fill="none" stroke="#fff" stroke-linecap="round" stroke-linejoin="round" stroke-miterlimit="20" d="M91.161 82.845v0l-.457-3.155v0H86.34v0l.302 3.155v0h4.52v0z"/></g><g><path fill="#263238" d="M104.718 82.845l-.91-3.155H99.44l.76 3.155h4.518z"/><path fill="none" stroke="#fff" stroke-linecap="round" stroke-linejoin="round" stroke-miterlimit="20" d="M104.718 82.845v0l-.91-3.155v0H99.44v0l.76 3.155v0h4.518v0z"/></g><g><path fill="#263238" d="M77.609 82.845l-.004-3.155h-4.367l-.148 3.155h4.519z"/><path fill="none" stroke="#fff" stroke-linecap="round" stroke-linejoin="round" stroke-miterlimit="20" d="M77.609 82.845v0l-.004-3.155v0h-4.367v0l-.148 3.155v0h4.519v0z"/></g><g><path fill="#263238" d="M86.65 82.845l-.302-3.155H81.98l.155 3.155h4.515z"/><path fill="none" stroke="#fff" stroke-linecap="round" stroke-linejoin="round" stroke-miterlimit="20" d="M86.65 82.845v0l-.302-3.155v0H81.98v0l.155 3.155v0h4.515v0z"/></g><g><path fill="#263238" d="M82.132 82.845l-.154-3.155H77.61l.003 3.155h4.52z"/><path fill="none" stroke="#fff" stroke-linecap="round" stroke-linejoin="round" stroke-miterlimit="20" d="M82.132 82.845v0l-.154-3.155v0H77.61v0l.003 3.155v0h4.52v0z"/></g><g><path fill="#263238" d="M73.089 82.845l.148-3.155h-4.368l-.299 3.155h4.519z"/><path fill="none" stroke="#fff" stroke-linecap="round" stroke-linejoin="round" stroke-miterlimit="20" d="M73.089 82.845v0l.148-3.155v0h-4.368v0l-.299 3.155v0h4.519v0z"/></g><g><path fill="#263238" d="M86.65 82.85l.33 3.381h4.677l-.488-3.381H86.65z"/><path fill="none" stroke="#fff" stroke-linecap="round" stroke-linejoin="round" stroke-miterlimit="20" d="M86.65 82.85v0l.33 3.381v0h4.677v0l-.488-3.381v0H86.65v0z"/></g><g><path fill="#263238" d="M91.16 82.85l.488 3.381h4.68l-.65-3.381H91.16z"/><path fill="none" stroke="#fff" stroke-linecap="round" stroke-linejoin="round" stroke-miterlimit="20" d="M91.16 82.85v0l.488 3.381v0h4.68v0l-.65-3.381v0H91.16v0z"/></g><g><path fill="#263238" d="M50.5 82.85l-.97 3.381h4.68l.808-3.381h-4.519z"/><path fill="none" stroke="#fff" stroke-linecap="round" stroke-linejoin="round" stroke-miterlimit="20" d="M50.5 82.85v0l-.97 3.381v0h4.68v0l.808-3.381v0h-4.519v0z"/></g><g><path fill="#263238" d="M95.68 82.85l.65 3.381h4.68l-.811-3.381H95.68z"/><path fill="none" stroke="#fff" stroke-linecap="round" stroke-linejoin="round" stroke-miterlimit="20" d="M95.68 82.85v0l.65 3.381v0h4.68v0l-.811-3.381v0H95.68v0z"/></g><g><path fill="#263238" d="M77.61 82.85l.003 3.381h4.68l-.164-3.381H77.61z"/><path fill="none" stroke="#fff" stroke-linecap="round" stroke-linejoin="round" stroke-miterlimit="20" d="M77.61 82.85v0l.003 3.381v0h4.68v0l-.164-3.381v0H77.61v0z"/></g><g><path fill="#263238" d="M100.2 82.85l.811 3.381h4.68l-.972-3.381H100.2z"/><path fill="none" stroke="#fff" stroke-linecap="round" stroke-linejoin="round" stroke-miterlimit="20" d="M100.2 82.85v0l.811 3.381v0h4.68v0l-.972-3.381v0H100.2v0z"/></g><g><path fill="#263238" d="M82.13 82.85l.165 3.381h4.68l-.33-3.381H82.13z"/><path fill="none" stroke="#fff" stroke-linecap="round" stroke-linejoin="round" stroke-miterlimit="20" d="M82.13 82.85v0l.165 3.381v0h4.68v0l-.33-3.381v0H82.13v0z"/></g><g><path fill="#263238" d="M59.536 82.85l-.646 3.381h4.68l.482-3.381h-4.516z"/><path fill="none" stroke="#fff" stroke-linecap="round" stroke-linejoin="round" stroke-miterlimit="20" d="M59.536 82.85v0l-.646 3.381v0h4.68v0l.482-3.381v0h-4.516v0z"/></g><g><path fill="#263238" d="M55.018 82.85l-.808 3.381h4.68l.646-3.381h-4.518z"/><path fill="none" stroke="#fff" stroke-linecap="round" stroke-linejoin="round" stroke-miterlimit="20" d="M55.018 82.85v0l-.808 3.381v0h4.68v0l.646-3.381v0h-4.518v0z"/></g><g><path fill="#263238" d="M73.088 82.85l-.158 3.381h4.68l-.003-3.381h-4.519z"/><path fill="none" stroke="#fff" stroke-linecap="round" stroke-linejoin="round" stroke-miterlimit="20" d="M73.088 82.85v0l-.158 3.381v0h4.68v0l-.003-3.381v0h-4.519v0z"/></g><g><path fill="#263238" d="M68.57 82.85l-.32 3.381h4.68l.158-3.381H68.57z"/><path fill="none" stroke="#fff" stroke-linecap="round" stroke-linejoin="round" stroke-miterlimit="20" d="M68.57 82.85v0l-.32 3.381v0h4.68v0l.158-3.381v0H68.57v0z"/></g><g><path fill="#263238" d="M64.051 82.85l-.481 3.381h4.68l.32-3.381h-4.519z"/><path fill="none" stroke="#fff" stroke-linecap="round" stroke-linejoin="round" stroke-miterlimit="20" d="M64.051 82.85v0l-.481 3.381v0h4.68v0l.32-3.381v0h-4.519v0z"/></g><g><path fill="#263238" d="M100.207 82.845l-.76-3.155H95.08l.608 3.155h4.52z"/><path fill="none" stroke="#fff" stroke-linecap="round" stroke-linejoin="round" stroke-miterlimit="20" d="M100.207 82.845v0l-.76-3.155v0H95.08v0l.608 3.155v0h4.52v0z"/></g><g><path fill="#263238" d="M48.023 76.734l1.01-3.024h-4.082L43.8 76.734h4.223z"/><path fill="none" stroke="#fff" stroke-linecap="round" stroke-linejoin="round" stroke-miterlimit="20" d="M48.023 76.734v0l1.01-3.024v0h-4.082v0L43.8 76.734v0h4.223v0z"/></g><g><path fill="#263238" d="M43.802 76.74h-3.904l-1.258 2.952h4.03l1.132-2.952z"/><path fill="none" stroke="#fff" stroke-linecap="round" stroke-linejoin="round" stroke-miterlimit="20" d="M43.802 76.74v0h-3.904v0l-1.258 2.952v0h4.03v0l1.132-2.952v0z"/></g><g><path fill="#263238" d="M44.955 73.71h-3.766L39.9 76.734h3.904l1.151-3.024z"/><path fill="none" stroke="#fff" stroke-linecap="round" stroke-linejoin="round" stroke-miterlimit="20" d="M44.955 73.71v0h-3.766v0L39.9 76.734v0h3.904v0l1.151-3.024v0z"/></g><g><path fill="#263238" d="M42.675 79.69h-4.031L37.3 82.845h4.168l1.207-3.155z"/><path fill="none" stroke="#fff" stroke-linecap="round" stroke-linejoin="round" stroke-miterlimit="20" d="M42.675 79.69v0h-4.031v0L37.3 82.845v0h4.168v0l1.207-3.155v0z"/></g><g><path fill="#263238" d="M41.462 82.85h-4.169l-1.443 3.381h4.32l1.292-3.381z"/><path fill="none" stroke="#fff" stroke-linecap="round" stroke-linejoin="round" stroke-miterlimit="20" d="M41.462 82.85v0h-4.169v0l-1.443 3.381v0h4.32v0l1.292-3.381v0z"/></g><g><path fill="#263238" d="M40.17 86.23h-4.32l-1.55 3.636h4.481l1.388-3.636z"/><path fill="none" stroke="#fff" stroke-linecap="round" stroke-linejoin="round" stroke-miterlimit="20" d="M40.17 86.23v0h-4.32v0l-1.55 3.636v0h4.481v0l1.388-3.636v0z"/></g><g><path fill="#263238" d="M112.54 79.69l1.213 3.155h3.997l-1.344-3.155h-3.866z"/><path fill="none" stroke="#fff" stroke-linecap="round" stroke-linejoin="round" stroke-miterlimit="20" d="M112.54 79.69v0l1.213 3.155v0h3.997v0l-1.344-3.155v0h-3.866v0z"/></g><g><path fill="#263238" d="M115.059 86.231h4.14l-1.442-3.381h-3.997l1.299 3.381z"/><path fill="none" stroke="#fff" stroke-linecap="round" stroke-linejoin="round" stroke-miterlimit="20" d="M115.059 86.231v0h4.14v0l-1.442-3.381v0h-3.997v0l1.299 3.381v0z"/></g><g><path fill="#263238" d="M116.445 89.866h4.296l-1.55-3.636h-4.141l1.395 3.636z"/><path fill="none" stroke="#fff" stroke-linecap="round" stroke-linejoin="round" stroke-miterlimit="20" d="M116.445 89.866v0h4.296v0l-1.55-3.636v0h-4.141v0l1.395 3.636v0z"/></g><g><path fill="#263238" d="M81.83 76.734l-.148-3.024H77.6l.003 3.024h4.227z"/><path fill="none" stroke="#fff" stroke-linecap="round" stroke-linejoin="round" stroke-miterlimit="20" d="M81.83 76.734v0l-.148-3.024v0H77.6v0l.003 3.024v0h4.227v0z"/></g><g><path fill="#263238" d="M112.54 79.692h3.867l-1.258-2.952h-3.739l1.13 2.952z"/><path fill="none" stroke="#fff" stroke-linecap="round" stroke-linejoin="round" stroke-miterlimit="20" d="M112.54 79.692v0h3.867v0l-1.258-2.952v0h-3.739v0l1.13 2.952v0z"/></g><g><path fill="#263238" d="M110.377 86.231h4.68l-1.298-3.381h-4.519l1.137 3.381z"/><path fill="none" stroke="#fff" stroke-linecap="round" stroke-linejoin="round" stroke-miterlimit="20" d="M110.377 86.231v0h4.68v0l-1.298-3.381v0h-4.519v0l1.137 3.381v0z"/></g><g><path fill="#263238" d="M52.247 76.734l.866-3.024H49.03l-1.01 3.024h4.227z"/><path fill="none" stroke="#fff" stroke-linecap="round" stroke-linejoin="round" stroke-miterlimit="20" d="M52.247 76.734v0l.866-3.024v0H49.03v0l-1.01 3.024v0h4.227v0z"/></g><g><path fill="#263238" d="M107.19 76.74l.993 2.952h4.364l-1.13-2.952h-4.227z"/><path fill="none" stroke="#fff" stroke-linecap="round" stroke-linejoin="round" stroke-miterlimit="20" d="M107.19 76.74v0l.993 2.952v0h4.364v0l-1.13-2.952v0h-4.227v0z"/></g><g><path fill="#263238" d="M115.15 76.734l-1.288-3.024h-3.612l1.162 3.024h3.738z"/><path fill="none" stroke="#fff" stroke-linecap="round" stroke-linejoin="round" stroke-miterlimit="20" d="M115.15 76.734v0l-1.288-3.024v0h-3.612v0l1.162 3.024v0h3.738v0z"/></g><g><path fill="#263238" d="M111.41 76.734l-1.161-3.024h-4.079l1.014 3.024h4.227z"/><path fill="none" stroke="#fff" stroke-linecap="round" stroke-linejoin="round" stroke-miterlimit="20" d="M111.41 76.734v0l-1.161-3.024v0h-4.079v0l1.014 3.024v0h4.227v0z"/></g><g><path fill="#263238" d="M96.33 86.23l.701 3.636h4.852l-.873-3.636h-4.68z"/><path fill="none" stroke="#fff" stroke-linecap="round" stroke-linejoin="round" stroke-miterlimit="20" d="M96.33 86.23v0l.701 3.636v0h4.852v0l-.873-3.636v0h-4.68v0z"/></g><g><path fill="#263238" d="M111.59 89.866h4.856l-1.396-3.636h-4.68l1.22 3.636z"/><path fill="none" stroke="#fff" stroke-linecap="round" stroke-linejoin="round" stroke-miterlimit="20" d="M111.59 89.866v0h4.856v0l-1.396-3.636v0h-4.68v0l1.22 3.636v0z"/></g><g><path fill="#263238" d="M107.186 76.734l-1.014-3.024h-4.082l.87 3.024h4.226z"/><path fill="none" stroke="#fff" stroke-linecap="round" stroke-linejoin="round" stroke-miterlimit="20" d="M107.186 76.734v0l-1.014-3.024v0h-4.082v0l.87 3.024v0h4.226v0z"/></g><g><path fill="#263238" d="M105.69 86.23l1.048 3.636h4.852l-1.22-3.636h-4.68z"/><path fill="none" stroke="#fff" stroke-linecap="round" stroke-linejoin="round" stroke-miterlimit="20" d="M105.69 86.23v0l1.048 3.636v0h4.852v0l-1.22-3.636v0h-4.68v0z"/></g><g><path fill="#263238" d="M101.01 86.23l.873 3.636h4.856l-1.049-3.636h-4.68z"/><path fill="none" stroke="#fff" stroke-linecap="round" stroke-linejoin="round" stroke-miterlimit="20" d="M101.01 86.23v0l.873 3.636v0h4.856v0l-1.049-3.636v0h-4.68v0z"/></g><g><path fill="#263238" d="M109.238 82.845h4.52l-1.214-3.155h-4.364l1.058 3.155z"/><path fill="none" stroke="#fff" stroke-linecap="round" stroke-linejoin="round" stroke-miterlimit="20" d="M109.238 82.845v0h4.52v0l-1.214-3.155v0h-4.364v0l1.058 3.155v0z"/></g><g><path fill="#263238" d="M69.157 76.734l.285-3.024H65.36l-.43 3.024h4.227z"/><path fill="none" stroke="#fff" stroke-linecap="round" stroke-linejoin="round" stroke-miterlimit="20" d="M69.157 76.734v0l.285-3.024v0H65.36v0l-.43 3.024v0h4.227v0z"/></g><g><path fill="#263238" d="M102.962 76.734l-.87-3.024H98.01l.729 3.024h4.223z"/><path fill="none" stroke="#fff" stroke-linecap="round" stroke-linejoin="round" stroke-miterlimit="20" d="M102.962 76.734v0l-.87-3.024v0H98.01v0l.729 3.024v0h4.223v0z"/></g><g><path fill="#263238" d="M64.927 76.734l.43-3.024h-4.08l-.577 3.024h4.227z"/><path fill="none" stroke="#fff" stroke-linecap="round" stroke-linejoin="round" stroke-miterlimit="20" d="M64.927 76.734v0l.43-3.024v0h-4.08v0l-.577 3.024v0h4.227v0z"/></g><g><path fill="#263238" d="M77.607 76.734l-.004-3.024h-4.079l-.144 3.024h4.227z"/><path fill="none" stroke="#fff" stroke-linecap="round" stroke-linejoin="round" stroke-miterlimit="20" d="M77.607 76.734v0l-.004-3.024v0h-4.079v0l-.144 3.024v0h4.227v0z"/></g><g><path fill="#263238" d="M60.703 76.734l.578-3.024h-4.083l-.718 3.024h4.223z"/><path fill="none" stroke="#fff" stroke-linecap="round" stroke-linejoin="round" stroke-miterlimit="20" d="M60.703 76.734v0l.578-3.024v0h-4.083v0l-.718 3.024v0h4.223v0z"/></g><g><path fill="#263238" d="M56.477 76.734l.718-3.024h-4.079l-.866 3.024h4.227z"/><path fill="none" stroke="#fff" stroke-linecap="round" stroke-linejoin="round" stroke-miterlimit="20" d="M56.477 76.734v0l.718-3.024v0h-4.079v0l-.866 3.024v0h4.227v0z"/></g><g><path fill="#263238" d="M73.373 76.734l.145-3.024h-4.083l-.285 3.024h4.223z"/><path fill="none" stroke="#fff" stroke-linecap="round" stroke-linejoin="round" stroke-miterlimit="20" d="M73.373 76.734v0l.145-3.024v0h-4.083v0l-.285 3.024v0h4.223v0z"/></g><g><path fill="#263238" d="M98.738 76.734l-.729-3.024H93.93l.58 3.024h4.228z"/><path fill="none" stroke="#fff" stroke-linecap="round" stroke-linejoin="round" stroke-miterlimit="20" d="M98.738 76.734v0l-.729-3.024v0H93.93v0l.58 3.024v0h4.228v0z"/></g><g><path fill="#263238" d="M94.513 76.734l-.58-3.024H89.85l.436 3.024h4.227z"/><path fill="none" stroke="#fff" stroke-linecap="round" stroke-linejoin="round" stroke-miterlimit="20" d="M94.513 76.734v0l-.58-3.024v0H89.85v0l.436 3.024v0h4.227v0z"/></g><g><path fill="#263238" d="M86.055 76.734l-.296-3.024H81.68l.148 3.024h4.227z"/><path fill="none" stroke="#fff" stroke-linecap="round" stroke-linejoin="round" stroke-miterlimit="20" d="M86.055 76.734v0l-.296-3.024v0H81.68v0l.148 3.024v0h4.227v0z"/></g><g><path fill="#263238" d="M96.328 86.23h-46.8l-1.038 3.636h48.54l-.702-3.636z"/><path fill="none" stroke="#fff" stroke-linecap="round" stroke-linejoin="round" stroke-miterlimit="20" d="M96.328 86.23v0h-4.68v0h-4.677v0h-4.68v0h-4.68v0H72.93v0h-4.68v0h-4.681v0h-4.68v0h-4.68v0h-4.681v0l-1.038 3.636v0h4.852v0h4.856v0h4.852v0h4.856v0h4.852v0h4.856v0h4.852v0h4.856v0h4.852v0h4.856v0l-.702-3.636v0z"/></g><g><path fill="#263238" d="M90.279 76.734l-.437-3.024H85.76l.296 3.024h4.223z"/><path fill="none" stroke="#fff" stroke-linecap="round" stroke-linejoin="round" stroke-miterlimit="20" d="M90.279 76.734v0l-.437-3.024v0H85.76v0l.296 3.024v0h4.223v0z"/></g><g><path fill="#263238" d="M24.59 96.24h104.017v1.478H24.59z"/><path fill="none" stroke="#263238" stroke-linecap="round" stroke-linejoin="round" stroke-miterlimit="20" d="M24.59 96.24v0h104.017v1.478H24.59v0z"/></g></g></g></g></svg>