<svg xmlns="http://www.w3.org/2000/svg" width="102" height="101" viewBox="0 0 102 101"><g><g><g><g><path fill="#adc7f7" d="M31.814 8.7S14.62 17.46 6.043 30.96c-8.576 13.498-7.898 30.864 2.523 43.754 10.422 12.89 30.34 11.197 47.018 19.363 16.678 8.165 35.079 6.483 42.965-10.816 7.886-17.3-4.006-23.766-6.048-43.786C90.458 19.453 72.41-9.864 31.814 8.7z"/></g><g opacity=".7"><path fill="#fff" d="M31.814 8.7S14.62 17.46 6.043 30.96c-8.576 13.498-7.898 30.864 2.523 43.754 10.422 12.89 30.34 11.197 47.018 19.363 16.678 8.165 35.079 6.483 42.965-10.816 7.886-17.3-4.006-23.766-6.048-43.786C90.458 19.453 72.41-9.864 31.814 8.7z"/></g></g><g><g><path fill="#adc7f7" d="M82.437 87.177s-9.664-16.96-7.433-21.285c2.231-4.325 7.927 3.452 7.927 3.452s-4.954-15.818-2.228-22.728c2.725-6.91 7.432 0 7.68 4.89.247 4.89-.992 13.23-.992 13.23s1.983-17.247 6.69-12.08c4.707 5.168-5.946 22.434-5.946 22.434s7.185-4.026 6.936 1.15c-.25 5.177-8.67 9.78-8.67 9.78"/></g><g><path fill="none" stroke="#263238" stroke-miterlimit="20" d="M82.521 84.016v0s-8.941-8.342-4.584-12.08c4.357-3.738 6.65 4.026 6.65 4.026v0S79.77 52.09 87.565 51.225c7.795-.864 2.063 20.709 2.063 20.709v0s6.65-9.203 6.19-1.714c-.458 7.49-10.316 13.807-10.316 13.807v0"/></g><g><path fill="none" stroke="#263238" stroke-miterlimit="20" d="M86.911 82.497L80.87 75.95"/></g><g><path fill="none" stroke="#263238" stroke-miterlimit="20" d="M85.65 82.998l1.636-19.138"/></g><g><path fill="none" stroke="#263238" stroke-miterlimit="20" d="M85.4 81.616l5.413-7.176"/></g><g><path fill="#263238" d="M93.234 80.28H76.52l1.673 19.714h13.369l1.672-19.714z"/></g></g><g><g><path fill="#adc7f7" d="M29.42 57.412a50.961 50.961 0 0 0-6.723-2.723c-3.318-1.021-7.232-.086-7.319 1.02-.086 1.104.504.598 1.278 1.797.774 1.198.424 3.998 1.532 6.551 1.107 2.553 4.423 3.829 4.423 3.829z"/><path fill="none" stroke="#263238" stroke-linecap="round" stroke-linejoin="round" stroke-miterlimit="20" d="M29.42 57.412a50.961 50.961 0 0 0-6.723-2.723c-3.318-1.021-7.232-.086-7.319 1.02-.086 1.104.504.598 1.278 1.797.774 1.198.424 3.998 1.532 6.551 1.107 2.553 4.423 3.829 4.423 3.829v0z"/></g><g opacity=".3"><path d="M27.211 59.889s-5.106-3.234-8.083-4.341c-2.978-1.108-3.148.51-3.148.51a2.471 2.471 0 0 1 1.618 2.413c0 1.91.956 5.868 3.277 6.685 2.322.817 6.336-5.267 6.336-5.267z"/></g><g transform="rotate(-20.8 63 61)"><path fill="#adc7f7" d="M62.655 63.681c1.427 0 2.585-1.243 2.585-2.776 0-1.532-1.158-2.775-2.585-2.775-1.428 0-2.585 1.243-2.585 2.775 0 1.533 1.157 2.776 2.585 2.776z"/><path fill="none" stroke="#263238" stroke-linecap="round" stroke-linejoin="round" stroke-miterlimit="20" d="M62.655 63.681c1.427 0 2.585-1.243 2.585-2.776 0-1.532-1.158-2.775-2.585-2.775-1.428 0-2.585 1.243-2.585 2.775 0 1.533 1.157 2.776 2.585 2.776z"/></g><g><path fill="#adc7f7" d="M27.06 90.6l2.864 8.592c.16.477.606.8 1.11.799h4.464c.466 0 .889-.277 1.073-.706l1.997-4.634"/></g><g opacity=".3"><path d="M28.49 90.6l2.37 8.592c.091.443.469.77.92.799h3.702a.978.978 0 0 0 .89-.706l1.656-4.634"/></g><g><path fill="none" stroke="#263238" stroke-linecap="round" stroke-linejoin="round" stroke-miterlimit="20" d="M27.06 90.6v0l2.864 8.592c.16.477.606.8 1.11.799h4.464c.466 0 .889-.277 1.073-.706l1.997-4.634v0"/></g><g><path fill="#263238" d="M48.601 90.6l-2.861 8.592c-.16.477-.607.8-1.11.799h-4.46c-.466 0-.889-.277-1.073-.706L37.1 94.651"/><path fill="none" stroke="#263238" stroke-linecap="round" stroke-linejoin="round" stroke-miterlimit="20" d="M48.601 90.6v0l-2.861 8.592c-.16.477-.607.8-1.11.799h-4.46c-.466 0-.889-.277-1.073-.706L37.1 94.651v0"/></g><g><path fill="#adc7f7" d="M58.088 90.6l-2.864 8.592c-.16.477-.606.8-1.11.799h-4.463c-.467 0-.89-.277-1.074-.706l-1.997-4.634"/></g><g opacity=".3"><path d="M56.06 90.6l-1.96 8.592c-.108.477-.412.799-.757.799H50.29c-.317 0-.606-.277-.733-.706l-1.897-4.539"/></g><g><path fill="none" stroke="#263238" stroke-linecap="round" stroke-linejoin="round" stroke-miterlimit="20" d="M58.088 90.6v0l-2.864 8.592c-.16.477-.606.8-1.11.799h-4.463c-.467 0-.89-.277-1.074-.706l-1.997-4.634v0"/></g><g><path fill="#adc7f7" d="M42.778 96.256c13.558 0 24.549-9.968 24.549-22.263 0-12.296-10.991-22.263-24.549-22.263-13.557 0-24.548 9.967-24.548 22.263 0 12.295 10.99 22.263 24.548 22.263z"/></g><g opacity=".3"><path d="M59.689 58.78a20.45 20.45 0 0 1 2.19 9.205c0 12.295-10.99 22.263-24.548 22.263a26.182 26.182 0 0 1-14.241-4.126c4.28 5.744 11.526 9.531 19.744 9.531 13.163 0 23.829-9.67 23.829-21.6-.014-5.97-2.678-11.365-6.974-15.273z"/></g><g><path fill="none" stroke="#263238" stroke-linecap="round" stroke-linejoin="round" stroke-miterlimit="20" d="M42.778 96.256c13.558 0 24.549-9.968 24.549-22.263 0-12.296-10.991-22.263-24.549-22.263-13.557 0-24.548 9.967-24.548 22.263 0 12.295 10.99 22.263 24.548 22.263z"/></g><g><path fill="none" stroke="#adc7f7" stroke-linecap="round" stroke-linejoin="round" stroke-miterlimit="20" stroke-width="2" d="M65.257 75.99c-.536 4.484-2.603 8.553-5.717 11.767"/></g><g><path fill="none" stroke="#adc7f7" stroke-linecap="round" stroke-linejoin="round" stroke-miterlimit="20" stroke-width="2" d="M64.86 69.08c.362 1.502.545 3.042.545 4.586"/></g><g><path fill="none" stroke="#263238" stroke-linecap="round" stroke-linejoin="round" stroke-miterlimit="20" stroke-width="4" d="M36.69 53.118a27.25 27.25 0 0 1 10.144-.418"/></g><g><path fill="#adc7f7" d="M47.592 68.655s2.383-1.618 2.47-4.595c.086-2.978-3.831-7.317-6.979-9.105-3.148-1.788-5.447-1.446-5.53-.17-.084 1.275-1.192 2.723-1.616 5.19-.425 2.467-.597 6.127 2.723 7.319"/><path fill="none" stroke="#263238" stroke-linecap="round" stroke-linejoin="round" stroke-miterlimit="20" d="M47.592 68.655v0s2.383-1.618 2.47-4.595c.086-2.978-3.831-7.317-6.979-9.105-3.148-1.788-5.447-1.446-5.53-.17-.084 1.275-1.192 2.723-1.616 5.19-.425 2.467-.597 6.127 2.723 7.319"/></g><g opacity=".3"><path d="M42.47 67.702l.488.072c2.092.302 2.827-1.064 2.766-3.116-.084-2.893-3.912-9.02-5.53-9.872-1.619-.85-2.127.34-2.127.34s.227.153-.57 2.797c-.367 1.22-1.736 5.478-.38 7.366 1.197 1.668 3.424 2.125 5.353 2.413z"/></g><g opacity=".3"><path d="M49.243 64.766h-.032a.227.227 0 0 1-.195-.256c.025-.175.04-.35.043-.527.046-1.588-1.25-3.87-3.381-5.973a.228.228 0 0 1 .32-.324c2.251 2.224 3.565 4.582 3.515 6.309-.005.192-.02.385-.045.576a.227.227 0 0 1-.225.195z"/></g><g opacity=".3"><path d="M48.028 67.511a.227.227 0 0 1-.177-.37c.374-.458.672-.972.885-1.525a.227.227 0 1 1 .424.162 6.005 6.005 0 0 1-.958 1.65.227.227 0 0 1-.174.083z"/></g><g opacity=".3" transform="rotate(-75.99 25 77.5)"><path d="M25.06 83.326c2.772 0 5.02-2.972 5.02-6.638s-2.248-6.638-5.02-6.638c-2.772 0-5.02 2.972-5.02 6.638s2.248 6.638 5.02 6.638z"/></g><g transform="rotate(-75.99 25 75.5)"><path fill="#adc7f7" d="M24.74 82.846c2.772 0 5.02-2.972 5.02-6.638s-2.248-6.638-5.02-6.638c-2.772 0-5.02 2.972-5.02 6.638s2.248 6.638 5.02 6.638z"/><path fill="none" stroke="#263238" stroke-linecap="round" stroke-linejoin="round" stroke-miterlimit="20" d="M24.74 82.846c2.772 0 5.02-2.972 5.02-6.638s-2.248-6.638-5.02-6.638c-2.772 0-5.02 2.972-5.02 6.638s2.248 6.638 5.02 6.638z"/></g><g><path fill="none" stroke="#263238" stroke-linecap="round" stroke-linejoin="round" stroke-miterlimit="20" d="M22.738 75.392c.04.609-.193 1.121-.52 1.135-.327.014-.629-.454-.681-1.062-.052-.608.193-1.123.522-1.135.33-.011.638.452.679 1.062z"/></g><g><path fill="none" stroke="#263238" stroke-linecap="round" stroke-linejoin="round" stroke-miterlimit="20" d="M27.238 76.515c.04.61-.193 1.12-.52 1.134-.327.014-.629-.454-.681-1.064-.052-.61.193-1.121.522-1.135.33-.013.63.454.679 1.065z"/></g><g><path fill="none" stroke="#263238" stroke-linecap="round" stroke-linejoin="round" stroke-miterlimit="20" stroke-width="3" d="M34.652 78.1a5.29 5.29 0 0 1-.304 1.278c-1.303 3.52-6.019 5.042-10.678 3.526"/></g><g><path fill="none" stroke="#263238" stroke-linecap="round" stroke-linejoin="round" stroke-miterlimit="20" stroke-width="3" d="M33.9 77.763h1.446"/></g><g><path fill="#263238" d="M24.684 68.34c-.159.66-.565 1.135-.908 1.049-.343-.087-.492-.681-.331-1.349.161-.667.565-1.134.908-1.05.342.084.492.687.33 1.35z"/><path fill="none" stroke="#263238" stroke-linecap="round" stroke-linejoin="round" stroke-miterlimit="20" d="M24.684 68.34c-.159.66-.565 1.135-.908 1.049-.343-.087-.492-.681-.331-1.349.161-.667.565-1.134.908-1.05.342.084.492.687.33 1.35z"/></g><g transform="rotate(-76.45 28.5 69.5)"><path fill="#263238" d="M28.255 69.745c.681 0 1.234-.285 1.234-.637 0-.353-.553-.638-1.234-.638-.682 0-1.235.285-1.235.638 0 .352.553.637 1.235.637z"/><path fill="none" stroke="#263238" stroke-linecap="round" stroke-linejoin="round" stroke-miterlimit="20" d="M28.255 69.745c.681 0 1.234-.285 1.234-.637 0-.353-.553-.638-1.234-.638-.682 0-1.235.285-1.235.638 0 .352.553.637 1.235.637z"/></g><g><path fill="#adc7f7" d="M35.12 93.369l2.496 5.923c.184.433.608.714 1.078.715h4.54c.465-.001.886-.277 1.073-.704l2.723-6.293h-.118"/></g><g opacity=".3"><path d="M40.398 92.61c-1.438 0-3.113.188-4.468-.125l2.333 6.792a.983.983 0 0 0 .892.715h3.74a.978.978 0 0 0 .885-.703l2.258-6.929-.908.125c-2.88.313-2.805.125-4.732.125z"/></g><g><path fill="none" stroke="#263238" stroke-linecap="round" stroke-linejoin="round" stroke-miterlimit="20" d="M35.12 93.369v0l2.496 5.923c.184.433.608.714 1.078.715h4.54c.465-.001.886-.277 1.073-.704l2.723-6.293v0h-.118v0"/></g></g><g><g><path fill="#fff" d="M80.335 1.102L67.783 19.187s-1.073 2.56-2.394 4.46c-1.32 1.899-5.024 3.798-5.024 3.798s-.33 3.55-1.403 4.789c-1.073 1.239-3.386.497-3.386.497s-.992 1.073-2.065 1.568c-1.074.494-4.376-1.321-4.376-1.321s2.971 3.22 3.384 4.294c.413 1.073 1.158 1.98-.163 2.973-1.321.991-2.81-.413-2.81-.413s.663 2.146-1.237 2.56c-1.9.413-3.969-3.718-4.795-5.12-.826-1.403-3.22-6.69-3.63-6.938-.412-.247-.99-1.568-.164-2.807.826-1.24 6.685-9.166 7.346-9.731.66-.566 13.299-3.563 13.299-3.563l4.79-13.213"/></g><g opacity=".2"><path d="M66.494 19.378s-1.361 4.085-2.836 4.88c-1.475.793-9.872 2.95-13.163 2.496-3.29-.454-5.106-1.703-5.106-1.703s-1.816 2.383-2.61 3.178c-.553.513-1.211.9-1.929 1.134 0 0 3.949 9.92 6.788 12.99.22.069.455.08.68.032 1.9-.413 1.237-2.56 1.237-2.56s1.487 1.403 2.81.413c1.323-.989.576-1.9.163-2.973-.413-1.073-3.395-4.293-3.395-4.293s3.302 1.815 4.376 1.32c1.073-.494 2.065-1.57 2.065-1.57s2.313.744 3.386-.495c1.073-1.239 1.402-4.788 1.402-4.788s3.715-1.9 5.039-3.8c1.323-1.899 2.394-4.458 2.394-4.458l5.172-7.451z"/></g><g><path fill="none" stroke="#263238" stroke-linecap="round" stroke-linejoin="round" stroke-miterlimit="20" d="M80.335 1.102v0L67.783 19.187v0s-1.073 2.56-2.394 4.46c-1.32 1.899-5.024 3.798-5.024 3.798v0s-.33 3.55-1.403 4.789c-1.073 1.239-3.386.497-3.386.497v0s-.992 1.073-2.065 1.568c-1.074.494-4.376-1.321-4.376-1.321v0s2.971 3.22 3.384 4.294c.413 1.073 1.158 1.98-.163 2.973-1.321.991-2.81-.413-2.81-.413v0s.663 2.146-1.237 2.56c-1.9.413-3.969-3.718-4.795-5.12-.826-1.403-3.22-6.69-3.63-6.938-.412-.247-.99-1.568-.164-2.807.826-1.24 6.685-9.166 7.346-9.731.66-.566 13.299-3.563 13.299-3.563v0l4.79-13.213v0"/></g><g><path fill="#fff" d="M37.41 49.326l.33 1.239 5.119-1.24 4.79-12.552-3.138-1.073-7.101 13.626z"/><path fill="none" stroke="#263238" stroke-linecap="round" stroke-linejoin="round" stroke-miterlimit="20" d="M37.41 49.326v0l.33 1.239v0l5.119-1.24v0l4.79-12.552v0L44.512 35.7v0L37.41 49.326v0z"/></g><g><path fill="#fff" d="M38.977 32.64l7.1 2.644-3.467 15.688-8.34-2.56 4.707-15.772z"/><path fill="none" stroke="#263238" stroke-linecap="round" stroke-linejoin="round" stroke-miterlimit="20" d="M38.977 32.64v0l7.1 2.644v0L42.61 50.972v0l-8.34-2.56v0l4.707-15.772v0z"/></g><g><path fill="#adc7f7" d="M34.55 47.484l7.4 2.176 3.22-13.957-6.483-2.083-4.137 13.864z"/><path fill="none" stroke="#263238" stroke-linecap="round" stroke-linejoin="round" stroke-miterlimit="20" d="M34.55 47.484v0l7.4 2.176v0l3.22-13.957v0l-6.483-2.083v0L34.55 47.484v0z"/></g><g><path fill="#fff" d="M38.65 37.068a2.34 2.34 0 0 0-.986-.046l-1.934 6.48c.28.272.624.47 1 .574 1.517.417 3.178-.815 3.709-2.75.531-1.937-.275-3.843-1.788-4.258z"/><path fill="none" stroke="#263238" stroke-linecap="round" stroke-linejoin="round" stroke-miterlimit="20" d="M38.65 37.068a2.34 2.34 0 0 0-.986-.046l-1.934 6.48c.28.272.624.47 1 .574 1.517.417 3.178-.815 3.709-2.75.531-1.937-.275-3.843-1.788-4.258z"/></g><g><path fill="#263238" d="M38.377 38.145a.048.048 0 0 1-.028-.052l.087-.336a.1.1 0 0 0-.082-.134l-.36-.086a.098.098 0 0 0-.135.082l-.07.347a.045.045 0 0 1-.048.034 1.815 1.815 0 0 0-.37 0l-.66 2.217c.515.536 1.318.804 1.212 1.253-.061.254-.293.454-.7.363a.597.597 0 0 1-.494-.756l.02-.09c.012-.05-.018-.091-.088-.107l-.138-.034-.393 1.312c.158.143.342.254.542.326.021.01.033.033.028.055l-.082.288a.095.095 0 0 0 .082.134l.374.09a.098.098 0 0 0 .14-.063l.062-.286a.052.052 0 0 1 .05-.036c.799.084 1.341-.309 1.51-1.008.13-.558-.058-1.032-.64-1.48-.534-.403-1.097-.603-1-1.016.069-.286.33-.417.681-.334a.61.61 0 0 1 .484.792l-.016.064c0 .039.023.073.093.09l.665.16a.1.1 0 0 0 .134-.082l.05-.211c.152-.665-.168-1.23-.91-1.496z"/></g><g><path fill="#fff" d="M44.832 24.387s.992 1.486 1.157 2.81a4.802 4.802 0 0 1-.744 3.22c-.495.742-.99 1.402-1.403 2.56-.413 1.157-.494 2.807-1.073 3.63-.579.824-.908 1.65-.084 2.395.824.744 2.973.66 4.13-1.487 1.158-2.146 1.9-4.459 2.642-5.285.742-.826 3.139-2.723 3.139-2.723s6.522-.908 7.761-2.063c1.24-1.155 2.313-4.294 2.313-4.294"/></g><g opacity=".2"><path d="M62.177 24.26s-3.518 2.27-6.24 2.95c-2.724.681-4.426.681-5.447 2.043-1.022 1.361-2.043 5.673-3.405 6.468-1.361.794-1.588-2.043-3.517-1.476l-.064.023c-.188.885-.354 1.793-.735 2.34-.579.826-.908 1.65-.084 2.394.824.745 2.973.66 4.13-1.486 1.158-2.147 1.9-4.46 2.642-5.286.742-.826 3.139-2.723 3.139-2.723s6.522-.908 7.761-2.063c.749-.699 1.437-2.12 1.863-3.136z"/></g><g><path fill="none" stroke="#263238" stroke-linecap="round" stroke-linejoin="round" stroke-miterlimit="20" d="M44.832 24.387v0s.992 1.486 1.157 2.81a4.802 4.802 0 0 1-.744 3.22c-.495.742-.99 1.402-1.403 2.56-.413 1.157-.494 2.807-1.073 3.63-.579.824-.908 1.65-.084 2.395.824.744 2.973.66 4.13-1.487 1.158-2.146 1.9-4.459 2.642-5.285.742-.826 3.139-2.723 3.139-2.723v0s6.522-.908 7.761-2.063c1.24-1.155 2.313-4.294 2.313-4.294v0"/></g><g><path fill="none" stroke="#263238" stroke-linecap="round" stroke-linejoin="round" stroke-miterlimit="20" d="M42.28 28.516s2.15 1.155 3.717-.166"/></g><g><path fill="none" stroke="#263238" stroke-linecap="round" stroke-linejoin="round" stroke-miterlimit="20" d="M49.547 39.833L47.65 36.2"/></g><g><path fill="none" stroke="#263238" stroke-linecap="round" stroke-linejoin="round" stroke-miterlimit="20" d="M55.57 32.725s1.486-1.24 1.403-3.965"/></g></g><g><g><path fill="none" stroke="#263238" stroke-linecap="round" stroke-linejoin="round" stroke-miterlimit="20" d="M10.44 100.32h89.869"/></g><g><path fill="none" stroke="#263238" stroke-linecap="round" stroke-linejoin="round" stroke-miterlimit="20" d="M2.5 100.32h4.085"/></g></g></g></g></svg>