<svg xmlns="http://www.w3.org/2000/svg" width="106" height="106" viewBox="0 0 106 106"><g><g><g><g opacity=".7"><path fill="#fff" d="M10.07 33.014s-6.666 17.213 2.7 34.545c9.367 17.332 28.66 26.488 44.1 34.317 15.441 7.83 31.475 4.017 39.094-8.807 7.62-12.823-2.83-21.977-2.845-40.263-.014-18.285 2.738-23.126-7.172-38.575-9.909-15.448-34.2-18.869-52.57-7.41C15.009 18.278 10.07 33.013 10.07 33.013z"/></g><g><path fill="#f9fbff" d="M3.648 63.238a25.986 25.986 0 0 1 1.384-15.427c2.761-6.827 8.695-11.678 15.34-14.508 9.661-4.114 19.143-4.191 26.996-12.252 2.421-2.486 4.453-5.334 6.933-7.767 7.296-7.172 17.975-6.312 25.95-.617 16.634 11.879 22.617 35.407 21.692 54.858-.42 8.735-4.587 16.863-11.183 22.586-14.918 12.953-40.246 10.772-57.375 4.012C20.602 89.08 6.648 77.319 3.648 63.238z"/></g></g><g><g transform="rotate(-45 16.5 36)"><path fill="none" stroke="#263238" stroke-linecap="round" stroke-linejoin="round" stroke-miterlimit="20" stroke-width=".5" d="M16.32 40.251a4.3 4.3 0 1 0 0-8.601 4.3 4.3 0 0 0 0 8.601z"/></g><g><path fill="none" stroke="#263238" stroke-linecap="round" stroke-linejoin="round" stroke-miterlimit="20" stroke-width=".5" d="M90.259 23.708c1.857-.27 4.143.59 4.365 2.687.203 1.891-1.092 3.825-2.24 5.214-1.085 1.303-2.577 2.773-4.226 3.347-1.882.643-2.487-1.305-1.33-2.563 2.307-2.507 7.763-3.753 10.634-1.628 3.232 2.391 1.05 7.46-1.972 8.977-.983.495-1.848-.131-1.14-1.169.535-.786 1.556-1.147 2.45-1.31 1.785-.325 4.563.072 5.238 2.073"/></g><g><path fill="none" stroke="#263238" stroke-linecap="round" stroke-linejoin="round" stroke-miterlimit="20" stroke-width=".5" d="M86.35 25.35a11.475 11.475 0 0 1 2.869-1.41"/></g><g><path fill="none" stroke="#263238" stroke-linecap="round" stroke-linejoin="round" stroke-miterlimit="20" stroke-width=".5" d="M84.53 26.762c.301-.278.617-.536.942-.782"/></g><g><path fill="none" stroke="#263238" stroke-linecap="round" stroke-linejoin="round" stroke-miterlimit="20" stroke-width=".5" d="M54.79 8.048v0l.767-.798v0l-9.357.901v0l5.34 2.288v0"/></g><g><path fill="none" stroke="#263238" stroke-linecap="round" stroke-linejoin="round" stroke-miterlimit="20" stroke-width=".5" d="M51.97 10.622v0l3.588 1.534v0l-2.046-2.78v0l.978-1.016v0"/></g><g><path fill="none" stroke="#263238" stroke-linecap="round" stroke-linejoin="round" stroke-miterlimit="20" stroke-width=".5" d="M72.24 8.477V5.35"/></g><g><path fill="none" stroke="#263238" stroke-linecap="round" stroke-linejoin="round" stroke-miterlimit="20" stroke-width=".5" d="M72.24 10.768V9.41"/></g><g><path fill="none" stroke="#263238" stroke-linecap="round" stroke-linejoin="round" stroke-miterlimit="20" stroke-width=".5" d="M75.57 11.204l2.25-4.724"/></g><g><path fill="none" stroke="#263238" stroke-linecap="round" stroke-linejoin="round" stroke-miterlimit="20" stroke-width=".5" d="M81.91 11.328l1.035-.808"/></g><g><path fill="none" stroke="#263238" stroke-linecap="round" stroke-linejoin="round" stroke-miterlimit="20" stroke-width=".5" d="M78.35 14.063l2.692-2.073"/></g><g><path fill="none" stroke="#263238" stroke-linecap="round" stroke-linejoin="round" stroke-miterlimit="20" stroke-width=".5" d="M5.968 58.4v0L1.18 57.15v0l.755 6.534v0l7.567-4.363v0l-3.11-.81v0"/></g><g><path fill="none" stroke="#263238" stroke-linecap="round" stroke-linejoin="round" stroke-miterlimit="20" stroke-width=".5" d="M99.79 56l5.295 1.831"/></g><g><path fill="none" stroke="#263238" stroke-linecap="round" stroke-linejoin="round" stroke-miterlimit="20" stroke-width=".5" d="M96.92 82.257a2.312 2.312 0 1 0 3.172-3.347"/></g><g><path fill="none" stroke="#263238" stroke-linecap="round" stroke-linejoin="round" stroke-miterlimit="20" stroke-width=".5" d="M99.691 78.647a2.312 2.312 0 0 0-3.036 3.276"/></g><g><path fill="none" stroke="#263238" stroke-linecap="round" stroke-linejoin="round" stroke-miterlimit="20" stroke-width=".5" d="M9.588 73.48L7.53 78.79"/></g><g><path fill="none" stroke="#263238" stroke-linecap="round" stroke-linejoin="round" stroke-miterlimit="20" stroke-width=".5" d="M10.261 71.75l-.301.775"/></g><g><path fill="none" stroke="#263238" stroke-linecap="round" stroke-linejoin="round" stroke-miterlimit="20" stroke-width=".5" d="M26.26 41.41l5.68 3.287"/></g><g><path fill="none" stroke="#263238" stroke-linecap="round" stroke-linejoin="round" stroke-miterlimit="20" stroke-width=".5" d="M19.97 21.75l-4.61 2.979"/></g><g><path fill="none" stroke="#263238" stroke-linecap="round" stroke-linejoin="round" stroke-miterlimit="20" stroke-width=".5" d="M21.607 20.69l-.717.454"/></g><g><path fill="none" stroke="#263238" stroke-linecap="round" stroke-linejoin="round" stroke-miterlimit="20" stroke-width=".5" d="M100.92 23.65v2.006l1.513-.395v0l-1.513-1.611v0z"/></g></g><g><g><path fill="#adc7f7" d="M36.636 26.513c-.256-.76 2.613-4.133 2.613-4.133l1.554 1.652s-3.648 3.97-4.167 2.481z"/><path fill="none" stroke="#263238" stroke-linecap="round" stroke-linejoin="round" stroke-miterlimit="20" stroke-width=".5" d="M36.636 26.513c-.256-.76 2.613-4.133 2.613-4.133v0l1.554 1.652v0s-3.648 3.97-4.167 2.481z"/></g><g><path fill="#bfbfbf" d="M32.711 21.632c.834.741 1.401.17 1.401.17a.574.574 0 0 0 .428.7c.387.117 1.896-.607 2.912-.607.328 1.656.475 3.344.44 5.032 0 0 3.49.356 3.963-2.151 0 0-.662-1.578-1.119-3.027-.616-1.958-.7-2.496-1.023-2.91-.511-.65-4.75-1.77-5.885-1.819-1.136-.047-1.75 4.28-3.168 6.283a.987.987 0 0 0 1.016-.117c.39-.249 1.035-1.554 1.035-1.554z"/><path fill="none" stroke="#263238" stroke-linecap="round" stroke-linejoin="round" stroke-miterlimit="20" stroke-width=".5" d="M32.711 21.632c.834.741 1.401.17 1.401.17a.574.574 0 0 0 .428.7c.387.117 1.896-.607 2.912-.607.328 1.656.475 3.344.44 5.032 0 0 3.49.356 3.963-2.151 0 0-.662-1.578-1.119-3.027-.616-1.958-.7-2.496-1.023-2.91-.511-.65-4.75-1.77-5.885-1.819-1.136-.047-1.75 4.28-3.168 6.283a.987.987 0 0 0 1.016-.117c.39-.249 1.035-1.554 1.035-1.554z"/></g><g><path fill="none" stroke="#263238" stroke-linecap="round" stroke-linejoin="round" stroke-miterlimit="20" stroke-width=".5" d="M32.71 21.628c.69-1.738 1.566-2.452 1.566-2.452v0s.239-.617 0-.806"/></g><g><path fill="none" stroke="#263238" stroke-linecap="round" stroke-linejoin="round" stroke-miterlimit="20" stroke-width=".5" d="M34.11 21.799c.045-.519 1.867-1.064 2.08-1.37.213-.306 0-1.609 0-1.609v0"/></g><g><path fill="none" stroke="#263238" stroke-linecap="round" stroke-linejoin="round" stroke-miterlimit="20" stroke-width=".5" d="M37.45 21.89a1.836 1.836 0 0 0 1.523-1.09"/></g><g><path fill="none" stroke="#263238" stroke-linecap="round" stroke-linejoin="round" stroke-miterlimit="20" stroke-width=".5" d="M34.28 19.18v0s.59.426 1.088.426c.37.197.598.584.593 1.004"/></g><g><path fill="none" stroke="#263238" stroke-linecap="round" stroke-linejoin="round" stroke-miterlimit="20" stroke-width=".5" d="M34.515 20.1c-.286.324-.43.748-.401 1.179"/></g><g><path fill="none" stroke="#263238" stroke-linecap="round" stroke-linejoin="round" stroke-miterlimit="20" stroke-width=".5" d="M33.54 20.453s.43-.285.617 0"/></g><g><path fill="#adc7f7" d="M64.827 37.43s-2.947-2.152-5.47-1.765c0 0-13.427 1.513-13.743 1.513 0 0-3.586-13.643-4.289-14.798 0 0-.124-.956-.504-1.09 0 0-1.585 4.349-4.191 5.224 0 0 .24.827.813.827 0 0-.089 14.822 1.991 16.583 2.08 1.762 19.656 3.216 19.656 3.216z"/></g><g opacity=".2"><path d="M55.21 45.737l-.878.956c-5.362-.562-13.516-1.592-14.893-2.759-2.08-1.766-1.992-16.583-1.992-16.583-.368 0-.6-.347-.717-.593 1.936-.08 4.303-2.018 4.303-2.018.368 2.073-2.326 4.451-2.326 4.451s-.141 8.506.995 12.79c1.135 4.284 15.508 3.756 15.508 3.756z"/></g><g><path fill="none" stroke="#263238" stroke-linecap="round" stroke-linejoin="round" stroke-miterlimit="20" stroke-width=".5" d="M64.827 37.43v0s-2.947-2.152-5.47-1.765c0 0-13.427 1.513-13.743 1.513 0 0-3.586-13.643-4.289-14.798 0 0-.124-.956-.504-1.09 0 0-1.585 4.349-4.191 5.224 0 0 .24.827.813.827 0 0-.089 14.822 1.991 16.583 2.08 1.762 19.656 3.216 19.656 3.216v0z"/></g><g><path fill="#bfbfbf" d="M60.406 38.187s.542-1.83 2.954-1.408c2.413.42 8.413.588 11.44-.359 0 0-7.748 10.026-12.314 8.229-4.567-1.798-2.08-6.462-2.08-6.462z"/><path fill="none" stroke="#263238" stroke-linecap="round" stroke-linejoin="round" stroke-miterlimit="20" stroke-width=".5" d="M60.406 38.187v0s.542-1.83 2.954-1.408c2.413.42 8.413.588 11.44-.359 0 0-7.748 10.026-12.314 8.229-4.567-1.798-2.08-6.462-2.08-6.462z"/></g><g><path fill="#263238" d="M73.346 16.231s-.7-2.39-2.44-1.876c-1.741.514-1.505.442-2.466-.072-.96-.514-1.554-.074-1.881.66-.328.734-.992.552-2.018.203-1.025-.35-1.912.1-1.876 1.085.036.985-1.275-.04-2.008 1.06-.734 1.099-.295 1.025-.44 1.912-.146.887-1.688 1.394-1.394 2.202.294.808 1.465 2.199.366 2.787-1.1.588-1.468 2.422-.404 2.972 1.063.55-.885 2.199-.182 3.703.64 1.367 2.42 1.685 1.614 3.079a1.272 1.272 0 0 0 0 1.434.359.359 0 0 0 .655-.177c.007-.188.062-.372.16-.533.366-.586.87 0 1.46-1.1 0 0-.38 1.248.875 1.688.656.24.773.617.732.937a.27.27 0 0 0 .452.24c.26-.273.37-.657.294-1.026 0 0 2.053 1.688 3.521 1.32 1.468-.369 3.373-.88 3.448-1.98.232.317.38.688.43 1.078a.344.344 0 0 0 .612.194c.287-.336.461-.755.497-1.195.13.364.384.671.717.867a.428.428 0 0 0 .603-.49.696.696 0 0 1 .296-.82c.734-.44 1.246-1.245.806-2.273 0 0 1.104.734.736 1.833a1.04 1.04 0 0 0 .113 1.038.24.24 0 0 0 .39-.24.822.822 0 0 1 .083-.805c.511-.805 1.836-1.786.808-2.921-1.028-1.136-.306-1.853-.306-1.853s-.146.734 1.102 1.21.478 1.164.602 1.673c.047.18.141.346.273.478a.268.268 0 0 0 .428-.313.78.78 0 0 1-.058-.772c.63-1.133-1.025-1.652-1.195-2.642-.17-.99.072-2.106.17-3.074.088-.84.155-1.48-.375-2.202-.345-.478-.782-.903-.957-1.465a3.586 3.586 0 0 1-.038-1.327c.07-.442.045-.894-.076-1.324-.304-.854-1.318-.718-1.765-1.435-.42-.67-.06-1.566-.868-2.022a1.29 1.29 0 0 0-1.496.284z"/></g><g><path fill="#bfbfbf" d="M65.114 38.389c1.153-.732.608-3.134.14-4.597-.22-.691-.424-1.174-.424-1.174h.02l6.047-3.108c-.765 3.218 0 7.614 0 7.614"/><path fill="none" stroke="#263238" stroke-linecap="round" stroke-linejoin="round" stroke-miterlimit="20" stroke-width=".5" d="M65.114 38.389c1.153-.732.608-3.134.14-4.597-.22-.691-.424-1.174-.424-1.174v0h.02v0l6.047-3.108c-.765 3.218 0 7.614 0 7.614v0"/></g><g><path fill="#263238" d="M67.38 32.61a2.838 2.838 0 0 1-2.127 1.195c-.22-.69-.423-1.173-.423-1.173h.02z"/></g><g><path fill="#bfbfbf" d="M70.16 31.327c1.869-1.176 3.44-2.962 3.824-5.53.717-4.694.677-8.983-7.39-8.464-3.533.239-4.902 3.708-4.874 4.802.065 2.537-1.958 7 .548 10.706.373.55 2.809.571 5.374-.32"/><path fill="none" stroke="#263238" stroke-linecap="round" stroke-linejoin="round" stroke-miterlimit="20" stroke-width=".5" d="M70.16 31.327c1.869-1.176 3.44-2.962 3.824-5.53.717-4.694.677-8.983-7.39-8.464-3.533.239-4.902 3.708-4.874 4.802.065 2.537-1.958 7 .548 10.706.373.55 2.809.571 5.374-.32"/></g><g><path fill="none" stroke="#263238" stroke-linecap="round" stroke-linejoin="round" stroke-miterlimit="20" stroke-width=".5" d="M65.86 22.854s1.272-.478 2.003 1.404"/></g><g><path fill="none" stroke="#263238" stroke-linecap="round" stroke-linejoin="round" stroke-miterlimit="20" stroke-width=".5" d="M63.231 22.64a2.238 2.238 0 0 0-1.501-.498"/></g><g><path fill="none" stroke="#263238" stroke-linecap="round" stroke-linejoin="round" stroke-miterlimit="20" stroke-width=".5" d="M63.395 25.36c-.66 1.083-1.463.545-1.434 1.083.03.447 1.064 1.231 1.064 1.231v0"/></g><g><path fill="#263238" d="M66.843 25.379c-.07.294-.292.495-.493.444-.2-.05-.308-.325-.239-.621.07-.297.292-.493.495-.445.203.048.308.328.237.622z"/></g><g><path fill="#263238" d="M62.964 24.656c-.048.3-.254.514-.46.478-.205-.035-.332-.3-.284-.602.048-.301.253-.514.457-.478.203.036.334.304.287.602z"/></g><g><path fill="#fff" d="M65.196 28.735a4.361 4.361 0 0 1-.27.514c-.308.502-.856 1.164-1.523.956-.203-.062-.296-.352-.335-.662a4.609 4.609 0 0 1-.014-.873c.35.072.706.112 1.064.12.36.035.723.017 1.078-.055z"/></g><g opacity=".4"><path d="M65.196 28.732a4.362 4.362 0 0 1-.27.514c-.643-.115-1.37.1-1.858.297a4.609 4.609 0 0 1-.014-.873z"/></g><g><path fill="none" stroke="#263238" stroke-linecap="round" stroke-linejoin="round" stroke-miterlimit="20" stroke-width=".5" d="M65.196 28.735a4.361 4.361 0 0 1-.27.514c-.308.502-.856 1.164-1.523.956-.203-.062-.296-.352-.335-.662a4.609 4.609 0 0 1-.014-.873c.35.072.706.112 1.064.12.36.035.723.017 1.078-.055z"/></g><g><path fill="#263238" d="M66.553 19.27s.198-.44.595.44c.397.88-1.277 1.755 0 2.417 1.277.662 1.33 2.23.717 2.84-.612.61 1 .904 1.22 1.492.22.588-.44 1.064-.292 1.779.148.714 1.066 1.417 1.044 1.8-.021.382-.822.99-.274 1.64.547.65 2.089.239 2.237 1.551 0 0 4.621-5.137 4.693-9.916.072-4.779-3.373-6.756-6.885-7.06-3.512-.303-8.948 1.404-9.388 7.524 0 0 .165-.388.808-.478.643-.091.956-.957.877-1.913-.078-.956.572-.368 1.459-.588.887-.22.593-1.465 1.18-1.673.589-.208 1.017.953 2.009.145z"/></g><g><path fill="none" stroke="#263238" stroke-linecap="round" stroke-linejoin="round" stroke-miterlimit="20" stroke-width=".5" d="M63.352 17.21c-.035.586-1.833.072-2.749.586-.915.514-.698 1.393-.624 1.912.074.519-.758 1.174-1.434 1.576-.677.401-.686 1.226.194 2.008.88.781.131.999-.687 1.697-.817.698-.788 1.55 0 2.054"/></g><g><path fill="none" stroke="#263238" stroke-linecap="round" stroke-linejoin="round" stroke-miterlimit="20" stroke-width=".5" d="M65.86 18.87v0s1.499.294 1.059 1.138c-.44.844-1.059 1.89.227 2.838 1.286.946-.557 2.003.251 2.847.808.844 1.63.805 1.035 2.2-.595 1.393.478 1.744.478 1.744v0"/></g><g><path fill="none" stroke="#263238" stroke-linecap="round" stroke-linejoin="round" stroke-miterlimit="20" stroke-width=".5" d="M62.74 28.573s1.47.38 2.608.124"/></g><g><path fill="none" stroke="#fff" stroke-linecap="round" stroke-linejoin="round" stroke-miterlimit="20" stroke-width=".5" d="M73.017 30.87a.478.478 0 0 0 .126.66"/></g><g><path fill="none" stroke="#fff" stroke-linecap="round" stroke-linejoin="round" stroke-miterlimit="20" stroke-width=".5" d="M73.15 28.7c.645.344.834.89.418 1.525"/></g><g><path fill="none" stroke="#fff" stroke-linecap="round" stroke-linejoin="round" stroke-miterlimit="20" stroke-width=".5" d="M69.1 19.66c0 1.246.647 2.403 1.71 3.055.477.478.238.956 0 1.674 0 .956 1.434.956 1.673 1.673 0 .717-1.196 1.434-.027 2.286"/></g><g><path fill="none" stroke="#fff" stroke-linecap="round" stroke-linejoin="round" stroke-miterlimit="20" stroke-width=".5" d="M68.51 17.66c.299.35.485.783.533 1.24"/></g><g><path fill="none" stroke="#fff" stroke-linecap="round" stroke-linejoin="round" stroke-miterlimit="20" stroke-width=".5" d="M76.225 29.18c-.046.246-.021.5.072.734"/></g><g><path fill="none" stroke="#fff" stroke-linecap="round" stroke-linejoin="round" stroke-miterlimit="20" stroke-width=".5" d="M74.759 26.43c-.256.693.38.631.83.684.745.086.97.535.803 1.286"/></g><g><path fill="none" stroke="#fff" stroke-linecap="round" stroke-linejoin="round" stroke-miterlimit="20" stroke-width=".5" d="M71.89 19.94c.13 1.384 2.319 1.195 1.936 2.802-.179.743-.148 1.195.435 1.821.302.33.938.55.703 1.09"/></g><g><path fill="none" stroke="#fff" stroke-linecap="round" stroke-linejoin="round" stroke-miterlimit="20" stroke-width=".5" d="M77.504 26.1a1.791 1.791 0 0 0-.05.763"/></g><g><path fill="none" stroke="#fff" stroke-linecap="round" stroke-linejoin="round" stroke-miterlimit="20" stroke-width=".5" d="M73.75 18.14c.478.033.337.645.478.956.194.435.571.545.956.777.768.478.691.913.603 1.726-.103.942.2 1.332.99 1.793.788.462 1.247.87.956 1.863"/></g><g><path fill="none" stroke="#fff" stroke-linecap="round" stroke-linejoin="round" stroke-miterlimit="20" stroke-width=".5" d="M62.197 19.27c-.7.337-1.896.414-1.695 1.434.2 1.021 1.073 1.49.048 2.377-.866.75-.77 1.145-.206 2.03.478.74.61 1.41.02 2.15"/></g><g><path fill="none" stroke="#fff" stroke-linecap="round" stroke-linejoin="round" stroke-miterlimit="20" stroke-width=".5" d="M64.834 17.775c-1.196-1.037-1.435.397-1.944 1.055"/></g><g><path fill="#adc7f7" d="M61.508 36.575s-2.185 2.41.282 4.272 11.432-4.418 11.432-4.418 3.232-.822 4.93.26c1.697 1.084.107 14.141-3.347 19.788-1.026 1.673-2.255 4.179-2.255 4.179s.347 2.185-1.64 2.847c-3.775 1.257-13.454 1.195-16.278-.375-3.313-1.846.012-1.275.208-11.325 0 0-1.45-3.71-.898-6.366.205-.987.805-2.422 1.651-3.866"/></g><g opacity=".2"><path d="M74.795 56.486c-1.026 1.674-2.255 4.18-2.255 4.18s.347 2.184-1.64 2.846c-3.775 1.258-13.454 1.196-16.278-.375-3.313-1.845.012-1.274.208-11.324a17.772 17.772 0 0 1-.812-2.948c2.185 1.26 4.726 1.138 4.726 1.138 2.178-4.513 5.297-3.672 5.297-3.672s.847-.755 1.822-1.46c.976-.706 4.038-.17 4.038-.17l3.567-.718c-.067-1.324 1.229-1.195 1.229-1.195l.494.464c-.289-1.095 0-1.762 0-1.762l3.132 3.935c-.645 3.968-1.872 8.367-3.528 11.061z"/></g><g><path fill="none" stroke="#263238" stroke-linecap="round" stroke-linejoin="round" stroke-miterlimit="20" stroke-width=".5" d="M61.508 36.575v0s-2.185 2.41.282 4.272 11.432-4.418 11.432-4.418v0s3.232-.822 4.93.26c1.697 1.084.107 14.141-3.347 19.788-1.026 1.673-2.255 4.179-2.255 4.179v0s.347 2.185-1.64 2.847c-3.775 1.257-13.454 1.195-16.278-.375-3.313-1.846.012-1.275.208-11.325 0 0-1.45-3.71-.898-6.366.205-.987.805-2.422 1.651-3.866"/></g><g><path fill="none" stroke="#263238" stroke-linecap="round" stroke-linejoin="round" stroke-miterlimit="20" stroke-width=".5" d="M53.65 43.39c.077.46.24.902.478 1.303"/></g><g><path fill="none" stroke="#263238" stroke-linecap="round" stroke-linejoin="round" stroke-miterlimit="20" stroke-width=".5" d="M53.52 41.48c-.018.393-.009.787.028 1.179"/></g><g><path fill="none" stroke="#263238" stroke-linecap="round" stroke-linejoin="round" stroke-miterlimit="20" stroke-width=".5" d="M45.621 37.18s-1.75 1.75-1.42 3.072"/></g><g><path fill="none" stroke="#263238" stroke-linecap="round" stroke-linejoin="round" stroke-miterlimit="20" stroke-width=".5" d="M44.47 37.533a5.903 5.903 0 0 0 1.047-.753"/></g><g><path fill="none" stroke="#263238" stroke-linecap="round" stroke-linejoin="round" stroke-miterlimit="20" stroke-width=".5" d="M43.08 38.174c.244-.082.483-.177.717-.284"/></g><g><path fill="none" stroke="#263238" stroke-linecap="round" stroke-linejoin="round" stroke-miterlimit="20" stroke-width=".5" d="M37.45 27.34s2.544-.518 3.586-2.61"/></g><g><path fill="none" stroke="#263238" stroke-linecap="round" stroke-linejoin="round" stroke-miterlimit="20" stroke-width=".5" d="M65.07 41.755c.314-.073.623-.164.925-.275"/></g><g><path fill="none" stroke="#263238" stroke-linecap="round" stroke-linejoin="round" stroke-miterlimit="20" stroke-width=".5" d="M60.654 36.38c-.648 1.026-1.076 2.412-.658 3.598.631 1.798 2.673 2.166 4.34 1.924"/></g><g><path fill="none" stroke="#263238" stroke-linecap="round" stroke-linejoin="round" stroke-miterlimit="20" stroke-width=".5" d="M60.65 38.39s1.855 1.434 2.943 1.86"/></g><g><path fill="#bfbfbf" d="M73.787 46.95s-5.546.251-7.731.026c-1.404-.146-1.85.553-3.768.918-.717.139-2.228 2.367-2.228 2.367l.24 2.919s1.673 1.207 1.888.868c.215-.34-.586-1.124-.586-1.124l1.477.24a1.128 1.128 0 0 0-.454-1.014l.858-.957s1.102.333 2.31-.734l8.286.318z"/></g><g opacity=".2"><path d="M74.089 50.763l-8.286-.323c-1.208 1.066-2.31.734-2.31.734l-.858.956c.319.235.491.62.454 1.014l-1.477-.24s.8.785.586 1.124c-.216.34-1.889-.868-1.889-.868l-.239-2.919a16.94 16.94 0 0 1 1.126-1.465c1.568.956 5.64.24 5.64.24.026-.706.444-1.454.796-1.968 2.54.057 6.165-.108 6.165-.108z"/></g><g><path fill="none" stroke="#263238" stroke-linecap="round" stroke-linejoin="round" stroke-miterlimit="20" stroke-width=".5" d="M73.787 46.95v0s-5.546.251-7.731.026c-1.404-.146-1.85.553-3.768.918-.717.139-2.228 2.367-2.228 2.367v0l.24 2.919v0s1.673 1.207 1.888.868c.215-.34-.586-1.124-.586-1.124v0l1.477.24a1.128 1.128 0 0 0-.454-1.014l.858-.957v0s1.102.333 2.31-.734l8.286.318v0z"/></g><g><path fill="none" stroke="#263238" stroke-linecap="round" stroke-linejoin="round" stroke-miterlimit="20" stroke-width=".5" d="M63.496 51.181S62.599 51.109 62.2 50"/></g><g><path fill="none" stroke="#263238" stroke-linecap="round" stroke-linejoin="round" stroke-miterlimit="20" stroke-width=".5" d="M63.18 51.1s-1.47 1.195-2.28.373"/></g><g><path fill="none" stroke="#263238" stroke-linecap="round" stroke-linejoin="round" stroke-miterlimit="20" stroke-width=".5" d="M61.52 51.75s.238.798.093 1.169"/></g><g><path fill="none" stroke="#263238" stroke-linecap="round" stroke-linejoin="round" stroke-miterlimit="20" stroke-width=".5" d="M62.637 52.15a1.95 1.95 0 0 1-.717.12"/></g><g><path fill="#fff" d="M92.705 51v51.237a.62.62 0 0 1-.622.62H14.632a.62.62 0 0 1-.622-.62V51a.62.62 0 0 1 .622-.619h77.456a.62.62 0 0 1 .617.62z"/></g><g opacity=".2"><path d="M92.704 50.997v2.314c-2.166.756-5.345 1.337-7.918 1.212-3.454-.167-16.368-3.079-20.956-4.133h28.257a.62.62 0 0 1 .617.607z"/></g><g><path fill="none" stroke="#263238" stroke-miterlimit="20" stroke-width=".5" d="M92.705 51v51.237a.62.62 0 0 1-.622.62H14.632a.62.62 0 0 1-.622-.62V51a.62.62 0 0 1 .622-.619h77.456a.62.62 0 0 1 .617.62z"/></g><g><path fill="#263238" d="M20.161 50.38v52.477h-5.53a.62.62 0 0 1-.621-.62V51a.62.62 0 0 1 .622-.619z"/></g><g><path fill="#adc7f7" d="M17.086 52.81l-1.726.968 1.726.97 1.724-.97-1.724-.968z"/></g><g><path fill="#adc7f7" d="M17.086 55.139l-1.21-.679-.516.29 1.726.967 1.724-.968-.517-.289-1.207.679z"/></g><g><path fill="#adc7f7" d="M17.086 56.111l-1.21-.681-.516.29 1.726.97 1.724-.97-.517-.29-1.207.681z"/></g><g><path fill="#adc7f7" d="M35.952 60.202a6.43 6.43 0 1 1-12.862-.004 6.43 6.43 0 0 1 12.862.004z"/></g><g opacity=".6"><path fill="#fff" d="M35.952 60.202a6.43 6.43 0 1 1-12.862-.004 6.43 6.43 0 0 1 12.862.004z"/></g><g><path fill="none" stroke="#263238" stroke-linecap="round" stroke-linejoin="round" stroke-miterlimit="20" stroke-width=".5" d="M35.952 60.202a6.43 6.43 0 1 1-12.862-.004 6.43 6.43 0 0 1 12.862.004z"/></g><g><path fill="#bfbfbf" d="M32.187 66.05a6.41 6.41 0 0 1-3.436.532C27.336 65.564 26.05 63.9 26.05 63.9c.298.088.603.15.91.186.218.03.45.048.687.065.696.042 1.394.042 2.09 0 .394-.026.743-.062.991-.105.333-.09.689-.014.957.203a.856.856 0 0 1 .258.37c.22.443.305.94.244 1.43z"/><path fill="none" stroke="#263238" stroke-linecap="round" stroke-linejoin="round" stroke-miterlimit="20" stroke-width=".5" d="M32.187 66.05a6.41 6.41 0 0 1-3.436.532C27.336 65.564 26.05 63.9 26.05 63.9c.298.088.603.15.91.186.218.03.45.048.687.065.696.042 1.394.042 2.09 0 .394-.026.743-.062.991-.105.333-.09.689-.014.957.203a.856.856 0 0 1 .258.37c.22.443.305.94.244 1.43z"/></g><g><path fill="#263238" d="M26.642 55.642s.287-.978.997-.767c.71.21.614.181 1.008-.03a.495.495 0 0 1 .77.269c.134.3.407.239.825.083.418-.155.787.04.767.445-.019.404.522-.017.823.433.301.449.12.42.18.779.059.359.69.571.57.901-.12.33-.6.9-.15 1.14.45.242.6.99.165 1.215-.435.225.363.901.074 1.516-.26.559-.99.69-.66 1.26a.516.516 0 0 1 0 .59.146.146 0 0 1-.268-.072.45.45 0 0 0-.064-.217c-.15-.24-.356 0-.598-.452.09.29-.07.598-.358.69-.268.094-.316.254-.3.386a.11.11 0 0 1-.183.095.478.478 0 0 1-.12-.42s-.841.69-1.434.54c-.593-.15-1.38-.361-1.41-.81a.956.956 0 0 0-.178.442.141.141 0 0 1-.239.079.875.875 0 0 1-.203-.49.674.674 0 0 1-.318.346.175.175 0 0 1-.239-.2.282.282 0 0 0-.12-.335.717.717 0 0 1-.33-.93s-.451.3-.3.75c.06.14.044.3-.046.423a.093.093 0 0 1-.16-.093.342.342 0 0 0-.034-.33c-.21-.33-.753-.731-.332-1.195.42-.464.122-.755.122-.755s.06.3-.45.494c-.509.194-.193.479-.239.682a.43.43 0 0 1-.11.198.11.11 0 0 1-.176-.129.318.318 0 0 0 .023-.315c-.255-.462.421-.677.49-1.081.03-.42.006-.843-.071-1.258-.036-.341-.062-.604.153-.898.163-.176.294-.38.387-.6.04-.179.046-.363.017-.543a1.257 1.257 0 0 1 .03-.543c.125-.349.541-.289.718-.583.177-.294.024-.643.356-.827a.526.526 0 0 1 .615.117z"/></g><g><path fill="#bfbfbf" d="M30.01 64.704c-.479-.301-.24-1.284-.058-1.882.091-.282.172-.478.172-.478L27.65 61.07c.313 1.315 0 3.108 0 3.108"/><path fill="none" stroke="#263238" stroke-linecap="round" stroke-linejoin="round" stroke-miterlimit="20" stroke-width=".5" d="M30.01 64.704c-.479-.301-.24-1.284-.058-1.882.091-.282.172-.478.172-.478v0L27.65 61.07c.313 1.315 0 3.108 0 3.108v0"/></g><g><path fill="#263238" d="M29.08 62.34c.203.282.523.458.87.478.091-.282.172-.478.172-.478z"/></g><g><path fill="#bfbfbf" d="M27.947 61.81a3.227 3.227 0 0 1-1.569-2.26c-.296-1.913-.277-3.675 3.022-3.463 1.446.091 2.006 1.516 1.994 1.963-.026 1.038.803 2.869-.222 4.38-.153.225-1.15.239-2.2-.132"/><path fill="none" stroke="#263238" stroke-linecap="round" stroke-linejoin="round" stroke-miterlimit="20" stroke-width=".5" d="M27.947 61.81a3.227 3.227 0 0 1-1.569-2.26c-.296-1.913-.277-3.675 3.022-3.463 1.446.091 2.006 1.516 1.994 1.963-.026 1.038.803 2.869-.222 4.38-.153.225-1.15.239-2.2-.132"/></g><g><path fill="none" stroke="#263238" stroke-linecap="round" stroke-linejoin="round" stroke-miterlimit="20" stroke-width=".5" d="M29.7 58.341s-.519-.191-.82.574"/></g><g><path fill="none" stroke="#263238" stroke-linecap="round" stroke-linejoin="round" stroke-miterlimit="20" stroke-width=".5" d="M30.78 58.261a.914.914 0 0 1 .612-.203"/></g><g><path fill="none" stroke="#263238" stroke-linecap="round" stroke-linejoin="round" stroke-miterlimit="20" stroke-width=".5" d="M30.71 59.37c.27.442.598.222.583.442-.012.182-.435.502-.435.502v0"/></g><g><path fill="#263238" d="M29.299 59.376c.028.122.12.203.2.184.082-.019.127-.134.098-.256-.028-.121-.12-.2-.2-.181-.082.019-.127.134-.098.253z"/></g><g><path fill="#263238" d="M30.88 59.08c.02.124.105.21.189.199.084-.012.136-.125.115-.24-.022-.114-.103-.21-.187-.198-.084.012-.117.117-.117.24z"/></g><g><path fill="#fff" d="M29.98 60.746s.308.734.734.603c.194-.06.143-.629.143-.629"/><path fill="none" stroke="#263238" stroke-linecap="round" stroke-linejoin="round" stroke-miterlimit="20" stroke-width=".5" d="M29.98 60.746v0s.308.734.734.603c.194-.06.143-.629.143-.629v0"/></g><g><path fill="#263238" d="M29.415 56.884s-.081-.18-.24.179c-.157.358.522.717 0 .99-.52.272-.544.91-.293 1.161.25.251-.41.369-.498.61-.088.241.18.435.12.717s-.438.581-.428.736c.01.156.337.407.112.672-.224.266-.855.103-.915.634 0 0-1.889-2.102-1.913-4.064-.024-1.963 1.38-2.764 2.821-2.886 1.442-.122 3.66.576 3.84 3.08a.392.392 0 0 0-.33-.194c-.263-.036-.39-.395-.359-.784.031-.39-.239-.151-.598-.24-.358-.088-.239-.6-.478-.69-.239-.091-.435.408-.841.079z"/></g><g><path fill="none" stroke="#263238" stroke-linecap="round" stroke-linejoin="round" stroke-miterlimit="20" stroke-width=".5" d="M30.73 56.04c.014.24.75.031 1.126.24.375.207.284.57.253.78-.03.211.311.479.59.646.28.168.28.5-.078.82-.359.32-.055.41.28.694.334.284.322.633 0 .841"/></g><g><path fill="none" stroke="#263238" stroke-linecap="round" stroke-linejoin="round" stroke-miterlimit="20" stroke-width=".5" d="M29.703 56.72v0s-.612.12-.433.464c.18.344.433.774-.093 1.162-.526.387.227.82-.103 1.164s-.667.33-.423.901c.244.571-.191.717-.191.717v0"/></g><g><path fill="none" stroke="#263238" stroke-linecap="round" stroke-linejoin="round" stroke-miterlimit="20" stroke-width=".5" d="M30.976 60.688c-.348.089-.71.106-1.066.053"/></g><g><path fill="#adc7f7" d="M33.968 64.84a6.414 6.414 0 0 1-5.219 1.745 6.426 6.426 0 0 1-4.229-2.338.438.438 0 0 1 .155-.239c.696-.442 2.016-.105 2.016-.105l.267.182c.863.569 3.565 2.261 4.409 1.623a1.045 1.045 0 0 0 .308-1.46 1.602 1.602 0 0 0-.191-.285s1.143-.46 2.484.877z"/><path fill="none" stroke="#263238" stroke-linecap="round" stroke-linejoin="round" stroke-miterlimit="20" stroke-width=".5" d="M33.968 64.84a6.414 6.414 0 0 1-5.219 1.745 6.426 6.426 0 0 1-4.229-2.338.438.438 0 0 1 .155-.239c.696-.442 2.016-.105 2.016-.105v0l.267.182c.863.569 3.565 2.261 4.409 1.623a1.045 1.045 0 0 0 .308-1.46 1.602 1.602 0 0 0-.191-.285s1.143-.46 2.484.877z"/></g><g transform="rotate(-45 35 64.5)"><path fill="#263238" d="M35.093 66.626a2.233 2.233 0 1 0 0-4.466 2.233 2.233 0 0 0 0 4.466z"/></g><g><path fill="none" stroke="#fff" stroke-miterlimit="20" stroke-width=".5" d="M33.92 64.057c0-.462.375-.837.837-.837h.676c.462 0 .837.375.837.837v.676a.837.837 0 0 1-.837.837h-.676a.837.837 0 0 1-.837-.837z"/></g><g><path fill="none" stroke="#fff" stroke-miterlimit="20" stroke-width=".5" d="M35.525 64.39a.433.433 0 1 1-.865.005.433.433 0 0 1 .865-.005z"/></g><g><path fill="#fff" d="M35.876 63.825a.143.143 0 1 1-.285.037.143.143 0 0 1 .285-.037z"/></g><g><path fill="#263238" d="M46.606 59.34h-8.128a.858.858 0 1 0 0 1.716h8.128a.858.858 0 1 0 0-1.716z"/></g><g opacity=".6"><path fill="#263238" d="M58.411 53.27h-5.862a.62.62 0 1 0 0 1.238h5.862a.62.62 0 1 0 0-1.238z"/></g><g><path fill="#fff" d="M49.68 51.75v49.754"/><path fill="none" stroke="#263238" stroke-miterlimit="20" stroke-width=".5" d="M49.68 51.75v49.754"/></g><g><path fill="#bfbfbf" d="M26.838 77.865a2.948 2.948 0 1 0 0-5.895 2.948 2.948 0 0 0 0 5.895z"/><path fill="none" stroke="#263238" stroke-miterlimit="20" stroke-width=".5" d="M26.838 77.865a2.948 2.948 0 1 0 0-5.895 2.948 2.948 0 0 0 0 5.895z"/></g><g><path fill="#adc7f7" d="M30.82 76.82a1.04 1.04 0 1 1-2.08 0 1.04 1.04 0 0 1 2.08 0z"/><path fill="none" stroke="#263238" stroke-linecap="round" stroke-linejoin="round" stroke-miterlimit="20" stroke-width=".5" d="M30.82 76.82a1.04 1.04 0 1 1-2.08 0 1.04 1.04 0 0 1 2.08 0z"/></g><g><path fill="#bfbfbf" d="M26.838 87.545a2.948 2.948 0 1 0 0-5.895 2.948 2.948 0 0 0 0 5.895z"/><path fill="none" stroke="#263238" stroke-miterlimit="20" stroke-width=".5" d="M26.838 87.545a2.948 2.948 0 1 0 0-5.895 2.948 2.948 0 0 0 0 5.895z"/></g><g><path fill="#adc7f7" d="M30.82 86.5a1.04 1.04 0 1 1-2.08 0 1.04 1.04 0 0 1 2.08 0z"/><path fill="none" stroke="#263238" stroke-linecap="round" stroke-linejoin="round" stroke-miterlimit="20" stroke-width=".5" d="M30.82 86.5a1.04 1.04 0 1 1-2.08 0 1.04 1.04 0 0 1 2.08 0z"/></g><g transform="rotate(-45 26.5 94)"><path fill="#bfbfbf" d="M26.838 97.215a2.948 2.948 0 1 0 0-5.895 2.948 2.948 0 0 0 0 5.895z"/><path fill="none" stroke="#263238" stroke-miterlimit="20" stroke-width=".5" d="M26.838 97.215a2.948 2.948 0 1 0 0-5.895 2.948 2.948 0 0 0 0 5.895z"/></g><g><path fill="#adc7f7" d="M30.82 96.182a1.04 1.04 0 1 1-2.08-.004 1.04 1.04 0 0 1 2.08.004z"/><path fill="none" stroke="#263238" stroke-linecap="round" stroke-linejoin="round" stroke-miterlimit="20" stroke-width=".5" d="M30.82 96.182a1.04 1.04 0 1 1-2.08-.004 1.04 1.04 0 0 1 2.08.004z"/></g><g opacity=".3"><g opacity=".12"><path d="M52.65 56.48h38.207v11.389H52.65z"/></g><g opacity=".12"><path d="M52.65 86.6h38.207v11.389H52.65z"/></g><g opacity=".12"><path d="M52.65 68.91h38.207v11.389H52.65z"/></g></g><g><path fill="#adc7f7" d="M51.93 56h38.207v11.389H51.93z"/></g><g opacity=".6"><path fill="#fff" d="M51.93 56h38.207v11.389H51.93z"/></g><g><path fill="none" stroke="#263238" stroke-miterlimit="20" stroke-width=".5" d="M51.93 56v0h38.207v11.389H51.93v0z"/></g><g><path fill="#263238" d="M53.26 57.15h10.038v7.66H53.26z"/></g><g opacity=".3"><path fill="#fff" d="M63.298 62.95v1.856H53.26V63.08l3.172-2.35 3.264 2.35 1.843-1.176 1.76 1.047z"/></g><g opacity=".3"><path fill="#fff" d="M60.762 59.319a1.011 1.011 0 1 1-2.022.005 1.011 1.011 0 0 1 2.022-.005z"/></g><g opacity=".4"><path fill="#263238" d="M57.526 65.531H53.57a.418.418 0 1 0 0 .834h3.956a.418.418 0 1 0 0-.834z"/></g><g opacity=".4"><path fill="#263238" d="M88.327 57.41H65.248a.418.418 0 0 0 0 .837h23.08a.418.418 0 1 0 0-.837z"/></g><g opacity=".4"><path fill="#263238" d="M88.327 59.8H65.248a.418.418 0 0 0 0 .837h23.08a.418.418 0 1 0 0-.837z"/></g><g opacity=".4"><path fill="#263238" d="M83.546 62.19H65.248a.418.418 0 0 0 0 .837h18.298a.418.418 0 1 0 0-.837z"/></g><g opacity=".6"><path fill="#263238" d="M58.411 83.39h-5.862a.62.62 0 1 0 0 1.238h5.862a.62.62 0 1 0 0-1.238z"/></g><g><path fill="#adc7f7" d="M51.93 86.12h38.207v11.389H51.93z"/></g><g opacity=".6"><path fill="#fff" d="M51.93 86.12h38.207v11.389H51.93z"/></g><g><path fill="none" stroke="#263238" stroke-miterlimit="20" stroke-width=".5" d="M51.93 86.12v0h38.207v11.389H51.93v0z"/></g><g><path fill="#263238" d="M53.26 87.27h10.038v7.66H53.26z"/></g><g opacity=".3"><path fill="#fff" d="M63.298 93.07v1.856H53.26V93.2l3.172-2.35 3.264 2.35 1.843-1.176 1.76 1.047z"/></g><g opacity=".3"><path fill="#fff" d="M60.762 89.439a1.011 1.011 0 1 1-2.022.005 1.011 1.011 0 0 1 2.022-.005z"/></g><g opacity=".4"><path fill="#263238" d="M57.526 95.651H53.57a.418.418 0 1 0 0 .834h3.956a.418.418 0 1 0 0-.834z"/></g><g opacity=".4"><path fill="#263238" d="M88.327 87.53H65.248a.418.418 0 0 0 0 .837h23.08a.418.418 0 1 0 0-.837z"/></g><g opacity=".4"><path fill="#263238" d="M88.327 89.92H65.248a.418.418 0 0 0 0 .837h23.08a.418.418 0 1 0 0-.837z"/></g><g opacity=".4"><path fill="#263238" d="M83.546 92.31H65.248a.418.418 0 0 0 0 .837h18.298a.418.418 0 1 0 0-.837z"/></g><g><path fill="#adc7f7" d="M51.93 68.43h38.207v11.389H51.93z"/></g><g opacity=".6"><path fill="#fff" d="M51.93 68.43h38.207v11.389H51.93z"/></g><g><path fill="none" stroke="#263238" stroke-miterlimit="20" stroke-width=".5" d="M51.93 68.43v0h38.207v11.389H51.93v0z"/></g><g><path fill="#263238" d="M53.26 69.58h10.038v7.66H53.26z"/></g><g opacity=".3"><path fill="#fff" d="M63.298 75.38v1.856H53.26V75.51l3.172-2.35 3.264 2.35 1.843-1.176 1.76 1.047z"/></g><g opacity=".3"><path fill="#fff" d="M60.762 71.749a1.011 1.011 0 1 1-2.022.005 1.011 1.011 0 0 1 2.022-.005z"/></g><g opacity=".4"><path fill="#263238" d="M57.526 77.961H53.57a.418.418 0 1 0 0 .834h3.956a.418.418 0 1 0 0-.834z"/></g><g opacity=".4"><path fill="#263238" d="M88.327 69.84H65.248a.418.418 0 0 0 0 .837h23.08a.418.418 0 1 0 0-.837z"/></g><g opacity=".4"><path fill="#263238" d="M88.327 72.23H65.248a.418.418 0 0 0 0 .837h23.08a.418.418 0 1 0 0-.837z"/></g><g opacity=".4"><path fill="#263238" d="M83.546 74.62H65.248a.418.418 0 0 0 0 .837h18.298a.418.418 0 1 0 0-.837z"/></g><g opacity=".4"><path fill="#263238" d="M44.046 74.5H32.678a.418.418 0 1 0 0 .837h11.368a.418.418 0 1 0 0-.837z"/></g><g opacity=".4"><path fill="#263238" d="M44.046 93.85H32.678a.418.418 0 0 0 0 .837h11.368a.418.418 0 0 0 0-.837z"/></g><g opacity=".4"><path fill="#263238" d="M44.047 84.181H32.68a.418.418 0 1 0 0 .834h11.367a.418.418 0 1 0 0-.834z"/></g><g><path fill="#adc7f7" d="M77.466 36.38c3.402 1.119 11.671 5.532 13.084 7.423 1.413 1.89.404 5.826-2.747 6.823-3.15.997-17.906 0-17.906 0s-1.195.77-1.54.442c-.343-.328-.477-5.737.761-5.704 1.007.033 1.406.519 1.406.519l6.435-1.22s-2.151-2.531-2.151-5.12"/></g><g><g opacity=".2"><path d="M87.8 50.627c-3.154.994-17.906 0-17.906 0s-1.196.77-1.54.442c-.2-.186-.33-2.003-.177-3.538.187.796.423 1.69.588 1.953.316.505 1.511 0 1.511 0a8.845 8.845 0 0 1 .24-3.163l1.245 2.659s11.829.693 16.18-1.136c1.81-.76 2.584-2.202 2.868-3.624 1.002 2.001-.074 5.48-3.01 6.407z"/></g><g opacity=".2"><path d="M80.485 43.938l-3.531.717a10.93 10.93 0 0 1-.734-1.023c.04-.94.172-2.18.571-2.66.682-.818.555 1.322 1.196 2.522 0 0 2.426-1.96 3.387-1.516.961.445-.284.536-.89 1.96z"/></g></g><g><path fill="none" stroke="#263238" stroke-linecap="round" stroke-linejoin="round" stroke-miterlimit="20" stroke-width=".5" d="M77.466 36.38c3.402 1.119 11.671 5.532 13.084 7.423 1.413 1.89.404 5.826-2.747 6.823-3.15.997-17.906 0-17.906 0v0s-1.195.77-1.54.442c-.343-.328-.477-5.737.761-5.704 1.007.033 1.406.519 1.406.519v0l6.435-1.22v0s-2.151-2.531-2.151-5.12"/></g><g><path fill="none" stroke="#263238" stroke-linecap="round" stroke-linejoin="round" stroke-miterlimit="20" stroke-width=".5" d="M85.03 44.76c.337.247.593.588.736.98"/></g><g><path fill="none" stroke="#263238" stroke-linecap="round" stroke-linejoin="round" stroke-miterlimit="20" stroke-width=".5" d="M76.96 44.66c2.5-.406 4.92-1.604 7.351-.36"/></g><g><path fill="none" stroke="#263238" stroke-linecap="round" stroke-linejoin="round" stroke-miterlimit="20" stroke-width=".5" d="M84.92 43.18c.239.054.463.161.655.313"/></g><g><path fill="none" stroke="#263238" stroke-linecap="round" stroke-linejoin="round" stroke-miterlimit="20" stroke-width=".5" d="M80.37 43.912c.84-1.052 2.546-1 3.746-.88"/></g><g><path fill="none" stroke="#263238" stroke-linecap="round" stroke-linejoin="round" stroke-miterlimit="20" stroke-width=".5" d="M70.759 45.84a3.234 3.234 0 0 0-.418 2.316"/></g><g><path fill="none" stroke="#263238" stroke-linecap="round" stroke-linejoin="round" stroke-miterlimit="20" stroke-width=".5" d="M75.27 43.31c.298.234.65.39 1.023.452"/></g><g><path fill="none" stroke="#263238" stroke-linecap="round" stroke-linejoin="round" stroke-miterlimit="20" stroke-width=".5" d="M74.09 41.97c.175.285.377.552.602.798"/></g></g></g></g></svg>