<svg xmlns="http://www.w3.org/2000/svg" width="140" height="140" viewBox="0 0 140 140"><g><g><g><g><path fill="#adc7f7" d="M116.88 15.235C96.668.72 62.166-3.034 44.168 3.035 11.71 13.987 6.505 35.269 6.856 54.295c.351 19.027 24.74 35.366 31.231 51.997 6.492 16.631 18.396 38.988 41.387 32.14 22.992-6.846 22.006-31.603 28.972-48.318 6.965-16.716 25.183-33.855 24.193-49.2-.69-10.715-6.83-19.242-15.76-25.679z"/></g><g opacity=".7"><path fill="#fff" d="M116.88 15.235C96.668.72 62.166-3.034 44.168 3.035 11.71 13.987 6.505 35.269 6.856 54.295c.351 19.027 24.74 35.366 31.231 51.997 6.492 16.631 18.396 38.988 41.387 32.14 22.992-6.846 22.006-31.603 28.972-48.318 6.965-16.716 25.183-33.855 24.193-49.2-.69-10.715-6.83-19.242-15.76-25.679z"/></g></g><g><g opacity=".2"><path d="M2.56 32.911A3.411 3.411 0 0 1 5.971 29.5H61.98a3.411 3.411 0 0 1 3.411 3.411v40.532a3.411 3.411 0 0 1-3.411 3.411H5.97a3.411 3.411 0 0 1-3.411-3.411z"/></g><g><path fill="#fff" d="M1 30.421a3.411 3.411 0 0 1 3.411-3.411H60.42a3.411 3.411 0 0 1 3.411 3.411v40.532a3.411 3.411 0 0 1-3.411 3.411H4.41A3.411 3.411 0 0 1 1 70.953z"/><path fill="none" stroke="#263238" stroke-linecap="round" stroke-linejoin="round" stroke-miterlimit="20" stroke-width=".5" d="M1 30.421a3.411 3.411 0 0 1 3.411-3.411H60.42a3.411 3.411 0 0 1 3.411 3.411v40.532a3.411 3.411 0 0 1-3.411 3.411H4.41A3.411 3.411 0 0 1 1 70.953z"/></g><g><path fill="#adc7f7" d="M21.317 48.663L7.885 53.022c-2.41-7.423 1.651-15.395 9.073-17.808a13.42 13.42 0 0 1 4.359-.694z"/><path fill="none" stroke="#263238" stroke-linecap="round" stroke-linejoin="round" stroke-miterlimit="20" stroke-width=".5" d="M21.317 48.663v0L7.885 53.022c-2.41-7.423 1.651-15.395 9.073-17.808a13.42 13.42 0 0 1 4.359-.694z"/></g><g><path fill="#fff" d="M21.312 48.67l8.307 11.426c-6.313 4.584-15.147 3.184-19.733-3.127a13.436 13.436 0 0 1-2.006-3.94z"/><path fill="none" stroke="#263238" stroke-linecap="round" stroke-linejoin="round" stroke-miterlimit="20" stroke-width=".5" d="M21.312 48.67v0l8.307 11.426c-6.313 4.584-15.147 3.184-19.733-3.127a13.436 13.436 0 0 1-2.006-3.94z"/></g><g><path fill="#263238" d="M21.31 48.667L34.75 44.3a13.91 13.91 0 0 1-5.124 15.793z"/><path fill="none" stroke="#263238" stroke-linecap="round" stroke-linejoin="round" stroke-miterlimit="20" stroke-width=".5" d="M21.31 48.667v0L34.75 44.3a13.91 13.91 0 0 1-5.124 15.793z"/></g><g><path fill="#fff" d="M21.31 48.665V34.531a13.914 13.914 0 0 1 13.44 9.767z"/><path fill="none" stroke="#263238" stroke-linecap="round" stroke-linejoin="round" stroke-miterlimit="20" stroke-width=".5" d="M21.31 48.665v0-14.134a13.914 13.914 0 0 1 13.44 9.767z"/></g><g><path fill="#fff" d="M21.33 57.471a8.81 8.81 0 1 0 0-17.621 8.81 8.81 0 0 0 0 17.621z"/><path fill="none" stroke="#263238" stroke-linecap="round" stroke-linejoin="round" stroke-miterlimit="20" stroke-width=".5" d="M21.33 57.471a8.81 8.81 0 1 0 0-17.621 8.81 8.81 0 0 0 0 17.621z"/></g><g><path fill="#adc7f7" d="M39.43 33.67h19.36v1.604H39.43z"/><path fill="none" stroke="#263238" stroke-linecap="round" stroke-linejoin="round" stroke-miterlimit="20" stroke-width=".5" d="M39.43 33.67v0h19.36v1.604H39.43v0z"/></g><g><path fill="#263238" d="M39.43 37.1h15.197v1.604H39.43z"/><path fill="none" stroke="#263238" stroke-linecap="round" stroke-linejoin="round" stroke-miterlimit="20" stroke-width=".5" d="M39.43 37.1v0h15.197v1.604H39.43v0z"/></g><g><path fill="#fff" d="M39.43 40.53h11.168v1.604H39.43z"/><path fill="none" stroke="#263238" stroke-linecap="round" stroke-linejoin="round" stroke-miterlimit="20" stroke-width=".5" d="M39.43 40.53v0h11.168v1.604H39.43v0z"/></g><g><path fill="#adc7f7" d="M39.43 43.96H55.3v1.604H39.43z"/><path fill="none" stroke="#263238" stroke-linecap="round" stroke-linejoin="round" stroke-miterlimit="20" stroke-width=".5" d="M39.43 43.96v0H55.3v1.604H39.43v0z"/></g><g><path fill="#263238" d="M39.43 47.4h7.541v1.604H39.43z"/><path fill="none" stroke="#263238" stroke-linecap="round" stroke-linejoin="round" stroke-miterlimit="20" stroke-width=".5" d="M39.43 47.4v0h7.541v1.604H39.43v0z"/></g><g><path fill="#fff" d="M39.43 50.83h19.36v1.604H39.43z"/><path fill="none" stroke="#263238" stroke-linecap="round" stroke-linejoin="round" stroke-miterlimit="20" stroke-width=".5" d="M39.43 50.83v0h19.36v1.604H39.43v0z"/></g><g><path fill="#adc7f7" d="M39.43 54.26h14.257v1.604H39.43z"/><path fill="none" stroke="#263238" stroke-linecap="round" stroke-linejoin="round" stroke-miterlimit="20" stroke-width=".5" d="M39.43 54.26v0h14.257v1.604H39.43v0z"/></g><g><path fill="#263238" d="M39.43 57.7h12.459v1.604H39.43z"/><path fill="none" stroke="#263238" stroke-linecap="round" stroke-linejoin="round" stroke-miterlimit="20" stroke-width=".5" d="M39.43 57.7v0h12.459v1.604H39.43v0z"/></g><g><path fill="#fff" d="M39.43 61.13h19.36v1.604H39.43z"/><path fill="none" stroke="#263238" stroke-linecap="round" stroke-linejoin="round" stroke-miterlimit="20" stroke-width=".5" d="M39.43 61.13v0h19.36v1.604H39.43v0z"/></g><g><path fill="none" stroke="#263238" stroke-linecap="round" stroke-linejoin="round" stroke-miterlimit="20" stroke-width=".5" d="M14.13 65.801h15.006"/></g><g><path fill="none" stroke="#263238" stroke-linecap="round" stroke-linejoin="round" stroke-miterlimit="20" stroke-width=".5" d="M12 67.922h19.255"/></g><g><path fill="none" stroke="#263238" stroke-linecap="round" stroke-linejoin="round" stroke-miterlimit="20" stroke-width=".5" d="M39.94 65.801h15.006"/></g><g><path fill="none" stroke="#263238" stroke-linecap="round" stroke-linejoin="round" stroke-miterlimit="20" stroke-width=".5" d="M37.82 67.922h19.255"/></g><g opacity=".2"><path d="M10.72 100.011a3.411 3.411 0 0 1 3.411-3.411H62.29a3.411 3.411 0 0 1 3.411 3.411v34.616a3.411 3.411 0 0 1-3.411 3.411H14.13a3.411 3.411 0 0 1-3.411-3.411z"/></g><g><path fill="#fff" d="M8.85 97.841a3.411 3.411 0 0 1 3.411-3.411H60.42a3.411 3.411 0 0 1 3.411 3.411v34.616a3.411 3.411 0 0 1-3.411 3.411H12.26a3.411 3.411 0 0 1-3.411-3.411z"/><path fill="none" stroke="#263238" stroke-linecap="round" stroke-linejoin="round" stroke-miterlimit="20" stroke-width=".5" d="M8.85 97.841a3.411 3.411 0 0 1 3.411-3.411H60.42a3.411 3.411 0 0 1 3.411 3.411v34.616a3.411 3.411 0 0 1-3.411 3.411H12.26a3.411 3.411 0 0 1-3.411-3.411z"/></g><g><path fill="none" stroke="#263238" stroke-linecap="round" stroke-linejoin="round" stroke-miterlimit="20" stroke-width=".5" d="M12.61 114.132h7.334"/></g><g><path fill="none" stroke="#263238" stroke-linecap="round" stroke-linejoin="round" stroke-miterlimit="20" stroke-width=".5" d="M12.61 115.792h11.6"/></g><g><path fill="none" stroke="#263238" stroke-linecap="round" stroke-linejoin="round" stroke-miterlimit="20" stroke-width=".5" d="M12.61 117.442h7.334"/></g><g><path fill="none" stroke="#263238" stroke-linecap="round" stroke-linejoin="round" stroke-miterlimit="20" stroke-width=".5" d="M12.61 119.102h10.58"/></g><g><path fill="none" stroke="#263238" stroke-linecap="round" stroke-linejoin="round" stroke-miterlimit="20" stroke-width=".5" d="M12.61 120.751h7.334"/></g><g><path fill="none" stroke="#263238" stroke-linecap="round" stroke-linejoin="round" stroke-miterlimit="20" stroke-width=".5" d="M12.61 122.412h12.958"/></g><g><path fill="none" stroke="#263238" stroke-linecap="round" stroke-linejoin="round" stroke-miterlimit="20" stroke-width=".5" d="M30.98 114.132h7.334"/></g><g><path fill="none" stroke="#263238" stroke-linecap="round" stroke-linejoin="round" stroke-miterlimit="20" stroke-width=".5" d="M30.98 115.792h11.6"/></g><g><path fill="none" stroke="#263238" stroke-linecap="round" stroke-linejoin="round" stroke-miterlimit="20" stroke-width=".5" d="M30.98 117.442h7.334"/></g><g><path fill="none" stroke="#263238" stroke-linecap="round" stroke-linejoin="round" stroke-miterlimit="20" stroke-width=".5" d="M30.98 119.102h10.58"/></g><g><path fill="none" stroke="#263238" stroke-linecap="round" stroke-linejoin="round" stroke-miterlimit="20" stroke-width=".5" d="M30.98 120.751h7.334"/></g><g><path fill="none" stroke="#263238" stroke-linecap="round" stroke-linejoin="round" stroke-miterlimit="20" stroke-width=".5" d="M30.98 122.412h12.958"/></g><g><path fill="none" stroke="#263238" stroke-linecap="round" stroke-linejoin="round" stroke-miterlimit="20" stroke-width=".5" d="M49.34 114.132h7.334"/></g><g><path fill="none" stroke="#263238" stroke-linecap="round" stroke-linejoin="round" stroke-miterlimit="20" stroke-width=".5" d="M49.34 115.792h11.595"/></g><g><path fill="none" stroke="#263238" stroke-linecap="round" stroke-linejoin="round" stroke-miterlimit="20" stroke-width=".5" d="M49.34 117.442h7.334"/></g><g><path fill="none" stroke="#263238" stroke-linecap="round" stroke-linejoin="round" stroke-miterlimit="20" stroke-width=".5" d="M49.34 119.102h10.575"/></g><g><path fill="none" stroke="#263238" stroke-linecap="round" stroke-linejoin="round" stroke-miterlimit="20" stroke-width=".5" d="M49.34 120.751h7.334"/></g><g><path fill="none" stroke="#263238" stroke-linecap="round" stroke-linejoin="round" stroke-miterlimit="20" stroke-width=".5" d="M49.34 122.412h12.958"/></g><g><path fill="#263238" d="M12.14 108.69h14.194v2.84H12.14z"/></g><g><path fill="#263238" d="M30.83 108.69h14.194v2.84H30.83z"/></g><g><path fill="#263238" d="M49.52 108.69h14.194v2.84H49.52z"/></g><g><path fill="none" stroke="#263238" stroke-linecap="round" stroke-linejoin="round" stroke-miterlimit="20" stroke-width=".5" d="M28.552 108.52v14.367"/></g><g><path fill="none" stroke="#263238" stroke-linecap="round" stroke-linejoin="round" stroke-miterlimit="20" stroke-width=".5" d="M47.081 108.52v14.367"/></g><g><path fill="#adc7f7" d="M17.929 101.959L21 100.96a3.229 3.229 0 1 1-3.072-2.23z"/><path fill="none" stroke="#263238" stroke-miterlimit="20" stroke-width=".5" d="M17.929 101.959v0L21 100.96a3.229 3.229 0 1 1-3.072-2.23z"/></g><g><path fill="#263238" d="M17.93 101.96v-3.23a3.178 3.178 0 0 1 3.072 2.23z"/><path fill="none" stroke="#263238" stroke-miterlimit="20" stroke-width=".5" d="M17.93 101.96v0-3.23a3.178 3.178 0 0 1 3.072 2.23z"/></g><g><path fill="#adc7f7" d="M49.027 101.959l3.073-.999a3.229 3.229 0 1 1-3.073-2.23z"/><path fill="none" stroke="#263238" stroke-miterlimit="20" stroke-width=".5" d="M49.027 101.959v0l3.073-.999a3.229 3.229 0 1 1-3.073-2.23z"/></g><g><path fill="#263238" d="M49.03 101.96v-3.23a3.174 3.174 0 0 1 3.072 2.23z"/><path fill="none" stroke="#263238" stroke-miterlimit="20" stroke-width=".5" d="M49.03 101.96v0-3.23a3.174 3.174 0 0 1 3.072 2.23z"/></g><g><path fill="#adc7f7" d="M28.299 101.959v3.229a3.229 3.229 0 1 1 0-6.458z"/><path fill="none" stroke="#263238" stroke-miterlimit="20" stroke-width=".5" d="M28.299 101.959v3.229a3.229 3.229 0 1 1 0-6.458v0z"/></g><g><path fill="#263238" d="M28.3 101.959V98.73a3.229 3.229 0 0 1 0 6.458z"/><path fill="none" stroke="#263238" stroke-miterlimit="20" stroke-width=".5" d="M28.3 101.959v0-3.229a3.229 3.229 0 0 1 0 6.458v0z"/></g><g><path fill="#adc7f7" d="M38.66 101.96l3.073.998a3.23 3.23 0 1 1-6.145-1.998 3.178 3.178 0 0 1 3.073-2.23z"/><path fill="none" stroke="#263238" stroke-miterlimit="20" stroke-width=".5" d="M38.66 101.96v0l3.073.998a3.23 3.23 0 1 1-6.145-1.998 3.178 3.178 0 0 1 3.073-2.23z"/></g><g><path fill="#263238" d="M38.66 101.959V98.73a3.229 3.229 0 0 1 3.072 4.228z"/><path fill="none" stroke="#263238" stroke-miterlimit="20" stroke-width=".5" d="M38.66 101.959v0-3.229a3.229 3.229 0 0 1 3.072 4.228z"/></g><g><path fill="#adc7f7" d="M59.4 101.96l3.073.998a3.23 3.23 0 1 1-6.145-1.998 3.178 3.178 0 0 1 3.073-2.23z"/><path fill="none" stroke="#263238" stroke-miterlimit="20" stroke-width=".5" d="M59.4 101.96v0l3.073.998a3.23 3.23 0 1 1-6.145-1.998 3.178 3.178 0 0 1 3.073-2.23z"/></g><g><path fill="#263238" d="M59.4 101.959V98.73a3.225 3.225 0 0 1 3.229 3.229c.003.34-.05.677-.157.999z"/><path fill="none" stroke="#263238" stroke-miterlimit="20" stroke-width=".5" d="M59.4 101.959v0-3.229a3.225 3.225 0 0 1 3.229 3.229c.003.34-.05.677-.157.999z"/></g><g><path fill="#adc7f7" d="M57.21 131.27h2.827v.956H57.21z"/><path fill="none" stroke="#263238" stroke-linecap="round" stroke-linejoin="round" stroke-miterlimit="20" stroke-width=".5" d="M57.21 131.27v0h2.827v.956H57.21v0z"/></g><g><path fill="#263238" d="M54.07 126.49h2.827v5.734H54.07z"/><path fill="none" stroke="#263238" stroke-linecap="round" stroke-linejoin="round" stroke-miterlimit="20" stroke-width=".5" d="M54.07 126.49v0h2.827v5.734H54.07v0z"/></g><g><path fill="#fff" d="M50.93 128.55h2.827v3.677H50.93z"/><path fill="none" stroke="#263238" stroke-linecap="round" stroke-linejoin="round" stroke-miterlimit="20" stroke-width=".5" d="M50.93 128.55v0h2.827v3.677H50.93v0z"/></g><g><path fill="#adc7f7" d="M47.79 125.69h2.827v6.542H47.79z"/><path fill="none" stroke="#263238" stroke-linecap="round" stroke-linejoin="round" stroke-miterlimit="20" stroke-width=".5" d="M47.79 125.69v0h2.827v6.542H47.79v0z"/></g><g><path fill="#263238" d="M44.65 130.54h2.827v1.693H44.65z"/><path fill="none" stroke="#263238" stroke-linecap="round" stroke-linejoin="round" stroke-miterlimit="20" stroke-width=".5" d="M44.65 130.54v0h2.827v1.693H44.65v0z"/></g><g><path fill="#fff" d="M41.51 130.02h2.827v2.205H41.51z"/><path fill="none" stroke="#263238" stroke-linecap="round" stroke-linejoin="round" stroke-miterlimit="20" stroke-width=".5" d="M41.51 130.02v0h2.827v2.205H41.51v0z"/></g><g><path fill="#adc7f7" d="M38.37 127.82h2.827v4.414H38.37z"/><path fill="none" stroke="#263238" stroke-linecap="round" stroke-linejoin="round" stroke-miterlimit="20" stroke-width=".5" d="M38.37 127.82v0h2.827v4.414H38.37v0z"/></g><g><path fill="#263238" d="M35.23 131.5h2.827v.736H35.23z"/><path fill="none" stroke="#263238" stroke-linecap="round" stroke-linejoin="round" stroke-miterlimit="20" stroke-width=".5" d="M35.23 131.5v0h2.827v.736H35.23v0z"/></g><g><path fill="#fff" d="M32.09 126.49h2.827v5.734H32.09z"/><path fill="none" stroke="#263238" stroke-linecap="round" stroke-linejoin="round" stroke-miterlimit="20" stroke-width=".5" d="M32.09 126.49v0h2.827v5.734H32.09v0z"/></g><g><path fill="#adc7f7" d="M28.95 127.6h2.827v4.634H28.95z"/><path fill="none" stroke="#263238" stroke-linecap="round" stroke-linejoin="round" stroke-miterlimit="20" stroke-width=".5" d="M28.95 127.6v0h2.827v4.634H28.95v0z"/></g><g><path fill="#263238" d="M25.82 132.01h2.827v.22H25.82z"/><path fill="none" stroke="#263238" stroke-linecap="round" stroke-linejoin="round" stroke-miterlimit="20" stroke-width=".5" d="M25.82 132.01v0h2.827v.22H25.82v0z"/></g><g><path fill="#fff" d="M22.68 131.94h2.827v.292H22.68z"/><path fill="none" stroke="#263238" stroke-linecap="round" stroke-linejoin="round" stroke-miterlimit="20" stroke-width=".5" d="M22.68 131.94v0h2.827v.292H22.68v0z"/></g><g><path fill="#adc7f7" d="M19.54 128.55h2.827v3.677H19.54z"/><path fill="none" stroke="#263238" stroke-linecap="round" stroke-linejoin="round" stroke-miterlimit="20" stroke-width=".5" d="M19.54 128.55v0h2.827v3.677H19.54v0z"/></g><g><path fill="#263238" d="M16.4 131.5h2.827v.736H16.4z"/><path fill="none" stroke="#263238" stroke-linecap="round" stroke-linejoin="round" stroke-miterlimit="20" stroke-width=".5" d="M16.4 131.5v0h2.827v.736H16.4v0z"/></g><g><path fill="#fff" d="M13.26 130.76h2.827v1.473H13.26z"/><path fill="none" stroke="#263238" stroke-linecap="round" stroke-linejoin="round" stroke-miterlimit="20" stroke-width=".5" d="M13.26 130.76v0h2.827v1.473H13.26v0z"/></g><g opacity=".2"><path d="M77.19 64.141a3.411 3.411 0 0 1 3.411-3.411h56.008a3.411 3.411 0 0 1 3.411 3.411v40.532a3.411 3.411 0 0 1-3.411 3.411H80.6a3.411 3.411 0 0 1-3.411-3.411z"/></g><g><path fill="#fff" d="M75.01 61.651a3.411 3.411 0 0 1 3.411-3.411h56.008a3.411 3.411 0 0 1 3.411 3.411v40.532a3.411 3.411 0 0 1-3.411 3.411H78.42a3.411 3.411 0 0 1-3.411-3.411z"/><path fill="none" stroke="#263238" stroke-linecap="round" stroke-linejoin="round" stroke-miterlimit="20" stroke-width=".5" d="M75.01 61.651a3.411 3.411 0 0 1 3.411-3.411h56.008a3.411 3.411 0 0 1 3.411 3.411v40.532a3.411 3.411 0 0 1-3.411 3.411H78.42a3.411 3.411 0 0 1-3.411-3.411z"/></g><g><path fill="#adc7f7" d="M130.62 95.29h3.259v3.614h-3.259z"/><path fill="none" stroke="#263238" stroke-linecap="round" stroke-linejoin="round" stroke-miterlimit="20" stroke-width=".5" d="M130.62 95.29v0h3.259v3.614h-3.259v0z"/></g><g><path fill="#263238" d="M127 77.22h3.259V98.9H127z"/><path fill="none" stroke="#263238" stroke-linecap="round" stroke-linejoin="round" stroke-miterlimit="20" stroke-width=".5" d="M127 77.22v0h3.259V98.9H127v0z"/></g><g><path fill="#fff" d="M123.38 85.01h3.259v13.897h-3.259z"/><path fill="none" stroke="#263238" stroke-linecap="round" stroke-linejoin="round" stroke-miterlimit="20" stroke-width=".5" d="M123.38 85.01v0h3.259v13.897h-3.259v0z"/></g><g><path fill="#adc7f7" d="M119.76 74.16h3.259V98.9h-3.259z"/><path fill="none" stroke="#263238" stroke-linecap="round" stroke-linejoin="round" stroke-miterlimit="20" stroke-width=".5" d="M119.76 74.16v0h3.259V98.9h-3.259v0z"/></g><g><path fill="#263238" d="M116.14 92.51h3.258v6.394h-3.258z"/><path fill="none" stroke="#263238" stroke-linecap="round" stroke-linejoin="round" stroke-miterlimit="20" stroke-width=".5" d="M116.14 92.51v0h3.258v6.394h-3.258v0z"/></g><g><path fill="#fff" d="M112.51 90.56h3.259v8.337h-3.259z"/><path fill="none" stroke="#263238" stroke-linecap="round" stroke-linejoin="round" stroke-miterlimit="20" stroke-width=".5" d="M112.51 90.56v0h3.259v8.337h-3.259v0z"/></g><g><path fill="#adc7f7" d="M108.9 82.22h3.258v16.678H108.9z"/><path fill="none" stroke="#263238" stroke-linecap="round" stroke-linejoin="round" stroke-miterlimit="20" stroke-width=".5" d="M108.9 82.22v0h3.258v16.678H108.9v0z"/></g><g><path fill="#263238" d="M105.27 96.12h3.259v2.78h-3.259z"/><path fill="none" stroke="#263238" stroke-linecap="round" stroke-linejoin="round" stroke-miterlimit="20" stroke-width=".5" d="M105.27 96.12v0h3.259v2.78h-3.259v0z"/></g><g><path fill="#fff" d="M101.65 77.22h3.259V98.9h-3.259z"/><path fill="none" stroke="#263238" stroke-linecap="round" stroke-linejoin="round" stroke-miterlimit="20" stroke-width=".5" d="M101.65 77.22v0h3.259V98.9h-3.259v0z"/></g><g><path fill="#adc7f7" d="M98.03 81.39h3.259v17.511H98.03z"/><path fill="none" stroke="#263238" stroke-linecap="round" stroke-linejoin="round" stroke-miterlimit="20" stroke-width=".5" d="M98.03 81.39v0h3.259v17.511H98.03v0z"/></g><g><path fill="#263238" d="M94.41 98.06h3.259v.834H94.41z"/><path fill="none" stroke="#263238" stroke-linecap="round" stroke-linejoin="round" stroke-miterlimit="20" stroke-width=".5" d="M94.41 98.06v0h3.259v.834H94.41v0z"/></g><g><path fill="#fff" d="M90.79 97.79h3.259v1.113H90.79z"/><path fill="none" stroke="#263238" stroke-linecap="round" stroke-linejoin="round" stroke-miterlimit="20" stroke-width=".5" d="M90.79 97.79v0h3.259v1.113H90.79v0z"/></g><g><path fill="#adc7f7" d="M87.16 85.01h3.259v13.897H87.16z"/><path fill="none" stroke="#263238" stroke-linecap="round" stroke-linejoin="round" stroke-miterlimit="20" stroke-width=".5" d="M87.16 85.01v0h3.259v13.897H87.16v0z"/></g><g><path fill="#263238" d="M83.55 96.12h3.258v2.78H83.55z"/><path fill="none" stroke="#263238" stroke-linecap="round" stroke-linejoin="round" stroke-miterlimit="20" stroke-width=".5" d="M83.55 96.12v0h3.258v2.78H83.55v0z"/></g><g><path fill="#fff" d="M79.92 93.34h3.259v5.56H79.92z"/><path fill="none" stroke="#263238" stroke-linecap="round" stroke-linejoin="round" stroke-miterlimit="20" stroke-width=".5" d="M79.92 93.34v0h3.259v5.56H79.92v0z"/></g><g><path fill="#adc7f7" d="M80.35 68.13h53.744v2.75H80.35z"/><path fill="none" stroke="#263238" stroke-miterlimit="20" stroke-width=".5" d="M80.35 68.13v0h53.744v2.75H80.35v0z"/></g><g><path fill="#263238" d="M94.51 68.33h8.718v2.349H94.51z"/><path fill="none" stroke="#263238" stroke-miterlimit="20" stroke-width=".5" d="M94.51 68.33v0h8.718v2.349H94.51v0z"/></g><g><path fill="#fff" d="M103.58 68.33h16.373v2.349H103.58z"/><path fill="none" stroke="#263238" stroke-miterlimit="20" stroke-width=".5" d="M103.58 68.33v0h16.373v2.349H103.58v0z"/></g><g opacity=".2"><path d="M82.32 12.981a3.411 3.411 0 0 1 3.411-3.411h44.019a3.411 3.411 0 0 1 3.411 3.411v31.497a3.411 3.411 0 0 1-3.411 3.411H85.73a3.411 3.411 0 0 1-3.411-3.411z"/></g><g><path fill="#fff" d="M80.45 10.491a3.411 3.411 0 0 1 3.411-3.411h44.019a3.411 3.411 0 0 1 3.411 3.411v31.497a3.411 3.411 0 0 1-3.411 3.411H83.86a3.411 3.411 0 0 1-3.411-3.411z"/><path fill="none" stroke="#263238" stroke-linecap="round" stroke-linejoin="round" stroke-miterlimit="20" stroke-width=".5" d="M80.45 10.491a3.411 3.411 0 0 1 3.411-3.411h44.019a3.411 3.411 0 0 1 3.411 3.411v31.497a3.411 3.411 0 0 1-3.411 3.411H83.86a3.411 3.411 0 0 1-3.411-3.411z"/></g><g><path fill="none" stroke="#263238" stroke-miterlimit="20" stroke-width=".5" d="M82.81 41.812h47.735"/></g><g><path fill="none" stroke="#263238" stroke-miterlimit="20" stroke-width=".5" d="M82.812 41.81v.707"/></g><g><path fill="none" stroke="#263238" stroke-miterlimit="20" stroke-width=".5" d="M85.992 41.81v.707"/></g><g><path fill="none" stroke="#263238" stroke-miterlimit="20" stroke-width=".5" d="M89.171 41.81v.707"/></g><g><path fill="none" stroke="#263238" stroke-miterlimit="20" stroke-width=".5" d="M92.362 41.81v.707"/></g><g><path fill="none" stroke="#263238" stroke-miterlimit="20" stroke-width=".5" d="M95.542 41.81v.707"/></g><g><path fill="none" stroke="#263238" stroke-miterlimit="20" stroke-width=".5" d="M98.722 41.81v.707"/></g><g><path fill="none" stroke="#263238" stroke-miterlimit="20" stroke-width=".5" d="M101.901 41.81v.707"/></g><g><path fill="none" stroke="#263238" stroke-miterlimit="20" stroke-width=".5" d="M105.081 41.81v.707"/></g><g><path fill="none" stroke="#263238" stroke-miterlimit="20" stroke-width=".5" d="M108.272 41.81v.707"/></g><g><path fill="none" stroke="#263238" stroke-miterlimit="20" stroke-width=".5" d="M111.452 41.81v.707"/></g><g><path fill="none" stroke="#263238" stroke-miterlimit="20" stroke-width=".5" d="M114.631 41.81v.707"/></g><g><path fill="none" stroke="#263238" stroke-miterlimit="20" stroke-width=".5" d="M117.811 41.81v.707"/></g><g><path fill="none" stroke="#263238" stroke-miterlimit="20" stroke-width=".5" d="M121.002 41.81v.707"/></g><g><path fill="none" stroke="#263238" stroke-miterlimit="20" stroke-width=".5" d="M124.182 41.81v.707"/></g><g><path fill="none" stroke="#263238" stroke-miterlimit="20" stroke-width=".5" d="M127.362 41.81v.707"/></g><g><path fill="none" stroke="#263238" stroke-miterlimit="20" stroke-width=".5" d="M130.541 41.81v.707"/></g><g><path fill="#adc7f7" d="M84.4 41.24h44.553v-6.158l-3.153-6.094a.503.503 0 0 1-.042-.135l-2.802-18.074a.339.339 0 0 0-.677 0l-2.852 22.064a.423.423 0 0 1-.148.271l-2.747 2.116a.322.322 0 0 1-.49-.14l-2.768-5.708a.317.317 0 0 0-.554-.072l-2.861 3.703-3.183 4.105-3.182-4.105-2.806-3.619a.322.322 0 0 0-.575.127L97.15 38.76l-3.183-16.466-3.182 18.108-3.182-2.462-2.54-7.152c-.143-.423-.66-.288-.66.152z"/></g><g><path fill="#263238" d="M128.953 41.25H84.4v-5.278l3.148-5.239a.309.309 0 0 0 .043-.118l2.801-15.544a.347.347 0 0 1 .682 0l2.848 18.976a.364.364 0 0 0 .152.232l2.746 1.828a.343.343 0 0 0 .491-.118l2.764-4.909a.343.343 0 0 1 .554-.06l2.865 3.175 3.182 3.529 3.183-3.53 2.801-3.11a.347.347 0 0 1 .58.11l2.962 7.943h3.183l3.182 1.414 3.182-2.116 2.54-6.149a.343.343 0 0 1 .664.131z"/></g><g><path fill="none" stroke="#263238" stroke-linecap="round" stroke-linejoin="round" stroke-miterlimit="20" stroke-width=".5" d="M108.53 12.192h9.86"/></g><g><path fill="none" stroke="#263238" stroke-linecap="round" stroke-linejoin="round" stroke-miterlimit="20" stroke-width=".5" d="M108.53 14.502h9.86"/></g><g><path fill="none" stroke="#263238" stroke-linecap="round" stroke-linejoin="round" stroke-miterlimit="20" stroke-width=".5" d="M108.53 16.801h9.86"/></g><g><path fill="none" stroke="#263238" stroke-linecap="round" stroke-linejoin="round" stroke-miterlimit="20" stroke-width=".5" d="M108.53 19.111h9.86"/></g><g><path fill="none" stroke="#263238" stroke-linecap="round" stroke-linejoin="round" stroke-miterlimit="20" stroke-width=".5" d="M108.53 21.422h9.86"/></g><g><path fill="none" stroke="#263238" stroke-linecap="round" stroke-linejoin="round" stroke-miterlimit="20" stroke-width=".5" d="M108.53 23.732h9.86"/></g><g><path fill="none" stroke="#263238" stroke-linecap="round" stroke-linejoin="round" stroke-miterlimit="20" stroke-width=".5" d="M106.28 12.192h1.236"/></g><g><path fill="none" stroke="#263238" stroke-linecap="round" stroke-linejoin="round" stroke-miterlimit="20" stroke-width=".5" d="M106.28 14.502h1.236"/></g><g><path fill="none" stroke="#263238" stroke-linecap="round" stroke-linejoin="round" stroke-miterlimit="20" stroke-width=".5" d="M106.28 16.801h1.236"/></g><g><path fill="none" stroke="#263238" stroke-linecap="round" stroke-linejoin="round" stroke-miterlimit="20" stroke-width=".5" d="M106.28 19.111h1.236"/></g><g><path fill="none" stroke="#263238" stroke-linecap="round" stroke-linejoin="round" stroke-miterlimit="20" stroke-width=".5" d="M106.28 21.422h1.236"/></g><g><path fill="none" stroke="#263238" stroke-linecap="round" stroke-linejoin="round" stroke-miterlimit="20" stroke-width=".5" d="M106.28 23.732h1.236"/></g></g></g></g></svg>