<svg xmlns="http://www.w3.org/2000/svg" width="142" height="140" viewBox="0 0 142 140"><g><g><g><g opacity=".7"><path fill="#fff" d="M13.493 43.415S4.73 66.05 17.046 88.842c12.317 22.792 37.687 34.832 57.992 45.128 20.305 10.295 41.39 5.281 51.409-11.582 10.019-16.863-3.722-28.9-3.741-52.946-.019-24.046 3.6-30.412-9.431-50.727C100.245-1.6 68.3-6.098 44.145 8.97 19.988 24.037 13.493 43.415 13.493 43.415z"/></g><g><path fill="#adc7f7" d="M63.893 7.021c38.982-3.458 39.06 18.526 56.627 39.023 17.567 20.497 21.33 29.787 14.707 53.415-6.624 23.628-28.941 42.148-56.553 31.654-27.61-10.493-43.427-.418-60.843-9.745C.415 112.04-6.061 94.043 6.699 72.826 19.46 51.609 15.813 11.303 63.893 7.02z"/></g><g opacity=".7"><path fill="#fff" d="M63.893 7.021c38.982-3.458 39.06 18.526 56.627 39.023 17.567 20.497 21.33 29.787 14.707 53.415-6.624 23.628-28.941 42.148-56.553 31.654-27.61-10.493-43.427-.418-60.843-9.745C.415 112.04-6.061 94.043 6.699 72.826 19.46 51.609 15.813 11.303 63.893 7.02z"/></g></g><g><g transform="rotate(-11.89 70.5 14)"><path fill="none" stroke="#263238" stroke-linecap="round" stroke-linejoin="round" stroke-miterlimit="20" stroke-width=".5" d="M65.67 10.939c0-1.054.855-1.909 1.909-1.909h5.937c1.054 0 1.909.855 1.909 1.909v5.937a1.909 1.909 0 0 1-1.909 1.909H67.58a1.909 1.909 0 0 1-1.909-1.909z"/></g><g><path fill="none" stroke="#263238" stroke-linecap="round" stroke-linejoin="round" stroke-miterlimit="20" stroke-width=".5" d="M70.14 11.96l.817 3.892"/></g><g><path fill="none" stroke="#263238" stroke-linecap="round" stroke-linejoin="round" stroke-miterlimit="20" stroke-width=".5" d="M72.492 13.5l-3.892.82"/></g><g transform="rotate(-11.89 135 82.5)"><path fill="none" stroke="#263238" stroke-linecap="round" stroke-linejoin="round" stroke-miterlimit="20" stroke-width=".5" d="M130.32 79.519c0-1.054.855-1.909 1.909-1.909h5.937c1.054 0 1.909.855 1.909 1.909v5.937a1.909 1.909 0 0 1-1.909 1.909h-5.937a1.909 1.909 0 0 1-1.909-1.909z"/></g><g><path fill="none" stroke="#263238" stroke-linecap="round" stroke-linejoin="round" stroke-miterlimit="20" stroke-width=".5" d="M136.292 80.82l-2.172 3.332"/></g><g><path fill="none" stroke="#263238" stroke-linecap="round" stroke-linejoin="round" stroke-miterlimit="20" stroke-width=".5" d="M136.872 83.565l-3.332-2.175"/></g><g transform="rotate(3.434 47.5 123.5)"><path fill="none" stroke="#263238" stroke-linecap="round" stroke-linejoin="round" stroke-miterlimit="20" stroke-width=".5" d="M42.35 120.499c0-1.054.855-1.909 1.909-1.909h5.955c1.054 0 1.908.855 1.908 1.909v5.955a1.909 1.909 0 0 1-1.908 1.908h-5.955a1.909 1.909 0 0 1-1.909-1.908z"/></g><g><path fill="none" stroke="#263238" stroke-linecap="round" stroke-linejoin="round" stroke-miterlimit="20" stroke-width=".5" d="M49.444 123.232l-3.974-.23"/></g><g transform="rotate(18.33 7 77)"><path fill="none" stroke="#263238" stroke-linecap="round" stroke-linejoin="round" stroke-miterlimit="20" stroke-width=".5" d="M2.17 73.799c0-1.054.855-1.909 1.909-1.909h5.937c1.054 0 1.909.855 1.909 1.909v5.937a1.909 1.909 0 0 1-1.909 1.909H4.08a1.909 1.909 0 0 1-1.909-1.909z"/></g><g><path fill="none" stroke="#263238" stroke-linecap="round" stroke-linejoin="round" stroke-miterlimit="20" stroke-width=".5" d="M9.537 75.52l-4.977 2.5"/></g><g><path fill="none" stroke="#263238" stroke-linecap="round" stroke-linejoin="round" stroke-miterlimit="20" stroke-width=".5" d="M6.69 74.503a.695.695 0 1 1-1.25.606.695.695 0 0 1 1.25-.606z"/></g><g><path fill="none" stroke="#263238" stroke-linecap="round" stroke-linejoin="round" stroke-miterlimit="20" stroke-width=".5" d="M8.66 78.423a.695.695 0 1 1-1.25.606.695.695 0 0 1 1.25-.606z"/></g></g><g><g><path fill="#adc7f7" d="M73.156 116.882a5.79 5.79 0 1 1-9.53-6.581 5.79 5.79 0 0 1 9.53 6.58z"/></g><g><g opacity=".3"><path fill-opacity=".7" d="M72.401 116.355a4.873 4.873 0 1 1-8.016-5.543 4.873 4.873 0 0 1 8.016 5.543z"/></g><g><path fill="none" stroke="#263238" stroke-linecap="round" stroke-linejoin="round" stroke-miterlimit="20" stroke-width=".5" d="M72.401 116.355a4.873 4.873 0 1 1-8.016-5.543 4.873 4.873 0 0 1 8.016 5.543z"/></g><g><path fill="#adc7f7" d="M69.644 111.156l.236-.336.585.402-.236.34c.437.456.428 1.025 0 1.64l-.1.146-.676-.469.132-.189c.223-.314.179-.537-.048-.694-.226-.157-.443-.126-.67.2-.226.328-.25.63-.034 1.359.261.874.214 1.37-.144 1.886-.428.629-.969.83-1.547.585l-.23.33-.575-.4.23-.332c-.444-.46-.428-1.035 0-1.654l.213-.314.676.468-.245.355c-.226.315-.163.541.063.701.226.16.453.139.679-.188.226-.327.255-.648.035-1.358-.268-.865-.217-1.368.144-1.887.406-.61.937-.826 1.512-.59z"/><path fill="none" stroke="#263238" stroke-linecap="round" stroke-linejoin="round" stroke-miterlimit="20" stroke-width=".5" d="M69.644 111.156l.236-.336v0l.585.402v0l-.236.34c.437.456.428 1.025 0 1.64l-.1.146v0l-.676-.469v0l.132-.189c.223-.314.179-.537-.048-.694-.226-.157-.443-.126-.67.2-.226.328-.25.63-.034 1.359.261.874.214 1.37-.144 1.886-.428.629-.969.83-1.547.585l-.23.33v0l-.575-.4v0l.23-.332c-.444-.46-.428-1.035 0-1.654l.213-.314v0l.676.468v0l-.245.355c-.226.315-.163.541.063.701.226.16.453.139.679-.188.226-.327.255-.648.035-1.358-.268-.865-.217-1.368.144-1.887.406-.61.937-.826 1.512-.59z"/></g><g opacity=".2"><path fill-opacity=".7" d="M66.78 108.892a7.803 7.803 0 0 1-3.817 6.712 5.788 5.788 0 0 1 3.772-7.564c.03.283.046.567.044.852z"/></g></g><g><path fill="none" stroke="#263238" stroke-linecap="round" stroke-linejoin="round" stroke-miterlimit="20" stroke-width=".5" d="M73.156 116.882a5.79 5.79 0 1 1-9.53-6.581 5.79 5.79 0 0 1 9.53 6.58z"/></g><g><path fill="#adc7f7" d="M60.124 114.508a5.794 5.794 0 1 0 0-11.588 5.794 5.794 0 0 0 0 11.588z"/><path fill="none" stroke="#263238" stroke-linecap="round" stroke-linejoin="round" stroke-miterlimit="20" stroke-width=".5" d="M60.124 114.508a5.794 5.794 0 1 0 0-11.588 5.794 5.794 0 0 0 0 11.588z"/></g><g opacity=".3"><path fill-opacity=".7" d="M60.123 113.586a4.873 4.873 0 1 0 0-9.746 4.873 4.873 0 0 0 0 9.746z"/></g><g><path fill="none" stroke="#263238" stroke-linecap="round" stroke-linejoin="round" stroke-miterlimit="20" stroke-width=".5" d="M60.123 113.586a4.873 4.873 0 1 0 0-9.746 4.873 4.873 0 0 0 0 9.746z"/></g><g><path fill="#adc7f7" d="M59.77 105.999v-.409h.71v.409c.629.129.943.6.943 1.351v.164h-.824v-.23c0-.396-.157-.547-.433-.547-.277 0-.434.151-.434.547 0 .397.157.67.742 1.138.71.57.943 1.003.943 1.635 0 .752-.315 1.236-.943 1.361v.403h-.71v-.403c-.63-.125-.944-.61-.944-1.36v-.378h.82v.434c0 .396.173.537.45.537s.453-.141.453-.537-.157-.68-.745-1.138c-.71-.563-.943-1.003-.943-1.638-.004-.73.305-1.204.914-1.34z"/><path fill="none" stroke="#263238" stroke-linecap="round" stroke-linejoin="round" stroke-miterlimit="20" stroke-width=".5" d="M59.77 105.999v-.409 0h.71v.409c.629.129.943.6.943 1.351v.164h-.824v0-.23c0-.396-.157-.547-.433-.547-.277 0-.434.151-.434.547 0 .397.157.67.742 1.138.71.57.943 1.003.943 1.635 0 .752-.315 1.236-.943 1.361v.403h-.71v0-.403c-.63-.125-.944-.61-.944-1.36v-.378 0h.82v.434c0 .396.173.537.45.537s.453-.141.453-.537-.157-.68-.745-1.138c-.71-.563-.943-1.003-.943-1.638-.004-.73.305-1.204.914-1.34z"/></g><g transform="rotate(-57.35 88 110.5)"><path fill="#adc7f7" d="M87.764 116.248a5.794 5.794 0 1 0 0-11.588 5.794 5.794 0 0 0 0 11.588z"/><path fill="none" stroke="#263238" stroke-linecap="round" stroke-linejoin="round" stroke-miterlimit="20" stroke-width=".5" d="M87.764 116.248a5.794 5.794 0 1 0 0-11.588 5.794 5.794 0 0 0 0 11.588z"/></g><g opacity=".3"><path fill-opacity=".7" d="M91.333 107.139a4.873 4.873 0 1 1-6.885-.255 4.866 4.866 0 0 1 6.885.255z"/></g><g><path fill="none" stroke="#263238" stroke-linecap="round" stroke-linejoin="round" stroke-miterlimit="20" stroke-width=".5" d="M91.333 107.139a4.873 4.873 0 1 1-6.885-.255 4.866 4.866 0 0 1 6.885.255z"/></g><g><path fill="#adc7f7" d="M85.65 108.709l-.28-.315.519-.484.28.314c.54-.314 1.094-.195 1.603.356l.12.125-.601.56-.157-.167c-.27-.289-.488-.292-.689-.103-.201.188-.217.405.05.694.268.29.576.384 1.32.33.91-.069 1.384.082 1.815.547.509.55.6 1.123.236 1.635l.273.296-.522.484-.273-.296c-.544.334-1.104.195-1.613-.355l-.261-.277.604-.56.295.315c.27.29.494.277.698.088.204-.188.233-.412-.038-.7-.27-.29-.578-.39-1.317-.315-.905.072-1.386-.085-1.814-.55-.506-.554-.603-1.11-.248-1.622z"/><path fill="none" stroke="#263238" stroke-linecap="round" stroke-linejoin="round" stroke-miterlimit="20" stroke-width=".5" d="M85.65 108.709l-.28-.315v0l.519-.484v0l.28.314c.54-.314 1.094-.195 1.603.356l.12.125v0l-.601.56v0l-.157-.167c-.27-.289-.488-.292-.689-.103-.201.188-.217.405.05.694.268.29.576.384 1.32.33.91-.069 1.384.082 1.815.547.509.55.6 1.123.236 1.635l.273.296v0l-.522.484v0l-.273-.296c-.544.334-1.104.195-1.613-.355l-.261-.277v0l.604-.56v0l.295.315c.27.29.494.277.698.088.204-.188.233-.412-.038-.7-.27-.29-.578-.39-1.317-.315-.905.072-1.386-.085-1.814-.55-.506-.554-.603-1.11-.248-1.622z"/></g></g><g><g opacity=".2"><path fill-opacity=".7" d="M85.377 85.27s-.025 12.022 0 12.723c.026.7.944 4.923.944 4.923l-2.921 5.382 2.515 2.024 4.888-4.803s4.163 2.568 4.924 6.246c.76 3.678 5.29 6.357 9.99 16.542 4.7 10.186 10.06-22.788 10.06-22.788L101.275 87.26z"/></g><g><path fill="#fff" d="M129.706 20.689l-4.442 43.345-2.732 26.665-38.177-3.91-7.429-.761-4.756-.488 4.216-41.15 2.958-28.86 50.362 5.159z"/></g><g><g><path fill="#263238" d="M115.077 22.323l-21.739-2.23a.743.743 0 0 0-.15 1.478l21.738 2.23a.743.743 0 1 0 .15-1.478z"/></g><g><path fill="#263238" d="M109.328 24.788L98.46 23.672a.371.371 0 1 0-.075.739l10.868 1.116a.374.374 0 0 0 .327-.606.368.368 0 0 0-.252-.133z"/></g><g><path fill="#263238" d="M121.296 56.778L86.01 53.162a.371.371 0 0 0-.41.315.374.374 0 0 0 .334.408l35.285 3.644a.37.37 0 0 0 .406-.333.368.368 0 0 0-.33-.418z"/></g><g><path fill="#263238" d="M121.03 59.435l-41.042-4.203a.368.368 0 0 0-.406.33.371.371 0 0 0 .315.409l41.028 4.203a.371.371 0 0 0 .076-.739z"/></g><g><path fill="#263238" d="M109.262 60.92L79.71 57.892a.371.371 0 0 0-.079.739l29.551 3.027a.371.371 0 0 0 .406-.333.368.368 0 0 0-.327-.405z"/></g><g transform="rotate(-84.15 99.5 68.5)"><path fill="#bfbfbf" d="M93.45 47.94h11.776v41.579H93.45z"/><path fill="none" stroke="#263238" stroke-miterlimit="20" stroke-width=".5" d="M93.45 47.94v0h11.776v41.579H93.45v0z"/></g><g transform="rotate(-39.8 92.5 40.5)"><path fill="#adc7f7" d="M92.328 49.326a9.208 9.208 0 1 0 0-18.416 9.208 9.208 0 0 0 0 18.416z"/></g><g opacity=".5" transform="rotate(-39.8 92.5 40.5)"><path fill="#fff" d="M92.328 49.326a9.208 9.208 0 1 0 0-18.416 9.208 9.208 0 0 0 0 18.416z"/></g><g transform="rotate(-39.8 92.5 40.5)"><path fill="none" stroke="#263238" stroke-miterlimit="20" stroke-width=".5" d="M92.328 49.326a9.208 9.208 0 1 0 0-18.416 9.208 9.208 0 0 0 0 18.416z"/></g><g><path fill="#fff" d="M92.59 40.1l7.658 3.851a8.802 8.802 0 0 0-1.012-9.261z"/></g><g><path fill="#adc7f7" d="M92.65 39.681l6.413-5.218a8.777 8.777 0 0 0-3.58-2.553l-1.167 3.175z"/></g><g><path fill="#757575" d="M93.363 31.4l-.773 7.583 2.61-7.171a8.74 8.74 0 0 0-1.837-.412z"/></g><g><path fill="#999" d="M92.2 40.035l.89-8.664a8.802 8.802 0 0 0-8.819 12.26z"/></g><g><path fill="#bfbfbf" d="M91.431 48.879a8.802 8.802 0 0 0 8.686-4.669l-7.793-3.92-7.944 3.609a8.802 8.802 0 0 0 7.051 4.98z"/></g><g transform="rotate(5.85 106.5 35)"><path fill="#adc7f7" d="M105.78 34.09h1.45v1.45h-1.45z"/><path fill="none" stroke="#263238" stroke-miterlimit="20" stroke-width=".5" d="M105.78 34.09v0h1.45v1.45h-1.45v0z"/></g><g><path fill="#263238" d="M121.704 36.18l-13.537-1.386a.167.167 0 0 1 .035-.314l13.537 1.361a.167.167 0 0 1-.035.33z"/></g><g><path fill="#263238" d="M120.299 36.759l-12.21-1.258a.167.167 0 0 1-.088-.295.163.163 0 0 1 .122-.035l12.21 1.258a.167.167 0 0 1-.034.33z"/></g><g transform="rotate(5.85 106 38)"><path fill="#757575" d="M105.45 37.32h1.45v1.45h-1.45z"/><path fill="none" stroke="#263238" stroke-linecap="round" stroke-linejoin="round" stroke-miterlimit="20" stroke-width=".5" d="M105.45 37.32v0h1.45v1.45h-1.45v0z"/></g><g><path fill="#263238" d="M121.368 39.406l-13.543-1.386a.167.167 0 0 1 .034-.33l13.534 1.386a.17.17 0 0 1 .15.183.167.167 0 0 1-.175.147z"/></g><g><path fill="#263238" d="M119.969 39.991l-12.207-1.257a.167.167 0 0 1 .031-.333l12.21 1.257a.167.167 0 1 1-.034.333z"/></g><g transform="rotate(5.85 106 41)"><path fill="#999" d="M105.12 40.55h1.45V42h-1.45z"/><path fill="none" stroke="#263238" stroke-linecap="round" stroke-linejoin="round" stroke-miterlimit="20" stroke-width=".5" d="M105.12 40.55v0h1.45V42h-1.45v0z"/></g><g><path fill="#263238" d="M121.032 42.643l-13.518-1.39a.167.167 0 1 1 .035-.33l13.533 1.387a.168.168 0 1 1-.034.333z"/></g><g><path fill="#263238" d="M119.639 43.221l-12.21-1.257a.167.167 0 0 1-.148-.183.17.17 0 0 1 .182-.15l12.21 1.257a.168.168 0 1 1-.034.333z"/></g><g transform="rotate(5.85 105.5 44.5)"><path fill="#bfbfbf" d="M104.79 43.78h1.45v1.45h-1.45z"/><path fill="none" stroke="#263238" stroke-miterlimit="20" stroke-width=".5" d="M104.79 43.78v0h1.45v1.45h-1.45v0z"/></g><g><path fill="#263238" d="M120.715 45.87l-13.533-1.386a.167.167 0 0 1-.151-.183.17.17 0 0 1 .182-.15l13.537 1.39a.167.167 0 1 1-.035.33z"/></g><g><path fill="#263238" d="M119.315 46.448l-12.21-1.258a.167.167 0 0 1 .034-.33l12.21 1.257a.167.167 0 1 1-.034.315z"/></g><g transform="rotate(5.85 105 48)"><path fill="#fff" d="M104.46 47.01h1.45v1.45h-1.45z"/><path fill="none" stroke="#263238" stroke-linecap="round" stroke-linejoin="round" stroke-miterlimit="20" stroke-width=".5" d="M104.46 47.01v0h1.45v1.45h-1.45v0z"/></g><g><path fill="#263238" d="M120.384 49.09l-13.537-1.386a.167.167 0 0 1 .035-.314l13.527 1.37a.167.167 0 1 1-.034.315z"/></g><g><path fill="#263238" d="M118.984 49.67l-12.21-1.257a.167.167 0 1 1 .035-.33l12.207 1.258a.167.167 0 1 1-.032.33z"/></g><g transform="rotate(-174.15 115 70.5)"><path fill="#757575" d="M114.582 68.37h.776v4.442h-.776z"/><path fill="none" stroke="#263238" stroke-linecap="round" stroke-linejoin="round" stroke-miterlimit="20" stroke-width=".5" d="M114.582 68.37v0h.776v4.442h-.776v0z"/></g><g transform="rotate(-174.15 115 71.5)"><path fill="#adc7f7" d="M114.532 70.04h.776v2.09h-.776z"/><path fill="none" stroke="#263238" stroke-miterlimit="20" stroke-width=".5" d="M114.532 70.04v0h.776v2.09h-.776v0z"/></g><g transform="rotate(-174.15 117 69.5)"><path fill="#757575" d="M116.442 67.43h.776v4.442h-.776z"/><path fill="none" stroke="#263238" stroke-linecap="round" stroke-linejoin="round" stroke-miterlimit="20" stroke-width=".5" d="M116.442 67.43v0h.776v4.442h-.776v0z"/></g><g transform="rotate(-84.15 116 69.5)"><path fill="#adc7f7" d="M115.78 69.262h2.09v.776h-2.09z"/><path fill="none" stroke="#263238" stroke-miterlimit="20" stroke-width=".5" d="M115.78 69.262v0h2.09v.776h-2.09v0z"/></g><g transform="rotate(-174.15 118.5 70.5)"><path fill="#757575" d="M118.092 68.45h.776v4.442h-.776z"/><path fill="none" stroke="#263238" stroke-linecap="round" stroke-linejoin="round" stroke-miterlimit="20" stroke-width=".5" d="M118.092 68.45v0h.776v4.442h-.776v0z"/></g><g transform="rotate(-174.15 118 70.5)"><path fill="#adc7f7" d="M118.142 69.14h.776v2.09h-.776z"/><path fill="none" stroke="#263238" stroke-miterlimit="20" stroke-width=".5" d="M118.142 69.14v0h.776v2.09h-.776v0z"/></g><g transform="rotate(-174.15 113 69.5)"><path fill="#757575" d="M112.932 67.31h.776v4.442h-.776z"/><path fill="none" stroke="#263238" stroke-linecap="round" stroke-linejoin="round" stroke-miterlimit="20" stroke-width=".5" d="M112.932 67.31v0h.776v4.442h-.776v0z"/></g><g transform="rotate(-174.15 113 70.5)"><path fill="#adc7f7" d="M112.882 68.99h.776v2.09h-.776z"/><path fill="none" stroke="#263238" stroke-miterlimit="20" stroke-width=".5" d="M112.882 68.99v0h.776v2.09h-.776v0z"/></g><g transform="rotate(-174.15 111 70.5)"><path fill="#757575" d="M111.062 68.44h.776v4.442h-.776z"/><path fill="none" stroke="#263238" stroke-linecap="round" stroke-linejoin="round" stroke-miterlimit="20" stroke-width=".5" d="M111.062 68.44v0h.776v4.442h-.776v0z"/></g><g transform="rotate(-174.15 111 71.5)"><path fill="#adc7f7" d="M110.992 70.29h.776v2.09h-.776z"/><path fill="none" stroke="#263238" stroke-miterlimit="20" stroke-width=".5" d="M110.992 70.29v0h.776v2.09h-.776v0z"/></g><g transform="rotate(-174.15 110 69.5)"><path fill="#757575" d="M109.432 67.12h.776v4.442h-.776z"/><path fill="none" stroke="#263238" stroke-linecap="round" stroke-linejoin="round" stroke-miterlimit="20" stroke-width=".5" d="M109.432 67.12v0h.776v4.442h-.776v0z"/></g><g transform="rotate(-174.15 110 70.5)"><path fill="#adc7f7" d="M109.332 69.3h.776v2.09h-.776z"/><path fill="none" stroke="#263238" stroke-miterlimit="20" stroke-width=".5" d="M109.332 69.3v0h.776v2.09h-.776v0z"/></g><g transform="rotate(-174.15 108 71.5)"><path fill="#757575" d="M107.462 69.25h.776v4.442h-.776z"/><path fill="none" stroke="#263238" stroke-linecap="round" stroke-linejoin="round" stroke-miterlimit="20" stroke-width=".5" d="M107.462 69.25v0h.776v4.442h-.776v0z"/></g><g transform="rotate(-174.15 108 72.5)"><path fill="#adc7f7" d="M107.352 71.43h.776v2.09h-.776z"/><path fill="none" stroke="#263238" stroke-miterlimit="20" stroke-width=".5" d="M107.352 71.43v0h.776v2.09h-.776v0z"/></g><g transform="rotate(-174.15 106 68.5)"><path fill="#757575" d="M106.002 66.29h.776v4.442h-.776z"/><path fill="none" stroke="#263238" stroke-linecap="round" stroke-linejoin="round" stroke-miterlimit="20" stroke-width=".5" d="M106.002 66.29v0h.776v4.442h-.776v0z"/></g><g transform="rotate(-174.15 106 69.5)"><path fill="#adc7f7" d="M105.952 67.97h.776v2.09h-.776z"/><path fill="none" stroke="#263238" stroke-miterlimit="20" stroke-width=".5" d="M105.952 67.97v0h.776v2.09h-.776v0z"/></g><g transform="rotate(-174.15 105 68)"><path fill="#757575" d="M104.292 65.86h.776v4.442h-.776z"/><path fill="none" stroke="#263238" stroke-linecap="round" stroke-linejoin="round" stroke-miterlimit="20" stroke-width=".5" d="M104.292 65.86v0h.776v4.442h-.776v0z"/></g><g transform="rotate(-174.15 105 67.5)"><path fill="#adc7f7" d="M104.342 66.53h.776v2.09h-.776z"/><path fill="none" stroke="#263238" stroke-miterlimit="20" stroke-width=".5" d="M104.342 66.53v0h.776v2.09h-.776v0z"/></g><g transform="rotate(-174.15 103 70.5)"><path fill="#757575" d="M102.272 68.45h.776v4.442h-.776z"/><path fill="none" stroke="#263238" stroke-linecap="round" stroke-linejoin="round" stroke-miterlimit="20" stroke-width=".5" d="M102.272 68.45v0h.776v4.442h-.776v0z"/></g><g transform="rotate(-174.15 103 71)"><path fill="#adc7f7" d="M102.332 68.96h.776v2.09h-.776z"/><path fill="none" stroke="#263238" stroke-miterlimit="20" stroke-width=".5" d="M102.332 68.96v0h.776v2.09h-.776v0z"/></g><g transform="rotate(-174.15 101 68.5)"><path fill="#757575" d="M100.722 66.33h.776v4.442h-.776z"/><path fill="none" stroke="#263238" stroke-linecap="round" stroke-linejoin="round" stroke-miterlimit="20" stroke-width=".5" d="M100.722 66.33v0h.776v4.442h-.776v0z"/></g><g transform="rotate(-174.15 101 68.5)"><path fill="#adc7f7" d="M100.692 67.84h.776v2.09h-.776z"/><path fill="none" stroke="#263238" stroke-miterlimit="20" stroke-width=".5" d="M100.692 67.84v0h.776v2.09h-.776v0z"/></g><g transform="rotate(-174.15 99 69.5)"><path fill="#757575" d="M98.862 67.31h.776v4.442h-.776z"/><path fill="none" stroke="#263238" stroke-linecap="round" stroke-linejoin="round" stroke-miterlimit="20" stroke-width=".5" d="M98.862 67.31v0h.776v4.442h-.776v0z"/></g><g transform="rotate(-174.15 99 70.5)"><path fill="#adc7f7" d="M98.822 68.98h.776v2.09h-.776z"/><path fill="none" stroke="#263238" stroke-miterlimit="20" stroke-width=".5" d="M98.822 68.98v0h.776v2.09h-.776v0z"/></g><g transform="rotate(-174.15 97 71.5)"><path fill="#757575" d="M96.922 69.11h.776v4.442h-.776z"/><path fill="none" stroke="#263238" stroke-linecap="round" stroke-linejoin="round" stroke-miterlimit="20" stroke-width=".5" d="M96.922 69.11v0h.776v4.442h-.776v0z"/></g><g transform="rotate(-174.15 97 72.5)"><path fill="#adc7f7" d="M96.812 71.45h.776v2.09h-.776z"/><path fill="none" stroke="#263238" stroke-miterlimit="20" stroke-width=".5" d="M96.812 71.45v0h.776v2.09h-.776v0z"/></g><g transform="rotate(-174.15 96 68.5)"><path fill="#757575" d="M95.472 66.13h.776v4.442h-.776z"/><path fill="none" stroke="#263238" stroke-linecap="round" stroke-linejoin="round" stroke-miterlimit="20" stroke-width=".5" d="M95.472 66.13v0h.776v4.442h-.776v0z"/></g><g transform="rotate(-174.15 96 70)"><path fill="#adc7f7" d="M95.402 67.98h.776v2.09h-.776z"/><path fill="none" stroke="#263238" stroke-miterlimit="20" stroke-width=".5" d="M95.402 67.98v0h.776v2.09h-.776v0z"/></g><g transform="rotate(-174.15 94 66.5)"><path fill="#757575" d="M93.932 64.02h.776v4.442h-.776z"/><path fill="none" stroke="#263238" stroke-linecap="round" stroke-linejoin="round" stroke-miterlimit="20" stroke-width=".5" d="M93.932 64.02v0h.776v4.442h-.776v0z"/></g><g transform="rotate(-174.15 94 66)"><path fill="#adc7f7" d="M93.862 65.86h.776v2.09h-.776z"/><path fill="none" stroke="#263238" stroke-miterlimit="20" stroke-width=".5" d="M93.862 65.86v0h.776v2.09h-.776v0z"/></g><g transform="rotate(-174.15 92 68.5)"><path fill="#757575" d="M91.952 66.17h.776v4.442h-.776z"/><path fill="none" stroke="#263238" stroke-linecap="round" stroke-linejoin="round" stroke-miterlimit="20" stroke-width=".5" d="M91.952 66.17v0h.776v4.442h-.776v0z"/></g><g transform="rotate(-174.15 92 67)"><path fill="#adc7f7" d="M92.002 66.86h.776v2.09h-.776z"/><path fill="none" stroke="#263238" stroke-miterlimit="20" stroke-width=".5" d="M92.002 66.86v0h.776v2.09h-.776v0z"/></g><g transform="rotate(-174.15 90 70.5)"><path fill="#757575" d="M89.962 68.49h.776v4.442h-.776z"/><path fill="none" stroke="#263238" stroke-linecap="round" stroke-linejoin="round" stroke-miterlimit="20" stroke-width=".5" d="M89.962 68.49v0h.776v4.442h-.776v0z"/></g><g transform="rotate(-174.15 90 69.5)"><path fill="#adc7f7" d="M90.042 68.84h.776v2.09h-.776z"/><path fill="none" stroke="#263238" stroke-miterlimit="20" stroke-width=".5" d="M90.042 68.84v0h.776v2.09h-.776v0z"/></g><g transform="rotate(-174.15 89 68)"><path fill="#757575" d="M88.472 65.82h.776v4.442h-.776z"/><path fill="none" stroke="#263238" stroke-linecap="round" stroke-linejoin="round" stroke-miterlimit="20" stroke-width=".5" d="M88.472 65.82v0h.776v4.442h-.776v0z"/></g><g transform="rotate(-174.15 89 68.5)"><path fill="#adc7f7" d="M88.422 67.5h.776v2.09h-.776z"/><path fill="none" stroke="#263238" stroke-miterlimit="20" stroke-width=".5" d="M88.422 67.5v0h.776v2.09h-.776v0z"/></g><g transform="rotate(-174.15 87 67)"><path fill="#757575" d="M86.812 64.91h.776v4.442h-.776z"/><path fill="none" stroke="#263238" stroke-linecap="round" stroke-linejoin="round" stroke-miterlimit="20" stroke-width=".5" d="M86.812 64.91v0h.776v4.442h-.776v0z"/></g><g transform="rotate(-174.15 87 66.5)"><path fill="#adc7f7" d="M86.872 65.42h.776v2.09h-.776z"/><path fill="none" stroke="#263238" stroke-miterlimit="20" stroke-width=".5" d="M86.872 65.42v0h.776v2.09h-.776v0z"/></g><g transform="rotate(-174.15 85 68.5)"><path fill="#757575" d="M84.922 66.11h.776v4.442h-.776z"/><path fill="none" stroke="#263238" stroke-linecap="round" stroke-linejoin="round" stroke-miterlimit="20" stroke-width=".5" d="M84.922 66.11v0h.776v4.442h-.776v0z"/></g><g transform="rotate(-174.15 85 69.5)"><path fill="#adc7f7" d="M84.812 68.45h.776v2.09h-.776z"/><path fill="none" stroke="#263238" stroke-miterlimit="20" stroke-width=".5" d="M84.812 68.45v0h.776v2.09h-.776v0z"/></g><g transform="rotate(-174.15 84 66.5)"><path fill="#757575" d="M83.332 64.55h.776v4.442h-.776z"/><path fill="none" stroke="#263238" stroke-linecap="round" stroke-linejoin="round" stroke-miterlimit="20" stroke-width=".5" d="M83.332 64.55v0h.776v4.442h-.776v0z"/></g><g transform="rotate(-174.15 84 67.5)"><path fill="#adc7f7" d="M83.242 66.56h.776v2.09h-.776z"/><path fill="none" stroke="#263238" stroke-miterlimit="20" stroke-width=".5" d="M83.242 66.56v0h.776v2.09h-.776v0z"/></g><g transform="rotate(-174.15 82 67.5)"><path fill="#757575" d="M81.532 64.96h.776v4.442h-.776z"/><path fill="none" stroke="#263238" stroke-linecap="round" stroke-linejoin="round" stroke-miterlimit="20" stroke-width=".5" d="M81.532 64.96v0h.776v4.442h-.776v0z"/></g><g transform="rotate(-174.15 82 68.5)"><path fill="#adc7f7" d="M81.422 67.14h.776v2.09h-.776z"/><path fill="none" stroke="#263238" stroke-miterlimit="20" stroke-width=".5" d="M81.422 67.14v0h.776v2.09h-.776v0z"/></g><g transform="rotate(-174.15 80 66.5)"><path fill="#757575" d="M79.842 64.22h.776v4.442h-.776z"/><path fill="none" stroke="#263238" stroke-linecap="round" stroke-linejoin="round" stroke-miterlimit="20" stroke-width=".5" d="M79.842 64.22v0h.776v4.442h-.776v0z"/></g><g transform="rotate(-174.15 80 65.5)"><path fill="#adc7f7" d="M79.952 64.4h.776v2.09h-.776z"/><path fill="none" stroke="#263238" stroke-miterlimit="20" stroke-width=".5" d="M79.952 64.4v0h.776v2.09h-.776v0z"/></g><g><path fill="#263238" d="M119.103 78.18L83.82 74.562a.374.374 0 0 0-.328.605.368.368 0 0 0 .25.134l35.284 3.609a.374.374 0 0 0 .409-.334.371.371 0 0 0-.333-.396z"/></g><g><path fill="#263238" d="M118.833 80.838L77.8 76.632a.374.374 0 0 0-.327.606.368.368 0 0 0 .251.133l41.029 4.206a.374.374 0 0 0 .326-.604.368.368 0 0 0-.247-.135z"/></g><g><path fill="#263238" d="M101.325 81.741l-23.795-2.44a.371.371 0 1 0-.075.739l23.795 2.44a.371.371 0 0 0 .075-.739z"/></g><g opacity=".2"><path fill-opacity=".7" d="M122.991 58c-1.216-.098-1.638 1.841-1.638 1.841s-1.924-2.515-1.619-8.45c0 0-.943-2.628-3.458-1.04-2.515 1.587-5.127 7.18-4.505 13.279l-4.885-16.25c-1.691.358-5.127 2.631-4.222 13.606l-5.344-5.659s-1.446-.465-2.264.814c-.817 1.28-.427 10.444.249 13.87.675 3.427-1.047 10.312-1.047 10.312s-1.842-7.797-5.175-9.771L76.392 44.39 72.17 85.541l4.756.487 7.64-3.719c-.044 1.72-.085 3.301-.211 4.48l38.177 3.911 2.732-26.665c-.927-3.323-1.814-6.001-2.273-6.036z"/></g></g><g><path fill="none" stroke="#263238" stroke-linecap="round" stroke-linejoin="round" stroke-miterlimit="20" stroke-width=".5" d="M129.706 20.689v0l-4.442 43.345v0L122.532 90.7v0l-38.177-3.91v0l-7.429-.761v0l-4.756-.488v0l4.216-41.15v0l2.958-28.86v0l50.362 5.159v0z"/></g><g><path fill="#fff" d="M129.078 132.282l-22.32 3.797s-3.886-20.638-6.203-23.892c-2.317-3.254-1.886-4.59-3.018-6.781-.679-1.324-4.086-3.791-6.755-6.228-.233-.21-.46-.421-.676-.628-.095-.085-.183-.177-.27-.261a19.328 19.328 0 0 1-.978-1.032c-.107-.119-.212-.238-.315-.358a5.093 5.093 0 0 1-1.081-1.914.488.488 0 0 1-.02-.098.811.811 0 0 1-.018-.116 92.427 92.427 0 0 1-.185-1.648c0-.119-.026-.245-.041-.37l-.02-.151a83.113 83.113 0 0 0-.182-1.588c-.069-.55-.144-1.173-.232-1.773-.028-.207-.057-.415-.091-.629-.035-.232-.073-.465-.11-.7l-.11-.608c0-.034-.016-.066-.02-.094l-.131-.698a.314.314 0 0 1-.016-.078c-.044-.205-.085-.406-.132-.61-.097-.456-.208-.902-.314-1.336a16.577 16.577 0 0 0-.833-2.39c-1.61-3.593.484-2.294-.777-11.54 0 0 .927-2.144 3.571-.43a7.432 7.432 0 0 1 1.996 1.933 8.683 8.683 0 0 1 1.214 2.515 10.88 10.88 0 0 1 .358 4.495s1.987 6.81 3.034 8.36c1.047 1.55 5.376-7.354 5.096-8.391a14.02 14.02 0 0 1-.223-1.409l-.06-.49c-.022-.176-.04-.352-.06-.538 0-.088-.022-.182-.034-.273v-.11c-.038-.355-.082-.733-.123-1.123 0-.11-.022-.213-.034-.314-.02-.185-.038-.377-.057-.566a.798.798 0 0 1 0-.094c0-.107-.025-.217-.035-.314-.025-.22-.047-.444-.069-.667l-.056-.575c-.038-.362-.073-.723-.107-1.072l-.073-.77c0-.057 0-.114-.015-.167a221.936 221.936 0 0 1-.274-3.005s-3.143-4.66-3.458-6.854c-.314-2.194-.295-4.505 1.022-5.445 3.118-2.22 2.2 1.358 3.603 2.83 1.402 1.47 3.536 3.907 4.75 4.665 1.119.71 2.119 3.458 2.26 3.873-.16-.604-1.76-6.539-1.795-7.734-.04-1.257-1.003-7.91.629-10.295 1.631-2.386 3.807-.535 4.008-.063.201.471.26 6.916.836 8.708.575 1.792 2.984 9.265 2.984 9.265s.1-7.269.628-10.522c.528-3.254 1.956-5.797 3.339-5.942 1.383-.145 2.663 1.38 2.663 1.38s-.547 5.187-.39 6.385c.157 1.198-.227 5.523.43 7.86 0 0-.075-6.197.887-6.99.962-.792 1.789-1.172 2.33-.628.54.544.657 4.203 1.207 6.41s.48 5.206.842 8.648c.362 3.443 1.786 8.221 1.503 10.953-.283 2.732-1.154 9.507-1.855 13.483-.7 3.977-2.49 9.432-2.49 9.432s.815 2.907.657 5.501c-.157 2.594 6.21 19.809 6.21 19.809z"/></g><g opacity=".4"><path fill="#adc7f7" d="M110.108 57.219c.428 1.326 1.858 5.765 2.569 7.982 0 0-3.119 2.291-3.043 4.423.075 2.131-.57 6.435-1.971 6.31-1.403-.126-1.258-9.07-1.733-10.576.286.647.469 1.172.507 1.276-.104-.386-1.77-6.545-1.805-7.765 0-.286-.066-.858-.132-1.597 0 0 3.103-2.97 5.379-1.153.051.371.128.739.23 1.1z"/></g><g opacity=".4"><path fill="#adc7f7" d="M119.377 59.773c-1.452 1.377-3.643 3.81-3.92 6.159 0 0 .808 6.558.462 9.43l-2.829-8.868s.1-7.268.629-10.522c0-.088.031-.179.047-.267a12.93 12.93 0 0 1 5.696-1.405 25.055 25.055 0 0 0-.122 3.48c.047.663.06 1.329.037 1.993z"/></g><g opacity=".4"><path fill="#adc7f7" d="M120.667 58.634c-.035.022-.12.09-.242.195.072-.142.154-.278.245-.409z"/></g><g opacity=".4"><path fill="#adc7f7" d="M121.397 76.762s-1.867-7.004-1.886-12.644c-.016-2.087.226-3.99.902-5.275a3.7 3.7 0 0 1 .245-.409v.202a5.234 5.234 0 0 1 1.113-.736c-.525.817-1.129 2.418-.43 5.03 1.096 4.058.14 9.035.056 13.832z"/></g><g opacity=".4"><path fill="#adc7f7" d="M95.645 90.115s.5 6.674-4.863 9.064c-.233-.211-.46-.422-.676-.63-.094-.084-.182-.175-.27-.26a19.324 19.324 0 0 1-.978-1.031c-.11-.123-.208-.242-.314-.359a5.093 5.093 0 0 1-1.082-1.914.488.488 0 0 1-.019-.098.811.811 0 0 1-.019-.116 92.417 92.417 0 0 1-.185-1.647c0-.12-.025-.245-.04-.371l-.02-.151a83.105 83.105 0 0 0-.182-1.588c-.07-.55-.145-1.172-.233-1.773-.031-.207-.06-.418-.09-.628l-.111-.701-.11-.61c0-.035-.016-.066-.019-.095l-.132-.698a.314.314 0 0 1-.016-.078c-.044-.204-.084-.406-.132-.61-.1-.453-.21-.9-.314-1.336 2.122-2.04 7.02-.76 4.65-5.492 0 0 1.194-4.05-2.097-8.438 2.25 1.814 3.404 5.005 2.977 8.488 0 0 1.987 6.81 3.033 8.36 1.047 1.55 5.376-7.354 5.096-8.391a14.017 14.017 0 0 1-.223-1.409c-.019-.154-.037-.314-.06-.49-.022-.176-.04-.352-.06-.538 0-.088-.021-.182-.034-.273v-.11A150.09 150.09 0 0 0 99 75.07c0-.11-.022-.214-.035-.315l-.057-.566a.798.798 0 0 1 0-.094c0-.107-.025-.217-.034-.314-.025-.22-.047-.444-.07-.667l-.056-.575c-.038-.362-.072-.723-.107-1.072-.025-.261-.047-.522-.072-.77 0-.057 0-.114-.016-.167.085.412 1.679 8 2.59 9.768.915 1.81-3.058 11.39-5.498 9.817z"/></g><g opacity=".4"><path fill="#adc7f7" d="M124.69 97.493c-.701 3.98-2.49 9.431-2.49 9.431s.814 2.908.657 5.502c-.044.698.39 2.461 1.037 4.662-.188-.484-2.2-5.678-2.16-7.489.041-1.901-.5-2.426-1.571-4.762-1.072-2.336-2.676-2.078-2.676-2.078s-.628 5.825-2.087 1.996-1.745-8.284 1.943-23.75c0 0 .556 1.939.091 7.701-.465 5.763.912 7.508.912 7.508a53.83 53.83 0 0 0 4.9-11.428s-.477 6.725-.902 9.787c-.424 3.062 1.513-3.55 2.864-7.633 1.258-3.833 1.318-5.291.833-8.02.359 1.92.63 3.772.49 5.096-.27 2.72-1.14 9.5-1.841 13.477z"/></g><g opacity=".4"><path fill="#adc7f7" d="M99.47 110.46c1.088 1.729 3.75 4.015 5.344 10.337 1.594 6.322.588 13.24.588 13.24z"/></g><g opacity=".2"><path fill-opacity=".7" d="M91.014 74.56s-5.567 2.83-6.008 7.545c-1.61-3.593.485-2.295-.776-11.54 0 0 .927-2.144 3.571-.431a7.432 7.432 0 0 1 1.996 1.933z"/></g><g><path fill="none" stroke="#263238" stroke-linecap="round" stroke-linejoin="round" stroke-miterlimit="20" stroke-width=".5" d="M106.761 136.075v0s-3.886-20.639-6.203-23.893c-2.316-3.253-1.886-4.59-3.018-6.78-1.131-2.192-9.723-7.524-10.103-10.639-.38-3.115-.818-9.076-2.427-12.672-1.61-3.597.484-2.295-.78-11.54 0 0 .943-2.145 3.574-.432 2.632 1.714 4.034 5.14 3.572 8.935 0 0 1.986 6.803 3.036 8.356s5.37-7.353 5.09-8.394c-.28-1.04-1.11-9.89-1.238-11.506 0 0-3.144-4.662-3.459-6.856-.314-2.195-.295-4.505 1.022-5.442 3.119-2.22 2.2 1.358 3.603 2.83 1.402 1.47 3.537 3.904 4.747 4.665 1.21.76 2.266 3.939 2.266 3.939v0s-1.776-6.52-1.81-7.781c-.035-1.26-1.003-7.91.628-10.293 1.632-2.383 3.81-.537 4.012-.066.201.472.26 6.917.84 8.708l2.976 9.265v0s.104-7.268.648-10.522c.544-3.254 1.955-5.797 3.339-5.942 1.383-.144 2.662 1.38 2.662 1.38v0s-.547 5.188-.393 6.385c.154 1.198-.223 5.52.434 7.86 0 0-.075-6.197.887-6.989.962-.792 1.788-1.172 2.33-.629.54.544.656 4.204 1.206 6.41.55 2.207.481 5.206.843 8.649.361 3.442 1.785 8.22 1.503 10.95-.283 2.728-1.154 9.51-1.858 13.489-.705 3.98-2.484 9.431-2.484 9.431v0s.811 2.908.654 5.502c-.157 2.593 6.218 19.858 6.218 19.858v0"/></g><g><path fill="none" stroke="#263238" stroke-linecap="round" stroke-linejoin="round" stroke-miterlimit="20" stroke-width=".5" d="M113.09 66.47c.65 1.528 2.257 7.979 2.83 8.872.29.495.716.898 1.225 1.163"/></g><g><path fill="none" stroke="#263238" stroke-linecap="round" stroke-linejoin="round" stroke-miterlimit="20" stroke-width=".5" d="M119.77 65.63v0s-.138 1.323.576 5.536c.714 4.213 1.063 6.008 1.462 6.948"/></g><g><path fill="none" stroke="#263238" stroke-linecap="round" stroke-linejoin="round" stroke-miterlimit="20" stroke-width=".5" d="M106.44 66.65c.87 2.568 1.364 6.662 1.861 7.894.497 1.232.943 1.487.943 1.487v0"/></g><g><path fill="none" stroke="#263238" stroke-linecap="round" stroke-linejoin="round" stroke-miterlimit="20" stroke-width=".5" d="M107.85 72.8c.524.398.94.923 1.207 1.525"/></g><g><path fill="none" stroke="#263238" stroke-linecap="round" stroke-linejoin="round" stroke-miterlimit="20" stroke-width=".5" d="M94.41 87.41s.475 3.405 2.61 3.144"/></g><g><path fill="none" stroke="#263238" stroke-linecap="round" stroke-linejoin="round" stroke-miterlimit="20" stroke-width=".5" d="M99.502 79.02s.553 4.05-.352 5.766"/></g><g><path fill="none" stroke="#263238" stroke-linecap="round" stroke-linejoin="round" stroke-miterlimit="20" stroke-width=".5" d="M116.553 79.06v0s1.434.877.475 3.458C116.07 85.1 114.4 95.48 114.4 95.48v0"/></g><g><path fill="none" stroke="#263238" stroke-linecap="round" stroke-linejoin="round" stroke-miterlimit="20" stroke-width=".5" d="M122.794 81.77c.6 2.326.654 2.386-.314 5.244-.969 2.857-2.55 9.858-2.55 9.858v0"/></g><g><path fill="none" stroke="#263238" stroke-linecap="round" stroke-linejoin="round" stroke-miterlimit="20" stroke-width=".5" d="M122.202 106.918s-.943-1.886-.163-3.458"/></g><g><path fill="none" stroke="#263238" stroke-linecap="round" stroke-linejoin="round" stroke-miterlimit="20" stroke-width=".5" d="M100.55 112.19s2.37 3.33 3.401 7.054"/></g><g><path fill="#757575" d="M118 53.827l.641-.632.29-.085-.02.314-.587.752-.324-.35z"/><path fill="none" stroke="#263238" stroke-linecap="round" stroke-linejoin="round" stroke-miterlimit="20" stroke-width=".5" d="M118 53.827v0l.641-.632v0l.29-.085v0l-.02.314v0l-.587.752v0l-.324-.35v0z"/></g><g><path fill="#adc7f7" d="M118.517 54.183l-1.043 2.364-28.042 37.391-3.122-1.993 4.228-5.32 25.188-31.593 2.222-1.412a.795.795 0 0 1 .57.563z"/></g><g opacity=".3"><path fill-opacity=".7" d="M118.517 54.179l-1.043 2.364-28.042 37.391-3.122-1.993 4.228-5.319c1.95-.201 2.276.943 2.276.943l24.16-31.531c-.24-.849-1.258-1.012-1.258-1.012l2.223-1.412c.282.07.504.288.578.569z"/></g><g><path fill="none" stroke="#263238" stroke-linecap="round" stroke-linejoin="round" stroke-miterlimit="20" stroke-width=".5" d="M118.517 54.183v0l-1.043 2.364v0L89.432 93.938v0l-3.122-1.993v0l4.228-5.32v0l25.188-31.593v0l2.222-1.412a.795.795 0 0 1 .57.563z"/></g><g><path fill="#adc7f7" d="M98.582 82.864s-3.144 6.212-6.143 10.606l-2.15.557s-4.936 4.904-7.948 7.353a6.753 6.753 0 0 1-1.471-1.235s4.275-8.212 9.007-13.408a5.973 5.973 0 0 1 1.55.823c.613.436 1.16.959 1.622 1.553l5.272-6.633z"/></g><g opacity=".3"><path fill-opacity=".7" d="M98.58 82.866s-3.143 6.212-6.142 10.607l-2.15.556s-4.936 4.905-7.948 7.354l.082-1.333c3.266-4.99 7.416-10.431 9.003-12.487.614.435 1.16.958 1.622 1.553l-2.93 3.91 1.68-.314 6.522-10.242z"/></g><g><path fill="none" stroke="#263238" stroke-linecap="round" stroke-linejoin="round" stroke-miterlimit="20" stroke-width=".5" d="M98.582 82.864v0s-3.144 6.212-6.143 10.606l-2.15.557v0s-4.936 4.904-7.948 7.353a6.753 6.753 0 0 1-1.471-1.235s4.275-8.212 9.007-13.408a5.973 5.973 0 0 1 1.55.823c.613.436 1.16.959 1.622 1.553l5.272-6.633v0z"/></g><g><path fill="#fff" d="M109.24 76.02l-8.76 8.489-1.398 1.358c.959-2.465.493-6.287.434-6.737v-.04-.067a14.02 14.02 0 0 1-.224-1.408c-.018-.154-.037-.315-.06-.49-.021-.177-.04-.353-.059-.538 0-.088-.022-.183-.035-.274v-.11c-.037-.355-.081-.732-.122-1.122 0-.11-.022-.214-.035-.314l-.056-.566a.798.798 0 0 1 0-.095c0-.107-.026-.217-.035-.314-.025-.22-.047-.443-.07-.667l-.056-.575-.107-1.072c-.025-.26-.05-.519-.072-.77 0-.057 0-.113-.016-.167a221.954 221.954 0 0 1-.273-3.005s-3.144-4.659-3.458-6.853c-.315-2.195-.296-4.505 1.022-5.445 3.118-2.22 2.2 1.358 3.602 2.83 1.402 1.47 3.537 3.907 4.75 4.664 1.214.758 2.23 3.914 2.23 3.914.87 2.566 1.364 6.659 1.86 7.891.497 1.232.937 1.484.937 1.484z"/></g><g><path fill="none" stroke="#263238" stroke-linecap="round" stroke-linejoin="round" stroke-miterlimit="20" stroke-width=".5" d="M107.85 72.8c.524.398.94.923 1.207 1.525"/></g><g opacity=".4"><path fill="#adc7f7" d="M99.41 58.055c1.39 1.484 3.524 3.892 4.737 4.659-.17-.085-2.405-1.173-3.653.038-1.298 1.257-2.238 4.762-2.238 4.762s-3.144-4.659-3.458-6.853c-.315-2.194-.296-4.505 1.022-5.445 3.106-2.22 2.194 1.37 3.59 2.839z"/></g><g opacity=".4"><path fill="#adc7f7" d="M100.481 84.517l-1.399 1.359c.96-2.465.494-6.288.434-6.737a.475.475 0 0 0 0-.107 14.017 14.017 0 0 1-.223-1.409l-.06-.49c-.022-.176-.04-.352-.06-.538 0-.088-.021-.182-.034-.273v-.11a149.55 149.55 0 0 0-.123-1.122c0-.11-.022-.214-.034-.315l-.057-.566a.793.793 0 0 1 0-.094c0-.107-.025-.217-.034-.314-.025-.22-.048-.444-.07-.667l-.056-.575c-.038-.362-.072-.723-.107-1.072-.025-.261-.047-.522-.072-.77 0-.057 0-.114-.016-.167.085.412 1.679 8 2.59 9.768.308.64-.012 2.364-.679 4.2z"/></g><g><path fill="none" stroke="#263238" stroke-linecap="round" stroke-linejoin="round" stroke-miterlimit="20" stroke-width=".5" d="M109.237 76.017v0s-.443-.255-.943-1.487c-.5-1.232-.99-5.326-1.861-7.894 0 0-1.066-3.144-2.28-3.917-1.213-.773-3.35-3.181-4.747-4.665-1.395-1.484-.484-5.062-3.602-2.83-1.318.943-1.346 3.251-1.022 5.442.324 2.191 3.458 6.857 3.458 6.857.129 1.615.959 10.468 1.239 11.506"/></g><g><path fill="none" stroke="#263238" stroke-linecap="round" stroke-linejoin="round" stroke-miterlimit="20" stroke-width=".5" d="M99.502 79.02s.553 4.05-.352 5.766"/></g></g><g><g opacity=".2"><path fill-opacity=".7" d="M45.73 83.975s1.99 9.243-2.32 15.964-7.63 8.516-9.117 10.522c-1.487 2.006-7.331 13.22-7.331 13.22l-6.822-20.205 6.822-24.996z"/></g><g><path fill="#fff" d="M85.942 76.907L43.64 94.71l-4.36 1.836-8.218-19.525L11.98 31.679 58.642 12.04l27.3 64.867z"/></g><g><g><path fill="#263238" d="M46.588 20.483l-20.142 8.488a.743.743 0 0 0 .575 1.371l20.139-8.491a.742.742 0 1 0-.576-1.368z"/></g><g><path fill="#263238" d="M42.737 25.417l-10.06 4.238a.372.372 0 1 0 .29.685l10.06-4.24a.371.371 0 1 0-.29-.683z"/></g><g><path fill="#bfbfbf" d="M59.3 51.24s.424 3.335-.818 3.857c-1.135.478-2.628-1.31-3.933-.764-1.305.547-.277 5.282-1.534 5.81-1.258.528-2.773-1.415-3.86-.943-1.088.471-.428 2.892-1.547 3.364-.925.386-2.245-1.547-3.301-1.971a.802.802 0 0 0-.629-.032c-1.107.465-.556 5.549-1.512 5.948a1.798 1.798 0 0 1-.849.141 5.992 5.992 0 0 0-1.078-.103c-.139.014-.274.049-.403.103-.814.343-.704 3.018-1.449 3.333-.745.314-1.48-.076-2.276.258-.795.333-.783 1.726-1.971 2.225l.503 1.192L63.6 61.473"/><path fill="none" stroke="#263238" stroke-miterlimit="20" stroke-width=".5" d="M59.3 51.24v0s.424 3.335-.818 3.857c-1.135.478-2.628-1.31-3.933-.764-1.305.547-.277 5.282-1.534 5.81-1.258.528-2.773-1.415-3.86-.943-1.088.471-.428 2.892-1.547 3.364-.925.386-2.245-1.547-3.301-1.971a.802.802 0 0 0-.629-.032c-1.107.465-.556 5.549-1.512 5.948a1.798 1.798 0 0 1-.849.141 5.992 5.992 0 0 0-1.078-.103c-.139.014-.274.049-.403.103-.814.343-.704 3.018-1.449 3.333-.745.314-1.48-.076-2.276.258-.795.333-.783 1.726-1.971 2.225l.503 1.192v0L63.6 61.473v0"/></g><g><path fill="none" stroke="#263238" stroke-linecap="round" stroke-linejoin="round" stroke-miterlimit="20" stroke-width=".5" d="M28.78 59.71v0l5.863 13.93v0l30.318-12.757v0"/></g><g><path fill="#757575" d="M61.629 56.77s-.145-.175-.359-.386c-.374-.362-.968-.82-1.42-.629-.453.192-.482.918-.472 1.704 0 .943.094 1.98-.387 2.182-.409.173-.773-.085-1.15-.368-.431-.314-.871-.673-1.403-.45-.892.378-.628 1.54-.943 2.537a1.927 1.927 0 0 1-1.179 1.258c-.77.314-1.553 0-2.291-.497-1.258-.849-2.364-2.226-3.088-1.92-1.153.487.117 3.605-1.122 4.127-.691.292-2.125-1.886-3.518-3.772-1.1-1.487-2.175-2.783-2.829-2.515-1.493.628.968 8.088-.116 8.544l-.035.016a1.157 1.157 0 0 1-1.078-.104c-.39-.22-.71-.537-1.141-.355-.802.34-.334 3.263-1.214 3.634-.88.371-1.411-.167-2.405.252-.84.355-1.339 2.389-1.339 2.389l.503 1.191L63.6 61.423"/><path fill="none" stroke="#263238" stroke-linecap="round" stroke-linejoin="round" stroke-miterlimit="20" stroke-width=".5" d="M61.629 56.77v0s-.145-.175-.359-.386c-.374-.362-.968-.82-1.42-.629-.453.192-.482.918-.472 1.704 0 .943.094 1.98-.387 2.182-.409.173-.773-.085-1.15-.368-.431-.314-.871-.673-1.403-.45-.892.378-.628 1.54-.943 2.537a1.927 1.927 0 0 1-1.179 1.258c-.77.314-1.553 0-2.291-.497-1.258-.849-2.364-2.226-3.088-1.92-1.153.487.117 3.605-1.122 4.127-.691.292-2.125-1.886-3.518-3.772-1.1-1.487-2.175-2.783-2.829-2.515-1.493.628.968 8.088-.116 8.544l-.035.016a1.157 1.157 0 0 1-1.078-.104c-.39-.22-.71-.537-1.141-.355-.802.34-.334 3.263-1.214 3.634-.88.371-1.411-.167-2.405.252-.84.355-1.339 2.389-1.339 2.389v0l.503 1.191v0L63.6 61.423v0"/></g><g><path fill="#263238" d="M55.497 66.71l-10.06 4.237a.372.372 0 1 0 .29.685l10.06-4.237a.372.372 0 0 0-.29-.686z"/></g><g transform="rotate(-22.82 63.5 50.5)"><path fill="#bfbfbf" d="M62.55 50.18H64v1.45h-1.45z"/><path fill="none" stroke="#263238" stroke-miterlimit="20" stroke-width=".5" d="M62.55 50.18v0H64v1.45h-1.45v0z"/></g><g><path fill="#263238" d="M68.747 48.38l-4.024 1.695a.173.173 0 0 1-.22-.09.167.167 0 0 1 .088-.218l4.027-1.694a.167.167 0 0 1 .129.308z"/></g><g><path fill="#263238" d="M67.799 49.57L65 50.748a.167.167 0 0 1-.13-.308l2.799-1.176a.167.167 0 0 1 .129.308z"/></g><g transform="rotate(-22.82 64.5 54)"><path fill="#757575" d="M63.81 53.17h1.45v1.45h-1.45z"/><path fill="none" stroke="#263238" stroke-linecap="round" stroke-linejoin="round" stroke-miterlimit="20" stroke-width=".5" d="M63.81 53.17v0h1.45v1.45h-1.45v0z"/></g><g><path fill="#263238" d="M69.998 51.37l-4.024 1.691a.17.17 0 1 1-.129-.314l4.024-1.694a.17.17 0 0 1 .13.314z"/></g><g><path fill="#263238" d="M69.051 52.554l-2.794 1.179a.17.17 0 1 1-.132-.315l2.797-1.175a.17.17 0 0 1 .13.314z"/></g><g><path fill="#263238" d="M75.292 63.707L42.597 77.464a.372.372 0 0 0 .29.685L75.58 64.39a.371.371 0 1 0-.289-.682z"/></g><g><path fill="#263238" d="M76.33 66.17l-38.016 16a.37.37 0 1 0 .289.681l38.014-15.998a.371.371 0 1 0-.286-.682z"/></g><g><path fill="#263238" d="M77.367 68.637L39.354 84.636a.371.371 0 1 0 .289.682L77.65 69.319a.371.371 0 1 0-.289-.682z"/></g><g><path fill="#263238" d="M78.408 71.093L40.394 87.08a.37.37 0 1 0 .286.682l38.014-15.998a.37.37 0 1 0-.286-.682z"/></g><g><path fill="#263238" d="M63.47 80.28l-22.046 9.28a.371.371 0 1 0 .289.682l22.047-9.277a.372.372 0 0 0-.29-.686z"/></g><g><path fill="#bfbfbf" d="M51.33 32.29s.424 3.339-.818 3.86c-1.135.478-2.632-1.31-3.933-.763-1.302.547-.277 5.278-1.534 5.81-1.258.53-2.776-1.416-3.86-.96-1.085.456-.428 2.893-1.547 3.36-.925.39-2.245-1.543-3.301-1.967a.802.802 0 0 0-.629-.031c-1.107.465-.556 5.545-1.512 5.947a1.754 1.754 0 0 1-.849.139 6.344 6.344 0 0 0-1.078-.1 1.358 1.358 0 0 0-.403.103c-.814.343-.704 3.018-1.449 3.33-.745.31-1.48-.073-2.276.26-.795.333-.783 1.726-1.971 2.226l.503 1.191 28.97-12.185"/><path fill="none" stroke="#263238" stroke-miterlimit="20" stroke-width=".5" d="M51.33 32.29v0s.424 3.339-.818 3.86c-1.135.478-2.632-1.31-3.933-.763-1.302.547-.277 5.278-1.534 5.81-1.258.53-2.776-1.416-3.86-.96-1.085.456-.428 2.893-1.547 3.36-.925.39-2.245-1.543-3.301-1.967a.802.802 0 0 0-.629-.031c-1.107.465-.556 5.545-1.512 5.947a1.754 1.754 0 0 1-.849.139 6.344 6.344 0 0 0-1.078-.1 1.358 1.358 0 0 0-.403.103c-.814.343-.704 3.018-1.449 3.33-.745.31-1.48-.073-2.276.26-.795.333-.783 1.726-1.971 2.226l.503 1.191v0l28.97-12.185v0"/></g><g><path fill="#adc7f7" d="M53.198 36.73s.264 1.616-.374 1.886c-.532.223-.859-.088-1.418-.107a1.842 1.842 0 0 0-.796.154c-.512.214-.628.906-.726 1.648-.113.915-.17 1.908-.84 2.2-.468.198-.974.082-1.496-.1-.833-.29-1.707-.749-2.552-.393-.409.173-.695.628-.918 1.166-.525 1.298-.689 3.178-1.258 3.417-.808.343-2.288-1.047-3.005-.745-.717.302-.425 1.547-1.006 1.792-.582.245-.915-.478-1.94-.047-1.025.43-.525 1.946-1.97 2.556-1.447.61-2.082-.513-3.478.075-1.396.588-1.144 1.65-2.131 2.066-.987.415-1.402-.315-2.107 0-.704.314-.874 1.411-.883 1.48l.387.918L55.64 42.502"/><path fill="none" stroke="#263238" stroke-miterlimit="20" stroke-width=".5" d="M53.198 36.73v0s.264 1.616-.374 1.886c-.532.223-.859-.088-1.418-.107a1.842 1.842 0 0 0-.796.154c-.512.214-.628.906-.726 1.648-.113.915-.17 1.908-.84 2.2-.468.198-.974.082-1.496-.1-.833-.29-1.707-.749-2.552-.393-.409.173-.695.628-.918 1.166-.525 1.298-.689 3.178-1.258 3.417-.808.343-2.288-1.047-3.005-.745-.717.302-.425 1.547-1.006 1.792-.582.245-.915-.478-1.94-.047-1.025.43-.525 1.946-1.97 2.556-1.447.61-2.082-.513-3.478.075-1.396.588-1.144 1.65-2.131 2.066-.987.415-1.402-.315-2.107 0-.704.314-.874 1.411-.883 1.48l.387.918v0L55.64 42.502v0"/></g><g><path fill="none" stroke="#263238" stroke-linecap="round" stroke-linejoin="round" stroke-miterlimit="20" stroke-width=".5" d="M20.81 40.76v0l5.863 13.93v0l30.315-12.76v0"/></g><g><path fill="#263238" d="M47.438 47.55l-10.06 4.237a.371.371 0 1 0 .286.685l10.06-4.237a.372.372 0 0 0-.289-.686z"/></g><g transform="rotate(-22.82 54.5 30.5)"><path fill="#bfbfbf" d="M54.07 30.02h1.45v1.45h-1.45z"/><path fill="none" stroke="#263238" stroke-miterlimit="20" stroke-width=".5" d="M54.07 30.02v0h1.45v1.45h-1.45v0z"/></g><g><path fill="#263238" d="M60.266 28.23l-4.024 1.695a.173.173 0 0 1-.22-.091.167.167 0 0 1 .091-.217l4.024-1.695a.167.167 0 0 1 .217.091.163.163 0 0 1-.088.217z"/></g><g><path fill="#263238" d="M59.312 29.41l-2.798 1.176a.17.17 0 1 1-.129-.314l2.798-1.18a.167.167 0 0 1 .217.089.17.17 0 0 1-.088.23z"/></g><g transform="rotate(-22.82 56 33.5)"><path fill="#adc7f7" d="M55.33 33.02h1.45v1.45h-1.45z"/><path fill="none" stroke="#263238" stroke-miterlimit="20" stroke-width=".5" d="M55.33 33.02v0h1.45v1.45h-1.45v0z"/></g><g><path fill="#263238" d="M61.515 31.22l-4.024 1.695a.167.167 0 0 1-.217-.09.163.163 0 0 1 .088-.218l4.024-1.694a.17.17 0 0 1 .129.314z"/></g><g><path fill="#263238" d="M60.571 32.407l-2.794 1.176a.17.17 0 0 1-.132-.315l2.797-1.175a.17.17 0 0 1 .13.314z"/></g><g opacity=".2"><path fill-opacity=".7" d="M43.638 94.713l-4.36 1.836-8.218-19.525a4.838 4.838 0 0 0 1.374-2.695c.49-2.615.144-11.025 6.693-11.892 6.548-.868 1.025 13.857 1.326 16.662.277 2.558 4.009 9.987 3.185 15.614z"/></g></g><g><path fill="none" stroke="#263238" stroke-linecap="round" stroke-linejoin="round" stroke-miterlimit="20" stroke-width=".5" d="M85.942 76.907v0L43.64 94.71v0l-4.36 1.836v0l-8.218-19.525v0L11.98 31.679v0L58.642 12.04v0l27.3 64.867v0z"/></g><g><path fill="#fff" d="M40.999 80.167c.735-2.515 3.603-10.57 3.225-14.131a3.58 3.58 0 0 0-.2-.868c-1.007-2.66-5.119-2.402-6.7-.198-1.732 2.424-3.144 6.787-3.27 9.431a8.22 8.22 0 0 1-1.257 3.729c-.247.415-.526.81-.833 1.182L22.589 57.07a12.685 12.685 0 0 0-2.455 2.738 4.533 4.533 0 0 0-.723 1.908c-.192 2.195-2.675 11.22-3.697 14.993-.022.082-.044.16-.063.236-.993 3.653 1.628 17.22.877 21.163-.751 3.942-1.213 3.851-1.323 6.652-.079 2.044-3.003 8.256-6.288 14.634A525.562 525.562 0 0 1 3.4 129.768l23.993-.996c.415-2.914.842-5.992 1.232-8.972.17-1.24.409-2.469.717-3.682a57.682 57.682 0 0 1 1.572-5.202c.51-1.663.93-3.351 1.257-5.059 2.792-2.955 6.451-7.598 7.51-10.742v-.022a3.91 3.91 0 0 0 .24-2.037 9.32 9.32 0 0 1-.192-1.716c-.123-3.414.654-9.083 1.27-11.173z"/></g><g opacity=".4"><path fill="#adc7f7" d="M32.807 78.151c-.745 1.493-1.641 2.943-2.201 4.615-.56 1.673-1.185 1.912-2.864 3.222-1.679 1.311-2.905-.848-2.905-.848s2.223-2.308 1.484-3.594c-.739-1.285-3.505-4.483-3.342-6.246.164-1.764-1.675-5.719-1.675-5.719s4.19-2.461 3.376-5.344c-.443-1.572-2.637-3.247-4.53-4.439a12.685 12.685 0 0 1 2.455-2.738l9.381 22.264a9.41 9.41 0 0 0 .82-1.173z"/></g><g opacity=".4"><path fill="#adc7f7" d="M17.6 91.794c.057.188 1.421 4.693.27 6.57-1.15 1.877-2.332 4.367-1.77 6.916.447 2.037-3.325 9.393-7.17 14.115 3.276-6.378 6.2-12.59 6.287-14.634.11-2.8.573-2.716 1.324-6.652.751-3.936-1.886-17.51-.877-21.163.019-.076.04-.154.063-.236.732 4.14 2.436 12.386 2.904 15.036.576 3.383-.98.189-1.03.048z"/></g><g opacity=".4"><path fill="#adc7f7" d="M26.23 118.987c2.788-12.006 12.172-21.211 13.443-23.877-1.06 3.144-4.716 7.787-7.51 10.742a48.338 48.338 0 0 1-1.258 5.058 62.138 62.138 0 0 0-1.572 5.203c-2.713 3.216-3.103 2.874-3.103 2.874z"/></g><g opacity=".4"><path fill="#adc7f7" d="M41.006 80.162c-.629 2.09-1.392 7.759-1.273 11.163-.494-2.137-1.443-4.854-1.6-8.635-.267-6.414 3.367-4.1 2.11-7.272-1.258-3.172-4.88.89-3.1-5.797 1.298-4.882 4.998-4.838 6.897-4.458.103.28.17.572.201.868.368 3.562-2.5 11.616-3.235 14.131z"/></g><g><path fill="none" stroke="#263238" stroke-linecap="round" stroke-linejoin="round" stroke-miterlimit="20" stroke-width=".5" d="M7.05 123.151c3.005-5.498 5.932-11.153 8.035-17.252.252-.877-.085-2.022.17-2.899 2.848-7.919-.383-16.165.148-24.279.45-3.197 1.471-6.413 2.512-9.641.48-2.33.66-4.94 1.43-7.284.792-1.767 1.572-3.82 3.26-4.716 3.207 7.347 6.4 14.728 9.38 22.264 1.35-.78 1.573-2.515 1.793-3.977.723-3.499 1.455-6.706 2.779-9.651 1.345-2.367 4.772-3.377 6.875-1.443.603.604.948 1.42.962 2.273-.409 4.061-1.685 8.173-2.97 11.971-.507 1.754-1.022 3.222-1.24 4.964.023.578.035.864.06 1.443-.745 2.92-.06 5.492-.229 8.39-.65 5.228-4.835 8.869-7.86 12.751-.748 2.92-1.493 5.841-2.514 8.774-1.258 4.402-1.66 8.74-2.09 12.968"/></g><g><path fill="none" stroke="#263238" stroke-linecap="round" stroke-linejoin="round" stroke-miterlimit="20" stroke-width=".5" d="M31.974 79.33a19.462 19.462 0 0 0-1.383 3.433c-.393 1.54-2.383 1.32-3.411 2.276"/></g><g><path fill="none" stroke="#263238" stroke-linecap="round" stroke-linejoin="round" stroke-miterlimit="20" stroke-width=".5" d="M24.47 76.62v0s2.707.943 4.285 2.185c1.578 1.242 2.741 1.53 2.741 1.53v0"/></g><g><path fill="none" stroke="#263238" stroke-linecap="round" stroke-linejoin="round" stroke-miterlimit="20" stroke-width=".5" d="M22.74 69.91v0s2.2.613 3.804-.157c.073-.784.21-1.561.412-2.323"/></g><g><path fill="none" stroke="#263238" stroke-linecap="round" stroke-linejoin="round" stroke-miterlimit="20" stroke-width=".5" d="M27.07 70.07s.022.314 1.135.314"/></g><g><path fill="none" stroke="#263238" stroke-linecap="round" stroke-linejoin="round" stroke-miterlimit="20" stroke-width=".5" d="M32.163 105.86a14.92 14.92 0 0 0-3.433 5.432"/></g><g><path fill="none" stroke="#263238" stroke-linecap="round" stroke-linejoin="round" stroke-miterlimit="20" stroke-width=".5" d="M15.513 77.62c-.1 1.886 2.113 8.576 2.783 11.902.67 3.326.924 5.678.924 5.678v0"/></g></g></g></g></svg>