<svg xmlns="http://www.w3.org/2000/svg" width="115" height="104" viewBox="0 0 115 104"><g><g><g><g><path fill="#f9fbff" d="M110.087 72.626s10.102-22.475-1.236-43.909C97.513 7.283 72.773 1.713 59.167 7.277 45.562 12.84 35.872 30.365 22.678 36.154 9.484 41.942-7.418 59.847 3.92 80.872c11.339 21.026 24.737 19.38 45.557 14.018 20.821-5.362 53.187-3.915 60.61-22.264z"/></g></g><g><g><path fill="#fff" d="M105.569 84.782v-1.541l-2.323-1.856-24.336-17.26c-.354-.403-1.265-.576-2.031-.391L16.082 76.152H14.55l-.028 1.268s-.023.669.204.928l20.904 23.915c.36.412 1.291.576 2.078.386l67.012-17c.642-.14.974-.518.85-.867z"/><path fill="none" stroke="#263238" stroke-linecap="round" stroke-linejoin="round" stroke-miterlimit="20" stroke-width=".5" d="M105.569 84.782v-1.541 0l-2.323-1.856v0L78.91 64.125c-.354-.403-1.265-.576-2.031-.391L16.082 76.152v0H14.55v0l-.028 1.268v0s-.023.669.204.928l20.904 23.915c.36.412 1.291.576 2.078.386l67.012-17c.642-.14.974-.518.85-.867z"/></g><g><path fill="#fff" d="M104.724 83.911l-67.012 17c-.787.196-1.729.023-2.078-.389L14.73 76.607c-.36-.41 0-.896.781-1.09l61.373-13.522c.766-.187 1.677-.014 2.031.39l26.546 20.446c.357.406.026.89-.737 1.08z"/><path fill="none" stroke="#263238" stroke-linecap="round" stroke-linejoin="round" stroke-miterlimit="20" stroke-width=".5" d="M104.724 83.911l-67.012 17c-.787.196-1.729.023-2.078-.389L14.73 76.607c-.36-.41 0-.896.781-1.09l61.373-13.522c.766-.187 1.677-.014 2.031.39l26.546 20.446c.357.406.026.89-.737 1.08z"/></g><g><path fill="#263238" d="M81.67 64.496l-2.336-1.645c-.576-.669-2.092-.957-3.36-.646L46.63 68.648l-30.493 6.72c-1.729.357-1.775.985-.983 1.714l7.967 9.113 8.863 10.14 68.577-17.288z"/><path fill="none" stroke="#263238" stroke-linecap="round" stroke-linejoin="round" stroke-miterlimit="20" stroke-width=".5" d="M81.67 64.496v0l-2.336-1.645c-.576-.669-2.092-.957-3.36-.646L46.63 68.648v0l-30.493 6.72c-1.729.357-1.775.985-.983 1.714l7.967 9.113v0l8.863 10.14v0l68.577-17.288v0z"/></g><g><path fill="#adc7f7" d="M56.23 83.348l-6.956-7.934 16.54.727zm-3.59-10.723c-5.886 1.44-8.476 5.12-5.762 8.206 2.714 3.086 9.678 4.4 15.56 2.94 5.88-1.462 8.419-5.132 5.719-8.201-2.7-3.069-9.647-4.388-15.516-2.945z"/></g><g><path fill="#adc7f7" d="M101.212 82.546L38.439 98.44c-.487.12-1.063 0-1.285-.242l-.528-.603c-.221-.253 0-.559.479-.68l62.784-15.879c.473-.118 1.038 0 1.26.24l.521.593c.222.25.017.55-.458.677z"/><path fill="none" stroke="#263238" stroke-linecap="round" stroke-linejoin="round" stroke-miterlimit="20" stroke-width=".5" d="M101.212 82.546L38.439 98.44c-.487.12-1.063 0-1.285-.242l-.528-.603c-.221-.253 0-.559.479-.68l62.784-15.879c.473-.118 1.038 0 1.26.24l.521.593c.222.25.017.55-.458.677z"/></g><g><path fill="#263238" d="M41.848 96.607c-.452-.513-1.61-.732-2.593-.487-.983.245-1.406.865-.954 1.375.452.51 1.61.732 2.593.487.983-.245 1.404-.862.954-1.375z"/><path fill="none" stroke="#263238" stroke-linecap="round" stroke-linejoin="round" stroke-miterlimit="20" stroke-width=".5" d="M41.848 96.607c-.452-.513-1.61-.732-2.593-.487-.983.245-1.406.865-.954 1.375.452.51 1.61.732 2.593.487.983-.245 1.404-.862.954-1.375z"/></g></g><g><g><path fill="#fff" d="M27.659 45.841c.061-.004.123-.004.184 0a.712.712 0 0 0 0-1.423h-2.697s.168-.974.168-1.308c0-.334.167-.833-.289-1.473-.455-.64-1.475-.389-1.475-.389l.159 1.32c.022.209-.018.42-.116.605l-1.21 2.274-.556.472-.167 2.81c.36.864 1.501 1.138 1.501 1.138h3.634a.735.735 0 0 0 .754-.712.706.706 0 0 0-.342-.597.764.764 0 0 0 .893-.7.7.7 0 0 0-.334-.576.726.726 0 0 0 .628-.703.738.738 0 0 0-.735-.738z"/></g><g><path fill="#263238" d="M23.172 49.74c-.121-.043-1.078-.311-1.404-1.055l.162-2.734.524-.432a.09.09 0 0 0 .026-.032l1.21-2.274c.11-.205.154-.44.127-.671l-.144-1.216c.253-.04.94-.098 1.26.363.244.343.341.77.27 1.184v.225c-.034.432-.09.862-.167 1.288a.11.11 0 0 0 .026.092.112.112 0 0 0 .083.038h2.66a.087.087 0 0 0 .037 0 .605.605 0 1 1 0 1.204c-.187 0-.288 0-.288.118 0 .06.047.11.107.113.328 0 .6.257.62.585a.617.617 0 0 1-.534.593.11.11 0 0 0-.092.087.11.11 0 0 0 .052.115.596.596 0 0 1 .288.499.625.625 0 0 1-.645.602.612.612 0 0 1-.122 0 .112.112 0 0 0-.077.204.594.594 0 0 1 .288.502.625.625 0 0 1-.643.602zm4.245.001a.847.847 0 0 0 .273-.6.792.792 0 0 0-.165-.485.838.838 0 0 0 .718-.812.79.79 0 0 0-.216-.542.821.821 0 0 0 .507-.752.807.807 0 0 0-.36-.665.83.83 0 0 0 .547-.767.847.847 0 0 0-.836-.824h-2.601c.07-.396.12-.795.147-1.196v-.204a1.778 1.778 0 0 0-.312-1.332c-.48-.694-1.544-.435-1.59-.435a.112.112 0 0 0-.084.121l.156 1.323a.89.89 0 0 1-.101.536l-1.201 2.256-.54.458a.121.121 0 0 0-.04.08l-.167 2.807a.136.136 0 0 0 0 .05c.38.918 1.53 1.207 1.58 1.207h3.664a.847.847 0 0 0 .621-.224z"/></g><g><path fill="#263238" d="M19.22 45.487c0-.34.276-.617.617-.617h1.705c.34 0 .617.276.617.617v4.19c0 .34-.276.616-.617.616h-1.705a.617.617 0 0 1-.617-.617z"/></g><g><path fill="#fff" d="M86.044 9.659c-.02 0 .06.023.124.055a.513.513 0 1 0 .458-.917l-1.729-.864c.19-.253.367-.516.53-.787.228-.296.33-.669.289-1.04-.081-.553-.824-.726-.824-.726l-.326.89a.72.72 0 0 1-.268.352l-1.513 1.072-.51.127-1.023 1.751c-.046.672.6 1.22.6 1.22l2.305 1.152.043.023a.527.527 0 0 0 .715-.213.507.507 0 0 0-.03-.496l.087.055c.258.136.578.04.718-.216a.498.498 0 0 0-.026-.487.522.522 0 0 0 .63-.251.53.53 0 0 0-.25-.7z"/></g><g><path fill="#263238" d="M81.903 10.717c-.075-.06-.592-.547-.557-1.14l.99-1.702.479-.118h.026l1.515-1.07a.8.8 0 0 0 .289-.392l.303-.828c.176.063.635.239.693.638.052.304-.023.616-.208.863-.029.05-.058.095-.08.141-.105.199-.523.774-.523.774a.08.08 0 0 0 0 .066.083.083 0 0 0 .043.055l1.715.863h.02a.432.432 0 1 1-.39.771c-.13-.063-.196-.098-.234-.02a.08.08 0 0 0 .032.106c.224.106.322.37.22.596a.445.445 0 0 1-.535.207.081.081 0 0 0-.086.026.077.077 0 0 0 0 .092c.077.125.084.28.02.411a.451.451 0 0 1-.609.179.53.53 0 0 1-.075-.046.081.081 0 0 0-.1.007.08.08 0 0 0-.016.099c.08.124.09.282.024.414a.454.454 0 0 1-.61.181l-.037-.023zm2.263 1.325a.608.608 0 0 0 .824-.248.547.547 0 0 0 .05-.363.61.61 0 0 0 .726-.288.59.59 0 0 0 .037-.42.576.576 0 1 0 .559-.864.594.594 0 0 0 .6-.318.605.605 0 0 0-.272-.798l-.023-.018-1.65-.827a8.07 8.07 0 0 0 .555-.85c.188-.28.26-.621.202-.953-.086-.603-.85-.793-.882-.793a.08.08 0 0 0-.095.052l-.325.9a.645.645 0 0 1-.24.313l-1.5 1.063-.496.124a.07.07 0 0 0-.05.038l-1.013 1.752a.08.08 0 0 0 0 .034c-.05.709.599 1.262.628 1.285h.014l2.305 1.153z"/></g><g transform="rotate(26.64 81 8.5)"><path fill="#263238" d="M79.94 7.207c0-.34.276-.617.617-.617h.881c.34 0 .617.276.617.617v2.67c0 .341-.276.617-.617.617h-.881a.617.617 0 0 1-.617-.616z"/></g><g><path fill="#fff" d="M88.23 43.024c-.032 0 .089-.024.184-.04a.712.712 0 1 0-.236-1.404l-2.663.447c.006-.44-.01-.88-.049-1.317-.057-.329.026-.865-.518-1.406-.545-.542-1.519-.141-1.519-.141l.375 1.276c.062.2.062.414 0 .614l-.824 2.437-.47.56.288 2.797c.499.79 1.668.865 1.668.865l3.53-.594h.07a.735.735 0 0 0 .624-.83.703.703 0 0 0-.437-.53.757.757 0 0 0 .14 0 .732.732 0 0 0 .629-.827.7.7 0 0 0-.43-.527.726.726 0 0 0 .505-.796.738.738 0 0 0-.868-.584z"/></g><g><path fill="#263238" d="M82.927 46.817l-.288-2.723.44-.522a.156.156 0 0 0 .02-.037l.817-2.444a1.154 1.154 0 0 0 0-.68l-.345-1.175c.245-.084.91-.254 1.3.15.298.297.465.702.463 1.123.004.075.013.149.026.222.05.317.05 1.3.05 1.3a.11.11 0 0 0 .13.11l2.616-.442h.035a.6.6 0 0 1 .702.81.601.601 0 0 1-.504.375c-.207.034-.308.051-.287.17a.115.115 0 0 0 .123.092.627.627 0 0 1 .734.487.617.617 0 0 1-.429.671.11.11 0 0 0 0 .208.59.59 0 0 1 .36.443.623.623 0 0 1-.535.7.82.82 0 0 1-.121 0 .11.11 0 0 0-.11.09.112.112 0 0 0 .067.127.576.576 0 0 1 .368.446.625.625 0 0 1-.535.7h-.058l-3.509.591c-.124-.011-1.11-.13-1.53-.792zm5.152.415a.847.847 0 0 0 .717-.98.787.787 0 0 0-.242-.45.841.841 0 0 0 .577-.919.795.795 0 0 0-.289-.501.804.804 0 0 0-.089-1.423.821.821 0 0 0 .412-.845.844.844 0 0 0-.96-.674h-.037l-2.53.424c.005-.402-.012-.803-.052-1.202a1.924 1.924 0 0 1-.023-.204 1.795 1.795 0 0 0-.527-1.263c-.59-.605-1.596-.184-1.64-.167a.115.115 0 0 0-.063.136l.372 1.276a.91.91 0 0 1 0 .548l-.813 2.423-.458.542a.107.107 0 0 0-.023.083l.288 2.798a.086.086 0 0 0 0 .046c.525.83 1.706.928 1.758.928h.026l3.524-.576z"/></g><g transform="rotate(-9.51 81.5 46)"><path fill="#263238" d="M80.18 43.807c0-.34.276-.617.617-.617h1.705c.34 0 .617.276.617.617v4.19c0 .34-.276.616-.617.616h-1.705a.617.617 0 0 1-.617-.617z"/></g><g><path fill="#263238" d="M50.305 3.424a2.236 2.236 0 0 0-1.086 2.166A2.245 2.245 0 0 0 46 8.57c.743 1.259 2.248 1.654 3.587 1.84.597.084 1.193.145 1.793.194l.826.078.358-.775c.245-.55.481-1.104.694-1.663.484-1.265.865-2.772.121-4.034a2.245 2.245 0 0 0-3.074-.786z"/></g><g><path fill="#263238" d="M94.256 32.37a2.242 2.242 0 0 0-2.36.563 2.242 2.242 0 0 0-4.35-.548c-.485 1.377.178 2.783.896 3.93.32.51.657 1.006 1.002 1.499.046.063.473.682.473.682s.749-.204.824-.227c.576-.164 1.152-.34 1.729-.536 1.279-.444 2.68-1.121 3.17-2.498a2.245 2.245 0 0 0-1.384-2.864z"/></g><g><path fill="#263238" d="M16.277 53.886a2.242 2.242 0 0 0-1.637 1.789 2.242 2.242 0 0 0-3.904 1.994c.375 1.412 1.73 2.201 2.954 2.746.55.242 1.109.464 1.67.674l.776.288s.504-.59.553-.651c.386-.461.764-.93 1.121-1.412.807-1.086 1.585-2.432 1.21-3.844a2.245 2.245 0 0 0-2.743-1.584z"/></g><g><path fill="#263238" d="M24.131 26.801a1.409 1.409 0 0 0-1.49.355 1.415 1.415 0 0 0-2.745-.346c-.309.864.112 1.755.576 2.48.201.32.415.635.634.946l.288.43.521-.142a21.48 21.48 0 0 0 1.087-.34c.806-.288 1.688-.706 1.996-1.576a1.418 1.418 0 0 0-.867-1.807z"/></g><g><path fill="#263238" d="M36.423 62.531a1.415 1.415 0 0 0-1.493.355 1.415 1.415 0 0 0-2.746-.346c-.305.864.113 1.755.577 2.48.198.32.414.635.633.946l.289.43.518-.142c.366-.104.73-.213 1.087-.34.806-.288 1.69-.706 2-1.576a1.418 1.418 0 0 0-.865-1.807z"/></g></g><g><g><path fill="#adc7f7" d="M38.958 79.614s-3.262 3.394-3.593 5.06c-.331 1.665.464 3.129 1.798 2.728 1.334-.4 2.53-4.526 2.861-5.258.332-.732.732-1.533.732-1.533s-.994-1.331-1.798-.997z"/><path fill="none" stroke="#263238" stroke-linecap="round" stroke-linejoin="round" stroke-miterlimit="20" stroke-width=".5" d="M38.958 79.614s-3.262 3.394-3.593 5.06c-.331 1.665.464 3.129 1.798 2.728 1.334-.4 2.53-4.526 2.861-5.258.332-.732.732-1.533.732-1.533v0s-.994-1.331-1.798-.997z"/></g><g><path fill="#fff" d="M35.335 84.846c-.245 1.588.541 2.936 1.826 2.55.461-.138.908-.726 1.306-1.464-.865-1.412-2.265-1.32-3.132-1.086z"/><path fill="none" stroke="#263238" stroke-linecap="round" stroke-linejoin="round" stroke-miterlimit="20" stroke-width=".5" d="M35.335 84.846c-.245 1.588.541 2.936 1.826 2.55.461-.138.908-.726 1.306-1.464-.865-1.412-2.265-1.32-3.132-1.086z"/></g><g><path fill="#fff" d="M38.93 84.985c-.725.997-1.662 2.07-2.365 1.882-.703-.187-1.074-1.507-1.201-2.187-.329 1.66.47 3.118 1.8 2.72.649-.193 1.266-1.274 1.767-2.415z"/><path fill="none" stroke="#263238" stroke-linecap="round" stroke-linejoin="round" stroke-miterlimit="20" stroke-width=".5" d="M38.93 84.985c-.725.997-1.662 2.07-2.365 1.882-.703-.187-1.074-1.507-1.201-2.187-.329 1.66.47 3.118 1.8 2.72.649-.193 1.266-1.274 1.767-2.415z"/></g><g><path fill="#fff" d="M39.622 81.478s-1.464-.801-1.53-.533c-.066.268 1.398.997 1.6.997.201 0 .33-.066-.07-.464z"/><path fill="none" stroke="#263238" stroke-linecap="round" stroke-linejoin="round" stroke-miterlimit="20" stroke-width=".5" d="M39.622 81.478s-1.464-.801-1.53-.533c-.066.268 1.398.997 1.6.997.201 0 .33-.066-.07-.464z"/></g><g><path fill="#fff" d="M39.292 81.935s-1.464-.798-1.53-.53c-.066.268 1.398.997 1.596.997.2 0 .335-.066-.066-.467z"/><path fill="none" stroke="#263238" stroke-linecap="round" stroke-linejoin="round" stroke-miterlimit="20" stroke-width=".5" d="M39.292 81.935s-1.464-.798-1.53-.53c-.066.268 1.398.997 1.596.997.2 0 .335-.066-.066-.467z"/></g><g><path fill="#fff" d="M38.962 82.407s-1.464-.798-1.53-.533c-.066.265 1.398 1 1.6 1 .201 0 .33-.067-.07-.467z"/><path fill="none" stroke="#263238" stroke-linecap="round" stroke-linejoin="round" stroke-miterlimit="20" stroke-width=".5" d="M38.962 82.407s-1.464-.798-1.53-.533c-.066.265 1.398 1 1.6 1 .201 0 .33-.067-.07-.467z"/></g><g><path fill="#fff" d="M38.625 82.877s-1.463-.798-1.533-.533c-.069.265 1.4 1 1.6 1 .198 0 .334-.066-.067-.467z"/><path fill="none" stroke="#263238" stroke-linecap="round" stroke-linejoin="round" stroke-miterlimit="20" stroke-width=".5" d="M38.625 82.877s-1.463-.798-1.533-.533c-.069.265 1.4 1 1.6 1 .198 0 .334-.066-.067-.467z"/></g><g><path fill="#adc7f7" d="M63.795 77.41s-1.73 1.331-2.13 2.265c-.4.933.398 1.198 1.464 1.397 1.066.199 2.063 1.331 3.527 1.729 1.463.398 3.33.265 2.731-.666-.6-.93-2.53-2.132-2.864-2.665a8.373 8.373 0 0 1-.539-.994z"/><path fill="none" stroke="#263238" stroke-linecap="round" stroke-linejoin="round" stroke-miterlimit="20" stroke-width=".5" d="M63.795 77.41v0s-1.73 1.331-2.13 2.265c-.4.933.398 1.198 1.464 1.397 1.066.199 2.063 1.331 3.527 1.729 1.463.398 3.33.265 2.731-.666-.6-.93-2.53-2.132-2.864-2.665a8.373 8.373 0 0 1-.539-.994z"/></g><g><path fill="#fff" d="M69.383 82.137a4.52 4.52 0 0 0-.758-.827 3.21 3.21 0 0 0-2.095 1.455l.121.037c1.467.398 3.33.266 2.732-.665z"/><path fill="none" stroke="#263238" stroke-linecap="round" stroke-linejoin="round" stroke-miterlimit="20" stroke-width=".5" d="M69.383 82.137a4.52 4.52 0 0 0-.758-.827 3.21 3.21 0 0 0-2.095 1.455l.121.037c1.467.398 3.33.266 2.732-.665z"/></g><g><path fill="#fff" d="M66.46 79.21s-1.73.334-1.398.6"/><path fill="none" stroke="#263238" stroke-linecap="round" stroke-linejoin="round" stroke-miterlimit="20" stroke-width=".5" d="M66.46 79.21s-1.73.334-1.398.6"/></g><g><path fill="#fff" d="M66.99 79.55s-1.73.331-1.398.6"/><path fill="none" stroke="#263238" stroke-linecap="round" stroke-linejoin="round" stroke-miterlimit="20" stroke-width=".5" d="M66.99 79.55s-1.73.331-1.398.6"/></g><g><path fill="#fff" d="M67.25 79.88s-1.73.334-1.398.6"/><path fill="none" stroke="#263238" stroke-linecap="round" stroke-linejoin="round" stroke-miterlimit="20" stroke-width=".5" d="M67.25 79.88s-1.73.334-1.398.6"/></g><g><path fill="#fff" d="M67.79 80.34s-1.73.331-1.398.6"/><path fill="none" stroke="#263238" stroke-linecap="round" stroke-linejoin="round" stroke-miterlimit="20" stroke-width=".5" d="M67.79 80.34s-1.73.331-1.398.6"/></g><g><path fill="#fff" d="M69.49 82.404c-1.297.343-2.493.07-3.634-.533a22.809 22.809 0 0 0-3.195-1.464 4.567 4.567 0 0 1-1.069-.527c-.199.766.553 1.008 1.536 1.193 1.066.199 2.063 1.331 3.527 1.729 1.313.36 2.939.288 2.835-.398z"/><path fill="none" stroke="#263238" stroke-linecap="round" stroke-linejoin="round" stroke-miterlimit="20" stroke-width=".5" d="M69.49 82.404c-1.297.343-2.493.07-3.634-.533a22.809 22.809 0 0 0-3.195-1.464 4.567 4.567 0 0 1-1.069-.527c-.199.766.553 1.008 1.536 1.193 1.066.199 2.063 1.331 3.527 1.729 1.313.36 2.939.288 2.835-.398z"/></g><g><path fill="#fff" d="M51.475 49.568s-2.394 10.805-2.861 13.401a86.897 86.897 0 0 0-.666 4.195s-1.728 1.265-3.457 4.06c-1.729 2.795-5.527 8.39-5.527 8.39s-.132.998 1.066 1.332c0 0 .6.265.934 0 .334-.265 11.716-10.785 13.047-12.983 1.331-2.199 4.062-9.855 4.062-9.855l1.73-.331 11.05 10.252-7.458 9.508s-.265.533.467 1c.732.467 1.864.265 2.464 0 .599-.265 11.119-10.586 11.185-11.318.066-.732-.467-1.599-.6-1.864-.132-.265-10.718-14.407-10.718-14.407l-.6-1.53s-6.99.798-10.118.199c-3.13-.6-3.732-1.046-4-.049z"/><path fill="none" stroke="#263238" stroke-linecap="round" stroke-linejoin="round" stroke-miterlimit="20" stroke-width=".5" d="M51.475 49.568s-2.394 10.805-2.861 13.401a86.897 86.897 0 0 0-.666 4.195v0s-1.728 1.265-3.457 4.06c-1.729 2.795-5.527 8.39-5.527 8.39v0s-.132.998 1.066 1.332c0 0 .6.265.934 0 .334-.265 11.716-10.785 13.047-12.983 1.331-2.199 4.062-9.855 4.062-9.855v0l1.73-.331v0l11.05 10.252v0l-7.458 9.508v0s-.265.533.467 1c.732.467 1.864.265 2.464 0 .599-.265 11.119-10.586 11.185-11.318.066-.732-.467-1.599-.6-1.864-.132-.265-10.718-14.407-10.718-14.407v0l-.6-1.53v0s-6.99.798-10.118.199c-3.13-.6-3.732-1.046-4-.049z"/></g><g><path fill="none" stroke="#263238" stroke-linecap="round" stroke-linejoin="round" stroke-miterlimit="20" stroke-width=".5" d="M59.8 57.772l3.795-1.132"/></g><g><path fill="none" stroke="#263238" stroke-linecap="round" stroke-linejoin="round" stroke-miterlimit="20" stroke-width=".5" d="M60.2 57.97l5.192-.6"/></g><g><path fill="none" stroke="#263238" stroke-linecap="round" stroke-linejoin="round" stroke-miterlimit="20" stroke-width=".5" d="M70.85 68.03l2.265 1.864"/></g><g><path fill="none" stroke="#263238" stroke-linecap="round" stroke-linejoin="round" stroke-miterlimit="20" stroke-width=".5" d="M60.822 53.06v0l-2.282.76v0s3.587-.109 3.697.326c.11.435-2.176 2.176-2.176 2.176v0"/></g><g><path fill="none" stroke="#263238" stroke-linecap="round" stroke-linejoin="round" stroke-miterlimit="20" stroke-width=".5" d="M52.67 51.65s1.211 2.08-1.63 3.262"/></g><g><path fill="#adc7f7" d="M67.027 27.617s-9.627-.217-10.085-.084c-.458.133-5.792 6.791-6.39 7.39-.6.6-2.2 1.73-2.332 2.594-.132.864 1.066 3.728 2.397 3.728 1.332 0 3.729-2.662 3.729-2.662s-3.196 11.05-3.063 11.525c.132.476 2.397 1.53 7.457 2.13 5.06.6 7.203-1.53 7.324-2.196.121-.665-.135-1.798-.135-1.798l1.729-3.063s3.063 2.285 4.46 1.285c1.397-1 1.397-4.062 2.063-4.993.666-.93 2.265-5.924 1.729-6.59-.536-.665-8.883-7.266-8.883-7.266z"/><path fill="none" stroke="#263238" stroke-linecap="round" stroke-linejoin="round" stroke-miterlimit="20" stroke-width=".5" d="M67.027 27.617v0s-9.627-.217-10.085-.084c-.458.133-5.792 6.791-6.39 7.39-.6.6-2.2 1.73-2.332 2.594-.132.864 1.066 3.728 2.397 3.728 1.332 0 3.729-2.662 3.729-2.662v0s-3.196 11.05-3.063 11.525c.132.476 2.397 1.53 7.457 2.13 5.06.6 7.203-1.53 7.324-2.196.121-.665-.135-1.798-.135-1.798v0l1.729-3.063v0s3.063 2.285 4.46 1.285c1.397-1 1.397-4.062 2.063-4.993.666-.93 2.265-5.924 1.729-6.59-.536-.665-8.883-7.266-8.883-7.266z"/></g><g><path fill="none" stroke="#263238" stroke-linecap="round" stroke-linejoin="round" stroke-miterlimit="20" stroke-width=".5" d="M72.25 34.805v0s-1.864-1.351-2.13-.752c-.264.6-1.996 3.93-3.27 5.328-1.273 1.397-1.93 2.729-1.132 3.795.573.73 1.22 1.4 1.93 1.996"/></g><g><path fill="none" stroke="#263238" stroke-linecap="round" stroke-linejoin="round" stroke-miterlimit="20" stroke-width=".5" d="M54.34 38.58l2.397-7.99"/></g><g><path fill="#263238" d="M65.118 27.998s-3.53-.4-5.06-1.93c-1.53-1.53-2.331-3.063-4.993-3.458-1.59-.24-3.206-.24-4.795 0l.666 3.458s3.198-1.199 4.794-.268c1.596.93 2.397 3.262 4.593 3.86 2.196.6 4.993.468 4.993.468z"/><path fill="none" stroke="#263238" stroke-linecap="round" stroke-linejoin="round" stroke-miterlimit="20" stroke-width=".5" d="M65.118 27.998v0s-3.53-.4-5.06-1.93c-1.53-1.53-2.331-3.063-4.993-3.458-1.59-.24-3.206-.24-4.795 0l.666 3.458v0s3.198-1.199 4.794-.268c1.596.93 2.397 3.262 4.593 3.86 2.196.6 4.993.468 4.993.468v0z"/></g><g><path fill="#263238" d="M68.057 28.599a3.976 3.976 0 0 1 1.265 2.063c.265 1.265-.933 2.795-1.864 3.662-.93.867-1.864 1.265-4.261 1.596-2.398.332-4.527-2.129-6.126-2.394-1.6-.265-4.861 1.53-4.861 1.53l.668-2.864a7.65 7.65 0 0 1 4.792-.997c2.798.331 4.662 2.33 5.725 2.593 1.064.262 2.997-.334 3.398-1.864.4-1.53-.136-2.93.533-3.394.668-.464.731.069.731.069z"/><path fill="none" stroke="#263238" stroke-linecap="round" stroke-linejoin="round" stroke-miterlimit="20" stroke-width=".5" d="M68.057 28.599a3.976 3.976 0 0 1 1.265 2.063c.265 1.265-.933 2.795-1.864 3.662-.93.867-1.864 1.265-4.261 1.596-2.398.332-4.527-2.129-6.126-2.394-1.6-.265-4.861 1.53-4.861 1.53v0l.668-2.864a7.65 7.65 0 0 1 4.792-.997c2.798.331 4.662 2.33 5.725 2.593 1.064.262 2.997-.334 3.398-1.864.4-1.53-.136-2.93.533-3.394.668-.464.731.069.731.069z"/></g><g><path fill="#fff" d="M67.713 16.216s-1.93.533-2.729 1.728c-.798 1.196-3.129 8.19-3.063 8.789.067.599 3.063 0 3.063 0s-2.063 4.322-2.063 5.06c0 .737.93 1.132 2.13.864 1.198-.268 5.281-7.296 5.281-7.296s1.21 1.406 1.974.925c.864-.553.6-1.665-.066-1.665-.666 0 1.864-2.73 1-4.527-.865-1.798-4.72-4.478-5.527-3.878z"/><path fill="none" stroke="#263238" stroke-linecap="round" stroke-linejoin="round" stroke-miterlimit="20" stroke-width=".5" d="M67.713 16.216s-1.93.533-2.729 1.728c-.798 1.196-3.129 8.19-3.063 8.789.067.599 3.063 0 3.063 0v0s-2.063 4.322-2.063 5.06c0 .737.93 1.132 2.13.864 1.198-.268 5.281-7.296 5.281-7.296v0s1.21 1.406 1.974.925c.864-.553.6-1.665-.066-1.665-.666 0 1.864-2.73 1-4.527-.865-1.798-4.72-4.478-5.527-3.878z"/></g><g><path fill="#263238" d="M66.991 14.081s-3.728 0-3.927 1.798c-.199 1.798 1.729 2.593 3.861 2.262 2.132-.331 4.06-.199 4.322.133.262.33-2.593 1-1.93 1.466.388.276.855.415 1.33.398 0 0-.933.268-.864.933.07.666.649 3.608 1.113 3.608.464 0 1.351-.06 1.351-.06a8.526 8.526 0 0 0 2.265-1.663c1-1.066 1.265-3.331 0-4.662-1.265-1.332-2.265-2.617-3.262-3.68-.997-1.063-1.93-2.198-3.927-2.463-1.997-.265-3.066.53-.332 1.93z"/><path fill="none" stroke="#263238" stroke-linecap="round" stroke-linejoin="round" stroke-miterlimit="20" stroke-width=".5" d="M66.991 14.081s-3.728 0-3.927 1.798c-.199 1.798 1.729 2.593 3.861 2.262 2.132-.331 4.06-.199 4.322.133.262.33-2.593 1-1.93 1.466.388.276.855.415 1.33.398 0 0-.933.268-.864.933.07.666.649 3.608 1.113 3.608.464 0 1.351-.06 1.351-.06a8.526 8.526 0 0 0 2.265-1.663c1-1.066 1.265-3.331 0-4.662-1.265-1.332-2.265-2.617-3.262-3.68-.997-1.063-1.93-2.198-3.927-2.463-1.997-.265-3.066.53-.332 1.93z"/></g><g><path fill="none" stroke="#fff" stroke-linecap="round" stroke-linejoin="round" stroke-miterlimit="20" stroke-width=".5" d="M74.762 20.95c.068.39.082.788.04 1.181"/></g><g><path fill="none" stroke="#fff" stroke-linecap="round" stroke-linejoin="round" stroke-miterlimit="20" stroke-width=".5" d="M67.92 16.18v0s-4.086.398-2.541 1.178c1.544.781 3.907-.68 6.883.496a3.835 3.835 0 0 1 2.236 2.144"/></g><g><path fill="none" stroke="#fff" stroke-linecap="round" stroke-linejoin="round" stroke-miterlimit="20" stroke-width=".5" d="M70.4 19.28s2.792 1.366 3.17 3.348"/></g><g><path fill="none" stroke="#263238" stroke-linecap="round" stroke-linejoin="round" stroke-miterlimit="20" stroke-width=".5" d="M64.99 26.734s3.195-.202 4.06-.934"/></g><g><path fill="#adc7f7" d="M61.93 19.542s4.86-.066 7.59.533c0 0-.479 1.576-1.277 2.11-.798.532-2.184.155-2.518-.113-.334-.268-.6-1.864-.6-1.864h-.533l-.265.8s-.201 1.064-.933 1.064-1.464-.133-1.464-2.53z"/><path fill="none" stroke="#263238" stroke-linecap="round" stroke-linejoin="round" stroke-miterlimit="20" stroke-width=".5" d="M61.93 19.542s4.86-.066 7.59.533c0 0-.479 1.576-1.277 2.11-.798.532-2.184.155-2.518-.113-.334-.268-.6-1.864-.6-1.864v0h-.533v0l-.265.8v0s-.201 1.064-.933 1.064-1.464-.133-1.464-2.53z"/></g><g><path fill="#263238" d="M64.465 20.589a4.342 4.342 0 0 0-2.475-.017c.19 1.4.795 1.495 1.403 1.495.732 0 .934-1.063.934-1.063z"/><path fill="none" stroke="#263238" stroke-linecap="round" stroke-linejoin="round" stroke-miterlimit="20" stroke-width=".5" d="M64.465 20.589a4.342 4.342 0 0 0-2.475-.017c.19 1.4.795 1.495 1.403 1.495.732 0 .934-1.063.934-1.063v0z"/></g><g><path fill="#263238" d="M69.032 21.212c-1.202-1.109-2.41-.026-3.772-.325.11.47.274 1.037.461 1.184.334.268 1.729.645 2.518.112.334-.26.605-.591.793-.97z"/><path fill="none" stroke="#263238" stroke-linecap="round" stroke-linejoin="round" stroke-miterlimit="20" stroke-width=".5" d="M69.032 21.212c-1.202-1.109-2.41-.026-3.772-.325.11.47.274 1.037.461 1.184.334.268 1.729.645 2.518.112.334-.26.605-.591.793-.97z"/></g><g><path fill="#adc7f7" d="M69.52 20.07l3.022 4.662-.294-.115-3.008-3.743.28-.804z"/><path fill="none" stroke="#263238" stroke-linecap="round" stroke-linejoin="round" stroke-miterlimit="20" stroke-width=".5" d="M69.52 20.07v0l3.022 4.662v0l-.294-.115v0l-3.008-3.743v0l.28-.804v0z"/></g><g><path fill="none" stroke="#263238" stroke-linecap="round" stroke-linejoin="round" stroke-miterlimit="20" stroke-width=".5" d="M63.99 24.065s2.331.665 2.997-.735"/></g><g><path fill="none" stroke="#263238" stroke-linecap="round" stroke-linejoin="round" stroke-miterlimit="20" stroke-width=".5" d="M66.59 23.07l1 .4"/></g><g><path fill="#fff" d="M64.723 21.01s-2.063.265-2.063.6c0 .334 1.331 1.264 1.331 1.264"/><path fill="none" stroke="#263238" stroke-linecap="round" stroke-linejoin="round" stroke-miterlimit="20" stroke-width=".5" d="M64.723 21.01v0s-2.063.265-2.063.6c0 .334 1.331 1.264 1.331 1.264v0"/></g><g><path fill="#263238" d="M64.459 27.861a.864.864 0 0 0-.732.332c-.4.4-1.317 1.976-1.553 2.593-.427 1.132 1.072 3.17 2.616 2.458.766-.346.957-.043 1.824-1.11.867-1.066 1.04-1.887 1.04-2.218 0-.331.6-.334-.666.265-1.265.6-3.794-.389-2.53-2.32z"/><path fill="none" stroke="#263238" stroke-linecap="round" stroke-linejoin="round" stroke-miterlimit="20" stroke-width=".5" d="M64.459 27.861a.864.864 0 0 0-.732.332c-.4.4-1.317 1.976-1.553 2.593-.427 1.132 1.072 3.17 2.616 2.458.766-.346.957-.043 1.824-1.11.867-1.066 1.04-1.887 1.04-2.218 0-.331.6-.334-.666.265-1.265.6-3.794-.389-2.53-2.32z"/></g><g><path fill="#263238" d="M22.476 5.593a2.245 2.245 0 0 0-1.372 2.017 2.242 2.242 0 0 0-3.587 2.519c.576 1.345 2.017 1.942 3.305 2.305.576.161 1.153.288 1.75.435.074 0 .809.187.809.187l.458-.72c.317-.51.625-1.029.913-1.556.649-1.187 1.228-2.63.663-3.976a2.247 2.247 0 0 0-2.939-1.21z"/></g><g><path fill="#263238" d="M35.308 11.086a2.242 2.242 0 0 0-2.369.527 2.242 2.242 0 0 0-4.339-.605c-.504 1.369.138 2.784.841 3.942.312.513.643 1.014.983 1.51l.464.691.827-.216a39.25 39.25 0 0 0 1.729-.513c1.285-.426 2.694-1.086 3.198-2.455a2.242 2.242 0 0 0-1.334-2.881z"/></g><g><path fill="#fff" d="M34.005 9.932a1.02 1.02 0 0 1 .184 0 .712.712 0 0 0 0-1.424h-2.697s.167-.974.167-1.308c0-.334.167-.833-.288-1.472-.455-.64-1.48-.406-1.48-.406l.158 1.32c.023.208-.017.419-.116.604l-1.21 2.274-.556.472-.167 2.81c.36.864 1.501 1.152 1.501 1.152h3.64c.405.01.742-.31.754-.715a.709.709 0 0 0-.343-.596.726.726 0 0 0 .139 0 .735.735 0 0 0 .755-.712.706.706 0 0 0-.335-.593.723.723 0 0 0 .628-.7.735.735 0 0 0-.734-.706z"/></g><g><path fill="#263238" d="M29.51 13.813c-.122-.032-1.077-.312-1.405-1.05l.161-2.734.521-.44a.098.098 0 0 0 .026-.035l1.191-2.268c.108-.205.153-.438.127-.668l-.144-1.219c.253-.04.938-.098 1.257.363.244.343.341.77.27 1.184v.225c-.033.433-.089.864-.166 1.291a.104.104 0 0 0 .025.09c.02.025.051.04.084.04h2.693a.601.601 0 1 1 0 1.201c-.187 0-.288 0-.288.118 0 .06.047.11.107.113.342-.01.629.259.641.602a.613.613 0 0 1-.532.576.118.118 0 0 0-.092.087.115.115 0 0 0 .052.118.594.594 0 0 1 .287.498.623.623 0 0 1-.644.6.61.61 0 0 1-.121 0 .112.112 0 0 0-.124.072.112.112 0 0 0 .046.132.594.594 0 0 1 .288.501.625.625 0 0 1-.642.603zm4.243-.004a.847.847 0 0 0 .268-.601.792.792 0 0 0-.165-.484.836.836 0 0 0 .718-.81.792.792 0 0 0-.216-.545.818.818 0 0 0 .507-.749.807.807 0 0 0-.36-.668.827.827 0 0 0 .547-.767.844.844 0 0 0-.873-.821h-2.564c.07-.396.12-.795.147-1.196v-.204a1.778 1.778 0 0 0-.312-1.332c-.48-.694-1.544-.435-1.59-.435a.112.112 0 0 0-.084.121l.165 1.326a.899.899 0 0 1-.101.539l-1.202 2.253-.539.46a.115.115 0 0 0-.04.079l-.167 2.809a.16.16 0 0 0 0 .049c.38.916 1.53 1.204 1.579 1.204h3.665c.228.01.45-.072.617-.228z"/></g><g><path fill="#263238" d="M25.56 9.567c0-.34.276-.617.617-.617h1.705c.34 0 .617.276.617.617v4.19c0 .34-.276.616-.617.616h-1.705a.617.617 0 0 1-.617-.617z"/></g><g><path fill="#adc7f7" d="M43.092 18.193l-.166-1.392a7.841 7.841 0 0 0 2.008-.84l.12 1.169a4.868 4.868 0 0 1-1.962 1.063zm-6.885.601l-.216-1.549a25.5 25.5 0 0 0 2.334.106h.322l.159 1.486c-.867.032-1.734.017-2.6-.043zM29.3 15.836c1.118.349 2.161.634 3.187.865l.17 1.628a18.6 18.6 0 0 1-2.386-.669c-.305-.118-.614-.236-.916-.357zM22.8 14.3l-.07-.754c.743.19 1.472.425 2.185.706l1.011.394h.02l.084 1.19c-.49-.23-.971-.464-1.44-.694-.62-.288-1.214-.574-1.79-.842zm-3.173-1.29c.945.079 1.883.23 2.804.455l.066.694a24.492 24.492 0 0 0-2.887-1.15zm-3.595-.513c-.763 0-1.475.04-2.104.088l.238-.088c.708-.26 1.443-.444 2.19-.548l.158.568zm-4.77.12a.36.36 0 0 1 .038-.117l.288-.222c.462-.346.951-.709 1.467-1.052l.161.53c-.492.288-.962.577-1.394.865-.058.04-.115.077-.167.118a.712.712 0 0 1-.392-.087.035.035 0 0 1 0-.034zm1.632-1.944l.083.265c-.377.248-.74.51-1.086.763.262-.296.6-.645 1.003-1.028zm8.598-5.244l.173-.046.175 1.861c-.253.07-.51.144-.778.228-.792.247-1.538.49-2.218.726l-.21-1.625A15.74 15.74 0 0 1 21.5 5.414zm7.108-.594l.06 1.692c-.995-.104-1.999-.112-2.996-.023l-.121-1.73a23.82 23.82 0 0 1 3.066.047zm5.475.61l.233 1.68a26.336 26.336 0 0 1-2.536-.201l-.181-1.769.248.032c.769.086 1.512.177 2.23.243zm3.323-.206l.179 1.738c-.831.12-1.67.18-2.509.18h-.465l-.229-1.68c.232.017.463.037.688.046a8.037 8.037 0 0 0 2.33-.299zm3.664-1.464l-.008.004v-.004zm.26 2.187a15.93 15.93 0 0 1-3.458.962l-.185-1.76a18.182 18.182 0 0 0 3.375-1.385zm2.46-1.323l-.038.015-.028.026c-.665.456-1.374.842-2.118 1.152l-.271-2.216A31.2 31.2 0 0 0 43.54 2.28zm-1.202 9.28a19.875 19.875 0 0 0 2.13-.333l.21 2.044-.063.04a7.127 7.127 0 0 1-1.963.833zm-3.48 4.89l-.156-1.48a16.818 16.818 0 0 0 3.7-.453l.17 1.397a16.739 16.739 0 0 1-3.717.55zm-3.55-4.817c.948.06 1.878.095 2.766.101l.294 2.968c-.89.012-1.782-.024-2.668-.11zm-6.256 1.529l-.083-2.278a74.64 74.64 0 0 0 2.97.437l.289 2.708a31.392 31.392 0 0 1-3.181-.853zm-6.69-3.393c1.08.152 2.216.344 3.213.52l.115 1.666-.908-.353a18.902 18.902 0 0 0-2.305-.74zm-3.282-.308c.864.034 1.859.126 2.982.288l.098 1.06a19.016 19.016 0 0 0-2.968-.464zm-5.6.534l-.148-.47a21.286 21.286 0 0 1 2.464-1.145l.26.914c-.76.111-1.505.303-2.224.572zm-.405-1.298a19.522 19.522 0 0 1 2.424-1.334l.21.746c-.845.33-1.668.716-2.464 1.153l-.17-.553zm2.346-1.62c-.843.384-1.657.827-2.435 1.328l-.075-.244-.02-.063a27.494 27.494 0 0 1 2.288-1.879zm9.711-2.918a20.414 20.414 0 0 0-3.243.637l-.173-1.856a17.85 17.85 0 0 1 3.296-.516zm3.393 2.662a49.843 49.843 0 0 0-2.919-.158l-.158-2.265c.995-.09 1.997-.08 2.99.029zm5.931.71c-.841-.119-1.711-.246-2.651-.37l-.243-2.325c.674.08 1.544.167 2.556.196zm3.205.405a54.673 54.673 0 0 1-2.916-.36l-.35-2.538h.422c.845.001 1.689-.06 2.525-.182zm3.94-.02c-.738.06-1.562.092-2.447.092a16 16 0 0 1-1.19-.049l-.328-3.143a15.94 15.94 0 0 0 3.458-.954zm.322.262c.741-.04 1.475-.17 2.185-.386l.325 3.127h-.014c-.7.15-1.407.26-2.118.331zm.084 3.104c-1.11.11-2.343.164-3.68.161l-.33-3.193c.408.032.797.047 1.152.047.899 0 1.729-.032 2.48-.093zm-7.22-3.409c1.06.15 2.016.288 2.915.354l.334 3.213c-.89 0-1.82-.043-2.774-.106zm-1.488 3.593c.664.063 1.206.11 1.7.141l.403 2.936c-.972-.1-1.936-.256-2.89-.466l-.287-2.726c.359.063.715.1 1.074.135zm-4.474-4.322c.864.072 1.752.164 2.708.288l.372 3.599a70.41 70.41 0 0 1-2.953-.432zm-6.728-.147c.181 0 .363-.02.547-.026.9-.029 1.801-.034 2.691-.017l.21 3.045a88.533 88.533 0 0 0-3.218-.524zm-.026-.278l-.156-1.644c1.064-.3 2.15-.514 3.248-.64l.152 2.24c-.884-.017-1.786 0-2.682.018-.188.026-.378.026-.562.026zm6.592 3.837c-.768-.13-1.524-.26-2.267-.395l-.556-.098-.214-3.089c.946.023 1.902.075 2.91.158zm.064-6.08c.495.055.985.127 1.498.199l1.037.144.24 2.325a97.944 97.944 0 0 0-2.689-.288zm6.235 6.86c-.475-.034-1-.077-1.637-.138-.38-.037-.754-.078-1.132-.124l-.372-3.596c.908.118 1.752.242 2.57.358h.09zm-16.136-3.87a20.33 20.33 0 0 1 2.988-.44l.225 2.43a29.532 29.532 0 0 0-2.99-.29zm-.087 1.695c-.805-.026-1.61.011-2.409.11l-.287-.986c.811-.307 1.642-.56 2.486-.755zm-.248-1.925c-.853.201-1.693.455-2.515.76l-.212-.76c.775-.35 1.63-.685 2.583-1.026zm7.369 3.12l.484.087c.76.135 1.539.287 2.328.405l.084 2.216c-.865-.287-1.775-.6-2.775-.979zm16.494 3.876a16.235 16.235 0 0 1-3.699.467l-.287-2.948h.086c1.3 0 2.503-.052 3.587-.161l.322 2.64zm1.725-6.705a.147.147 0 0 0-.058 0c-.693.21-1.409.334-2.132.372l-.504-4.129a12.444 12.444 0 0 0 2.184-1.167zM31.473 6.881l-.966-.118c-.527-.075-1.031-.147-1.55-.205l-.063-1.7c.824.067 1.622.162 2.394.262zM18.89 8.471a67.11 67.11 0 0 1 2.267-.737c.245-.078.485-.147.718-.21l.147 1.576c-1.008.07-2.01.216-2.997.435l-.135-1.06zm-.327-.19c-.982.343-1.846.686-2.636 1.038l-.261-.934a22.96 22.96 0 0 1 2.693-1.683zm-5.249 3.758l.133.429-.063.023h-.02l-.456.179c-.253.028-.498.046-.717.057.354-.236.732-.467 1.123-.688zm4.127.524c-.208-.017-.412-.023-.617-.032l-.17-.615c.787-.096 1.581-.13 2.374-.102l.113.874h-.15c-.263 0-.519-.023-.775-.023a7.44 7.44 0 0 0-.775-.102zm8.886 3.423l-.084-1.216c.994.372 1.899.692 2.763.971l.052 1.44a48.997 48.997 0 0 1-2.728-1.198zm6.457.772a27.32 27.32 0 0 0 2.91.459l.216 1.557a24.508 24.508 0 0 1-2.956-.399zm12.58.407l-.15-1.441a.038.038 0 0 0 0-.017l-.225-2.173h.023a.037.037 0 0 0 .023 0 .149.149 0 1 0-.075-.288L43.796 2.009a.147.147 0 0 0-.227-.104 24.9 24.9 0 0 1-2.305 1.397l-.127.07-.139.074a18.49 18.49 0 0 1-3.382 1.407l-.176.048a7.852 7.852 0 0 1-2.386.315c-.253 0-.518-.032-.783-.055l-.22-.02c-.7-.064-1.44-.159-2.192-.254l-.317-.04-.274-.032c-.772-.1-1.57-.196-2.394-.262h-.288A24.49 24.49 0 0 0 25.52 4.5h-.288c-1.12.07-2.23.24-3.317.513l-.098.026h-.04l-.107.029h-.034l-.225.06c-.977.283-1.924.658-2.83 1.121l-.074.037-.052.026-.05.026-.089.046a23.56 23.56 0 0 0-2.757 1.703l-.115.084-.124.09a25.044 25.044 0 0 0-2.305 1.89l-.095.089-.035.034-.083.078c-.643.57-1.212 1.22-1.695 1.93-.05.08-.088.167-.115.257a.433.433 0 0 0 0 .058.344.344 0 0 0 0 .075.288.288 0 0 0 .09.158.729.729 0 0 0 .434.147h.237c.167 0 .366 0 .6-.017h.132l.685-.052.554-.046c.958-.082 1.92-.114 2.88-.095l.303.026 1.245.109c.364.065.724.15 1.078.254l.207.06c1.057.343 2.088.757 3.09 1.24l.215.1c.553.26 1.124.532 1.712.818.588.286 1.17.565 1.749.836l.06.029.07.031c.887.418 1.794.824 2.74 1.199l.051.02.096.04.057.024.075.028a18.81 18.81 0 0 0 3.334 1.008h.049l.1.024.099.017h.04c.984.188 1.977.318 2.976.39h.288c.545.03 1.087.051 1.62.051.331 0 .657 0 .977-.023h.144a17.54 17.54 0 0 0 3.87-.576l.1-.03h.038l.066-.02.075-.022c.965-.288 1.729-.695 2.198-1.19a.141.141 0 0 0 .038-.046z"/></g><g><path fill="none" stroke="#263238" stroke-linecap="round" stroke-linejoin="round" stroke-miterlimit="20" stroke-width=".86" d="M43.39 1.1l3.302 29.427"/></g><g><path fill="none" stroke="#263238" stroke-linecap="round" stroke-linejoin="round" stroke-miterlimit="20" stroke-width=".5" d="M47.22 25.73v0s1.729-.468 1.93.065c.202.533.067 1.997 0 2.199-.066.202-.864.467-.864.066 0-.4-.452-1.331-.452-1.331v0z"/></g><g><path fill="#fff" d="M51.08 41.848c.57-.844.693-1.913.33-2.864-.599-1.663-3.128-4.527-4.059-6.193-.93-1.665-.334-1.53-.334-1.53s.864-.4.933-.864c.07-.464.332-3.397.332-3.864 0-.467-2.262-1.397-3.196-1.53-.933-.132-.6.732-.331 2.729.268 1.997.665 7.59.997 9.523.331 1.933.8 3.993 2.53 4.99 1.728.997 2.797-.397 2.797-.397z"/><path fill="none" stroke="#263238" stroke-linecap="round" stroke-linejoin="round" stroke-miterlimit="20" stroke-width=".5" d="M51.08 41.848c.57-.844.693-1.913.33-2.864-.599-1.663-3.128-4.527-4.059-6.193-.93-1.665-.334-1.53-.334-1.53v0s.864-.4.933-.864c.07-.464.332-3.397.332-3.864 0-.467-2.262-1.397-3.196-1.53-.933-.132-.6.732-.331 2.729.268 1.997.665 7.59.997 9.523.331 1.933.8 3.993 2.53 4.99 1.728.997 2.797-.397 2.797-.397z"/></g><g><path fill="none" stroke="#263238" stroke-linecap="round" stroke-linejoin="round" stroke-miterlimit="20" stroke-width=".5" d="M44.69 26.66v0s.464-.4.798-.4 2.593.864 2.593.864v0"/></g><g><path fill="none" stroke="#263238" stroke-linecap="round" stroke-linejoin="round" stroke-miterlimit="20" stroke-width=".5" d="M45.15 28.388c.315-.175.65-.309 1-.397.4-.067 1.798.198 1.798.198v0"/></g><g><path fill="none" stroke="#263238" stroke-linecap="round" stroke-linejoin="round" stroke-miterlimit="20" stroke-width=".5" d="M45.95 29.26a.902.902 0 0 1 .732-.268c.411.026.816.116 1.199.268"/></g><g><path fill="none" stroke="#263238" stroke-linecap="round" stroke-linejoin="round" stroke-miterlimit="20" stroke-width=".5" d="M47.215 30.26l-1.265.533"/></g><g><path fill="none" stroke="#263238" stroke-linecap="round" stroke-linejoin="round" stroke-miterlimit="20" stroke-width=".86" d="M46.76 30.7l2.564 23.2"/></g><g><path fill="#fff" d="M51.546 43.376s-.864-1.133-1.729-2.13c-.864-.996-2.066.067-2.066.067s-1.331.199-1.331.665c0 .467.467 1.265.467 1.265s-.199 1.265.334 1.73c.533.463.864.598 1.196.598.331 0 15.781.266 17.046.2 1.265-.067 4.322.466 5.39-1 1.07-1.467.401-3.66-1.863-3.862-2.265-.201-11.45 2.533-17.444 2.467z"/><path fill="none" stroke="#263238" stroke-linecap="round" stroke-linejoin="round" stroke-miterlimit="20" stroke-width=".5" d="M51.546 43.376s-.864-1.133-1.729-2.13c-.864-.996-2.066.067-2.066.067v0s-1.331.199-1.331.665c0 .467.467 1.265.467 1.265v0s-.199 1.265.334 1.73c.533.463.864.598 1.196.598.331 0 15.781.266 17.046.2 1.265-.067 4.322.466 5.39-1 1.07-1.467.401-3.66-1.863-3.862-2.265-.201-11.45 2.533-17.444 2.467z"/></g></g></g></g></svg>