<svg xmlns="http://www.w3.org/2000/svg" width="340.175" height="305.692" viewBox="0 0 340.175 305.692">
  <g id="Mailbox-bro" transform="translate(-0.219 -0.05)" opacity="0.501">
    <g id="freepik--background-simple--inject-1--inject-2" transform="translate(9 23)">
      <path id="Path" d="M272.09,46.091C258.063,38.407,243.45,35.323,227.5,37.3c-19.643,2.426-35.158,5.285-53.954-2.038-15.8-6.15-30.236-15.331-45.309-22.943C97.409-3.33,66.8-8.173,43.689,22.688A189.449,189.449,0,0,0,15.608,77.862C5.187,109.958-3.377,145.5,1.32,179.02c5.941,42.494,42.37,62.443,85.948,47.048,17.624-6.223,34.635-15.331,53.431-17.937,39.332-5.465,71.749,30.662,118.915,21.878C340.91,214.895,334.906,80.5,272.09,46.091Z" transform="translate(0.159 0.408)" fill="#adc7f7"/>
      <path id="Path-2" data-name="Path" d="M272.09,46.091C258.063,38.407,243.45,35.323,227.5,37.3c-19.643,2.426-35.158,5.285-53.954-2.038-15.8-6.15-30.236-15.331-45.309-22.943C97.409-3.33,66.8-8.173,43.689,22.688A189.449,189.449,0,0,0,15.608,77.862C5.187,109.958-3.377,145.5,1.32,179.02c5.941,42.494,42.37,62.443,85.948,47.048,17.624-6.223,34.635-15.331,53.431-17.937,39.332-5.465,71.749,30.662,118.915,21.878C340.91,214.895,334.906,80.5,272.09,46.091Z" transform="translate(0.159 0.408)" fill="#fff" opacity="0.7"/>
    </g>
    <g id="freepik--Clouds--inject-1--inject-2" transform="translate(54)">
      <path id="Path-3" data-name="Path" d="M127.677,34.368c-5.733-3.129-8.333-.523-10.419-3.129s5.733-9.369-9.931-16.131c0,0-1.038-14.571-22.408-15.094S69.309,14.585,63.576,18.227s-7.295-2.047-13.028,1.56-3.124,10.928-7.809,11.965-10.951-4.68-16.684-1.037-5.733,6.763-8.333,6.763S9.9,35.4,6.78,37.478,0,42.167,0,42.167H131.811S133.409,37.487,127.677,34.368Z" transform="translate(112.157 0.05)" fill="#adc7f7"/>
      <path id="Path-4" data-name="Path" d="M127.677,34.368c-5.733-3.129-8.333-.523-10.419-3.129s5.733-9.369-9.931-16.131c0,0-1.038-14.571-22.408-15.094S69.309,14.585,63.576,18.227s-7.295-2.047-13.028,1.56-3.124,10.928-7.809,11.965-10.951-4.68-16.684-1.037-5.733,6.763-8.333,6.763S9.9,35.4,6.78,37.478,0,42.167,0,42.167H131.811S133.409,37.487,127.677,34.368Z" transform="translate(112.157 0.05)" fill="#fff" opacity="0.5"/>
      <path id="Path-5" data-name="Path" d="M89.695,24.139c-4.027-2.191-5.859-.37-7.322-2.191s4.027-6.582-6.952-11.334c0,0-.731-10.234-15.745-10.6S48.7,10.244,44.671,12.8s-5.119-1.461-9.146,1.1-2.2,7.673-5.489,8.4-7.692-3.291-11.737-.73-4.027,4.752-5.85,4.752-5.5-1.461-7.692,0S0,29.621,0,29.621H92.62S93.722,26.33,89.695,24.139Z" transform="translate(0.659 127.255)" fill="#fff"/>
      <path id="Path-6" data-name="Path" d="M89.695,24.139c-4.027-2.191-5.859-.37-7.322-2.191s4.027-6.582-6.952-11.334c0,0-.731-10.234-15.745-10.6S48.7,10.244,44.671,12.8s-5.119-1.461-9.146,1.1-2.2,7.673-5.489,8.4-7.692-3.291-11.737-.73-4.027,4.752-5.85,4.752-5.5-1.461-7.692,0S0,29.621,0,29.621H92.62S93.722,26.33,89.695,24.139Z" transform="translate(0.659 127.255)" fill="#fff" opacity="0.5"/>
    </g>
    <g id="freepik--Plants--inject-1--inject-2" transform="translate(218 78)">
      <path id="Path-7" data-name="Path" d="M1.476,225.594H58.7c-1.1-6.991-5.6-5.761-6.193-16.6-.3-5.427,4.763-12.21,4.319-19.373-.362-5.906-6.184-11.957-6.637-18.713-.407-6.1,4.527-12.861,4.084-19.428-.462-6.2-6.338-12.165-6.89-18.623-.507-6.331,4.364-13.124,3.785-19.491s-6.583-12.219-7.243-18.5c-.661-6.449,4.056-13.395,3.332-19.563-.761-6.557-6.954-12.219-7.8-18.261-.905-6.72,3.45-13.9,2.427-19.708C40.627,30.232,34,25.086,32.6,19.84,30.006,10.063,30.332.648,27.263.032c-3.269-.651-4.02,8.583-6.5,18.9-1.25,5.183-7.723,10.437-8.792,17.555-.86,5.761,3.721,12.771,2.97,19.464-.67,6-6.709,11.758-7.3,18.279-.552,6.132,4.346,12.888,3.866,19.3-.471,6.232-6.338,12.174-6.727,18.505s4.645,12.952,4.3,19.2c-.353,6.4-6.1,12.454-6.4,18.614-.308,6.521,4.844,13.1,4.591,19.138-.281,6.7-5.949,12.834-6.157,18.7C.86,194.8,6.085,201.355,5.922,206.772,5.577,218.53.19,216.079,0,225.54Z" transform="translate(39.151 0.402)" fill="#adc7f7"/>
      <path id="Path-8" data-name="Path" d="M.453,0V204.135" transform="translate(64.739 19.22)" fill="none" stroke="#000" stroke-miterlimit="10" stroke-width="0.637"/>
      <path id="Path-9" data-name="Path" d="M16.941,2.116,7.624,10.157,0,0" transform="translate(57.187 38.503)" fill="none" stroke="#000" stroke-miterlimit="10" stroke-width="0.637"/>
      <path id="Path-10" data-name="Path" d="M16.941,2.116,7.624,10.148,0,0" transform="translate(57.187 74.039)" fill="none" stroke="#000" stroke-miterlimit="10" stroke-width="0.637"/>
      <path id="Path-11" data-name="Path" d="M16.941,2.116,7.624,10.157,0,0" transform="translate(57.187 107.449)" fill="none" stroke="#000" stroke-miterlimit="10" stroke-width="0.637"/>
      <path id="Path-12" data-name="Path" d="M16.941,2.116,7.624,10.148,0,0" transform="translate(57.187 147.218)" fill="none" stroke="#000" stroke-miterlimit="10" stroke-width="0.637"/>
      <path id="Path-13" data-name="Path" d="M16.941,2.116,7.624,10.148,0,0" transform="translate(57.187 187.403)" fill="none" stroke="#000" stroke-miterlimit="10" stroke-width="0.637"/>
      <path id="Path-14" data-name="Path" d="M1.114,174.169H45.29c-.851-5.427-4.319-4.45-4.781-12.807-.235-4.215,3.667-9.424,3.332-14.96-.281-4.522-4.772-9.234-5.125-14.471-.317-4.7,3.522-9.949,3.151-15-.353-4.794-4.907-9.388-5.315-14.372s3.368-10.139,2.925-15.05S34.388,78.08,33.9,73.241c-.507-4.984,3.133-10.338,2.571-15.113-.589-5.056-5.369-9.424-6.012-14.082-.724-5.192,2.662-10.736,1.865-15.213-.969-5.49-6.085-9.47-7.153-13.513C23.161,7.777,23.415.5,21.042.025c-2.526-.506-3.106,6.621-5.016,14.6-.96,4-5.967,8.059-6.791,13.567-.661,4.45,2.87,9.859,2.291,15.023-.516,4.631-5.17,9.045-5.632,14.109-.426,4.73,3.359,9.949,2.988,14.9C8.52,77.031,4,81.616,3.685,86.5s3.622,10,3.323,14.824S2.3,110.939,2.073,115.7c-.244,5.029,3.73,10.1,3.54,14.77C5.4,135.639,1.023,140.415.86,144.937c-.2,5.481,3.839,10.555,3.712,14.725C4.3,168.706.145,166.852,0,174.133Z" transform="translate(0.534 51.827)" fill="#adc7f7"/>
      <path id="Path-15" data-name="Path" d="M.453,0V157.574" transform="translate(20.164 66.387)" fill="none" stroke="#000" stroke-miterlimit="10" stroke-width="0.637"/>
      <path id="Path-16" data-name="Path" d="M13.074,1.637l-7.189,6.2L0,0" transform="translate(14.433 81.265)" fill="none" stroke="#000" stroke-miterlimit="10" stroke-width="0.637"/>
      <path id="Path-17" data-name="Path" d="M13.074,1.628l-7.189,6.2L0,0" transform="translate(14.433 108.697)" fill="none" stroke="#000" stroke-miterlimit="10" stroke-width="0.637"/>
      <path id="Path-18" data-name="Path" d="M13.074,1.628l-7.189,6.2L0,0" transform="translate(14.433 134.492)" fill="none" stroke="#000" stroke-miterlimit="10" stroke-width="0.637"/>
      <path id="Path-19" data-name="Path" d="M13.074,1.637l-7.189,6.2L0,0" transform="translate(14.433 165.18)" fill="none" stroke="#000" stroke-miterlimit="10" stroke-width="0.637"/>
      <path id="Path-20" data-name="Path" d="M13.074,1.637l-7.189,6.2L0,0" transform="translate(14.433 196.203)" fill="none" stroke="#000" stroke-miterlimit="10" stroke-width="0.637"/>
    </g>
    <g id="freepik--Mailbox--inject-1--inject-2" transform="translate(66 31)">
      <path id="Path-21" data-name="Path" d="M0,182.316V0H9.65V182.316" transform="translate(115.152 90.373)" fill="#2e353a" stroke="#2e353a" stroke-linecap="round" stroke-linejoin="round" stroke-miterlimit="10" stroke-width="0.637"/>
      <path id="Path-22" data-name="Path" d="M0,182.316V0H9.65V182.316" transform="translate(110.332 90.373)" fill="#adc7f7" stroke="#2e353a" stroke-linecap="round" stroke-linejoin="round" stroke-miterlimit="10" stroke-width="0.637"/>
      <rect id="Rectangle" width="9.65" height="21.642" transform="translate(110.332 90.373)" fill="#2e353a" opacity="0.3" style="mix-blend-mode: multiply;isolation: isolate"/>
      <path id="Path-23" data-name="Path" d="M71.5,0H0L31.164,76.324h71.508V31.074A31.119,31.119,0,0,0,71.5,0Z" transform="translate(80.009 19.198)" fill="#adc7f7" stroke="#2e353a" stroke-linecap="round" stroke-linejoin="round" stroke-miterlimit="10" stroke-width="0.637"/>
      <path id="Path-24" data-name="Path" d="M0,33.933,5.426,47.3H76.961V2.047A19.27,19.27,0,0,0,76.889,0H.018Z" transform="translate(105.72 48.226)" opacity="0.3" style="mix-blend-mode: multiply;isolation: isolate"/>
      <path id="Path-25" data-name="Path" d="M7.524.451H0" transform="translate(143.459 47.775)" fill="none" stroke="#2e353a" stroke-linecap="round" stroke-linejoin="round" stroke-miterlimit="10" stroke-width="0.637"/>
      <path id="Path-26" data-name="Path" d="M22.772.451H0" transform="translate(159.837 47.775)" fill="none" stroke="#2e353a" stroke-linecap="round" stroke-linejoin="round" stroke-miterlimit="10" stroke-width="0.637"/>
      <path id="Path-27" data-name="Path" d="M31.173,0h0A31.128,31.128,0,0,1,62.347,31.083v45.25H0V31.074A31.128,31.128,0,0,1,31.173,0Z" transform="translate(48.835 19.198)" fill="#2e353a" stroke="#2e353a" stroke-linecap="round" stroke-linejoin="round" stroke-miterlimit="10" stroke-width="0.637"/>
      <rect id="Rectangle-2" data-name="Rectangle" width="53.719" height="5.149" transform="translate(57.454 90.373)" fill="#adc7f7" stroke="#2e353a" stroke-linecap="round" stroke-linejoin="round" stroke-miterlimit="10" stroke-width="0.637"/>
      <rect id="Rectangle-3" data-name="Rectangle" width="111.173" height="5.149" transform="translate(0 90.373)" fill="#adc7f7" stroke="#2e353a" stroke-linecap="round" stroke-linejoin="round" stroke-miterlimit="10" stroke-width="0.637"/>
      <rect id="Rectangle-4" data-name="Rectangle" width="53.719" height="5.149" transform="translate(57.454 90.373)" opacity="0.3"/>
      <rect id="Rectangle-5" data-name="Rectangle" width="22.311" height="15.627" transform="translate(133.845 0.803)" fill="#2e353a" stroke="#2e353a" stroke-linecap="round" stroke-linejoin="round" stroke-miterlimit="10" stroke-width="0.637"/>
      <rect id="Rectangle-6" data-name="Rectangle" width="4.82" height="48.694" transform="translate(130.834 0.803)" fill="#fff" stroke="#2e353a" stroke-linecap="round" stroke-linejoin="round" stroke-miterlimit="10" stroke-width="0.637"/>
      <ellipse id="Oval" cx="5.426" cy="5.41" rx="5.426" ry="5.41" transform="translate(127.813 45.286)" fill="#2e353a" stroke="#2e353a" stroke-linecap="round" stroke-linejoin="round" stroke-miterlimit="10" stroke-width="0.637"/>
    </g>
    <g id="freepik--paper-planes--inject-1--inject-2" transform="translate(0 19)">
      <path id="Path-28" data-name="Path" d="M0,0C12.556,6.383,34.385,16.611,54.518,21.757" transform="translate(119.374 43.468)" fill="none" stroke="#fff" stroke-linecap="round" stroke-linejoin="round" stroke-miterlimit="10" stroke-width="0.637" stroke-dasharray="1.275 2.55"/>
      <path id="Path-29" data-name="Path" d="M0,0S4.023,2.275,10.536,5.588" transform="translate(108.838 37.916)" fill="none" stroke="#2e353a" stroke-linecap="round" stroke-linejoin="round" stroke-miterlimit="10" stroke-width="0.637" stroke-dasharray="1.275 2.55"/>
      <path id="Path-30" data-name="Path" d="M56.449,37.456l9.029-21.468L0,0,56.449,37.456Z" transform="translate(47.87 0.126)" fill="#fff" stroke="#2e353a" stroke-linecap="round" stroke-linejoin="round" stroke-miterlimit="10" stroke-width="0.805"/>
      <path id="Path-31" data-name="Path" d="M60.85,18.588l-4.4,18.868L0,0,60.85,18.588Z" transform="translate(47.87 0.126)" fill="#adc7f7" stroke="#2e353a" stroke-linecap="round" stroke-linejoin="round" stroke-miterlimit="10" stroke-width="0.805"/>
      <path id="Path-32" data-name="Path" d="M60.85,18.588,50.576,27.4,0,0,60.85,18.588Z" transform="translate(47.87 0.126)" fill="#fff" stroke="#2e353a" stroke-linecap="round" stroke-linejoin="round" stroke-miterlimit="10" stroke-width="0.805"/>
      <path id="Path-33" data-name="Path" d="M65.478,15.988l9.147-3.719L0,0,65.478,15.988Z" transform="translate(47.87 0.126)" fill="#fff" stroke="#2e353a" stroke-linecap="round" stroke-linejoin="round" stroke-miterlimit="10" stroke-width="0.805"/>
      <path id="Path-34" data-name="Path" d="M0,0,2.12,1.3" transform="translate(91.6 34.242)" fill="none" stroke="#2e353a" stroke-linecap="round" stroke-linejoin="round" stroke-miterlimit="10" stroke-width="0.637"/>
      <path id="Path-35" data-name="Path" d="M0,0,7.1,4.351" transform="translate(80.036 27.146)" fill="none" stroke="#2e353a" stroke-linecap="round" stroke-linejoin="round" stroke-miterlimit="10" stroke-width="0.637"/>
      <path id="Path-36" data-name="Path" d="M0,23.282V0L66.551,10.707,0,23.282Z" transform="translate(72.063 55.394)" fill="#fff" stroke="#2e353a" stroke-linecap="round" stroke-linejoin="round" stroke-miterlimit="10" stroke-width="0.805"/>
      <path id="Path-37" data-name="Path" d="M3.256,0,0,19.094,66.551,6.518,3.256,0Z" transform="translate(72.063 59.583)" fill="#adc7f7" stroke="#2e353a" stroke-linecap="round" stroke-linejoin="round" stroke-miterlimit="10" stroke-width="0.805"/>
      <path id="Path-38" data-name="Path" d="M0,0,6.053,12.106,63.295,6.518,0,0Z" transform="translate(75.319 59.583)" fill="#fff" stroke="#2e353a" stroke-linecap="round" stroke-linejoin="round" stroke-miterlimit="10" stroke-width="0.805"/>
      <path id="Path-39" data-name="Path" d="M6.982,6.987,0,0,73.533,17.694,6.982,6.987Z" transform="translate(65.081 48.406)" fill="#fff" stroke="#2e353a" stroke-linecap="round" stroke-linejoin="round" stroke-miterlimit="10" stroke-width="0.805"/>
      <path id="Path-40" data-name="Path" d="M0,1.174,5.773,0" transform="translate(95.894 77.069)" fill="none" stroke="#2e353a" stroke-linecap="round" stroke-linejoin="round" stroke-miterlimit="10" stroke-width="0.637"/>
      <path id="Path-41" data-name="Path" d="M0,2.952,14.514,0" transform="translate(75.617 79.417)" fill="none" stroke="#2e353a" stroke-linecap="round" stroke-linejoin="round" stroke-miterlimit="10" stroke-width="0.637"/>
      <path id="Path-42" data-name="Path" d="M63.486,0S11.168,9.028,1.246,55.972s42.4,49.652,51.415,27.083-30.669-31.6-39.689-9.93S31.013,131.8,68,133.61c30.732,1.5,116.893-34.4,170.482-43.477,0,0,39.689-11,101.027-8.585" transform="translate(0.558 77.241)" fill="none" stroke="#2e353a" stroke-linecap="round" stroke-linejoin="round" stroke-miterlimit="10" stroke-width="0.637" stroke-dasharray="1.275 2.55"/>
    </g>
    <g id="freepik--Fence--inject-1--inject-2" transform="translate(5 188)">
      <path id="Path-43" data-name="Path" d="M0,.453H15.059" transform="translate(317.374 55.34)" fill="#fff" stroke="#2e353a" stroke-linecap="round" stroke-linejoin="round" stroke-miterlimit="10" stroke-width="0.637"/>
      <path id="Path-44" data-name="Path" d="M0,.453H15.059" transform="translate(317.374 77.69)" fill="#fff" stroke="#2e353a" stroke-linecap="round" stroke-linejoin="round" stroke-miterlimit="10" stroke-width="0.637"/>
      <path id="Path-45" data-name="Path" d="M0,21.154H315.27V0H0" transform="translate(0.298 56.392)" fill="#fff" stroke="#2e353a" stroke-linecap="round" stroke-linejoin="round" stroke-miterlimit="10" stroke-width="0.637"/>
      <path id="Path-46" data-name="Path" d="M0,116.122V9.7a1.934,1.934,0,0,1,.6-1.4L8.835.52A1.92,1.92,0,0,1,11.545.6l7.227,7.713a1.97,1.97,0,0,1,.515,1.314V116.122" transform="translate(22.213 0.395)" fill="#2e353a" stroke="#2e353a" stroke-linecap="round" stroke-linejoin="round" stroke-miterlimit="10" stroke-width="0.637"/>
      <path id="Path-47" data-name="Path" d="M0,117.032V9.705a1.906,1.906,0,0,1,.605-1.4L8.844.524a1.911,1.911,0,0,1,2.71.082l7.227,7.713A1.925,1.925,0,0,1,19.3,9.633v107.4" transform="translate(19.874 0.391)" fill="#fff" stroke="#2e353a" stroke-linecap="round" stroke-linejoin="round" stroke-miterlimit="10" stroke-width="0.637"/>
      <path id="Path-48" data-name="Path" d="M0,116.126V9.705a1.934,1.934,0,0,1,.6-1.4L8.844.524a1.911,1.911,0,0,1,2.71.082l7.227,7.713A1.925,1.925,0,0,1,19.3,9.633V116.126" transform="translate(91.681 0.391)" fill="#2e353a" stroke="#2e353a" stroke-linecap="round" stroke-linejoin="round" stroke-miterlimit="10" stroke-width="0.637"/>
      <path id="Path-49" data-name="Path" d="M0,117.028V9.7a1.906,1.906,0,0,1,.605-1.4L8.844.52A1.92,1.92,0,0,1,11.554.6l7.227,7.713A1.934,1.934,0,0,1,19.3,9.629v107.4" transform="translate(89.73 0.395)" fill="#fff" stroke="#2e353a" stroke-linecap="round" stroke-linejoin="round" stroke-miterlimit="10" stroke-width="0.637"/>
      <path id="Path-50" data-name="Path" d="M0,116.122V9.7a1.906,1.906,0,0,1,.605-1.4L8.844.52A1.92,1.92,0,0,1,11.554.6l7.227,7.713A1.934,1.934,0,0,1,19.3,9.629v107.4" transform="translate(161.537 0.395)" fill="#2e353a" stroke="#2e353a" stroke-linecap="round" stroke-linejoin="round" stroke-miterlimit="10" stroke-width="0.637"/>
      <path id="Path-51" data-name="Path" d="M0,117.032V9.705a1.934,1.934,0,0,1,.6-1.4L8.844.524a1.911,1.911,0,0,1,2.71.082l7.227,7.713A1.925,1.925,0,0,1,19.3,9.633v107.4" transform="translate(159.595 0.391)" fill="#fff" stroke="#2e353a" stroke-linecap="round" stroke-linejoin="round" stroke-miterlimit="10" stroke-width="0.637"/>
      <path id="Path-52" data-name="Path" d="M0,116.122V9.7a1.934,1.934,0,0,1,.6-1.4L8.835.52A1.92,1.92,0,0,1,11.545.6l7.227,7.713a1.97,1.97,0,0,1,.515,1.314V116.122" transform="translate(231.402 0.395)" fill="#2e353a" stroke="#2e353a" stroke-linecap="round" stroke-linejoin="round" stroke-miterlimit="10" stroke-width="0.637"/>
      <path id="Path-53" data-name="Path" d="M0,117.032V9.705a1.906,1.906,0,0,1,.605-1.4L8.844.524a1.911,1.911,0,0,1,2.71.082l7.227,7.713A1.925,1.925,0,0,1,19.3,9.633v107.4" transform="translate(229.451 0.391)" fill="#fff" stroke="#2e353a" stroke-linecap="round" stroke-linejoin="round" stroke-miterlimit="10" stroke-width="0.637"/>
      <path id="Path-54" data-name="Path" d="M0,116.126V9.705a1.934,1.934,0,0,1,.6-1.4L8.844.524a1.911,1.911,0,0,1,2.71.082l7.227,7.713A1.925,1.925,0,0,1,19.3,9.633V116.126" transform="translate(301.259 0.391)" fill="#2e353a" stroke="#2e353a" stroke-linecap="round" stroke-linejoin="round" stroke-miterlimit="10" stroke-width="0.637"/>
      <path id="Path-55" data-name="Path" d="M0,117.028V9.7a1.906,1.906,0,0,1,.605-1.4L8.844.52A1.92,1.92,0,0,1,11.554.6l7.227,7.713A1.934,1.934,0,0,1,19.3,9.629v107.4" transform="translate(299.307 0.395)" fill="#fff" stroke="#2e353a" stroke-linecap="round" stroke-linejoin="round" stroke-miterlimit="10" stroke-width="0.637"/>
      <path id="Path-56" data-name="Path" d="M.452,0V7.758" transform="translate(30.967 0.997)" fill="none" stroke="#2e353a" stroke-linecap="round" stroke-linejoin="round" stroke-miterlimit="10" stroke-width="0.637"/>
      <path id="Path-57" data-name="Path" d="M.452,0V18.362" transform="translate(34.065 5.003)" fill="none" stroke="#2e353a" stroke-linecap="round" stroke-linejoin="round" stroke-miterlimit="10" stroke-width="0.637"/>
      <path id="Path-58" data-name="Path" d="M.452,0V23.229" transform="translate(93.081 6.507)" fill="none" stroke="#2e353a" stroke-linecap="round" stroke-linejoin="round" stroke-miterlimit="10" stroke-width="0.637"/>
      <path id="Path-59" data-name="Path" d="M.452,0V10.115" transform="translate(96.071 3.507)" fill="none" stroke="#2e353a" stroke-linecap="round" stroke-linejoin="round" stroke-miterlimit="10" stroke-width="0.637"/>
      <path id="Path-60" data-name="Path" d="M.452,0V22.83" transform="translate(167.987 0.915)" fill="none" stroke="#2e353a" stroke-linecap="round" stroke-linejoin="round" stroke-miterlimit="10" stroke-width="0.637"/>
      <path id="Path-61" data-name="Path" d="M.452,0V33.733" transform="translate(172.278 2.755)" fill="none" stroke="#2e353a" stroke-linecap="round" stroke-linejoin="round" stroke-miterlimit="10" stroke-width="0.637"/>
      <path id="Path-62" data-name="Path" d="M.452,0V25.477" transform="translate(232.414 6.507)" fill="none" stroke="#2e353a" stroke-linecap="round" stroke-linejoin="round" stroke-miterlimit="10" stroke-width="0.637"/>
      <path id="Path-63" data-name="Path" d="M.452,0V6.371" transform="translate(242.125 3.507)" fill="none" stroke="#2e353a" stroke-linecap="round" stroke-linejoin="round" stroke-miterlimit="10" stroke-width="0.637"/>
      <path id="Path-64" data-name="Path" d="M.452,0V13.5" transform="translate(305.251 3.127)" fill="none" stroke="#2e353a" stroke-linecap="round" stroke-linejoin="round" stroke-miterlimit="10" stroke-width="0.637"/>
      <path id="Path-65" data-name="Path" d="M.452,0V38.972" transform="translate(313.472 4.631)" fill="none" stroke="#2e353a" stroke-linecap="round" stroke-linejoin="round" stroke-miterlimit="10" stroke-width="0.637"/>
      <path id="Path-66" data-name="Path" d="M8.22.453H0" transform="translate(290.762 61.141)" fill="none" stroke="#2e353a" stroke-linecap="round" stroke-linejoin="round" stroke-miterlimit="10" stroke-width="0.637"/>
      <path id="Path-67" data-name="Path" d="M28.763.453H0" transform="translate(270.219 67.512)" fill="none" stroke="#2e353a" stroke-linecap="round" stroke-linejoin="round" stroke-miterlimit="10" stroke-width="0.637"/>
      <path id="Path-68" data-name="Path" d="M13.071.453H0" transform="translate(178.701 67.512)" fill="none" stroke="#2e353a" stroke-linecap="round" stroke-linejoin="round" stroke-miterlimit="10" stroke-width="0.637"/>
      <path id="Path-69" data-name="Path" d="M13.071.453H0" transform="translate(109.974 67.512)" fill="none" stroke="#2e353a" stroke-linecap="round" stroke-linejoin="round" stroke-miterlimit="10" stroke-width="0.637"/>
      <path id="Path-70" data-name="Path" d="M13.071.453H0" transform="translate(6.504 64.141)" fill="none" stroke="#2e353a" stroke-linecap="round" stroke-linejoin="round" stroke-miterlimit="10" stroke-width="0.637"/>
      <path id="Path-71" data-name="Path" d="M5.23.453H0" transform="translate(14.345 70.131)" fill="none" stroke="#2e353a" stroke-linecap="round" stroke-linejoin="round" stroke-miterlimit="10" stroke-width="0.637"/>
      <path id="Path-72" data-name="Path" d="M6.351.453H0" transform="translate(178.701 64.141)" fill="none" stroke="#2e353a" stroke-linecap="round" stroke-linejoin="round" stroke-miterlimit="10" stroke-width="0.637"/>
      <path id="Path-73" data-name="Path" d="M6.351.453H0" transform="translate(109.224 71.255)" fill="none" stroke="#2e353a" stroke-linecap="round" stroke-linejoin="round" stroke-miterlimit="10" stroke-width="0.637"/>
      <path id="Path-74" data-name="Path" d="M6.351.453H0" transform="translate(82.702 71.255)" fill="none" stroke="#2e353a" stroke-linecap="round" stroke-linejoin="round" stroke-miterlimit="10" stroke-width="0.637"/>
      <path id="Path-75" data-name="Path" d="M5.6.453H0" transform="translate(318.775 67.512)" fill="none" stroke="#2e353a" stroke-linecap="round" stroke-linejoin="round" stroke-miterlimit="10" stroke-width="0.637"/>
      <path id="Path-76" data-name="Path" d="M3.36.453H0" transform="translate(328.486 67.512)" fill="none" stroke="#2e353a" stroke-linecap="round" stroke-linejoin="round" stroke-miterlimit="10" stroke-width="0.637"/>
      <path id="Path-77" data-name="Path" d="M5.765,0S3.506,19.477.8,39.407,3.054,79.729,4.409,81.542" transform="translate(33.08 29.002)" fill="none" stroke="#2e353a" stroke-linecap="round" stroke-linejoin="round" stroke-miterlimit="10" stroke-width="0.637"/>
      <path id="Path-78" data-name="Path" d="M.054,6.344C.488,2.456.849,0,.849,0" transform="translate(29.856 62.083)" fill="none" stroke="#2e353a" stroke-linecap="round" stroke-linejoin="round" stroke-miterlimit="10" stroke-width="0.637"/>
      <path id="Path-79" data-name="Path" d="M8.13,33.534S0,31.721,0,17.22C0,11.266.379,5.166.831,0" transform="translate(28.447 74.745)" fill="none" stroke="#2e353a" stroke-linecap="round" stroke-linejoin="round" stroke-miterlimit="10" stroke-width="0.637"/>
      <path id="Path-80" data-name="Path" d="M3.43,0S5.237,1.359,2.075,16.767-.635,54.833,3.43,67.521" transform="translate(101.359 5.891)" fill="none" stroke="#2e353a" stroke-linecap="round" stroke-linejoin="round" stroke-miterlimit="10" stroke-width="0.637"/>
      <path id="Path-81" data-name="Path" d="M2.478,0S-2.038,13.595,1.123,32.628" transform="translate(106.827 34.44)" fill="none" stroke="#2e353a" stroke-linecap="round" stroke-linejoin="round" stroke-miterlimit="10" stroke-width="0.637"/>
      <path id="Path-82" data-name="Path" d="M.452,0S2.71,13.142,4.968,26.728s.452,32.628-1.355,37.6S0,73.394,0,73.394" transform="translate(160.345 43.041)" fill="none" stroke="#2e353a" stroke-linecap="round" stroke-linejoin="round" stroke-miterlimit="10" stroke-width="0.637"/>
      <path id="Path-83" data-name="Path" d="M4.517,1.042C2.5,7.242,0,0,0,0" transform="translate(164.789 108.732)" fill="none" stroke="#2e353a" stroke-linecap="round" stroke-linejoin="round" stroke-miterlimit="10" stroke-width="0.637"/>
      <path id="Path-84" data-name="Path" d="M0,0S4.255,22.033,1.852,38.619" transform="translate(169.225 63.443)" fill="none" stroke="#2e353a" stroke-linecap="round" stroke-linejoin="round" stroke-miterlimit="10" stroke-width="0.637"/>
      <path id="Path-85" data-name="Path" d="M0,0S4.517,9.516.452,18.58" transform="translate(159.893 70.693)" fill="none" stroke="#2e353a" stroke-linecap="round" stroke-linejoin="round" stroke-miterlimit="10" stroke-width="0.637"/>
      <path id="Path-86" data-name="Path" d="M0,0A61.994,61.994,0,0,0,2.376,8.157" transform="translate(244.176 72.035)" fill="none" stroke="#2e353a" stroke-linecap="round" stroke-linejoin="round" stroke-miterlimit="10" stroke-width="0.637"/>
      <path id="Path-87" data-name="Path" d="M5.521,0A126.138,126.138,0,0,0,.1,28.1a65,65,0,0,0,.8,14.438" transform="translate(242.385 24.924)" fill="none" stroke="#2e353a" stroke-linecap="round" stroke-linejoin="round" stroke-miterlimit="10" stroke-width="0.637"/>
      <path id="Path-88" data-name="Path" d="M0,0S4.065,15.408,6.323,20.845,7.678,39.416,4.968,45.76" transform="translate(239.325 66.597)" fill="none" stroke="#2e353a" stroke-linecap="round" stroke-linejoin="round" stroke-miterlimit="10" stroke-width="0.637"/>
      <path id="Path-89" data-name="Path" d="M0,0S9.034,16.314.452,43.041" transform="translate(300.283 31.721)" fill="none" stroke="#2e353a" stroke-linecap="round" stroke-linejoin="round" stroke-miterlimit="10" stroke-width="0.637"/>
      <path id="Path-90" data-name="Path" d="M8.3,0c.054,5.094-.4,11.547-2.43,16.985C1.807,27.86,0,31.486,0,31.486" transform="translate(300.283 59.582)" fill="none" stroke="#2e353a" stroke-linecap="round" stroke-linejoin="round" stroke-miterlimit="10" stroke-width="0.637"/>
      <path id="Path-91" data-name="Path" d="M.212,0s.3,1.949.479,4.949" transform="translate(307.749 50.754)" fill="none" stroke="#2e353a" stroke-linecap="round" stroke-linejoin="round" stroke-miterlimit="10" stroke-width="0.637"/>
    </g>
  </g>
</svg>
