<svg xmlns="http://www.w3.org/2000/svg" width="203" height="231" viewBox="0 0 203 231"><g><g><g><g><path fill="#fff" d="M135.38 221.07c2.413-2.838 4.666-5.817 6.221-9.147.339-.716 1.613-.34 1.577.374.31-.171.72-.197 1.188.036 10.015 5.022 19.483-4.407 24.92-10.767 10.677-12.497 18.395-27.563 24.472-42.47 6.768-16.603 6.941-35.1.59-52.338-6.724-18.273-21.542-35.702-43.74-37.686-24.775-2.214-46.663 12.42-58.391 30.951a87.542 87.542 0 0 0-12.161 31.127c-1.815 9.997-2.412 20.466.799 30.45 3.492 10.871 9.454 21.32 17.194 30.28 6.544 7.584 15.112 15.152 25.581 17.412-.13-.72-.266-1.44-.374-2.162-.31-1.99 3.081-2.11 3.37-.126.928 6.45 2.7 12.786 4.55 19.09.223-.284.439-.573.67-.853 1.159-1.405 2.361-2.78 3.535-4.171"/></g><g><path fill="#fff" d="M135.38 221.07c2.413-2.838 4.666-5.817 6.221-9.147.339-.716 1.613-.34 1.577.374.31-.171.72-.197 1.188.036 10.015 5.022 19.483-4.407 24.92-10.767 10.677-12.497 18.395-27.563 24.472-42.47 6.768-16.603 6.941-35.1.59-52.338-6.724-18.273-21.542-35.702-43.74-37.686-24.775-2.214-46.663 12.42-58.391 30.951a87.542 87.542 0 0 0-12.161 31.127c-1.815 9.997-2.412 20.466.799 30.45 3.492 10.871 9.454 21.32 17.194 30.28 6.544 7.584 15.112 15.152 25.581 17.412-.13-.72-.266-1.44-.374-2.162-.31-1.99 3.081-2.11 3.37-.126.928 6.45 2.7 12.786 4.55 19.09.223-.284.439-.573.67-.853 1.159-1.405 2.361-2.78 3.535-4.171"/></g><g><g><text dominant-baseline="text-before-edge" style="font-kerning:normal" fill="#0b0212" font-family="Noteworthy-Bold" font-size="24" transform="translate(92 97)"><tspan style="font-kerning:normal">ENJOY GIFTING</tspan></text></g></g><g><path d="M130.539 230.327c-.663.026-1.404-.39-1.591-1.006-1.599-5.181-3.19-10.382-4.4-15.64-.057-.006-.108-.003-.158-.012-13.817-2.214-25.02-12.778-32.84-22.951-8.308-10.816-15.35-23.818-17.052-36.931-1.348-10.391.173-21.401 2.991-31.339 3.003-10.623 7.747-20.789 14.551-29.733 13.076-17.2 35.237-30.076 59.357-27.35 21.37 2.417 37.015 18.072 44.683 35.815 7.596 17.587 9.101 37.755 2.621 55.336-5.285 14.317-12.55 28.472-21.68 40.952-6.357 8.693-20.044 25.769-33.781 16.917a1.376 1.376 0 0 1-.54-.63c-1.433 3.712-3.888 6.888-6.308 10.128-1.267 1.711-2.577 3.438-3.664 5.245-.497.83-1.16 1.16-2.19 1.2zm.64-4.222c.224-.283.44-.573.67-.852 1.16-1.406 2.362-2.781 3.535-4.172 2.412-2.839 4.666-5.818 6.221-9.148.339-.716 1.613-.34 1.577.374.31-.17.72-.197 1.188.036 10.015 5.022 19.483-4.407 24.92-10.768 10.677-12.497 18.395-27.564 24.472-42.472 6.768-16.604 6.94-35.102.59-52.342-6.724-18.274-21.542-35.704-43.74-37.688-24.775-2.214-46.663 12.42-58.392 30.954a87.55 87.55 0 0 0-12.16 31.129c-1.815 9.997-2.412 20.466.799 30.452 3.492 10.871 9.453 21.321 17.193 30.281 6.545 7.585 15.113 15.153 25.582 17.413-.13-.72-.266-1.44-.374-2.162-.31-1.991 3.081-2.11 3.37-.126.928 6.45 2.7 12.786 4.55 19.091z"/></g></g><g><g><path fill="#fff" d="M4.762 73.245c1.276 10.24 3.55 20.473 7.13 30.163 2.922 7.912 8.738 15.404 15.49 20.44 3.445 2.569 7.294 4.773 11.54 5.665 2.801.587 5.66.532 8.447.002.056-1.518 1.611-2.974 3.245-1.908.361.234.709.48 1.045.734.663-.12 1.128.4 1.215.992 3.183 2.801 5.322 6.397 7.634 9.92a58.128 58.128 0 0 0-.166-3.415c-.128-1.655-.242-3.4.676-4.871 1.17-1.875 3.733-2.57 5.667-3.287 4.053-1.503 8.185-2.786 12.242-4.28 9.196-3.388 18.181-8.035 24.787-15.461 5.436-6.11 8.958-13.715 11.085-21.563 4.471-16.501 4.012-34.697-.272-51.197-1.525-5.879-3.662-11.518-7.611-16.229-3.55-4.236-7.973-7.58-12.95-9.979-10.742-5.179-23.227-6.115-34.93-4.639C36.578 7.166 9.863 20.488 4.742 44.646c-.903 4.255-.999 8.745-.979 13.083a130.19 130.19 0 0 0 1 15.516"/></g><g><path fill="#fff" d="M4.762 73.245c1.276 10.24 3.55 20.473 7.13 30.163 2.922 7.912 8.738 15.404 15.49 20.44 3.445 2.569 7.294 4.773 11.54 5.665 2.801.587 5.66.532 8.447.002.056-1.518 1.611-2.974 3.245-1.908.361.234.709.48 1.045.734.663-.12 1.128.4 1.215.992 3.183 2.801 5.322 6.397 7.634 9.92a58.128 58.128 0 0 0-.166-3.415c-.128-1.655-.242-3.4.676-4.871 1.17-1.875 3.733-2.57 5.667-3.287 4.053-1.503 8.185-2.786 12.242-4.28 9.196-3.388 18.181-8.035 24.787-15.461 5.436-6.11 8.958-13.715 11.085-21.563 4.471-16.501 4.012-34.697-.272-51.197-1.525-5.879-3.662-11.518-7.611-16.229-3.55-4.236-7.973-7.58-12.95-9.979-10.742-5.179-23.227-6.115-34.93-4.639C36.578 7.166 9.863 20.488 4.742 44.646c-.903 4.255-.999 8.745-.979 13.083a130.19 130.19 0 0 0 1 15.516"/></g><g><g><text dominant-baseline="text-before-edge" style="font-kerning:normal" fill="#0b0212" font-family="Noteworthy-Bold" font-size="27" transform="translate(19 16)"><tspan style="font-kerning:normal">NO</tspan></text></g></g><g><path d="M4.107 90.576C1.685 80.434.172 69.977.02 59.542c-.112-7.591.2-15.346 3.136-22.445C7.74 26.013 16.537 17.33 26.785 11.326c10.91-6.392 23.402-10.161 36-11.098C74.606-.649 87.13.907 97.67 6.631c4.916 2.672 9.336 6.235 12.793 10.65 3.917 5 6.246 10.744 7.825 16.858 4.267 16.53 5.042 34.677.944 51.323-1.973 8.01-5.146 15.812-10.156 22.418-5.758 7.59-13.844 13.15-22.57 16.814-4.554 1.911-9.257 3.41-13.952 4.929-2.33.754-6.134 1.617-7.717 3.076-.48.443-.188.031-.442.574.265-.566-.022.581-.028.239-.044.775.029 1.55.098 2.322.29 3.205.333 6.37.03 9.578-.156 1.65-2.298 3.05-3.616 1.499-4.025-4.739-6.535-11.087-11.589-14.864-9.986 3.852-21.265-2.181-28.591-9.207-4.17-4-7.855-8.66-10.48-13.824-2.906-5.72-4.625-12.223-6.11-18.44zm-.345-32.85a130.19 130.19 0 0 0 1 15.515c1.276 10.24 3.55 20.473 7.13 30.163 2.922 7.912 8.737 15.404 15.49 20.44 3.444 2.569 7.294 4.773 11.54 5.665 2.8.587 5.66.532 8.446.002.056-1.518 1.611-2.974 3.246-1.908.36.234.708.48 1.045.734.662-.12 1.127.4 1.215.992 3.182 2.801 5.321 6.397 7.634 9.92a58.128 58.128 0 0 0-.167-3.415c-.128-1.655-.242-3.4.677-4.871 1.17-1.875 3.732-2.57 5.666-3.287 4.054-1.503 8.186-2.786 12.242-4.28 9.196-3.388 18.182-8.035 24.788-15.461 5.435-6.11 8.958-13.715 11.084-21.563 4.471-16.501 4.012-34.697-.272-51.197-1.525-5.879-3.662-11.518-7.61-16.229-3.551-4.236-7.974-7.58-12.95-9.979-10.742-5.179-23.227-6.115-34.93-4.639C36.576 7.162 9.861 20.484 4.74 44.642c-.903 4.255-.998 8.745-.978 13.083z"/></g></g><g><g><text dominant-baseline="text-before-edge" style="font-kerning:normal" fill="#0b0212" font-family="Noteworthy-Bold" font-size="23" transform="translate(14 59)"><tspan style="font-kerning:normal">STRESS</tspan></text></g></g></g></g></svg>