<svg xmlns="http://www.w3.org/2000/svg" width="203" height="231" viewBox="0 0 203 231"><g><g><g><path fill="#fff" d="M135.38 221.07c2.413-2.838 4.666-5.817 6.221-9.147.339-.716 1.613-.34 1.577.374.31-.171.72-.197 1.188.036 10.015 5.022 19.483-4.407 24.92-10.767 10.677-12.497 18.395-27.563 24.472-42.47 6.768-16.603 6.941-35.1.59-52.338-6.724-18.273-21.542-35.702-43.74-37.686-24.775-2.214-46.663 12.42-58.391 30.951a87.542 87.542 0 0 0-12.161 31.127c-1.815 9.997-2.412 20.466.799 30.45 3.492 10.871 9.454 21.32 17.194 30.28 6.544 7.584 15.112 15.152 25.581 17.412-.13-.72-.266-1.44-.374-2.162-.31-1.99 3.081-2.11 3.37-.126.928 6.45 2.7 12.786 4.55 19.09.223-.284.439-.573.67-.853 1.159-1.405 2.361-2.78 3.535-4.171"/></g><g><path fill="#fff" d="M135.38 221.07c2.413-2.838 4.666-5.817 6.221-9.147.339-.716 1.613-.34 1.577.374.31-.171.72-.197 1.188.036 10.015 5.022 19.483-4.407 24.92-10.767 10.677-12.497 18.395-27.563 24.472-42.47 6.768-16.603 6.941-35.1.59-52.338-6.724-18.273-21.542-35.702-43.74-37.686-24.775-2.214-46.663 12.42-58.391 30.951a87.542 87.542 0 0 0-12.161 31.127c-1.815 9.997-2.412 20.466.799 30.45 3.492 10.871 9.454 21.32 17.194 30.28 6.544 7.584 15.112 15.152 25.581 17.412-.13-.72-.266-1.44-.374-2.162-.31-1.99 3.081-2.11 3.37-.126.928 6.45 2.7 12.786 4.55 19.09.223-.284.439-.573.67-.853 1.159-1.405 2.361-2.78 3.535-4.171"/></g><g><path d="M116.819 132.338c-.119-3.026-.299-6.049-.457-9.073l-.03-.573a1.436 1.436 0 0 0-.122-2.391c-.268-5.403-.471-10.822-.253-16.223.06-1.453-2.118-1.421-2.227 0-.406 5.247-.357 10.498-.185 15.75-.942.007-1.905.104-2.77.112-1.669.016-3.326.132-4.983.291l-.017-.75c-.06-3.337-.088-6.681.057-10.016.05-1.132.093-2.268.212-3.394.04-.376.048-.765.068-1.144.013-.25.035-.59-.022-.492.304-.533-.195-1.21-.795-1.04-1.71.487-1.813 3.05-1.984 4.454-.405 3.33-.3 6.77-.294 10.117.013 6.565.371 13.121.405 19.682.009 1.802 2.78 1.803 2.784 0 .006-4.935-.211-9.87-.35-14.807a93.92 93.92 0 0 0 4.308.283c1.052.045 2.31.177 3.507.147.115 2.858.245 5.713.335 8.57.04 1.262-.642 5.931 1.507 5.931 2.144 0 1.353-4.23 1.306-5.434"/></g><g><path d="M139.98 134.83c.315 2.168-3.099 3.119-3.441.917a171.21 171.21 0 0 0-1.511-8.247c-.885.08-1.817-.007-2.663-.059l-2.868-.167c-.058.404-.114.807-.173 1.212-.312 2.136-.464 4.328-1.132 6.397-.273.843-1.801 1.023-1.954 0-.693-4.577.282-9.56.973-14.1.752-4.928 1.73-9.827 3.199-14.609.46-1.49 2.895-1.638 3.271 0 2.184 9.534 4.885 18.976 6.298 28.657zm-5.609-10.402c-.791-3.625-1.649-7.24-2.486-10.855a112.192 112.192 0 0 0-1.477 7.465 146.5 146.5 0 0 0-.536 3.568 54.27 54.27 0 0 1 3.13-.14c.463-.003.92-.031 1.37-.038z"/></g><g><path fill="#0b0212" d="M112.156 180.835c0-3.43-.488-6.979-.628-10.474.35-.002.7-.008 1.05-.008 1.877 0 3.746-.285 5.624-.307 2.558-.03 2.561-4 0-3.969-1.92.024-3.793.297-5.678.647-.334.062-.724.132-1.125.225l-.084-2.397c-.077-2.203.623-7.218-.603-9.856 2.18.214 4.381.245 6.567.275 2.558.034 5.792.87 7.73-1.103a1.154 1.154 0 0 0 0-1.613c-1.756-1.789-4.233-1.15-6.576-1.118-3.204.044-6.446.024-9.618.523-1.078.17-1.312 1.616-.719 2.366-1.769 2.352-.865 8.121-.869 10.526-.015 6.17.213 12.37.822 18.51.115 1.158 1.426 2.232 2.663 1.78 1.57-.575 1.444-.576 1.444-4.007z"/></g><g><path d="M143.923 160.756c-.154-2.919-.33-6.204-1.685-8.857-1.04-2.036-3.928-.252-3.02 1.766-.108-.238.191.58.24.755.123.429.238.86.337 1.296.256 1.128.407 2.275.527 3.423.3 2.896.347 5.819.258 8.728-.088 2.894-.353 5.791-.943 8.629-.388 1.866-.914 4.144-2.27 5.549-.358.371-.705.468-.907.437-.706-.108-1.454-.612-1.88-1.197-1.583-2.176-1.871-5.446-2.15-8.028-.684-6.367-.322-12.651.382-18.987.026-.245.039-.49.067-.735.132-1.207-1.672-1.578-2.217-.6-1.16 2.088-1.211 4.81-1.401 7.133-.29 3.531-.33 7.089-.16 10.627.23 4.782.544 12.484 5.795 14.624 4.498 1.831 6.74-3.732 7.627-7.057 1.502-5.616 1.703-11.73 1.4-17.506"/></g><g><path fill="#0b0212" d="M163.795 147.479c-.973-1.211-2.913.097-2.516 1.463 1.574 5.398 1.841 10.413 1.51 16.043-.22 3.76-.66 7.5-1.076 11.24-3.031-6.829-5.835-13.748-7.805-20.98-.436-1.605-2.944-1.291-2.908.393.095 4.511.154 9.02.194 13.532.037 4.227-.12 8.485.676 12.657.116.606 1.104.606 1.22 0 .797-4.172.639-8.43.676-12.657.012-1.303.03-2.606.045-3.909 2.155 6.132 4.822 12.08 7.5 18.017.74 1.64 2.934.618 3.063-.83.567-6.331 1.527-12.616 1.89-18.967.276-4.855.784-11.95-2.47-16.002"/></g><g transform="rotate(7 149 119.5)"><path d="M153.718 129.247c-1.71-3.078-3.335-6.21-5.028-9.293-2.366-4.316-4.631-8.673-6.862-13.056-.03-.39-.062-.781-.088-1.172-.058-.84-.626-1.382-1.465-1.45l-.75-.063c-1.284-.104-1.726 1.335-1.318 2.277.278.64.852 1.913.852 1.913l3.726 7.429s7.571 12.958 11.268 19.524c.697 1.236 2.55.636 2.595-.697.355-10.624.312-21.27.412-31.9.022-2.305-3.632-2.305-3.61 0 .084 8.826.071 17.662.268 26.488z"/></g><g><path d="M175.676 132.624c-2.974 0-5.973.011-8.919-.439-.24-4.465-.28-8.939-.32-13.408 2.21.603 5.029.36 7.139-.3 1.922-.603 1.117-3.576-.837-3.005-2.047.598-4.295.386-6.328.954a390.353 390.353 0 0 0-.091-5.848c-.05-2.053-.039-4.189-.322-6.246 3.152.488 6.518 1.173 9.678.957 1.858-.128 1.833-2.682 0-2.844-3.266-.289-6.812-.637-10.069-.228-.195.024-.37.102-.518.217-.427-.009-.893.305-.938.807-.213 2.418.011 4.912.032 7.337.02 2.447-.004 4.893-.025 7.34-.047 5.099-.059 10.192.244 15.285.03.502.343 1.053.885 1.153 3.428.641 6.911.67 10.39.674 1.563.002 1.563-2.408 0-2.406"/></g><g><path d="M130.539 230.327c-.663.026-1.404-.39-1.591-1.006-1.599-5.181-3.19-10.382-4.4-15.64-.057-.006-.108-.003-.158-.012-13.817-2.214-25.02-12.778-32.84-22.951-8.308-10.816-15.35-23.818-17.052-36.931-1.348-10.391.173-21.401 2.991-31.339 3.003-10.623 7.747-20.789 14.551-29.733 13.076-17.2 35.237-30.076 59.357-27.35 21.37 2.417 37.015 18.072 44.683 35.815 7.596 17.587 9.101 37.755 2.621 55.336-5.285 14.317-12.55 28.472-21.68 40.952-6.357 8.693-20.044 25.769-33.781 16.917a1.376 1.376 0 0 1-.54-.63c-1.433 3.712-3.888 6.888-6.308 10.128-1.267 1.711-2.577 3.438-3.664 5.245-.497.83-1.16 1.16-2.19 1.2zm.64-4.222c.224-.283.44-.573.67-.852 1.16-1.406 2.362-2.781 3.535-4.172 2.412-2.839 4.666-5.818 6.221-9.148.339-.716 1.613-.34 1.577.374.31-.17.72-.197 1.188.036 10.015 5.022 19.483-4.407 24.92-10.768 10.677-12.497 18.395-27.564 24.472-42.472 6.768-16.604 6.94-35.102.59-52.342-6.724-18.274-21.542-35.704-43.74-37.688-24.775-2.214-46.663 12.42-58.392 30.954a87.55 87.55 0 0 0-12.16 31.129c-1.815 9.997-2.412 20.466.799 30.452 3.492 10.871 9.453 21.321 17.193 30.281 6.545 7.585 15.113 15.153 25.582 17.413-.13-.72-.266-1.44-.374-2.162-.31-1.991 3.081-2.11 3.37-.126.928 6.45 2.7 12.786 4.55 19.091z"/></g></g><g><g><path fill="#fff" d="M4.762 73.245c1.276 10.24 3.55 20.473 7.13 30.163 2.922 7.912 8.738 15.404 15.49 20.44 3.445 2.569 7.294 4.773 11.54 5.665 2.801.587 5.66.532 8.447.002.056-1.518 1.611-2.974 3.245-1.908.361.234.709.48 1.045.734.663-.12 1.128.4 1.215.992 3.183 2.801 5.322 6.397 7.634 9.92a58.128 58.128 0 0 0-.166-3.415c-.128-1.655-.242-3.4.676-4.871 1.17-1.875 3.733-2.57 5.667-3.287 4.053-1.503 8.185-2.786 12.242-4.28 9.196-3.388 18.181-8.035 24.787-15.461 5.436-6.11 8.958-13.715 11.085-21.563 4.471-16.501 4.012-34.697-.272-51.197-1.525-5.879-3.662-11.518-7.611-16.229-3.55-4.236-7.973-7.58-12.95-9.979-10.742-5.179-23.227-6.115-34.93-4.639C36.578 7.166 9.863 20.488 4.742 44.646c-.903 4.255-.999 8.745-.979 13.083a130.19 130.19 0 0 0 1 15.516"/></g><g><path fill="#fff" d="M4.762 73.245c1.276 10.24 3.55 20.473 7.13 30.163 2.922 7.912 8.738 15.404 15.49 20.44 3.445 2.569 7.294 4.773 11.54 5.665 2.801.587 5.66.532 8.447.002.056-1.518 1.611-2.974 3.245-1.908.361.234.709.48 1.045.734.663-.12 1.128.4 1.215.992 3.183 2.801 5.322 6.397 7.634 9.92a58.128 58.128 0 0 0-.166-3.415c-.128-1.655-.242-3.4.676-4.871 1.17-1.875 3.733-2.57 5.667-3.287 4.053-1.503 8.185-2.786 12.242-4.28 9.196-3.388 18.181-8.035 24.787-15.461 5.436-6.11 8.958-13.715 11.085-21.563 4.471-16.501 4.012-34.697-.272-51.197-1.525-5.879-3.662-11.518-7.611-16.229-3.55-4.236-7.973-7.58-12.95-9.979-10.742-5.179-23.227-6.115-34.93-4.639C36.578 7.166 9.863 20.488 4.742 44.646c-.903 4.255-.999 8.745-.979 13.083a130.19 130.19 0 0 0 1 15.516"/></g><g><path d="M4.107 90.576C1.685 80.434.172 69.977.02 59.542c-.112-7.591.2-15.346 3.136-22.445C7.74 26.013 16.537 17.33 26.785 11.326c10.91-6.392 23.402-10.161 36-11.098C74.606-.649 87.13.907 97.67 6.631c4.916 2.672 9.336 6.235 12.793 10.65 3.917 5 6.246 10.744 7.825 16.858 4.267 16.53 5.042 34.677.944 51.323-1.973 8.01-5.146 15.812-10.156 22.418-5.758 7.59-13.844 13.15-22.57 16.814-4.554 1.911-9.257 3.41-13.952 4.929-2.33.754-6.134 1.617-7.717 3.076-.48.443-.188.031-.442.574.265-.566-.022.581-.028.239-.044.775.029 1.55.098 2.322.29 3.205.333 6.37.03 9.578-.156 1.65-2.298 3.05-3.616 1.499-4.025-4.739-6.535-11.087-11.589-14.864-9.986 3.852-21.265-2.181-28.591-9.207-4.17-4-7.855-8.66-10.48-13.824-2.906-5.72-4.625-12.223-6.11-18.44zm-.345-32.85a130.19 130.19 0 0 0 1 15.515c1.276 10.24 3.55 20.473 7.13 30.163 2.922 7.912 8.737 15.404 15.49 20.44 3.444 2.569 7.294 4.773 11.54 5.665 2.8.587 5.66.532 8.446.002.056-1.518 1.611-2.974 3.246-1.908.36.234.708.48 1.045.734.662-.12 1.127.4 1.215.992 3.182 2.801 5.321 6.397 7.634 9.92a58.128 58.128 0 0 0-.167-3.415c-.128-1.655-.242-3.4.677-4.871 1.17-1.875 3.732-2.57 5.666-3.287 4.054-1.503 8.186-2.786 12.242-4.28 9.196-3.388 18.182-8.035 24.788-15.461 5.435-6.11 8.958-13.715 11.084-21.563 4.471-16.501 4.012-34.697-.272-51.197-1.525-5.879-3.662-11.518-7.61-16.229-3.551-4.236-7.974-7.58-12.95-9.979-10.742-5.179-23.227-6.115-34.93-4.639C36.576 7.162 9.861 20.484 4.74 44.642c-.903 4.255-.998 8.745-.978 13.083z"/></g><g><g><path d="M58.953 95.224c-1.965-2.612-4.773-5.233-5.5-8.517-.401-1.814-.234-3.851.675-5.483.992-1.778 3.398-1.774 5.085-1.196 1 .342 1.645-1.214.716-1.7-1.923-1.004-3.942-1.887-6.06-.891-1.754.824-2.785 2.452-3.344 4.251-1.187 3.82.009 7.7 2.341 10.757 2.233 2.931 4.952 5.627 6.555 8.986 2.036 4.267-3.276 4.524-6.07 5.43-1.342.435-1.052 2.313.327 2.404 3.24.217 8.34-1.359 9.008-5.068.593-3.292-1.881-6.516-3.733-8.973"/></g><g><path d="M46.923 86.756c-.154-2.919-.33-6.204-1.685-8.857-1.04-2.036-3.928-.252-3.02 1.766-.108-.238.191.58.24.755.123.429.238.86.337 1.296.256 1.128.407 2.275.527 3.423.3 2.896.347 5.819.258 8.728-.088 2.894-.353 5.791-.943 8.629-.388 1.866-.914 4.144-2.27 5.549-.358.371-.705.468-.907.437-.706-.108-1.454-.612-1.88-1.197-1.583-2.176-1.871-5.446-2.15-8.028-.685-6.367-.322-12.651.382-18.987.026-.245.039-.49.067-.735.132-1.207-1.672-1.578-2.217-.6-1.16 2.088-1.211 4.81-1.401 7.133-.29 3.531-.33 7.089-.16 10.627.23 4.782.544 12.484 5.795 14.624 4.498 1.831 6.74-3.732 7.627-7.057 1.502-5.616 1.703-11.73 1.4-17.506"/></g></g><g><path fill="#0b0212" d="M78.151 88.5c-.082-3.505-.24-7.008-.38-10.513-.055-1.316-1.991-1.316-2.045 0-.141 3.505-.3 7.008-.38 10.513-.067 2.854-.757 6.3.52 8.926.325.667 1.44.667 1.764 0 1.278-2.625.586-6.072.521-8.926"/></g><g><path fill="#0b0212" d="M75.961 104.35c-2.615 0-2.615 4.055 0 4.055 2.616 0 2.616-4.055 0-4.055"/></g><g><path d="M26.998 53.787c1.779.496 3.68.211 5.537.034.043-3.858.21-7.715.382-11.57.194-4.407-.072-9.07.785-13.405.223-1.125 2.052-1.13 2.275 0 .8 4.13.266 8.582.115 12.76-.158 4.58-.295 9.155-.317 13.738 0 .9-.734 1.613-1.627 1.63-2.671.043-5.378.672-8.006-.072-2.002-.568-1.152-3.677.856-3.115"/></g><g><path d="M53.657 42.714c.209 4.563-.612 9.471-3.413 13.196-.626.827-1.663 1.058-2.47.32-3.974-3.618-5.435-10.133-5.73-15.27-.253-4.44.453-11.395 5.86-12.402.843-.157 1.563.732 1.397 1.417 2.866 3.46 4.162 8.364 4.356 12.74zm-6.833-10.672c-2.001 2.489-1.886 6.83-1.605 9.67.345 3.503 1.23 7.804 3.456 10.809 3.39-6.281 2.073-14.717-1.85-20.48z"/></g><g><path d="M63.775 50.817c-.404-2.514-.627-5.053-.821-7.59-.389-5.117-.533-10.267-1.455-15.323-.259-1.4-2.656-1.085-2.49.336.59 5.158.72 10.36 1.029 15.54.158 2.627.381 5.25.763 7.855.288 1.95.46 4.99 2.124 6.246.691.518 1.67-.049 1.886-.769.31-1.025-.13-1.933-.381-2.933-.281-1.108-.475-2.236-.655-3.362z"/></g><g><path fill="#0b0212" d="M84.795 21.479c-.973-1.211-2.913.097-2.516 1.463 1.574 5.398 1.841 10.413 1.51 16.043-.22 3.76-.66 7.5-1.076 11.24-3.031-6.829-5.835-13.748-7.805-20.98-.436-1.605-2.944-1.291-2.908.393.095 4.511.154 9.02.194 13.532.037 4.227-.12 8.485.676 12.657.116.606 1.104.606 1.22 0 .797-4.172.639-8.43.676-12.657.012-1.303.03-2.606.045-3.909 2.155 6.132 4.822 12.08 7.5 18.017.74 1.64 2.934.618 3.063-.83.567-6.331 1.527-12.616 1.89-18.967.276-4.855.784-11.95-2.47-16.002"/></g></g></g></svg>