<svg xmlns="http://www.w3.org/2000/svg" width="211" height="133" viewBox="0 0 211 133"><g><g><g><path d="M208.848 40.132c-8.478-2.377-16.304-6.05-22.396-12.392-6.176-6.43-9.907-14.893-13.104-23.005-.495-1.259-1.896-2.448-3.4-1.881-12.322 4.647-24.34 10.063-37.068 13.624-5.741 1.608-11.654 3.086-17.536 1.356-5.417-1.596-9.667-5.833-12.98-10.118-.934-1.209-1.797-2.468-2.641-3.738-.732-1.1-1.396-2.855-2.596-3.539-2.892-1.65-5.47 1.766-7.274 3.395-5.012 4.518-10.174 8.853-15.81 12.628-9.406 6.299-19.806 10.028-31.331 9.043-5.338-.455-10.602-1.906-15.551-3.891.06-.361.12-.719.188-1.077.24-1.28-1.573-2.219-2.27-.934a16.132 16.132 0 0 0-.773 1.686c-.41.337-.62.869-.477 1.331-1.67 5.315-1.123 11.547-.906 16.856.159 3.876.37 7.748.388 11.625.016 3.645-.468 7.125-.924 10.707-.591-.92-1.675-1.482-3.075-1.027C13.55 62.647 7.776 64.5 2.126 66.673c-2.294.883-3.031 3.838-.7 5.223 7.693 4.576 16.473 6.665 25.01 9.231-4.741 13.685-9.774 27.27-15.276 40.685-1.018 2.488 2.292 4.407 4.364 3.266 5.235-2.882 9.978-6.586 14.918-9.91 4.448-2.989 9.962-7.1 15.575-7.448 5.694-.355 10.222 3.524 13.753 7.416 3.908 4.307 7.082 9.668 8.99 15.108.66 1.879 3.446 3.078 4.98 1.279 3.596-4.209 7.15-8.443 10.943-12.487 3.594-3.835 8.002-9.119 13.134-11.007 4.4-1.617 9.446 4.015 11.95 7.419 3.378 4.589 5.65 9.802 8.812 14.509.97 1.443 3.399 2.105 4.692.587 6.934-8.144 13.72-19.662 25.019-22.343 6.17-1.465 13.068.484 18.979 2.164 6.654 1.891 13.122 4.355 19.8 6.163 2.222.6 4.244-1.445 3.677-3.579-3.432-12.889-14.897-27.52-7.244-40.785 3.32-5.756 7.999-10.807 12.68-15.534 4.063-4.093 8.41-8.257 13.36-11.339 2.096-1.308 1.779-4.466-.694-5.159z"/></g><g><path fill="#fff" d="M192.021 52.58c-5.09 5.034-10.022 10.52-13.677 16.651-8.016 13.439.246 26.928 4.995 40.092-11.629-3.756-23.741-8.967-35.959-6.87-11.487 1.971-18.956 12.384-25.873 20.993-2.46-4.169-4.642-8.483-7.65-12.346-3.898-5.015-9.662-10.086-16.638-8.943-2.679.437-5.181 2.31-7.252 3.9-2.789 2.141-5.323 4.568-7.773 7.067-3.384 3.457-6.542 7.107-9.673 10.781-2.117-4.445-4.884-8.594-8.095-12.361-4.252-4.995-10.138-9.411-17.048-9.575-6.494-.154-12.322 3.309-17.59 6.662-3.292 2.096-6.443 4.413-9.655 6.638 4.593-11.641 8.866-23.395 12.913-35.229.528-1.541-.598-3.071-2.064-3.539-6.932-2.217-14.16-3.821-20.852-6.664 3.561-1.237 7.15-2.4 10.736-3.566 1.249-.408 1.87-1.351 1.996-2.351.913.653 2.624.374 3.042-.902 2.155-6.554 1.09-14.471.714-21.212-.328-5.895-.52-11.662.157-17.466 11.299 4.899 22.887 7.045 35.01 3.016C74.396 23.164 85.056 14.15 94.932 5.62c3.351 5.413 7.375 10.468 12.72 14.14 5.692 3.91 12.422 4.644 19.129 3.514 14.753-2.482 28.498-8.994 42.342-14.348 3.326 8.161 7.242 16.137 13.331 22.711 5.261 5.684 12.074 9.496 19.347 12.156-3.475 2.693-6.7 5.741-9.78 8.787z"/></g><g><path d="M96.832 78.384c-4.046 1.572-8.164 3.014-12.357 4.181-.051-5.388-.19-10.77-.313-16.153 4.378-.912 8.694-1.235 13.138-1.585 2.304-.182 2.339-3.382 0-3.509-4.403-.242-8.962.841-13.208 1.982-.098-4.719-.165-9.435-.13-14.155 2.278-.245 4.568-.333 6.855-.534 2.14-.188 5.875.071 7.338-1.67.482-.574.485-1.446-.245-1.85-.985-.548-1.515-.507-2.625-.328-1.754.284-3.538.417-5.306.578a76.974 76.974 0 0 0-5.973.785c.01-.634.015-1.268.03-1.903.038-1.607-2.327-1.52-2.505 0-.094.814-.177 1.626-.254 2.442-1.25.382-1.101 1.856-.201 2.46-.846 11.834.01 23.78-.007 35.624-.001 1.101 1.094 1.876 2.169 1.611 4.946-1.22 9.785-2.858 14.53-4.67 2.09-.8 1.169-4.124-.936-3.306"/></g><g><path d="M126.882 87.848c.652 3.174-4.352 4.522-4.987 1.338-1.347-6.76-2.255-13.637-3.452-20.446-1.109.175-2.312.032-3.489.002-1.522-.04-3.027-.065-4.532-.187-.427 4.447-.74 8.91-1.02 13.365-.116 1.834-2.818 1.838-2.928 0-.412-6.889-.283-13.777.606-20.633.806-6.217 1.954-12.459 4.743-18.158.72-1.468 3.088-1.356 3.842 0 7.57 13.643 8.153 29.796 11.217 44.72zm-9.157-22.973c-.994-5.052-2.224-10.044-4-14.896-1.47 4.35-2.227 8.998-2.759 13.466-.067.55-.117 1.103-.179 1.652a66.313 66.313 0 0 1 4.167-.157c.934-.01 1.872-.108 2.771-.065z"/></g><g><path d="M149.169 41.397c-.107-1.943-2.981-1.94-3.097 0-.365 6.21-.781 12.464-1.094 18.726-1.72-.604-3.982-.311-5.629-.185a26.967 26.967 0 0 0-5.392.966c-.08-.832-.154-1.665-.22-2.502-.278-3.57-.373-7.145-.397-10.726-.019-2.722.757-5.854.025-8.493-.229-.828-1.51-1.295-2.127-.548-1.762 2.138-1.64 5.283-1.786 7.906-.219 3.949-.013 7.92.261 11.86.503 7.286 1.101 15.16 3.366 22.165.789 2.44 4.49 1.439 3.924-1.055-1.156-5.105-2.066-10.196-2.69-15.354 1.664-.274 3.351-.407 5.036-.49 1.689-.08 3.719.404 5.46.116-.259 6.06-.391 12.12-.254 18.14.059 2.637 4.13 2.634 4.198 0 .348-13.446 1.167-27.091.416-40.526"/></g><g><path d="M162.841 59.964c-.148-2.634-.338-5.265-.505-7.898-.336-5.303-.612-10.669.218-15.945.275-1.746-2.29-2.539-2.784-.747-1.343 4.91-1.267 10.056-1.128 15.1.081 2.906.284 5.81.434 8.715.122 2.388-.395 5.257 1.152 7.248.517.666 1.354.677 1.87 0 1.437-1.885.868-4.256.743-6.473"/></g><g><path d="M161.632 75.563c-.092-.012-.186-.022-.28-.033a1.86 1.86 0 0 0-1.064-.221c-.766-.132-1.354.205-1.7.73a1.917 1.917 0 0 0-.358 1.178c-.006.42.107.839.358 1.177.346.524.934.86 1.7.729a1.844 1.844 0 0 0 1.065-.219l.28-.034c1.686-.23 1.686-3.077 0-3.307"/></g><g><path d="M70.017 40.746c-3.685 6.193-5.67 13.449-7.48 20.435-4.365-4.784-6.535-10.905-7.598-17.27-.257-1.534-2.59-.862-2.375.637.632 4.405 1.922 8.706 3.779 12.765 1.01 2.2 2.832 5.84 5.526 6.458l-.106.414c-1.125 4.332-2.09 8.697-3.018 13.072-.847 3.989-2.068 8.145-2.36 12.212-.178 2.5 3.616 2.804 4.332.57 1.184-3.707 1.553-7.817 2.31-11.632.87-4.39 1.81-8.767 2.794-13.132 1.797-7.98 4.362-15.684 6.639-23.525.414-1.428-1.683-2.283-2.443-1.004"/></g></g></g></svg>