<svg xmlns="http://www.w3.org/2000/svg" width="6" height="20" viewBox="0 0 6 20"><g><g><path fill="#315293" d="M5.337 17a2.342 2.342 0 0 1-2.334 2.337A2.342 2.342 0 0 1 .67 17a2.342 2.342 0 0 1 2.333-2.337A2.342 2.342 0 0 1 5.337 17zm0-6.997a2.342 2.342 0 0 1-2.334 2.337A2.342 2.342 0 0 1 .67 10.003a2.342 2.342 0 0 1 2.333-2.337 2.342 2.342 0 0 1 2.334 2.337zM.67 3.007A2.342 2.342 0 0 1 3.003.67a2.342 2.342 0 0 1 2.334 2.337 2.342 2.342 0 0 1-2.334 2.337A2.342 2.342 0 0 1 .67 3.007z"/></g></g></svg>